<?xml version="1.0" standalone="no"?>
<!DOCTYPE svg PUBLIC "-//W3C//DTD SVG 1.1//EN" "http://www.w3.org/Graphics/SVG/1.1/DTD/svg11.dtd" >
<svg xmlns="http://www.w3.org/2000/svg" xmlns:xlink="http://www.w3.org/1999/xlink" version="1.1">
<metadata>
Created by FontForge 20170812 at Wed Jul 11 02:32:38 2018
 By www-data
Copyright \251 2017 by Deni Anggara. All rights reserved.
</metadata>
<defs>
<font id="AllianceNo.1-Black" horiz-adv-x="0" >
  <font-face 
    font-family="Alliance No.1 Black"
    font-weight="900"
    font-stretch="normal"
    units-per-em="1000"
    panose-1="0 0 10 0 0 0 0 0 0 0"
    ascent="794"
    descent="-206"
    x-height="544"
    cap-height="729"
    bbox="-578 -326 2115 1045"
    underline-thickness="50"
    underline-position="-100"
    stemh="154"
    stemv="191"
    unicode-range="U+000D-FB02"
  />
<missing-glyph horiz-adv-x="644" 
d="M644 0h-644v729h644v-729zM63 666v-604h518v604h-518zM518 125h-392v478h392v-478zM189 540v-351h266v351h-266zM252 252v225h140v-225h-140z" />
    <glyph glyph-name="fi" unicode="fi" horiz-adv-x="705" 
d="M301 544h357v-544h-191v391h-166v-391h-191v391h-104v153h104v18c0 131 84 198 221 198c31 0 59 -3 84 -10v-149c-15 3 -29 5 -42 5c-48 0 -72 -18 -72 -55v-7zM467 581v169h191v-169h-191z" />
    <glyph glyph-name="fl" unicode="fl" horiz-adv-x="705" 
d="M467 544v206h191v-750h-191v391h-166v-391h-191v391h-104v153h104v18c0 131 84 198 221 198c31 0 59 -3 84 -10v-149c-15 3 -29 5 -42 5c-48 0 -72 -18 -72 -55v-7h166z" />
    <glyph glyph-name="f_f" unicode="ff" horiz-adv-x="774" 
d="M727 606c-48 0 -72 -18 -72 -55v-7h114v-153h-114v-391h-191v391h-163v-391h-191v391h-104v153h104v18c0 131 84 198 221 198c31 0 59 -3 84 -10v-149c-15 3 -29 5 -42 5c-48 0 -72 -18 -72 -55v-7h163v18c0 131 84 198 221 198c31 0 59 -3 84 -10v-149
c-15 3 -29 5 -42 5z" />
    <glyph glyph-name="f_f_i" unicode="ffi" horiz-adv-x="1059" 
d="M655 544h357v-544h-191v391h-166v-391h-191v391h-163v-391h-191v391h-104v153h104v18c0 131 84 198 221 198c31 0 59 -3 84 -10v-149c-15 3 -29 5 -42 5c-48 0 -72 -18 -72 -55v-7h163v18c0 131 84 198 221 198c31 0 59 -3 84 -10v-149c-15 3 -29 5 -42 5
c-48 0 -72 -18 -72 -55v-7zM821 581v169h191v-169h-191z" />
    <glyph glyph-name="t_i" unicode="ti" horiz-adv-x="682" 
d="M444 581v169h191v-169h-191zM279 544h356v-544h-191v391h-165v-186c0 -48 19 -64 59 -64c22 0 40 2 55 5v-146c-40 -7 -78 -10 -115 -10c-84 0 -138 23 -162 64c-23 41 -28 74 -28 126v211h-84v153h84v117l191 74v-191z" />
    <glyph glyph-name="t_t" unicode="tt" horiz-adv-x="780" 
d="M755 544v-153h-114v-186c0 -48 19 -64 59 -64c22 0 40 2 55 5v-146c-40 -7 -78 -10 -115 -10c-84 0 -138 23 -162 64c-23 41 -28 74 -28 126v211h-171v-186c0 -48 19 -64 59 -64c22 0 40 2 55 5v-146c-40 -7 -78 -10 -115 -10c-84 0 -138 23 -162 64
c-23 41 -28 74 -28 126v211h-84v153h84v117l191 74v-191h171v117l191 74v-191h114z" />
    <glyph glyph-name="t_t_i" unicode="tti" horiz-adv-x="1040" 
d="M802 581v169h191v-169h-191zM637 544h356v-544h-191v391h-165v-186c0 -48 19 -64 59 -64c22 0 40 2 55 5v-146c-40 -7 -78 -10 -115 -10c-84 0 -138 23 -162 64c-23 41 -28 74 -28 126v211h-167v-186c0 -48 19 -64 59 -64c22 0 40 2 55 5v-146c-40 -7 -78 -10 -115 -10
c-84 0 -138 23 -162 64c-23 41 -28 74 -28 126v211h-84v153h84v117l191 74v-191h167v117l191 74v-191z" />
    <glyph glyph-name="hyphen_hyphen_greater" unicode="&#x2d;&#x2d;&#x3e;" horiz-adv-x="860" 
d="M681 228h-586v100h586l-169 224h126l208 -272l-208 -280h-126z" />
    <glyph glyph-name="less_hyphen_hyphen" unicode="&#x3c;&#x2d;&#x2d;" horiz-adv-x="860" 
d="M767 328v-100h-586l169 -228h-126l-208 280l208 272h126l-169 -224h586z" />
    <glyph glyph-name=".notdef" horiz-adv-x="644" 
d="M644 0h-644v729h644v-729zM63 666v-604h518v604h-518zM518 125h-392v478h392v-478zM189 540v-351h266v351h-266zM252 252v225h140v-225h-140z" />
    <glyph glyph-name="NULL" 
 />
    <glyph glyph-name="CR.001" horiz-adv-x="333" 
 />
    <glyph glyph-name="CR" unicode="&#xd;" horiz-adv-x="159" 
 />
    <glyph glyph-name="space" unicode=" " horiz-adv-x="203" 
 />
    <glyph glyph-name="exclam" unicode="!" horiz-adv-x="315" 
d="M208 236h-99l-48 275v218h194v-218zM258 0h-201v178h201v-178z" />
    <glyph glyph-name="quotedbl" unicode="&#x22;" horiz-adv-x="591" 
d="M257 554l-44 -200h-83l-43 200v175h170v-175zM504 554l-43 -200h-83l-44 200v175h170v-175z" />
    <glyph glyph-name="numbersign" unicode="#" horiz-adv-x="700" 
d="M653 545v-79h-115v-178h115v-80h-115v-208h-85v208h-204v-208h-87v208h-116v80h116v178h-116v79h116v205h87v-205h204v205h85v-205h115zM249 288h204v178h-204v-178z" />
    <glyph glyph-name="dollar" unicode="$" horiz-adv-x="573" 
d="M551 262c0 -116 -82 -195 -210 -211v-59h-115v61c-124 20 -200 99 -200 210h192c0 -41 23 -62 69 -62c39 0 58 11 58 34c0 16 -1 24 -16 31c-13 7 -14 6 -43 13l-76 18c-118 27 -177 93 -177 197c0 108 76 185 193 204v62h115v-62c112 -17 179 -93 179 -190h-192
c1 33 -18 47 -49 47c-29 0 -43 -11 -43 -32c0 -17 8 -29 24 -37c16 -7 20 -7 36 -11l70 -14c129 -27 185 -102 185 -199z" />
    <glyph glyph-name="percent" unicode="%" horiz-adv-x="899" 
d="M47 556c0 53 17 96 51 130c34 35 78 52 132 52c55 0 100 -17 134 -52c34 -34 51 -78 51 -132c0 -53 -17 -96 -52 -131s-79 -52 -133 -52c-53 0 -96 17 -131 52s-52 79 -52 133zM258 0h-80l464 729h81zM163 557c0 -47 27 -80 67 -80c41 0 69 33 69 80c0 44 -28 75 -69 75
c-39 0 -67 -31 -67 -75zM482 175c0 53 17 96 51 131s78 52 133 52s99 -18 132 -53c34 -35 51 -79 51 -132s-17 -96 -52 -131c-34 -35 -78 -52 -131 -52s-97 17 -132 52s-52 79 -52 133zM597 176c0 -47 28 -80 69 -80s69 33 69 80c0 45 -29 76 -69 76s-69 -31 -69 -76z" />
    <glyph glyph-name="ampersand" unicode="&#x26;" horiz-adv-x="823" 
d="M581 405l160 -43c-21 -74 -55 -143 -102 -206l142 -156h-230l-38 42c-49 -35 -116 -52 -201 -52c-148 0 -248 68 -248 195c0 79 46 145 138 200v8c-67 59 -91 105 -91 162c0 112 89 183 232 183c140 0 226 -71 226 -176c0 -71 -38 -125 -125 -184v-8l86 -95
c19 31 36 75 51 130zM292 559c0 -23 15 -50 44 -79h7c31 31 46 57 46 79c6 56 -104 54 -97 0zM260 216c0 -45 33 -72 82 -72c27 0 49 6 64 17l-107 117c-26 -17 -39 -37 -39 -62z" />
    <glyph glyph-name="quotesingle" unicode="'" horiz-adv-x="344" 
d="M257 554l-44 -200h-83l-43 200v175h170v-175z" />
    <glyph glyph-name="parenleft" unicode="(" horiz-adv-x="363" 
d="M267 775h104c-69 -44 -126 -108 -170 -191c-43 -83 -65 -171 -65 -263c0 -91 22 -179 65 -263c44 -83 101 -147 170 -190h-104c-67 43 -120 106 -161 189s-61 171 -61 264s20 181 61 264s94 147 161 190z" />
    <glyph glyph-name="parenright" unicode=")" horiz-adv-x="346" 
d="M318 321c0 -94 -20 -182 -61 -265c-41 -82 -94 -145 -161 -188h-104c69 43 126 107 169 190c44 84 66 172 66 263c0 92 -22 180 -66 263c-43 83 -100 147 -169 191h104c67 -43 120 -107 161 -190s61 -171 61 -264z" />
    <glyph glyph-name="asterisk" unicode="*" horiz-adv-x="361" 
d="M67 462l-36 64l108 46l-108 47l36 63l92 -71l-14 118h72l-14 -118l91 71l37 -63l-108 -47l108 -46l-37 -64l-91 73l14 -118h-72l14 118z" />
    <glyph glyph-name="plus" unicode="+" horiz-adv-x="593" 
d="M553 261h-182v-183h-150v183h-181v146h181v188h150v-188h182v-146z" />
    <glyph glyph-name="comma" unicode="," horiz-adv-x="247" 
d="M33 -147v63c67 0 100 27 100 81v3h-81v173h169v-166c0 -97 -73 -154 -188 -154z" />
    <glyph glyph-name="hyphen" unicode="-" horiz-adv-x="481" 
d="M427 250h-374v100h374v-100z" />
    <glyph glyph-name="period" unicode="." horiz-adv-x="291" 
d="M230 0h-169v187h169v-187z" />
    <glyph glyph-name="slash" unicode="/" horiz-adv-x="341" 
d="M85 0h-94l264 729h95z" />
    <glyph glyph-name="zero" unicode="0" horiz-adv-x="638" 
d="M317 -6c-90 0 -160 33 -210 100s-75 157 -75 270c0 115 26 205 78 269c53 65 123 97 211 97c89 0 159 -33 208 -100c50 -67 75 -156 75 -268c0 -116 -26 -206 -78 -271s-122 -97 -209 -97zM317 160c37 0 62 18 73 57c12 39 15 75 15 138c0 184 -40 211 -85 211
c-31 0 -53 -16 -66 -37c-19 -38 -24 -90 -23 -158c0 -180 40 -211 86 -211z" />
    <glyph glyph-name="one" unicode="1" horiz-adv-x="480" 
d="M209 446h-189v145h32c93 0 161 53 169 130h179v-721h-191v446z" />
    <glyph glyph-name="two" unicode="2" horiz-adv-x="588" 
d="M403 167h160v-167h-538v24c0 71 17 130 40 170c11 21 28 42 50 64c23 22 43 40 62 54l78 55c25 17 44 30 55 39c23 19 50 55 50 92c0 44 -28 69 -72 69c-48 0 -75 -32 -70 -93h-190c-2 78 22 140 71 186c50 47 117 70 200 70c78 0 141 -21 188 -64c47 -42 71 -99 71 -171
c0 -101 -52 -170 -148 -237l-44 -29c-43 -28 -70 -48 -94 -69c41 5 85 7 131 7z" />
    <glyph glyph-name="three" unicode="3" horiz-adv-x="624" 
d="M306 -10c-171 0 -274 91 -279 235h189c1 -44 38 -73 91 -73s87 30 87 77c0 41 -29 66 -72 66h-99v141h82c51 0 79 26 79 67s-29 65 -77 65c-49 0 -81 -26 -84 -69h-192c3 71 30 127 81 168c51 42 119 63 204 63c79 0 142 -18 190 -54c49 -36 73 -84 73 -145
c0 -72 -38 -132 -95 -155v-7c67 -20 105 -80 105 -159c0 -66 -26 -119 -79 -160c-52 -40 -120 -60 -204 -60z" />
    <glyph glyph-name="four" unicode="4" horiz-adv-x="636" 
d="M539 721v-434h75v-155h-75v-132h-191v132h-318v141l250 448h259zM348 510l-125 -223h125v223z" />
    <glyph glyph-name="five" unicode="5" horiz-adv-x="617" 
d="M346 490c74 0 133 -23 176 -68s65 -104 65 -176c0 -77 -25 -139 -75 -186s-119 -70 -206 -70c-85 0 -152 22 -203 66c-50 44 -75 102 -75 173h193c1 -44 34 -73 86 -73c53 0 88 36 88 85c0 52 -35 91 -91 91c-43 0 -70 -18 -81 -55h-182l21 444h468v-166h-300l-4 -88
l8 -3c26 17 63 26 112 26z" />
    <glyph glyph-name="six" unicode="6" horiz-adv-x="631" 
d="M324 -9c-187 0 -291 127 -291 367c0 249 114 372 299 372c144 0 235 -75 255 -194h-189c-10 24 -34 36 -71 36c-65 0 -105 -52 -100 -135h8c27 37 73 56 137 56c69 0 124 -22 166 -67c43 -44 64 -102 64 -175c0 -78 -25 -141 -76 -189c-51 -47 -118 -71 -202 -71z
M327 156c53 0 86 36 86 91s-34 93 -86 93c-51 0 -84 -37 -84 -94c0 -56 32 -90 84 -90z" />
    <glyph glyph-name="seven" unicode="7" horiz-adv-x="569" 
d="M159 445h-151v276h545v-139c-65 -85 -121 -180 -170 -283s-80 -203 -94 -299h-205c11 91 39 186 83 284s97 188 160 271h-168v-110z" />
    <glyph glyph-name="eight" unicode="8" horiz-adv-x="620" 
d="M31 194c0 79 33 133 100 163v8c-67 31 -100 85 -100 162c0 61 26 110 77 147s119 56 204 56c83 0 150 -19 201 -56s77 -85 77 -146c0 -77 -33 -132 -100 -163v-8c64 -29 100 -88 100 -164c0 -61 -26 -110 -77 -147s-119 -56 -203 -56c-83 0 -151 19 -202 56
s-77 87 -77 148zM310 438c53 0 84 24 84 63c0 41 -33 66 -84 66c-52 0 -83 -26 -83 -66s32 -63 83 -63zM227 219c0 -41 32 -65 83 -65c53 0 84 25 84 65c0 41 -33 65 -84 65c-52 0 -83 -25 -83 -65z" />
    <glyph glyph-name="nine" unicode="9" horiz-adv-x="624" 
d="M290 -9c-139 0 -233 77 -252 194h189c10 -24 35 -36 74 -36c67 0 102 52 97 135h-8c-27 -37 -71 -56 -134 -56c-71 0 -127 22 -170 66c-42 45 -63 103 -63 176c0 78 25 141 75 188c51 48 117 72 200 72c189 0 294 -135 294 -376c0 -233 -98 -363 -302 -363zM298 381
c51 0 84 37 84 94c0 56 -32 90 -84 90c-53 0 -86 -36 -86 -91s34 -93 86 -93z" />
    <glyph glyph-name="colon" unicode=":" horiz-adv-x="287" 
d="M226 371h-169v173h169v-173zM226 0h-169v173h169v-173z" />
    <glyph glyph-name="semicolon" unicode=";" horiz-adv-x="268" 
d="M220 371h-169v173h169v-173zM33 -147v59c75 0 99 26 99 79v9h-81v173h169v-157c0 -109 -62 -163 -187 -163z" />
    <glyph glyph-name="less" unicode="&#x3c;" horiz-adv-x="507" 
d="M448 181v-178l-402 213v140l402 218v-172l-125 -59l-127 -53v-10l134 -48z" />
    <glyph glyph-name="equal" unicode="=" horiz-adv-x="535" 
d="M468 332h-402v151h402v-151zM468 111h-402v150h402v-150z" />
    <glyph glyph-name="greater" unicode="&#x3e;" horiz-adv-x="507" 
d="M461 216l-402 -213v178l117 51l136 48v10l-128 53l-125 59v172l402 -218v-140z" />
    <glyph glyph-name="question" unicode="?" horiz-adv-x="601" 
d="M383 221h-181v198c7 -6 30 -9 67 -9c73 0 115 35 115 87c0 49 -34 79 -89 79c-48 0 -82 -23 -89 -60h-187c12 143 119 222 280 222c176 0 276 -93 276 -241c0 -53 -18 -101 -53 -142s-82 -68 -139 -81v-53zM382 0h-180v171h180v-171z" />
    <glyph glyph-name="at" unicode="@" horiz-adv-x="916" 
d="M56 317c0 125 38 226 115 304s178 117 302 117c117 0 213 -36 286 -107c74 -71 111 -161 111 -272c0 -79 -19 -142 -56 -189s-86 -70 -146 -70c-52 0 -101 27 -117 72h-8c-20 -44 -57 -66 -111 -66c-101 0 -157 83 -157 200c0 61 15 112 46 151s73 59 125 59
c45 0 78 -15 100 -45h7l13 33h67l-18 -237c-3 -45 5 -70 48 -70c69 0 104 61 104 162c0 91 -27 161 -81 210s-124 74 -210 74c-99 0 -175 -30 -230 -90c-54 -60 -81 -137 -81 -231c0 -102 31 -182 94 -241c63 -58 140 -87 231 -87c85 0 163 18 236 53v-98
c-67 -33 -148 -50 -241 -50c-125 0 -228 38 -309 114c-80 76 -120 177 -120 304zM375 305c0 -71 30 -104 67 -104c45 0 85 42 85 123c0 72 -31 103 -70 103c-45 0 -82 -42 -82 -122z" />
    <glyph glyph-name="A" unicode="A" horiz-adv-x="737" 
d="M741 0h-223l-31 100h-250l-32 -100h-209l247 729h237zM304 312l-18 -58h154l-18 58l-53 202h-7z" />
    <glyph glyph-name="B" unicode="B" horiz-adv-x="721" 
d="M458 0h-395v729h394c65 0 117 -17 157 -51c41 -34 61 -79 61 -135c0 -77 -38 -135 -103 -160v-9c83 -21 123 -84 123 -171c0 -61 -22 -110 -65 -147s-100 -56 -172 -56zM260 583v-139h131c44 0 75 26 75 73c0 43 -30 66 -75 66h-131zM260 301v-155h136c43 0 86 19 86 78
c0 57 -42 77 -86 77h-136z" />
    <glyph glyph-name="C" unicode="C" horiz-adv-x="756" 
d="M521 259h210c-8 -80 -44 -145 -107 -195c-63 -49 -139 -74 -230 -74c-113 0 -202 34 -268 101c-65 68 -98 158 -98 271s33 204 100 273s155 103 266 103c93 0 171 -25 232 -74c62 -49 97 -113 105 -193h-210c-17 57 -67 91 -128 91c-97 0 -151 -73 -151 -201
c0 -129 54 -195 146 -195c67 0 120 37 133 93z" />
    <glyph glyph-name="D" unicode="D" horiz-adv-x="755" 
d="M385 0h-322v729h322c110 0 194 -33 253 -99s89 -155 89 -266s-30 -200 -89 -266c-59 -65 -144 -98 -253 -98zM266 557v-385h83c51 0 84 8 116 33c33 27 50 82 50 163c0 73 -14 123 -43 149c-28 27 -69 40 -123 40h-83z" />
    <glyph glyph-name="E" unicode="E" horiz-adv-x="639" 
d="M597 0h-534v729h534v-172h-331v-98h278v-161h-278v-126h331v-172z" />
    <glyph glyph-name="F" unicode="F" horiz-adv-x="622" 
d="M266 0h-203v729h539v-172h-336v-153h296v-163h-296v-241z" />
    <glyph glyph-name="G" unicode="G" horiz-adv-x="802" 
d="M348 252v157h402v-409h-165l-8 80h-7c-36 -53 -121 -90 -218 -90c-99 0 -177 34 -236 101c-59 68 -88 156 -88 265c0 115 33 208 99 277c67 70 156 105 267 105c89 0 164 -22 224 -67c61 -44 95 -102 104 -175h-211c-15 40 -60 66 -117 66c-101 0 -152 -78 -152 -203
c0 -132 57 -199 152 -199c69 0 122 36 135 92h-181z" />
    <glyph glyph-name="H" unicode="H" horiz-adv-x="810" 
d="M266 0h-203v729h203v-281h278v281h203v-729h-203v291h-278v-291z" />
    <glyph glyph-name="I" unicode="I" horiz-adv-x="329" 
d="M266 729v-729h-203v729h203z" />
    <glyph glyph-name="J" unicode="J" horiz-adv-x="433" 
d="M375 729v-492c0 -164 -85 -246 -255 -246c-42 0 -77 3 -105 9v161c15 -3 34 -5 57 -5c76 0 101 37 101 108v465h202z" />
    <glyph glyph-name="K" unicode="K" horiz-adv-x="755" 
d="M752 0h-246l-165 249l-75 -90v-159h-203v729h203v-284l226 284h250l-263 -315z" />
    <glyph glyph-name="L" unicode="L" horiz-adv-x="573" 
d="M536 0h-473v729h203v-550h270v-179z" />
    <glyph glyph-name="M" unicode="M" horiz-adv-x="921" 
d="M261 0h-198v729h248l147 -337h8l144 337h248v-729h-196v255l10 193h-7l-203 -438l-203 438h-9l11 -195v-253z" />
    <glyph glyph-name="N" unicode="N" horiz-adv-x="793" 
d="M266 0h-203v729h230l239 -437h8l-11 202v235h201v-729h-230l-237 431h-8l11 -195v-236z" />
    <glyph glyph-name="O" unicode="O" horiz-adv-x="781" 
d="M28 365c0 119 32 210 97 275s154 98 265 98c116 0 205 -34 268 -102c63 -67 95 -158 95 -271c0 -120 -33 -213 -98 -278s-154 -97 -265 -97c-115 0 -205 34 -268 101c-63 68 -94 159 -94 274zM242 365c0 -128 57 -199 148 -199c96 0 150 78 150 199
c0 124 -58 197 -150 197c-95 0 -148 -78 -148 -197z" />
    <glyph glyph-name="P" unicode="P" horiz-adv-x="695" 
d="M63 729h340c83 0 149 -24 199 -71s75 -110 75 -187s-25 -140 -75 -187s-116 -71 -199 -72h-137v-212h-203v729zM266 384h108c59 0 88 28 88 84c0 60 -29 82 -88 82h-108v-166z" />
    <glyph glyph-name="Q" unicode="Q" horiz-adv-x="781" 
d="M548 18c31 -14 72 -21 123 -21c26 0 49 2 69 6v-176c-19 -2 -36 -3 -53 -3c-161 0 -269 63 -314 166c-110 3 -195 39 -255 106c-60 68 -90 158 -90 269c0 119 32 210 97 275s154 98 265 98c116 0 205 -34 268 -102c63 -67 95 -158 95 -271c0 -176 -76 -296 -205 -347z
M242 365c0 -128 57 -199 148 -199c96 0 150 78 150 199c0 124 -58 197 -150 197c-95 0 -148 -78 -148 -197z" />
    <glyph glyph-name="R" unicode="R" horiz-adv-x="741" 
d="M266 0h-203v729h385c148 0 233 -84 233 -224c0 -77 -41 -145 -105 -178v-8c64 -20 96 -69 96 -147v-80c0 -41 4 -72 13 -92h-209c-8 17 -12 47 -12 90v55c0 57 -23 86 -91 86h-107v-231zM266 557v-155h114c56 0 85 30 85 78c0 51 -28 77 -85 77h-114z" />
    <glyph glyph-name="S" unicode="S" horiz-adv-x="675" 
d="M19 231h210c3 -49 46 -81 114 -81c57 0 90 23 90 60c0 22 -12 36 -28 43c-14 9 -35 12 -49 14l-103 21c-15 3 -26 6 -34 7l-39 11c-18 6 -33 12 -44 18c-21 12 -57 37 -74 62c-16 27 -31 68 -31 113c0 73 27 131 81 174c55 43 127 65 216 65c87 0 158 -20 213 -61
c55 -40 83 -93 84 -159h-211c-3 40 -41 63 -92 63s-76 -17 -76 -51c0 -19 12 -30 23 -39c8 -4 24 -8 31 -11l31 -5l110 -21c139 -27 208 -99 208 -218c0 -77 -28 -138 -85 -181s-133 -65 -228 -65s-172 22 -230 66s-87 102 -87 175z" />
    <glyph glyph-name="T" unicode="T" horiz-adv-x="585" 
d="M7 729h571v-174h-187v-555h-203v555h-181v174z" />
    <glyph glyph-name="U" unicode="U" horiz-adv-x="769" 
d="M57 284v445h202v-433c0 -80 45 -127 126 -127c79 0 125 44 125 127v433h202v-445c0 -92 -30 -164 -90 -216c-59 -52 -139 -78 -239 -78c-219 0 -326 111 -326 294z" />
    <glyph glyph-name="V" unicode="V" horiz-adv-x="760" 
d="M507 0h-253l-253 729h227l84 -281l64 -253h8l66 253l82 281h227z" />
    <glyph glyph-name="W" unicode="W" horiz-adv-x="1023" 
d="M153 0l-148 729h224l51 -329l24 -179h9l77 508h246l81 -510h8l21 178l48 332h224l-148 -729h-276l-77 450h-8l-80 -450h-276z" />
    <glyph glyph-name="X" unicode="X" horiz-adv-x="747" 
d="M266 0h-250l196 362l-213 368h254l64 -130l54 -121h8l48 118l61 133h250l-200 -367l210 -363h-255l-49 99l-64 138h-7l-61 -137z" />
    <glyph glyph-name="Y" unicode="Y" horiz-adv-x="742" 
d="M269 269l-270 460h239l57 -129l71 -153h8l71 149l60 133h238l-271 -460v-269h-203v269z" />
    <glyph glyph-name="Z" unicode="Z" horiz-adv-x="592" 
d="M20 729h549v-165l-299 -392h293v-172h-543v167l296 389h-296v173z" />
    <glyph glyph-name="bracketleft" unicode="[" horiz-adv-x="309" 
d="M283 -242h-200v1039h200v-78h-116v-887h116v-74z" />
    <glyph glyph-name="backslash" unicode="\" horiz-adv-x="341" 
d="M86 729l264 -729h-94l-265 729h95z" />
    <glyph glyph-name="bracketright" unicode="]" horiz-adv-x="309" 
d="M226 -242h-201v74h117v887h-117v78h201v-1039z" />
    <glyph glyph-name="asciicircum" unicode="^" horiz-adv-x="476" 
d="M454 468h-144l-71 118l-73 -118h-144l157 261h119z" />
    <glyph glyph-name="underscore" unicode="_" horiz-adv-x="358" 
d="M360 -92h-362v92h362v-92z" />
    <glyph glyph-name="grave" unicode="`" horiz-adv-x="408" 
d="M342 802l-55 -91l-252 140l76 124z" />
    <glyph glyph-name="a" unicode="a" horiz-adv-x="593" 
d="M14 149c0 111 87 179 219 179h113v27c0 35 -22 54 -58 54c-37 0 -63 -21 -64 -50h-188c11 123 111 195 259 195c160 0 242 -77 242 -204v-191c0 -20 7 -30 22 -30c7 0 12 1 16 2v-129c-37 -8 -68 -12 -93 -12c-76 0 -118 29 -126 88h-8c-17 -55 -79 -88 -159 -88
c-107 0 -175 62 -175 159zM206 174c0 -29 19 -43 58 -43c53 0 82 29 82 76v13h-78c-41 0 -62 -15 -62 -46z" />
    <glyph glyph-name="b" unicode="b" horiz-adv-x="658" 
d="M212 0h-165v750h191v-303h10c25 65 85 107 170 107c135 0 220 -103 220 -282c0 -175 -80 -282 -213 -282c-80 0 -146 37 -177 108h-10zM238 282v-21c0 -77 39 -118 102 -118c69 0 104 49 104 129c0 85 -40 129 -104 129c-67 0 -102 -46 -102 -119z" />
    <glyph glyph-name="c" unicode="c" horiz-adv-x="575" 
d="M370 208h188c-3 -65 -28 -118 -77 -158c-48 -40 -109 -60 -183 -60c-83 0 -151 26 -202 78s-76 120 -76 205s26 153 77 204s119 77 202 77c73 0 134 -20 182 -59s74 -92 78 -159h-188c-7 43 -31 64 -73 64c-56 0 -84 -43 -84 -128s28 -128 83 -128c43 0 67 21 73 64z" />
    <glyph glyph-name="d" unicode="d" horiz-adv-x="659" 
d="M612 750v-750h-165l-26 98h-10c-31 -69 -99 -108 -175 -108c-133 0 -216 107 -216 280c0 179 84 284 216 284c89 0 148 -44 175 -113h10v309h191zM421 261v21c0 79 -40 119 -104 119c-67 0 -102 -49 -102 -129c0 -85 37 -129 100 -129c71 0 106 45 106 118z" />
    <glyph glyph-name="e" unicode="e" horiz-adv-x="583" 
d="M299 -10c-83 0 -151 26 -202 77s-77 119 -77 204s25 154 76 205c51 52 117 78 200 78c79 0 143 -23 191 -68s72 -105 72 -180c0 -31 -3 -58 -8 -79h-341c-3 -60 30 -95 85 -95c39 0 71 18 80 45h188c-10 -56 -39 -101 -88 -136c-48 -34 -107 -51 -176 -51zM212 348h156
c-1 39 -32 65 -79 65c-45 0 -74 -25 -77 -65z" />
    <glyph glyph-name="f" unicode="f" horiz-adv-x="420" 
d="M415 544v-153h-114v-391h-191v391h-104v153h104v18c0 131 84 198 221 198c31 0 59 -3 84 -10v-149c-15 3 -29 5 -42 5c-48 0 -72 -18 -72 -55v-7h114z" />
    <glyph glyph-name="g" unicode="g" horiz-adv-x="574" 
d="M3 -69c0 49 33 89 84 100v9c-40 13 -64 47 -64 86c0 50 29 85 86 104v9c-57 30 -85 76 -85 139c0 53 21 96 63 128c43 32 99 48 168 48c30 0 55 -3 76 -8c11 37 35 67 71 90c37 23 79 35 128 35v-142c-45 0 -76 -9 -92 -27c43 -32 65 -75 65 -130c0 -53 -21 -95 -62 -127
c-41 -31 -97 -47 -166 -47c-23 0 -43 2 -62 5c-11 -6 -17 -15 -17 -27c0 -20 20 -30 61 -30h109c125 0 193 -63 193 -164c0 -119 -102 -179 -307 -179c-164 0 -249 48 -249 128zM210 377c0 -31 22 -51 54 -51c33 0 55 20 55 51s-22 50 -55 50c-32 0 -54 -21 -54 -50z
M181 -30c0 -23 27 -35 82 -35c72 0 106 11 106 40c0 17 -12 25 -36 25h-107c-30 0 -45 -10 -45 -30z" />
    <glyph glyph-name="h" unicode="h" horiz-adv-x="652" 
d="M238 0h-191v750h191v-303h10c33 71 91 107 176 107c128 0 186 -88 186 -232v-322h-192v302c0 65 -28 98 -84 98c-63 0 -96 -42 -96 -109v-291z" />
    <glyph glyph-name="i" unicode="i" horiz-adv-x="285" 
d="M238 581h-191v169h191v-169zM238 0h-191v544h191v-544z" />
    <glyph glyph-name="j" unicode="j" horiz-adv-x="285" 
d="M238 581h-192v169h192v-169zM23 -177c-26 0 -51 2 -76 7v147c4 -1 13 -1 27 -1c72 0 72 53 72 76v8v484h192v-516c0 -135 -82 -205 -215 -205z" />
    <glyph glyph-name="k" unicode="k" horiz-adv-x="629" 
d="M639 0h-217l-125 196l-56 -59v-137h-194v750h194v-374l153 168h234l-201 -211z" />
    <glyph glyph-name="l" unicode="l" horiz-adv-x="285" 
d="M238 0h-191v750h191v-750z" />
    <glyph glyph-name="m" unicode="m" horiz-adv-x="947" 
d="M238 0h-191v544h167l23 -99h11c31 76 72 109 148 109c77 0 128 -36 155 -107h12c33 71 88 107 165 107c120 0 177 -90 177 -233v-321h-191v301c0 66 -22 99 -65 99c-51 0 -78 -36 -78 -88v-312h-192v306c0 63 -22 94 -66 94c-48 0 -75 -32 -75 -83v-317z" />
    <glyph glyph-name="n" unicode="n" horiz-adv-x="651" 
d="M238 0h-191v544h168l23 -99h10c33 73 91 109 176 109c127 0 185 -89 185 -233v-321h-191v301c0 66 -28 99 -84 99c-63 0 -96 -44 -96 -112v-288z" />
    <glyph glyph-name="o" unicode="o" horiz-adv-x="598" 
d="M20 273c0 83 26 151 77 203s119 78 202 78c84 0 151 -26 202 -78s77 -120 77 -204c0 -83 -26 -151 -77 -203s-119 -78 -202 -78c-84 0 -152 26 -203 78s-76 120 -76 204zM214 272c0 -80 34 -127 85 -127c55 0 84 51 84 128c0 79 -33 127 -86 127s-83 -52 -83 -128z" />
    <glyph glyph-name="p" unicode="p" horiz-adv-x="658" 
d="M47 -167v711h165l26 -101h10c29 71 96 111 173 111c136 0 217 -108 217 -283c0 -89 -20 -158 -59 -207s-92 -74 -157 -74c-87 0 -149 42 -174 107h-10v-264h-191zM238 280v-17c0 -72 38 -120 102 -120c68 0 104 51 104 130c0 83 -39 128 -102 128
c-64 0 -104 -49 -104 -121z" />
    <glyph glyph-name="q" unicode="q" horiz-adv-x="659" 
d="M447 544h165v-711h-191v264h-10c-27 -67 -87 -107 -174 -107c-133 0 -217 102 -217 282c0 175 80 282 215 282c77 0 144 -40 176 -111h10zM421 263v17c0 72 -42 121 -106 121c-65 0 -100 -45 -100 -126c0 -79 31 -132 102 -132c65 0 104 48 104 120z" />
    <glyph glyph-name="r" unicode="r" horiz-adv-x="412" 
d="M238 0h-191v544h166l24 -99h7c25 73 80 110 164 110v-165c-113 4 -170 -52 -170 -169v-221z" />
    <glyph glyph-name="s" unicode="s" horiz-adv-x="546" 
d="M22 174h188c1 -35 23 -52 66 -52c36 0 54 12 54 35c0 13 -4 23 -16 27c-12 5 -14 6 -31 9l-86 14c-112 19 -168 73 -168 164c0 116 93 183 238 183c147 0 236 -69 240 -174h-188c0 28 -18 42 -55 42c-29 0 -44 -11 -44 -34c0 -9 3 -16 10 -22c15 -11 23 -11 50 -15
l86 -13c105 -16 158 -70 158 -161c0 -119 -97 -187 -250 -187c-160 0 -252 75 -252 184z" />
    <glyph glyph-name="t" unicode="t" horiz-adv-x="418" 
d="M4 391v153h84v117l191 74v-191h114v-153h-114v-186c0 -48 19 -64 59 -64c22 0 40 2 55 5v-146c-38 -7 -76 -10 -115 -10c-84 0 -138 23 -162 64c-23 41 -28 74 -28 126v211h-84z" />
    <glyph glyph-name="u" unicode="u" horiz-adv-x="641" 
d="M408 544h191v-544h-169l-23 99h-11c-33 -73 -90 -109 -171 -109c-123 0 -183 83 -183 218v336h192v-305c0 -63 27 -95 81 -95c57 0 93 45 93 112v288z" />
    <glyph glyph-name="v" unicode="v" horiz-adv-x="573" 
d="M167 0l-177 544h205l43 -191l45 -196h6l45 194l43 193h206l-177 -544h-239z" />
    <glyph glyph-name="w" unicode="w" horiz-adv-x="823" 
d="M598 352l38 192h184l-132 -544h-230l-33 203l-14 97h-6l-14 -96l-33 -204h-225l-130 544h183l33 -190l29 -163h8l53 353h206l50 -356h5z" />
    <glyph glyph-name="x" unicode="x" horiz-adv-x="554" 
d="M188 0h-194l176 270l-174 274h195l89 -157h8l89 157h193l-172 -274l174 -270h-200l-88 146h-8z" />
    <glyph glyph-name="y" unicode="y" horiz-adv-x="555" 
d="M184 45l-199 499h204l48 -177l38 -147h8l37 147l47 177h198l-193 -556c-23 -65 -56 -108 -99 -131s-100 -34 -173 -34c-28 0 -55 2 -81 7v152c18 -3 39 -5 64 -5c56 0 88 16 96 48z" />
    <glyph glyph-name="z" unicode="z" horiz-adv-x="505" 
d="M469 411l-202 -258h207v-153h-440v136l202 255h-205v153h438v-133z" />
    <glyph glyph-name="braceleft" unicode="{" horiz-adv-x="349" 
d="M58 240v79c48 0 73 29 73 76v307c0 57 34 95 95 95h98v-78h-106v-317c0 -69 -27 -108 -80 -118v-3c53 -15 80 -55 80 -120v-329h106v-74h-98c-61 0 -95 35 -95 95v313c0 51 -29 74 -73 74z" />
    <glyph glyph-name="bar" unicode="|" horiz-adv-x="297" 
d="M224 -59h-156v812h156v-812z" />
    <glyph glyph-name="braceright" unicode="}" horiz-adv-x="349" 
d="M290 319v-79c-43 0 -74 -23 -74 -74v-313c0 -59 -32 -95 -93 -95h-98v74h104v329c0 65 27 105 82 120v3c-55 11 -82 50 -82 118v317h-104v78h98c60 0 93 -38 93 -95v-307c0 -45 26 -76 74 -76z" />
    <glyph glyph-name="asciitilde" unicode="~" horiz-adv-x="463" 
d="M104 252h-82c-8 128 48 184 123 184c27 0 57 -11 91 -32c35 -21 62 -31 81 -31c37 0 56 22 56 67h81c4 -63 -7 -110 -32 -141c-25 -30 -56 -45 -93 -45c-79 0 -142 64 -181 64c-32 0 -48 -29 -44 -66z" />
    <glyph glyph-name="uni00A0" unicode="&#xa0;" horiz-adv-x="203" 
 />
    <glyph glyph-name="exclamdown" unicode="&#xa1;" horiz-adv-x="315" 
d="M57 550v179h201v-179h-201zM61 218l48 275h99l47 -275v-218h-194v218z" />
    <glyph glyph-name="cent" unicode="&#xa2;" horiz-adv-x="562" 
d="M272 258c32 0 56 20 60 51h187c-7 -104 -81 -179 -190 -198v-81h-115v82c-121 23 -194 113 -194 252c0 136 73 230 194 253v82h115v-81c112 -19 185 -95 193 -199h-188c-4 32 -28 53 -63 53c-44 0 -66 -36 -66 -108c0 -71 22 -106 67 -106z" />
    <glyph glyph-name="sterling" unicode="&#xa3;" horiz-adv-x="658" 
d="M452 162v77h162v-239h-605v162h65v130h-65v151h65v57c0 73 24 131 71 174s110 64 189 64c71 0 130 -20 176 -59s71 -90 74 -154h-197c-5 29 -24 44 -56 44c-40 0 -60 -23 -60 -69v-57h218v-151h-218v-130h181z" />
    <glyph glyph-name="currency" unicode="&#xa4;" horiz-adv-x="583" 
d="M98 44l-85 88l81 75c-63 84 -63 180 0 265l-82 75l87 89l75 -87c84 45 164 47 241 4l72 83l85 -90l-74 -70c57 -81 61 -176 -2 -273l76 -73l-83 -86l-73 85c-82 -45 -162 -44 -241 4zM213 339c0 -48 35 -85 80 -86c45 0 82 36 82 87c0 52 -37 87 -82 87s-81 -40 -80 -88z
" />
    <glyph glyph-name="yen" unicode="&#xa5;" horiz-adv-x="728" 
d="M492 729h237l-178 -314h54v-152h-140v-39h140v-151h-140v-73h-201v73h-140v151h140v39h-140v152h54l-179 314h239l85 -193l35 -101h9l38 102z" />
    <glyph glyph-name="brokenbar" unicode="&#xa6;" horiz-adv-x="297" 
d="M224 369h-156v384h156v-384zM224 -67h-156v370h156v-370z" />
    <glyph glyph-name="section" unicode="&#xa7;" horiz-adv-x="589" 
d="M32 318c0 76 52 123 127 134v8c-59 20 -88 58 -88 115c0 96 90 164 239 164c66 0 119 -15 160 -44s62 -68 63 -117h-196c-1 15 -11 22 -28 22c-15 0 -23 -6 -23 -17c0 -16 15 -18 36 -25l81 -26c45 -15 65 -23 100 -47c36 -23 53 -59 53 -107c0 -61 -30 -104 -89 -129
v-10c47 -13 79 -65 79 -125c0 -51 -23 -93 -69 -124c-45 -31 -105 -47 -180 -47c-140 0 -231 59 -239 156h205c3 -13 12 -20 27 -20c25 0 38 9 38 27c0 16 -12 22 -40 30l-135 43c-81 25 -121 72 -121 139zM238 364c0 -16 13 -29 38 -38l44 -16c3 -1 16 -6 40 -13
c9 21 10 39 -2 52s-18 14 -42 23l-22 8c-1 1 -8 3 -20 7s-20 7 -23 9c-9 -8 -13 -19 -13 -32z" />
    <glyph glyph-name="dieresis" unicode="&#xa8;" horiz-adv-x="433" 
d="M172 729h-142v163h142v-163zM393 729h-142v163h142v-163z" />
    <glyph glyph-name="copyright" unicode="&#xa9;" horiz-adv-x="958" 
d="M481 -85c-73 0 -142 17 -207 52s-117 85 -158 151s-61 140 -61 222c0 81 20 155 61 220c81 132 217 203 365 203c113 0 212 -40 296 -119s126 -180 126 -302c0 -81 -20 -154 -59 -220c-79 -132 -215 -207 -363 -207zM481 -43c105 0 194 36 267 107c73 72 110 165 110 278
c0 111 -37 202 -110 273s-162 107 -267 107s-195 -36 -269 -107s-111 -163 -111 -275c0 -111 37 -203 111 -275s164 -108 269 -108zM488 103c-70 0 -128 23 -174 69c-45 46 -68 102 -68 168c0 67 23 122 68 167c46 45 104 68 173 68c61 0 114 -18 158 -53
c45 -35 67 -79 67 -132h-116c-5 49 -49 81 -108 81c-79 0 -125 -57 -125 -133c0 -75 44 -131 123 -131c60 0 105 31 110 80h116c-3 -55 -26 -100 -69 -134c-43 -33 -95 -50 -155 -50z" />
    <glyph glyph-name="ordfeminine" unicode="&#xaa;" horiz-adv-x="468" 
d="M423 447c7 0 11 0 12 1v-104c-15 -5 -35 -8 -59 -8c-59 0 -94 29 -98 78h-2c-15 -51 -54 -77 -117 -77c-73 0 -120 47 -120 114c0 75 57 125 149 125h72v11c0 21 -18 34 -43 34c-23 0 -37 -9 -40 -27h-134c4 79 72 135 184 135s171 -59 171 -148v-108c0 -17 8 -26 25 -26
zM260 481v9h-46c-26 0 -39 -9 -39 -27c0 -16 12 -24 36 -24c28 0 49 17 49 42z" />
    <glyph glyph-name="guillemotleft" unicode="&#xab;" horiz-adv-x="579" 
d="M144 54l-119 220l119 218h161l-107 -218l107 -220h-161zM398 54l-118 220l118 218h163l-109 -218l109 -220h-163z" />
    <glyph glyph-name="logicalnot" unicode="&#xac;" horiz-adv-x="557" 
d="M515 139h-144v142h-331v147h475v-289z" />
    <glyph glyph-name="registered" unicode="&#xae;" horiz-adv-x="613" 
d="M306 738c77 0 141 -25 192 -74s77 -113 77 -191s-26 -142 -78 -192c-51 -49 -115 -74 -191 -74s-140 25 -191 74c-51 50 -77 114 -77 192s26 142 77 191s115 74 191 74zM305 249c64 0 118 21 161 62c44 42 66 96 66 163s-22 121 -65 163s-97 63 -161 63
c-63 0 -117 -21 -161 -64c-43 -42 -65 -96 -65 -163c0 -66 22 -120 65 -162c43 -41 97 -62 160 -62zM274 365h-65v232h120c51 0 77 -27 77 -68c0 -27 -11 -46 -33 -59v-1c20 -7 30 -23 30 -47v-27c0 -14 1 -24 4 -30h-66c-3 5 -4 15 -4 29v17c0 19 -10 28 -29 28h-34v-74z
M274 543v-54h35c19 0 28 9 28 27s-10 27 -30 27h-33z" />
    <glyph glyph-name="overscore" unicode="&#xaf;" horiz-adv-x="358" 
d="M373 726h-387v143h387v-143z" />
    <glyph glyph-name="degree" unicode="&#xb0;" horiz-adv-x="432" 
d="M384 568c0 -47 -16 -87 -48 -118s-72 -47 -121 -47s-89 16 -120 47s-47 71 -47 118c0 49 15 88 46 119s72 47 121 47s89 -15 121 -46s48 -71 48 -120zM259 568c4 62 -92 62 -86 0c0 -25 18 -46 42 -46c25 0 44 21 44 46z" />
    <glyph glyph-name="plusminus" unicode="&#xb1;" horiz-adv-x="591" 
d="M551 321h-183v-144h-147v144h-181v143h181v142h147v-142h183v-143zM551 0h-511v143h511v-143z" />
    <glyph glyph-name="uni00B2" unicode="&#xb2;" horiz-adv-x="460" 
d="M214 420l59 3h161v-123h-398v19c0 85 40 155 88 198c71 64 162 113 162 177c0 33 -23 55 -60 55c-40 0 -64 -27 -60 -74h-142c3 121 84 194 207 194c61 0 109 -16 146 -48s56 -75 56 -128c0 -68 -41 -130 -84 -163l-74 -56c-28 -21 -48 -39 -61 -54z" />
    <glyph glyph-name="uni00B3" unicode="&#xb3;" horiz-adv-x="477" 
d="M238 292c-63 0 -114 16 -152 49s-57 76 -56 129h142c-1 -32 27 -57 70 -57s67 25 67 62s-25 56 -74 56h-65v111h51c49 0 74 19 74 56c0 31 -24 51 -60 51c-41 0 -69 -23 -66 -56h-142c-3 53 15 96 54 128s91 48 158 48c120 0 200 -61 200 -153c0 -55 -25 -95 -74 -118v-5
c55 -21 87 -70 87 -133c0 -50 -20 -91 -59 -122s-91 -46 -155 -46z" />
    <glyph glyph-name="acute" unicode="&#xb4;" horiz-adv-x="408" 
d="M377 846l-252 -140l-55 91l231 173z" />
    <glyph glyph-name="paragraph" unicode="&#xb6;" horiz-adv-x="684" 
d="M262 729h376v-114h-63v-619c0 -116 -66 -173 -181 -173h-278v104h132v387c-69 0 -123 19 -163 56c-39 38 -59 86 -59 145c0 135 93 214 236 214zM370 -73h14c45 0 67 20 67 60v628h-81v-688z" />
    <glyph glyph-name="middot" unicode="&#xb7;" horiz-adv-x="361" 
d="M61 283c0 35 12 64 35 88s51 36 84 36s61 -12 84 -37c23 -24 35 -53 35 -87c0 -33 -12 -62 -35 -86c-23 -23 -51 -35 -84 -35s-61 12 -84 35c-23 24 -35 53 -35 86z" />
    <glyph glyph-name="cedilla" unicode="&#xb8;" horiz-adv-x="500" 
d="M311 16l-29 -56c23 1 45 -6 68 -20c23 -15 34 -38 34 -69c0 -112 -146 -142 -237 -94v85c31 -18 59 -25 83 -20c25 5 37 19 37 43c0 17 -9 28 -28 33s-36 2 -52 -8v43l51 84h73v-21z" />
    <glyph glyph-name="uni00B9" unicode="&#xb9;" horiz-adv-x="346" 
d="M147 654h-147v108h25c72 0 125 40 130 100h133v-562h-141v354z" />
    <glyph glyph-name="ordmasculine" unicode="&#xba;" horiz-adv-x="484" 
d="M438 532c0 -57 -18 -104 -54 -140s-83 -54 -142 -54s-106 18 -142 54s-54 83 -54 141s18 105 54 141c36 37 83 55 142 55s106 -18 142 -55s54 -84 54 -142zM185 533c0 -52 24 -86 57 -86c37 0 57 38 57 87c0 52 -22 85 -58 85s-56 -35 -56 -86z" />
    <glyph glyph-name="guillemotright" unicode="&#xbb;" horiz-adv-x="579" 
d="M180 492l118 -218l-118 -220h-162l108 220l-108 218h162zM435 492l118 -218l-118 -220h-163l109 220l-109 218h163z" />
    <glyph glyph-name="onequarter" unicode="&#xbc;" horiz-adv-x="923" 
d="M174 -46l415 814h143l-416 -814h-142zM262 729v-473h-116v296h-125v92h45c57 0 87 30 87 82v3h109zM888 480v-298h45v-101h-45v-81h-114v81h-206v93l149 306h171zM774 346l-78 -164h78v164z" />
    <glyph glyph-name="onehalf" unicode="&#xbd;" horiz-adv-x="971" 
d="M174 -46l415 814h143l-416 -814h-142zM262 729v-473h-116v296h-125v92h45c57 0 87 30 87 82v3h109zM759 97l51 3h124v-100h-320v16c0 195 209 221 209 321c0 32 -20 51 -51 51c-35 0 -54 -26 -51 -66l-116 6c3 95 72 158 175 158c101 0 160 -59 160 -150
c0 -59 -35 -112 -71 -141l-61 -50c-23 -19 -39 -35 -49 -48z" />
    <glyph glyph-name="threequarters" unicode="&#xbe;" horiz-adv-x="978" 
d="M230 -46l415 814h143l-416 -814h-142zM348 389c0 -84 -69 -141 -166 -141c-100 0 -168 60 -167 149h115c1 -27 22 -49 50 -49c65 -4 67 102 -3 96h-45v103h30c37 0 57 20 57 48c0 27 -15 40 -44 40s-49 -20 -48 -49h-116c-1 89 61 149 168 149c97 0 158 -52 158 -128
c0 -47 -21 -81 -63 -100v-5c49 -20 74 -58 74 -113zM944 480v-298h45v-101h-45v-81h-114v81h-206v93l149 306h171zM830 346l-78 -164h78v164z" />
    <glyph glyph-name="questiondown" unicode="&#xbf;" horiz-adv-x="601" 
d="M219 729h180v-171h-180v171zM218 508h181v-198c-7 6 -30 9 -67 9c-73 0 -115 -35 -115 -87c0 -49 34 -79 89 -79c48 0 82 23 89 60h187c-12 -143 -119 -222 -280 -222c-176 0 -276 93 -276 241c0 53 18 100 53 141s82 69 139 82v53z" />
    <glyph glyph-name="Agrave" unicode="&#xc0;" horiz-adv-x="737" 
d="M185 1026l231 -173l-55 -91l-252 140zM741 0h-223l-31 100h-250l-32 -100h-209l247 729h237zM304 312l-18 -58h154l-18 58l-53 202h-7z" />
    <glyph glyph-name="Aacute" unicode="&#xc1;" horiz-adv-x="737" 
d="M537 1021l76 -124l-252 -140l-55 91zM741 0h-223l-31 100h-250l-32 -100h-209l247 729h237zM304 312l-18 -58h154l-18 58l-53 202h-7z" />
    <glyph glyph-name="Acircumflex" unicode="&#xc2;" horiz-adv-x="737" 
d="M476 761l-115 124l-115 -124l-89 88l152 145h104l152 -145zM741 0h-223l-31 100h-250l-32 -100h-209l247 729h237zM304 312l-18 -58h154l-18 58l-53 202h-7z" />
    <glyph glyph-name="Atilde" unicode="&#xc3;" horiz-adv-x="737" 
d="M301 810c-20 0 -42 -13 -65 -39l-74 50c32 85 86 118 138 117c20 -1 42 -7 65 -20c24 -12 44 -18 60 -18c34 0 51 22 58 34l3 6l76 -47c-28 -84 -82 -124 -138 -123c-19 1 -40 7 -64 20s-44 20 -59 20zM741 0h-223l-31 100h-250l-32 -100h-209l247 729h237zM304 312
l-18 -58h154l-18 58l-53 202h-7z" />
    <glyph glyph-name="Adieresis" unicode="&#xc4;" horiz-adv-x="737" 
d="M179 935h142v-163h-142v163zM400 935h142v-163h-142v163zM741 0h-223l-31 100h-250l-32 -100h-209l247 729h237zM304 312l-18 -58h154l-18 58l-53 202h-7z" />
    <glyph glyph-name="Aring" unicode="&#xc5;" horiz-adv-x="737" 
d="M741 0h-223l-31 100h-250l-32 -100h-209l247 729h14c-23 25 -34 55 -34 91c0 79 57 131 138 131s138 -52 138 -131c0 -36 -11 -66 -34 -91h15zM322 820c-6 -55 84 -55 79 0c5 56 -85 57 -79 0zM304 312l-18 -58h154l-18 58l-53 202h-7z" />
    <glyph glyph-name="AE" unicode="&#xc6;" horiz-adv-x="1007" 
d="M965 729v-172h-316v-115h264v-160h-264v-110h316v-172h-519v144h-200l-41 -144h-209l221 729h748zM289 298h157v259h-84z" />
    <glyph glyph-name="Ccedilla" unicode="&#xc7;" horiz-adv-x="756" 
d="M388 166c67 0 120 37 133 93h210c-8 -80 -44 -145 -107 -195c-63 -49 -139 -74 -230 -74h-3l-17 -32c23 1 45 -6 68 -20c23 -15 34 -38 34 -69c0 -112 -146 -142 -237 -94v85c31 -18 59 -25 83 -20c25 5 37 19 37 43c0 17 -9 28 -28 33s-36 2 -52 -8v43l28 47
c-87 17 -156 57 -205 122s-74 145 -74 242c0 113 33 204 100 273s155 103 266 103c93 0 171 -25 232 -74c62 -49 97 -113 105 -193h-210c-17 57 -67 91 -128 91c-97 0 -151 -73 -151 -201c0 -129 54 -195 146 -195z" />
    <glyph glyph-name="Egrave" unicode="&#xc8;" horiz-adv-x="639" 
d="M385 853l-55 -91l-252 140l76 124zM597 0h-534v729h534v-172h-331v-98h278v-161h-278v-126h331v-172z" />
    <glyph glyph-name="Eacute" unicode="&#xc9;" horiz-adv-x="639" 
d="M582 897l-252 -140l-55 91l231 173zM597 0h-534v729h534v-172h-331v-98h278v-161h-278v-126h331v-172z" />
    <glyph glyph-name="Ecircumflex" unicode="&#xca;" horiz-adv-x="639" 
d="M215 761l-89 88l152 145h104l152 -145l-89 -88l-115 124zM597 0h-534v729h534v-172h-331v-98h278v-161h-278v-126h331v-172z" />
    <glyph glyph-name="Edieresis" unicode="&#xcb;" horiz-adv-x="639" 
d="M290 772h-142v163h142v-163zM511 772h-142v163h142v-163zM597 0h-534v729h534v-172h-331v-98h278v-161h-278v-126h331v-172z" />
    <glyph glyph-name="Igrave" unicode="&#xcc;" horiz-adv-x="329" 
d="M220 853l-55 -91l-252 140l76 124zM266 729v-729h-203v729h203z" />
    <glyph glyph-name="Iacute" unicode="&#xcd;" horiz-adv-x="329" 
d="M417 897l-252 -140l-55 91l231 173zM266 729v-729h-203v729h203z" />
    <glyph glyph-name="Icircumflex" unicode="&#xce;" horiz-adv-x="329" 
d="M50 761l-89 88l152 145h104l152 -145l-89 -88l-115 124zM266 729v-729h-203v729h203z" />
    <glyph glyph-name="Idieresis" unicode="&#xcf;" horiz-adv-x="329" 
d="M125 772h-142v163h142v-163zM346 772h-142v163h142v-163zM266 729v-729h-203v729h203z" />
    <glyph glyph-name="Eth" unicode="&#xd0;" horiz-adv-x="755" 
d="M63 729h322c110 0 194 -33 253 -99s89 -155 89 -266s-30 -200 -89 -266c-59 -65 -144 -98 -253 -98h-322v304h-93v130h93v295zM266 172h83c51 0 84 8 116 33c33 27 50 82 50 163c0 73 -14 123 -43 149c-28 27 -69 40 -123 40h-83v-123h79v-130h-79v-132z" />
    <glyph glyph-name="Ntilde" unicode="&#xd1;" horiz-adv-x="793" 
d="M449 770c-19 1 -40 7 -64 20s-44 20 -59 20c-20 0 -42 -13 -65 -39l-74 50c32 85 86 118 138 117c20 -1 42 -7 65 -20c24 -12 44 -18 60 -18c34 0 51 22 58 34l3 6l76 -47c-28 -84 -82 -124 -138 -123zM266 0h-203v729h230l239 -437h8l-11 202v235h201v-729h-230
l-237 431h-8l11 -195v-236z" />
    <glyph glyph-name="Ograve" unicode="&#xd2;" horiz-adv-x="781" 
d="M445 853l-55 -91l-252 140l76 124zM28 365c0 119 32 210 97 275s154 98 265 98c116 0 205 -34 268 -102c63 -67 95 -158 95 -271c0 -120 -33 -213 -98 -278s-154 -97 -265 -97c-115 0 -205 34 -268 101c-63 68 -94 159 -94 274zM242 365c0 -128 57 -199 148 -199
c96 0 150 78 150 199c0 124 -58 197 -150 197c-95 0 -148 -78 -148 -197z" />
    <glyph glyph-name="Oacute" unicode="&#xd3;" horiz-adv-x="781" 
d="M642 897l-252 -140l-55 91l231 173zM28 365c0 119 32 210 97 275s154 98 265 98c116 0 205 -34 268 -102c63 -67 95 -158 95 -271c0 -120 -33 -213 -98 -278s-154 -97 -265 -97c-115 0 -205 34 -268 101c-63 68 -94 159 -94 274zM242 365c0 -128 57 -199 148 -199
c96 0 150 78 150 199c0 124 -58 197 -150 197c-95 0 -148 -78 -148 -197z" />
    <glyph glyph-name="Ocircumflex" unicode="&#xd4;" horiz-adv-x="781" 
d="M275 761l-89 88l152 145h104l152 -145l-89 -88l-115 124zM28 365c0 119 32 210 97 275s154 98 265 98c116 0 205 -34 268 -102c63 -67 95 -158 95 -271c0 -120 -33 -213 -98 -278s-154 -97 -265 -97c-115 0 -205 34 -268 101c-63 68 -94 159 -94 274zM242 365
c0 -128 57 -199 148 -199c96 0 150 78 150 199c0 124 -58 197 -150 197c-95 0 -148 -78 -148 -197z" />
    <glyph glyph-name="Otilde" unicode="&#xd5;" horiz-adv-x="781" 
d="M453 770c-19 1 -40 7 -64 20s-44 20 -59 20c-20 0 -42 -13 -65 -39l-74 50c32 85 86 118 138 117c20 -1 42 -7 65 -20c24 -12 44 -18 60 -18c34 0 51 22 58 34l3 6l76 -47c-28 -84 -82 -124 -138 -123zM28 365c0 119 32 210 97 275s154 98 265 98c116 0 205 -34 268 -102
c63 -67 95 -158 95 -271c0 -120 -33 -213 -98 -278s-154 -97 -265 -97c-115 0 -205 34 -268 101c-63 68 -94 159 -94 274zM242 365c0 -128 57 -199 148 -199c96 0 150 78 150 199c0 124 -58 197 -150 197c-95 0 -148 -78 -148 -197z" />
    <glyph glyph-name="Odieresis" unicode="&#xd6;" horiz-adv-x="781" 
d="M350 772h-142v163h142v-163zM571 772h-142v163h142v-163zM28 365c0 119 32 210 97 275s154 98 265 98c116 0 205 -34 268 -102c63 -67 95 -158 95 -271c0 -120 -33 -213 -98 -278s-154 -97 -265 -97c-115 0 -205 34 -268 101c-63 68 -94 159 -94 274zM242 365
c0 -128 57 -199 148 -199c96 0 150 78 150 199c0 124 -58 197 -150 197c-95 0 -148 -78 -148 -197z" />
    <glyph glyph-name="multiply" unicode="&#xd7;" horiz-adv-x="647" 
d="M144 1l-112 115l178 184l-178 186l112 114l173 -179h13l170 179l113 -114l-177 -186l177 -184l-113 -115l-170 179h-13z" />
    <glyph glyph-name="Oslash" unicode="&#xd8;" horiz-adv-x="794" 
d="M707 679l84 -118l-60 -43c16 -46 24 -97 24 -153c0 -120 -33 -213 -98 -278s-154 -97 -265 -97s-198 32 -262 96l-52 -38l-74 125l50 36c-16 46 -24 98 -24 156c0 119 32 210 97 275s154 98 265 98s199 -32 263 -96zM244 365v-19l246 177c-25 26 -58 39 -98 39
c-95 0 -148 -78 -148 -197zM542 365v17l-247 -178c25 -25 58 -38 97 -38c96 0 150 78 150 199z" />
    <glyph glyph-name="Ugrave" unicode="&#xd9;" horiz-adv-x="769" 
d="M439 853l-55 -91l-252 140l76 124zM57 284v445h202v-433c0 -80 45 -127 126 -127c79 0 125 44 125 127v433h202v-445c0 -92 -30 -164 -90 -216c-59 -52 -139 -78 -239 -78c-219 0 -326 111 -326 294z" />
    <glyph glyph-name="Uacute" unicode="&#xda;" horiz-adv-x="769" 
d="M636 897l-252 -140l-55 91l231 173zM57 284v445h202v-433c0 -80 45 -127 126 -127c79 0 125 44 125 127v433h202v-445c0 -92 -30 -164 -90 -216c-59 -52 -139 -78 -239 -78c-219 0 -326 111 -326 294z" />
    <glyph glyph-name="Ucircumflex" unicode="&#xdb;" horiz-adv-x="769" 
d="M269 761l-89 88l152 145h104l152 -145l-89 -88l-115 124zM57 284v445h202v-433c0 -80 45 -127 126 -127c79 0 125 44 125 127v433h202v-445c0 -92 -30 -164 -90 -216c-59 -52 -139 -78 -239 -78c-219 0 -326 111 -326 294z" />
    <glyph glyph-name="Udieresis" unicode="&#xdc;" horiz-adv-x="769" 
d="M344 772h-142v163h142v-163zM565 772h-142v163h142v-163zM57 284v445h202v-433c0 -80 45 -127 126 -127c79 0 125 44 125 127v433h202v-445c0 -92 -30 -164 -90 -216c-59 -52 -139 -78 -239 -78c-219 0 -326 111 -326 294z" />
    <glyph glyph-name="Yacute" unicode="&#xdd;" horiz-adv-x="742" 
d="M622 897l-252 -140l-55 91l231 173zM269 269l-270 460h239l57 -129l71 -153h8l71 149l60 133h238l-271 -460v-269h-203v269z" />
    <glyph glyph-name="Thorn" unicode="&#xde;" horiz-adv-x="663" 
d="M249 633h122c79 0 144 -24 195 -71s77 -109 77 -184s-26 -137 -79 -186c-52 -49 -115 -74 -190 -74h-125v-118h-203v750h203v-117zM249 289h83c59 0 94 34 94 85c0 24 -10 43 -30 58s-41 23 -64 23h-83v-166z" />
    <glyph glyph-name="germandbls" unicode="&#xdf;" horiz-adv-x="636" 
d="M461 424v-8c92 -15 153 -92 153 -192c0 -148 -108 -224 -284 -224h-37v155h18c69 0 110 40 110 101s-42 92 -110 92h-18v133h8c44 0 74 26 74 65c0 36 -21 59 -57 59c-39 0 -59 -23 -59 -59v-546h-190v389h-65v146h65c4 149 101 224 258 224c148 0 238 -75 238 -184
c0 -73 -41 -128 -104 -151z" />
    <glyph glyph-name="agrave" unicode="&#xe0;" horiz-adv-x="593" 
d="M338 668l-55 -91l-252 140l76 124zM14 149c0 111 87 179 219 179h113v27c0 35 -22 54 -58 54c-37 0 -63 -21 -64 -50h-188c11 123 111 195 259 195c160 0 242 -77 242 -204v-191c0 -20 7 -30 22 -30c7 0 12 1 16 2v-129c-37 -8 -68 -12 -93 -12c-76 0 -118 29 -126 88h-8
c-17 -55 -79 -88 -159 -88c-107 0 -175 62 -175 159zM206 174c0 -29 19 -43 58 -43c53 0 82 29 82 76v13h-78c-41 0 -62 -15 -62 -46z" />
    <glyph glyph-name="aacute" unicode="&#xe1;" horiz-adv-x="593" 
d="M535 712l-252 -140l-55 91l231 173zM14 149c0 111 87 179 219 179h113v27c0 35 -22 54 -58 54c-37 0 -63 -21 -64 -50h-188c11 123 111 195 259 195c160 0 242 -77 242 -204v-191c0 -20 7 -30 22 -30c7 0 12 1 16 2v-129c-37 -8 -68 -12 -93 -12c-76 0 -118 29 -126 88
h-8c-17 -55 -79 -88 -159 -88c-107 0 -175 62 -175 159zM206 174c0 -29 19 -43 58 -43c53 0 82 29 82 76v13h-78c-41 0 -62 -15 -62 -46z" />
    <glyph glyph-name="acircumflex" unicode="&#xe2;" horiz-adv-x="593" 
d="M168 576l-89 88l152 145h104l152 -145l-89 -88l-115 124zM14 149c0 111 87 179 219 179h113v27c0 35 -22 54 -58 54c-37 0 -63 -21 -64 -50h-188c11 123 111 195 259 195c160 0 242 -77 242 -204v-191c0 -20 7 -30 22 -30c7 0 12 1 16 2v-129c-37 -8 -68 -12 -93 -12
c-76 0 -118 29 -126 88h-8c-17 -55 -79 -88 -159 -88c-107 0 -175 62 -175 159zM206 174c0 -29 19 -43 58 -43c53 0 82 29 82 76v13h-78c-41 0 -62 -15 -62 -46z" />
    <glyph glyph-name="atilde" unicode="&#xe3;" horiz-adv-x="593" 
d="M346 585c-19 1 -40 7 -64 20s-44 20 -59 20c-20 0 -42 -13 -65 -39l-74 50c32 85 86 118 138 117c20 -1 42 -7 65 -20c24 -12 44 -18 60 -18c35 1 49 21 58 35l3 5l76 -47c-28 -84 -82 -124 -138 -123zM14 149c0 111 87 179 219 179h113v27c0 35 -22 54 -58 54
c-37 0 -63 -21 -64 -50h-188c11 123 111 195 259 195c160 0 242 -77 242 -204v-191c0 -20 7 -30 22 -30c7 0 12 1 16 2v-129c-37 -8 -68 -12 -93 -12c-76 0 -118 29 -126 88h-8c-17 -55 -79 -88 -159 -88c-107 0 -175 62 -175 159zM206 174c0 -29 19 -43 58 -43
c53 0 82 29 82 76v13h-78c-41 0 -62 -15 -62 -46z" />
    <glyph glyph-name="adieresis" unicode="&#xe4;" horiz-adv-x="593" 
d="M243 587h-142v163h142v-163zM464 587h-142v163h142v-163zM14 149c0 111 87 179 219 179h113v27c0 35 -22 54 -58 54c-37 0 -63 -21 -64 -50h-188c11 123 111 195 259 195c160 0 242 -77 242 -204v-191c0 -20 7 -30 22 -30c7 0 12 1 16 2v-129c-37 -8 -68 -12 -93 -12
c-76 0 -118 29 -126 88h-8c-17 -55 -79 -88 -159 -88c-107 0 -175 62 -175 159zM206 174c0 -29 19 -43 58 -43c53 0 82 29 82 76v13h-78c-41 0 -62 -15 -62 -46z" />
    <glyph glyph-name="aring" unicode="&#xe5;" horiz-adv-x="593" 
d="M559 129c7 0 12 1 16 2v-129c-37 -8 -68 -12 -93 -12c-76 0 -118 29 -126 88h-8c-17 -55 -79 -88 -159 -88c-107 0 -175 62 -175 159c0 111 87 179 219 179h113v27c0 35 -22 54 -58 54c-37 0 -63 -21 -64 -50h-188c8 88 62 151 149 179c-27 25 -40 57 -40 97
c0 79 57 131 138 131s138 -52 138 -131c0 -36 -12 -66 -35 -91c100 -25 151 -95 151 -194v-191c0 -20 7 -30 22 -30zM244 635c-6 -55 84 -55 79 0c5 56 -85 57 -79 0zM346 207v13h-78c-41 0 -62 -15 -62 -46c0 -29 19 -43 58 -43c53 0 82 29 82 76z" />
    <glyph glyph-name="ae" unicode="&#xe6;" horiz-adv-x="888" 
d="M699 186h169c-5 -59 -32 -106 -81 -142c-48 -36 -108 -54 -179 -54c-89 0 -158 25 -205 76c-39 -51 -102 -76 -189 -76c-61 0 -111 16 -149 48s-57 74 -57 125c0 108 75 172 211 172h105v24c0 31 -25 51 -61 51c-32 0 -57 -21 -58 -48h-191c7 117 102 192 258 192
c62 0 116 -17 161 -52c43 35 98 52 166 52c81 0 146 -24 193 -72c47 -47 71 -110 71 -189c0 -26 -2 -48 -5 -66h-345c0 -60 40 -91 96 -91c41 0 81 21 90 50zM600 413c-49 0 -78 -22 -86 -66h163c-4 45 -34 66 -77 66zM327 193v19h-70c-37 0 -56 -14 -56 -42
c0 -21 18 -36 49 -36c47 0 77 26 77 59z" />
    <glyph glyph-name="ccedilla" unicode="&#xe7;" horiz-adv-x="575" 
d="M297 144c43 0 67 21 73 64h188c-3 -65 -28 -117 -75 -157s-108 -60 -181 -61l-16 -30c23 1 45 -6 68 -20c23 -15 34 -38 34 -69c0 -112 -146 -142 -237 -94v85c31 -18 59 -25 83 -20c25 5 37 19 37 43c0 17 -9 28 -28 33s-36 2 -52 -8v43l28 46
c-123 31 -199 134 -199 274c0 85 26 153 77 204s119 77 202 77c73 0 134 -20 182 -59s74 -92 78 -159h-188c-7 43 -31 64 -73 64c-56 0 -84 -43 -84 -128s28 -128 83 -128z" />
    <glyph glyph-name="egrave" unicode="&#xe8;" horiz-adv-x="583" 
d="M342 668l-55 -91l-252 140l76 124zM299 -10c-83 0 -151 26 -202 77s-77 119 -77 204s25 154 76 205c51 52 117 78 200 78c79 0 143 -23 191 -68s72 -105 72 -180c0 -31 -3 -58 -8 -79h-341c-3 -60 30 -95 85 -95c39 0 71 18 80 45h188c-10 -56 -39 -101 -88 -136
c-48 -34 -107 -51 -176 -51zM212 348h156c-1 39 -32 65 -79 65c-45 0 -74 -25 -77 -65z" />
    <glyph glyph-name="eacute" unicode="&#xe9;" horiz-adv-x="583" 
d="M539 712l-252 -140l-55 91l231 173zM299 -10c-83 0 -151 26 -202 77s-77 119 -77 204s25 154 76 205c51 52 117 78 200 78c79 0 143 -23 191 -68s72 -105 72 -180c0 -31 -3 -58 -8 -79h-341c-3 -60 30 -95 85 -95c39 0 71 18 80 45h188c-10 -56 -39 -101 -88 -136
c-48 -34 -107 -51 -176 -51zM212 348h156c-1 39 -32 65 -79 65c-45 0 -74 -25 -77 -65z" />
    <glyph glyph-name="ecircumflex" unicode="&#xea;" horiz-adv-x="583" 
d="M172 576l-89 88l152 145h104l152 -145l-89 -88l-115 124zM299 -10c-83 0 -151 26 -202 77s-77 119 -77 204s25 154 76 205c51 52 117 78 200 78c79 0 143 -23 191 -68s72 -105 72 -180c0 -31 -3 -58 -8 -79h-341c-3 -60 30 -95 85 -95c39 0 71 18 80 45h188
c-10 -56 -39 -101 -88 -136c-48 -34 -107 -51 -176 -51zM212 348h156c-1 39 -32 65 -79 65c-45 0 -74 -25 -77 -65z" />
    <glyph glyph-name="edieresis" unicode="&#xeb;" horiz-adv-x="583" 
d="M247 587h-142v163h142v-163zM468 587h-142v163h142v-163zM299 -10c-83 0 -151 26 -202 77s-77 119 -77 204s25 154 76 205c51 52 117 78 200 78c79 0 143 -23 191 -68s72 -105 72 -180c0 -31 -3 -58 -8 -79h-341c-3 -60 30 -95 85 -95c39 0 71 18 80 45h188
c-10 -56 -39 -101 -88 -136c-48 -34 -107 -51 -176 -51zM212 348h156c-1 39 -32 65 -79 65c-45 0 -74 -25 -77 -65z" />
    <glyph glyph-name="igrave" unicode="&#xec;" horiz-adv-x="285" 
d="M198 668l-55 -91l-252 140l76 124zM238 0h-191v544h191v-544z" />
    <glyph glyph-name="iacute" unicode="&#xed;" horiz-adv-x="285" 
d="M395 712l-252 -140l-55 91l231 173zM238 0h-191v544h191v-544z" />
    <glyph glyph-name="icircumflex" unicode="&#xee;" horiz-adv-x="285" 
d="M28 576l-89 88l152 145h104l152 -145l-89 -88l-115 124zM238 0h-191v544h191v-544z" />
    <glyph glyph-name="idieresis" unicode="&#xef;" horiz-adv-x="285" 
d="M103 587h-142v163h142v-163zM324 587h-142v163h142v-163zM238 0h-191v544h191v-544z" />
    <glyph glyph-name="eth" unicode="&#xf0;" horiz-adv-x="614" 
d="M26 244c0 70 22 126 66 168c44 43 102 64 174 64c24 0 44 -3 60 -8l4 5l-39 33l-39 47l-140 -50v134l66 23l-60 96h227l15 -30l139 52v-134l-68 -23l38 -65c4 -7 12 -20 25 -39s22 -34 27 -43s13 -22 22 -41c10 -19 17 -35 21 -49c9 -28 18 -70 18 -111
c0 -86 -26 -155 -79 -206s-121 -76 -204 -76c-81 0 -146 24 -197 71c-51 48 -76 109 -76 182zM221 247c0 -61 32 -102 83 -102c52 0 83 41 83 104c0 60 -34 103 -83 103c-52 0 -83 -42 -83 -105z" />
    <glyph glyph-name="ntilde" unicode="&#xf1;" horiz-adv-x="651" 
d="M389 585c-19 1 -40 7 -64 20s-44 20 -59 20c-20 0 -42 -13 -65 -39l-74 50c32 85 86 118 138 117c20 -1 42 -7 65 -20c24 -12 44 -18 60 -18c35 1 49 21 58 35l3 5l76 -47c-28 -84 -82 -124 -138 -123zM238 0h-191v544h168l23 -99h10c33 73 91 109 176 109
c127 0 185 -89 185 -233v-321h-191v301c0 66 -28 99 -84 99c-63 0 -96 -44 -96 -112v-288z" />
    <glyph glyph-name="ograve" unicode="&#xf2;" horiz-adv-x="598" 
d="M354 668l-55 -91l-252 140l76 124zM20 273c0 83 26 151 77 203s119 78 202 78c84 0 151 -26 202 -78s77 -120 77 -204c0 -83 -26 -151 -77 -203s-119 -78 -202 -78c-84 0 -152 26 -203 78s-76 120 -76 204zM214 272c0 -80 34 -127 85 -127c55 0 84 51 84 128
c0 79 -33 127 -86 127s-83 -52 -83 -128z" />
    <glyph glyph-name="oacute" unicode="&#xf3;" horiz-adv-x="598" 
d="M551 712l-252 -140l-55 91l231 173zM20 273c0 83 26 151 77 203s119 78 202 78c84 0 151 -26 202 -78s77 -120 77 -204c0 -83 -26 -151 -77 -203s-119 -78 -202 -78c-84 0 -152 26 -203 78s-76 120 -76 204zM214 272c0 -80 34 -127 85 -127c55 0 84 51 84 128
c0 79 -33 127 -86 127s-83 -52 -83 -128z" />
    <glyph glyph-name="ocircumflex" unicode="&#xf4;" horiz-adv-x="598" 
d="M184 576l-89 88l152 145h104l152 -145l-89 -88l-115 124zM20 273c0 83 26 151 77 203s119 78 202 78c84 0 151 -26 202 -78s77 -120 77 -204c0 -83 -26 -151 -77 -203s-119 -78 -202 -78c-84 0 -152 26 -203 78s-76 120 -76 204zM214 272c0 -80 34 -127 85 -127
c55 0 84 51 84 128c0 79 -33 127 -86 127s-83 -52 -83 -128z" />
    <glyph glyph-name="otilde" unicode="&#xf5;" horiz-adv-x="598" 
d="M362 585c-19 1 -40 7 -64 20s-44 20 -59 20c-20 0 -42 -13 -65 -39l-74 50c32 85 86 118 138 117c20 -1 42 -7 65 -20c24 -12 44 -18 60 -18c35 1 49 21 58 35l3 5l76 -47c-28 -84 -82 -124 -138 -123zM20 273c0 83 26 151 77 203s119 78 202 78c84 0 151 -26 202 -78
s77 -120 77 -204c0 -83 -26 -151 -77 -203s-119 -78 -202 -78c-84 0 -152 26 -203 78s-76 120 -76 204zM214 272c0 -80 34 -127 85 -127c55 0 84 51 84 128c0 79 -33 127 -86 127s-83 -52 -83 -128z" />
    <glyph glyph-name="odieresis" unicode="&#xf6;" horiz-adv-x="598" 
d="M259 587h-142v163h142v-163zM480 587h-142v163h142v-163zM20 273c0 83 26 151 77 203s119 78 202 78c84 0 151 -26 202 -78s77 -120 77 -204c0 -83 -26 -151 -77 -203s-119 -78 -202 -78c-84 0 -152 26 -203 78s-76 120 -76 204zM214 272c0 -80 34 -127 85 -127
c55 0 84 51 84 128c0 79 -33 127 -86 127s-83 -52 -83 -128z" />
    <glyph glyph-name="divide" unicode="&#xf7;" horiz-adv-x="624" 
d="M404 407h-183v169h183v-169zM558 213h-492v148h492v-148zM404 -7h-183v168h183v-168z" />
    <glyph glyph-name="oslash" unicode="&#xf8;" horiz-adv-x="631" 
d="M561 525l66 -98l-55 -40c13 -35 20 -73 20 -115c0 -83 -26 -151 -77 -203s-119 -78 -202 -78c-78 0 -142 23 -192 69l-52 -38l-65 97l51 37c-14 35 -21 74 -21 117c0 83 26 151 77 203s119 78 202 78c79 0 143 -23 193 -69zM311 400c-51 0 -80 -47 -83 -118l134 98
c-15 13 -32 20 -51 20zM313 145c52 0 81 46 84 115l-133 -96c13 -13 30 -19 49 -19z" />
    <glyph glyph-name="ugrave" unicode="&#xf9;" horiz-adv-x="641" 
d="M376 668l-55 -91l-252 140l76 124zM408 544h191v-544h-169l-23 99h-11c-33 -73 -90 -109 -171 -109c-123 0 -183 83 -183 218v336h192v-305c0 -63 27 -95 81 -95c57 0 93 45 93 112v288z" />
    <glyph glyph-name="uacute" unicode="&#xfa;" horiz-adv-x="641" 
d="M573 712l-252 -140l-55 91l231 173zM408 544h191v-544h-169l-23 99h-11c-33 -73 -90 -109 -171 -109c-123 0 -183 83 -183 218v336h192v-305c0 -63 27 -95 81 -95c57 0 93 45 93 112v288z" />
    <glyph glyph-name="ucircumflex" unicode="&#xfb;" horiz-adv-x="641" 
d="M206 576l-89 88l152 145h104l152 -145l-89 -88l-115 124zM408 544h191v-544h-169l-23 99h-11c-33 -73 -90 -109 -171 -109c-123 0 -183 83 -183 218v336h192v-305c0 -63 27 -95 81 -95c57 0 93 45 93 112v288z" />
    <glyph glyph-name="udieresis" unicode="&#xfc;" horiz-adv-x="641" 
d="M281 587h-142v163h142v-163zM502 587h-142v163h142v-163zM408 544h191v-544h-169l-23 99h-11c-33 -73 -90 -109 -171 -109c-123 0 -183 83 -183 218v336h192v-305c0 -63 27 -95 81 -95c57 0 93 45 93 112v288z" />
    <glyph glyph-name="yacute" unicode="&#xfd;" horiz-adv-x="555" 
d="M522 714l-252 -140l-55 91l231 173zM184 45l-199 499h204l48 -177l38 -147h8l37 147l47 177h198l-193 -556c-23 -65 -56 -108 -99 -131s-100 -34 -173 -34c-28 0 -55 2 -81 7v152c18 -3 39 -5 64 -5c56 0 88 16 96 48z" />
    <glyph glyph-name="thorn" unicode="&#xfe;" horiz-adv-x="656" 
d="M47 -167v896h191v-285h10c29 69 97 110 173 110c135 0 215 -109 215 -286c0 -175 -83 -278 -214 -278c-87 0 -150 41 -174 106h-10v-263h-191zM238 282v-21c0 -71 38 -118 102 -118c68 0 104 50 104 127c0 87 -39 131 -102 131c-64 0 -104 -47 -104 -119z" />
    <glyph glyph-name="ydieresis" unicode="&#xff;" horiz-adv-x="555" 
d="M230 589h-142v163h142v-163zM451 589h-142v163h142v-163zM184 45l-199 499h204l48 -177l38 -147h8l37 147l47 177h198l-193 -556c-23 -65 -56 -108 -99 -131s-100 -34 -173 -34c-28 0 -55 2 -81 7v152c18 -3 39 -5 64 -5c56 0 88 16 96 48z" />
    <glyph glyph-name="Amacron" unicode="&#x100;" horiz-adv-x="737" 
d="M167 918h387v-143h-387v143zM741 0h-223l-31 100h-250l-32 -100h-209l247 729h237zM304 312l-18 -58h154l-18 58l-53 202h-7z" />
    <glyph glyph-name="amacron" unicode="&#x101;" horiz-adv-x="593" 
d="M476 590h-387v143h387v-143zM14 149c0 111 87 179 219 179h113v27c0 35 -22 54 -58 54c-37 0 -63 -21 -64 -50h-188c11 123 111 195 259 195c160 0 242 -77 242 -204v-191c0 -20 7 -30 22 -30c7 0 12 1 16 2v-129c-37 -8 -68 -12 -93 -12c-76 0 -118 29 -126 88h-8
c-17 -55 -79 -88 -159 -88c-107 0 -175 62 -175 159zM206 174c0 -29 19 -43 58 -43c53 0 82 29 82 76v13h-78c-41 0 -62 -15 -62 -46z" />
    <glyph glyph-name="Abreve" unicode="&#x102;" horiz-adv-x="737" 
d="M360 771c-108 0 -173 73 -173 174h113c0 -47 20 -70 60 -70c37 0 62 23 62 70h113c0 -101 -66 -174 -175 -174zM741 0h-223l-31 100h-250l-32 -100h-209l247 729h237zM304 312l-18 -58h154l-18 58l-53 202h-7z" />
    <glyph glyph-name="abreve" unicode="&#x103;" horiz-adv-x="593" 
d="M344 760h113c0 -101 -66 -174 -175 -174c-108 0 -173 73 -173 174h113c0 -47 20 -70 60 -70c37 0 62 23 62 70zM14 149c0 111 87 179 219 179h113v27c0 35 -22 54 -58 54c-37 0 -63 -21 -64 -50h-188c11 123 111 195 259 195c160 0 242 -77 242 -204v-191
c0 -20 7 -30 22 -30c7 0 12 1 16 2v-129c-37 -8 -68 -12 -93 -12c-76 0 -118 29 -126 88h-8c-17 -55 -79 -88 -159 -88c-107 0 -175 62 -175 159zM206 174c0 -29 19 -43 58 -43c53 0 82 29 82 76v13h-78c-41 0 -62 -15 -62 -46z" />
    <glyph glyph-name="Aogonek" unicode="&#x104;" horiz-adv-x="737" 
d="M709 -114c18 0 37 4 57 11v-95c-24 -12 -54 -18 -90 -18c-84 -1 -141 48 -141 120c0 39 13 71 40 96h-57l-31 100h-250l-32 -100h-209l247 729h237l261 -729c-65 -7 -97 -30 -97 -70c0 -29 22 -44 65 -44zM304 312l-18 -58h154l-18 58l-53 202h-7z" />
    <glyph glyph-name="aogonek" unicode="&#x105;" horiz-adv-x="593" 
d="M548 -114c18 0 37 4 57 11v-95c-24 -12 -54 -18 -90 -18c-84 -1 -141 48 -141 120c0 39 14 72 41 97c-34 15 -54 40 -59 77h-8c-17 -55 -79 -88 -159 -88c-107 0 -175 62 -175 159c0 111 87 179 219 179h113v27c0 35 -22 54 -58 54c-37 0 -63 -21 -64 -50h-188
c11 123 111 195 259 195c160 0 242 -77 242 -204v-191c0 -20 7 -30 22 -30c7 0 12 1 16 2v-125l5 -6c-65 -7 -97 -30 -97 -70c0 -29 22 -44 65 -44zM346 207v13h-78c-41 0 -62 -15 -62 -46c0 -29 19 -43 58 -43c53 0 82 29 82 76z" />
    <glyph glyph-name="Cacute" unicode="&#x106;" horiz-adv-x="756" 
d="M628 897l-252 -140l-55 91l231 173zM521 259h210c-8 -80 -44 -145 -107 -195c-63 -49 -139 -74 -230 -74c-113 0 -202 34 -268 101c-65 68 -98 158 -98 271s33 204 100 273s155 103 266 103c93 0 171 -25 232 -74c62 -49 97 -113 105 -193h-210c-17 57 -67 91 -128 91
c-97 0 -151 -73 -151 -201c0 -129 54 -195 146 -195c67 0 120 37 133 93z" />
    <glyph glyph-name="cacute" unicode="&#x107;" horiz-adv-x="575" 
d="M542 712l-252 -140l-55 91l231 173zM370 208h188c-3 -65 -28 -118 -77 -158c-48 -40 -109 -60 -183 -60c-83 0 -151 26 -202 78s-76 120 -76 205s26 153 77 204s119 77 202 77c73 0 134 -20 182 -59s74 -92 78 -159h-188c-7 43 -31 64 -73 64c-56 0 -84 -43 -84 -128
s28 -128 83 -128c43 0 67 21 73 64z" />
    <glyph glyph-name="Cdotaccent" unicode="&#x10a;" horiz-adv-x="756" 
d="M447 772h-142v163h142v-163zM521 259h210c-8 -80 -44 -145 -107 -195c-63 -49 -139 -74 -230 -74c-113 0 -202 34 -268 101c-65 68 -98 158 -98 271s33 204 100 273s155 103 266 103c93 0 171 -25 232 -74c62 -49 97 -113 105 -193h-210c-17 57 -67 91 -128 91
c-97 0 -151 -73 -151 -201c0 -129 54 -195 146 -195c67 0 120 37 133 93z" />
    <glyph glyph-name="cdotaccent" unicode="&#x10b;" horiz-adv-x="575" 
d="M361 587h-142v163h142v-163zM370 208h188c-3 -65 -28 -118 -77 -158c-48 -40 -109 -60 -183 -60c-83 0 -151 26 -202 78s-76 120 -76 205s26 153 77 204s119 77 202 77c73 0 134 -20 182 -59s74 -92 78 -159h-188c-7 43 -31 64 -73 64c-56 0 -84 -43 -84 -128
s28 -128 83 -128c43 0 67 21 73 64z" />
    <glyph glyph-name="Ccaron" unicode="&#x10c;" horiz-adv-x="756" 
d="M325 780l-153 147l89 87l115 -125l115 125l89 -87l-152 -147h-103zM521 259h210c-8 -80 -44 -145 -107 -195c-63 -49 -139 -74 -230 -74c-113 0 -202 34 -268 101c-65 68 -98 158 -98 271s33 204 100 273s155 103 266 103c93 0 171 -25 232 -74c62 -49 97 -113 105 -193
h-210c-17 57 -67 91 -128 91c-97 0 -151 -73 -151 -201c0 -129 54 -195 146 -195c67 0 120 37 133 93z" />
    <glyph glyph-name="ccaron" unicode="&#x10d;" horiz-adv-x="575" 
d="M239 595l-153 147l89 87l115 -125l115 125l89 -87l-152 -147h-103zM370 208h188c-3 -65 -28 -118 -77 -158c-48 -40 -109 -60 -183 -60c-83 0 -151 26 -202 78s-76 120 -76 205s26 153 77 204s119 77 202 77c73 0 134 -20 182 -59s74 -92 78 -159h-188
c-7 43 -31 64 -73 64c-56 0 -84 -43 -84 -128s28 -128 83 -128c43 0 67 21 73 64z" />
    <glyph glyph-name="Dcaron" unicode="&#x10e;" horiz-adv-x="755" 
d="M289 780l-153 147l89 87l115 -125l115 125l89 -87l-152 -147h-103zM385 0h-322v729h322c110 0 194 -33 253 -99s89 -155 89 -266s-30 -200 -89 -266c-59 -65 -144 -98 -253 -98zM266 557v-385h83c51 0 84 8 116 33c33 27 50 82 50 163c0 73 -14 123 -43 149
c-28 27 -69 40 -123 40h-83z" />
    <glyph glyph-name="dcaron" unicode="&#x10f;" horiz-adv-x="607" 
d="M411 441h10v309h191v-750h-165l-26 98h-10c-31 -69 -99 -108 -175 -108c-133 0 -216 107 -216 280c0 179 84 284 216 284c89 0 148 -44 175 -113zM664 612v138h136v-116c0 -87 -50 -131 -151 -131v48c57 0 77 17 78 61h-63zM421 261v21c0 79 -40 119 -104 119
c-67 0 -102 -49 -102 -129c0 -85 37 -129 100 -129c71 0 106 45 106 118z" />
    <glyph glyph-name="Dcroat" unicode="&#x110;" horiz-adv-x="755" 
d="M63 729h322c110 0 194 -33 253 -99s89 -155 89 -266s-30 -200 -89 -266c-59 -65 -144 -98 -253 -98h-322v304h-93v130h93v295zM266 172h83c51 0 84 8 116 33c33 27 50 82 50 163c0 73 -14 123 -43 149c-28 27 -69 40 -123 40h-83v-123h79v-130h-79v-132z" />
    <glyph glyph-name="dslash" unicode="&#x111;" horiz-adv-x="659" 
d="M612 658h75v-117h-75v-541h-165l-26 98h-10c-31 -69 -99 -108 -175 -108c-133 0 -216 107 -216 280c0 179 84 284 216 284c89 0 148 -44 175 -113h10v100h-93v117h93v92h191v-92zM421 261v21c0 79 -40 119 -104 119c-67 0 -102 -49 -102 -129c0 -85 37 -129 100 -129
c71 0 106 45 106 118z" />
    <glyph glyph-name="Emacron" unicode="&#x112;" horiz-adv-x="639" 
d="M523 775h-387v143h387v-143zM597 0h-534v729h534v-172h-331v-98h278v-161h-278v-126h331v-172z" />
    <glyph glyph-name="emacron" unicode="&#x113;" horiz-adv-x="583" 
d="M480 590h-387v143h387v-143zM299 -10c-83 0 -151 26 -202 77s-77 119 -77 204s25 154 76 205c51 52 117 78 200 78c79 0 143 -23 191 -68s72 -105 72 -180c0 -31 -3 -58 -8 -79h-341c-3 -60 30 -95 85 -95c39 0 71 18 80 45h188c-10 -56 -39 -101 -88 -136
c-48 -34 -107 -51 -176 -51zM212 348h156c-1 39 -32 65 -79 65c-45 0 -74 -25 -77 -65z" />
    <glyph glyph-name="Edotaccent" unicode="&#x116;" horiz-adv-x="639" 
d="M401 772h-142v163h142v-163zM597 0h-534v729h534v-172h-331v-98h278v-161h-278v-126h331v-172z" />
    <glyph glyph-name="edotaccent" unicode="&#x117;" horiz-adv-x="583" 
d="M358 587h-142v163h142v-163zM299 -10c-83 0 -151 26 -202 77s-77 119 -77 204s25 154 76 205c51 52 117 78 200 78c79 0 143 -23 191 -68s72 -105 72 -180c0 -31 -3 -58 -8 -79h-341c-3 -60 30 -95 85 -95c39 0 71 18 80 45h188c-10 -56 -39 -101 -88 -136
c-48 -34 -107 -51 -176 -51zM212 348h156c-1 39 -32 65 -79 65c-45 0 -74 -25 -77 -65z" />
    <glyph glyph-name="Eogonek" unicode="&#x118;" horiz-adv-x="639" 
d="M565 -114c18 0 37 4 57 11v-95c-24 -12 -54 -18 -90 -18c-84 -1 -141 48 -141 120c0 39 13 71 40 96h-368v729h534v-172h-331v-98h278v-161h-278v-126h331v-172c-65 -7 -97 -30 -97 -70c0 -29 22 -44 65 -44z" />
    <glyph glyph-name="eogonek" unicode="&#x119;" horiz-adv-x="583" 
d="M375 177h188c-16 -87 -82 -152 -177 -176l1 -1c-1 0 -7 -1 -8 -1l-26 -5c-42 -11 -63 -32 -63 -64c0 -29 22 -44 65 -44c18 0 37 4 57 11v-95c-24 -12 -54 -18 -90 -18c-84 -1 -141 48 -141 120c0 39 13 71 39 95c-123 31 -200 132 -200 272c0 85 25 154 76 205
c51 52 117 78 200 78c79 0 143 -23 191 -68s72 -105 72 -180c0 -31 -3 -58 -8 -79h-341c-3 -60 30 -95 85 -95c39 0 71 18 80 45zM289 413c-45 0 -74 -25 -77 -65h156c-1 39 -32 65 -79 65z" />
    <glyph glyph-name="Ecaron" unicode="&#x11a;" horiz-adv-x="639" 
d="M279 780l-153 147l89 87l115 -125l115 125l89 -87l-152 -147h-103zM597 0h-534v729h534v-172h-331v-98h278v-161h-278v-126h331v-172z" />
    <glyph glyph-name="ecaron" unicode="&#x11b;" horiz-adv-x="583" 
d="M236 595l-153 147l89 87l115 -125l115 125l89 -87l-152 -147h-103zM299 -10c-83 0 -151 26 -202 77s-77 119 -77 204s25 154 76 205c51 52 117 78 200 78c79 0 143 -23 191 -68s72 -105 72 -180c0 -31 -3 -58 -8 -79h-341c-3 -60 30 -95 85 -95c39 0 71 18 80 45h188
c-10 -56 -39 -101 -88 -136c-48 -34 -107 -51 -176 -51zM212 348h156c-1 39 -32 65 -79 65c-45 0 -74 -25 -77 -65z" />
    <glyph glyph-name="Gbreve" unicode="&#x11e;" horiz-adv-x="802" 
d="M384 771c-108 0 -173 73 -173 174h113c0 -47 20 -70 60 -70c37 0 62 23 62 70h113c0 -101 -66 -174 -175 -174zM348 252v157h402v-409h-165l-8 80h-7c-36 -53 -121 -90 -218 -90c-99 0 -177 34 -236 101c-59 68 -88 156 -88 265c0 115 33 208 99 277
c67 70 156 105 267 105c89 0 164 -22 224 -67c61 -44 95 -102 104 -175h-211c-15 40 -60 66 -117 66c-101 0 -152 -78 -152 -203c0 -132 57 -199 152 -199c69 0 122 36 135 92h-181z" />
    <glyph glyph-name="gbreve" unicode="&#x11f;" horiz-adv-x="574" 
d="M298 772h113c0 -101 -66 -174 -175 -174c-108 0 -173 73 -173 174h113c0 -47 20 -70 60 -70c37 0 62 23 62 70zM3 -69c0 49 33 89 84 100v9c-40 13 -64 47 -64 86c0 50 29 85 86 104v9c-57 30 -85 76 -85 139c0 53 21 96 63 128c43 32 99 48 168 48c30 0 55 -3 76 -8
c11 37 35 67 71 90c37 23 79 35 128 35v-142c-45 0 -76 -9 -92 -27c43 -32 65 -75 65 -130c0 -53 -21 -95 -62 -127c-41 -31 -97 -47 -166 -47c-23 0 -43 2 -62 5c-11 -6 -17 -15 -17 -27c0 -20 20 -30 61 -30h109c125 0 193 -63 193 -164c0 -119 -102 -179 -307 -179
c-164 0 -249 48 -249 128zM210 377c0 -31 22 -51 54 -51c33 0 55 20 55 51s-22 50 -55 50c-32 0 -54 -21 -54 -50zM181 -30c0 -23 27 -35 82 -35c72 0 106 11 106 40c0 17 -12 25 -36 25h-107c-30 0 -45 -10 -45 -30z" />
    <glyph glyph-name="Gdotaccent" unicode="&#x120;" horiz-adv-x="802" 
d="M314 935h142v-163h-142v163zM348 252v157h402v-409h-165l-8 80h-7c-36 -53 -121 -90 -218 -90c-99 0 -177 34 -236 101c-59 68 -88 156 -88 265c0 115 33 208 99 277c67 70 156 105 267 105c89 0 164 -22 224 -67c61 -44 95 -102 104 -175h-211c-15 40 -60 66 -117 66
c-101 0 -152 -78 -152 -203c0 -132 57 -199 152 -199c69 0 122 36 135 92h-181z" />
    <glyph glyph-name="gdotaccent" unicode="&#x121;" horiz-adv-x="574" 
d="M308 599h-142v163h142v-163zM3 -69c0 49 33 89 84 100v9c-40 13 -64 47 -64 86c0 50 29 85 86 104v9c-57 30 -85 76 -85 139c0 53 21 96 63 128c43 32 99 48 168 48c30 0 55 -3 76 -8c11 37 35 67 71 90c37 23 79 35 128 35v-142c-45 0 -76 -9 -92 -27
c43 -32 65 -75 65 -130c0 -53 -21 -95 -62 -127c-41 -31 -97 -47 -166 -47c-23 0 -43 2 -62 5c-11 -6 -17 -15 -17 -27c0 -20 20 -30 61 -30h109c125 0 193 -63 193 -164c0 -119 -102 -179 -307 -179c-164 0 -249 48 -249 128zM210 377c0 -31 22 -51 54 -51
c33 0 55 20 55 51s-22 50 -55 50c-32 0 -54 -21 -54 -50zM181 -30c0 -23 27 -35 82 -35c72 0 106 11 106 40c0 17 -12 25 -36 25h-107c-30 0 -45 -10 -45 -30z" />
    <glyph glyph-name="uni0122" unicode="&#x122;" horiz-adv-x="802" 
d="M348 252v157h402v-409h-165l-8 80h-7c-36 -53 -121 -90 -218 -90c-99 0 -177 34 -236 101c-59 68 -88 156 -88 265c0 115 33 208 99 277c67 70 156 105 267 105c89 0 164 -22 224 -67c61 -44 95 -102 104 -175h-211c-15 40 -60 66 -117 66c-101 0 -152 -78 -152 -203
c0 -132 57 -199 152 -199c69 0 122 36 135 92h-181zM379 -196h-67v147h146v-158c0 -77 -45 -116 -136 -116v52c38 0 57 17 57 50v25z" />
    <glyph glyph-name="uni0123" unicode="&#x123;" horiz-adv-x="574" 
d="M300 892v-52c-38 0 -57 -17 -57 -50v-35h67v-147h-146v168c0 77 45 116 136 116zM3 -69c0 49 33 89 84 100v9c-40 13 -64 47 -64 86c0 50 29 85 86 104v9c-57 30 -85 76 -85 139c0 53 21 96 63 128c43 32 99 48 168 48c30 0 55 -3 76 -8c11 37 35 67 71 90
c37 23 79 35 128 35v-142c-45 0 -76 -9 -92 -27c43 -32 65 -75 65 -130c0 -53 -21 -95 -62 -127c-41 -31 -97 -47 -166 -47c-23 0 -43 2 -62 5c-11 -6 -17 -15 -17 -27c0 -20 20 -30 61 -30h109c125 0 193 -63 193 -164c0 -119 -102 -179 -307 -179c-164 0 -249 48 -249 128
zM210 377c0 -31 22 -51 54 -51c33 0 55 20 55 51s-22 50 -55 50c-32 0 -54 -21 -54 -50zM181 -30c0 -23 27 -35 82 -35c72 0 106 11 106 40c0 17 -12 25 -36 25h-107c-30 0 -45 -10 -45 -30z" />
    <glyph glyph-name="Hbar" unicode="&#x126;" horiz-adv-x="810" 
d="M747 646h47v-110h-47v-536h-203v291h-278v-291h-203v536h-46v110h46v83h203v-83h278v83h203v-83zM266 448h278v88h-278v-88z" />
    <glyph glyph-name="hbar" unicode="&#x127;" horiz-adv-x="652" 
d="M424 554c128 0 186 -88 186 -232v-322h-192v302c0 65 -28 98 -84 98c-63 0 -96 -42 -96 -109v-291h-191v542h-80v116h80v92h191v-92h88v-116h-88v-95h10c33 71 91 107 176 107z" />
    <glyph glyph-name="Imacron" unicode="&#x12a;" horiz-adv-x="329" 
d="M358 775h-387v143h387v-143zM266 729v-729h-203v729h203z" />
    <glyph glyph-name="imacron" unicode="&#x12b;" horiz-adv-x="285" 
d="M336 590h-387v143h387v-143zM238 0h-191v544h191v-544z" />
    <glyph glyph-name="Iogonek" unicode="&#x12e;" horiz-adv-x="329" 
d="M213 -114c18 0 37 4 57 11v-95c-24 -12 -54 -18 -90 -18c-84 -1 -141 48 -141 120c0 39 13 71 40 96h-16v729h203v-729h-21c-65 -7 -97 -30 -97 -70c0 -29 22 -44 65 -44z" />
    <glyph glyph-name="iogonek" unicode="&#x12f;" horiz-adv-x="285" 
d="M72 750h142v-163h-142v163zM205 -114c18 0 37 4 57 11v-95c-24 -12 -54 -18 -90 -18c-84 -1 -141 48 -141 120c0 39 13 71 40 96h-24v544h191v-544h-1c-65 -7 -97 -30 -97 -70c0 -29 22 -44 65 -44z" />
    <glyph glyph-name="Idot" unicode="&#x130;" horiz-adv-x="329" 
d="M265 772h-201v163h201v-163zM266 729v-729h-203v729h203z" />
    <glyph glyph-name="dotlessi" unicode="&#x131;" horiz-adv-x="285" 
d="M238 0h-191v544h191v-544z" />
    <glyph glyph-name="Jcircumflex" unicode="&#x134;" horiz-adv-x="433" 
d="M159 761l-89 88l152 145h104l152 -145l-89 -88l-115 124zM375 729v-492c0 -164 -85 -246 -255 -246c-42 0 -77 3 -105 9v161c15 -3 34 -5 57 -5c76 0 101 37 101 108v465h202z" />
    <glyph glyph-name="jcircumflex" unicode="&#x135;" horiz-adv-x="283" 
d="M27 576l-89 88l152 145h104l152 -145l-89 -88l-115 124zM34 -186c-38 0 -67 2 -87 6v136c12 -1 20 -2 25 -2c35 0 58 4 64 18c5 8 8 6 9 21c1 7 1 11 1 12v34v505h190v-519c0 -61 -9 -104 -36 -145c-27 -43 -83 -66 -166 -66z" />
    <glyph glyph-name="uni0136" unicode="&#x136;" horiz-adv-x="755" 
d="M742 729l-263 -315l273 -414h-246l-165 249l-75 -90v-159h-203v729h203v-284l226 284h250zM396 -196h-67v147h146v-158c0 -77 -45 -116 -136 -116v52c38 0 57 17 57 50v25z" />
    <glyph glyph-name="uni0137" unicode="&#x137;" horiz-adv-x="629" 
d="M422 0l-125 196l-56 -59v-137h-194v750h194v-374l153 168h234l-201 -211l212 -333h-217zM406 -196h-67v147h146v-158c0 -77 -45 -116 -136 -116v52c38 0 57 17 57 50v25z" />
    <glyph glyph-name="Lacute" unicode="&#x139;" horiz-adv-x="573" 
d="M447 897l-252 -140l-55 91l231 173zM536 0h-473v729h203v-550h270v-179z" />
    <glyph glyph-name="lacute" unicode="&#x13a;" horiz-adv-x="285" 
d="M396 921l-252 -140l-55 91l231 173zM238 0h-191v750h191v-750z" />
    <glyph glyph-name="uni013B" unicode="&#x13b;" horiz-adv-x="573" 
d="M536 0h-473v729h203v-550h270v-179zM237 -323v52c38 0 57 17 57 50v25h-67v147h146v-158c0 -77 -45 -116 -136 -116z" />
    <glyph glyph-name="uni013C" unicode="&#x13c;" horiz-adv-x="285" 
d="M238 0h-191v750h191v-750zM81 -323v52c38 0 57 17 57 50v25h-67v147h146v-158c0 -77 -45 -116 -136 -116z" />
    <glyph glyph-name="Lcaron" unicode="&#x13d;" horiz-adv-x="567" 
d="M536 0h-473v729h203v-550h270v-179zM343 470v49c52 0 78 21 78 64v2h-63v135h132v-130c0 -76 -58 -120 -147 -120z" />
    <glyph glyph-name="lcaron" unicode="&#x13e;" horiz-adv-x="285" 
d="M93 804l-153 147l89 87l115 -125l115 125l89 -87l-152 -147h-103zM238 0h-191v750h191v-750z" />
    <glyph glyph-name="Ldot" unicode="&#x13f;" horiz-adv-x="600" 
d="M536 0h-473v729h203v-550h270v-179zM330 451c0 51 41 92 89 92c49 0 89 -41 89 -92c0 -49 -40 -90 -89 -90c-48 0 -89 41 -89 90z" />
    <glyph glyph-name="ldot" unicode="&#x140;" horiz-adv-x="529" 
d="M238 0h-191v750h191v-750zM345 316c-35 36 -35 94 0 130c35 37 91 37 126 0c36 -36 36 -94 0 -130c-35 -35 -91 -35 -126 0z" />
    <glyph glyph-name="Lslash" unicode="&#x141;" horiz-adv-x="573" 
d="M266 325v-146h270v-179h-473v253l-64 -23v170l64 23v306h203v-234l139 49v-170z" />
    <glyph glyph-name="lslash" unicode="&#x142;" horiz-adv-x="338" 
d="M265 526l49 18v-170l-49 -18v-356h-191v284l-50 -19v170l50 19v296h191v-224z" />
    <glyph glyph-name="Nacute" unicode="&#x143;" horiz-adv-x="793" 
d="M638 897l-252 -140l-55 91l231 173zM266 0h-203v729h230l239 -437h8l-11 202v235h201v-729h-230l-237 431h-8l11 -195v-236z" />
    <glyph glyph-name="nacute" unicode="&#x144;" horiz-adv-x="651" 
d="M578 712l-252 -140l-55 91l231 173zM238 0h-191v544h168l23 -99h10c33 73 91 109 176 109c127 0 185 -89 185 -233v-321h-191v301c0 66 -28 99 -84 99c-63 0 -96 -44 -96 -112v-288z" />
    <glyph glyph-name="uni0145" unicode="&#x145;" horiz-adv-x="793" 
d="M266 0h-203v729h230l239 -437h8l-11 202v235h201v-729h-230l-237 431h-8l11 -195v-236zM323 -323v52c38 0 57 17 57 50v25h-67v147h146v-158c0 -77 -45 -116 -136 -116z" />
    <glyph glyph-name="uni0146" unicode="&#x146;" horiz-adv-x="651" 
d="M238 0h-191v544h168l23 -99h10c33 73 91 109 176 109c127 0 185 -89 185 -233v-321h-191v301c0 66 -28 99 -84 99c-63 0 -96 -44 -96 -112v-288zM263 -323v52c38 0 57 17 57 50v25h-67v147h146v-158c0 -77 -45 -116 -136 -116z" />
    <glyph glyph-name="Ncaron" unicode="&#x147;" horiz-adv-x="793" 
d="M335 780l-153 147l89 87l115 -125l115 125l89 -87l-152 -147h-103zM266 0h-203v729h230l239 -437h8l-11 202v235h201v-729h-230l-237 431h-8l11 -195v-236z" />
    <glyph glyph-name="ncaron" unicode="&#x148;" horiz-adv-x="651" 
d="M275 595l-153 147l89 87l115 -125l115 125l89 -87l-152 -147h-103zM238 0h-191v544h168l23 -99h10c33 73 91 109 176 109c127 0 185 -89 185 -233v-321h-191v301c0 66 -28 99 -84 99c-63 0 -96 -44 -96 -112v-288z" />
    <glyph glyph-name="Eng" unicode="&#x14a;" horiz-adv-x="793" 
d="M529 494v235h201v-730c0 -116 -77 -176 -202 -176c-25 0 -54 3 -87 10v112c9 -1 17 -2 23 -2c43 0 64 19 64 57h-28l-237 431h-8l11 -195v-236h-203v729h230l239 -437h8z" />
    <glyph glyph-name="eng" unicode="&#x14b;" horiz-adv-x="651" 
d="M424 554c127 0 185 -89 185 -233v-323c0 -117 -76 -176 -201 -176c-40 0 -69 2 -88 6v138c12 -1 21 -2 26 -2c64 0 72 16 72 72v265c0 66 -28 99 -84 99c-63 0 -96 -44 -96 -112v-288h-191v544h168l23 -99h10c33 73 91 109 176 109z" />
    <glyph glyph-name="Omacron" unicode="&#x14c;" horiz-adv-x="781" 
d="M583 775h-387v143h387v-143zM28 365c0 119 32 210 97 275s154 98 265 98c116 0 205 -34 268 -102c63 -67 95 -158 95 -271c0 -120 -33 -213 -98 -278s-154 -97 -265 -97c-115 0 -205 34 -268 101c-63 68 -94 159 -94 274zM242 365c0 -128 57 -199 148 -199
c96 0 150 78 150 199c0 124 -58 197 -150 197c-95 0 -148 -78 -148 -197z" />
    <glyph glyph-name="omacron" unicode="&#x14d;" horiz-adv-x="598" 
d="M492 590h-387v143h387v-143zM20 273c0 83 26 151 77 203s119 78 202 78c84 0 151 -26 202 -78s77 -120 77 -204c0 -83 -26 -151 -77 -203s-119 -78 -202 -78c-84 0 -152 26 -203 78s-76 120 -76 204zM214 272c0 -80 34 -127 85 -127c55 0 84 51 84 128
c0 79 -33 127 -86 127s-83 -52 -83 -128z" />
    <glyph glyph-name="Ohungarumlaut" unicode="&#x150;" horiz-adv-x="781" 
d="M501 903l-242 -141l-56 86l222 176zM768 903l-243 -141l-55 86l220 176zM28 365c0 119 32 210 97 275s154 98 265 98c116 0 205 -34 268 -102c63 -67 95 -158 95 -271c0 -120 -33 -213 -98 -278s-154 -97 -265 -97c-115 0 -205 34 -268 101c-63 68 -94 159 -94 274z
M242 365c0 -128 57 -199 148 -199c96 0 150 78 150 199c0 124 -58 197 -150 197c-95 0 -148 -78 -148 -197z" />
    <glyph glyph-name="ohungarumlaut" unicode="&#x151;" horiz-adv-x="598" 
d="M410 718l-242 -141l-56 86l222 176zM677 718l-243 -141l-55 86l220 176zM20 273c0 83 26 151 77 203s119 78 202 78c84 0 151 -26 202 -78s77 -120 77 -204c0 -83 -26 -151 -77 -203s-119 -78 -202 -78c-84 0 -152 26 -203 78s-76 120 -76 204zM214 272
c0 -80 34 -127 85 -127c55 0 84 51 84 128c0 79 -33 127 -86 127s-83 -52 -83 -128z" />
    <glyph glyph-name="OE" unicode="&#x152;" horiz-adv-x="937" 
d="M382 728h513v-171h-286v-115h195v-160h-195v-110h286v-171h-512c-106 0 -192 34 -257 101s-98 155 -98 263s32 195 97 262s151 101 257 101zM242 365c0 -57 13 -103 39 -139s60 -54 102 -54h24v383h-24c-84 0 -141 -78 -141 -190z" />
    <glyph glyph-name="oe" unicode="&#x153;" horiz-adv-x="970" 
d="M762 177h188c-10 -56 -39 -101 -88 -136c-48 -34 -107 -51 -176 -51c-79 0 -144 23 -194 70c-51 -46 -116 -69 -193 -69c-84 0 -152 26 -203 78s-76 120 -76 204c0 83 26 151 77 203s119 78 202 78c77 0 142 -23 193 -69c49 46 113 69 191 69c79 0 143 -23 191 -68
s72 -105 72 -180c0 -31 -3 -58 -8 -79h-341c-3 -60 30 -95 85 -95c37 0 69 18 80 45zM676 413c-45 0 -74 -25 -77 -65h156c-1 39 -32 65 -79 65zM299 145c55 0 84 51 84 128c0 79 -33 127 -86 127s-83 -52 -83 -128c0 -80 34 -127 85 -127z" />
    <glyph glyph-name="Racute" unicode="&#x154;" horiz-adv-x="741" 
d="M636 897l-252 -140l-55 91l231 173zM266 0h-203v729h385c148 0 233 -84 233 -224c0 -77 -41 -145 -105 -178v-8c64 -20 96 -69 96 -147v-80c0 -41 4 -72 13 -92h-209c-8 17 -12 47 -12 90v55c0 57 -23 86 -91 86h-107v-231zM266 557v-155h114c56 0 85 30 85 78
c0 51 -28 77 -85 77h-114z" />
    <glyph glyph-name="racute" unicode="&#x155;" horiz-adv-x="412" 
d="M478 712l-252 -140l-55 91l231 173zM238 0h-191v544h166l24 -99h7c25 73 80 110 164 110v-165c-113 4 -170 -52 -170 -169v-221z" />
    <glyph glyph-name="uni0156" unicode="&#x156;" horiz-adv-x="741" 
d="M266 0h-203v729h385c148 0 233 -84 233 -224c0 -77 -41 -145 -105 -178v-8c64 -20 96 -69 96 -147v-80c0 -41 4 -72 13 -92h-209c-8 17 -12 47 -12 90v55c0 57 -23 86 -91 86h-107v-231zM266 557v-155h114c56 0 85 30 85 78c0 51 -28 77 -85 77h-114zM315 -323v52
c38 0 57 17 57 50v25h-67v147h146v-158c0 -77 -45 -116 -136 -116z" />
    <glyph glyph-name="uni0157" unicode="&#x157;" horiz-adv-x="412" 
d="M238 0h-191v544h166l24 -99h7c25 73 80 110 164 110v-165c-113 4 -170 -52 -170 -169v-221zM79 -323v52c38 0 57 17 57 50v25h-67v147h146v-158c0 -77 -45 -116 -136 -116z" />
    <glyph glyph-name="Rcaron" unicode="&#x158;" horiz-adv-x="741" 
d="M333 780l-153 147l89 87l115 -125l115 125l89 -87l-152 -147h-103zM266 0h-203v729h385c148 0 233 -84 233 -224c0 -77 -41 -145 -105 -178v-8c64 -20 96 -69 96 -147v-80c0 -41 4 -72 13 -92h-209c-8 17 -12 47 -12 90v55c0 57 -23 86 -91 86h-107v-231zM266 557v-155
h114c56 0 85 30 85 78c0 51 -28 77 -85 77h-114z" />
    <glyph glyph-name="rcaron" unicode="&#x159;" horiz-adv-x="412" 
d="M175 595l-153 147l89 87l115 -125l115 125l89 -87l-152 -147h-103zM238 0h-191v544h166l24 -99h7c25 73 80 110 164 110v-165c-113 4 -170 -52 -170 -169v-221z" />
    <glyph glyph-name="Sacute" unicode="&#x15a;" horiz-adv-x="675" 
d="M581 897l-252 -140l-55 91l231 173zM19 231h210c3 -49 46 -81 114 -81c57 0 90 23 90 60c0 22 -12 36 -28 43c-14 9 -35 12 -49 14l-103 21c-15 3 -26 6 -34 7l-39 11c-18 6 -33 12 -44 18c-21 12 -57 37 -74 62c-16 27 -31 68 -31 113c0 73 27 131 81 174
c55 43 127 65 216 65c87 0 158 -20 213 -61c55 -40 83 -93 84 -159h-211c-3 40 -41 63 -92 63s-76 -17 -76 -51c0 -19 12 -30 23 -39c8 -4 24 -8 31 -11l31 -5l110 -21c139 -27 208 -99 208 -218c0 -77 -28 -138 -85 -181s-133 -65 -228 -65s-172 22 -230 66
s-87 102 -87 175z" />
    <glyph glyph-name="sacute" unicode="&#x15b;" horiz-adv-x="546" 
d="M531 712l-252 -140l-55 91l231 173zM22 174h188c1 -35 23 -52 66 -52c36 0 54 12 54 35c0 13 -4 23 -16 27c-12 5 -14 6 -31 9l-86 14c-112 19 -168 73 -168 164c0 116 93 183 238 183c147 0 236 -69 240 -174h-188c0 28 -18 42 -55 42c-29 0 -44 -11 -44 -34
c0 -9 3 -16 10 -22c15 -11 23 -11 50 -15l86 -13c105 -16 158 -70 158 -161c0 -119 -97 -187 -250 -187c-160 0 -252 75 -252 184z" />
    <glyph glyph-name="Scedilla" unicode="&#x15e;" horiz-adv-x="675" 
d="M649 236c0 -75 -26 -134 -79 -177c-52 -43 -123 -66 -212 -69l-16 -30c23 1 45 -6 68 -20c23 -15 34 -38 34 -69c0 -112 -146 -142 -237 -94v85c31 -18 59 -25 83 -20c25 5 37 19 37 43c0 17 -9 28 -28 33s-36 2 -52 -8v43l25 41c-77 9 -139 35 -185 77
c-45 43 -68 96 -68 160h210c3 -49 46 -81 114 -81c57 0 90 23 90 60c0 22 -12 36 -28 43c-14 9 -35 12 -49 14l-103 21c-15 3 -26 6 -34 7l-39 11c-18 6 -33 12 -44 18c-21 12 -57 37 -74 62c-16 27 -31 68 -31 113c0 73 27 131 81 174c55 43 127 65 216 65
c87 0 158 -20 213 -61c55 -40 83 -93 84 -159h-211c-3 40 -41 63 -92 63s-76 -17 -76 -51c0 -19 12 -30 23 -39c8 -4 24 -8 31 -11l31 -5l110 -21c139 -27 208 -99 208 -218z" />
    <glyph glyph-name="scedilla" unicode="&#x15f;" horiz-adv-x="546" 
d="M524 177c0 -113 -87 -179 -228 -186l-17 -34c23 1 45 -6 68 -20c23 -15 34 -38 34 -69c0 -112 -146 -142 -237 -94v85c31 -18 59 -25 83 -20c25 5 37 19 37 43c0 17 -9 28 -28 33s-36 2 -52 -8v43l27 44c-120 17 -189 87 -189 180h188c1 -35 23 -52 66 -52
c36 0 54 12 54 35c0 13 -4 23 -16 27c-12 5 -14 6 -31 9l-86 14c-112 19 -168 73 -168 164c0 116 93 183 238 183c147 0 236 -69 240 -174h-188c0 28 -18 42 -55 42c-29 0 -44 -11 -44 -34c0 -9 3 -16 10 -22c15 -11 23 -11 50 -15l86 -13c105 -16 158 -70 158 -161z" />
    <glyph glyph-name="Scaron" unicode="&#x160;" horiz-adv-x="675" 
d="M278 780l-153 147l89 87l115 -125l115 125l89 -87l-152 -147h-103zM19 231h210c3 -49 46 -81 114 -81c57 0 90 23 90 60c0 22 -12 36 -28 43c-14 9 -35 12 -49 14l-103 21c-15 3 -26 6 -34 7l-39 11c-18 6 -33 12 -44 18c-21 12 -57 37 -74 62c-16 27 -31 68 -31 113
c0 73 27 131 81 174c55 43 127 65 216 65c87 0 158 -20 213 -61c55 -40 83 -93 84 -159h-211c-3 40 -41 63 -92 63s-76 -17 -76 -51c0 -19 12 -30 23 -39c8 -4 24 -8 31 -11l31 -5l110 -21c139 -27 208 -99 208 -218c0 -77 -28 -138 -85 -181s-133 -65 -228 -65
s-172 22 -230 66s-87 102 -87 175z" />
    <glyph glyph-name="scaron" unicode="&#x161;" horiz-adv-x="546" 
d="M228 595l-153 147l89 87l115 -125l115 125l89 -87l-152 -147h-103zM22 174h188c1 -35 23 -52 66 -52c36 0 54 12 54 35c0 13 -4 23 -16 27c-12 5 -14 6 -31 9l-86 14c-112 19 -168 73 -168 164c0 116 93 183 238 183c147 0 236 -69 240 -174h-188c0 28 -18 42 -55 42
c-29 0 -44 -11 -44 -34c0 -9 3 -16 10 -22c15 -11 23 -11 50 -15l86 -13c105 -16 158 -70 158 -161c0 -119 -97 -187 -250 -187c-160 0 -252 75 -252 184z" />
    <glyph glyph-name="uni0162" unicode="&#x162;" horiz-adv-x="585" 
d="M7 729h571v-174h-187v-555h-81l-21 -40c23 1 45 -6 68 -20c23 -15 34 -38 34 -69c0 -112 -146 -142 -237 -94v85c31 -18 59 -25 83 -20c25 5 37 19 37 43c0 17 -9 28 -28 33s-36 2 -52 -8v43l29 47h-35v555h-181v174z" />
    <glyph glyph-name="uni0163" unicode="&#x163;" horiz-adv-x="418" 
d="M393 544v-153h-114v-186c0 -48 19 -64 59 -64c22 0 40 2 55 5v-146c-38 -7 -76 -10 -115 -10h-4l-11 -22c23 1 45 -6 68 -20c23 -15 34 -38 34 -69c0 -112 -146 -142 -237 -94v85c31 -18 59 -25 83 -20c25 5 37 19 37 43c0 17 -9 28 -28 33s-36 2 -52 -8v43l24 40
c-45 13 -75 40 -88 75c-13 36 -16 63 -16 104v211h-84v153h84v117l191 74v-191h114z" />
    <glyph glyph-name="Tcaron" unicode="&#x164;" horiz-adv-x="585" 
d="M497 927l-152 -147h-103l-153 147l89 87l115 -125l115 125zM7 729h571v-174h-187v-555h-203v555h-181v174z" />
    <glyph glyph-name="tcaron" unicode="&#x165;" horiz-adv-x="418" 
d="M139 746l-153 147l89 87l115 -125l115 125l89 -87l-152 -147h-103zM4 391v153h84v117l191 74v-191h114v-153h-114v-186c0 -48 19 -64 59 -64c22 0 40 2 55 5v-146c-38 -7 -76 -10 -115 -10c-84 0 -138 23 -162 64c-23 41 -28 74 -28 126v211h-84z" />
    <glyph glyph-name="Tbar" unicode="&#x166;" horiz-adv-x="585" 
d="M578 729v-174h-187v-122h114v-156h-114v-277h-203v277h-108v156h108v122h-181v174h571z" />
    <glyph glyph-name="tbar" unicode="&#x167;" horiz-adv-x="418" 
d="M393 544v-153h-114v-34h113v-160h-113c1 -41 20 -56 59 -56c22 0 40 2 55 5v-146c-38 -7 -76 -10 -115 -10c-84 0 -138 23 -162 64c-23 41 -28 74 -28 126v17h-84v160h84v34h-84v153h84v117l191 74v-191h114z" />
    <glyph glyph-name="Umacron" unicode="&#x16a;" horiz-adv-x="769" 
d="M577 775h-387v143h387v-143zM57 284v445h202v-433c0 -80 45 -127 126 -127c79 0 125 44 125 127v433h202v-445c0 -92 -30 -164 -90 -216c-59 -52 -139 -78 -239 -78c-219 0 -326 111 -326 294z" />
    <glyph glyph-name="umacron" unicode="&#x16b;" horiz-adv-x="641" 
d="M514 590h-387v143h387v-143zM408 544h191v-544h-169l-23 99h-11c-33 -73 -90 -109 -171 -109c-123 0 -183 83 -183 218v336h192v-305c0 -63 27 -95 81 -95c57 0 93 45 93 112v288z" />
    <glyph glyph-name="Uring" unicode="&#x16e;" horiz-adv-x="769" 
d="M483 915c26 -24 39 -56 39 -95s-13 -71 -39 -96c-26 -24 -59 -36 -99 -36s-73 12 -99 36c-26 25 -39 57 -39 96s13 71 38 95c26 24 59 36 100 36s74 -12 99 -36zM345 820c-6 -55 84 -55 79 0c5 56 -85 57 -79 0zM57 284v445h202v-433c0 -80 45 -127 126 -127
c79 0 125 44 125 127v433h202v-445c0 -92 -30 -164 -90 -216c-59 -52 -139 -78 -239 -78c-219 0 -326 111 -326 294z" />
    <glyph glyph-name="uring" unicode="&#x16f;" horiz-adv-x="641" 
d="M425 544h174v-544h-169l-23 99h-11c-33 -73 -90 -109 -171 -109c-123 0 -183 83 -183 218v336h175c-23 25 -34 55 -34 91c0 79 57 131 138 131s138 -52 138 -131c0 -36 -11 -66 -34 -91zM282 635c-6 -55 84 -55 79 0c5 56 -85 57 -79 0zM315 144c57 0 93 45 93 112v273
c-23 -17 -52 -26 -87 -26s-64 9 -87 26v-290c0 -63 27 -95 81 -95z" />
    <glyph glyph-name="Uhungarumlaut" unicode="&#x170;" horiz-adv-x="769" 
d="M495 903l-242 -141l-56 86l222 176zM762 903l-243 -141l-55 86l220 176zM57 284v445h202v-433c0 -80 45 -127 126 -127c79 0 125 44 125 127v433h202v-445c0 -92 -30 -164 -90 -216c-59 -52 -139 -78 -239 -78c-219 0 -326 111 -326 294z" />
    <glyph glyph-name="uhungarumlaut" unicode="&#x171;" horiz-adv-x="641" 
d="M432 718l-242 -141l-56 86l222 176zM699 718l-243 -141l-55 86l220 176zM408 544h191v-544h-169l-23 99h-11c-33 -73 -90 -109 -171 -109c-123 0 -183 83 -183 218v336h192v-305c0 -63 27 -95 81 -95c57 0 93 45 93 112v288z" />
    <glyph glyph-name="Uogonek" unicode="&#x172;" horiz-adv-x="769" 
d="M510 296v433h202v-445c0 -151 -85 -251 -228 -283l1 -1c-1 0 -7 -1 -8 -1c-4 -1 -16 -4 -21 -4c-45 -10 -68 -32 -68 -65c0 -29 22 -44 65 -44c18 0 37 4 57 11v-95c-24 -12 -54 -18 -90 -18c-84 -1 -141 48 -141 120c0 35 11 65 34 90c-172 23 -256 129 -256 290v445
h202v-433c0 -80 45 -127 126 -127c79 0 125 44 125 127z" />
    <glyph glyph-name="uogonek" unicode="&#x173;" horiz-adv-x="641" 
d="M567 -114c18 0 37 4 57 11v-95c-24 -12 -54 -18 -90 -18c-84 -1 -141 48 -141 120c0 39 13 71 40 96h-3l-23 99h-11c-33 -73 -90 -109 -171 -109c-123 0 -183 83 -183 218v336h192v-305c0 -63 27 -95 81 -95c57 0 93 45 93 112v288h191v-544c-65 -7 -97 -30 -97 -70
c0 -29 22 -44 65 -44z" />
    <glyph glyph-name="Wcircumflex" unicode="&#x174;" horiz-adv-x="1023" 
d="M417 761l-89 88l152 145h104l152 -145l-89 -88l-115 124zM153 0l-148 729h224l51 -329l24 -179h9l77 508h246l81 -510h8l21 178l48 332h224l-148 -729h-276l-77 450h-8l-80 -450h-276z" />
    <glyph glyph-name="wcircumflex" unicode="&#x175;" horiz-adv-x="823" 
d="M527 576l-115 124l-115 -124l-89 88l152 145h104l152 -145zM598 352l38 192h184l-132 -544h-230l-33 203l-14 97h-6l-14 -96l-33 -204h-225l-130 544h183l33 -190l29 -163h8l53 353h206l50 -356h5z" />
    <glyph glyph-name="Ycircumflex" unicode="&#x176;" horiz-adv-x="742" 
d="M255 761l-89 88l152 145h104l152 -145l-89 -88l-115 124zM269 269l-270 460h239l57 -129l71 -153h8l71 149l60 133h238l-271 -460v-269h-203v269z" />
    <glyph glyph-name="ycircumflex" unicode="&#x177;" horiz-adv-x="555" 
d="M155 578l-89 88l152 145h104l152 -145l-89 -88l-115 124zM184 45l-199 499h204l48 -177l38 -147h8l37 147l47 177h198l-193 -556c-23 -65 -56 -108 -99 -131s-100 -34 -173 -34c-28 0 -55 2 -81 7v152c18 -3 39 -5 64 -5c56 0 88 16 96 48z" />
    <glyph glyph-name="Ydieresis" unicode="&#x178;" horiz-adv-x="742" 
d="M330 772h-142v163h142v-163zM551 772h-142v163h142v-163zM269 269l-270 460h239l57 -129l71 -153h8l71 149l60 133h238l-271 -460v-269h-203v269z" />
    <glyph glyph-name="Zacute" unicode="&#x179;" horiz-adv-x="592" 
d="M446 1021l76 -124l-252 -140l-55 91zM20 729h549v-165l-299 -392h293v-172h-543v167l296 389h-296v173z" />
    <glyph glyph-name="zacute" unicode="&#x17a;" horiz-adv-x="505" 
d="M426 836l76 -124l-252 -140l-55 91zM469 544v-133l-202 -258h207v-153h-440v136l202 255h-205v153h438z" />
    <glyph glyph-name="Zdotaccent" unicode="&#x17b;" horiz-adv-x="592" 
d="M199 935h142v-163h-142v163zM20 729h549v-165l-299 -392h293v-172h-543v167l296 389h-296v173z" />
    <glyph glyph-name="zdotaccent" unicode="&#x17c;" horiz-adv-x="505" 
d="M179 750h142v-163h-142v163zM469 411l-202 -258h207v-153h-440v136l202 255h-205v153h438v-133z" />
    <glyph glyph-name="Zcaron" unicode="&#x17d;" horiz-adv-x="592" 
d="M474 927l-152 -147h-103l-153 147l89 87l115 -125l115 125zM20 729h549v-165l-299 -392h293v-172h-543v167l296 389h-296v173z" />
    <glyph glyph-name="zcaron" unicode="&#x17e;" horiz-adv-x="505" 
d="M454 742l-152 -147h-103l-153 147l89 87l115 -125l115 125zM469 411l-202 -258h207v-153h-440v136l202 255h-205v153h438v-133z" />
    <glyph glyph-name="uni018F" unicode="&#x18f;" horiz-adv-x="724" 
d="M362 739c209 0 334 -134 334 -367c0 -117 -30 -210 -90 -279c-59 -69 -142 -103 -248 -103c-103 0 -183 32 -242 96c-59 65 -88 153 -88 265c0 33 2 55 6 68h445c0 95 -45 143 -124 143c-61 0 -100 -27 -116 -81h-205c33 165 155 258 328 258zM358 161
c65 0 107 39 118 106h-229c7 -71 44 -106 111 -106z" />
    <glyph glyph-name="florin" unicode="&#x192;" horiz-adv-x="644" 
d="M620 729v-152h-156l-14 -106h101v-151h-123l-24 -177l-16 -126c-5 -44 -14 -74 -39 -107c-24 -33 -73 -52 -142 -52h-166v152h154l19 133l24 177h-99v151h120l14 99c7 48 18 79 43 110c27 32 73 49 138 49h166z" />
    <glyph glyph-name="AEacute" unicode="&#x1fc;" horiz-adv-x="1007" 
d="M742 1021l76 -124l-252 -140l-55 91zM965 729v-172h-316v-115h264v-160h-264v-110h316v-172h-519v144h-200l-41 -144h-209l221 729h748zM289 298h157v259h-84z" />
    <glyph glyph-name="Oslashacute" unicode="&#x1fe;" horiz-adv-x="794" 
d="M605 1021l76 -124l-252 -140l-55 91zM707 679l84 -118l-60 -43c16 -46 24 -97 24 -153c0 -120 -33 -213 -98 -278s-154 -97 -265 -97s-198 32 -262 96l-52 -38l-74 125l50 36c-16 46 -24 98 -24 156c0 119 32 210 97 275s154 98 265 98s199 -32 263 -96zM244 365v-19
l246 177c-25 26 -58 39 -98 39c-95 0 -148 -78 -148 -197zM542 365v17l-247 -178c25 -25 58 -38 97 -38c96 0 150 78 150 199z" />
    <glyph glyph-name="oslashacute" unicode="&#x1ff;" horiz-adv-x="631" 
d="M489 836l76 -124l-252 -140l-55 91zM561 525l66 -98l-55 -40c13 -35 20 -73 20 -115c0 -83 -26 -151 -77 -203s-119 -78 -202 -78c-78 0 -142 23 -192 69l-52 -38l-65 97l51 37c-14 35 -21 74 -21 117c0 83 26 151 77 203s119 78 202 78c79 0 143 -23 193 -69zM311 400
c-51 0 -80 -47 -83 -118l134 98c-15 13 -32 20 -51 20zM313 145c52 0 81 46 84 115l-133 -96c13 -13 30 -19 49 -19z" />
    <glyph glyph-name="uni0218" unicode="&#x218;" horiz-adv-x="675" 
d="M19 231h210c3 -49 46 -81 114 -81c57 0 90 23 90 60c0 22 -12 36 -28 43c-14 9 -35 12 -49 14l-103 21c-15 3 -26 6 -34 7l-39 11c-18 6 -33 12 -44 18c-21 12 -57 37 -74 62c-16 27 -31 68 -31 113c0 73 27 131 81 174c55 43 127 65 216 65c87 0 158 -20 213 -61
c55 -40 83 -93 84 -159h-211c-3 40 -41 63 -92 63s-76 -17 -76 -51c0 -19 12 -30 23 -39c8 -4 24 -8 31 -11l31 -5l110 -21c139 -27 208 -99 208 -218c0 -77 -28 -138 -85 -181s-133 -65 -228 -65s-172 22 -230 66s-87 102 -87 175zM279 -323v52c38 0 57 17 57 50v25h-67
v147h146v-158c0 -77 -45 -116 -136 -116z" />
    <glyph glyph-name="uni0219" unicode="&#x219;" horiz-adv-x="546" 
d="M22 174h188c1 -35 23 -52 66 -52c36 0 54 12 54 35c0 13 -4 23 -16 27c-12 5 -14 6 -31 9l-86 14c-112 19 -168 73 -168 164c0 116 93 183 238 183c147 0 236 -69 240 -174h-188c0 28 -18 42 -55 42c-29 0 -44 -11 -44 -34c0 -9 3 -16 10 -22c15 -11 23 -11 50 -15
l86 -13c105 -16 158 -70 158 -161c0 -119 -97 -187 -250 -187c-160 0 -252 75 -252 184zM216 -326v52c38 0 57 17 57 50v25h-67v147h146v-158c0 -77 -45 -116 -136 -116z" />
    <glyph glyph-name="uni021A" unicode="&#x21a;" horiz-adv-x="585" 
d="M7 729h571v-174h-187v-555h-203v555h-181v174zM283 -196h-67v147h146v-158c0 -77 -45 -116 -136 -116v52c38 0 57 17 57 50v25z" />
    <glyph glyph-name="uni021B" unicode="&#x21b;" horiz-adv-x="418" 
d="M4 391v153h84v117l191 74v-191h114v-153h-114v-186c0 -48 19 -64 59 -64c22 0 40 2 55 5v-146c-38 -7 -76 -10 -115 -10c-84 0 -138 23 -162 64c-23 41 -28 74 -28 126v211h-84zM200 -315v52c38 0 57 17 57 50v25h-67v147h146v-158c0 -77 -45 -116 -136 -116z" />
    <glyph glyph-name="uni0237" unicode="&#x237;" horiz-adv-x="283" 
d="M34 -186c-38 0 -67 2 -87 6v136c12 -1 20 -2 25 -2c35 0 58 4 64 18c5 8 8 6 9 21c1 7 1 11 1 12v34v505h190v-519c0 -61 -9 -104 -36 -145c-27 -43 -83 -66 -166 -66z" />
    <glyph glyph-name="circumflex" unicode="&#x2c6;" horiz-adv-x="389" 
d="M80 711l-89 88l152 145h104l152 -145l-89 -88l-115 124z" />
    <glyph glyph-name="caron" unicode="&#x2c7;" horiz-adv-x="389" 
d="M144 729l-153 147l89 87l115 -125l115 125l89 -87l-152 -147h-103z" />
    <glyph glyph-name="breve" unicode="&#x2d8;" horiz-adv-x="346" 
d="M234 895h113c0 -101 -66 -174 -175 -174c-108 0 -173 73 -173 174h113c0 -47 20 -70 60 -70c37 0 62 23 62 70z" />
    <glyph glyph-name="dotaccent" unicode="&#x2d9;" horiz-adv-x="242" 
d="M192 729h-142v163h142v-163z" />
    <glyph glyph-name="ring" unicode="&#x2da;" horiz-adv-x="332" 
d="M269 899c26 -24 39 -56 39 -95s-13 -71 -39 -96c-26 -24 -59 -36 -99 -36s-73 12 -99 36c-26 25 -39 57 -39 96s13 71 38 95c26 24 59 36 100 36s74 -12 99 -36zM131 804c-6 -55 84 -55 79 0c5 56 -85 57 -79 0z" />
    <glyph glyph-name="ogonek" unicode="&#x2db;" horiz-adv-x="400" 
d="M59 -96c0 85 68 137 168 145l38 -49c-65 -7 -97 -30 -97 -70c0 -29 22 -44 65 -44c18 0 37 4 57 11v-95c-24 -12 -54 -18 -90 -18c-84 -1 -141 48 -141 120z" />
    <glyph glyph-name="tilde" unicode="&#x2dc;" horiz-adv-x="360" 
d="M242 720c-19 1 -40 7 -64 20s-44 20 -59 20c-20 0 -42 -13 -65 -39l-74 50c32 85 86 118 138 117c20 -1 42 -7 65 -20c24 -12 44 -18 60 -18c34 0 51 22 58 34l3 6l76 -47c-28 -84 -82 -124 -138 -123z" />
    <glyph glyph-name="hungarumlaut" unicode="&#x2dd;" horiz-adv-x="619" 
d="M339 852l-242 -141l-56 86l222 176zM606 852l-243 -141l-55 86l220 176z" />
    <glyph glyph-name="gravecomb" unicode="&#x300;" 
d="M-66 802l-55 -91l-252 140l76 124z" />
    <glyph glyph-name="acutecomb" unicode="&#x301;" 
d="M-31 846l-252 -140l-55 91l231 173z" />
    <glyph glyph-name="uni0302" unicode="&#x302;" 
d="M-309 711l-89 88l152 145h104l152 -145l-89 -88l-115 124z" />
    <glyph glyph-name="tildecomb" unicode="&#x303;" 
d="M-118 720c-19 1 -40 7 -64 20s-44 20 -59 20c-20 0 -42 -13 -65 -39l-74 50c32 85 86 118 138 117c20 -1 42 -7 66 -20c23 -12 43 -18 59 -18c34 0 51 22 58 34l3 6l76 -47c-28 -84 -82 -124 -138 -123z" />
    <glyph glyph-name="uni0304" unicode="&#x304;" 
d="M15 726h-387v143h387v-143z" />
    <glyph glyph-name="uni0306" unicode="&#x306;" 
d="M-112 895h113c0 -101 -66 -174 -175 -174c-108 0 -173 73 -173 174h113c0 -47 20 -70 60 -70c37 0 62 23 62 70z" />
    <glyph glyph-name="uni0307" unicode="&#x307;" 
d="M-50 729h-142v163h142v-163z" />
    <glyph glyph-name="uni0308" unicode="&#x308;" 
d="M-261 729h-142v163h142v-163zM-40 729h-142v163h142v-163z" />
    <glyph glyph-name="uni030A" unicode="&#x30a;" 
d="M-62 899c25 -24 38 -56 38 -95s-13 -71 -39 -96c-26 -24 -59 -36 -99 -36s-73 12 -99 36c-26 25 -39 57 -39 96s13 71 39 95c25 24 58 36 99 36s74 -12 100 -36zM-201 804c-6 -55 84 -55 79 0c5 56 -85 57 -79 0z" />
    <glyph glyph-name="uni030B" unicode="&#x30b;" 
d="M-280 852l-242 -141l-56 86l222 176zM-13 852l-243 -141l-55 86l220 176z" />
    <glyph glyph-name="uni030C" unicode="&#x30c;" 
d="M-245 729l-153 147l89 87l115 -125l115 125l89 -87l-152 -147h-103z" />
    <glyph glyph-name="uni0312" unicode="&#x312;" 
d="M-60 1015v-52c-38 0 -57 -17 -57 -50v-35h67v-147h-146v168c0 77 45 116 136 116z" />
    <glyph glyph-name="uni0326" unicode="&#x326;" 
d="M-171 -300v52c38 0 57 17 57 50v25h-67v147h146v-158c0 -77 -45 -116 -136 -116z" />
    <glyph glyph-name="uni0327" unicode="&#x327;" 
d="M-189 16l-29 -56c23 1 45 -6 68 -20c23 -15 34 -38 34 -69c0 -112 -146 -142 -237 -94v85c31 -18 59 -25 84 -20c24 5 36 19 36 43c0 17 -9 28 -28 33s-36 2 -52 -8v43l51 84h73v-21z" />
    <glyph glyph-name="uni0328" unicode="&#x328;" 
d="M-341 -96c0 85 68 137 168 145l38 -49c-65 -7 -97 -30 -97 -70c0 -29 22 -44 65 -44c18 0 37 4 57 11v-95c-24 -12 -54 -18 -90 -18c-84 -1 -141 48 -141 120z" />
    <glyph glyph-name="uni0335" unicode="&#x335;" 
d="M-83 293h-452v144h452v-144z" />
    <glyph glyph-name="uni0336" unicode="&#x336;" 
 />
    <glyph glyph-name="uni0337" unicode="&#x337;" 
d="M-256 0h-94l264 729h95z" />
    <glyph glyph-name="uni0338" unicode="&#x338;" 
d="M-256 0h-94l264 729h95z" />
    <glyph glyph-name="uni03BC" unicode="&#x3bc;" horiz-adv-x="625" 
d="M219 -173h-172l2 717h190v-339c0 -44 28 -72 71 -72c48 0 77 31 77 76v335h191v-544h-182l3 52h-11c-7 -41 -38 -62 -94 -62c-31 0 -53 8 -65 23h-10v-186z" />
    <glyph glyph-name="pi" unicode="&#x3c0;" horiz-adv-x="640" 
d="M628 132v-124c-36 -9 -66 -14 -91 -14c-65 0 -110 15 -134 45c-24 31 -36 72 -36 124v256h-92v-419h-186v419h-77v125h617v-125h-76v-244c0 -31 16 -46 47 -46c13 0 22 1 28 3z" />
    <glyph glyph-name="omega" unicode="&#x3c9;" horiz-adv-x="765" 
d="M696 0h-284v278c72 15 120 76 120 155c0 87 -59 145 -150 145c-89 0 -150 -59 -150 -147c0 -77 48 -138 121 -153v-278h-286v151h135v22c-50 21 -90 55 -121 102c-30 48 -45 101 -45 158c0 93 30 168 91 223s146 83 255 83c106 0 190 -27 253 -81c63 -53 94 -128 94 -225
c0 -57 -15 -109 -46 -157c-31 -47 -71 -82 -121 -103v-22h134v-151z" />
    <glyph glyph-name="Wgrave" unicode="&#x1e80;" horiz-adv-x="1023" 
d="M587 853l-55 -91l-252 140l76 124zM153 0l-148 729h224l51 -329l24 -179h9l77 508h246l81 -510h8l21 178l48 332h224l-148 -729h-276l-77 450h-8l-80 -450h-276z" />
    <glyph glyph-name="wgrave" unicode="&#x1e81;" horiz-adv-x="823" 
d="M236 841l231 -173l-55 -91l-252 140zM598 352l38 192h184l-132 -544h-230l-33 203l-14 97h-6l-14 -96l-33 -204h-225l-130 544h183l33 -190l29 -163h8l53 353h206l50 -356h5z" />
    <glyph glyph-name="Wacute" unicode="&#x1e82;" horiz-adv-x="1023" 
d="M784 897l-252 -140l-55 91l231 173zM153 0l-148 729h224l51 -329l24 -179h9l77 508h246l81 -510h8l21 178l48 332h224l-148 -729h-276l-77 450h-8l-80 -450h-276z" />
    <glyph glyph-name="wacute" unicode="&#x1e83;" horiz-adv-x="823" 
d="M588 836l76 -124l-252 -140l-55 91zM598 352l38 192h184l-132 -544h-230l-33 203l-14 97h-6l-14 -96l-33 -204h-225l-130 544h183l33 -190l29 -163h8l53 353h206l50 -356h5z" />
    <glyph glyph-name="Wdieresis" unicode="&#x1e84;" horiz-adv-x="1023" 
d="M492 772h-142v163h142v-163zM713 772h-142v163h142v-163zM153 0l-148 729h224l51 -329l24 -179h9l77 508h246l81 -510h8l21 178l48 332h224l-148 -729h-276l-77 450h-8l-80 -450h-276z" />
    <glyph glyph-name="wdieresis" unicode="&#x1e85;" horiz-adv-x="823" 
d="M230 750h142v-163h-142v163zM451 750h142v-163h-142v163zM598 352l38 192h184l-132 -544h-230l-33 203l-14 97h-6l-14 -96l-33 -204h-225l-130 544h183l33 -190l29 -163h8l53 353h206l50 -356h5z" />
    <glyph glyph-name="Ygrave" unicode="&#x1ef2;" horiz-adv-x="742" 
d="M425 853l-55 -91l-252 140l76 124zM269 269l-270 460h239l57 -129l71 -153h8l71 149l60 133h238l-271 -460v-269h-203v269z" />
    <glyph glyph-name="ygrave" unicode="&#x1ef3;" horiz-adv-x="555" 
d="M325 670l-55 -91l-252 140l76 124zM184 45l-199 499h204l48 -177l38 -147h8l37 147l47 177h198l-193 -556c-23 -65 -56 -108 -99 -131s-100 -34 -173 -34c-28 0 -55 2 -81 7v152c18 -3 39 -5 64 -5c56 0 88 16 96 48z" />
    <glyph glyph-name="endash" unicode="&#x2013;" horiz-adv-x="657" 
d="M603 250h-550v100h550v-100z" />
    <glyph glyph-name="emdash" unicode="&#x2014;" horiz-adv-x="853" 
d="M799 250h-746v100h746v-100z" />
    <glyph glyph-name="quoteleft" unicode="&#x2018;" horiz-adv-x="248" 
d="M214 730v-63c-67 0 -100 -27 -100 -81v-3h81v-173h-169v166c0 97 73 154 188 154z" />
    <glyph glyph-name="quoteright" unicode="&#x2019;" horiz-adv-x="248" 
d="M32 419v63c67 0 100 27 100 81v3h-81v173h169v-166c0 -97 -73 -154 -188 -154z" />
    <glyph glyph-name="quotesinglbase" unicode="&#x201a;" horiz-adv-x="247" 
d="M33 -147v63c67 0 100 27 100 81v3h-81v173h169v-166c0 -97 -73 -154 -188 -154z" />
    <glyph glyph-name="quotedblleft" unicode="&#x201c;" horiz-adv-x="511" 
d="M217 730v-63c-67 0 -100 -27 -100 -81v-3h81v-173h-169v166c0 97 73 154 188 154zM476 730v-63c-67 0 -100 -27 -100 -81v-3h81v-173h-169v166c0 97 73 154 188 154z" />
    <glyph glyph-name="quotedblright" unicode="&#x201d;" horiz-adv-x="504" 
d="M38 419v63c67 0 100 27 100 81v3h-81v173h169v-166c0 -97 -73 -154 -188 -154zM291 419v63c67 0 100 27 100 81v3h-81v173h169v-166c0 -97 -73 -154 -188 -154z" />
    <glyph glyph-name="quotedblbase" unicode="&#x201e;" horiz-adv-x="476" 
d="M30 -147v63c67 0 100 27 100 81v3h-81v173h169v-166c0 -97 -73 -154 -188 -154zM258 -147v63c67 0 100 27 100 81v3h-81v173h169v-166c0 -97 -73 -154 -188 -154z" />
    <glyph glyph-name="dagger" unicode="&#x2020;" horiz-adv-x="436" 
d="M279 726v-331h142v-110h-142v-131h-123v131h-141v110h141v331h123z" />
    <glyph glyph-name="daggerdbl" unicode="&#x2021;" horiz-adv-x="435" 
d="M279 490v-95h142v-110h-142v-131h-123v131h-141v110h141v95h-141v108h141v128h123v-128h140v-108h-140z" />
    <glyph glyph-name="bullet" unicode="&#x2022;" horiz-adv-x="393" 
d="M38 277c0 48 15 88 44 119c30 31 69 47 116 47c46 0 84 -16 113 -47c30 -31 45 -71 45 -119c0 -96 -66 -162 -158 -162c-95 0 -160 65 -160 162z" />
    <glyph glyph-name="ellipsis" unicode="&#x2026;" horiz-adv-x="840" 
d="M230 0h-169v187h169v-187zM504 0h-168v187h168v-187zM779 0h-169v187h169v-187z" />
    <glyph glyph-name="perthousand" unicode="&#x2030;" horiz-adv-x="1314" 
d="M47 556c0 53 17 96 51 130c34 35 78 52 132 52c55 0 100 -17 134 -52c34 -34 51 -78 51 -132c0 -53 -17 -96 -52 -131s-79 -52 -133 -52c-53 0 -96 17 -131 52s-52 79 -52 133zM258 0h-80l464 729h81zM163 557c0 -47 27 -80 67 -80c41 0 69 33 69 80c0 44 -28 75 -69 75
c-39 0 -67 -31 -67 -75zM482 175c0 53 17 96 51 131s78 52 133 52s99 -18 132 -53c34 -35 51 -79 51 -132s-17 -96 -52 -131c-34 -35 -78 -52 -131 -52s-97 17 -132 52s-52 79 -52 133zM898 175c0 53 17 96 51 131s78 52 133 52c54 0 98 -18 132 -53s51 -79 51 -132
s-17 -96 -52 -131c-34 -35 -78 -52 -131 -52s-97 17 -132 52s-52 79 -52 133zM597 176c0 -47 28 -80 69 -80s69 33 69 80c0 45 -29 76 -69 76s-69 -31 -69 -76zM1082 96c40 0 68 33 68 80c0 45 -28 76 -68 76c-41 0 -69 -31 -69 -76s28 -80 69 -80z" />
    <glyph glyph-name="guilsinglleft" unicode="&#x2039;" horiz-adv-x="315" 
d="M134 54l-119 220l119 218h160l-109 -218l109 -220h-160z" />
    <glyph glyph-name="guilsinglright" unicode="&#x203a;" horiz-adv-x="314" 
d="M182 492l117 -218l-117 -220h-161l108 220l-108 218h161z" />
    <glyph glyph-name="fraction" unicode="&#x2044;" horiz-adv-x="272" 
d="M-1 -46h-142l415 814h143z" />
    <glyph glyph-name="uni2070" unicode="&#x2070;" horiz-adv-x="496" 
d="M246 295c-73 0 -128 26 -165 79c-36 53 -54 123 -54 210c0 187 83 285 222 285c148 0 219 -112 219 -287c0 -188 -83 -287 -222 -287zM246 418c59 0 74 53 74 160c0 131 -26 170 -71 170c-59 0 -75 -56 -75 -159c0 -131 27 -171 72 -171z" />
    <glyph glyph-name="uni2074" unicode="&#x2074;" horiz-adv-x="499" 
d="M415 862v-342h66v-115h-66v-105h-141v105h-251v105l185 352h207zM274 725l-108 -205h108v205z" />
    <glyph glyph-name="uni2075" unicode="&#x2075;" horiz-adv-x="480" 
d="M267 681c57 0 103 -18 136 -53c34 -35 51 -81 51 -137c0 -120 -83 -199 -216 -199c-65 0 -117 17 -156 51c-39 35 -58 80 -58 135h143c0 -37 27 -63 71 -63s73 31 73 72c0 44 -30 77 -75 77c-35 0 -60 -19 -67 -44h-135l16 342h361v-122h-236l-4 -79l6 -2
c21 15 51 22 90 22z" />
    <glyph glyph-name="uni2076" unicode="&#x2076;" horiz-adv-x="485" 
d="M251 293c-144 0 -223 105 -223 290c0 184 77 286 224 286c112 0 187 -59 198 -150h-143c-7 22 -27 33 -59 33c-57 0 -83 -39 -78 -116h6c21 31 56 47 107 47c53 0 96 -17 129 -52c33 -34 49 -79 49 -136c0 -61 -19 -110 -58 -147c-38 -37 -89 -55 -152 -55zM253 415
c40 0 68 30 68 77c0 45 -28 77 -68 77c-41 0 -69 -31 -69 -78s28 -76 69 -76z" />
    <glyph glyph-name="uni2077" unicode="&#x2077;" horiz-adv-x="441" 
d="M120 652h-112v210h420v-102c-51 -67 -95 -142 -134 -224c-38 -82 -63 -161 -74 -236h-152c9 72 31 147 66 224c35 78 77 150 126 216h-140v-88z" />
    <glyph glyph-name="uni2078" unicode="&#x2078;" horiz-adv-x="480" 
d="M25 453c0 60 26 102 79 125v7c-53 23 -79 65 -79 125c0 101 84 159 216 159c136 0 214 -62 214 -159c0 -59 -26 -101 -79 -125v-7c53 -24 79 -66 79 -126c0 -101 -84 -160 -216 -160c-137 0 -214 64 -214 161zM170 692c0 -32 29 -53 70 -53c43 0 69 21 69 53
c0 35 -28 57 -69 57c-44 0 -70 -24 -70 -57zM170 469c0 -33 29 -56 70 -56c43 0 69 23 69 56s-28 56 -69 56c-44 0 -70 -24 -70 -56z" />
    <glyph glyph-name="uni2079" unicode="&#x2079;" horiz-adv-x="480" 
d="M230 293c-109 0 -186 56 -198 151h143c7 -23 26 -34 59 -34c56 0 82 44 78 117h-6c-21 -31 -57 -47 -108 -47c-53 0 -96 17 -129 51c-33 35 -49 80 -49 137c0 61 19 109 57 146c39 37 90 55 153 55c145 0 223 -105 223 -290c0 -187 -79 -286 -223 -286zM229 747
c-41 0 -69 -30 -69 -77c0 -23 6 -41 19 -56c25 -28 75 -28 99 1c13 15 19 34 19 57c0 47 -28 75 -68 75z" />
    <glyph glyph-name="uni2080" unicode="&#x2080;" horiz-adv-x="496" 
d="M246 -105c-73 0 -128 26 -165 79c-36 53 -54 123 -54 210c0 187 83 285 222 285c148 0 219 -112 219 -287c0 -188 -83 -287 -222 -287zM246 18c59 0 74 53 74 160c0 131 -26 170 -71 170c-59 0 -75 -56 -75 -159c0 -131 27 -171 72 -171z" />
    <glyph glyph-name="uni2081" unicode="&#x2081;" horiz-adv-x="346" 
d="M147 254h-147v108h25c72 0 125 40 130 100h133v-562h-141v354z" />
    <glyph glyph-name="uni2082" unicode="&#x2082;" horiz-adv-x="460" 
d="M214 20l59 3h161v-123h-398v19c0 85 40 155 88 198c71 64 162 113 162 177c0 33 -23 55 -60 55c-40 0 -64 -27 -60 -74h-142c3 121 84 194 207 194c61 0 109 -16 146 -48s56 -75 56 -128c0 -68 -41 -130 -84 -163l-74 -56c-28 -21 -48 -39 -61 -54z" />
    <glyph glyph-name="uni2083" unicode="&#x2083;" horiz-adv-x="477" 
d="M238 -108c-63 0 -114 16 -152 49s-57 76 -56 129h142c-1 -32 27 -57 70 -57s67 25 67 62s-25 56 -74 56h-65v111h51c49 0 74 19 74 56c0 31 -24 51 -60 51c-41 0 -69 -23 -66 -56h-142c-3 53 15 96 54 128s91 48 158 48c120 0 200 -61 200 -153c0 -55 -25 -95 -74 -118
v-5c55 -21 87 -70 87 -133c0 -50 -20 -90 -59 -121s-91 -47 -155 -47z" />
    <glyph glyph-name="uni2084" unicode="&#x2084;" horiz-adv-x="499" 
d="M415 462v-342h66v-115h-66v-105h-141v105h-251v105l185 352h207zM274 325l-108 -205h108v205z" />
    <glyph glyph-name="uni2085" unicode="&#x2085;" horiz-adv-x="480" 
d="M267 281c57 0 103 -18 136 -53c34 -35 51 -81 51 -137c0 -120 -83 -199 -216 -199c-65 0 -117 17 -156 52c-39 34 -58 79 -58 134h143c0 -37 27 -63 71 -63s73 31 73 72c0 44 -30 77 -75 77c-35 0 -60 -19 -67 -44h-135l16 342h361v-122h-236l-4 -79l6 -2
c21 15 51 22 90 22z" />
    <glyph glyph-name="uni2086" unicode="&#x2086;" horiz-adv-x="485" 
d="M251 -107c-144 0 -223 105 -223 290c0 184 77 286 224 286c112 0 187 -59 198 -150h-143c-7 22 -27 33 -59 33c-57 0 -83 -39 -78 -116h6c21 31 56 47 107 47c53 0 96 -17 129 -52c33 -34 49 -79 49 -136c0 -61 -19 -110 -58 -147c-38 -37 -89 -55 -152 -55zM253 15
c40 0 68 30 68 77c0 45 -28 77 -68 77c-41 0 -69 -31 -69 -78s28 -76 69 -76z" />
    <glyph glyph-name="uni2087" unicode="&#x2087;" horiz-adv-x="441" 
d="M120 252h-112v210h420v-102c-51 -67 -95 -142 -134 -224c-38 -82 -63 -161 -74 -236h-152c10 71 32 146 66 223c35 78 77 150 126 217h-140v-88z" />
    <glyph glyph-name="uni2088" unicode="&#x2088;" horiz-adv-x="480" 
d="M25 53c0 60 26 102 79 125v7c-53 23 -79 65 -79 125c0 101 84 159 216 159c136 0 214 -62 214 -159c0 -59 -26 -101 -79 -125v-7c53 -24 79 -66 79 -126c0 -101 -84 -160 -216 -160c-137 0 -214 64 -214 161zM170 292c0 -32 29 -53 70 -53c43 0 69 21 69 53
c0 35 -28 57 -69 57c-44 0 -70 -24 -70 -57zM170 69c0 -33 29 -56 70 -56c43 0 69 23 69 56s-28 56 -69 56c-44 0 -70 -24 -70 -56z" />
    <glyph glyph-name="uni2089" unicode="&#x2089;" horiz-adv-x="480" 
d="M230 -107c-109 0 -186 56 -198 151h143c7 -23 26 -34 59 -34c56 0 82 44 78 117h-6c-21 -31 -57 -47 -108 -47c-53 0 -96 17 -129 51c-33 35 -49 80 -49 137c0 61 19 109 57 146c39 37 90 55 153 55c145 0 223 -105 223 -290c0 -187 -79 -286 -223 -286zM229 347
c-41 0 -69 -30 -69 -77c0 -23 6 -41 19 -56c25 -28 75 -28 99 1c13 15 19 34 19 57c0 47 -28 75 -68 75z" />
    <glyph glyph-name="uni20A6" unicode="&#x20a6;" horiz-adv-x="767" 
d="M679 420h88v-112h-88v-308h-223l-124 308h-65l2 -52v-256h-190v308h-80v112h80v309h223l123 -309h66l-2 55v254h190v-309zM261 464l2 -44h24l-18 44h-8zM489 260h8l-2 48h-25z" />
    <glyph glyph-name="uni20A9" unicode="&#x20a9;" horiz-adv-x="937" 
d="M857 420h75v-112h-96l-57 -308h-285l2 193l-14 115h-38l-13 -112l6 -196h-281l-57 308h-94v112h74l-57 309h210l38 -309h55l35 309h200l40 -309h57l37 309h221zM458 435l-2 -15h12l-2 15h-8zM295 197h6l12 111h-30zM628 195h7l11 113h-32z" />
    <glyph glyph-name="uni20AA" unicode="&#x20aa;" horiz-adv-x="851" 
d="M440 180v399h-206v-579h-152v729h357c99 0 152 -37 152 -153v-396h-151zM618 151v578h152v-729h-357c-99 0 -152 37 -152 153v397h151v-399h206z" />
    <glyph glyph-name="Euro" unicode="&#x20ac;" horiz-adv-x="735" 
d="M401 167c43 0 73 19 89 57h212c-25 -144 -140 -233 -301 -233c-159 0 -269 87 -310 234h-67v116h49v24v23h-49v114h66c41 151 156 236 311 236c81 0 149 -21 202 -63s86 -98 99 -169h-212c-14 38 -44 57 -89 57c-44 0 -77 -20 -98 -61h165l-14 -114h-177v-23
c0 -11 0 -19 1 -24h169l-18 -116h-124c21 -39 53 -58 96 -58z" />
    <glyph glyph-name="uni20B2" unicode="&#x20b2;" horiz-adv-x="691" 
d="M315 286v135h324v-49c0 -184 -97 -289 -254 -305v-75h-115v77c-152 24 -242 134 -242 302c0 171 91 286 242 314v75h115v-70c137 -13 228 -95 245 -215h-208c-9 33 -37 49 -84 49c-70 0 -105 -48 -105 -145c0 -100 40 -151 109 -151c55 0 89 19 102 58h-129z" />
    <glyph glyph-name="uni20B8" unicode="&#x20b8;" horiz-adv-x="582" 
d="M7 579v150h568v-150h-568zM194 362h-187v164h568v-164h-192v-362h-189v362z" />
    <glyph glyph-name="uni20B9" unicode="&#x20b9;" horiz-adv-x="529" 
d="M495 729v-116h-109c17 -28 29 -58 35 -91h74v-116h-77c-19 -75 -73 -129 -142 -150v-8c17 -5 32 -12 44 -22c12 -9 21 -18 26 -27c5 -8 14 -24 26 -47c3 -5 5 -8 6 -11l74 -141h-211l-81 147c-9 17 -15 28 -20 34c-9 13 -37 30 -80 30h-81v153h139c39 0 68 14 87 42h-226
v116h222c-19 25 -47 37 -83 37h-139v170h516z" />
    <glyph glyph-name="uni20BA" unicode="&#x20ba;" horiz-adv-x="690" 
d="M467 356h198c-20 -107 -67 -193 -142 -257s-172 -97 -291 -98l-154 -1v234l-74 -29v142l74 30v65l-74 -29v141l74 32v143h190v-69l109 45v-142l-109 -47v-65l109 46v-142l-109 -46v-125c95 1 170 69 199 172z" />
    <glyph glyph-name="uni20BC" unicode="&#x20bc;" horiz-adv-x="829" 
d="M231 0h-192v309c0 223 100 325 277 346v74h195v-74c195 -24 279 -143 279 -346v-309h-193v309c0 105 -31 148 -86 160v-469h-195v469c-64 -11 -85 -65 -85 -160v-309z" />
    <glyph glyph-name="uni20BD" unicode="&#x20bd;" horiz-adv-x="655" 
d="M371 231h-103v-34h137v-114h-137v-83h-190v83h-76v114h76v35h-76v127h76v370h290c79 0 143 -23 193 -70c51 -47 76 -107 76 -180c0 -72 -25 -131 -74 -178s-113 -70 -192 -70zM435 477c0 55 -34 83 -102 83h-65v-169h65c68 0 102 35 102 86z" />
    <glyph glyph-name="uni20BF" unicode="&#x20bf;" horiz-adv-x="733" 
d="M629 236c0 -45 -15 -86 -44 -122s-74 -57 -135 -64v-58h-114v56h-49v-56h-113v56h-70v658h70v54h113v-54h49v54h114v-58c101 -17 161 -84 161 -177c0 -61 -24 -106 -73 -135c61 -28 91 -79 91 -154zM349 568h-52v-117h52c33 0 61 25 61 65c0 33 -25 52 -61 52zM351 316
h-54v-130h54c9 0 19 1 28 3c19 4 47 26 47 65c-3 53 -51 64 -75 62z" />
    <glyph glyph-name="uni2105" unicode="&#x2105;" horiz-adv-x="936" 
d="M267 488h129c-7 -81 -78 -139 -185 -139c-115 0 -191 73 -191 194c0 59 18 107 54 142c37 36 85 54 145 54c97 0 170 -58 179 -143h-131c-5 25 -23 37 -52 37c-43 0 -64 -30 -64 -90s22 -90 65 -90c25 0 46 14 51 35zM284 0h-106l465 729h106zM916 188
c0 -57 -18 -104 -54 -140c-35 -36 -82 -54 -139 -54c-58 0 -105 18 -141 53c-35 36 -53 83 -53 141s18 105 53 141c36 36 83 54 141 54s105 -18 140 -54s53 -83 53 -141zM659 188c0 -55 27 -90 64 -90c40 0 63 38 63 91s-25 89 -64 89c-40 0 -63 -38 -63 -90z" />
    <glyph glyph-name="uni2116" unicode="&#x2116;" horiz-adv-x="1424" 
d="M808 485c0 70 24 129 73 177s110 72 185 72c74 0 135 -24 184 -72s74 -107 74 -177c0 -69 -24 -128 -73 -177c-49 -48 -110 -72 -185 -72s-137 24 -186 72c-48 49 -72 108 -72 177zM266 0h-203v729h230l239 -437h8l-11 202v235h201v-729h-230l-237 431h-8l11 -195v-236z
M1002 484c0 -61 24 -95 64 -95c43 0 64 32 64 95c0 65 -25 97 -64 97c-43 0 -64 -32 -64 -97zM861 1v150h411v-150h-411z" />
    <glyph glyph-name="uni2117" unicode="&#x2117;" horiz-adv-x="876" 
d="M439 -77c-73 0 -141 17 -205 52c-63 34 -115 84 -156 149c-40 65 -60 138 -60 219c0 121 51 233 128 304c79 72 184 116 293 116c73 0 141 -17 204 -52c63 -34 115 -83 155 -148s60 -137 60 -217s-20 -153 -59 -219c-79 -131 -213 -204 -360 -204zM812 347
c0 109 -36 198 -109 269s-161 106 -264 106s-192 -36 -266 -107c-73 -71 -110 -161 -110 -272c0 -110 37 -201 110 -272c74 -71 163 -107 266 -107s191 36 264 108s109 164 109 275zM398 124h-107v430h229c92 0 151 -57 151 -142c0 -84 -59 -142 -151 -142h-122v-146z
M396 467v-114h105c39 0 62 24 62 59c0 32 -27 55 -62 55h-105z" />
    <glyph glyph-name="trademark" unicode="&#x2122;" horiz-adv-x="631" 
d="M84 664h-79v72h241v-72h-82v-241h-80v241zM456 583l66 153h98v-313h-77v115l4 85h-3l-90 -195l-89 195h-5l6 -85v-115h-78v313h99l66 -153h3z" />
    <glyph glyph-name="estimated" unicode="&#x212e;" horiz-adv-x="726" 
d="M662 230h46c-18 -72 -58 -130 -120 -174c-62 -43 -136 -65 -222 -65c-108 0 -195 34 -260 102s-97 157 -97 266c0 110 33 199 99 267c67 69 155 103 266 103c101 0 182 -29 243 -88c61 -58 94 -140 99 -246c1 -14 1 -33 1 -57h-600v-185c47 -79 143 -124 251 -124
c71 0 133 18 187 55s90 86 107 146zM117 561v-187h493v205c-59 74 -142 110 -249 108c-105 -2 -187 -44 -244 -126z" />
    <glyph glyph-name="oneeighth" unicode="&#x215b;" horiz-adv-x="974" 
d="M316 -46h-142l415 814h143zM146 552h-125v92h45c57 0 87 30 87 82v3h109v-473h-116v296zM605 130c0 52 23 88 68 107v6c-43 17 -68 59 -68 108c0 87 71 135 179 135c109 0 174 -54 174 -135c0 -53 -22 -89 -66 -108v-6c44 -19 66 -55 66 -108c0 -85 -69 -136 -177 -136
c-111 0 -176 54 -176 137zM724 337c0 -31 23 -49 58 -49s58 21 58 49c0 29 -23 49 -58 49c-36 0 -58 -20 -58 -49zM724 142c0 -29 22 -50 58 -50c35 0 58 21 58 50c0 31 -23 51 -58 51s-58 -20 -58 -51z" />
    <glyph glyph-name="threeeighths" unicode="&#x215c;" horiz-adv-x="1029" 
d="M372 -46h-142l415 814h143zM182 248c-100 0 -168 60 -167 149h115c1 -27 22 -49 50 -49c65 -4 67 102 -3 96h-45v103h30c37 0 57 20 57 48c0 27 -15 40 -44 40s-49 -20 -48 -49h-116c-1 89 61 149 168 149c97 0 158 -52 158 -128c0 -47 -21 -81 -63 -100v-5
c49 -20 74 -58 74 -113c0 -84 -69 -141 -166 -141zM661 130c0 52 23 88 68 107v6c-43 17 -68 59 -68 108c0 87 71 135 179 135c109 0 174 -54 174 -135c0 -53 -22 -89 -66 -108v-6c44 -19 66 -55 66 -108c0 -85 -69 -136 -177 -136c-111 0 -176 54 -176 137zM780 337
c0 -31 23 -49 58 -49c36 0 58 21 58 49c0 29 -23 49 -58 49c-36 0 -58 -20 -58 -49zM780 142c0 -29 22 -50 58 -50c35 0 58 21 58 50c0 31 -23 51 -58 51s-58 -20 -58 -51z" />
    <glyph glyph-name="fiveeighths" unicode="&#x215d;" horiz-adv-x="1056" 
d="M398 -46h-142l415 814h143zM23 404h117c0 -33 27 -57 60 -57s59 29 59 66c0 39 -27 67 -62 67c-29 0 -47 -13 -55 -38h-110v287h311v-100h-197v-38l-3 -33l4 -3c16 15 41 22 75 22c92 0 153 -68 153 -161c0 -100 -70 -168 -177 -168c-104 0 -174 63 -175 156zM687 130
c0 52 23 88 68 107v6c-43 17 -68 59 -68 108c0 87 71 135 179 135c109 0 174 -54 174 -135c0 -53 -22 -89 -66 -108v-6c44 -19 66 -55 66 -108c0 -85 -69 -136 -177 -136c-111 0 -176 54 -176 137zM806 337c0 -31 23 -49 58 -49s58 21 58 49c0 29 -23 49 -58 49
c-36 0 -58 -20 -58 -49zM806 142c0 -29 22 -50 58 -50c35 0 58 21 58 50c0 31 -23 51 -58 51s-58 -20 -58 -51z" />
    <glyph glyph-name="seveneighths" unicode="&#x215e;" horiz-adv-x="951" 
d="M151 -46l415 814h143l-416 -814h-142zM164 256h-114c7 61 23 126 50 193c27 68 61 128 102 180h-109v-73h-88v173h337v-83c-45 -51 -84 -111 -115 -181c-31 -69 -52 -139 -63 -209zM869 243v-6c44 -19 66 -55 66 -108c0 -85 -69 -136 -177 -136c-111 0 -176 54 -176 137
c0 52 23 88 68 107v6c-43 17 -68 59 -68 108c0 87 71 135 179 135c109 0 174 -54 174 -135c0 -53 -22 -89 -66 -108zM759 288c36 0 58 21 58 49c0 29 -23 49 -58 49c-36 0 -58 -20 -58 -49c0 -31 23 -49 58 -49zM759 92c35 0 58 21 58 50c0 31 -23 51 -58 51
s-58 -20 -58 -51c0 -29 22 -50 58 -50z" />
    <glyph glyph-name="arrowleft" unicode="&#x2190;" horiz-adv-x="860" 
d="M767 328v-100h-586l169 -228h-126l-208 280l208 272h126l-169 -224h586z" />
    <glyph glyph-name="arrowup" unicode="&#x2191;" horiz-adv-x="582" 
d="M553 384v-118l-211 188v-362h211v-95h-523v95h211v362l-211 -188v118l263 229z" />
    <glyph glyph-name="arrowright" unicode="&#x2192;" horiz-adv-x="900" 
d="M681 228h-586v100h586l-169 224h126l208 -272l-208 -280h-126z" />
    <glyph glyph-name="arrowdown" unicode="&#x2193;" horiz-adv-x="582" 
d="M553 562v-95h-211v-362l211 188v-119l-260 -228l-263 228v119l211 -188v362h-211v95h523z" />
    <glyph glyph-name="arrowboth" unicode="&#x2194;" horiz-adv-x="1020" 
d="M236 90l-224 271l224 266h117l-183 -218h679l-180 218h116l223 -266l-223 -271h-116l180 219h-679l183 -219h-117z" />
    <glyph glyph-name="arrowupdn" unicode="&#x2195;" horiz-adv-x="652" 
d="M331 -141l-306 246v115l258 -207v593l-258 -206v114l306 246l305 -246v-114l-258 206v-593l258 207v-115z" />
    <glyph glyph-name="uni2196" unicode="&#x2196;" horiz-adv-x="712" 
d="M666 78l-73 -78l-398 409v-319h-101v493h484v-101h-312z" />
    <glyph glyph-name="uni2197" unicode="&#x2197;" horiz-adv-x="687" 
d="M581 386l-377 -386l-72 75l378 391h-310v96h484v-492h-103v316z" />
    <glyph glyph-name="uni2198" unicode="&#x2198;" horiz-adv-x="698" 
d="M606 0l-485 -1v104h315l-383 383l72 76l380 -393l1 327h101z" />
    <glyph glyph-name="uni2199" unicode="&#x2199;" horiz-adv-x="696" 
d="M576 0h-486v496h104v-327l382 393l67 -73l-383 -386h316v-103z" />
    <glyph glyph-name="uni21A9" unicode="&#x21a9;" horiz-adv-x="842" 
d="M833 498c0 -73 -23 -131 -69 -176s-112 -67 -197 -67h-360v-124l-197 178l197 181v-126h360c95 0 160 49 160 134c0 79 -59 133 -150 133h-13v107h13c75 0 136 -23 184 -69c48 -45 72 -102 72 -171z" />
    <glyph glyph-name="uni21AA" unicode="&#x21aa;" horiz-adv-x="842" 
d="M10 498c0 69 24 126 73 171c49 46 110 69 184 69h13v-107h-13c-92 0 -149 -56 -149 -133c0 -85 63 -134 159 -134h363v126l193 -181l-193 -178v124h-363c-173 0 -267 96 -267 243z" />
    <glyph glyph-name="uni21B2" unicode="&#x21b2;" horiz-adv-x="680" 
d="M556 364v406h97v-515h-435v-124l-196 178l196 181v-126h338z" />
    <glyph glyph-name="uni21B3" unicode="&#x21b3;" horiz-adv-x="680" 
d="M460 490l193 -181l-193 -178v124h-438v515h98v-406h340v126z" />
    <glyph glyph-name="uni21BA" unicode="&#x21ba;" horiz-adv-x="825" 
d="M75 320c0 112 53 226 162 302l51 -60c-87 -59 -131 -139 -131 -242c0 -71 25 -131 74 -180s111 -73 185 -73c71 0 131 24 178 71c48 48 72 106 72 175c0 47 -12 90 -36 129s-74 91 -151 156l-3 -2l5 -67v-129h-75v329h318v-80h-127l-60 5l-3 -3c83 -69 140 -127 169 -174
c30 -46 45 -101 45 -164c0 -91 -32 -168 -97 -231s-144 -94 -239 -94s-175 31 -240 94s-97 143 -97 238z" />
    <glyph glyph-name="uni21BB" unicode="&#x21bb;" horiz-adv-x="825" 
d="M408 -12c-93 0 -172 31 -237 94c-64 63 -96 140 -96 231c0 63 15 118 45 166s87 105 170 172l-4 3l-63 -5h-125v80h322v-329h-79v129l5 67l-3 2c-76 -64 -126 -116 -150 -155s-36 -83 -36 -130c0 -69 24 -127 71 -175c47 -47 107 -71 179 -71c73 0 135 24 184 72
c50 48 75 108 75 181c0 96 -48 189 -129 242l49 60c109 -76 162 -194 162 -302c0 -94 -33 -173 -98 -237c-65 -63 -146 -95 -242 -95z" />
    <glyph glyph-name="emptyset" unicode="&#x2205;" horiz-adv-x="746" 
d="M392 738c116 0 205 -34 268 -102c63 -67 95 -158 95 -271c0 -120 -33 -213 -98 -278s-154 -97 -265 -97c-115 0 -205 34 -268 101c-63 68 -94 159 -94 274c0 119 32 210 97 275s154 98 265 98zM392 562c-95 0 -148 -78 -148 -197c0 -16 1 -31 3 -45l216 224
c-21 12 -44 18 -71 18zM392 166c96 0 150 78 150 199c0 9 -1 21 -2 37l-214 -221c20 -10 42 -15 66 -15z" />
    <glyph glyph-name="product" unicode="&#x220f;" horiz-adv-x="812" 
d="M46 729h720v-165h-107v-564h-192v564h-123v-564h-193v564h-105v165z" />
    <glyph glyph-name="summation" unicode="&#x2211;" horiz-adv-x="610" 
d="M565 -169h-515v192l215 237v10l-215 265v194h515v-194h-182l-102 11v-11l204 -274l-211 -230v-10l109 10h182v-200z" />
    <glyph glyph-name="minus" unicode="&#x2212;" horiz-adv-x="568" 
d="M66 225v149h433v-149h-433z" />
    <glyph glyph-name="radical" unicode="&#x221a;" horiz-adv-x="843" 
d="M506 356l138 373h193l-316 -842h-241l-164 453h-104v163h245v-3l50 -145l90 -287h8z" />
    <glyph glyph-name="infinity" unicode="&#x221e;" horiz-adv-x="850" 
d="M225 28c-66 0 -121 22 -166 67s-67 103 -67 174s22 129 67 176s100 70 167 70c84 0 155 -49 198 -118c44 71 115 118 199 118c67 0 122 -23 167 -70s68 -105 68 -176s-23 -129 -68 -174s-100 -67 -166 -67c-86 0 -153 38 -200 113c-43 -69 -114 -113 -199 -113zM238 201
c37 0 71 23 101 69c-29 45 -62 67 -101 67c-40 0 -67 -30 -67 -67c0 -39 26 -69 67 -69zM610 201c40 0 67 30 67 69c0 37 -27 67 -67 67c-39 0 -72 -22 -99 -67c29 -46 62 -69 99 -69z" />
    <glyph glyph-name="integral" unicode="&#x222b;" horiz-adv-x="635" 
d="M382 753h167v-152h-134v-584c0 -43 -5 -69 -25 -104c-19 -35 -65 -54 -134 -54h-166v151h134v584c0 31 -1 46 10 79c15 48 56 76 148 80z" />
    <glyph glyph-name="approxequal" unicode="&#x2248;" horiz-adv-x="543" 
d="M144 348h-82c-8 108 51 164 123 164c27 0 57 -10 91 -29c35 -19 62 -28 81 -28c36 0 55 18 56 54h81c4 -55 -7 -97 -33 -124c-25 -27 -56 -41 -93 -41c-33 0 -68 9 -105 28c-36 19 -61 28 -75 28c-33 0 -48 -28 -44 -52zM144 143h-82c-8 108 49 161 122 161
c27 0 57 -9 92 -28c35 -18 62 -27 81 -27c36 0 55 21 56 52h81c4 -56 -7 -97 -33 -124c-25 -27 -56 -40 -93 -40c-33 0 -68 10 -105 29c-36 19 -61 29 -75 29c-32 0 -48 -28 -44 -52z" />
    <glyph glyph-name="notequal" unicode="&#x2260;" horiz-adv-x="610" 
d="M543 457v-131h-162l-35 -67h197v-130h-265l-51 -99h-118l52 99h-95v130h163l34 67h-197v131h266l51 98h117l-51 -98h94z" />
    <glyph glyph-name="lessequal" unicode="&#x2264;" horiz-adv-x="563" 
d="M504 348v-170l-458 148v170l458 142v-169l-149 -32l-137 -21v-9l130 -22zM504 172v-172h-458v172h458z" />
    <glyph glyph-name="greaterequal" unicode="&#x2265;" horiz-adv-x="563" 
d="M517 326l-458 -148v170l156 37l131 22v9l-138 21l-149 32v169l458 -142v-170zM517 0h-458v172h458v-172z" />
    <glyph glyph-name="filledbox" unicode="&#x25a0;" horiz-adv-x="932" 
d="M105 1v728h722v-728h-722z" />
    <glyph glyph-name="uni25A1" unicode="&#x25a1;" horiz-adv-x="803" 
d="M40 0v729h723v-729h-723zM689 655h-573v-580h573v580z" />
    <glyph glyph-name="triagup" unicode="&#x25b2;" horiz-adv-x="875" 
d="M30 0l407 737l408 -737h-815z" />
    <glyph glyph-name="uni25B3" unicode="&#x25b3;" horiz-adv-x="867" 
d="M829 0h-791l394 738zM434 574l-260 -492h521z" />
    <glyph glyph-name="lozenge" unicode="&#x25ca;" horiz-adv-x="2155" 
d="M985 -10c-90 0 -161 33 -214 100s-79 157 -79 268c0 264 162 381 346 381c81 0 148 -21 202 -62c55 -41 88 -96 100 -164h-156c-24 57 -73 86 -147 86c-121 0 -184 -88 -184 -237c0 -155 67 -235 176 -235c89 0 148 46 161 125h-162v143h324v-395h-111l-16 119h-35
c-21 -83 -101 -129 -205 -129zM1487 576c-45 0 -79 34 -79 82c0 47 34 81 79 81c47 0 76 -34 76 -81c0 -49 -29 -82 -76 -82zM1685 576c-45 0 -76 34 -76 82c0 47 32 81 76 81c48 0 81 -34 81 -81c0 -48 -32 -82 -81 -82zM311 0h-271v729h271c211 0 336 -122 336 -363
c0 -240 -127 -366 -336 -366zM1887 572h-36v126h-38v31h118v-31h-44v-126zM1985 572h-34v157h63l17 -127l23 127h61v-157h-40v135l-17 -135h-52l-21 135v-135zM146 109l26 -26c36 36 62 52 113 52h26c17 0 29 -1 69 15c21 8 38 19 52 33c29 29 58 95 58 180
c0 83 -26 147 -55 176c-14 15 -30 27 -49 36c-37 19 -56 19 -75 19h-26c-19 0 -36 3 -52 10c-15 7 -26 12 -32 17l-29 27l-26 -30c1 -3 13 -14 14 -17c8 -4 15 -19 20 -27c10 -15 15 -39 15 -71v-276c-2 -36 -4 -53 -16 -74l-10 -15c-3 -5 -20 -26 -23 -29zM1583 0h-149v491
h141l7 -58h27c16 49 70 76 139 76v-147c-110 11 -165 -39 -165 -148v-214z" />
    <glyph glyph-name="circle" unicode="&#x25cb;" horiz-adv-x="754" 
d="M9 365c0 109 35 198 104 268c70 70 158 105 264 105s194 -35 263 -105c70 -70 105 -159 105 -268c0 -110 -35 -200 -105 -270c-69 -70 -157 -105 -263 -105s-194 35 -264 105c-69 70 -104 160 -104 270zM377 63c83 0 152 28 207 85s83 129 83 217c0 87 -28 159 -83 215
c-55 57 -124 85 -207 85s-152 -28 -207 -85c-55 -56 -83 -128 -83 -215s28 -160 83 -217c56 -57 125 -85 207 -85z" />
    <glyph glyph-name="uni25CF" unicode="&#x25cf;" horiz-adv-x="889" 
d="M446 -10c-105 0 -192 36 -262 107c-70 72 -105 162 -105 269c0 106 35 194 105 265s157 107 262 107c104 0 190 -36 259 -107s104 -159 104 -265c0 -107 -35 -197 -104 -269c-69 -71 -155 -107 -259 -107z" />
    <glyph glyph-name="uni262E" unicode="&#x262e;" horiz-adv-x="800" 
d="M768 363c0 -111 -35 -202 -104 -272s-157 -105 -264 -105c-106 0 -194 35 -263 105s-104 161 -104 272s35 201 104 270s157 104 263 104s194 -35 263 -104c70 -69 105 -159 105 -270zM711 363c0 91 -27 165 -80 224s-121 91 -204 98v-299l258 -160c17 41 26 86 26 137z
M372 386v299c-82 -7 -150 -39 -203 -98s-80 -133 -80 -224c0 -50 9 -96 26 -138zM372 320l-231 -144c51 -79 134 -128 231 -136v280zM427 320v-280c103 9 180 54 232 136z" />
    <glyph glyph-name="uni2639" unicode="&#x2639;" horiz-adv-x="802" 
d="M30 365c0 108 36 197 107 267c72 71 160 106 264 106s192 -35 263 -106c72 -71 108 -160 108 -267c0 -109 -36 -198 -108 -269c-71 -71 -159 -106 -263 -106c-105 0 -193 35 -264 105c-71 71 -107 161 -107 270zM86 365c0 -83 26 -154 77 -214c47 67 138 111 238 111
c101 0 192 -43 239 -111c51 62 76 133 76 214c0 91 -31 168 -92 229s-135 92 -222 92s-162 -31 -224 -92c-61 -61 -92 -137 -92 -229zM270 438c0 69 21 107 54 107c35 0 53 -44 53 -107c0 -71 -21 -107 -53 -107c-36 0 -54 43 -54 107zM427 438c0 68 22 107 55 107
c35 0 54 -42 54 -107c0 -69 -21 -107 -54 -107c-36 0 -55 44 -55 107zM202 114c60 -48 127 -72 200 -72s139 24 198 72c-17 29 -44 52 -81 69s-76 26 -117 26c-89 0 -167 -39 -200 -95z" />
    <glyph glyph-name="smileface" unicode="&#x263a;" horiz-adv-x="802" 
d="M772 365c0 -109 -36 -198 -108 -269c-71 -71 -159 -106 -263 -106c-105 0 -193 35 -264 105c-71 71 -107 161 -107 270c0 108 36 197 107 267c72 71 160 106 264 106s192 -35 263 -106c72 -71 108 -160 108 -267zM402 686c-87 0 -162 -31 -224 -92
c-61 -61 -92 -137 -92 -229s31 -169 92 -231c62 -61 137 -92 224 -92s161 31 222 93s92 139 92 230s-31 168 -92 229s-135 92 -222 92zM324 331c-36 0 -54 43 -54 107c0 69 21 107 54 107c35 0 53 -44 53 -107c0 -71 -21 -107 -53 -107zM482 331c-36 0 -55 44 -55 107
c0 68 22 107 55 107c35 0 54 -42 54 -107c0 -69 -21 -107 -54 -107zM560 315v17h106v-17h-25c-9 -58 -37 -104 -82 -139s-97 -52 -158 -52c-62 0 -115 17 -160 52c-44 35 -71 82 -80 139h-23v17h108v-17h-28c13 -85 91 -139 184 -139c97 0 169 56 184 139h-26z" />
    <glyph glyph-name="uni2708" unicode="&#x2708;" horiz-adv-x="847" 
d="M109 207h-50l35 159l-35 159h50l69 -108l210 12l-99 276h90l144 -239c10 -16 26 -24 48 -25l59 4c40 3 76 -4 109 -21s49 -36 49 -58c0 -23 -16 -43 -49 -60c-32 -16 -68 -23 -109 -20l-59 4c-23 -1 -39 -9 -48 -24l-144 -240h-90l99 276l-210 14z" />
    <glyph glyph-name="uni2713" unicode="&#x2713;" horiz-adv-x="816" 
d="M295 249l377 359l106 -125l-496 -466l-245 289l117 107z" />
    <glyph glyph-name="uni2714" unicode="&#x2714;" horiz-adv-x="1286" 
d="M1109 735l112 -201c-153 -72 -308 -166 -465 -281c-156 -115 -273 -222 -350 -323c-97 133 -210 258 -341 375l132 136c95 -77 158 -147 221 -252c77 103 177 203 300 300c124 97 254 179 391 246z" />
    <glyph glyph-name="uni2776" unicode="&#x2776;" horiz-adv-x="891" 
d="M447 -9c-109 0 -201 37 -276 110c-74 74 -111 165 -111 274c0 107 37 198 111 272c75 75 167 112 276 112c108 0 199 -37 273 -112c74 -74 111 -165 111 -272c0 -109 -37 -200 -111 -274c-74 -73 -165 -110 -273 -110zM428 418v-264h93v423h-85v-1c0 -45 -35 -85 -94 -85
h-32v-73h118z" />
    <glyph glyph-name="uni2777" unicode="&#x2777;" horiz-adv-x="892" 
d="M447 -9c-109 0 -201 37 -276 111c-74 74 -111 165 -111 274c0 108 37 199 111 273c75 74 167 111 276 111s200 -37 274 -111s111 -165 111 -273c0 -109 -37 -200 -111 -274s-165 -111 -274 -111zM307 168v-14h282v81h-115l-53 -3c9 13 23 28 44 45l58 46
c36 28 70 77 70 130c0 77 -55 131 -140 131c-43 0 -80 -13 -109 -38s-44 -58 -45 -100l94 -5c-3 37 17 62 53 62c32 0 53 -19 53 -51c0 -33 -31 -64 -68 -92c-54 -38 -124 -93 -124 -192z" />
    <glyph glyph-name="uni2778" unicode="&#x2778;" horiz-adv-x="892" 
d="M447 -9c-109 0 -200 37 -275 110c-75 74 -112 165 -112 273s37 199 112 274s166 112 275 112c107 0 198 -37 273 -112s112 -166 112 -274s-37 -199 -112 -273c-74 -73 -165 -110 -273 -110zM448 148c85 0 146 50 146 125c0 44 -25 84 -66 100v4c37 17 56 53 56 89
c0 69 -55 117 -139 117c-95 0 -148 -54 -147 -134h93c1 36 18 54 51 54c27 0 47 -16 47 -44c0 -29 -21 -50 -58 -50h-28v-80h40c32 0 57 -21 57 -50s-23 -51 -55 -51c-31 0 -51 23 -51 54h-93c-1 -83 59 -134 147 -134z" />
    <glyph glyph-name="uni2779" unicode="&#x2779;" horiz-adv-x="895" 
d="M448 -9c-109 0 -201 37 -276 111s-112 165 -112 274c0 108 37 199 112 273s167 111 276 111s200 -37 275 -111s112 -165 112 -273c0 -109 -37 -200 -112 -274s-166 -111 -275 -111zM464 245v-91h91v91h44v80h-44v252h-138l-139 -258v-74h186zM464 325h-84l84 153v-153z
" />
    <glyph glyph-name="uni277A" unicode="&#x277a;" horiz-adv-x="891" 
d="M447 -9c-109 0 -201 37 -276 110c-74 73 -111 164 -111 273c0 108 37 199 112 274s166 112 275 112c107 0 198 -37 272 -112c75 -75 112 -166 112 -274s-37 -199 -111 -273c-74 -73 -165 -110 -273 -110zM450 149c95 0 155 59 155 148c0 84 -55 144 -135 144
c-33 0 -57 -8 -71 -23l-4 2l2 34v44h181v79h-271v-250h88c8 23 26 35 55 35c36 0 63 -29 63 -69c0 -37 -27 -64 -62 -64s-59 24 -60 57h-92c-1 -81 63 -137 151 -137z" />
    <glyph glyph-name="uni277B" unicode="&#x277b;" horiz-adv-x="921" 
d="M461 -37c-113 0 -208 38 -285 115s-116 171 -116 283s39 206 116 283s172 116 285 116c112 0 207 -39 284 -116s116 -171 116 -283c0 -113 -39 -207 -117 -284c-77 -76 -172 -114 -283 -114zM458 148c45 0 83 14 112 41c29 28 44 64 44 107c0 83 -54 143 -131 143
c-40 0 -75 -18 -90 -43h-3c0 73 21 108 69 108c30 0 48 -12 55 -36h93c-8 69 -66 115 -145 115c-107 0 -167 -82 -167 -221c0 -136 59 -214 163 -214zM399 293c0 40 25 69 61 69c37 0 61 -27 61 -68c0 -40 -24 -66 -61 -66s-61 26 -61 65z" />
    <glyph glyph-name="uni277C" unicode="&#x277c;" horiz-adv-x="895" 
d="M60 374c0 108 37 199 112 274s167 112 276 112s200 -37 275 -112s112 -166 112 -274s-37 -199 -112 -273c-75 -73 -166 -110 -275 -110s-201 37 -276 111s-112 165 -112 272zM349 154h98c22 133 74 252 156 359v64h-295v-147h70v68h111c-35 -46 -66 -100 -91 -161
s-41 -122 -49 -183z" />
    <glyph glyph-name="uni277D" unicode="&#x277d;" horiz-adv-x="892" 
d="M447 -9c-109 0 -200 37 -275 111s-112 165 -112 272c0 108 37 199 112 274s166 112 275 112c107 0 198 -37 273 -112s112 -166 112 -274s-37 -199 -112 -273c-75 -73 -166 -110 -273 -110zM446 148c93 0 156 44 156 119c0 40 -23 80 -62 96v5c39 17 62 54 62 95
c0 71 -60 120 -156 120c-92 0 -155 -45 -155 -120c0 -41 24 -78 61 -95v-5c-37 -17 -61 -55 -61 -95c0 -73 59 -120 155 -120zM446 402c-35 0 -60 21 -60 50s23 51 60 51c36 0 60 -20 60 -51c0 -29 -23 -50 -60 -50zM446 228c-35 0 -60 19 -60 50c0 29 23 50 60 50
c35 0 60 -19 60 -50c0 -29 -23 -50 -60 -50z" />
    <glyph glyph-name="uni277E" unicode="&#x277e;" horiz-adv-x="895" 
d="M448 -9c-109 0 -201 37 -276 110c-75 74 -112 166 -112 275c0 107 37 198 112 272c75 75 167 112 276 112c108 0 199 -37 274 -112c75 -74 113 -165 113 -272c0 -109 -38 -201 -113 -275c-75 -73 -166 -110 -274 -110zM449 148c107 0 166 82 166 221
c0 136 -59 214 -163 214c-92 0 -155 -61 -155 -149c0 -83 54 -141 131 -141c43 0 73 14 90 41h3c0 -73 -21 -108 -69 -108c-30 0 -48 12 -55 36h-93c9 -69 66 -114 145 -114zM452 368c-39 0 -62 27 -62 67c0 41 23 69 62 69c36 0 59 -28 59 -67c0 -40 -23 -69 -59 -69z" />
    <glyph glyph-name="uni2780" unicode="&#x2780;" horiz-adv-x="891" 
d="M447 -9c-109 0 -201 37 -276 110c-74 74 -111 165 -111 274c0 107 37 198 111 272c75 75 167 112 276 112c108 0 199 -37 273 -112c74 -74 111 -165 111 -272c0 -109 -37 -200 -111 -274c-74 -73 -165 -110 -273 -110zM447 39c94 0 173 32 238 97s98 145 98 239
s-32 173 -97 238s-144 98 -239 98s-176 -33 -241 -98s-97 -144 -97 -238s32 -174 97 -239s146 -97 241 -97zM428 154v264h-118v73h32c59 0 94 38 94 85v1h85v-423h-93z" />
    <glyph glyph-name="uni2781" unicode="&#x2781;" horiz-adv-x="892" 
d="M447 760c109 0 200 -37 274 -111s111 -165 111 -273c0 -109 -37 -200 -111 -274s-165 -111 -274 -111s-201 37 -276 111c-74 74 -111 165 -111 274c0 108 37 199 111 273c75 74 167 111 276 111zM447 39c95 0 174 33 239 98s98 145 98 239s-33 174 -98 239
s-144 98 -239 98s-176 -33 -241 -98s-98 -144 -98 -239s33 -175 98 -240s146 -97 241 -97zM593 453c0 -53 -34 -102 -70 -130l-58 -46c-21 -17 -35 -32 -44 -45l53 3h115v-81h-282v14c0 63 31 115 68 147c54 48 124 85 124 137c0 32 -21 51 -53 51c-36 0 -56 -25 -53 -62
l-94 5c1 42 16 75 45 100s66 38 109 38c85 0 140 -54 140 -131z" />
    <glyph glyph-name="uni2782" unicode="&#x2782;" horiz-adv-x="892" 
d="M447 -9c-109 0 -200 37 -275 110c-75 74 -112 165 -112 273s37 199 112 274s166 112 275 112c107 0 198 -37 273 -112s112 -166 112 -274s-37 -199 -112 -273c-74 -73 -165 -110 -273 -110zM447 39c95 0 174 32 239 97s98 145 98 238c0 95 -33 175 -98 240
s-144 98 -239 98c-96 0 -177 -33 -242 -98s-97 -145 -97 -240c0 -93 33 -173 98 -238s146 -97 241 -97zM448 148c-88 0 -148 51 -147 134h93c0 -31 20 -54 51 -54c32 0 55 22 55 51s-25 50 -57 50h-40v80h28c37 0 58 21 58 50c0 28 -20 44 -47 44c-33 0 -50 -18 -51 -54h-93
c-1 80 52 134 147 134c84 0 139 -48 139 -117c0 -36 -19 -72 -56 -89v-4c41 -16 66 -56 66 -100c0 -75 -61 -125 -146 -125z" />
    <glyph glyph-name="uni2783" unicode="&#x2783;" horiz-adv-x="895" 
d="M60 376c0 108 37 199 112 273s167 111 276 111s200 -37 275 -111s112 -165 112 -273c0 -109 -37 -200 -112 -274s-166 -111 -275 -111s-201 37 -276 111s-112 165 -112 274zM448 39c95 0 175 32 240 97s97 145 97 240s-32 174 -97 239s-145 98 -240 98
c-96 0 -177 -33 -242 -98s-97 -144 -97 -239s32 -175 97 -240s146 -97 242 -97zM464 245h-186v74l139 258h138v-252h44v-80h-44v-91h-91v91zM464 478l-84 -153h84v153z" />
    <glyph glyph-name="uni2784" unicode="&#x2784;" horiz-adv-x="891" 
d="M447 -9c-109 0 -201 37 -276 110c-74 73 -111 164 -111 273c0 108 37 199 112 274s166 112 275 112c107 0 198 -37 272 -112c75 -75 112 -166 112 -274s-37 -199 -111 -273c-74 -73 -165 -110 -273 -110zM447 39c95 0 174 32 239 97s97 145 97 238c0 95 -32 176 -97 241
s-144 98 -239 98c-96 0 -177 -33 -242 -98s-97 -146 -97 -241c0 -93 33 -173 98 -238s146 -97 241 -97zM450 149c-88 0 -152 56 -151 137h92c1 -33 25 -57 60 -57s62 27 62 64c0 40 -27 69 -63 69c-29 0 -47 -12 -55 -35h-88v250h271v-79h-181v-44l-2 -34l4 -2
c14 15 38 23 71 23c80 0 135 -60 135 -144c0 -89 -60 -148 -155 -148z" />
    <glyph glyph-name="uni2785" unicode="&#x2785;" horiz-adv-x="921" 
d="M461 760c112 0 207 -39 284 -116s116 -171 116 -283c0 -113 -39 -207 -117 -284c-77 -76 -172 -114 -283 -114c-113 0 -208 38 -285 115s-116 171 -116 283s39 206 116 283s172 116 285 116zM111 361c0 -97 34 -180 101 -247s150 -101 249 -101c98 0 181 34 248 101
c67 68 101 150 101 247c0 98 -34 181 -101 249s-150 102 -248 102c-99 0 -182 -34 -249 -102s-101 -151 -101 -249zM295 362c0 139 60 221 167 221c79 0 137 -46 145 -115h-93c-7 24 -25 36 -55 36c-48 0 -69 -35 -69 -108h3c15 25 50 43 90 43c77 0 131 -60 131 -143
c0 -43 -15 -79 -44 -107c-29 -27 -67 -41 -112 -41c-104 0 -163 78 -163 214zM399 293c0 -39 24 -65 61 -65s61 26 61 66c0 41 -24 68 -61 68c-36 0 -61 -29 -61 -69z" />
    <glyph glyph-name="uni2786" unicode="&#x2786;" horiz-adv-x="895" 
d="M60 374c0 108 37 199 112 274s167 112 276 112s200 -37 275 -112s112 -166 112 -274s-37 -199 -112 -273c-75 -73 -166 -110 -275 -110s-201 37 -276 111s-112 165 -112 272zM448 39c95 0 174 32 239 97s98 145 98 238c0 95 -32 175 -97 240c-65 66 -145 99 -240 99
s-176 -33 -241 -99c-65 -65 -98 -145 -98 -240c0 -93 33 -173 98 -238s146 -97 241 -97zM447 154h-98c8 61 24 122 49 183s56 115 91 161h-111v-68h-70v147h295v-64c-82 -107 -134 -226 -156 -359z" />
    <glyph glyph-name="uni2787" unicode="&#x2787;" horiz-adv-x="892" 
d="M447 -9c-109 0 -200 37 -275 111s-112 165 -112 272c0 108 37 199 112 274s166 112 275 112c107 0 198 -37 273 -112s112 -166 112 -274s-37 -199 -112 -273c-75 -73 -166 -110 -273 -110zM447 39c94 0 173 33 238 98s98 144 98 237c0 95 -33 175 -98 240
c-65 66 -144 99 -238 99c-95 0 -176 -33 -241 -99c-65 -65 -97 -145 -97 -240c0 -93 32 -173 97 -238s146 -97 241 -97zM446 148c-96 0 -155 47 -155 120c0 40 24 78 61 95v5c-37 17 -61 54 -61 95c0 75 63 120 155 120c96 0 156 -49 156 -120c0 -41 -23 -78 -62 -95v-5
c39 -16 62 -56 62 -96c0 -75 -63 -119 -156 -119zM446 402c37 0 60 21 60 50c0 31 -24 51 -60 51c-37 0 -60 -22 -60 -51s25 -50 60 -50zM446 228c37 0 60 21 60 50c0 31 -25 50 -60 50c-37 0 -60 -21 -60 -50c0 -31 25 -50 60 -50z" />
    <glyph glyph-name="uni2788" unicode="&#x2788;" horiz-adv-x="895" 
d="M448 -9c-109 0 -201 37 -276 110c-75 74 -112 166 -112 275c0 107 37 198 112 272c75 75 167 112 276 112c108 0 199 -37 274 -112c75 -74 113 -165 113 -272c0 -109 -38 -201 -113 -275c-75 -73 -166 -110 -274 -110zM448 39c95 0 175 32 240 97s97 145 97 240
c0 94 -32 173 -97 238s-145 98 -240 98c-96 0 -177 -33 -242 -98s-97 -144 -97 -238c0 -95 32 -175 97 -240s146 -97 242 -97zM449 148c-79 0 -136 45 -145 114h93c7 -24 25 -36 55 -36c48 0 69 35 69 108h-3c-17 -27 -47 -41 -90 -41c-77 0 -131 58 -131 141
c0 88 63 149 155 149c104 0 163 -78 163 -214c0 -139 -59 -221 -166 -221zM452 368c36 0 59 29 59 69c0 39 -23 67 -59 67c-39 0 -62 -28 -62 -69c0 -40 23 -67 62 -67z" />
    <glyph glyph-name="uniECE0" unicode="&#xece0;" horiz-adv-x="1023" 
d="M154 309v-247l-104 -78v745h374l-86 -110h-184v-203h129c13 93 54 170 122 230c68 61 148 91 240 91c120 0 237 -63 304 -168l-87 -65c-47 77 -135 125 -219 125c-72 0 -132 -26 -181 -79s-73 -114 -73 -185s24 -133 73 -186s109 -80 181 -80c84 0 169 44 217 125l89 -65
c-69 -108 -184 -169 -304 -169c-91 0 -171 30 -240 90c-68 61 -109 137 -122 229h-129zM535 365c0 -31 10 -59 30 -82c21 -23 46 -34 77 -34c40 0 80 26 101 67l86 -66c-40 -69 -109 -107 -185 -107c-59 0 -110 22 -153 65c-43 44 -64 96 -64 157c0 59 21 111 64 154
c43 44 94 66 153 66c75 0 145 -40 185 -108l-86 -66c-20 40 -60 66 -101 66c-60 0 -107 -51 -107 -112z" />
    <glyph glyph-name="uniEFCC" unicode="&#xefcc;" horiz-adv-x="1176" 
d="M100 361c0 111 33 200 100 269s155 104 262 104c16 0 29 -1 38 -2v-120c-16 2 -28 3 -37 3c-73 0 -133 -24 -178 -71s-67 -108 -67 -183s22 -136 67 -183s105 -70 178 -70c18 0 30 1 37 3v-121c-12 -1 -25 -2 -38 -2c-108 0 -195 34 -262 103s-100 159 -100 270zM725 366
c0 111 32 200 96 267c65 67 151 101 260 101c17 0 32 -1 44 -2v-120c-17 2 -30 3 -40 3c-116 0 -207 -64 -236 -192h200v-114h-200c29 -128 121 -192 236 -192c20 0 33 1 40 3v-121c-13 -1 -28 -2 -44 -2c-109 0 -195 33 -260 100c-64 67 -96 157 -96 269z" />
    <glyph glyph-name="uniF8FF" unicode="&#xf8ff;" horiz-adv-x="639" 
d="M428 632c-24 -31 -67 -51 -91 -56l-18 -3l-1 10c-2 20 -2 62 31 104c31 41 76 64 99 65l18 2c-1 -3 0 -10 1 -19c3 -19 -11 -68 -39 -103zM210 0c-29 0 -59 18 -89 53c-29 36 -54 81 -73 134c-19 54 -28 106 -28 156c0 69 18 125 53 166c36 41 77 62 124 62
c20 0 43 -6 70 -17s45 -17 56 -17c10 0 29 6 56 18c28 12 55 18 80 18c77 0 124 -48 136 -68l5 -8c-4 -3 -9 -5 -28 -22c-24 -22 -52 -62 -52 -120c0 -88 63 -136 89 -149l10 -5c-3 -11 -7 -23 -28 -70c-10 -23 -21 -43 -33 -61c-24 -35 -64 -69 -103 -69
c-13 0 -33 5 -59 14c-25 10 -46 15 -62 15c-17 0 -39 -5 -66 -15s-47 -15 -58 -15z" />
    <glyph glyph-name="uni00A40301" horiz-adv-x="433" 
d="M526 897l-252 -140l-55 91l231 173zM375 729v-492c0 -164 -85 -246 -255 -246c-42 0 -77 3 -105 9v161c15 -3 34 -5 57 -5c76 0 101 37 101 108v465h202z" />
    <glyph glyph-name="G.ss01" horiz-adv-x="775" 
d="M396 -10c-111 0 -200 34 -267 102s-101 158 -101 269c0 112 33 203 100 272c67 70 157 105 268 105c92 0 169 -24 232 -71s100 -110 111 -187h-217c-11 52 -60 83 -127 83c-97 0 -153 -72 -153 -203c0 -133 53 -199 159 -199c75 0 128 35 133 84h-156v154h369v-78
c0 -99 -32 -179 -97 -240c-64 -61 -149 -91 -254 -91z" />
    <glyph glyph-name="Gbreve.ss01" horiz-adv-x="775" 
d="M449 945h113c0 -101 -66 -174 -175 -174c-108 0 -173 73 -173 174h113c0 -47 20 -70 60 -70c37 0 62 23 62 70zM396 -10c-111 0 -200 34 -267 102s-101 158 -101 269c0 112 33 203 100 272c67 70 157 105 268 105c92 0 169 -24 232 -71s100 -110 111 -187h-217
c-11 52 -60 83 -127 83c-97 0 -153 -72 -153 -203c0 -133 53 -199 159 -199c75 0 128 35 133 84h-156v154h369v-78c0 -99 -32 -179 -97 -240c-64 -61 -149 -91 -254 -91z" />
    <glyph glyph-name="uni0122.ss01" horiz-adv-x="775" 
d="M396 -10c-111 0 -200 34 -267 102s-101 158 -101 269c0 112 33 203 100 272c67 70 157 105 268 105c92 0 169 -24 232 -71s100 -110 111 -187h-217c-11 52 -60 83 -127 83c-97 0 -153 -72 -153 -203c0 -133 53 -199 159 -199c75 0 128 35 133 84h-156v154h369v-78
c0 -99 -32 -179 -97 -240c-64 -61 -149 -91 -254 -91zM325 -323v52c38 0 57 17 57 50v25h-67v147h146v-158c0 -77 -45 -116 -136 -116z" />
    <glyph glyph-name="Gdotaccent.ss01" horiz-adv-x="775" 
d="M459 772h-142v163h142v-163zM396 -10c-111 0 -200 34 -267 102s-101 158 -101 269c0 112 33 203 100 272c67 70 157 105 268 105c92 0 169 -24 232 -71s100 -110 111 -187h-217c-11 52 -60 83 -127 83c-97 0 -153 -72 -153 -203c0 -133 53 -199 159 -199
c75 0 128 35 133 84h-156v154h369v-78c0 -99 -32 -179 -97 -240c-64 -61 -149 -91 -254 -91z" />
    <glyph glyph-name="R.ss02" horiz-adv-x="723" 
d="M266 0h-203v729h351c85 0 152 -23 200 -69c49 -45 73 -106 73 -183c0 -92 -50 -175 -125 -204v-8c29 -12 56 -48 79 -108l64 -157h-222l-70 163c-11 24 -22 40 -35 48c-13 9 -34 13 -64 13h-48v-224zM266 549v-162h108c57 0 98 24 98 80c0 55 -33 82 -98 82h-108z" />
    <glyph glyph-name="Racute.ss02" horiz-adv-x="723" 
d="M627 897l-252 -140l-55 91l231 173zM266 0h-203v729h351c85 0 152 -23 200 -69c49 -45 73 -106 73 -183c0 -92 -50 -175 -125 -204v-8c29 -12 56 -48 79 -108l64 -157h-222l-70 163c-11 24 -22 40 -35 48c-13 9 -34 13 -64 13h-48v-224zM266 549v-162h108
c57 0 98 24 98 80c0 55 -33 82 -98 82h-108z" />
    <glyph glyph-name="Rcaron.ss02" horiz-adv-x="723" 
d="M324 780l-153 147l89 87l115 -125l115 125l89 -87l-152 -147h-103zM266 0h-203v729h351c85 0 152 -23 200 -69c49 -45 73 -106 73 -183c0 -92 -50 -175 -125 -204v-8c29 -12 56 -48 79 -108l64 -157h-222l-70 163c-11 24 -22 40 -35 48c-13 9 -34 13 -64 13h-48v-224z
M266 549v-162h108c57 0 98 24 98 80c0 55 -33 82 -98 82h-108z" />
    <glyph glyph-name="uni0156.ss02" horiz-adv-x="723" 
d="M266 0h-203v729h351c85 0 152 -23 200 -69c49 -45 73 -106 73 -183c0 -92 -50 -175 -125 -204v-8c29 -12 56 -48 79 -108l64 -157h-222l-70 163c-11 24 -22 40 -35 48c-13 9 -34 13 -64 13h-48v-224zM266 549v-162h108c57 0 98 24 98 80c0 55 -33 82 -98 82h-108z
M312 -323v52c38 0 57 17 57 50v25h-67v147h146v-158c0 -77 -45 -116 -136 -116z" />
    <glyph glyph-name="i.loclTRK" horiz-adv-x="285" 
d="M238 587h-191v163h191v-163zM238 0h-191v544h191v-544z" />
    <glyph glyph-name="uni006A0301" horiz-adv-x="283" 
d="M394 712l-252 -140l-55 91l231 173zM34 -186c-38 0 -67 2 -87 6v136c12 -1 20 -2 25 -2c35 0 58 4 64 18c5 8 8 6 9 21c1 7 1 11 1 12v34v505h190v-519c0 -61 -9 -104 -36 -145c-27 -43 -83 -66 -166 -66z" />
    <glyph glyph-name="germandbls.alt01" horiz-adv-x="707" 
d="M267 0h-204v472c0 83 25 148 75 195c51 47 117 71 200 71c132 0 236 -66 287 -170l-82 -136c89 -29 138 -105 138 -204c0 -71 -26 -127 -78 -168c-52 -40 -122 -60 -210 -60h-63v173h22c35 0 57 2 82 13s39 34 39 70c0 67 -58 86 -165 78l117 210c-23 19 -51 29 -84 29
c-40 0 -74 -36 -74 -81v-492z" />
    <glyph glyph-name="a.ss01" horiz-adv-x="656" 
d="M446 544h163v-544h-190v98h-10c-28 -72 -86 -108 -174 -108c-132 0 -215 103 -215 282c0 175 81 282 214 282c77 0 146 -42 175 -110h10zM419 263v17c0 72 -41 121 -106 121c-64 0 -100 -47 -100 -126s31 -132 103 -132c65 0 103 48 103 120z" />
    <glyph glyph-name="aacute.ss01" horiz-adv-x="656" 
d="M547 712l-252 -140l-55 91l231 173zM446 544h163v-544h-190v98h-10c-28 -72 -86 -108 -174 -108c-132 0 -215 103 -215 282c0 175 81 282 214 282c77 0 146 -42 175 -110h10zM419 263v17c0 72 -41 121 -106 121c-64 0 -100 -47 -100 -126s31 -132 103 -132
c65 0 103 48 103 120z" />
    <glyph glyph-name="abreve.ss01" horiz-adv-x="656" 
d="M356 760h113c0 -101 -66 -174 -175 -174c-108 0 -173 73 -173 174h113c0 -47 20 -70 60 -70c37 0 62 23 62 70zM446 544h163v-544h-190v98h-10c-28 -72 -86 -108 -174 -108c-132 0 -215 103 -215 282c0 175 81 282 214 282c77 0 146 -42 175 -110h10zM419 263v17
c0 72 -41 121 -106 121c-64 0 -100 -47 -100 -126s31 -132 103 -132c65 0 103 48 103 120z" />
    <glyph glyph-name="acircumflex.ss01" horiz-adv-x="656" 
d="M180 576l-89 88l152 145h104l152 -145l-89 -88l-115 124zM446 544h163v-544h-190v98h-10c-28 -72 -86 -108 -174 -108c-132 0 -215 103 -215 282c0 175 81 282 214 282c77 0 146 -42 175 -110h10zM419 263v17c0 72 -41 121 -106 121c-64 0 -100 -47 -100 -126
s31 -132 103 -132c65 0 103 48 103 120z" />
    <glyph glyph-name="adieresis.ss01" horiz-adv-x="656" 
d="M255 587h-142v163h142v-163zM476 587h-142v163h142v-163zM446 544h163v-544h-190v98h-10c-28 -72 -86 -108 -174 -108c-132 0 -215 103 -215 282c0 175 81 282 214 282c77 0 146 -42 175 -110h10zM419 263v17c0 72 -41 121 -106 121c-64 0 -100 -47 -100 -126
s31 -132 103 -132c65 0 103 48 103 120z" />
    <glyph glyph-name="agrave.ss01" horiz-adv-x="656" 
d="M350 668l-55 -91l-252 140l76 124zM446 544h163v-544h-190v98h-10c-28 -72 -86 -108 -174 -108c-132 0 -215 103 -215 282c0 175 81 282 214 282c77 0 146 -42 175 -110h10zM419 263v17c0 72 -41 121 -106 121c-64 0 -100 -47 -100 -126s31 -132 103 -132
c65 0 103 48 103 120z" />
    <glyph glyph-name="amacron.ss01" horiz-adv-x="656" 
d="M488 590h-387v143h387v-143zM446 544h163v-544h-190v98h-10c-28 -72 -86 -108 -174 -108c-132 0 -215 103 -215 282c0 175 81 282 214 282c77 0 146 -42 175 -110h10zM419 263v17c0 72 -41 121 -106 121c-64 0 -100 -47 -100 -126s31 -132 103 -132c65 0 103 48 103 120z
" />
    <glyph glyph-name="aogonek.ss01" horiz-adv-x="656" 
d="M561 -114c18 0 37 4 57 11v-95c-24 -12 -54 -18 -90 -18c-84 -1 -141 48 -141 120c0 39 13 71 40 96h-8v98h-10c-28 -72 -86 -108 -174 -108c-132 0 -215 103 -215 282c0 175 81 282 214 282c77 0 146 -42 175 -110h10l27 100h163v-544h-16c-65 -7 -97 -30 -97 -70
c0 -29 22 -44 65 -44zM419 263v17c0 72 -41 121 -106 121c-64 0 -100 -47 -100 -126s31 -132 103 -132c65 0 103 48 103 120z" />
    <glyph glyph-name="aring.ss01" horiz-adv-x="656" 
d="M419 444l27 100h163v-544h-190v98h-10c-28 -72 -86 -108 -174 -108c-132 0 -215 103 -215 282c0 135 48 230 132 266c-20 24 -30 53 -30 87c0 79 57 131 138 131s138 -52 138 -131c0 -45 -17 -80 -51 -105c27 -19 48 -45 62 -76h10zM221 625c-6 -55 84 -55 79 0
c5 56 -85 57 -79 0zM419 263v17c0 72 -41 121 -106 121c-64 0 -100 -47 -100 -126s31 -132 103 -132c65 0 103 48 103 120z" />
    <glyph glyph-name="atilde.ss01" horiz-adv-x="656" 
d="M358 585c-19 1 -40 7 -64 20s-44 20 -59 20c-20 0 -42 -13 -65 -39l-74 50c32 85 86 118 138 117c20 -1 42 -7 65 -20c24 -12 44 -18 60 -18c35 1 49 21 58 35l3 5l76 -47c-28 -84 -82 -124 -138 -123zM446 544h163v-544h-190v98h-10c-28 -72 -86 -108 -174 -108
c-132 0 -215 103 -215 282c0 175 81 282 214 282c77 0 146 -42 175 -110h10zM419 263v17c0 72 -41 121 -106 121c-64 0 -100 -47 -100 -126s31 -132 103 -132c65 0 103 48 103 120z" />
    <glyph glyph-name="g.ss01" horiz-adv-x="646" 
d="M36 0h189c9 -29 37 -44 83 -44c63 0 101 29 101 76v93h-10c-28 -57 -85 -94 -160 -94c-66 0 -119 24 -159 71c-40 48 -60 112 -60 191c0 78 20 141 59 189c40 48 94 72 161 72c85 0 143 -37 174 -111h10l12 101h163v-487c0 -74 -26 -131 -79 -172s-123 -62 -212 -62
c-79 0 -144 16 -193 48s-75 75 -79 129zM312 177c59 0 97 47 97 98v22c0 56 -39 98 -96 98c-63 0 -100 -48 -100 -109c0 -63 38 -109 99 -109z" />
    <glyph glyph-name="gbreve.ss01" horiz-adv-x="646" 
d="M320 760h113c0 -101 -66 -174 -175 -174c-108 0 -173 73 -173 174h113c0 -47 20 -70 60 -70c37 0 62 23 62 70zM36 0h189c9 -29 37 -44 83 -44c63 0 101 29 101 76v93h-10c-28 -57 -85 -94 -160 -94c-66 0 -119 24 -159 71c-40 48 -60 112 -60 191c0 78 20 141 59 189
c40 48 94 72 161 72c85 0 143 -37 174 -111h10l12 101h163v-487c0 -74 -26 -131 -79 -172s-123 -62 -212 -62c-79 0 -144 16 -193 48s-75 75 -79 129zM312 177c59 0 97 47 97 98v22c0 56 -39 98 -96 98c-63 0 -100 -48 -100 -109c0 -63 38 -109 99 -109z" />
    <glyph glyph-name="uni0123.ss01" horiz-adv-x="646" 
d="M322 880v-52c-38 0 -57 -17 -57 -50v-35h67v-147h-146v168c0 77 45 116 136 116zM36 0h189c9 -29 37 -44 83 -44c63 0 101 29 101 76v93h-10c-28 -57 -85 -94 -160 -94c-66 0 -119 24 -159 71c-40 48 -60 112 -60 191c0 78 20 141 59 189c40 48 94 72 161 72
c85 0 143 -37 174 -111h10l12 101h163v-487c0 -74 -26 -131 -79 -172s-123 -62 -212 -62c-79 0 -144 16 -193 48s-75 75 -79 129zM312 177c59 0 97 47 97 98v22c0 56 -39 98 -96 98c-63 0 -100 -48 -100 -109c0 -63 38 -109 99 -109z" />
    <glyph glyph-name="gdotaccent.ss01" horiz-adv-x="646" 
d="M330 587h-142v163h142v-163zM36 0h189c9 -29 37 -44 83 -44c63 0 101 29 101 76v93h-10c-28 -57 -85 -94 -160 -94c-66 0 -119 24 -159 71c-40 48 -60 112 -60 191c0 78 20 141 59 189c40 48 94 72 161 72c85 0 143 -37 174 -111h10l12 101h163v-487
c0 -74 -26 -131 -79 -172s-123 -62 -212 -62c-79 0 -144 16 -193 48s-75 75 -79 129zM312 177c59 0 97 47 97 98v22c0 56 -39 98 -96 98c-63 0 -100 -48 -100 -109c0 -63 38 -109 99 -109z" />
    <glyph glyph-name="a.ss02" horiz-adv-x="568" 
d="M14 153c0 111 76 175 196 175h133v29c0 37 -22 55 -66 55c-40 0 -67 -21 -67 -50h-185c12 123 113 192 265 192c164 0 245 -81 245 -216v-338h-165l-20 88h-10c-23 -65 -85 -98 -160 -98c-100 0 -166 64 -166 163zM206 175c0 -27 21 -44 57 -44c52 0 81 29 81 76v9h-83
c-37 0 -55 -14 -55 -41z" />
    <glyph glyph-name="aacute.ss02" horiz-adv-x="568" 
d="M538 712l-252 -140l-55 91l231 173zM14 153c0 111 76 175 196 175h133v29c0 37 -22 55 -66 55c-40 0 -67 -21 -67 -50h-185c12 123 113 192 265 192c164 0 245 -81 245 -216v-338h-165l-20 88h-10c-23 -65 -85 -98 -160 -98c-100 0 -166 64 -166 163zM206 175
c0 -27 21 -44 57 -44c52 0 81 29 81 76v9h-83c-37 0 -55 -14 -55 -41z" />
    <glyph glyph-name="abreve.ss02" horiz-adv-x="568" 
d="M347 760h113c0 -101 -66 -174 -175 -174c-108 0 -173 73 -173 174h113c0 -47 20 -70 60 -70c37 0 62 23 62 70zM14 153c0 111 76 175 196 175h133v29c0 37 -22 55 -66 55c-40 0 -67 -21 -67 -50h-185c12 123 113 192 265 192c164 0 245 -81 245 -216v-338h-165l-20 88
h-10c-23 -65 -85 -98 -160 -98c-100 0 -166 64 -166 163zM206 175c0 -27 21 -44 57 -44c52 0 81 29 81 76v9h-83c-37 0 -55 -14 -55 -41z" />
    <glyph glyph-name="acircumflex.ss02" horiz-adv-x="568" 
d="M171 576l-89 88l152 145h104l152 -145l-89 -88l-115 124zM14 153c0 111 76 175 196 175h133v29c0 37 -22 55 -66 55c-40 0 -67 -21 -67 -50h-185c12 123 113 192 265 192c164 0 245 -81 245 -216v-338h-165l-20 88h-10c-23 -65 -85 -98 -160 -98c-100 0 -166 64 -166 163
zM206 175c0 -27 21 -44 57 -44c52 0 81 29 81 76v9h-83c-37 0 -55 -14 -55 -41z" />
    <glyph glyph-name="adieresis.ss02" horiz-adv-x="568" 
d="M246 587h-142v163h142v-163zM467 587h-142v163h142v-163zM14 153c0 111 76 175 196 175h133v29c0 37 -22 55 -66 55c-40 0 -67 -21 -67 -50h-185c12 123 113 192 265 192c164 0 245 -81 245 -216v-338h-165l-20 88h-10c-23 -65 -85 -98 -160 -98c-100 0 -166 64 -166 163
zM206 175c0 -27 21 -44 57 -44c52 0 81 29 81 76v9h-83c-37 0 -55 -14 -55 -41z" />
    <glyph glyph-name="agrave.ss02" horiz-adv-x="568" 
d="M341 668l-55 -91l-252 140l76 124zM14 153c0 111 76 175 196 175h133v29c0 37 -22 55 -66 55c-40 0 -67 -21 -67 -50h-185c12 123 113 192 265 192c164 0 245 -81 245 -216v-338h-165l-20 88h-10c-23 -65 -85 -98 -160 -98c-100 0 -166 64 -166 163zM206 175
c0 -27 21 -44 57 -44c52 0 81 29 81 76v9h-83c-37 0 -55 -14 -55 -41z" />
    <glyph glyph-name="amacron.ss02" horiz-adv-x="568" 
d="M479 590h-387v143h387v-143zM14 153c0 111 76 175 196 175h133v29c0 37 -22 55 -66 55c-40 0 -67 -21 -67 -50h-185c12 123 113 192 265 192c164 0 245 -81 245 -216v-338h-165l-20 88h-10c-23 -65 -85 -98 -160 -98c-100 0 -166 64 -166 163zM206 175
c0 -27 21 -44 57 -44c52 0 81 29 81 76v9h-83c-37 0 -55 -14 -55 -41z" />
    <glyph glyph-name="aogonek.ss02" horiz-adv-x="568" 
d="M503 -114c18 0 37 4 57 11v-95c-24 -12 -54 -18 -90 -18c-84 -1 -141 48 -141 120c0 39 14 72 41 97l-20 87h-10c-23 -65 -85 -98 -160 -98c-100 0 -166 64 -166 163c0 111 76 175 196 175h133v29c0 37 -22 55 -66 55c-40 0 -67 -21 -67 -50h-185c12 123 113 192 265 192
c164 0 245 -81 245 -216v-338c-65 -7 -97 -30 -97 -70c0 -29 22 -44 65 -44zM344 207v9h-83c-37 0 -55 -14 -55 -41s21 -44 57 -44c52 0 81 29 81 76z" />
    <glyph glyph-name="aring.ss02" horiz-adv-x="568" 
d="M388 542c98 -27 147 -95 147 -204v-338h-165l-20 88h-10c-23 -65 -85 -98 -160 -98c-100 0 -166 64 -166 163c0 111 76 175 196 175h133v29c0 37 -22 55 -66 55c-40 0 -67 -21 -67 -50h-185c9 92 67 154 160 179c-25 25 -37 56 -37 94c0 79 57 131 138 131
s138 -52 138 -131c0 -38 -12 -69 -36 -93zM247 635c-6 -55 84 -55 79 0c5 56 -85 57 -79 0zM344 207v9h-83c-37 0 -55 -14 -55 -41s21 -44 57 -44c52 0 81 29 81 76z" />
    <glyph glyph-name="atilde.ss02" horiz-adv-x="568" 
d="M349 585c-19 1 -40 7 -64 20s-44 20 -59 20c-20 0 -42 -13 -65 -39l-74 50c32 85 86 118 138 117c20 -1 42 -7 65 -20c24 -12 44 -18 60 -18c35 1 49 21 58 35l3 5l76 -47c-28 -84 -82 -124 -138 -123zM14 153c0 111 76 175 196 175h133v29c0 37 -22 55 -66 55
c-40 0 -67 -21 -67 -50h-185c12 123 113 192 265 192c164 0 245 -81 245 -216v-338h-165l-20 88h-10c-23 -65 -85 -98 -160 -98c-100 0 -166 64 -166 163zM206 175c0 -27 21 -44 57 -44c52 0 81 29 81 76v9h-83c-37 0 -55 -14 -55 -41z" />
    <glyph glyph-name="h_t_t_p" horiz-adv-x="1994" 
d="M90 770h1814v-957h-676v512h-129v-173h84v-128h-112c-91 0 -138 34 -138 138v163h-160v-173h85v-128h-113c-89 0 -137 34 -137 138v163h-79v130h79v139h165v-139h160v139h166v-139h272l22 -87h9c25 63 83 96 150 96c57 0 103 -21 136 -62s50 -96 50 -163
s-17 -121 -51 -162s-79 -61 -135 -61c-76 0 -129 35 -150 92h-9v-202h407v770h-1606v-305h9c27 62 78 93 153 93c108 0 159 -76 159 -200v-240h-165v224c0 53 -28 84 -73 84c-53 0 -83 -38 -83 -97v-329h989v-93h-1093v957zM1393 248v-15c0 -45 35 -85 88 -85
c57 0 91 41 91 93c0 53 -37 92 -89 92s-90 -40 -90 -85z" />
    <glyph glyph-name="w_w_w" horiz-adv-x="2010" 
d="M347 0h-201l-143 544h183l37 -190l30 -180h6l53 370h173l49 -373h5l71 373h183l66 -370h6l54 370h173l49 -373h5l71 373h183l66 -370h6l54 370h173l49 -373h5l29 181l42 192h183l-148 -544h-201l-44 300h-6l-47 -300h-201l-53 259l-55 -259h-201l-44 300h-6l-47 -300
h-201l-53 255l-54 -255h-201l-45 300h-6z" />
    <glyph glyph-name="g_g.ss01" horiz-adv-x="1292" 
d="M36 0h189c9 -29 37 -44 83 -44c63 0 101 29 101 76v93h-10c-28 -57 -85 -94 -160 -94c-66 0 -119 24 -159 71c-40 48 -60 112 -60 191c0 78 20 141 59 189c40 48 94 72 161 72c85 0 143 -37 174 -111h10l12 101h163v-487c0 -74 -26 -131 -79 -172s-123 -62 -212 -62
c-79 0 -144 16 -193 48s-75 75 -79 129zM682 0h189c9 -29 37 -44 83 -44c63 0 101 29 101 76v93h-10c-28 -57 -85 -94 -160 -94c-66 0 -119 24 -159 71c-40 48 -60 112 -60 191c0 78 20 141 59 189c40 48 94 72 161 72c85 0 143 -37 174 -111h10l12 101h163v-487
c0 -74 -26 -131 -79 -172s-123 -62 -212 -62c-79 0 -144 16 -193 48s-75 75 -79 129zM312 177c59 0 97 47 97 98v22c0 56 -39 98 -96 98c-63 0 -100 -48 -100 -109c0 -63 38 -109 99 -109zM958 177c59 0 97 47 97 98v22c0 56 -39 98 -96 98c-63 0 -100 -48 -100 -109
c0 -63 38 -109 99 -109z" />
    <glyph glyph-name="zero.ss01" horiz-adv-x="638" 
d="M317 -6c-90 0 -160 33 -210 100s-75 157 -75 270c0 115 26 205 78 269c53 65 123 97 211 97c89 0 159 -33 208 -100c50 -67 75 -156 75 -268c0 -116 -26 -206 -78 -271s-122 -97 -209 -97zM317 160c37 0 62 18 73 57c12 39 15 75 15 138c0 184 -40 211 -85 211
c-31 0 -53 -16 -66 -37c-19 -38 -24 -90 -23 -158c0 -180 40 -211 86 -211zM376 310h-115v104h115v-104z" />
    <glyph glyph-name="zero.tf" horiz-adv-x="620" 
d="M312 730c89 0 159 -33 208 -100c50 -67 75 -156 75 -268c0 -116 -26 -206 -78 -271s-122 -97 -209 -97c-90 0 -160 33 -210 100s-75 157 -75 270c0 115 26 205 78 269c53 65 123 97 211 97zM311 566c-67 0 -86 -58 -89 -169l163 90c-13 61 -38 79 -74 79zM308 160
c67 0 85 57 88 168l-162 -90c12 -52 37 -78 74 -78z" />
    <glyph glyph-name="one.tf" horiz-adv-x="620" 
d="M419 721v-555h173v-166h-564v166h196v277h-189v148h32c103 0 161 50 169 130h183z" />
    <glyph glyph-name="two.tf" horiz-adv-x="620" 
d="M413 167h160v-167h-538v24c0 71 17 130 40 170c11 21 28 42 50 64c23 22 43 40 62 54l78 55c25 17 44 30 55 39c23 19 50 55 50 92c0 44 -28 69 -72 69c-48 0 -75 -32 -70 -93h-190c-2 78 22 140 71 186c50 47 117 70 200 70c78 0 141 -21 188 -64c47 -42 71 -99 71 -171
c0 -101 -52 -170 -148 -237l-44 -29c-43 -28 -70 -48 -94 -69c41 5 85 7 131 7z" />
    <glyph glyph-name="three.tf" horiz-adv-x="620" 
d="M308 -10c-171 0 -274 91 -279 235h189c1 -44 38 -73 91 -73s87 30 87 77c0 41 -29 66 -72 66h-99v141h82c51 0 79 26 79 67s-29 65 -77 65c-49 0 -81 -26 -84 -69h-192c3 71 30 127 81 168c51 42 119 63 204 63c79 0 142 -18 190 -54c49 -36 73 -84 73 -145
c0 -72 -38 -132 -95 -155v-7c67 -20 105 -80 105 -159c0 -66 -26 -119 -79 -160c-52 -40 -120 -60 -204 -60z" />
    <glyph glyph-name="four.tf" horiz-adv-x="620" 
d="M522 721v-434h75v-155h-75v-132h-191v132h-318v141l250 448h259zM331 510l-125 -223h125v223z" />
    <glyph glyph-name="five.tf" horiz-adv-x="620" 
d="M349 490c74 0 133 -23 176 -68s65 -104 65 -176c0 -77 -25 -139 -75 -186s-119 -70 -206 -70c-85 0 -152 22 -203 66c-50 44 -75 102 -75 173h193c1 -44 34 -73 86 -73c53 0 88 36 88 85c0 52 -35 91 -91 91c-43 0 -70 -18 -81 -55h-182l21 444h468v-166h-300l-4 -88
l8 -3c26 17 63 26 112 26z" />
    <glyph glyph-name="six.tf" horiz-adv-x="620" 
d="M320 -9c-187 0 -291 127 -291 367c0 249 114 372 299 372c144 0 235 -75 255 -194h-189c-10 24 -34 36 -71 36c-65 0 -105 -52 -100 -135h8c27 37 73 56 137 56c69 0 124 -22 166 -67c43 -44 64 -102 64 -175c0 -78 -25 -141 -76 -189c-51 -47 -118 -71 -202 -71z
M323 156c53 0 86 36 86 91s-34 93 -86 93c-51 0 -84 -37 -84 -94c0 -56 32 -90 84 -90z" />
    <glyph glyph-name="seven.tf" horiz-adv-x="620" 
d="M178 445h-151v276h565v-139c-70 -92 -130 -192 -180 -299s-81 -201 -94 -283h-205c10 82 38 174 84 275c47 102 103 195 169 280h-188v-110z" />
    <glyph glyph-name="eight.tf" horiz-adv-x="620" 
d="M31 194c0 79 33 133 100 163v8c-67 31 -100 85 -100 162c0 61 26 110 77 147s119 56 204 56c83 0 150 -19 201 -56s77 -85 77 -146c0 -77 -33 -132 -100 -163v-8c64 -29 100 -88 100 -164c0 -61 -26 -110 -77 -147s-119 -56 -203 -56c-83 0 -151 19 -202 56
s-77 87 -77 148zM310 438c53 0 84 24 84 63c0 41 -33 66 -84 66c-52 0 -83 -26 -83 -66s32 -63 83 -63zM227 219c0 -41 32 -65 83 -65c53 0 84 25 84 65c0 41 -33 65 -84 65c-52 0 -83 -25 -83 -65z" />
    <glyph glyph-name="nine.tf" horiz-adv-x="620" 
d="M296 -9c-139 0 -233 77 -252 194h189c10 -24 35 -36 74 -36c67 0 102 52 97 135h-8c-27 -37 -71 -56 -134 -56c-71 0 -127 22 -170 66c-42 45 -63 103 -63 176c0 78 25 141 75 188c51 48 117 72 200 72c189 0 294 -135 294 -376c0 -233 -98 -363 -302 -363zM304 381
c51 0 84 37 84 94c0 56 -32 90 -84 90c-53 0 -86 -36 -86 -91s34 -93 86 -93z" />
    <glyph glyph-name="zero.tf.ss01" horiz-adv-x="620" 
d="M312 730c89 0 159 -33 208 -100c50 -67 75 -156 75 -268c0 -116 -26 -206 -78 -271s-122 -97 -209 -97c-90 0 -160 33 -210 100s-75 157 -75 270c0 115 26 205 78 269c53 65 123 97 211 97zM311 566c-51 0 -80 -41 -87 -123h168c-11 96 -38 123 -81 123zM308 160
c56 0 79 42 86 122h-168c11 -93 39 -122 82 -122z" />
    <glyph glyph-name="zero.dnom" horiz-adv-x="416" 
d="M207 -4c-123 0 -184 95 -184 246c0 160 70 244 185 244c124 0 185 -97 185 -245c0 -160 -71 -245 -186 -245zM206 96c52 0 66 49 66 141c0 115 -23 150 -63 150c-52 0 -66 -49 -66 -141c0 -113 23 -150 63 -150z" />
    <glyph glyph-name="one.dnom" horiz-adv-x="317" 
d="M146 301h-125v93h45c57 0 87 31 87 83v3h109v-480h-116v301z" />
    <glyph glyph-name="two.dnom" horiz-adv-x="382" 
d="M170 97l51 3h124v-100h-320v16c0 72 33 133 74 169c60 54 135 96 135 152c0 32 -20 51 -51 51c-35 0 -54 -26 -51 -66l-116 6c3 95 72 158 175 158c101 0 160 -59 160 -150c0 -59 -35 -112 -71 -141l-61 -50c-23 -19 -39 -35 -49 -48z" />
    <glyph glyph-name="three.dnom" horiz-adv-x="372" 
d="M182 -7c-101 0 -168 60 -167 151h115c1 -28 22 -50 50 -50c29 0 50 21 50 50c0 28 -21 48 -53 48h-45v104h30c36 0 57 20 57 48c0 27 -17 42 -44 42c-31 0 -49 -21 -48 -50h-116c-1 91 61 150 168 150c99 0 158 -53 158 -130c0 -47 -21 -81 -63 -101v-5
c49 -20 74 -58 74 -114c0 -85 -69 -143 -166 -143z" />
    <glyph glyph-name="four.dnom" horiz-adv-x="364" 
d="M329 480v-298h45v-101h-45v-81h-114v81h-206v93l149 306h171zM215 346l-78 -164h78v164z" />
    <glyph glyph-name="five.dnom" horiz-adv-x="399" 
d="M23 151h117c0 -35 25 -57 60 -57c33 0 59 27 59 66s-27 67 -62 67c-29 0 -48 -12 -55 -37h-110v290h311v-100h-197v-39l-3 -34l4 -3c17 15 42 22 75 22c92 0 153 -68 153 -164c0 -101 -70 -169 -177 -169c-104 0 -174 63 -175 158z" />
    <glyph glyph-name="six.dnom" horiz-adv-x="406" 
d="M20 238c0 157 70 248 190 248c91 0 158 -53 167 -133h-116c-7 23 -25 34 -55 34c-46 0 -69 -34 -69 -103h5c19 27 51 41 96 41c87 0 146 -64 146 -160c0 -101 -72 -171 -177 -171c-117 0 -187 85 -187 244zM210 94c37 0 61 27 61 70c0 20 -6 36 -17 48
c-21 25 -66 26 -89 -1c-11 -13 -16 -29 -16 -50c0 -41 25 -67 61 -67z" />
    <glyph glyph-name="seven.dnom" horiz-adv-x="344" 
d="M5 480h337v-83c-91 -104 -155 -252 -178 -397h-114c5 63 21 129 48 197s63 129 106 183h-111v-75h-88v175z" />
    <glyph glyph-name="eight.dnom" horiz-adv-x="385" 
d="M16 130c0 52 23 88 68 107v6c-43 17 -68 59 -68 108c0 87 71 135 179 135c109 0 174 -54 174 -135c0 -53 -22 -89 -66 -108v-6c44 -19 66 -55 66 -108c0 -85 -69 -136 -177 -136c-111 0 -176 54 -176 137zM135 337c0 -31 23 -49 58 -49c36 0 58 21 58 49
c0 29 -23 49 -58 49c-36 0 -58 -20 -58 -49zM135 142c0 -29 22 -50 58 -50c35 0 58 21 58 50c0 31 -23 51 -58 51s-58 -20 -58 -51z" />
    <glyph glyph-name="nine.dnom" horiz-adv-x="406" 
d="M386 242c0 -157 -70 -248 -190 -248c-92 0 -155 53 -166 133h115c8 -22 27 -33 56 -33c47 0 68 30 68 102h-5c-16 -25 -54 -41 -94 -41c-89 0 -148 65 -148 160c0 50 16 91 49 123s76 48 129 48c117 0 186 -85 186 -244zM198 387c-37 0 -62 -29 -62 -70
c0 -40 23 -68 62 -68c37 0 58 27 58 70s-22 68 -58 68z" />
    <glyph glyph-name="zero.numr" horiz-adv-x="416" 
d="M207 251c-123 0 -184 95 -184 243c0 159 70 241 185 241c124 0 185 -95 185 -242c0 -159 -71 -242 -186 -242zM206 350c52 0 66 50 66 139c0 112 -23 147 -63 147c-52 0 -66 -47 -66 -138c0 -111 23 -148 63 -148z" />
    <glyph glyph-name="one.numr" horiz-adv-x="317" 
d="M146 552h-125v92h45c57 0 87 30 87 82v3h109v-473h-116v296z" />
    <glyph glyph-name="two.numr" horiz-adv-x="382" 
d="M170 351l51 3h124v-99h-320v17c0 71 33 130 74 166c60 54 135 94 135 150c0 31 -20 49 -51 49c-35 0 -52 -24 -51 -65l-116 6c3 95 71 157 175 157c101 0 160 -59 160 -148c0 -57 -35 -110 -71 -139l-61 -49c-23 -19 -39 -35 -49 -48z" />
    <glyph glyph-name="three.numr" horiz-adv-x="372" 
d="M182 248c-100 0 -168 60 -167 149h115c1 -27 22 -49 50 -49c65 -4 67 102 -3 96h-45v103h30c37 0 57 20 57 48c0 27 -15 40 -44 40s-49 -20 -48 -49h-116c-1 89 61 149 168 149c97 0 158 -52 158 -128c0 -47 -21 -81 -63 -100v-5c49 -20 74 -58 74 -113
c0 -84 -69 -141 -166 -141z" />
    <glyph glyph-name="four.numr" horiz-adv-x="364" 
d="M329 729v-295h45v-99h-45v-79h-114v79h-206v92l149 302h171zM215 596l-78 -162h78v162z" />
    <glyph glyph-name="five.numr" horiz-adv-x="399" 
d="M23 404h117c0 -33 27 -57 60 -57s59 29 59 66c0 39 -27 67 -62 67c-29 0 -47 -13 -55 -38h-110v287h311v-100h-197v-38l-3 -33l4 -3c16 15 41 22 75 22c92 0 153 -68 153 -161c0 -100 -70 -168 -177 -168c-104 0 -174 63 -175 156z" />
    <glyph glyph-name="six.numr" horiz-adv-x="406" 
d="M20 490c0 156 70 245 190 245c91 0 158 -51 167 -131h-116c-7 21 -25 32 -55 32c-48 0 -69 -29 -69 -100h5c17 24 56 41 96 41c87 0 146 -64 146 -159c0 -49 -16 -90 -49 -122c-33 -31 -75 -47 -128 -47c-117 0 -187 84 -187 241zM210 347c37 0 61 27 61 70
c0 20 -6 36 -17 48c-21 25 -66 26 -89 -1c-11 -13 -16 -29 -16 -50c0 -41 25 -67 61 -67z" />
    <glyph glyph-name="seven.numr" horiz-adv-x="344" 
d="M5 729h337v-83c-45 -51 -84 -111 -115 -181c-31 -69 -52 -139 -63 -209h-114c7 61 23 126 50 193c27 68 61 128 102 180h-109v-73h-88v173z" />
    <glyph glyph-name="eight.numr" horiz-adv-x="385" 
d="M16 383c0 51 23 86 68 106v6c-45 21 -68 57 -68 106c0 84 70 134 179 134s174 -53 174 -134c0 -50 -22 -85 -66 -106v-6c44 -20 66 -56 66 -107c0 -84 -70 -134 -177 -134c-108 0 -176 54 -176 135zM135 587c0 -29 23 -48 58 -48s58 20 58 48c0 31 -25 48 -58 48
c-36 0 -58 -20 -58 -48zM135 395c0 -28 23 -49 58 -49c36 0 58 22 58 49c0 31 -23 50 -58 50c-36 0 -58 -21 -58 -50z" />
    <glyph glyph-name="nine.numr" horiz-adv-x="406" 
d="M196 249c-91 0 -157 52 -166 132h115c7 -23 26 -34 56 -34c47 0 68 30 68 101h-5c-18 -27 -49 -40 -94 -40c-88 0 -148 65 -148 158c0 50 16 91 49 122s76 47 129 47c117 0 186 -85 186 -241s-70 -245 -190 -245zM198 636c-37 0 -62 -28 -62 -68s23 -68 62 -68
c37 0 58 29 58 70s-22 66 -58 66z" />
    <glyph glyph-name="question.ss01" horiz-adv-x="548" 
d="M211 508h-192c0 145 101 230 261 230c152 0 242 -75 242 -194c4 -33 -12 -72 -23 -94c-3 -7 -9 -16 -18 -29l-18 -25l-24 -29l-23 -27c-38 -47 -57 -78 -57 -95v-7h-181v9c0 53 25 107 75 162c8 9 33 34 42 45c19 21 35 47 35 71c0 31 -23 50 -58 50
c-41 0 -65 -27 -61 -67zM361 0h-180v171h180v-171z" />
    <glyph glyph-name="questiondown.ss01" horiz-adv-x="548" 
d="M180 615h180v-171h-180v171zM330 107h192c0 -145 -101 -230 -261 -230c-152 0 -242 75 -242 194c-4 33 12 72 23 94c3 7 9 16 18 29s15 21 18 24c3 4 10 14 23 29c13 16 21 25 24 28c38 47 57 78 57 95v7h181v-9c0 -53 -25 -107 -75 -162l-43 -46
c-17 -20 -34 -46 -34 -70c0 -31 23 -50 58 -50c41 0 65 27 61 67z" />
    <glyph glyph-name="numbersign.ss03" horiz-adv-x="640" 
d="M612 544l-22 -80h-94l-41 -176h118l-20 -80h-116l-48 -208h-92l48 208h-128l-48 -208h-92l48 208h-97l22 80h93l40 176h-116l22 80h113l47 207h92l-47 -207h128l48 207h92l-48 -207h98zM235 288h128l41 176h-129z" />
    <glyph glyph-name="parenleft.case" horiz-adv-x="289" 
d="M45 366c0 77 15 150 44 218s69 123 118 165h87c-49 -45 -87 -102 -115 -172s-42 -141 -42 -212c0 -75 14 -148 43 -217s67 -124 114 -167h-87c-52 44 -92 100 -120 169s-42 141 -42 216z" />
    <glyph glyph-name="parenright.case" horiz-adv-x="289" 
d="M244 366c0 -78 -15 -151 -44 -220c-29 -68 -68 -123 -117 -165h-88c49 45 87 102 115 172s42 141 42 212c0 75 -14 146 -43 215s-67 126 -114 169h88c51 -43 91 -100 119 -169s42 -140 42 -214z" />
    <glyph glyph-name="braceleft.case" horiz-adv-x="274" 
d="M9 289v79c48 0 73 30 73 77v197c0 59 32 95 95 95h98v-74h-106v-212c0 -68 -27 -107 -80 -117v-3c53 -14 80 -54 80 -120v-221h106v-76h-98c-60 0 -95 37 -95 97v205c0 49 -24 73 -73 73z" />
    <glyph glyph-name="braceright.case" horiz-adv-x="274" 
d="M264 368v-79c-43 0 -74 -22 -74 -73v-205c0 -61 -33 -97 -93 -97h-98v76h104v221c0 64 27 104 81 120v3c-54 10 -81 49 -81 117v212h-104v74h98c61 0 93 -36 93 -95v-197c0 -45 26 -77 74 -77z" />
    <glyph glyph-name="bracketleft.case" horiz-adv-x="244" 
d="M245 -86h-201v849h201v-78h-116v-695h116v-76z" />
    <glyph glyph-name="bracketright.case" horiz-adv-x="244" 
d="M200 -86h-201v76h116v695h-116v78h201v-849z" />
    <glyph glyph-name="hyphen.case" horiz-adv-x="481" 
d="M427 320h-374v100h374v-100z" />
    <glyph glyph-name="endash.case" horiz-adv-x="657" 
d="M603 320h-550v100h550v-100z" />
    <glyph glyph-name="emdash.case" horiz-adv-x="853" 
d="M799 320h-746v100h746v-100z" />
    <glyph glyph-name="greater.case" horiz-adv-x="542" 
d="M489 298l-402 -212v178l117 52l149 48v9l-141 51l-125 61v170l402 -217v-140z" />
    <glyph glyph-name="less.case" horiz-adv-x="542" 
d="M455 264v-178l-402 212v140l402 217v-170l-125 -61l-140 -51v-9l147 -48z" />
    <glyph glyph-name="percent.tf" horiz-adv-x="583" 
d="M22 585c0 45 15 82 44 111c29 30 68 45 115 45s85 -15 114 -46c30 -31 45 -68 45 -113c0 -44 -15 -81 -45 -112c-30 -30 -68 -45 -114 -45c-45 0 -82 15 -113 45s-46 68 -46 115zM134 586c0 -35 18 -58 47 -58c28 0 49 23 49 58c0 29 -21 52 -49 52s-47 -23 -47 -52z
M565 435l-548 -214v79l548 216v-81zM237 151c0 44 15 81 45 111s68 45 114 45c47 0 86 -15 115 -46c30 -30 45 -67 45 -111c0 -45 -15 -83 -46 -114c-30 -31 -68 -46 -114 -46c-45 0 -82 15 -113 45s-46 69 -46 116zM349 152c-7 -75 100 -75 97 0c0 31 -21 53 -50 53
c-27 0 -47 -22 -47 -53z" />
    <glyph glyph-name="perthousand.tf" horiz-adv-x="638" 
d="M178 437c-45 0 -83 14 -114 42c-30 28 -45 64 -45 109s15 81 45 109c31 28 69 42 114 42s83 -14 114 -43c31 -28 47 -64 47 -108s-16 -80 -47 -109c-31 -28 -69 -42 -114 -42zM179 637c-27 0 -46 -20 -46 -49c0 -27 17 -46 45 -46c29 0 50 20 50 49c0 27 -20 46 -49 46z
M48 339l548 213v-78l-548 -215v80zM469 290c88 0 148 -60 148 -148c0 -91 -59 -152 -150 -152c-43 0 -81 17 -114 52c-29 -35 -67 -52 -113 -52c-92 0 -151 60 -151 151c0 45 14 81 41 108c27 28 63 42 108 42s83 -18 114 -54c32 35 71 53 117 53zM505 146
c0 25 -20 44 -47 44c-28 0 -48 -20 -48 -47c-5 -63 101 -64 95 3zM247 92c29 0 50 22 50 51c0 25 -20 45 -47 45c-63 6 -62 -100 -3 -96z" />
    <glyph glyph-name="uni1F310" horiz-adv-x="1015" 
d="M508 738c133 0 241 -35 325 -105c85 -69 127 -159 127 -268c0 -110 -42 -200 -127 -270s-193 -105 -325 -105c-133 0 -241 35 -326 105s-127 160 -127 270s42 200 126 269s193 104 327 104zM412 579h190c-21 79 -55 124 -94 124c-41 0 -73 -41 -96 -124zM642 579h94
c-35 55 -84 93 -145 112c21 -27 38 -64 51 -112zM424 691c-61 -19 -110 -57 -146 -112h94c13 49 31 86 52 112zM304 665c-51 -21 -93 -50 -126 -86h55c19 33 43 62 71 86zM782 579h54c-33 36 -75 65 -125 86c28 -24 52 -53 71 -86zM835 385h82c-3 57 -19 108 -49 153v-4h-64
c17 -43 28 -92 31 -149zM97 385h82c3 57 14 107 32 149h-68c-27 -44 -43 -94 -46 -149zM362 534h-107c-19 -43 -30 -92 -33 -149h125c1 55 6 105 15 149zM387 385h240c-1 55 -5 104 -14 149h-211c-9 -43 -14 -92 -15 -149zM667 385h126c-3 57 -14 106 -33 149h-108
c9 -44 14 -94 15 -149zM180 342h-83c3 -52 18 -101 47 -146h66c-18 47 -28 95 -30 146zM347 342h-124c2 -53 13 -102 32 -146h107c-9 44 -14 93 -15 146zM627 342h-240c1 -55 6 -103 15 -146h210c9 43 14 91 15 146zM652 196h108c19 44 30 93 32 146h-125
c-1 -53 -6 -102 -15 -146zM917 342h-83c-2 -51 -12 -99 -30 -146h66c29 45 44 94 47 146zM231 153h-54c33 -35 74 -64 124 -87c-27 23 -51 52 -70 87zM371 153h-93c35 -57 84 -95 145 -114c-21 27 -39 65 -52 114zM603 153h-191c21 -80 56 -127 96 -127c39 0 72 47 95 127z
M592 39c61 19 109 57 145 114h-94c-13 -49 -30 -87 -51 -114zM714 66c49 21 90 50 123 87h-54c-19 -34 -42 -63 -69 -87z" />
    <glyph glyph-name="uni1F441" horiz-adv-x="796" 
d="M34 366c0 109 34 198 103 267s156 104 261 104s192 -35 261 -104s103 -158 103 -267c0 -112 -34 -202 -103 -271c-68 -69 -155 -103 -261 -103c-105 0 -192 34 -261 103s-103 160 -103 271zM109 366c0 -89 27 -162 82 -218s124 -84 207 -84s152 28 207 84s82 129 82 218
s-27 161 -82 216s-124 83 -207 83s-152 -28 -207 -84c-55 -55 -82 -127 -82 -215zM204 367c0 57 19 103 56 139c37 37 83 55 138 55s101 -18 138 -54s56 -83 56 -140c0 -59 -19 -107 -56 -144s-83 -55 -138 -55s-102 18 -139 55s-55 85 -55 144zM243 377v-22l146 7l-94 -86
l16 -18l84 98l-7 -150h22l-8 150l84 -98l16 18l-94 86l146 -7v22l-146 -7l94 85l-16 17l-84 -96l8 150h-22l7 -150l-84 96l-16 -17l94 -85z" />
    </font>
</defs>
</svg>
