<?xml version="1.0" standalone="no"?>
<!DOCTYPE svg PUBLIC "-//W3C//DTD SVG 1.1//EN" "http://www.w3.org/Graphics/SVG/1.1/DTD/svg11.dtd" >
<svg xmlns="http://www.w3.org/2000/svg" xmlns:xlink="http://www.w3.org/1999/xlink" version="1.1">
<metadata>
Created by FontForge 20170812 at Thu Jan 28 13:14:41 2021
 By www-data
Copyright 2020 The Archivo Project Authors (https://github.com/Omnibus-Type/Archivo)
</metadata>
<defs>
<font id="ArchivoSemiCondensed-Medium" horiz-adv-x="0" >
  <font-face 
    font-family="Archivo SemiCondensed Medium"
    font-weight="500"
    font-stretch="semi-condensed"
    units-per-em="1000"
    panose-1="0 0 0 0 0 0 0 0 0 0"
    ascent="800"
    descent="-200"
    x-height="526"
    cap-height="686"
    bbox="-207 -398 1182 1089"
    underline-thickness="44"
    underline-position="-170"
    unicode-range="U+000D-FEFF"
  />
<missing-glyph horiz-adv-x="645" 
d="M73 0v700h500v-700h-500zM153 50h340l-170 255zM123 95l170 255l-170 255v-510zM523 95v510l-170 -255zM323 395l170 255h-340z" />
    <glyph glyph-name="fi" unicode="fi" horiz-adv-x="490" 
d="M81 0l0.000976562 444.002h-67v82h67v80c0 24.667 3.5 46.5 10.5 65.5s18.833 33.833 35.5 44.5s39 16 67 16c8 0 16.333 -0.5 25 -1.5s17.167 -2.33301 25.5 -4s15.166 -3.83398 20.499 -6.50098v-71h-44c-14.667 0 -25.167 -3.83301 -31.5 -11.5
s-9.5 -18.834 -9.5 -33.501v-78h85v-82h-85v-444h-99zM331.001 619.002v104h98v-104h-98zM331.001 0.00195312v526h98v-526h-98z" />
    <glyph glyph-name="fl" unicode="fl" horiz-adv-x="490" 
d="M81 0l0.000976562 444.002h-67v82h67v80c0 24.667 3.5 46.5 10.5 65.5s18.833 33.833 35.5 44.5s39 16 67 16c8 0 16.333 -0.5 25 -1.5s17.167 -2.33301 25.5 -4s15.166 -3.83398 20.499 -6.50098v-71h-44c-14.667 0 -25.167 -3.83301 -31.5 -11.5
s-9.5 -18.834 -9.5 -33.501v-78h85v-82h-85v-444h-99zM331.001 0.00195312v723h98v-723h-98z" />
    <glyph glyph-name="f_f" unicode="ff" horiz-adv-x="520" 
d="M81 0l0.00195312 444.004h-67v82h67v80c0 24.667 3.5 46.5 10.5 65.5s18.833 33.833 35.5 44.5s39 16 67 16c8 0 16.333 -0.5 25 -1.5s17.167 -2.33301 25.5 -4s15.166 -3.83398 20.499 -6.50098v-71h-44c-14.667 0 -25.167 -3.83301 -31.5 -11.5
s-9.5 -18.834 -9.5 -33.501v-78h151v80c0 24.667 3.66699 46.5 11 65.5s19.166 33.833 35.499 44.5s38.833 16 67.5 16c7.33301 0 15.333 -0.5 24 -1.5s17 -2.33301 25 -4s15 -3.83398 21 -6.50098v-71h-45c-14 0 -24.333 -3.83301 -31 -11.5s-10 -18.834 -10 -33.501v-78
h86v-82h-86v-444h-98v444h-151v-444h-99z" />
    <glyph glyph-name="f_f_i" unicode="ffi" horiz-adv-x="740" 
d="M81 0l0.00195312 444.004h-67v82h67v80c0 24.667 3.5 46.5 10.5 65.5s18.833 33.833 35.5 44.5s39 16 67 16c8 0 16.333 -0.5 25 -1.5s17.167 -2.33301 25.5 -4s15.166 -3.83398 20.499 -6.50098v-71h-44c-14.667 0 -25.167 -3.83301 -31.5 -11.5
s-9.5 -18.834 -9.5 -33.501v-78h151v80c0 24.667 3.66699 46.5 11 65.5s19.166 33.833 35.499 44.5s38.833 16 67.5 16c7.33301 0 15.333 -0.5 24 -1.5s17 -2.33301 25 -4s15 -3.83398 21 -6.50098v-71h-45c-14 0 -24.333 -3.83301 -31 -11.5s-10 -18.834 -10 -33.501v-78
h86v-82h-86v-444h-98v444h-151v-444h-99zM581.002 619.004v104h98v-104h-98zM581.002 0.00390625v526h98v-526h-98z" />
    <glyph glyph-name="f_f_l" unicode="ffl" horiz-adv-x="740" 
d="M81 0l0.00195312 444.004h-67v82h67v80c0 24.667 3.5 46.5 10.5 65.5s18.833 33.833 35.5 44.5s39 16 67 16c8 0 16.333 -0.5 25 -1.5s17.167 -2.33301 25.5 -4s15.166 -3.83398 20.499 -6.50098v-71h-44c-14.667 0 -25.167 -3.83301 -31.5 -11.5
s-9.5 -18.834 -9.5 -33.501v-78h151v80c0 24.667 3.66699 46.5 11 65.5s19.166 33.833 35.499 44.5s38.833 16 67.5 16c7.33301 0 15.333 -0.5 24 -1.5s17 -2.33301 25 -4s15 -3.83398 21 -6.50098v-71h-45c-14 0 -24.333 -3.83301 -31 -11.5s-10 -18.834 -10 -33.501v-78
h86v-82h-86v-444h-98v444h-151v-444h-99zM581.002 0.00390625v723h98v-723h-98z" />
    <glyph glyph-name=".notdef" horiz-adv-x="645" 
d="M73 0v700h500v-700h-500zM153 50h340l-170 255zM123 95l170 255l-170 255v-510zM523 95v510l-170 -255zM323 395l170 255h-340z" />
    <glyph glyph-name="CR" unicode="&#xd;" horiz-adv-x="600" 
 />
    <glyph glyph-name="space" unicode=" " horiz-adv-x="179" 
 />
    <glyph glyph-name="exclam" unicode="!" horiz-adv-x="270" 
d="M103 188l-26 498h116l-27 -498h-63zM83 0v117h104v-117h-104z" />
    <glyph glyph-name="quotedbl" unicode="&#x22;" horiz-adv-x="375" 
d="M71 408l-15 131v147h98v-147l-19 -131h-64zM236 408l-15 131v147h99v-147l-19 -131h-65z" />
    <glyph glyph-name="numbersign" unicode="#" horiz-adv-x="538" 
d="M62 -12l36 189h-72v78h88l29 154h-77v78h93l41 211h80l-41 -211h119l42 211h80l-41 -211h73v-78h-89l-29 -154h78v-78h-93l-37 -189h-80l37 189h-121l-36 -189h-80zM194 255h120l29 154h-120z" />
    <glyph glyph-name="dollar" unicode="$" horiz-adv-x="463" 
d="M209 -50v778h48v-778h-48zM229 68c-34.667 0 -64.3389 3.83105 -89.0059 11.498s-45 18.5 -61 32.5s-28 30.667 -36 50s-12 40.666 -12 63.999c0 3.33301 0.166992 6.66602 0.5 9.99902s0.833008 6.33301 1.5 9h95c-0.666992 -2.66699 -1 -5.16699 -1 -7.5v-7.5
c0.666992 -19.333 5.33398 -35.166 14.001 -47.499s21 -21.5 37 -27.5s33.667 -9 53 -9c18.667 0 35.334 2.83301 50.001 8.5s26.334 13.834 35.001 24.501s13 24.334 13 41.001c0 19.333 -6 34.333 -18 45s-27.667 19.5 -47 26.5s-39.666 13.833 -60.999 20.5
c-19.333 6 -38.333 12.667 -57 20s-35.667 16.833 -51 28.5s-27.666 26.167 -36.999 43.5s-14 39 -14 65c0 24.667 4.66699 46.167 14 64.5s22.333 33.833 39 46.5s36.667 22.167 60 28.5s49 9.5 77 9.5c29.333 0 55.166 -3.33301 77.499 -10s41.333 -16.167 57 -28.5
s27.5 -27 35.5 -44s12 -35.5 12 -55.5c0 -4.66699 -0.166992 -9.5 -0.5 -14.5s-0.5 -8.83301 -0.5 -11.5h-94v16c0 14 -3.33301 26.167 -10 36.5s-16.5 18.5 -29.5 24.5s-30.167 9 -51.5 9c-14.667 0 -27.667 -1.66699 -39 -5s-20.666 -7.83301 -27.999 -13.5
s-12.666 -12.334 -15.999 -20.001s-5 -16.167 -5 -25.5c0 -16 4.83301 -28.5 14.5 -37.5s22.5 -16.5 38.5 -22.5s33.333 -12.333 52 -19c20.667 -6.66699 41.667 -13.667 63 -21s41 -16.5 59 -27.5s32.5 -25.667 43.5 -44s16.5 -42.166 16.5 -71.499s-5 -54.333 -15 -75
s-24 -37.667 -42 -51s-39.167 -23.166 -63.5 -29.499s-50.833 -9.5 -79.5 -9.5z" />
    <glyph glyph-name="percent" unicode="%" horiz-adv-x="852" 
d="M171 0l433 686h79l-433 -686h-79zM220 338c-29.333 0 -54.5 5.5 -75.5 16.5s-37 29.667 -48 56s-16.5 61.833 -16.5 106.5c0 46 5.5 82 16.5 108s27 44.667 48 56s46.167 17 75.5 17c30 0 55.333 -5.66699 76 -17s36.334 -30 47.001 -56s16 -62 16 -108
c0 -44.667 -5.33301 -80.167 -16 -106.5s-26.334 -45 -47.001 -56s-46 -16.5 -76 -16.5zM220 400c25.333 0 41.833 9.83301 49.5 29.5s11.5 46.834 11.5 81.501v14c0 22.667 -1.5 42.334 -4.5 59.001s-9 29.5 -18 38.5s-21.833 13.5 -38.5 13.5
c-24.667 0 -41 -9.83301 -49 -29.5s-12 -46.834 -12 -81.501v-14c0 -34.667 4 -61.834 12 -81.501s24.333 -29.5 49 -29.5zM634 -12c-29.333 0 -54.5 5.66602 -75.5 16.999s-37 30 -48 56s-16.5 61.667 -16.5 107s5.5 81.166 16.5 107.499s27 45.166 48 56.499
s46.167 17 75.5 17s54.5 -5.66699 75.5 -17s36.833 -30.166 47.5 -56.499s16 -62.166 16 -107.499s-5.33301 -81.166 -16 -107.499s-26.5 -45 -47.5 -56s-46.167 -16.5 -75.5 -16.5zM634 49.999c24.667 0 41.001 10 49.001 30s12 47.333 12 82v13
c0 22.667 -1.66699 42.5 -5 59.5s-9.33301 30 -18 39s-21.334 13.5 -38.001 13.5c-24.667 0 -41 -10 -49 -30s-12 -47.333 -12 -82v-13c0 -34.667 4 -62 12 -82s24.333 -30 49 -30z" />
    <glyph glyph-name="ampersand" unicode="&#x26;" horiz-adv-x="634" 
d="M281 -12c-47.333 0 -88.8301 8.00293 -124.497 24.0029s-63.5 38.667 -83.5 68s-30 64 -30 104c0 45.333 10.833 81.833 32.5 109.5s49.167 47.167 82.5 58.5v4c-28.667 14 -52.667 33 -72 57s-29 56 -29 96s9.66699 74.167 29 102.5s46.666 49.833 81.999 64.5
s76.666 22 123.999 22c45.333 0 85.166 -7.33301 119.499 -22s61.166 -36.167 80.499 -64.5s29 -62.166 29 -101.499v-19h-98v13c0 25.333 -5.5 46.166 -16.5 62.499s-26.333 28.333 -46 36s-42.5 11.5 -68.5 11.5c-18.667 0 -36.167 -2.16699 -52.5 -6.5
s-30.5 -11 -42.5 -20s-21.167 -20.667 -27.5 -35s-9.5 -31.166 -9.5 -50.499c0 -24.667 5.16699 -45.334 15.5 -62.001s24.5 -29.334 42.5 -38.001s37.333 -13 58 -13h52v-81h-50c-22.667 0 -44.167 -3.33301 -64.5 -10s-36.666 -18.334 -48.999 -35.001
s-18.5 -40.334 -18.5 -71.001c0 -28 5.83301 -50.833 17.5 -68.5s28.167 -30.667 49.5 -39s46 -12.5 74 -12.5c30.667 0 56 4.5 76 13.5s35 22.5 45 40.5s15 40.667 15 68v195h179v-82h-81v-109c0 -44 -8.83301 -81.833 -26.5 -113.5s-44.167 -55.667 -79.5 -72
s-80 -24.5 -134 -24.5z" />
    <glyph glyph-name="quotesingle" unicode="'" horiz-adv-x="210" 
d="M71 408l-15 131v147h98v-147l-19 -131h-64z" />
    <glyph glyph-name="parenleft" unicode="(" horiz-adv-x="346" 
d="M235 -157c-55.333 61.333 -97.833 130.669 -127.5 208.002s-44.5 157 -44.5 239c0 81.333 14.833 160.666 44.5 237.999s72.167 146.666 127.5 207.999h66c-26 -40.667 -49.667 -85.5 -71 -134.5s-38.166 -100 -50.499 -153s-18.5 -105.833 -18.5 -158.5
s6.16699 -105.667 18.5 -159s29.166 -104.5 50.499 -153.5s45 -93.833 71 -134.5h-66z" />
    <glyph glyph-name="parenright" unicode=")" horiz-adv-x="346" 
d="M111 735c55.333 -61.333 97.833 -130.669 127.5 -208.002s44.5 -157 44.5 -239c0 -81.333 -14.833 -160.666 -44.5 -237.999s-72.167 -146.666 -127.5 -207.999h-67c27.333 40.667 51.5 85.5 72.5 134.5s37.667 100 50 153s18.5 105.833 18.5 158.5
c0 53.333 -6.16699 106.5 -18.5 159.5s-29 104 -50 153s-45.167 93.833 -72.5 134.5h67z" />
    <glyph glyph-name="asterisk" unicode="*" horiz-adv-x="395" 
d="M163 331l10 135l-102 -77l-35 63l113 57l-113 58l35 62l102 -78l-10 136h69l-11 -136l103 78l35 -62l-114 -58l114 -57l-35 -63l-103 77l11 -135h-69z" />
    <glyph glyph-name="plus" unicode="+" horiz-adv-x="579" 
d="M248 15v199h-176v84h176v200h83v-200h177v-84h-177v-199h-83z" />
    <glyph glyph-name="comma" unicode="," horiz-adv-x="257" 
d="M68 -154v47c12.667 3.33301 23.167 9.83301 31.5 19.5s14.666 22.167 18.999 37.5s6.5 32 6.5 50h-48v117h104v-105c0 -38.667 -5.66699 -69.5 -17 -92.5s-25.666 -40 -42.999 -51s-35 -18.5 -53 -22.5z" />
    <glyph glyph-name="hyphen" unicode="-" horiz-adv-x="302" 
d="M37 223v95h229v-95h-229z" />
    <glyph glyph-name="period" unicode="." horiz-adv-x="257" 
d="M76 0v117h105v-117h-105z" />
    <glyph glyph-name="slash" unicode="/" horiz-adv-x="284" 
d="M0 -49l207 784h77l-207 -784h-77z" />
    <glyph glyph-name="zero" unicode="0" horiz-adv-x="516" 
d="M258 -12c-36 0 -67.5 5.83301 -94.5 17.5s-49.667 31 -68 58s-32 63.333 -41 109s-13.5 102.5 -13.5 170.5s4.66699 124.833 14 170.5s23 82 41 109s40.667 46.333 68 58s58.666 17.5 93.999 17.5c36 0 67.5 -5.83301 94.5 -17.5s49.5 -31 67.5 -58
s31.667 -63.333 41 -109s14 -102.5 14 -170.5s-4.66699 -124.833 -14 -170.5s-23.166 -82 -41.499 -109s-41 -46.333 -68 -58s-58.167 -17.5 -93.5 -17.5zM258 70c31.333 0 55.166 8.99902 71.499 26.999s27.666 44.833 33.999 80.5s9.5 80.167 9.5 133.5v62
c0 54.667 -3.16699 99.834 -9.5 135.501s-17.666 62.5 -33.999 80.5s-40.166 27 -71.499 27c-30.667 0 -54.5 -9 -71.5 -27s-28.667 -44.667 -35 -80s-9.5 -80 -9.5 -134v-62c0 -54 3.16699 -99 9.5 -135s18 -63 35 -81s40.833 -27 71.5 -27z" />
    <glyph glyph-name="one" unicode="1" horiz-adv-x="481" 
d="M65 0v83.001h149v464h-150v64c20.667 1.33301 43 5.16602 67 11.499s48 14.833 72 25.5s46 23.667 66 39h45v-604h140v-83h-389z" />
    <glyph glyph-name="two" unicode="2" horiz-adv-x="515" 
d="M44 0l0.00195312 32.001c0 28 5 54 15 78s23 46 39 66s34.167 39 54.5 57s40.833 35.667 61.5 53c28 22.667 53.667 45.167 77 67.5s42.166 46.166 56.499 71.499s21.5 53.333 21.5 84c0 20 -3.5 38 -10.5 54s-18.167 28.667 -33.5 38s-35.333 14 -60 14
c-28 0 -50.167 -5.5 -66.5 -16.5s-28.333 -25.667 -36 -44s-11.5 -39.166 -11.5 -62.499v-41h-97c-0.666992 3.33301 -1.33398 8.5 -2.00098 15.5s-1 15.167 -1 24.5c0 48.667 9.66699 88.167 29 118.5s45.5 52.666 78.5 66.999s69.833 21.5 110.5 21.5
c36.667 0 67.667 -5 93 -15s46 -23.833 62 -41.5s27.667 -38.167 35 -61.5s11 -48 11 -74c0 -30.667 -4.66699 -58.667 -14 -84s-22.5 -49 -39.5 -71s-37 -43.5 -60 -64.5s-48.167 -42.167 -75.5 -63.5c-17.333 -14.667 -34.5 -29.5 -51.5 -44.5s-31.667 -30 -44 -45
s-20.5 -29.833 -24.5 -44.5h313v-89h-430z" />
    <glyph glyph-name="three" unicode="3" horiz-adv-x="516" 
d="M257 -12c-48.667 0 -89.501 8.00293 -122.501 24.0029s-57.833 39 -74.5 69s-25 65.333 -25 106v16h100v-16c0 -37.333 10.167 -66 30.5 -86s49.5 -30 87.5 -30c37.333 0 67 9.66699 89 29s33 50.333 33 93c0 30 -6 53.333 -18 70s-27.5 28.334 -46.5 35.001
s-39.833 10 -62.5 10h-61v82h63c20.667 0 39.334 4.16699 56.001 12.5s29.834 21.333 39.501 39s14.5 40.5 14.5 68.5c0 24.667 -4.33301 44.667 -13 60s-20.667 26.833 -36 34.5s-33 11.5 -53 11.5c-20.667 0 -39.334 -4.16699 -56.001 -12.5s-29.667 -20.666 -39 -36.999
s-14 -37.166 -14 -62.499v-15h-99v20c0 38.667 8.66699 72.167 26 100.5s41.666 50.166 72.999 65.499s68 23 110 23c40.667 0 76.334 -7 107.001 -21s54.5 -34.5 71.5 -61.5s25.5 -60.5 25.5 -100.5c0 -28 -4.83301 -52.333 -14.5 -73s-22 -37.834 -37 -51.501
s-31.5 -24.834 -49.5 -33.501v-5c32.667 -10.667 60 -29.834 82 -57.501s33 -63.834 33 -108.501c0 -41.333 -9.16699 -76.833 -27.5 -106.5s-44 -52.334 -77 -68.001s-71.5 -23.5 -115.5 -23.5z" />
    <glyph glyph-name="four" unicode="4" horiz-adv-x="504" 
d="M301 0l-0.00390625 162.997h-278v83c24 46 46 92.833 66 140.5s38 97.5 54 149.5s29.333 106 40 162h103c-7.33301 -34.667 -16.666 -70.5 -27.999 -107.5s-23.666 -73.5 -36.999 -109.5s-27 -69.667 -41 -101s-27 -58.666 -39 -81.999s-22 -41 -30 -53h190v192
c4 10.667 8.33301 22.834 13 36.501s9.33398 27.834 14.001 42.501s8.83398 29 12.501 43s7.16699 27 10.5 39h49v-353h78v-82h-78v-163h-99z" />
    <glyph glyph-name="five" unicode="5" horiz-adv-x="519" 
d="M261 -12c-44 0 -82.5039 8.66699 -115.504 26s-58.333 42.666 -76 75.999s-26.5 74.333 -26.5 123h100c0 -30.667 5 -56.834 15 -78.501s23.833 -37.834 41.5 -48.501s38.167 -16 61.5 -16s43.666 5.5 60.999 16.5s30.666 28 39.999 51s14 51.833 14 86.5
c0 30.667 -4.16699 56.5 -12.5 77.5s-20.666 36.833 -36.999 47.5s-36.166 16 -59.499 16c-16.667 0 -32.167 -3.16699 -46.5 -9.5s-27.166 -14.833 -38.499 -25.5s-20.666 -23.334 -27.999 -38.001l-89 14l25 380h355v-90h-269l-12 -196c9.33301 8 20 15.5 32 22.5
s25.833 12.667 41.5 17s33.167 6.5 52.5 6.5c36.667 0 69 -7.66699 97 -23s50.167 -39.166 66.5 -71.499s24.5 -74.166 24.5 -125.499s-8.66699 -94.666 -26 -129.999s-42.166 -62.166 -74.499 -80.499s-71.166 -27.5 -116.499 -27.5z" />
    <glyph glyph-name="six" unicode="6" horiz-adv-x="516" 
d="M269 -12c-36.667 0 -69.1699 5.33105 -97.5029 15.998s-52.166 28.667 -71.499 54s-34 59.666 -44 102.999s-15 97.333 -15 162c0 72 5 132 15 180s24.333 86.333 43 115s42.167 49.167 70.5 61.5s60.833 18.5 97.5 18.5c44.667 0 81 -9 109 -27s48.5 -43 61.5 -75
s19.5 -69.667 19.5 -113h-99c0 30 -3.16699 54.833 -9.5 74.5s-16.5 34.334 -30.5 44.001s-32.667 14.5 -56 14.5c-32.667 0 -57.667 -9.83301 -75 -29.5s-29.166 -48.167 -35.499 -85.5s-9.83301 -82.666 -10.5 -135.999c7.33301 14 18 26.667 32 38s31 20.5 51 27.5
s41.333 10.5 64 10.5c44 0 80 -9.5 108 -28.5s48.833 -45.167 62.5 -78.5s20.5 -71.666 20.5 -114.999c0 -48 -9 -89.333 -27 -124s-42.667 -61.167 -74 -79.5s-67.666 -27.5 -108.999 -27.5zM263.997 69.998c27.333 0 49.3311 6.67188 65.998 20.0049
s28.834 31.166 36.501 53.499s11.5 47.166 11.5 74.499s-3.83301 51.666 -11.5 72.999s-19.667 38.166 -36 50.499s-38.166 18.5 -65.499 18.5c-26.667 0 -48.667 -6.33301 -66 -19s-30 -29.834 -38 -51.501s-12 -46.5 -12 -74.5c0 -26.667 4 -51.167 12 -73.5
s20.333 -39.833 37 -52.5s38.667 -19 66 -19z" />
    <glyph glyph-name="seven" unicode="7" horiz-adv-x="494" 
d="M120 0c0 60 6.66895 118.165 20.002 174.498s31.166 109.833 53.499 160.5s46.833 98 73.5 142s53.334 83.667 80.001 119h-318v90h439v-61c-22 -29.333 -44.333 -61.166 -67 -95.499s-44.334 -70.666 -65.001 -108.999s-39.334 -78 -56.001 -119
s-29.667 -82.667 -39 -125s-14 -84.833 -14 -127.5v-49h-107z" />
    <glyph glyph-name="eight" unicode="8" horiz-adv-x="513" 
d="M256 -12c-50.667 0 -92.167 8.5 -124.5 25.5s-56.166 40.5 -71.499 70.5s-23 64 -23 102s8.33301 71.333 25 100s43 50.667 79 66c-29.333 16.667 -51.333 38.834 -66 66.501s-22 57.834 -22 90.501c0 37.333 7.66699 70.166 23 98.499s38.166 50.5 68.499 66.5
s67.5 24 111.5 24c44.667 0 82 -8 112 -24s52.833 -38.167 68.5 -66.5s23.5 -61.166 23.5 -98.499c0 -32.667 -7.33301 -62.834 -22 -90.501s-36.667 -49.834 -66 -66.501c36 -15.333 62.167 -37.333 78.5 -66s24.5 -62 24.5 -100s-7.66699 -72 -23 -102
s-39 -53.5 -71 -70.5s-73.667 -25.5 -125 -25.5zM256 70c40 0 69.5 10.833 88.5 32.5s28.5 50.834 28.5 87.501c0 37.333 -9.5 66.666 -28.5 87.999s-48.5 32 -88.5 32c-39.333 0 -68.666 -10.667 -87.999 -32s-29 -50.666 -29 -87.999
c0 -36.667 9.66699 -65.834 29 -87.501s48.666 -32.5 87.999 -32.5zM256 390c34 0 59.833 10 77.5 30s26.5 48 26.5 84c0 35.333 -9 63 -27 83s-43.667 30 -77 30s-58.833 -10 -76.5 -30s-26.5 -47.667 -26.5 -83c0 -36 8.83301 -64 26.5 -84s43.167 -30 76.5 -30z" />
    <glyph glyph-name="nine" unicode="9" horiz-adv-x="515" 
d="M249 -12c-45.333 0 -82.002 8.99609 -110.002 26.9961s-48.5 43.167 -61.5 75.5s-19.5 69.833 -19.5 112.5h99c0 -30 3.16699 -54.833 9.5 -74.5s16.666 -34.334 30.999 -44.001s32.833 -14.5 55.5 -14.5c33.333 0 58.5 9.83301 75.5 29.5s28.667 48.334 35 86.001
s9.83301 82.834 10.5 135.501c-6.66699 -12.667 -17.167 -25 -31.5 -37s-31.166 -21.333 -50.499 -28s-40.666 -10 -63.999 -10c-44 0 -80 9.33301 -108 28s-48.833 44.667 -62.5 78s-20.5 71.666 -20.5 114.999c0 48.667 9 90.334 27 125.001s42.667 61 74 79
s67.333 27 108 27c36.667 0 69.167 -5.33301 97.5 -16s52.333 -28.667 72 -54s34.334 -59.666 44.001 -102.999s14.5 -97.333 14.5 -162c0 -71.333 -4.83301 -131.166 -14.5 -179.499s-24 -86.666 -43 -114.999s-42.5 -48.833 -70.5 -61.5s-60.333 -19 -97 -19z
M250.998 325.996c26.667 0 48.502 6.33008 65.502 18.9971s29.667 30 38 52s12.5 46.667 12.5 74c0 28 -4 52.833 -12 74.5s-20.5 38.834 -37.5 51.501s-38.833 19 -65.5 19c-27.333 0 -49.333 -6.5 -66 -19.5s-28.834 -30.667 -36.501 -53s-11.5 -47.5 -11.5 -75.5
c0 -27.333 3.83301 -51.666 11.5 -72.999s19.667 -38.166 36 -50.499s38.166 -18.5 65.499 -18.5z" />
    <glyph glyph-name="colon" unicode=":" horiz-adv-x="283" 
d="M90 409v117h104v-117h-104zM90 0v117h104v-117h-104z" />
    <glyph glyph-name="semicolon" unicode=";" horiz-adv-x="283" 
d="M83 -154v47c12.667 3.33301 23.167 9.83301 31.5 19.5s14.666 22.167 18.999 37.5s6.5 32 6.5 50h-49v117h105v-105c0 -38.667 -5.66699 -69.5 -17 -92.5s-25.666 -40 -42.999 -51s-35 -18.5 -53 -22.5zM91 409v117h104v-117h-104z" />
    <glyph glyph-name="less" unicode="&#x3c;" horiz-adv-x="579" 
d="M498 20l-437 184v103l437 184v-93l-352 -142l352 -143v-93z" />
    <glyph glyph-name="equal" unicode="=" horiz-adv-x="579" 
d="M71 316v84h437v-84h-437zM71 111v83h437v-83h-437z" />
    <glyph glyph-name="greater" unicode="&#x3e;" horiz-adv-x="579" 
d="M82 20v93l352 143l-352 142v93l436 -184v-103z" />
    <glyph glyph-name="question" unicode="?" horiz-adv-x="525" 
d="M213 186l-0.00195312 54.9961c0 24 3.5 44.333 10.5 61s16 31.334 27 44.001s22.5 24.334 34.5 35.001s23.5 22 34.5 34s20 25.5 27 40.5s10.5 32.833 10.5 53.5c0 10.667 -1.16699 22 -3.5 34s-6.83301 23 -13.5 33s-16.5 18.333 -29.5 25s-29.833 10 -50.5 10
c-23.333 0 -42 -4.33301 -56 -13s-24.5 -19.5 -31.5 -32.5s-11.667 -26.333 -14 -40s-3.5 -26.167 -3.5 -37.5v-13.5v-14.5h-99c-0.666992 3.33301 -1.33398 7.83301 -2.00098 13.5s-1 12.834 -1 21.501c0 18 2.33301 36.5 7 55.5s12.167 37.333 22.5 55
s23.833 33.334 40.5 47.001s36.834 24.667 60.501 33s51.5 12.5 83.5 12.5c28.667 0 53.834 -3.33301 75.501 -10s40 -15.834 55 -27.501s27.333 -25.167 37 -40.5s16.834 -31.5 21.501 -48.5s7 -34.167 7 -51.5c0 -31.333 -3.83301 -57.833 -11.5 -79.5
s-17.5 -40 -29.5 -55s-24.667 -28.167 -38 -39.5s-26 -22.5 -38 -33.5s-21.833 -23.167 -29.5 -36.5s-11.5 -29.666 -11.5 -48.999v-41h-92zM206.998 -0.00390625v117h104v-117h-104z" />
    <glyph glyph-name="at" unicode="@" horiz-adv-x="891" 
d="M425 -153c-78.667 0 -146.679 14.3379 -204.012 43.0049s-101.166 73.667 -131.499 135s-45.5 140.333 -45.5 237c0 80 11 147.833 33 203.5s52 100.5 90 134.5s81.833 58.833 131.5 74.5s102.167 23.5 157.5 23.5c56.667 0 108.834 -7 156.501 -21s89 -36 124 -66
s62.167 -69 81.5 -117s29 -105.667 29 -173c0 -40.667 -3.83301 -77 -11.5 -109s-18.167 -59.833 -31.5 -83.5s-28.666 -43.334 -45.999 -59.001s-36 -27.5 -56 -35.5s-40.333 -12 -61 -12c-25.333 0 -45 3.66699 -59 11s-24.167 16 -30.5 26s-10.166 19.667 -11.499 29h-6
c-9.33301 -14 -20.666 -26 -33.999 -36s-28.666 -17.667 -45.999 -23s-36.666 -8 -57.999 -8c-15.333 0 -30.666 2.16699 -45.999 6.5s-29.5 11.333 -42.5 21s-23.5 23.167 -31.5 40.5s-12 38.666 -12 63.999c0 32.667 6.5 59.5 19.5 80.5s31.5 37.5 55.5 49.5
s52.333 20.667 85 26s68.334 8 107.001 8v57c0 15.333 -2.16699 28.666 -6.5 39.999s-12.166 20 -23.499 26s-27.666 9 -48.999 9s-38.166 -3 -50.499 -9s-20.833 -14.167 -25.5 -24.5s-7 -21.166 -7 -32.499v-16h-84c-0.666992 3.33301 -1 6.5 -1 9.5v9.5
c0 29.333 7 54 21 74s34 35.167 60 45.5s56 15.5 90 15.5c35.333 0 65.166 -5.33301 89.499 -16s42.833 -26.334 55.5 -47.001s19 -46.667 19 -78v-247c0 -14.667 3.16699 -25.334 9.5 -32.001s15.833 -10 28.5 -10c20 0 39.167 7.16699 57.5 21.5s33.5 38.333 45.5 72
s18 79.5 18 137.5c0 74 -13.5 134.167 -40.5 180.5s-64.667 80.333 -113 102s-104.5 32.5 -168.5 32.5c-70.667 0 -131.667 -13.833 -183 -41.5s-91 -69.167 -119 -124.5s-42 -125.333 -42 -210c0 -116.667 25.5 -204.5 76.5 -263.5s130.167 -88.5 237.5 -88.5
c16 0 34.5 1.16699 55.5 3.5s41.333 5.66602 61 9.99902s35.5 9.16602 47.5 14.499v-66c-14 -5.33301 -31.167 -9.66602 -51.5 -12.999s-40.666 -6 -60.999 -8s-37.833 -3 -52.5 -3zM419.988 92.0049c17.333 0 32.667 3 46 9s25 14.5 35 25.5s17.5 24.167 22.5 39.5
s7.5 33 7.5 53v34c-36.667 0 -68.167 -2.66699 -94.5 -8s-46.666 -14.5 -60.999 -27.5s-21.5 -31.5 -21.5 -55.5c0 -16 2.5 -29 7.5 -39s12.667 -17.667 23 -23s22.166 -8 35.499 -8z" />
    <glyph glyph-name="A" unicode="A" horiz-adv-x="614" 
d="M4 0l234 686h137l234 -686h-115l-54 163h-272l-54 -163h-110zM197 255l213.999 -0.000976562l-67 208c-2 6 -4.5 13.833 -7.5 23.5s-6.33301 20.334 -10 32.001s-7.16699 23.334 -10.5 35.001s-6.33301 22.5 -9 32.5h-6c-3.33301 -12 -7.33301 -25.833 -12 -41.5
s-9.16699 -30.834 -13.5 -45.501s-8.16602 -26.667 -11.499 -36z" />
    <glyph glyph-name="B" unicode="B" horiz-adv-x="622" 
d="M73 0l-0.00195312 686.003h306c38.667 0 72 -6.66699 100 -20s49.5 -32.5 64.5 -57.5s22.5 -54.167 22.5 -87.5c0 -27.333 -4.5 -51.833 -13.5 -73.5s-21.5 -39.834 -37.5 -54.501s-34 -25.667 -54 -33v-4c22.667 -5.33301 43.334 -15 62.001 -29
s33.334 -32.333 44.001 -55s16 -50.334 16 -83.001c0 -44.667 -9 -80.834 -27 -108.501s-43.167 -48 -75.5 -61s-69.833 -19.5 -112.5 -19.5h-295zM179.998 93.0029h190c32.667 0 58 8.33301 76 25s27 43.667 27 81c0 22.667 -3.66699 42 -11 58s-18.833 28 -34.5 36
s-36.167 12 -61.5 12h-186v-212zM179.998 396.003l177.999 0.000976562c21.333 0 39.333 4.33301 54 13s25.834 20.667 33.501 36s11.5 32.666 11.5 51.999c0 32 -8.33301 56.167 -25 72.5s-39.667 24.5 -69 24.5h-183v-198z" />
    <glyph glyph-name="C" unicode="C" horiz-adv-x="648" 
d="M336 -12c-64 0 -117.832 12.6689 -161.499 38.002s-76.334 64.166 -98.001 116.499s-32.5 119.166 -32.5 200.499c0 120.667 25.5 210 76.5 268s124.5 87 220.5 87c53.333 0 100 -9.5 140 -28.5s71.167 -48 93.5 -87s33.5 -88.5 33.5 -148.5h-108
c0 37.333 -6.33301 68.833 -19 94.5s-31 45 -55 58s-52.667 19.5 -86 19.5c-40 0 -74 -8.83301 -102 -26.5s-48.833 -44.667 -62.5 -81s-20.5 -82.5 -20.5 -138.5v-37c0 -56 6.83301 -101.833 20.5 -137.5s34.167 -62.167 61.5 -79.5s61.333 -26 102 -26
c34 0 63.333 6.33301 88 19s43.5 31.667 56.5 57s19.5 57 19.5 95h105c0 -60 -11.667 -109.5 -35 -148.5s-55.333 -67.833 -96 -86.5s-87.667 -28 -141 -28z" />
    <glyph glyph-name="D" unicode="D" horiz-adv-x="653" 
d="M73 0l-0.000976562 685.999h237c64.667 0 119.167 -12 163.5 -36s78 -61.167 101 -111.5s34.5 -115.166 34.5 -194.499s-11.5 -144.333 -34.5 -195s-56.667 -88.167 -101 -112.5s-99.166 -36.5 -164.499 -36.5h-236zM179.999 92.999l124.997 -0.000976562
c30.667 0 57.834 4.16699 81.501 12.5s43.834 21.5 60.501 39.5s29.334 41.833 38.001 71.5s13 65.5 13 107.5v34c0 42.667 -4.33301 79 -13 109s-21.167 54.333 -37.5 73s-36.5 32.334 -60.5 41.001s-51.333 13 -82 13h-125v-501z" />
    <glyph glyph-name="E" unicode="E" horiz-adv-x="596" 
d="M73 0v686h472v-92h-365v-197h325v-93h-325v-211h371v-93h-478z" />
    <glyph glyph-name="F" unicode="F" horiz-adv-x="536" 
d="M73 0v686h431v-92h-324v-208h290v-93h-290v-293h-107z" />
    <glyph glyph-name="G" unicode="G" horiz-adv-x="702" 
d="M347 -12c-98 0 -172.332 28.832 -222.999 86.499s-76 147.167 -76 268.5c0 80 12 146.167 36 198.5s59.167 91.5 105.5 117.5s102.833 39 169.5 39c41.333 0 79 -5 113 -15s63.5 -25.333 88.5 -46s44.333 -46.5 58 -77.5s20.5 -67.5 20.5 -109.5h-109
c0 26 -4 48.833 -12 68.5s-19.667 36 -35 49s-33.5 22.667 -54.5 29s-44.167 9.5 -69.5 9.5c-32.667 0 -61.5 -4.83301 -86.5 -14.5s-46 -24.5 -63 -44.5s-29.667 -45.5 -38 -76.5s-12.5 -67.833 -12.5 -110.5v-36c0 -56.667 7.16699 -103.167 21.5 -139.5
s36 -62.833 65 -79.5s64.167 -25 105.5 -25s75.333 6.83301 102 20.5s46.667 33.834 60 60.501s20 59.667 20 99v13h-198v89h303v-362h-73l-10 78c-16 -20 -34.333 -36.833 -55 -50.5s-43.834 -23.667 -69.501 -30s-53.5 -9.5 -83.5 -9.5z" />
    <glyph glyph-name="H" unicode="H" horiz-adv-x="654" 
d="M73 0v686h107v-289h294v289h107v-686h-107v303h-294v-303h-107z" />
    <glyph glyph-name="I" unicode="I" horiz-adv-x="253" 
d="M73 0v686h107v-686h-107z" />
    <glyph glyph-name="J" unicode="J" horiz-adv-x="508" 
d="M230 -12c-43.333 0 -80.334 7.00098 -111.001 21.001s-54 35 -70 63s-24 62.667 -24 104v36h106v-34c0 -32 8.16699 -56.333 24.5 -73s41.5 -25 75.5 -25c33.333 0 58.333 11.167 75 33.5s25 55.166 25 98.499v474h108v-474c0 -50.667 -8.33301 -92.667 -25 -126
s-40.667 -58 -72 -74s-68.666 -24 -111.999 -24z" />
    <glyph glyph-name="K" unicode="K" horiz-adv-x="612" 
d="M73 0v686h107v-344l287 344h127l-232 -276l239 -410h-125l-186 325l-110 -117v-208h-107z" />
    <glyph glyph-name="L" unicode="L" horiz-adv-x="494" 
d="M73 0v686h107v-592h299v-94h-406z" />
    <glyph glyph-name="M" unicode="M" horiz-adv-x="773" 
d="M73 0l0.00292969 686.002h165l119 -415c3.33301 -10.667 6.66602 -23.167 9.99902 -37.5s6.66602 -28.333 9.99902 -42s6 -25.834 8 -36.501h7c1.33301 9.33301 3.5 20.5 6.5 33.5s6.16699 26.833 9.5 41.5s6.66602 28.334 9.99902 41.001l119 415h163v-686h-107v395
c0 20 0.333008 41.167 1 63.5s1.33398 42.666 2.00098 60.999s1 31.166 1 38.499h-7c-1.33301 -7.33301 -4 -18.5 -8 -33.5s-8.16699 -31 -12.5 -48s-8.5 -31.833 -12.5 -44.5l-126 -432h-93l-126 431c-3.33301 10.667 -6.83301 23.334 -10.5 38.001s-7.33398 30 -11.001 46
s-7.16699 30.333 -10.5 43h-7c0.666992 -14.667 1.16699 -31.834 1.5 -51.501l1 -59c0.333008 -19.667 0.5 -37.167 0.5 -52.5v-395h-103z" />
    <glyph glyph-name="N" unicode="N" horiz-adv-x="654" 
d="M73 0l0.000976562 686.001h103l266 -419c2.66699 -4.66699 6.16699 -10.667 10.5 -18s8.33301 -14.666 12 -21.999l9.5 -19h4v31.5v27.5v419h104v-686h-100l-269 425c-4 7.33301 -9.33301 17.166 -16 29.499s-12.334 23.166 -17.001 32.499h-4v-31.5v-31.5v-424h-103z
" />
    <glyph glyph-name="O" unicode="O" horiz-adv-x="699" 
d="M350 -12c-64 0 -119 12.833 -165 38.5s-81 64.834 -105 117.501s-36 119 -36 199c0 80.667 12 147.167 36 199.5s59 91.333 105 117s101 38.5 165 38.5c64.667 0 119.667 -12.833 165 -38.5s80 -64.667 104 -117s36 -118.833 36 -199.5c0 -80 -12 -146.333 -36 -199
s-58.667 -91.834 -104 -117.501s-100.333 -38.5 -165 -38.5zM350 80c31.333 0 59 5 83 15s44.333 25.167 61 45.5s29.334 45.833 38.001 76.5s13 66.667 13 108v36c0 41.333 -4.33301 77.333 -13 108s-21.334 56.167 -38.001 76.5s-37 35.5 -61 45.5s-51.667 15 -83 15
s-59.166 -5 -83.499 -15s-44.833 -25.167 -61.5 -45.5s-29.167 -45.833 -37.5 -76.5s-12.5 -66.667 -12.5 -108v-36c0 -41.333 4.16699 -77.333 12.5 -108s20.833 -56.167 37.5 -76.5s37.167 -35.5 61.5 -45.5s52.166 -15 83.499 -15z" />
    <glyph glyph-name="P" unicode="P" horiz-adv-x="596" 
d="M73 0v686.002h293c48.667 0 88 -8.83301 118 -26.5s52.333 -42.334 67 -74.001s22 -68.834 22 -111.501c0 -43.333 -8 -81.5 -24 -114.5s-39.333 -58.667 -70 -77s-68.667 -27.5 -114 -27.5h-185v-255h-107zM180 348.002h175c35.333 0 62.333 11 81 33s28 52.333 28 91
c0 26.667 -4 49 -12 67s-20 31.667 -36 41s-37 14 -63 14h-173v-246z" />
    <glyph glyph-name="Q" unicode="Q" horiz-adv-x="699" 
d="M493 -130l-105 119.999c-6 -0.666992 -12.333 -1.16699 -19 -1.5s-13 -0.5 -19 -0.5c-64 0 -119 12.833 -165 38.5s-81 64.834 -105 117.501s-36 119 -36 199c0 80.667 12 147.167 36 199.5s59 91.333 105 117s101 38.5 165 38.5c64.667 0 119.667 -12.833 165 -38.5
s80 -64.667 104 -117s36 -118.833 36 -199.5c0 -86 -13.833 -156 -41.5 -210s-67.5 -93 -119.5 -117l133 -146h-134zM350 79.999c31.333 0 59 5 83 15s44.333 25.167 61 45.5s29.334 45.833 38.001 76.5s13 66.667 13 108v36c0 41.333 -4.33301 77.333 -13 108
s-21.334 56.167 -38.001 76.5s-37 35.5 -61 45.5s-51.667 15 -83 15s-59.166 -5 -83.499 -15s-44.833 -25.167 -61.5 -45.5s-29.167 -45.833 -37.5 -76.5s-12.5 -66.667 -12.5 -108v-36c0 -41.333 4.16699 -77.333 12.5 -108s20.833 -56.167 37.5 -76.5
s37.167 -35.5 61.5 -45.5s52.166 -15 83.499 -15z" />
    <glyph glyph-name="R" unicode="R" horiz-adv-x="642" 
d="M73 0l0.00195312 686h307c49.333 0 89.166 -8.5 119.499 -25.5s52.666 -40.833 66.999 -71.5s21.5 -65.667 21.5 -105c0 -46 -9.33301 -86 -28 -120s-45 -59 -79 -75l132 -289h-116l-119 266h-198v-266h-107zM180.002 357l190 -0.00195312c36 0 63.167 11 81.5 33
s27.5 52.333 27.5 91c0 24.667 -3.83301 45.334 -11.5 62.001s-19.667 29.334 -36 38.001s-37.5 13 -63.5 13h-188v-237z" />
    <glyph glyph-name="S" unicode="S" horiz-adv-x="590" 
d="M296 -12c-34 0 -66.5029 3.6709 -97.5029 11.0039s-58.167 19.166 -81.5 35.499s-41.666 37.666 -54.999 63.999s-20 58.833 -20 97.5v10.5c0 3.66699 0.333008 6.83398 1 9.50098h107c0 -2.66699 -0.166992 -5.83398 -0.5 -9.50098s-0.5 -7.16699 -0.5 -10.5
c0 -26 5.83301 -47.667 17.5 -65s28.5 -30.166 50.5 -38.499s48 -12.5 78 -12.5c16.667 0 32.334 1.16699 47.001 3.5s28.167 6.16602 40.5 11.499s22.833 12 31.5 20s15.334 17.667 20.001 29s7 24.333 7 39c0 20.667 -5.33301 38 -16 52s-25.167 25.667 -43.5 35
s-39 17.666 -62 24.999s-46.667 14.833 -71 22.5s-47.833 16.334 -70.5 26.001s-43.167 21.667 -61.5 36s-33 32.166 -44 53.499s-16.5 47.333 -16.5 78c0 31.333 5.83301 58.666 17.5 81.999s28.334 42.833 50.001 58.5s47.334 27.334 77.001 35.001s62.5 11.5 98.5 11.5
c33.333 0 64.166 -3.66699 92.499 -11s53.166 -18.666 74.499 -33.999s38 -35.166 50 -59.499s18 -53.833 18 -88.5v-14h-106v14c0 21.333 -5.16699 39.5 -15.5 54.5s-25 26.5 -44 34.5s-41.833 12 -68.5 12c-28.667 0 -53 -3.16699 -73 -9.5s-35.333 -16 -46 -29
s-16 -29.167 -16 -48.5s5.5 -35.5 16.5 -48.5s25.667 -24 44 -33s38.833 -17 61.5 -24s46.167 -14.333 70.5 -22s48 -16.334 71 -26.001s43.667 -21.834 62 -36.501s32.833 -32.834 43.5 -54.501s16 -47.5 16 -77.5c0 -50 -10.833 -90.333 -32.5 -121s-51.5 -53 -89.5 -67
s-82 -21 -132 -21z" />
    <glyph glyph-name="T" unicode="T" horiz-adv-x="551" 
d="M221 0v593h-202v93h513v-93h-203v-593h-108z" />
    <glyph glyph-name="U" unicode="U" horiz-adv-x="647" 
d="M322 -12c-52 0 -97 8.66699 -135 26s-67.167 44.833 -87.5 82.5s-30.5 86.5 -30.5 146.5v443h108v-449c0 -52.667 12.333 -92 37 -118s60.667 -39 108 -39c48 0 84.833 13 110.5 39s38.5 65.333 38.5 118v449h107v-443c0 -60 -10.333 -108.833 -31 -146.5
s-50 -65.167 -88 -82.5s-83.667 -26 -137 -26z" />
    <glyph glyph-name="V" unicode="V" horiz-adv-x="588" 
d="M229 0l-217.998 685.999h115l140 -456c2.66699 -10 5.66699 -21.5 9 -34.5s6.66602 -25.667 9.99902 -38s6.33301 -23.5 9 -33.5h5c2 7.33301 4.5 16.333 7.5 27s6.16699 22.834 9.5 36.501s6.66602 27.5 9.99902 41.5l139 457h111l-218 -686h-129z" />
    <glyph glyph-name="W" unicode="W" horiz-adv-x="846" 
d="M177 0l-164.997 685.999h113l96 -426c3.33301 -16.667 6.16602 -32.667 8.49902 -48s4.5 -29.166 6.5 -41.499s3.66699 -22.833 5 -31.5h6c1.33301 6.66699 2.66602 15.334 3.99902 26.001s3 21.834 5 33.501s4 23 6 34l5 27.5l95 426h131l91 -426
c2 -10.667 4.16699 -23 6.5 -37s4.83301 -28.333 7.5 -43s4.66699 -28.334 6 -41.001h6c0.666992 6.66699 2 15 4 25s4 20.833 6 32.5s4.16699 23 6.5 34s4.5 20.833 6.5 29.5l99 426h102l-169 -686h-123l-97 431l-8 46c-2.66699 15.333 -4.83398 29.666 -6.50098 42.999
s-3.16699 24.333 -4.5 33h-5c-1.33301 -8.66699 -3.16602 -20.667 -5.49902 -36s-4.83301 -30.833 -7.5 -46.5s-5.33398 -29.167 -8.00098 -40.5l-97 -430h-126z" />
    <glyph glyph-name="X" unicode="X" horiz-adv-x="611" 
d="M8 0l228 360l-207 326h127l150 -242h5l149 242h120l-205 -325l228 -361h-126l-172 276h-5l-171 -276h-121z" />
    <glyph glyph-name="Y" unicode="Y" horiz-adv-x="604" 
d="M248 0v281l-236 405h120l170 -301h5l170 301h114l-235 -405v-281h-108z" />
    <glyph glyph-name="Z" unicode="Z" horiz-adv-x="572" 
d="M29 0v53l351 541h-328v92h480v-52l-352 -541h360v-93h-511z" />
    <glyph glyph-name="bracketleft" unicode="[" horiz-adv-x="308" 
d="M91 -161v896h199v-71h-109v-754h109v-71h-199z" />
    <glyph glyph-name="backslash" unicode="\" horiz-adv-x="284" 
d="M284 -49h-77l-207 784h77z" />
    <glyph glyph-name="bracketright" unicode="]" horiz-adv-x="308" 
d="M217 735v-896h-198v71h108v754h-108v71h198z" />
    <glyph glyph-name="asciicircum" unicode="^" horiz-adv-x="579" 
d="M96 322l145 364h96l147 -364h-89l-106 280l-104 -280h-89z" />
    <glyph glyph-name="underscore" unicode="_" horiz-adv-x="439" 
d="M0 -139v74h439v-74h-439z" />
    <glyph glyph-name="grave" unicode="`" horiz-adv-x="178" 
d="M178 591h-78l-100 129l1 3h102z" />
    <glyph glyph-name="a" unicode="a" horiz-adv-x="499" 
d="M182 -12c-17.333 0 -34.8281 2.33496 -52.4951 7.00195s-33.834 12.5 -48.501 23.5s-26.334 25.833 -35.001 44.5s-13 42 -13 70c0 32.667 6.66699 60.334 20 83.001s32.833 41.167 58.5 55.5s57.334 24.833 95.001 31.5s80.167 10 127.5 10v60
c0 17.333 -2.66699 32.333 -8 45s-14.5 22.5 -27.5 29.5s-31.167 10.5 -54.5 10.5c-24.667 0 -43.834 -3.66699 -57.501 -11s-23 -16.666 -28 -27.999s-7.5 -24 -7.5 -38v-12h-95c-0.666992 3.33301 -1 6.66602 -1 9.99902v11c0 33.333 8.33301 61 25 83
s39.5 38.333 68.5 49s62.167 16 99.5 16c40 0 73.667 -5.83301 101 -17.5s48 -29.334 62 -53.001s21 -53.834 21 -90.501v-272c0 -12 3 -20.667 9 -26s13 -8 21 -8h33v-67c-8.66699 -3.33301 -18.834 -6.66602 -30.501 -9.99902s-24.834 -5 -39.501 -5
c-16.667 0 -30.667 3.16699 -42 9.5s-20.333 15.166 -27 26.499s-11.334 24.333 -14.001 39h-6c-10 -14.667 -22.333 -27.834 -37 -39.501s-31.667 -20.667 -51 -27s-41.333 -9.5 -66 -9.5zM212.005 70.002c16.667 0 32.333 3.16699 47 9.5s27.5 15 38.5 26
s19.833 24.667 26.5 41s10 34.5 10 54.5v43c-43.333 0 -79.833 -3.5 -109.5 -10.5s-52 -17.833 -67 -32.5s-22.5 -33.667 -22.5 -57c0 -16 3 -29.5 9 -40.5s14.667 -19.333 26 -25s25.333 -8.5 42 -8.5z" />
    <glyph glyph-name="b" unicode="b" horiz-adv-x="517" 
d="M298 -12c-32.667 0 -60.999 7.33301 -84.999 22s-43 35 -57 61h-7l-8 -71h-80v723h98v-259h6c9.33301 16.667 20.833 30.5 34.5 41.5s29.167 19.167 46.5 24.5s36.333 8 57 8c36.667 0 68.167 -9.5 94.5 -28.5s46.666 -48.5 60.999 -88.5s21.5 -91.667 21.5 -155
c0 -66 -7.16699 -119.333 -21.5 -160s-34.833 -70.5 -61.5 -89.5s-59.667 -28.5 -99 -28.5zM270.001 74c25.333 0 45.999 6.00098 61.999 18.001s27.667 31 35 57s11 59.333 11 100v26c0 41.333 -3.66699 74.833 -11 100.5s-19 44.5 -35 56.5s-37 18 -63 18
c-17.333 0 -32.666 -3.33301 -45.999 -10s-24.833 -17 -34.5 -31s-17 -32.333 -22 -55s-7.5 -49.334 -7.5 -80.001v-24c0 -38 3.83301 -70 11.5 -96s19.667 -45.833 36 -59.5s37.5 -20.5 63.5 -20.5z" />
    <glyph glyph-name="c" unicode="c" horiz-adv-x="480" 
d="M248 -12c-48 0 -87.6689 9.83301 -119.002 29.5s-54.666 49.834 -69.999 90.501s-23 92.334 -23 155.001c0 64 8 116.167 24 156.5s39.833 70.166 71.5 89.499s71.167 29 118.5 29c33.333 0 62 -4.33301 86 -13s44 -21.834 60 -39.501s28 -39.5 36 -65.5
s12 -56.333 12 -91h-100c0 29.333 -3.16699 53.333 -9.5 72s-16.5 32.5 -30.5 41.5s-32.667 13.5 -56 13.5s-43.333 -5.83301 -60 -17.5s-29.167 -30.667 -37.5 -57s-12.5 -61.166 -12.5 -104.499v-29c0 -38.667 3.83301 -71.334 11.5 -98.001s19.834 -46.667 36.501 -60
s38 -20 64 -20c23.333 0 42 4.66699 56 14s24.5 23.5 31.5 42.5s10.5 42.5 10.5 70.5h96c0 -30.667 -3.83301 -58.667 -11.5 -84s-19.5 -47.333 -35.5 -66s-36.333 -33.167 -61 -43.5s-54 -15.5 -88 -15.5z" />
    <glyph glyph-name="d" unicode="d" horiz-adv-x="517" 
d="M219 -12c-38 0 -70.668 9.5 -98.001 28.5s-48.166 48.833 -62.499 89.5s-21.5 94 -21.5 160c0 63.333 7.16699 115 21.5 155s34.833 69.5 61.5 88.5s58.334 28.5 95.001 28.5c21.333 0 40.5 -2.66699 57.5 -8s32.167 -13.5 45.5 -24.5s24.666 -24.833 33.999 -41.5h6v259
h99v-723h-80l-9 71h-6c-14 -26 -33.333 -46.333 -58 -61s-53 -22 -85 -22zM247.999 74c26 0 47 6.83203 63 20.499s27.833 33.5 35.5 59.5s11.5 58 11.5 96v24c0 30.667 -2.5 57.334 -7.5 80.001s-12.167 41 -21.5 55s-20.833 24.333 -34.5 31s-29.167 10 -46.5 10
c-25.333 0 -46 -6 -62 -18s-27.833 -30.833 -35.5 -56.5s-11.5 -59.167 -11.5 -100.5v-26c0 -40.667 3.83301 -74 11.5 -100s19.5 -45 35.5 -57s36.667 -18 62 -18z" />
    <glyph glyph-name="e" unicode="e" horiz-adv-x="500" 
d="M256 -12c-49.333 0 -90.168 9.66699 -122.501 29s-56.5 49.333 -72.5 90s-24 92.667 -24 156c0 64.667 8.16699 117.167 24.5 157.5s40.833 70 73.5 89s74 28.5 124 28.5c45.333 0 83 -8.83301 113 -26.5s52.667 -45.334 68 -83.001s23 -86.834 23 -147.501v-42h-324
c0.666992 -38.667 5 -70.667 13 -96s20.5 -44.166 37.5 -56.499s39.5 -18.5 67.5 -18.5c16.667 0 31.5 2.5 44.5 7.5s24.167 12.167 33.5 21.5s16.5 21.166 21.5 35.499s7.83301 30.5 8.5 48.5h97c-0.666992 -30.667 -5.66699 -58.167 -15 -82.5s-23 -44.666 -41 -60.999
s-39.667 -28.666 -65 -36.999s-53.666 -12.5 -84.999 -12.5zM139.998 309l221.001 -0.000976562c0 26.667 -2.33301 49.334 -7 68.001s-11.334 34 -20.001 46s-19.5 20.667 -32.5 26s-27.833 8 -44.5 8c-26 0 -47.333 -5.5 -64 -16.5s-29.167 -27.5 -37.5 -49.5
s-13.5 -49.333 -15.5 -82z" />
    <glyph glyph-name="f" unicode="f" horiz-adv-x="270" 
d="M81 0l0.000976562 444.002h-67v82h67v80c0 24.667 3.5 46.5 10.5 65.5s18.833 33.833 35.5 44.5s39 16 67 16c8 0 16.333 -0.5 25 -1.5s17.167 -2.33301 25.5 -4s15.166 -3.83398 20.499 -6.50098v-71h-44c-14.667 0 -25.167 -3.83301 -31.5 -11.5
s-9.5 -18.834 -9.5 -33.501v-78h85v-82h-85v-444h-99z" />
    <glyph glyph-name="g" unicode="g" horiz-adv-x="505" 
d="M147 -185c-24.667 0 -47.1699 5.16602 -67.5029 15.499s-36.333 25.333 -48 45s-17.5 42.167 -17.5 67.5c0 28.667 7.5 52.667 22.5 72s33.5 34 55.5 44c-16 8 -28.667 19.167 -38 33.5s-14 30.5 -14 48.5c0 22.667 8 42 24 58s36 26.667 60 32
c-22.667 15.333 -40 34.666 -52 57.999s-18 49 -18 77c0 34 7.5 64 22.5 90s37.167 46.167 66.5 60.5s65.333 21.5 108 21.5c18 0 35 -1.33301 51 -4s30.333 -7 43 -13c19.333 10.667 33.833 24.334 43.5 41.001s15.5 33.667 17.5 51h92c0 -22 -4.16699 -41.833 -12.5 -59.5
s-19.666 -32.167 -33.999 -43.5s-31.166 -19.333 -50.499 -24c15.333 -15.333 27 -33.166 35 -53.499s12 -42.166 12 -65.499c0 -34 -7.33301 -63.833 -22 -89.5s-36.167 -45.834 -64.5 -60.501s-63.5 -22 -105.5 -22h-68c-15.333 0 -27.666 -3.5 -36.999 -10.5
s-14 -17.5 -14 -31.5c0 -12.667 4.83301 -22.667 14.5 -30s22.167 -11 37.5 -11h177c39.333 0 70.833 -13.333 94.5 -40s35.5 -60 35.5 -100c0 -29.333 -6.83301 -55.833 -20.5 -79.5s-33 -42.5 -58 -56.5s-54.5 -21 -88.5 -21h-182zM177.997 -112.001h146.003
c14 0 26.5 3 37.5 9s19.667 14.333 26 25s9.5 22.334 9.5 35.001c0 22 -5.83301 39.167 -17.5 51.5s-26.834 18.5 -45.501 18.5h-156c-18.667 0 -34.334 -6.66699 -47.001 -20s-19 -30 -19 -50c0 -20.667 6.16699 -37.334 18.5 -50.001s28.166 -19 47.499 -19zM251 265.999
c33.333 0 58.167 8.83301 74.5 26.5s24.5 42.5 24.5 74.5s-8.16699 56.667 -24.5 74s-41.166 26 -74.499 26c-32.667 0 -57.334 -8.66699 -74.001 -26s-25 -42 -25 -74c0 -21.333 3.66699 -39.5 11 -54.5s18.333 -26.5 33 -34.5s33 -12 55 -12z" />
    <glyph glyph-name="h" unicode="h" horiz-adv-x="511" 
d="M61 0v723h98v-258h7c10.667 16 23 29.333 37 40s29.833 18.834 47.5 24.501s37.167 8.5 58.5 8.5c29.333 0 55 -5.33301 77 -16s39.167 -27.834 51.5 -51.501s18.5 -55.5 18.5 -95.5v-375h-100v356c0 16.667 -1.83301 31 -5.5 43s-9.16699 21.667 -16.5 29
s-16.333 12.833 -27 16.5s-22.667 5.5 -36 5.5c-20.667 0 -39.5 -5.5 -56.5 -16.5s-30.5 -27 -40.5 -48s-15 -46.833 -15 -77.5v-308h-98z" />
    <glyph glyph-name="i" unicode="i" horiz-adv-x="220" 
d="M61 619v104h98v-104h-98zM61 0v526h98v-526h-98z" />
    <glyph glyph-name="j" unicode="j" horiz-adv-x="218" 
d="M61 619v104h98v-104h-98zM51 -185c-7.33301 0 -15.666 0.5 -24.999 1.5s-18.333 2.5 -27 4.5s-15.667 4 -21 6v70h44c14 0 24 3.66699 30 11s9 19 9 35v583h98v-595c0 -22 -3.5 -41.833 -10.5 -59.5s-18.333 -31.5 -34 -41.5s-36.834 -15 -63.501 -15z" />
    <glyph glyph-name="k" unicode="k" horiz-adv-x="475" 
d="M61 0v723h98v-433l182 236h113l-160 -204l168 -322h-111l-121 241l-71 -79v-162h-98z" />
    <glyph glyph-name="l" unicode="l" horiz-adv-x="220" 
d="M61 0v723h98v-723h-98z" />
    <glyph glyph-name="m" unicode="m" horiz-adv-x="771" 
d="M61 0l-0.00195312 525.999h81l9 -72h6c10.667 18.667 23 34.334 37 47.001s29.833 22 47.5 28s36.834 9 57.501 9c30 0 55.833 -6.33301 77.5 -19s37.5 -34.334 47.5 -65.001h6c10.667 18.667 23.167 34.167 37.5 46.5s30.5 21.666 48.5 27.999s37.333 9.5 58 9.5
c28.667 0 53.5 -5.16699 74.5 -15.5s37.333 -27.166 49 -50.499s17.5 -54.666 17.5 -93.999v-378h-99v357c0 16.667 -1.66699 31 -5 43s-8.16602 21.5 -14.499 28.5s-14.5 12.333 -24.5 16s-21 5.5 -33 5.5c-18.667 0 -35.667 -5.66699 -51 -17s-27.666 -27.5 -36.999 -48.5
s-14 -46.5 -14 -76.5v-308h-98v357c0 16.667 -1.66699 31 -5 43s-8.33301 21.5 -15 28.5s-14.834 12.333 -24.501 16s-20.167 5.5 -31.5 5.5c-19.333 0 -36.833 -5.66699 -52.5 -17s-28.167 -27.5 -37.5 -48.5s-14 -46.5 -14 -76.5v-308h-98z" />
    <glyph glyph-name="n" unicode="n" horiz-adv-x="512" 
d="M61 0v526h81l9 -72h6c11.333 18.667 24.5 34.334 39.5 47.001s31.833 22 50.5 28s39 9 61 9c30 0 56 -5.33301 78 -16s39.167 -27.834 51.5 -51.501s18.5 -55.5 18.5 -95.5v-375h-100v356c0 16.667 -1.83301 31 -5.5 43s-9.16699 21.667 -16.5 29
s-16.333 12.833 -27 16.5s-22.667 5.5 -36 5.5c-20.667 0 -39.5 -5.66699 -56.5 -17s-30.5 -27.5 -40.5 -48.5s-15 -46.5 -15 -76.5v-308h-98z" />
    <glyph glyph-name="o" unicode="o" horiz-adv-x="521" 
d="M260 -12c-48.667 0 -89.667 9.66699 -123 29s-58.333 49.166 -75 89.499s-25 92.5 -25 156.5c0 64.667 8.33301 117.167 25 157.5s41.667 70 75 89s74.333 28.5 123 28.5c49.333 0 90.5 -9.5 123.5 -28.5s58 -48.667 75 -89s25.5 -92.833 25.5 -157.5
c0 -64 -8.5 -116.167 -25.5 -156.5s-42 -70.166 -75 -89.499s-74.167 -29 -123.5 -29zM260 70c28 0 51 6.33301 69 19s31.167 32.167 39.5 58.5s12.5 60.166 12.5 101.499v28c0 42 -4.16699 76.167 -12.5 102.5s-21.5 45.666 -39.5 57.999s-41 18.5 -69 18.5
s-50.833 -6.16699 -68.5 -18.5s-30.834 -31.666 -39.501 -57.999s-13 -60.5 -13 -102.5v-28c0 -41.333 4.33301 -75.166 13 -101.499s21.834 -45.833 39.501 -58.5s40.5 -19 68.5 -19z" />
    <glyph glyph-name="p" unicode="p" horiz-adv-x="517" 
d="M61 -176l-0.000976562 701.999h80l8 -70h7c14 26 33.167 46.167 57.5 60.5s52.5 21.5 84.5 21.5c39.333 0 72.333 -9.5 99 -28.5s47.167 -48.833 61.5 -89.5s21.5 -93.667 21.5 -159c0 -63.333 -7.16699 -115.166 -21.5 -155.499s-34.666 -70 -60.999 -89
s-57.833 -28.5 -94.5 -28.5c-20.667 0 -39.667 2.66699 -57 8s-32.833 13.5 -46.5 24.5s-25.167 24.833 -34.5 41.5h-6v-238h-98zM268.999 75.999c26 0 47.001 5.99902 63.001 17.999s27.667 30.833 35 56.5s11 58.834 11 99.501v27c0 40.667 -3.66699 74 -11 100
s-19 45 -35 57s-36.667 18 -62 18c-26 0 -47.167 -6.83301 -63.5 -20.5s-28.333 -33.5 -36 -59.5s-11.5 -58 -11.5 -96v-24c0 -31.333 2.5 -58 7.5 -80s12.333 -40.167 22 -54.5s21.167 -24.833 34.5 -31.5s28.666 -10 45.999 -10z" />
    <glyph glyph-name="q" unicode="q" horiz-adv-x="517" 
d="M358 -176v238.001h-6c-9.33301 -16.667 -20.666 -30.5 -33.999 -41.5s-28.666 -19.167 -45.999 -24.5s-36.333 -8 -57 -8c-36.667 0 -68.334 9.5 -95.001 28.5s-47.167 48.667 -61.5 89s-21.5 92.166 -21.5 155.499c0 65.333 7.16699 118.333 21.5 159
s35.166 70.5 62.499 89.5s60 28.5 98 28.5c32.667 0 61.167 -7.16699 85.5 -21.5s43.5 -34.5 57.5 -60.5h6l9 70h80v-702h-99zM248 76.001c18 0 33.667 3.33398 47 10.001s24.666 17.167 33.999 31.5s16.5 32.5 21.5 54.5s7.5 48.667 7.5 80v24c0 38 -3.66699 70 -11 96
s-19.166 45.833 -35.499 59.5s-37.5 20.5 -63.5 20.5c-25.333 0 -46 -6 -62 -18s-27.833 -31 -35.5 -57s-11.5 -59.333 -11.5 -100v-27c0 -40.667 3.83301 -73.834 11.5 -99.501s19.5 -44.5 35.5 -56.5s36.667 -18 62 -18z" />
    <glyph glyph-name="r" unicode="r" horiz-adv-x="310" 
d="M61 0l0.00195312 525.997h81l8 -80h6c6 17.333 13.667 32.833 23 46.5s20.833 24.667 34.5 33s30.167 12.5 49.5 12.5c8.66699 0 16.5 -0.666992 23.5 -2s12.5 -3 16.5 -5v-96h-33c-18 0 -33.833 -3.16699 -47.5 -9.5s-25.334 -15.666 -35.001 -27.999
s-16.834 -27.666 -21.501 -45.999s-7 -39.166 -7 -62.499v-289h-98z" />
    <glyph glyph-name="s" unicode="s" horiz-adv-x="463" 
d="M229 -12c-34.667 0 -64.3389 3.83398 -89.0059 11.501s-45 18.5 -61 32.5s-28 30.667 -36 50s-12 40.666 -12 63.999c0 3.33301 0.166992 6.66602 0.5 9.99902s0.833008 6.33301 1.5 9h95c-0.666992 -2.66699 -1 -5.16699 -1 -7.5v-7.5
c0.666992 -19.333 5.33398 -35.166 14.001 -47.499s21 -21.333 37 -27s33.667 -8.5 53 -8.5c18.667 0 35.334 2.66699 50.001 8s26.334 13.333 35.001 24s13 24.334 13 41.001c0 19.333 -6 34.5 -18 45.5s-27.667 19.833 -47 26.5s-39.666 13.334 -60.999 20.001
c-19.333 6 -38.333 12.833 -57 20.5s-35.667 17.167 -51 28.5s-27.666 25.666 -36.999 42.999s-14 39.333 -14 66c0 24 4.66699 45.167 14 63.5s22.333 33.833 39 46.5s36.667 22.167 60 28.5s49 9.5 77 9.5c29.333 0 55.166 -3.33301 77.499 -10s41.333 -16.167 57 -28.5
s27.5 -27 35.5 -44s12 -35.5 12 -55.5c0 -4.66699 -0.166992 -9.33398 -0.5 -14.001s-0.5 -8.66699 -0.5 -12h-94v16c0 14 -3.33301 26.167 -10 36.5s-16.5 18.5 -29.5 24.5s-30.167 9 -51.5 9c-14.667 0 -27.667 -1.66699 -39 -5s-20.666 -7.83301 -27.999 -13.5
s-12.666 -12.334 -15.999 -20.001s-5 -16.167 -5 -25.5c0 -16 4.83301 -28.5 14.5 -37.5s22.5 -16.5 38.5 -22.5s33.333 -12.333 52 -19c20.667 -6.66699 41.667 -13.5 63 -20.5s41 -16 59 -27s32.5 -25.833 43.5 -44.5s16.5 -42.667 16.5 -72s-5 -54.333 -15 -75
s-24 -37.667 -42 -51s-39.167 -23.166 -63.5 -29.499s-50.833 -9.5 -79.5 -9.5z" />
    <glyph glyph-name="t" unicode="t" horiz-adv-x="275" 
d="M177 -12c-27.333 0 -48.667 5.49902 -64 16.499s-26 25.667 -32 44s-9 37.833 -9 58.5v337h-56v82h58l18 148h79v-148h82v-82h-82v-328c0 -15.333 2.66699 -26.666 8 -33.999s15 -11 29 -11h45v-68c-6.66699 -2.66699 -14.5 -5 -23.5 -7s-18 -3.83301 -27 -5.5
s-17.5 -2.5 -25.5 -2.5z" />
    <glyph glyph-name="u" unicode="u" horiz-adv-x="511" 
d="M204 -12c-45.333 0 -81.333 12.335 -108 37.002s-40 67 -40 127v374h99v-356c0 -16.667 1.83301 -30.834 5.5 -42.501s9.16699 -21.334 16.5 -29.001s16.333 -13.167 27 -16.5s22.667 -5 36 -5c20.667 0 39.5 5.5 56.5 16.5s30.5 27.167 40.5 48.5s15 46.666 15 75.999
v308h99v-526h-82l-8 72h-6c-11.333 -18.667 -24.5 -34.167 -39.5 -46.5s-31.833 -21.666 -50.5 -27.999s-39 -9.5 -61 -9.5z" />
    <glyph glyph-name="v" unicode="v" horiz-adv-x="453" 
d="M172 0l-163.999 525.996h104l77 -268c3.33301 -10 7.16602 -23.667 11.499 -41s8.83301 -35.166 13.5 -53.499s8.66699 -34.833 12 -49.5h5c3.33301 10.667 7 24.834 11 42.501s8.33301 35.834 13 54.501s9 34.334 13 47.001l77 268h99l-164 -526h-108z" />
    <glyph glyph-name="w" unicode="w" horiz-adv-x="667" 
d="M145 0l-138.002 526.004h101l66 -286c2.66699 -12.667 5.33398 -26.334 8.00098 -41.001s5.33398 -28.334 8.00098 -41.001s4.33398 -22.334 5.00098 -29.001h6c2.66699 12 5.16699 25.333 7.5 40s4.83301 28.667 7.5 42s4.66699 23.666 6 30.999l60 284h109l61 -285
c2.66699 -10 5.16699 -22 7.5 -36s4.83301 -27.667 7.5 -41s4.66699 -25 6 -35h6c2 10 4.16699 21.667 6.5 35s5 26.833 8 40.5s5.5 25.5 7.5 35.5l65 286h94l-137 -526h-105l-57 269c-2.66699 12 -5.5 25.833 -8.5 41.5s-5.83301 31.5 -8.5 47.5l-7 42h-6
c-0.666992 -8.66699 -2.33398 -20 -5.00098 -34s-5.5 -29.333 -8.5 -46s-6.5 -33.667 -10.5 -51l-58 -269h-104z" />
    <glyph glyph-name="x" unicode="x" horiz-adv-x="473" 
d="M11 0l164 270l-155 256h117l100 -178h5l101 178h110l-155 -254l164 -272h-115l-111 194h-5l-110 -194h-110z" />
    <glyph glyph-name="y" unicode="y" horiz-adv-x="452" 
d="M109 -185c-17.333 0 -32.3281 1.1709 -44.9951 3.50391s-21.334 4.16602 -26.001 5.49902v73h43c15.333 0 29.333 3.5 42 10.5s24.167 18.167 34.5 33.5s18.5 35 24.5 59l-173 526h103l85 -275c3.33301 -10.667 7.16602 -23.834 11.499 -39.501
s8.66602 -31.834 12.999 -48.501s7.83301 -31.667 10.5 -45h6c2.66699 10 5.33398 21.167 8.00098 33.5s5.66699 25 9 38s6.66602 25.5 9.99902 37.5s6 22.667 8 32l73 267h99l-154 -510c-8.66699 -28.667 -18.334 -55.334 -29.001 -80.001s-22.834 -46 -36.501 -64
s-30 -32 -49 -42s-41.5 -15 -67.5 -15z" />
    <glyph glyph-name="z" unicode="z" horiz-adv-x="450" 
d="M24 0v49l250 395h-233v82h370v-47l-251 -396h262v-83h-398z" />
    <glyph glyph-name="braceleft" unicode="{" horiz-adv-x="357" 
d="M308 -159c-25.333 0 -49.0029 1.83594 -71.0029 5.50293s-41.167 10.334 -57.5 20.001s-29 23.667 -38 42s-13.5 41.5 -13.5 69.5v208c0 15.333 -4.33301 27.166 -13 35.499s-19.5 14.333 -32.5 18s-25.833 5.5 -38.5 5.5v85c12.667 0 25.5 2 38.5 6
s23.833 10.333 32.5 19s13 20 13 34v209c0 28.667 4.5 52 13.5 70s21.667 31.833 38 41.5s35.5 16.334 57.5 20.001s45.667 5.5 71 5.5v-62c-13.333 0 -26.666 -2 -39.999 -6s-24.666 -10.833 -33.999 -20.5s-14.333 -23.834 -15 -42.501l-8 -205
c-0.666992 -33.333 -8.16699 -59.333 -22.5 -78s-39.166 -28 -74.499 -28v-10c23.333 0 42 -4.33301 56 -13s24.167 -20.834 30.5 -36.501s9.83301 -34.834 10.5 -57.501l8 -204c0.666992 -18.667 5.5 -32.834 14.5 -42.501s20.333 -16.5 34 -20.5s27.167 -6 40.5 -6v-62z
" />
    <glyph glyph-name="bar" unicode="|" horiz-adv-x="226" 
d="M73 -187v910h80v-910h-80z" />
    <glyph glyph-name="braceright" unicode="}" horiz-adv-x="357" 
d="M49 735c25.333 0 49.002 -1.83301 71.002 -5.5s41.167 -10.334 57.5 -20.001s29 -23.5 38 -41.5s13.5 -41.333 13.5 -70v-208c0 -14.667 4.33301 -26.334 13 -35.001s19.5 -14.834 32.5 -18.501s26.167 -5.5 39.5 -5.5v-85c-13.333 0 -26.5 -2 -39.5 -6
s-23.833 -10.167 -32.5 -18.5s-13 -19.833 -13 -34.5v-209c0 -28 -4.5 -51.167 -13.5 -69.5s-21.667 -32.333 -38 -42s-35.5 -16.334 -57.5 -20.001s-45.667 -5.5 -71 -5.5v62c13.333 0 26.666 2 39.999 6s24.666 10.833 33.999 20.5s14.333 23.834 15 42.501l8 205
c1.33301 33.333 9 59.333 23 78s38.667 28 74 28v10c-23.333 0 -42 4.33301 -56 13s-24.167 20.834 -30.5 36.501s-9.83301 34.834 -10.5 57.501l-8 204c-0.666992 18.667 -5.5 32.834 -14.5 42.501s-20.167 16.5 -33.5 20.5s-27 6 -41 6v62z" />
    <glyph glyph-name="asciitilde" unicode="~" horiz-adv-x="579" 
d="M64 217l0.00390625 92c6.66699 9.33301 16.167 19 28.5 29s27.166 18.333 44.499 25s36.333 10 57 10c17.333 0 33.666 -2.5 48.999 -7.5s30.666 -11 45.999 -18s30.833 -13.167 46.5 -18.5s32.167 -8 49.5 -8c19.333 0 37.333 3.5 54 10.5s31.667 15.5 45 25.5
s24 19.333 32 28v-92c-6 -8.66699 -15.5 -18 -28.5 -28s-28 -18.5 -45 -25.5s-36.167 -10.5 -57.5 -10.5c-16.667 0 -32.834 2.5 -48.501 7.5s-31 11 -46 18s-30.333 13.167 -46 18.5s-32.5 8 -50.5 8s-35.5 -3.5 -52.5 -10.5s-32.333 -15.333 -46 -25
s-24.167 -19.167 -31.5 -28.5z" />
    <glyph glyph-name="uni00A0" unicode="&#xa0;" horiz-adv-x="179" 
 />
    <glyph glyph-name="exclamdown" unicode="&#xa1;" horiz-adv-x="270" 
d="M77 -161l27 498h63l26 -498h-116zM83 409v117h105v-117h-105z" />
    <glyph glyph-name="cent" unicode="&#xa2;" horiz-adv-x="509" 
d="M234 -50v778h48v-778h-48zM259 68c-48 0 -87.667 9.83301 -119 29.5s-54.666 49.834 -69.999 90.501s-23 92.334 -23 155.001c0 64 8 116.167 24 156.5s39.833 70.166 71.5 89.499s71.167 29 118.5 29c32.667 0 61.167 -4.33301 85.5 -13s44.5 -21.834 60.5 -39.501
s27.833 -39.5 35.5 -65.5s11.5 -56.333 11.5 -91h-99c0 29.333 -3.16699 53.333 -9.5 72s-16.5 32.5 -30.5 41.5s-32.667 13.5 -56 13.5s-43.333 -5.83301 -60 -17.5s-29.167 -30.667 -37.5 -57s-12.5 -61.166 -12.5 -104.499v-29c0 -38.667 3.83301 -71.334 11.5 -98.001
s19.834 -46.667 36.501 -60s38 -20 64 -20c22.667 0 41.167 4.66699 55.5 14s25 23.5 32 42.5s10.5 42.5 10.5 70.5h95c0 -30.667 -3.83301 -58.834 -11.5 -84.501s-19.334 -47.667 -35.001 -66s-35.834 -32.666 -60.501 -42.999s-54 -15.5 -88 -15.5z" />
    <glyph glyph-name="sterling" unicode="&#xa3;" horiz-adv-x="517" 
d="M39 0v85.001h64v213h-78v84h78v128c0 41.333 7.33301 76 22 104s36 49 64 63s61.667 21 101 21c38.667 0 71.667 -6.83301 99 -20.5s48.333 -34 63 -61s22 -60.833 22 -101.5v-20h-99v24c0 22 -3.5 40 -10.5 54s-16.833 24.5 -29.5 31.5s-27.667 10.5 -45 10.5
c-18 0 -33.5 -3.5 -46.5 -10.5s-23 -17.333 -30 -31s-10.5 -30.834 -10.5 -51.501v-140h136v-84h-136l-10 -213h277v-85h-431z" />
    <glyph glyph-name="currency" unicode="&#xa4;" horiz-adv-x="581" 
d="M85 97l-46.001 45.999l55 55c-17.333 20.667 -30.166 44 -38.499 70s-12.5 53 -12.5 81c0 27.333 4.16699 54.333 12.5 81s21.166 49.667 38.499 69l-56 54l48 48l56 -56c20 16.667 42.833 29.334 68.5 38.001s51.834 13 78.501 13c27.333 0 54 -4.33301 80 -13
s48.333 -21.334 67 -38.001l57 57l48 -49l-55 -54c17.333 -19.333 30 -42.333 38 -69s12 -53.667 12 -81s-4 -54.166 -12 -80.499s-20.667 -49.833 -38 -70.5l54 -55l-46 -46l-55 57c-20 -18 -43 -31.5 -69 -40.5s-53 -13.5 -81 -13.5c-27.333 0 -54 4.5 -80 13.5
s-49 22.5 -69 40.5zM288.999 171.999c32 0 61 8 87 24s46.667 37.5 62 64.5s23 56.5 23 88.5c0 31.333 -7.66699 60.333 -23 87s-36 48 -62 64s-55 24 -87 24c-31.333 0 -60 -8 -86 -24s-46.833 -37.167 -62.5 -63.5s-23.5 -55.5 -23.5 -87.5s7.83301 -61.5 23.5 -88.5
s36.5 -48.5 62.5 -64.5s54.667 -24 86 -24z" />
    <glyph glyph-name="yen" unicode="&#xa5;" horiz-adv-x="537" 
d="M218 0l0.000976562 159.001h-180v66h180v71h-180v67h147c-5.33301 9.33301 -12.166 21 -20.499 35s-14.833 25.667 -19.5 35l-133 253h115l105 -216c4 -8.66699 8.33301 -17.834 13 -27.501s9.16699 -19 13.5 -28s8.16602 -17.167 11.499 -24.5h5
c3.33301 6.66699 7 14.667 11 24s8.33301 19 13 29s9 19 13 27l103 216h110l-129 -249c-6.66699 -12 -13.834 -24.833 -21.501 -38.5s-14.5 -25.5 -20.5 -35.5h146v-67h-179v-71h179v-66h-179v-159h-103z" />
    <glyph glyph-name="brokenbar" unicode="&#xa6;" horiz-adv-x="226" 
d="M73 348v375h80v-375h-80zM73 -187v375h80v-375h-80z" />
    <glyph glyph-name="section" unicode="&#xa7;" horiz-adv-x="515" 
d="M254 -182c-32 0 -60 3.66504 -84 10.998s-44.167 17.5 -60.5 30.5s-28.666 28.167 -36.999 45.5s-12.5 36 -12.5 56c0 4 0.166992 8.16699 0.5 12.5s0.833008 7.5 1.5 9.5h99v-10c0 -9.33301 1.5 -18.5 4.5 -27.5s8.16699 -17.167 15.5 -24.5s17.333 -13.166 30 -17.499
s28.667 -6.5 48 -6.5c21.333 0 39.166 3.33301 53.499 10s25.166 15.834 32.499 27.501s11 25.5 11 41.5c0 18 -5.66699 33.5 -17 46.5s-26.166 24.167 -44.499 33.5s-38.5 18.166 -60.5 26.499s-44 17.5 -66 27.5s-42.167 22 -60.5 36s-33 31.167 -44 51.5
s-16.5 44.833 -16.5 73.5c0 20.667 3.33301 39.667 10 57s16 32.833 28 46.5s26 25.5 42 35.5c-20 14 -36.333 31.333 -49 52s-19 46.667 -19 78c0 25.333 4.66699 47.666 14 66.999s23 35.833 41 49.5s39.333 24 64 31s52.334 10.5 83.001 10.5c32 0 60 -3.66699 84 -11
s44.167 -17.5 60.5 -30.5s28.666 -28.167 36.999 -45.5s12.5 -36 12.5 -56c0 -4 -0.166992 -8.16699 -0.5 -12.5s-0.5 -7.5 -0.5 -9.5h-100v10c0 9.33301 -1.5 18.5 -4.5 27.5s-8.16699 17 -15.5 24s-17.333 12.667 -30 17s-28.667 6.5 -48 6.5
c-21.333 0 -39.166 -3.16699 -53.499 -9.5s-25.166 -15.333 -32.499 -27s-11 -25.5 -11 -41.5c0 -18 5.66699 -33.5 17 -46.5s26.166 -24.167 44.499 -33.5s38.5 -18.166 60.5 -26.499s44 -17.5 66 -27.5s42.167 -22 60.5 -36s33.166 -31 44.499 -51s17 -44.667 17 -74
c0 -20.667 -3.33301 -39.667 -10 -57s-16.167 -32.833 -28.5 -46.5s-26.5 -25.5 -42.5 -35.5c20 -14 36.333 -31.333 49 -52s19 -46.667 19 -78c0 -25.333 -4.66699 -47.666 -14 -66.999s-22.833 -35.833 -40.5 -49.5s-39 -24 -64 -31s-52.833 -10.5 -83.5 -10.5z
M320 144.998c16 8 28.666 18.835 37.999 32.502s14 29.5 14 47.5c0 22.667 -5.16699 41.167 -15.5 55.5s-24.166 26.666 -41.499 36.999s-36.5 19.5 -57.5 27.5s-42.167 16.667 -63.5 26c-15.333 -8.66699 -27.666 -19.834 -36.999 -33.501s-14 -29.5 -14 -47.5
c0 -21.333 5.16699 -39.5 15.5 -54.5s24.166 -27.667 41.499 -38s36.333 -19.5 57 -27.5s41.667 -16.333 63 -25z" />
    <glyph glyph-name="dieresis" unicode="&#xa8;" horiz-adv-x="259" 
d="M0 624v99h87v-99h-87zM172 624v99h87v-99h-87z" />
    <glyph glyph-name="copyright" unicode="&#xa9;" horiz-adv-x="690" 
d="M345 -12c-46 0 -88.333 8.33301 -127 25s-72 40.5 -100 71.5s-49.833 68.333 -65.5 112s-23.5 92.5 -23.5 146.5s7.83301 102.833 23.5 146.5s37.5 81 65.5 112s61.333 54.833 100 71.5s81 25 127 25c45.333 0 87.333 -8.33301 126 -25s72.167 -40.5 100.5 -71.5
s50.333 -68.333 66 -112s23.5 -92.5 23.5 -146.5s-7.83301 -102.833 -23.5 -146.5s-37.667 -81 -66 -112s-61.833 -54.833 -100.5 -71.5s-80.667 -25 -126 -25zM344 131c-34 0 -62.668 7.16211 -86.001 21.4951s-40.833 37 -52.5 68s-17.5 71.5 -17.5 121.5
s5.83301 90.5 17.5 121.5s29.167 53.667 52.5 68s52 21.5 86 21.5c30.667 0 56.5 -5.5 77.5 -16.5s37 -28.667 48 -53s16.5 -56.166 16.5 -95.499h-67c0 26.667 -2.66699 47.834 -8 63.501s-13.5 27 -24.5 34s-25.5 10.5 -43.5 10.5c-28.667 0 -50.5 -11.167 -65.5 -33.5
s-22.5 -57.166 -22.5 -104.499v-31c0 -30.667 3.33301 -56.167 10 -76.5s16.5 -35.666 29.5 -45.999s29.5 -15.5 49.5 -15.5c16.667 0 30.834 3.66699 42.501 11s20.5 18.833 26.5 34.5s9 36.167 9 61.5h64c0 -35.333 -5.5 -65.166 -16.5 -89.499s-26.833 -43 -47.5 -56
s-46.667 -19.5 -78 -19.5zM344.999 35.9951c51.333 0 97.001 12.333 137.001 37s71.5 60 94.5 106s34.5 100.667 34.5 164s-11.5 118 -34.5 164s-54.5 81.333 -94.5 106s-85.667 37 -137 37c-52 0 -98 -12.333 -138 -37s-71.5 -60 -94.5 -106s-34.5 -100.667 -34.5 -164
s11.5 -118 34.5 -164s54.667 -81.333 95 -106s86.166 -37 137.499 -37z" />
    <glyph glyph-name="ordfeminine" unicode="&#xaa;" horiz-adv-x="354" 
d="M127 330c-14.667 0 -29.335 3 -44.002 9s-26.834 16.167 -36.501 30.5s-14.5 33.833 -14.5 58.5c0 24 4.5 43.833 13.5 59.5s22 27.834 39 36.501s37 15 60 19s48.167 6 75.5 6v39c0 10.667 -1.5 20 -4.5 28s-8.33301 14.333 -16 19s-18.834 7 -33.501 7
c-14 0 -25.167 -2.33301 -33.5 -7s-14 -10.5 -17 -17.5s-4.5 -14.5 -4.5 -22.5v-11h-65c-0.666992 1.33301 -1 3.5 -1 6.5v7.5c0 32.667 11.333 57.5 34 74.5s52.334 25.5 89.001 25.5c25.333 0 46.833 -4 64.5 -12s31 -19.833 40 -35.5s13.5 -34.834 13.5 -57.501v-183
c0 -8.66699 1.83301 -14.667 5.5 -18s8.16699 -5 13.5 -5h20v-46c-5.33301 -2 -11.666 -3.83301 -18.999 -5.5s-15.666 -2.5 -24.999 -2.5c-16.667 0 -29.5 4.16699 -38.5 12.5s-14.833 19.833 -17.5 34.5h-4c-9.33301 -15.333 -21.666 -27.5 -36.999 -36.5
s-34.333 -13.5 -57 -13.5zM144.999 386c14.667 0 27.668 3.83105 39.001 11.498s20.166 18.334 26.499 32.001s9.5 28.834 9.5 45.501v24c-24.667 0.666992 -46 -1 -64 -5s-31.667 -10.833 -41 -20.5s-14 -23.167 -14 -40.5c0 -8.66699 1.5 -16.5 4.5 -23.5
s7.83301 -12.667 14.5 -17s15 -6.5 25 -6.5z" />
    <glyph glyph-name="guillemotleft" unicode="&#xab;" horiz-adv-x="507" 
d="M193 125l-140 201l140 200h77l-114 -200l114 -201h-77zM379 125l-139 201l139 200h78l-114 -200l114 -201h-78z" />
    <glyph glyph-name="logicalnot" unicode="&#xac;" horiz-adv-x="579" 
d="M418 209v156h-351v83h435v-239h-84z" />
    <glyph glyph-name="uni00AD" unicode="&#xad;" horiz-adv-x="302" 
d="M37 223v95h229v-95h-229z" />
    <glyph glyph-name="registered" unicode="&#xae;" horiz-adv-x="690" 
d="M345 -12c-46 0 -88.333 8.33301 -127 25s-72 40.5 -100 71.5s-49.833 68.333 -65.5 112s-23.5 92.5 -23.5 146.5s7.83301 102.833 23.5 146.5s37.5 81 65.5 112s61.333 54.833 100 71.5s81 25 127 25c45.333 0 87.333 -8.33301 126 -25s72.167 -40.5 100.5 -71.5
s50.333 -68.333 66 -112s23.5 -92.5 23.5 -146.5s-7.83301 -102.833 -23.5 -146.5s-37.667 -81 -66 -112s-61.833 -54.833 -100.5 -71.5s-80.667 -25 -126 -25zM345 36c51.333 0 97.001 12.333 137.001 37s71.5 60 94.5 106s34.5 100.667 34.5 164s-11.5 118 -34.5 164
s-54.5 81.333 -94.5 106s-85.667 37 -137 37c-52 0 -98 -12.333 -138 -37s-71.5 -60 -94.5 -106s-34.5 -100.667 -34.5 -164s11.5 -118 34.5 -164s54.667 -81.333 95 -106s86.166 -37 137.499 -37zM216.001 137v412h163c40 0 69.667 -11.167 89 -33.5s29 -52.5 29 -90.5
c0 -26.667 -5.16699 -50.167 -15.5 -70.5s-25.833 -35.833 -46.5 -46.5l75 -171h-71l-68 157h-89v-157h-66zM282.001 351h91.001c16.667 0 30.167 6.5 40.5 19.5s15.5 30.833 15.5 53.5c0 22 -4.83301 38.833 -14.5 50.5s-23.834 17.5 -42.501 17.5h-90v-141z" />
    <glyph glyph-name="macron" unicode="&#xaf;" horiz-adv-x="266" 
d="M0 630v70h266v-70h-266z" />
    <glyph glyph-name="degree" unicode="&#xb0;" horiz-adv-x="400" 
d="M201 423c-25.333 0 -48.5 6 -69.5 18s-37.833 28.5 -50.5 49.5s-19 44.167 -19 69.5c0 26 6.33301 49.333 19 70s29.5 37.167 50.5 49.5s44.167 18.5 69.5 18.5s48.5 -6.16699 69.5 -18.5s37.5 -28.833 49.5 -49.5s18 -44 18 -70c0 -25.333 -6 -48.5 -18 -69.5
s-28.5 -37.5 -49.5 -49.5s-44.167 -18 -69.5 -18zM200 481c22 0 40.5 7.83301 55.5 23.5s22.5 34.167 22.5 55.5s-7.5 39.833 -22.5 55.5s-33.5 23.5 -55.5 23.5c-21.333 0 -39.833 -7.83301 -55.5 -23.5s-23.5 -34.167 -23.5 -55.5s7.83301 -39.833 23.5 -55.5
s34.167 -23.5 55.5 -23.5z" />
    <glyph glyph-name="plusminus" unicode="&#xb1;" horiz-adv-x="579" 
d="M248 147v200h-176v83h176v200h83v-200h177v-83h-177v-200h-83zM72 7v83h436v-83h-436z" />
    <glyph glyph-name="uni00B2" unicode="&#xb2;" horiz-adv-x="313" 
d="M41 440l-0.000976562 22.9951c0 18.667 4.16699 35.334 12.5 50.001s19.166 28.334 32.499 41.001s27 24.667 41 36c20.667 18 38.834 35.333 54.501 52s23.5 35.667 23.5 57c0 12.667 -3.66699 23.334 -11 32.001s-19 13 -35 13c-12 0 -21.667 -2.5 -29 -7.5
s-12.666 -11.667 -15.999 -20s-5 -18.166 -5 -29.499v-22h-62c-0.666992 2.66699 -1.33398 6.5 -2.00098 11.5s-1 9.5 -1 13.5c0 25.333 5.33301 46 16 62s25 27.833 43 35.5s38 11.5 60 11.5c25.333 0 45.833 -4.66699 61.5 -14s27.334 -21.666 35.001 -36.999
s11.5 -32.666 11.5 -51.999c0 -16.667 -2.83301 -31.667 -8.5 -45s-13.334 -25.833 -23.001 -37.5s-20.167 -22.334 -31.5 -32.001s-22.666 -19.167 -33.999 -28.5c-10.667 -9.33301 -21 -18.5 -31 -27.5s-18 -18.167 -24 -27.5h154v-58h-232z" />
    <glyph glyph-name="uni00B3" unicode="&#xb3;" horiz-adv-x="313" 
d="M158 428c-40 0 -70 9.49902 -90 28.499s-30 45.167 -30 78.5v11h65v-11c0 -16.667 4.33301 -29.5 13 -38.5s21.667 -13.5 39 -13.5c12 0 22 1.83301 30 5.5s14.167 9.5 18.5 17.5s6.5 18.667 6.5 32s-2.5 23.666 -7.5 30.999s-11.833 12.5 -20.5 15.5
s-18.334 4.5 -29.001 4.5h-33v55h34c10.667 0 19.5 1.83301 26.5 5.5s12.5 9.33398 16.5 17.001s6 17.5 6 29.5c0 11.333 -1.83301 20.5 -5.5 27.5s-8.83398 12.167 -15.501 15.5s-14.667 5 -24 5c-10 0 -18.5 -1.83301 -25.5 -5.5s-12.5 -9.16699 -16.5 -16.5
s-6 -16.333 -6 -27v-11h-65v13c0 20.667 4.66699 38.667 14 54s22.5 27.166 39.5 35.499s36.833 12.5 59.5 12.5s42.334 -3.83301 59.001 -11.5s29.5 -18.834 38.5 -33.501s13.5 -33 13.5 -55c0 -19.333 -4.16699 -35.166 -12.5 -47.499s-19.166 -22.166 -32.499 -29.499v-3
c16.667 -6.66699 29.5 -17.167 38.5 -31.5s13.5 -32.166 13.5 -53.499s-4.83301 -40 -14.5 -56s-23.167 -28.333 -40.5 -37s-38.333 -13 -63 -13z" />
    <glyph glyph-name="acute" unicode="&#xb4;" horiz-adv-x="178" 
d="M0 591l75 132h103v-3l-100 -129h-78z" />
    <glyph glyph-name="uni00B5" unicode="&#xb5;" horiz-adv-x="516" 
d="M61 -183l-0.000976562 709h98v-356c0 -16.667 2 -31 6 -43s9.5 -21.667 16.5 -29s15.833 -12.666 26.5 -15.999s23 -5 37 -5c20.667 0 39.5 5.66699 56.5 17s30.333 28.166 40 50.499s14.5 49.166 14.5 80.499v301h99v-526h-82l-8 72h-6
c-10 -19.333 -21.833 -34.833 -35.5 -46.5s-28.5 -20.334 -44.5 -26.001s-33.333 -8.5 -52 -8.5c-14 0 -27.167 1.83301 -39.5 5.5s-23.166 9.5 -32.499 17.5c1.33301 -9.33301 2.33301 -20.166 3 -32.499s1 -24.166 1 -35.499v-129h-98z" />
    <glyph glyph-name="paragraph" unicode="&#xb6;" horiz-adv-x="524" 
d="M224 -169l0.000976562 422.001c-32 3.33301 -61.667 13.833 -89 31.5s-49.333 42.167 -66 73.5s-25 68 -25 110c0 51.333 10.167 93.166 30.5 125.499s47.666 55.833 81.999 70.5s71.833 22 112.5 22h217v-62h-54v-793h-75v793h-58v-793h-75z" />
    <glyph glyph-name="periodcentered" unicode="&#xb7;" horiz-adv-x="293" 
d="M94 294v118h105v-118h-105z" />
    <glyph glyph-name="cedilla" unicode="&#xb8;" horiz-adv-x="196" 
d="M86 -183c-14.667 0 -29.668 0.668945 -45.001 2.00195s-29 3.33301 -41 6v43h80c12.667 0 22.334 2.16699 29.001 6.5s10 11.166 10 20.499c0 8.66699 -2.83301 15 -8.5 19s-15.5 6 -29.5 6h-39l14 94h62l-5 -51c14 -0.666992 27.333 -3.33398 40 -8.00098
s23 -11.667 31 -21s12 -22 12 -38c0 -16.667 -3.5 -30.167 -10.5 -40.5s-16.167 -18.333 -27.5 -24s-23.333 -9.5 -36 -11.5s-24.667 -3 -36 -3z" />
    <glyph glyph-name="uni00B9" unicode="&#xb9;" horiz-adv-x="313" 
d="M56 440v58.001h75v209h-75v44c12 0.666992 24.333 2.66699 37 6s25.167 8.16602 37.5 14.499s23.5 13.5 33.5 21.5h33v-295h69v-58h-210z" />
    <glyph glyph-name="ordmasculine" unicode="&#xba;" horiz-adv-x="345" 
d="M172 330c-31.333 0 -57.498 6.66699 -78.498 20s-36.667 33.666 -47 60.999s-15.5 62 -15.5 104s5.16699 76.5 15.5 103.5s26.166 47 47.499 60s47.666 19.5 78.999 19.5c32 0 58.5 -6.5 79.5 -19.5s36.667 -33 47 -60s15.5 -61.5 15.5 -103.5s-5.33301 -76.667 -16 -104
s-26.5 -47.666 -47.5 -60.999s-47.5 -20 -79.5 -20zM173.002 387c26.667 0 45.332 10.165 55.999 30.498s16 48.833 16 85.5v20c0 38.667 -5.5 67.834 -16.5 87.501s-29.5 29.5 -55.5 29.5s-44.5 -9.66699 -55.5 -29s-16.5 -48.333 -16.5 -87v-20
c0 -37.333 5.33301 -66.166 16 -86.499s29.334 -30.5 56.001 -30.5z" />
    <glyph glyph-name="guillemotright" unicode="&#xbb;" horiz-adv-x="507" 
d="M315 526l139 -200l-139 -201h-77l113 201l-113 200h77zM128 526l139 -200l-139 -201h-77l113 201l-113 200h77z" />
    <glyph glyph-name="onequarter" unicode="&#xbc;" horiz-adv-x="774" 
d="M111 -12l489 710h68l-488 -710h-69zM56 340v58.001h75v209h-75v44c12 0.666992 24.333 2.66699 37 6s25.167 8.16602 37.5 14.499s23.5 13.5 33.5 21.5h33v-295h69v-58h-210zM603 0.000976562l0.00195312 77.001h-140v51c17.333 33.333 32.5 69.166 45.5 107.499
s23.5 79.166 31.5 122.499h69c-4 -21.333 -9.66699 -43.166 -17 -65.499s-15 -43.833 -23 -64.5s-16 -39.334 -24 -56.001s-15 -30 -21 -40h79v78c3.33301 6.66699 6.66602 15.167 9.99902 25.5s6.66602 20.833 9.99902 31.5s6 20.334 8 29.001h37v-164h40v-55h-40v-77h-65z
" />
    <glyph glyph-name="onehalf" unicode="&#xbd;" horiz-adv-x="774" 
d="M111 -12l489 710h68l-488 -710h-69zM486 0l-0.00292969 22.9951c0 18.667 4.16699 35.334 12.5 50.001s19.166 28.334 32.499 41.001s27 24.667 41 36c20.667 18 38.834 35.333 54.501 52s23.5 35.667 23.5 57c0 12.667 -3.66699 23.334 -11 32.001s-19 13 -35 13
c-12 0 -21.667 -2.5 -29 -7.5s-12.666 -11.667 -15.999 -20s-5 -18.166 -5 -29.499v-22h-63c0 2.66699 -0.333008 6.5 -1 11.5s-1 9.5 -1 13.5c0 25.333 5.33301 46 16 62s25 27.833 43 35.5s37.667 11.5 59 11.5c25.333 0 46 -4.66699 62 -14s27.667 -21.666 35 -36.999
s11 -32.666 11 -51.999c0 -16.667 -2.83301 -31.667 -8.5 -45s-13.167 -25.833 -22.5 -37.5s-19.666 -22.334 -30.999 -32.001s-22.666 -19.167 -33.999 -28.5c-10.667 -9.33301 -21 -18.5 -31 -27.5s-18 -18.167 -24 -27.5h153v-58h-231zM55.9971 339.995v58.001h75v209
h-75v44c12 0.666992 24.333 2.66699 37 6s25.167 8.16602 37.5 14.499s23.5 13.5 33.5 21.5h33v-295h69v-58h-210z" />
    <glyph glyph-name="threequarters" unicode="&#xbe;" horiz-adv-x="774" 
d="M111 -12l489 710h68l-488 -710h-69zM158 328c-40 0 -70 9.49902 -90 28.499s-30 45.167 -30 78.5v11h65v-11c0 -16.667 4.33301 -29.5 13 -38.5s21.667 -13.5 39 -13.5c12 0 22 1.83301 30 5.5s14.167 9.5 18.5 17.5s6.5 18.667 6.5 32s-2.5 23.666 -7.5 30.999
s-11.833 12.5 -20.5 15.5s-18.334 4.5 -29.001 4.5h-33v55h34c10.667 0 19.5 1.83301 26.5 5.5s12.5 9.33398 16.5 17.001s6 17.5 6 29.5c0 11.333 -1.83301 20.5 -5.5 27.5s-8.83398 12.167 -15.501 15.5s-14.667 5 -24 5c-10 0 -18.5 -1.83301 -25.5 -5.5
s-12.5 -9.16699 -16.5 -16.5s-6 -16.333 -6 -27v-11h-65v13c0 20.667 4.66699 38.667 14 54s22.5 27.166 39.5 35.499s36.833 12.5 59.5 12.5s42.334 -3.83301 59.001 -11.5s29.5 -18.834 38.5 -33.501s13.5 -33 13.5 -55c0 -19.333 -4.16699 -35.166 -12.5 -47.499
s-19.166 -22.166 -32.499 -29.499v-3c16.667 -6.66699 29.5 -17.167 38.5 -31.5s13.5 -32.166 13.5 -53.499s-4.83301 -40 -14.5 -56s-23.167 -28.333 -40.5 -37s-38.333 -13 -63 -13zM603 -0.000976562l0.00195312 77.001h-140v51c17.333 33.333 32.5 69.166 45.5 107.499
s23.5 79.166 31.5 122.499h69c-4 -21.333 -9.66699 -43.166 -17 -65.499s-15 -43.833 -23 -64.5s-16 -39.334 -24 -56.001s-15 -30 -21 -40h79v78c3.33301 6.66699 6.66602 15.167 9.99902 25.5s6.66602 20.833 9.99902 31.5s6 20.334 8 29.001h37v-164h40v-55h-40v-77h-65z
" />
    <glyph glyph-name="questiondown" unicode="&#xbf;" horiz-adv-x="525" 
d="M259 -172c-28.667 0 -53.665 3.33105 -74.998 9.99805s-39.666 16 -54.999 28s-27.833 25.5 -37.5 40.5s-16.834 31.167 -21.501 48.5s-7 34.333 -7 51c0 31.333 3.83301 57.833 11.5 79.5s17.5 40 29.5 55s24.667 28.333 38 40s26.166 22.834 38.499 33.501
s22.166 22.667 29.499 36s11 29.666 11 48.999v41h92v-54c0 -24 -3.5 -44.5 -10.5 -61.5s-16 -31.833 -27 -44.5s-22.5 -24.334 -34.5 -35.001s-23.5 -22 -34.5 -34s-20 -25.333 -27 -40s-10.5 -32.667 -10.5 -54c0 -10.667 1.16699 -22 3.5 -34s6.83301 -23.167 13.5 -33.5
s16.334 -18.666 29.001 -24.999s29.667 -9.5 51 -9.5c23.333 0 42 4.16699 56 12.5s24.5 19 31.5 32s11.667 26.5 14 40.5s3.5 26.667 3.5 38v15v13h99c0.666992 -3.33301 1.33398 -8.16602 2.00098 -14.499s1 -13.166 1 -20.499c0 -18 -2.33301 -36.5 -7 -55.5
s-12 -37.167 -22 -54.5s-23.333 -33 -40 -47s-36.834 -25.167 -60.501 -33.5s-51.834 -12.5 -84.501 -12.5zM215.002 408.998v117h104v-117h-104z" />
    <glyph glyph-name="Agrave" unicode="&#xc0;" horiz-adv-x="614" 
d="M4 0l234 686h137l234 -686h-115l-54 163h-272l-54 -163h-110zM197 255l213.999 -0.000976562l-67 208c-2 6 -4.5 13.833 -7.5 23.5s-6.33301 20.334 -10 32.001s-7.16699 23.334 -10.5 35.001s-6.33301 22.5 -9 32.5h-6c-3.33301 -12 -7.33301 -25.833 -12 -41.5
s-9.16699 -30.834 -13.5 -45.501s-8.16602 -26.667 -11.499 -36zM357.999 737.999h-83l-100 129l1 3h106z" />
    <glyph glyph-name="Aacute" unicode="&#xc1;" horiz-adv-x="614" 
d="M4 0l234 686h137l234 -686h-115l-54 163h-272l-54 -163h-110zM197 255l213.999 -0.000976562l-67 208c-2 6 -4.5 13.833 -7.5 23.5s-6.33301 20.334 -10 32.001s-7.16699 23.334 -10.5 35.001s-6.33301 22.5 -9 32.5h-6c-3.33301 -12 -7.33301 -25.833 -12 -41.5
s-9.16699 -30.834 -13.5 -45.501s-8.16602 -26.667 -11.499 -36zM263.999 737.999l75 132h106l1 -3l-99 -129h-83z" />
    <glyph glyph-name="Acircumflex" unicode="&#xc2;" horiz-adv-x="614" 
d="M4 0l234 686h137l234 -686h-115l-54 163h-272l-54 -163h-110zM197 255l213.999 -0.000976562l-67 208c-2 6 -4.5 13.833 -7.5 23.5s-6.33301 20.334 -10 32.001s-7.16699 23.334 -10.5 35.001s-6.33301 22.5 -9 32.5h-6c-3.33301 -12 -7.33301 -25.833 -12 -41.5
s-9.16699 -30.834 -13.5 -45.501s-8.16602 -26.667 -11.499 -36zM163.999 737.999l95 132h95l96 -132h-86l-80 112h46l-81 -112h-85z" />
    <glyph glyph-name="Atilde" unicode="&#xc3;" horiz-adv-x="614" 
d="M4 0l234 686h137l234 -686h-115l-54 163h-272l-54 -163h-110zM197 255l213.999 -0.000976562l-67 208c-2 6 -4.5 13.833 -7.5 23.5s-6.33301 20.334 -10 32.001s-7.16699 23.334 -10.5 35.001s-6.33301 22.5 -9 32.5h-6c-3.33301 -12 -7.33301 -25.833 -12 -41.5
s-9.16699 -30.834 -13.5 -45.501s-8.16602 -26.667 -11.499 -36zM158.999 764.999c0 20 2.99805 37.666 8.99805 52.999s15 27.333 27 36s27 13 45 13c16 0 31.167 -2.66699 45.5 -8s28.333 -10.833 42 -16.5s26.834 -8.5 39.501 -8.5c10 0 17.333 2.83301 22 8.5
s7.66699 14.167 9 25.5h56c0 -19.333 -3 -36.666 -9 -51.999s-15 -27.5 -27 -36.5s-27.333 -13.5 -46 -13.5c-15.333 0 -30.166 2.83301 -44.499 8.5s-28 11.167 -41 16.5s-26.5 8 -40.5 8c-9.33301 0 -16.5 -2.83301 -21.5 -8.5s-8.16699 -14.167 -9.5 -25.5h-56z" />
    <glyph glyph-name="Adieresis" unicode="&#xc4;" horiz-adv-x="614" 
d="M4 0l234 686h137l234 -686h-115l-54 163h-272l-54 -163h-110zM197 255l213.999 -0.000976562l-67 208c-2 6 -4.5 13.833 -7.5 23.5s-6.33301 20.334 -10 32.001s-7.16699 23.334 -10.5 35.001s-6.33301 22.5 -9 32.5h-6c-3.33301 -12 -7.33301 -25.833 -12 -41.5
s-9.16699 -30.834 -13.5 -45.501s-8.16602 -26.667 -11.499 -36zM177.999 768.999v100h86v-100h-86zM349.999 768.999v100h86v-100h-86z" />
    <glyph glyph-name="Aring" unicode="&#xc5;" horiz-adv-x="614" 
d="M4 0l234 686h137l234 -686h-115l-54 163h-272l-54 -163h-110zM197 255l213.999 -0.000976562l-67 208c-2 6 -4.5 13.833 -7.5 23.5s-6.33301 20.334 -10 32.001s-7.16699 23.334 -10.5 35.001s-6.33301 22.5 -9 32.5h-6c-3.33301 -12 -7.33301 -25.833 -12 -41.5
s-9.16699 -30.834 -13.5 -45.501s-8.16602 -26.667 -11.499 -36zM306.999 728.999c-28 0 -50.833 9.16699 -68.5 27.5s-26.5 41.166 -26.5 68.499c0 28.667 8.83301 52 26.5 70s40.5 27 68.5 27s50.833 -9 68.5 -27s26.5 -41.333 26.5 -70c0 -27.333 -9 -50.166 -27 -68.499
s-40.667 -27.5 -68 -27.5zM306.999 779.999c12.667 0 22.834 4.16602 30.501 12.499s11.5 19.5 11.5 33.5c0 13.333 -3.83301 24.333 -11.5 33s-17.834 13 -30.501 13s-22.834 -4.33301 -30.501 -13s-11.5 -20 -11.5 -34c0 -13.333 3.83301 -24.166 11.5 -32.499
s17.834 -12.5 30.501 -12.5z" />
    <glyph glyph-name="AE" unicode="&#xc6;" horiz-adv-x="888" 
d="M-4 0l286 686h555v-93h-389l49 -196h300v-93h-278l52 -211h272v-93h-360l-40 165h-270l-67 -165h-110zM208 256h213.999l-59 243c-1.33301 7.33301 -2.83301 14.833 -4.5 22.5s-3.16699 15.167 -4.5 22.5s-2.66602 14.5 -3.99902 21.5s-2.66602 13.167 -3.99902 18.5h-6
c-1.33301 -4 -3.16602 -9.33301 -5.49902 -16s-4.83301 -14.167 -7.5 -22.5s-5.33398 -16.5 -8.00098 -24.5s-5.33398 -15.333 -8.00098 -22z" />
    <glyph glyph-name="Ccedilla" unicode="&#xc7;" horiz-adv-x="648" 
d="M336 -12c-64 0 -117.832 12.6689 -161.499 38.002s-76.334 64.166 -98.001 116.499s-32.5 119.166 -32.5 200.499c0 120.667 25.5 210 76.5 268s124.5 87 220.5 87c53.333 0 100 -9.5 140 -28.5s71.167 -48 93.5 -87s33.5 -88.5 33.5 -148.5h-108
c0 37.333 -6.33301 68.833 -19 94.5s-31 45 -55 58s-52.667 19.5 -86 19.5c-40 0 -74 -8.83301 -102 -26.5s-48.833 -44.667 -62.5 -81s-20.5 -82.5 -20.5 -138.5v-37c0 -56 6.83301 -101.833 20.5 -137.5s34.167 -62.167 61.5 -79.5s61.333 -26 102 -26
c34 0 63.333 6.33301 88 19s43.5 31.667 56.5 57s19.5 57 19.5 95h105c0 -60 -11.667 -109.5 -35 -148.5s-55.333 -67.833 -96 -86.5s-87.667 -28 -141 -28zM340.001 -182.998c-14.667 0 -29.667 0.668945 -45 2.00195s-29 3.33301 -41 6v43h79
c13.333 0 23.333 2.16699 30 6.5s10 11.166 10 20.499c0 8.66699 -2.83301 15 -8.5 19s-15.5 6 -29.5 6h-39l14 94h62l-5 -51c14 -0.666992 27.333 -3.33398 40 -8.00098s23 -11.667 31 -21s12 -22 12 -38c0 -16.667 -3.5 -30.167 -10.5 -40.5s-16.167 -18.333 -27.5 -24
s-23.333 -9.5 -36 -11.5s-24.667 -3 -36 -3z" />
    <glyph glyph-name="Egrave" unicode="&#xc8;" horiz-adv-x="596" 
d="M73 0v686h472v-92h-365v-197h325v-93h-325v-211h371v-93h-478zM362 738h-82l-100 129l1 3h106z" />
    <glyph glyph-name="Eacute" unicode="&#xc9;" horiz-adv-x="596" 
d="M73 0v686h472v-92h-365v-197h325v-93h-325v-211h371v-93h-478zM269 738l75 132h107v-3l-100 -129h-82z" />
    <glyph glyph-name="Ecircumflex" unicode="&#xca;" horiz-adv-x="596" 
d="M73 0v686h472v-92h-365v-197h325v-93h-325v-211h371v-93h-478zM169 738l95 132h95l96 -132h-86l-80 112h46l-81 -112h-85z" />
    <glyph glyph-name="Edieresis" unicode="&#xcb;" horiz-adv-x="596" 
d="M73 0v686h472v-92h-365v-197h325v-93h-325v-211h371v-93h-478zM183 769v100h86v-100h-86zM354 769v100h87v-100h-87z" />
    <glyph glyph-name="Igrave" unicode="&#xcc;" horiz-adv-x="253" 
d="M73 0v686h107v-686h-107zM177 738h-83l-100 129l1 3h107z" />
    <glyph glyph-name="Iacute" unicode="&#xcd;" horiz-adv-x="253" 
d="M73 0v686h107v-686h-107zM83 738l76 132h106l1 -3l-100 -129h-83z" />
    <glyph glyph-name="Icircumflex" unicode="&#xce;" horiz-adv-x="253" 
d="M73 0v686h107v-686h-107zM-17 738l96 132h95l96 -132h-86l-80 112h46l-81 -112h-86z" />
    <glyph glyph-name="Idieresis" unicode="&#xcf;" horiz-adv-x="253" 
d="M73 0v686h107v-686h-107zM-3 769v100h87v-100h-87zM169 769v100h87v-100h-87z" />
    <glyph glyph-name="Eth" unicode="&#xd0;" horiz-adv-x="653" 
d="M0 306v84h333v-84h-333zM73 0l-0.000976562 685.999h237c64.667 0 119.167 -12 163.5 -36s78 -61.167 101 -111.5s34.5 -115.166 34.5 -194.499s-11.5 -144.333 -34.5 -195s-56.667 -88.167 -101 -112.5s-99.166 -36.5 -164.499 -36.5h-236zM179.999 92.999
l124.997 -0.000976562c30.667 0 57.834 4.16699 81.501 12.5s43.834 21.5 60.501 39.5s29.334 41.833 38.001 71.5s13 65.5 13 107.5v34c0 42.667 -4.33301 79 -13 109s-21.167 54.333 -37.5 73s-36.5 32.334 -60.5 41.001s-51.333 13 -82 13h-125v-501z" />
    <glyph glyph-name="Ntilde" unicode="&#xd1;" horiz-adv-x="654" 
d="M73 0l0.000976562 686.001h103l266 -419c2.66699 -4.66699 6.16699 -10.667 10.5 -18s8.33301 -14.666 12 -21.999l9.5 -19h4v31.5v27.5v419h104v-686h-100l-269 425c-4 7.33301 -9.33301 17.166 -16 29.499s-12.334 23.166 -17.001 32.499h-4v-31.5v-31.5v-424h-103z
M181.001 765.001c0 20 2.99609 37.666 8.99609 52.999s15 27.333 27 36s27 13 45 13c16 0 31 -2.66699 45 -8s27.833 -10.833 41.5 -16.5s27.167 -8.5 40.5 -8.5c9.33301 0 16.5 2.83301 21.5 8.5s8.16699 14.167 9.5 25.5h56c0 -19.333 -3.16699 -36.666 -9.5 -51.999
s-15.5 -27.5 -27.5 -36.5s-27 -13.5 -45 -13.5c-15.333 0 -30.166 2.83301 -44.499 8.5s-28.166 11.167 -41.499 16.5s-26.666 8 -39.999 8c-9.33301 0 -16.666 -2.83301 -21.999 -8.5s-8.33301 -14.167 -9 -25.5h-56z" />
    <glyph glyph-name="Ograve" unicode="&#xd2;" horiz-adv-x="699" 
d="M350 -12c-64 0 -119 12.833 -165 38.5s-81 64.834 -105 117.501s-36 119 -36 199c0 80.667 12 147.167 36 199.5s59 91.333 105 117s101 38.5 165 38.5c64.667 0 119.667 -12.833 165 -38.5s80 -64.667 104 -117s36 -118.833 36 -199.5c0 -80 -12 -146.333 -36 -199
s-58.667 -91.834 -104 -117.501s-100.333 -38.5 -165 -38.5zM350 80c31.333 0 59 5 83 15s44.333 25.167 61 45.5s29.334 45.833 38.001 76.5s13 66.667 13 108v36c0 41.333 -4.33301 77.333 -13 108s-21.334 56.167 -38.001 76.5s-37 35.5 -61 45.5s-51.667 15 -83 15
s-59.166 -5 -83.499 -15s-44.833 -25.167 -61.5 -45.5s-29.167 -45.833 -37.5 -76.5s-12.5 -66.667 -12.5 -108v-36c0 -41.333 4.16699 -77.333 12.5 -108s20.833 -56.167 37.5 -76.5s37.167 -35.5 61.5 -45.5s52.166 -15 83.499 -15zM400 738h-83l-100 129l1 3h106z" />
    <glyph glyph-name="Oacute" unicode="&#xd3;" horiz-adv-x="699" 
d="M350 -12c-64 0 -119 12.833 -165 38.5s-81 64.834 -105 117.501s-36 119 -36 199c0 80.667 12 147.167 36 199.5s59 91.333 105 117s101 38.5 165 38.5c64.667 0 119.667 -12.833 165 -38.5s80 -64.667 104 -117s36 -118.833 36 -199.5c0 -80 -12 -146.333 -36 -199
s-58.667 -91.834 -104 -117.501s-100.333 -38.5 -165 -38.5zM350 80c31.333 0 59 5 83 15s44.333 25.167 61 45.5s29.334 45.833 38.001 76.5s13 66.667 13 108v36c0 41.333 -4.33301 77.333 -13 108s-21.334 56.167 -38.001 76.5s-37 35.5 -61 45.5s-51.667 15 -83 15
s-59.166 -5 -83.499 -15s-44.833 -25.167 -61.5 -45.5s-29.167 -45.833 -37.5 -76.5s-12.5 -66.667 -12.5 -108v-36c0 -41.333 4.16699 -77.333 12.5 -108s20.833 -56.167 37.5 -76.5s37.167 -35.5 61.5 -45.5s52.166 -15 83.499 -15zM306 738l76 132h106l1 -3l-100 -129
h-83z" />
    <glyph glyph-name="Ocircumflex" unicode="&#xd4;" horiz-adv-x="699" 
d="M350 -12c-64 0 -119 12.833 -165 38.5s-81 64.834 -105 117.501s-36 119 -36 199c0 80.667 12 147.167 36 199.5s59 91.333 105 117s101 38.5 165 38.5c64.667 0 119.667 -12.833 165 -38.5s80 -64.667 104 -117s36 -118.833 36 -199.5c0 -80 -12 -146.333 -36 -199
s-58.667 -91.834 -104 -117.501s-100.333 -38.5 -165 -38.5zM350 80c31.333 0 59 5 83 15s44.333 25.167 61 45.5s29.334 45.833 38.001 76.5s13 66.667 13 108v36c0 41.333 -4.33301 77.333 -13 108s-21.334 56.167 -38.001 76.5s-37 35.5 -61 45.5s-51.667 15 -83 15
s-59.166 -5 -83.499 -15s-44.833 -25.167 -61.5 -45.5s-29.167 -45.833 -37.5 -76.5s-12.5 -66.667 -12.5 -108v-36c0 -41.333 4.16699 -77.333 12.5 -108s20.833 -56.167 37.5 -76.5s37.167 -35.5 61.5 -45.5s52.166 -15 83.499 -15zM206 738l96 132h95l95 -132h-86
l-79 112h46l-81 -112h-86z" />
    <glyph glyph-name="Otilde" unicode="&#xd5;" horiz-adv-x="699" 
d="M350 -12c-64 0 -119 12.833 -165 38.5s-81 64.834 -105 117.501s-36 119 -36 199c0 80.667 12 147.167 36 199.5s59 91.333 105 117s101 38.5 165 38.5c64.667 0 119.667 -12.833 165 -38.5s80 -64.667 104 -117s36 -118.833 36 -199.5c0 -80 -12 -146.333 -36 -199
s-58.667 -91.834 -104 -117.501s-100.333 -38.5 -165 -38.5zM350 80c31.333 0 59 5 83 15s44.333 25.167 61 45.5s29.334 45.833 38.001 76.5s13 66.667 13 108v36c0 41.333 -4.33301 77.333 -13 108s-21.334 56.167 -38.001 76.5s-37 35.5 -61 45.5s-51.667 15 -83 15
s-59.166 -5 -83.499 -15s-44.833 -25.167 -61.5 -45.5s-29.167 -45.833 -37.5 -76.5s-12.5 -66.667 -12.5 -108v-36c0 -41.333 4.16699 -77.333 12.5 -108s20.833 -56.167 37.5 -76.5s37.167 -35.5 61.5 -45.5s52.166 -15 83.499 -15zM202 765
c0 20 2.99609 37.666 8.99609 52.999s15 27.333 27 36s27 13 45 13c16 0 31 -2.66699 45 -8s27.833 -10.833 41.5 -16.5s27.167 -8.5 40.5 -8.5c9.33301 0 16.5 2.83301 21.5 8.5s8.16699 14.167 9.5 25.5h56c-0.666992 -19.333 -4 -36.666 -10 -51.999s-15 -27.5 -27 -36.5
s-27 -13.5 -45 -13.5c-15.333 0 -30.166 2.83301 -44.499 8.5s-28.166 11.167 -41.499 16.5s-26.666 8 -39.999 8c-9.33301 0 -16.666 -2.83301 -21.999 -8.5s-8.33301 -14.167 -9 -25.5h-56z" />
    <glyph glyph-name="Odieresis" unicode="&#xd6;" horiz-adv-x="699" 
d="M350 -12c-64 0 -119 12.833 -165 38.5s-81 64.834 -105 117.501s-36 119 -36 199c0 80.667 12 147.167 36 199.5s59 91.333 105 117s101 38.5 165 38.5c64.667 0 119.667 -12.833 165 -38.5s80 -64.667 104 -117s36 -118.833 36 -199.5c0 -80 -12 -146.333 -36 -199
s-58.667 -91.834 -104 -117.501s-100.333 -38.5 -165 -38.5zM350 80c31.333 0 59 5 83 15s44.333 25.167 61 45.5s29.334 45.833 38.001 76.5s13 66.667 13 108v36c0 41.333 -4.33301 77.333 -13 108s-21.334 56.167 -38.001 76.5s-37 35.5 -61 45.5s-51.667 15 -83 15
s-59.166 -5 -83.499 -15s-44.833 -25.167 -61.5 -45.5s-29.167 -45.833 -37.5 -76.5s-12.5 -66.667 -12.5 -108v-36c0 -41.333 4.16699 -77.333 12.5 -108s20.833 -56.167 37.5 -76.5s37.167 -35.5 61.5 -45.5s52.166 -15 83.499 -15zM220 769v100h87v-100h-87zM392 769v100
h87v-100h-87z" />
    <glyph glyph-name="multiply" unicode="&#xd7;" horiz-adv-x="579" 
d="M148 56l-58 58l142 142l-142 142l58 59l142 -142l142 142l58 -59l-142 -142l142 -141l-59 -59l-142 142z" />
    <glyph glyph-name="Oslash" unicode="&#xd8;" horiz-adv-x="699" 
d="M350 -12c-64 0 -119 12.833 -165 38.5s-81 64.834 -105 117.501s-36 119 -36 199c0 80.667 12 147.167 36 199.5s59 91.333 105 117s101 38.5 165 38.5c64.667 0 119.667 -12.833 165 -38.5s80 -64.667 104 -117s36 -118.833 36 -199.5c0 -80 -12 -146.333 -36 -199
s-58.667 -91.834 -104 -117.501s-100.333 -38.5 -165 -38.5zM350 80c31.333 0 59 5 83 15s44.333 25.167 61 45.5s29.334 45.833 38.001 76.5s13 66.667 13 108v36c0 41.333 -4.33301 77.333 -13 108s-21.334 56.167 -38.001 76.5s-37 35.5 -61 45.5s-51.667 15 -83 15
s-59.166 -5 -83.499 -15s-44.833 -25.167 -61.5 -45.5s-29.167 -45.833 -37.5 -76.5s-12.5 -66.667 -12.5 -108v-36c0 -41.333 4.16699 -77.333 12.5 -108s20.833 -56.167 37.5 -76.5s37.167 -35.5 61.5 -45.5s52.166 -15 83.499 -15zM49 -48l516 782h84l-517 -782h-83z" />
    <glyph glyph-name="Ugrave" unicode="&#xd9;" horiz-adv-x="647" 
d="M322 -12c-52 0 -97 8.66699 -135 26s-67.167 44.833 -87.5 82.5s-30.5 86.5 -30.5 146.5v443h108v-449c0 -52.667 12.333 -92 37 -118s60.667 -39 108 -39c48 0 84.833 13 110.5 39s38.5 65.333 38.5 118v449h107v-443c0 -60 -10.333 -108.833 -31 -146.5
s-50 -65.167 -88 -82.5s-83.667 -26 -137 -26zM374 738h-83l-100 129l1 3h107z" />
    <glyph glyph-name="Uacute" unicode="&#xda;" horiz-adv-x="647" 
d="M322 -12c-52 0 -97 8.66699 -135 26s-67.167 44.833 -87.5 82.5s-30.5 86.5 -30.5 146.5v443h108v-449c0 -52.667 12.333 -92 37 -118s60.667 -39 108 -39c48 0 84.833 13 110.5 39s38.5 65.333 38.5 118v449h107v-443c0 -60 -10.333 -108.833 -31 -146.5
s-50 -65.167 -88 -82.5s-83.667 -26 -137 -26zM280 738l76 132h106l1 -3l-100 -129h-83z" />
    <glyph glyph-name="Ucircumflex" unicode="&#xdb;" horiz-adv-x="647" 
d="M322 -12c-52 0 -97 8.66699 -135 26s-67.167 44.833 -87.5 82.5s-30.5 86.5 -30.5 146.5v443h108v-449c0 -52.667 12.333 -92 37 -118s60.667 -39 108 -39c48 0 84.833 13 110.5 39s38.5 65.333 38.5 118v449h107v-443c0 -60 -10.333 -108.833 -31 -146.5
s-50 -65.167 -88 -82.5s-83.667 -26 -137 -26zM180 738l96 132h95l95 -132h-85l-80 112h46l-81 -112h-86z" />
    <glyph glyph-name="Udieresis" unicode="&#xdc;" horiz-adv-x="647" 
d="M322 -12c-52.667 0 -97.833 8.66699 -135.5 26s-66.667 44.833 -87 82.5s-30.5 86.5 -30.5 146.5v443h108v-449c0 -52.667 12.333 -92 37 -118s60.667 -39 108 -39c48 0 84.833 13 110.5 39s38.5 65.333 38.5 118v449h107v-443c0 -60 -10.333 -108.833 -31 -146.5
s-50 -65.167 -88 -82.5s-83.667 -26 -137 -26zM194.001 769v100h87v-100h-87zM366.001 769v100h87v-100h-87z" />
    <glyph glyph-name="Yacute" unicode="&#xdd;" horiz-adv-x="604" 
d="M248 0v281l-236 405h120l170 -301h5l170 301h114l-235 -405v-281h-108zM260 738l75 132h106l1 -3l-99 -129h-83z" />
    <glyph glyph-name="Thorn" unicode="&#xde;" horiz-adv-x="610" 
d="M74 0v686h107v-117h180c48.667 0 88.167 -9 118.5 -27s52.833 -42.833 67.5 -74.5s22 -68.5 22 -110.5c0 -43.333 -8 -81.5 -24 -114.5s-39.333 -58.667 -70 -77s-68.667 -27.5 -114 -27.5h-180v-138h-107zM181 230l170.001 -0.000976562c35.333 0 62.333 11.333 81 34
s28 53.334 28 92.001c0 24.667 -3.83301 46 -11.5 64s-19.334 32 -35.001 42s-36.5 15 -62.5 15h-170v-247z" />
    <glyph glyph-name="germandbls" unicode="&#xdf;" horiz-adv-x="556" 
d="M67 0v520.001c0 39.333 5.83301 72.5 17.5 99.5s27.667 49 48 66s43.833 29.5 70.5 37.5s54.667 12 84 12c33.333 0 62.833 -4 88.5 -12s47.5 -19.833 65.5 -35.5s31.667 -34.5 41 -56.5s14 -47 14 -75c0 -37.333 -9.33301 -70.166 -28 -98.499
s-43.667 -48.833 -75 -61.5v-4c39.333 -12 70.333 -34 93 -66s34 -71.333 34 -118c0 -42.667 -8.66699 -79.667 -26 -111s-41.333 -55.333 -72 -72s-66 -25 -106 -25h-81v84h69c23.333 0 43.5 5.16699 60.5 15.5s30.167 25.333 39.5 45s14 43.167 14 70.5
c0 25.333 -4.83301 47.666 -14.5 66.999s-23 34.166 -40 44.499s-36.833 15.5 -59.5 15.5h-69v87h60c20 0 37.333 5.16699 52 15.5s26.5 24.333 35.5 42s13.5 37.167 13.5 58.5c0 32 -9.33301 57.833 -28 77.5s-46 29.5 -82 29.5c-24.667 0 -46 -4.66699 -64 -14
s-31.833 -23.5 -41.5 -42.5s-14.5 -42.5 -14.5 -70.5v-525h-99z" />
    <glyph glyph-name="agrave" unicode="&#xe0;" horiz-adv-x="499" 
d="M182 -12c-17.333 0 -34.8281 2.33496 -52.4951 7.00195s-33.834 12.5 -48.501 23.5s-26.334 25.833 -35.001 44.5s-13 42 -13 70c0 32.667 6.66699 60.334 20 83.001s32.833 41.167 58.5 55.5s57.334 24.833 95.001 31.5s80.167 10 127.5 10v60
c0 17.333 -2.66699 32.333 -8 45s-14.5 22.5 -27.5 29.5s-31.167 10.5 -54.5 10.5c-24.667 0 -43.834 -3.66699 -57.501 -11s-23 -16.666 -28 -27.999s-7.5 -24 -7.5 -38v-12h-95c-0.666992 3.33301 -1 6.66602 -1 9.99902v11c0 33.333 8.33301 61 25 83
s39.5 38.333 68.5 49s62.167 16 99.5 16c40 0 73.667 -5.83301 101 -17.5s48 -29.334 62 -53.001s21 -53.834 21 -90.501v-272c0 -12 3 -20.667 9 -26s13 -8 21 -8h33v-67c-8.66699 -3.33301 -18.834 -6.66602 -30.501 -9.99902s-24.834 -5 -39.501 -5
c-16.667 0 -30.667 3.16699 -42 9.5s-20.333 15.166 -27 26.499s-11.334 24.333 -14.001 39h-6c-10 -14.667 -22.333 -27.834 -37 -39.501s-31.667 -20.667 -51 -27s-41.333 -9.5 -66 -9.5zM212.005 70.002c16.667 0 32.333 3.16699 47 9.5s27.5 15 38.5 26
s19.833 24.667 26.5 41s10 34.5 10 54.5v43c-43.333 0 -79.833 -3.5 -109.5 -10.5s-52 -17.833 -67 -32.5s-22.5 -33.667 -22.5 -57c0 -16 3 -29.5 9 -40.5s14.667 -19.333 26 -25s25.333 -8.5 42 -8.5zM300.004 591.002h-79l-99 129v3h102z" />
    <glyph glyph-name="aacute" unicode="&#xe1;" horiz-adv-x="499" 
d="M182 -12c-17.333 0 -34.8281 2.33496 -52.4951 7.00195s-33.834 12.5 -48.501 23.5s-26.334 25.833 -35.001 44.5s-13 42 -13 70c0 32.667 6.66699 60.334 20 83.001s32.833 41.167 58.5 55.5s57.334 24.833 95.001 31.5s80.167 10 127.5 10v60
c0 17.333 -2.66699 32.333 -8 45s-14.5 22.5 -27.5 29.5s-31.167 10.5 -54.5 10.5c-24.667 0 -43.834 -3.66699 -57.501 -11s-23 -16.666 -28 -27.999s-7.5 -24 -7.5 -38v-12h-95c-0.666992 3.33301 -1 6.66602 -1 9.99902v11c0 33.333 8.33301 61 25 83
s39.5 38.333 68.5 49s62.167 16 99.5 16c40 0 73.667 -5.83301 101 -17.5s48 -29.334 62 -53.001s21 -53.834 21 -90.501v-272c0 -12 3 -20.667 9 -26s13 -8 21 -8h33v-67c-8.66699 -3.33301 -18.834 -6.66602 -30.501 -9.99902s-24.834 -5 -39.501 -5
c-16.667 0 -30.667 3.16699 -42 9.5s-20.333 15.166 -27 26.499s-11.334 24.333 -14.001 39h-6c-10 -14.667 -22.333 -27.834 -37 -39.501s-31.667 -20.667 -51 -27s-41.333 -9.5 -66 -9.5zM212.005 70.002c16.667 0 32.333 3.16699 47 9.5s27.5 15 38.5 26
s19.833 24.667 26.5 41s10 34.5 10 54.5v43c-43.333 0 -79.833 -3.5 -109.5 -10.5s-52 -17.833 -67 -32.5s-22.5 -33.667 -22.5 -57c0 -16 3 -29.5 9 -40.5s14.667 -19.333 26 -25s25.333 -8.5 42 -8.5zM196.004 591.002l75 132h102l1 -3l-100 -129h-78z" />
    <glyph glyph-name="acircumflex" unicode="&#xe2;" horiz-adv-x="499" 
d="M182 -12c-17.333 0 -34.8281 2.33496 -52.4951 7.00195s-33.834 12.5 -48.501 23.5s-26.334 25.833 -35.001 44.5s-13 42 -13 70c0 32.667 6.66699 60.334 20 83.001s32.833 41.167 58.5 55.5s57.334 24.833 95.001 31.5s80.167 10 127.5 10v60
c0 17.333 -2.66699 32.333 -8 45s-14.5 22.5 -27.5 29.5s-31.167 10.5 -54.5 10.5c-24.667 0 -43.834 -3.66699 -57.501 -11s-23 -16.666 -28 -27.999s-7.5 -24 -7.5 -38v-12h-95c-0.666992 3.33301 -1 6.66602 -1 9.99902v11c0 33.333 8.33301 61 25 83
s39.5 38.333 68.5 49s62.167 16 99.5 16c40 0 73.667 -5.83301 101 -17.5s48 -29.334 62 -53.001s21 -53.834 21 -90.501v-272c0 -12 3 -20.667 9 -26s13 -8 21 -8h33v-67c-8.66699 -3.33301 -18.834 -6.66602 -30.501 -9.99902s-24.834 -5 -39.501 -5
c-16.667 0 -30.667 3.16699 -42 9.5s-20.333 15.166 -27 26.499s-11.334 24.333 -14.001 39h-6c-10 -14.667 -22.333 -27.834 -37 -39.501s-31.667 -20.667 -51 -27s-41.333 -9.5 -66 -9.5zM212.005 70.002c16.667 0 32.333 3.16699 47 9.5s27.5 15 38.5 26
s19.833 24.667 26.5 41s10 34.5 10 54.5v43c-43.333 0 -79.833 -3.5 -109.5 -10.5s-52 -17.833 -67 -32.5s-22.5 -33.667 -22.5 -57c0 -16 3 -29.5 9 -40.5s14.667 -19.333 26 -25s25.333 -8.5 42 -8.5zM107.004 591.002l95 132h87l95 -132h-81l-80 112h46l-81 -112h-81z
" />
    <glyph glyph-name="atilde" unicode="&#xe3;" horiz-adv-x="499" 
d="M182 -12c-17.333 0 -34.8281 2.33496 -52.4951 7.00195s-33.834 12.5 -48.501 23.5s-26.334 25.833 -35.001 44.5s-13 42 -13 70c0 32.667 6.66699 60.334 20 83.001s32.833 41.167 58.5 55.5s57.334 24.833 95.001 31.5s80.167 10 127.5 10v60
c0 17.333 -2.66699 32.333 -8 45s-14.5 22.5 -27.5 29.5s-31.167 10.5 -54.5 10.5c-24.667 0 -43.834 -3.66699 -57.501 -11s-23 -16.666 -28 -27.999s-7.5 -24 -7.5 -38v-12h-95c-0.666992 3.33301 -1 6.66602 -1 9.99902v11c0 33.333 8.33301 61 25 83
s39.5 38.333 68.5 49s62.167 16 99.5 16c40 0 73.667 -5.83301 101 -17.5s48 -29.334 62 -53.001s21 -53.834 21 -90.501v-272c0 -12 3 -20.667 9 -26s13 -8 21 -8h33v-67c-8.66699 -3.33301 -18.834 -6.66602 -30.501 -9.99902s-24.834 -5 -39.501 -5
c-16.667 0 -30.667 3.16699 -42 9.5s-20.333 15.166 -27 26.499s-11.334 24.333 -14.001 39h-6c-10 -14.667 -22.333 -27.834 -37 -39.501s-31.667 -20.667 -51 -27s-41.333 -9.5 -66 -9.5zM212.005 70.002c16.667 0 32.333 3.16699 47 9.5s27.5 15 38.5 26
s19.833 24.667 26.5 41s10 34.5 10 54.5v43c-43.333 0 -79.833 -3.5 -109.5 -10.5s-52 -17.833 -67 -32.5s-22.5 -33.667 -22.5 -57c0 -16 3 -29.5 9 -40.5s14.667 -19.333 26 -25s25.333 -8.5 42 -8.5zM98.0039 617.002c0 20 2.99902 37.666 8.99902 52.999
s15 27.5 27 36.5s27 13.5 45 13.5c16 0 31.167 -2.66699 45.5 -8s28.166 -10.833 41.499 -16.5s26.666 -8.5 39.999 -8.5c9.33301 0 16.5 2.83301 21.5 8.5s8.16699 13.834 9.5 24.501h56c0 -18.667 -3 -35.834 -9 -51.501s-15 -28 -27 -37s-27.333 -13.5 -46 -13.5
c-15.333 0 -30.166 2.83301 -44.499 8.5s-28.166 11.334 -41.499 17.001s-26.666 8.5 -39.999 8.5c-9.33301 0 -16.5 -3 -21.5 -9s-8.16699 -14.667 -9.5 -26h-56z" />
    <glyph glyph-name="adieresis" unicode="&#xe4;" horiz-adv-x="499" 
d="M182 -12c-17.333 0 -34.8281 2.33496 -52.4951 7.00195s-33.834 12.5 -48.501 23.5s-26.334 25.833 -35.001 44.5s-13 42 -13 70c0 32.667 6.66699 60.334 20 83.001s32.833 41.167 58.5 55.5s57.334 24.833 95.001 31.5s80.167 10 127.5 10v60
c0 17.333 -2.66699 32.333 -8 45s-14.5 22.5 -27.5 29.5s-31.167 10.5 -54.5 10.5c-24.667 0 -43.834 -3.66699 -57.501 -11s-23 -16.666 -28 -27.999s-7.5 -24 -7.5 -38v-12h-95c-0.666992 3.33301 -1 6.66602 -1 9.99902v11c0 33.333 8.33301 61 25 83
s39.5 38.333 68.5 49s62.167 16 99.5 16c40 0 73.667 -5.83301 101 -17.5s48 -29.334 62 -53.001s21 -53.834 21 -90.501v-272c0 -12 3 -20.667 9 -26s13 -8 21 -8h33v-67c-8.66699 -3.33301 -18.834 -6.66602 -30.501 -9.99902s-24.834 -5 -39.501 -5
c-16.667 0 -30.667 3.16699 -42 9.5s-20.333 15.166 -27 26.499s-11.334 24.333 -14.001 39h-6c-10 -14.667 -22.333 -27.834 -37 -39.501s-31.667 -20.667 -51 -27s-41.333 -9.5 -66 -9.5zM212.005 70.002c16.667 0 32.333 3.16699 47 9.5s27.5 15 38.5 26
s19.833 24.667 26.5 41s10 34.5 10 54.5v43c-43.333 0 -79.833 -3.5 -109.5 -10.5s-52 -17.833 -67 -32.5s-22.5 -33.667 -22.5 -57c0 -16 3 -29.5 9 -40.5s14.667 -19.333 26 -25s25.333 -8.5 42 -8.5zM116.004 624.002v99h87v-99h-87zM288.004 624.002v99h87v-99h-87z" />
    <glyph glyph-name="aring" unicode="&#xe5;" horiz-adv-x="499" 
d="M182 -12c-17.333 0 -34.8281 2.33496 -52.4951 7.00195s-33.834 12.5 -48.501 23.5s-26.334 25.833 -35.001 44.5s-13 42 -13 70c0 32.667 6.66699 60.334 20 83.001s32.833 41.167 58.5 55.5s57.334 24.833 95.001 31.5s80.167 10 127.5 10v60
c0 17.333 -2.66699 32.333 -8 45s-14.5 22.5 -27.5 29.5s-31.167 10.5 -54.5 10.5c-24.667 0 -43.834 -3.66699 -57.501 -11s-23 -16.666 -28 -27.999s-7.5 -24 -7.5 -38v-12h-95c-0.666992 3.33301 -1 6.66602 -1 9.99902v11c0 33.333 8.33301 61 25 83
s39.5 38.333 68.5 49s62.167 16 99.5 16c40 0 73.667 -5.83301 101 -17.5s48 -29.334 62 -53.001s21 -53.834 21 -90.501v-272c0 -12 3 -20.667 9 -26s13 -8 21 -8h33v-67c-8.66699 -3.33301 -18.834 -6.66602 -30.501 -9.99902s-24.834 -5 -39.501 -5
c-16.667 0 -30.667 3.16699 -42 9.5s-20.333 15.166 -27 26.499s-11.334 24.333 -14.001 39h-6c-10 -14.667 -22.333 -27.834 -37 -39.501s-31.667 -20.667 -51 -27s-41.333 -9.5 -66 -9.5zM212.005 70.002c16.667 0 32.333 3.16699 47 9.5s27.5 15 38.5 26
s19.833 24.667 26.5 41s10 34.5 10 54.5v43c-43.333 0 -79.833 -3.5 -109.5 -10.5s-52 -17.833 -67 -32.5s-22.5 -33.667 -22.5 -57c0 -16 3 -29.5 9 -40.5s14.667 -19.333 26 -25s25.333 -8.5 42 -8.5zM246.004 579.002c-26.667 0 -48.5 9.16699 -65.5 27.5
s-25.5 41.166 -25.5 68.499c0 28.667 8.5 52 25.5 70s38.833 27 65.5 27s48.5 -9 65.5 -27s25.5 -41.333 25.5 -70c0 -27.333 -8.5 -50.166 -25.5 -68.499s-38.833 -27.5 -65.5 -27.5zM246.004 627.002c12.667 0 22.834 4.5 30.501 13.5s11.5 20.833 11.5 35.5
c0 14 -3.83301 25.667 -11.5 35s-17.834 14 -30.501 14s-22.834 -4.66699 -30.501 -14s-11.5 -21.333 -11.5 -36c0 -14 3.83301 -25.5 11.5 -34.5s17.834 -13.5 30.501 -13.5z" />
    <glyph glyph-name="ae" unicode="&#xe6;" horiz-adv-x="801" 
d="M199 -12c-19.333 0 -38.668 2.33203 -58.001 6.99902s-37.166 12.5 -53.499 23.5s-29.5 25.833 -39.5 44.5s-15 42 -15 70c0 32.667 6.83301 60.167 20.5 82.5s34 40.666 61 54.999s59.833 24.666 98.5 30.999s82.667 9.5 132 9.5v62c0 17.333 -2.83301 32.333 -8.5 45
s-15.334 22.5 -29.001 29.5s-33.167 10.5 -58.5 10.5c-26 0 -46.167 -3.66699 -60.5 -11s-24.166 -16.666 -29.499 -27.999s-8 -24 -8 -38v-12h-95c-0.666992 3.33301 -1 6.5 -1 9.5v10.5c0 33.333 8.33301 61.166 25 83.499s39.834 38.833 69.501 49.5
s63.834 16 102.501 16c36.667 0 68.167 -5.33301 94.5 -16s46.833 -26.667 61.5 -48c18 22 39.667 38.167 65 48.5s55 15.5 89 15.5c44.667 0 82 -8.66699 112 -26s52.5 -45 67.5 -83s22.5 -88 22.5 -150v-37h-319c0.666992 -40 4.83398 -73 12.501 -99s20 -45.167 37 -57.5
s38.833 -18.5 65.5 -18.5c16.667 0 31.167 2.33301 43.5 7s23.166 11.834 32.499 21.501s16.5 21.667 21.5 36s7.5 30.833 7.5 49.5h97c0 -30.667 -4.83301 -58.167 -14.5 -82.5s-23.334 -44.666 -41.001 -60.999s-38.834 -28.666 -63.501 -36.999s-52.667 -12.5 -84 -12.5
c-42 0 -77.5 7.16699 -106.5 21.5s-52.167 36.833 -69.5 67.5c-13.333 -20.667 -29.5 -37.5 -48.5 -50.5s-39.833 -22.667 -62.5 -29s-47 -9.5 -73 -9.5zM215.998 68.999c18.667 0 35.666 3 50.999 9s28.833 14.667 40.5 26s20.834 25.166 27.501 41.499s10 34.833 10 55.5
v41c-45.333 0 -83.666 -3.33301 -114.999 -10s-55 -17.167 -71 -31.5s-24 -33.166 -24 -56.499c0 -16.667 3.16699 -30.5 9.5 -41.5s15.666 -19.333 27.999 -25s26.833 -8.5 43.5 -8.5zM445.997 310.999l214.999 -0.000976562c0 26.667 -2.33301 49.334 -7 68.001
s-11.167 34 -19.5 46s-18.833 20.667 -31.5 26s-27 8 -43 8c-25.333 0 -46.166 -5.5 -62.499 -16.5s-28.5 -27.333 -36.5 -49s-13 -49.167 -15 -82.5z" />
    <glyph glyph-name="ccedilla" unicode="&#xe7;" horiz-adv-x="480" 
d="M248 -12c-48 0 -87.6689 9.83301 -119.002 29.5s-54.666 49.834 -69.999 90.501s-23 92.334 -23 155.001c0 64 8 116.167 24 156.5s39.833 70.166 71.5 89.499s71.167 29 118.5 29c33.333 0 62 -4.33301 86 -13s44 -21.834 60 -39.501s28 -39.5 36 -65.5
s12 -56.333 12 -91h-100c0 29.333 -3.16699 53.333 -9.5 72s-16.5 32.5 -30.5 41.5s-32.667 13.5 -56 13.5s-43.333 -5.83301 -60 -17.5s-29.167 -30.667 -37.5 -57s-12.5 -61.166 -12.5 -104.499v-29c0 -38.667 3.83301 -71.334 11.5 -98.001s19.834 -46.667 36.501 -60
s38 -20 64 -20c23.333 0 42 4.66699 56 14s24.5 23.5 31.5 42.5s10.5 42.5 10.5 70.5h96c0 -30.667 -3.83301 -58.667 -11.5 -84s-19.5 -47.333 -35.5 -66s-36.333 -33.167 -61 -43.5s-54 -15.5 -88 -15.5zM242.998 -183c-14.667 0 -29.502 0.668945 -44.502 2.00195
s-28.833 3.33301 -41.5 6v43h80c12.667 0 22.5 2.16699 29.5 6.5s10.5 11.166 10.5 20.499c0 8.66699 -3 15 -9 19s-16 6 -30 6h-39l15 94h61l-5 -51c14.667 -0.666992 28.334 -3.33398 41.001 -8.00098s22.834 -11.667 30.501 -21s11.5 -22 11.5 -38
c0 -16.667 -3.5 -30.167 -10.5 -40.5s-16 -18.333 -27 -24s-22.833 -9.5 -35.5 -11.5s-25 -3 -37 -3z" />
    <glyph glyph-name="egrave" unicode="&#xe8;" horiz-adv-x="500" 
d="M256 -12c-49.333 0 -90.168 9.66699 -122.501 29s-56.5 49.333 -72.5 90s-24 92.667 -24 156c0 64.667 8.16699 117.167 24.5 157.5s40.833 70 73.5 89s74 28.5 124 28.5c45.333 0 83 -8.83301 113 -26.5s52.667 -45.334 68 -83.001s23 -86.834 23 -147.501v-42h-324
c0.666992 -38.667 5 -70.667 13 -96s20.5 -44.166 37.5 -56.499s39.5 -18.5 67.5 -18.5c16.667 0 31.5 2.5 44.5 7.5s24.167 12.167 33.5 21.5s16.5 21.166 21.5 35.499s7.83301 30.5 8.5 48.5h97c-0.666992 -30.667 -5.66699 -58.167 -15 -82.5s-23 -44.666 -41 -60.999
s-39.667 -28.666 -65 -36.999s-53.666 -12.5 -84.999 -12.5zM139.998 309l221.001 -0.000976562c0 26.667 -2.33301 49.334 -7 68.001s-11.334 34 -20.001 46s-19.5 20.667 -32.5 26s-27.833 8 -44.5 8c-26 0 -47.333 -5.5 -64 -16.5s-29.167 -27.5 -37.5 -49.5
s-13.5 -49.333 -15.5 -82zM309.999 590.999h-78l-100 129v3h102z" />
    <glyph glyph-name="eacute" unicode="&#xe9;" horiz-adv-x="500" 
d="M256 -12c-49.333 0 -90.168 9.66699 -122.501 29s-56.5 49.333 -72.5 90s-24 92.667 -24 156c0 64.667 8.16699 117.167 24.5 157.5s40.833 70 73.5 89s74 28.5 124 28.5c45.333 0 83 -8.83301 113 -26.5s52.667 -45.334 68 -83.001s23 -86.834 23 -147.501v-42h-324
c0.666992 -38.667 5 -70.667 13 -96s20.5 -44.166 37.5 -56.499s39.5 -18.5 67.5 -18.5c16.667 0 31.5 2.5 44.5 7.5s24.167 12.167 33.5 21.5s16.5 21.166 21.5 35.499s7.83301 30.5 8.5 48.5h97c-0.666992 -30.667 -5.66699 -58.167 -15 -82.5s-23 -44.666 -41 -60.999
s-39.667 -28.666 -65 -36.999s-53.666 -12.5 -84.999 -12.5zM139.998 309l221.001 -0.000976562c0 26.667 -2.33301 49.334 -7 68.001s-11.334 34 -20.001 46s-19.5 20.667 -32.5 26s-27.833 8 -44.5 8c-26 0 -47.333 -5.5 -64 -16.5s-29.167 -27.5 -37.5 -49.5
s-13.5 -49.333 -15.5 -82zM205.999 590.999l75 132h102l1 -3l-100 -129h-78z" />
    <glyph glyph-name="ecircumflex" unicode="&#xea;" horiz-adv-x="500" 
d="M256 -12c-49.333 0 -90.168 9.66699 -122.501 29s-56.5 49.333 -72.5 90s-24 92.667 -24 156c0 64.667 8.16699 117.167 24.5 157.5s40.833 70 73.5 89s74 28.5 124 28.5c45.333 0 83 -8.83301 113 -26.5s52.667 -45.334 68 -83.001s23 -86.834 23 -147.501v-42h-324
c0.666992 -38.667 5 -70.667 13 -96s20.5 -44.166 37.5 -56.499s39.5 -18.5 67.5 -18.5c16.667 0 31.5 2.5 44.5 7.5s24.167 12.167 33.5 21.5s16.5 21.166 21.5 35.499s7.83301 30.5 8.5 48.5h97c-0.666992 -30.667 -5.66699 -58.167 -15 -82.5s-23 -44.666 -41 -60.999
s-39.667 -28.666 -65 -36.999s-53.666 -12.5 -84.999 -12.5zM139.998 309l221.001 -0.000976562c0 26.667 -2.33301 49.334 -7 68.001s-11.334 34 -20.001 46s-19.5 20.667 -32.5 26s-27.833 8 -44.5 8c-26 0 -47.333 -5.5 -64 -16.5s-29.167 -27.5 -37.5 -49.5
s-13.5 -49.333 -15.5 -82zM116.999 590.999l96 132h86l96 -132h-82l-80 112h46l-81 -112h-81z" />
    <glyph glyph-name="edieresis" unicode="&#xeb;" horiz-adv-x="500" 
d="M256 -12c-49.333 0 -90.168 9.66699 -122.501 29s-56.5 49.333 -72.5 90s-24 92.667 -24 156c0 64.667 8.16699 117.167 24.5 157.5s40.833 70 73.5 89s74 28.5 124 28.5c45.333 0 83 -8.83301 113 -26.5s52.667 -45.334 68 -83.001s23 -86.834 23 -147.501v-42h-324
c0.666992 -38.667 5 -70.667 13 -96s20.5 -44.166 37.5 -56.499s39.5 -18.5 67.5 -18.5c16.667 0 31.5 2.5 44.5 7.5s24.167 12.167 33.5 21.5s16.5 21.166 21.5 35.499s7.83301 30.5 8.5 48.5h97c-0.666992 -30.667 -5.66699 -58.167 -15 -82.5s-23 -44.666 -41 -60.999
s-39.667 -28.666 -65 -36.999s-53.666 -12.5 -84.999 -12.5zM139.998 309l221.001 -0.000976562c0 26.667 -2.33301 49.334 -7 68.001s-11.334 34 -20.001 46s-19.5 20.667 -32.5 26s-27.833 8 -44.5 8c-26 0 -47.333 -5.5 -64 -16.5s-29.167 -27.5 -37.5 -49.5
s-13.5 -49.333 -15.5 -82zM125.999 623.999v99h87v-99h-87zM297.999 623.999v99h87v-99h-87z" />
    <glyph glyph-name="igrave" unicode="&#xec;" horiz-adv-x="220" 
d="M61 0v526h98v-526h-98zM164 591h-79l-100 129l1 3h102z" />
    <glyph glyph-name="iacute" unicode="&#xed;" horiz-adv-x="220" 
d="M61 0v526h98v-526h-98zM60 591l75 132h102l1 -3l-100 -129h-78z" />
    <glyph glyph-name="icircumflex" unicode="&#xee;" horiz-adv-x="220" 
d="M61 0v526h98v-526h-98zM-30 591l96 132h87l95 -132h-81l-80 112h46l-81 -112h-82z" />
    <glyph glyph-name="idieresis" unicode="&#xef;" horiz-adv-x="220" 
d="M61 0v526h98v-526h-98zM-20 624v99h86v-99h-86zM152 624v99h87v-99h-87z" />
    <glyph glyph-name="eth" unicode="&#xf0;" horiz-adv-x="525" 
d="M261 -12c-48 0 -88.498 9.5 -121.498 28.5s-57.833 48.667 -74.5 89s-25 92.166 -25 155.499c0 60.667 7.66699 111.167 23 151.5s37.5 70.666 66.5 90.999s63.833 30.5 104.5 30.5c13.333 0 26.166 -1.16699 38.499 -3.5s23.833 -5.83301 34.5 -10.5l3 3
c-10 16 -20.333 31.5 -31 46.5s-22.334 29.5 -35.001 43.5l-133 -11v58l83 7c-9.33301 9.33301 -19 18.333 -29 27s-20 17 -30 25l3 4h113c6 -4 12 -8.83301 18 -14.5s12 -11.167 18 -16.5s11.333 -10.666 16 -15.999l130 11v-59l-79 -7
c27.333 -33.333 50.833 -68.5 70.5 -105.5s34.667 -76.333 45 -118s15.5 -87.167 15.5 -136.5c0 -63.333 -8.33301 -115.166 -25 -155.499s-41.5 -70 -74.5 -89s-74.5 -28.5 -124.5 -28.5zM262.002 70c28 0 50.832 6.16602 68.499 18.499s30.834 31.333 39.501 57
s13 58.834 13 99.501v32c0 41.333 -4.33301 74.833 -13 100.5s-21.834 44.5 -39.501 56.5s-40.5 18 -68.5 18c-27.333 0 -50 -6.16699 -68 -18.5s-31.167 -31.333 -39.5 -57s-12.5 -58.5 -12.5 -98.5v-32c0 -40.667 4.33301 -74 13 -100s21.834 -45.167 39.501 -57.5
s40.167 -18.5 67.5 -18.5z" />
    <glyph glyph-name="ntilde" unicode="&#xf1;" horiz-adv-x="512" 
d="M61 0v526h81l9 -72h6c11.333 18.667 24.5 34.334 39.5 47.001s31.833 22 50.5 28s39 9 61 9c30 0 56 -5.33301 78 -16s39.167 -27.834 51.5 -51.501s18.5 -55.5 18.5 -95.5v-375h-100v356c0 16.667 -1.83301 31 -5.5 43s-9.16699 21.667 -16.5 29
s-16.333 12.833 -27 16.5s-22.667 5.5 -36 5.5c-20.667 0 -39.5 -5.66699 -56.5 -17s-30.5 -27.5 -40.5 -48.5s-15 -46.5 -15 -76.5v-308h-98zM110 617c0 20 2.99609 37.666 8.99609 52.999s15 27.5 27 36.5s27 13.5 45 13.5c16 0 31.167 -2.66699 45.5 -8
s28.333 -10.833 42 -16.5s26.834 -8.5 39.501 -8.5c9.33301 0 16.5 2.83301 21.5 8.5s8.16699 13.834 9.5 24.501h56c0 -18.667 -3 -35.834 -9 -51.501s-15 -28 -27 -37s-27.333 -13.5 -46 -13.5c-15.333 0 -30.166 2.83301 -44.499 8.5s-28.166 11.334 -41.499 17.001
s-26.666 8.5 -39.999 8.5c-9.33301 0 -16.5 -3 -21.5 -9s-8.16699 -14.667 -9.5 -26h-56z" />
    <glyph glyph-name="ograve" unicode="&#xf2;" horiz-adv-x="521" 
d="M260 -12c-48.667 0 -89.667 9.66699 -123 29s-58.333 49.166 -75 89.499s-25 92.5 -25 156.5c0 64.667 8.33301 117.167 25 157.5s41.667 70 75 89s74.333 28.5 123 28.5c49.333 0 90.5 -9.5 123.5 -28.5s58 -48.667 75 -89s25.5 -92.833 25.5 -157.5
c0 -64 -8.5 -116.167 -25.5 -156.5s-42 -70.166 -75 -89.499s-74.167 -29 -123.5 -29zM260 70c28 0 51 6.33301 69 19s31.167 32.167 39.5 58.5s12.5 60.166 12.5 101.499v28c0 42 -4.16699 76.167 -12.5 102.5s-21.5 45.666 -39.5 57.999s-41 18.5 -69 18.5
s-50.833 -6.16699 -68.5 -18.5s-30.834 -31.666 -39.501 -57.999s-13 -60.5 -13 -102.5v-28c0 -41.333 4.33301 -75.166 13 -101.499s21.834 -45.833 39.501 -58.5s40.5 -19 68.5 -19zM314 591h-78l-100 129l1 3h102z" />
    <glyph glyph-name="oacute" unicode="&#xf3;" horiz-adv-x="521" 
d="M260 -12c-48.667 0 -89.667 9.66699 -123 29s-58.333 49.166 -75 89.499s-25 92.5 -25 156.5c0 64.667 8.33301 117.167 25 157.5s41.667 70 75 89s74.333 28.5 123 28.5c49.333 0 90.5 -9.5 123.5 -28.5s58 -48.667 75 -89s25.5 -92.833 25.5 -157.5
c0 -64 -8.5 -116.167 -25.5 -156.5s-42 -70.166 -75 -89.499s-74.167 -29 -123.5 -29zM260 70c28 0 51 6.33301 69 19s31.167 32.167 39.5 58.5s12.5 60.166 12.5 101.499v28c0 42 -4.16699 76.167 -12.5 102.5s-21.5 45.666 -39.5 57.999s-41 18.5 -69 18.5
s-50.833 -6.16699 -68.5 -18.5s-30.834 -31.666 -39.501 -57.999s-13 -60.5 -13 -102.5v-28c0 -41.333 4.33301 -75.166 13 -101.499s21.834 -45.833 39.501 -58.5s40.5 -19 68.5 -19zM210 591l76 132h102l1 -3l-100 -129h-79z" />
    <glyph glyph-name="ocircumflex" unicode="&#xf4;" horiz-adv-x="521" 
d="M260 -12c-48.667 0 -89.667 9.66699 -123 29s-58.333 49.166 -75 89.499s-25 92.5 -25 156.5c0 64.667 8.33301 117.167 25 157.5s41.667 70 75 89s74.333 28.5 123 28.5c49.333 0 90.5 -9.5 123.5 -28.5s58 -48.667 75 -89s25.5 -92.833 25.5 -157.5
c0 -64 -8.5 -116.167 -25.5 -156.5s-42 -70.166 -75 -89.499s-74.167 -29 -123.5 -29zM260 70c28 0 51 6.33301 69 19s31.167 32.167 39.5 58.5s12.5 60.166 12.5 101.499v28c0 42 -4.16699 76.167 -12.5 102.5s-21.5 45.666 -39.5 57.999s-41 18.5 -69 18.5
s-50.833 -6.16699 -68.5 -18.5s-30.834 -31.666 -39.501 -57.999s-13 -60.5 -13 -102.5v-28c0 -41.333 4.33301 -75.166 13 -101.499s21.834 -45.833 39.501 -58.5s40.5 -19 68.5 -19zM121 591l96 132h87l95 -132h-82l-79 112h46l-81 -112h-82z" />
    <glyph glyph-name="otilde" unicode="&#xf5;" horiz-adv-x="521" 
d="M260 -12c-48.667 0 -89.667 9.66699 -123 29s-58.333 49.166 -75 89.499s-25 92.5 -25 156.5c0 64.667 8.33301 117.167 25 157.5s41.667 70 75 89s74.333 28.5 123 28.5c49.333 0 90.5 -9.5 123.5 -28.5s58 -48.667 75 -89s25.5 -92.833 25.5 -157.5
c0 -64 -8.5 -116.167 -25.5 -156.5s-42 -70.166 -75 -89.499s-74.167 -29 -123.5 -29zM260 70c28 0 51 6.33301 69 19s31.167 32.167 39.5 58.5s12.5 60.166 12.5 101.499v28c0 42 -4.16699 76.167 -12.5 102.5s-21.5 45.666 -39.5 57.999s-41 18.5 -69 18.5
s-50.833 -6.16699 -68.5 -18.5s-30.834 -31.666 -39.501 -57.999s-13 -60.5 -13 -102.5v-28c0 -41.333 4.33301 -75.166 13 -101.499s21.834 -45.833 39.501 -58.5s40.5 -19 68.5 -19zM113 617c0 20 2.99609 37.666 8.99609 52.999s15 27.5 27 36.5s27 13.5 45 13.5
c16 0 31 -2.66699 45 -8s27.833 -10.833 41.5 -16.5s27.167 -8.5 40.5 -8.5c9.33301 0 16.5 2.83301 21.5 8.5s8.16699 13.834 9.5 24.501h56c0 -18.667 -3.16699 -35.834 -9.5 -51.501s-15.5 -28 -27.5 -37s-27 -13.5 -45 -13.5c-15.333 0 -30.166 2.83301 -44.499 8.5
s-28.166 11.334 -41.499 17.001s-26.666 8.5 -39.999 8.5c-9.33301 0 -16.666 -3 -21.999 -9s-8.33301 -14.667 -9 -26h-56z" />
    <glyph glyph-name="odieresis" unicode="&#xf6;" horiz-adv-x="521" 
d="M260 -12c-48.667 0 -89.667 9.66699 -123 29s-58.333 49.166 -75 89.499s-25 92.5 -25 156.5c0 64.667 8.33301 117.167 25 157.5s41.667 70 75 89s74.333 28.5 123 28.5c49.333 0 90.5 -9.5 123.5 -28.5s58 -48.667 75 -89s25.5 -92.833 25.5 -157.5
c0 -64 -8.5 -116.167 -25.5 -156.5s-42 -70.166 -75 -89.499s-74.167 -29 -123.5 -29zM260 70c28 0 51 6.33301 69 19s31.167 32.167 39.5 58.5s12.5 60.166 12.5 101.499v28c0 42 -4.16699 76.167 -12.5 102.5s-21.5 45.666 -39.5 57.999s-41 18.5 -69 18.5
s-50.833 -6.16699 -68.5 -18.5s-30.834 -31.666 -39.501 -57.999s-13 -60.5 -13 -102.5v-28c0 -41.333 4.33301 -75.166 13 -101.499s21.834 -45.833 39.501 -58.5s40.5 -19 68.5 -19zM130 624v99h87v-99h-87zM302 624v99h88v-99h-88z" />
    <glyph glyph-name="divide" unicode="&#xf7;" horiz-adv-x="579" 
d="M72 214v84h436v-84h-436zM242 23v94h94v-94h-94zM242 396v94h94v-94h-94z" />
    <glyph glyph-name="oslash" unicode="&#xf8;" horiz-adv-x="521" 
d="M260 -12c-48.667 0 -89.667 9.66699 -123 29s-58.333 49.166 -75 89.499s-25 92.5 -25 156.5c0 64.667 8.33301 117.167 25 157.5s41.667 70 75 89s74.333 28.5 123 28.5c49.333 0 90.5 -9.5 123.5 -28.5s58 -48.667 75 -89s25.5 -92.833 25.5 -157.5
c0 -64 -8.5 -116.167 -25.5 -156.5s-42 -70.166 -75 -89.499s-74.167 -29 -123.5 -29zM260 70c28 0 51 6.33301 69 19s31.167 32.167 39.5 58.5s12.5 60.166 12.5 101.499v28c0 42 -4.16699 76.167 -12.5 102.5s-21.5 45.666 -39.5 57.999s-41 18.5 -69 18.5
s-50.833 -6.16699 -68.5 -18.5s-30.834 -31.666 -39.501 -57.999s-13 -60.5 -13 -102.5v-28c0 -41.333 4.33301 -75.166 13 -101.499s21.834 -45.833 39.501 -58.5s40.5 -19 68.5 -19zM30 -47l397 622h63l-395 -622h-65z" />
    <glyph glyph-name="ugrave" unicode="&#xf9;" horiz-adv-x="511" 
d="M204 -12c-45.333 0 -81.333 12.335 -108 37.002s-40 67 -40 127v374h99v-356c0 -16.667 1.83301 -30.834 5.5 -42.501s9.16699 -21.334 16.5 -29.001s16.333 -13.167 27 -16.5s22.667 -5 36 -5c20.667 0 39.5 5.5 56.5 16.5s30.5 27.167 40.5 48.5s15 46.666 15 75.999
v308h99v-526h-82l-8 72h-6c-11.333 -18.667 -24.5 -34.167 -39.5 -46.5s-31.833 -21.666 -50.5 -27.999s-39 -9.5 -61 -9.5zM310 591.002h-78l-100 129l1 3h102z" />
    <glyph glyph-name="uacute" unicode="&#xfa;" horiz-adv-x="511" 
d="M204 -12c-45.333 0 -81.333 12.335 -108 37.002s-40 67 -40 127v374h99v-356c0 -16.667 1.83301 -30.834 5.5 -42.501s9.16699 -21.334 16.5 -29.001s16.333 -13.167 27 -16.5s22.667 -5 36 -5c20.667 0 39.5 5.5 56.5 16.5s30.5 27.167 40.5 48.5s15 46.666 15 75.999
v308h99v-526h-82l-8 72h-6c-11.333 -18.667 -24.5 -34.167 -39.5 -46.5s-31.833 -21.666 -50.5 -27.999s-39 -9.5 -61 -9.5zM206 591.002l76 132h102v-3l-100 -129h-78z" />
    <glyph glyph-name="ucircumflex" unicode="&#xfb;" horiz-adv-x="511" 
d="M204 -12c-45.333 0 -81.333 12.335 -108 37.002s-40 67 -40 127v374h99v-356c0 -16.667 1.83301 -30.834 5.5 -42.501s9.16699 -21.334 16.5 -29.001s16.333 -13.167 27 -16.5s22.667 -5 36 -5c20.667 0 39.5 5.5 56.5 16.5s30.5 27.167 40.5 48.5s15 46.666 15 75.999
v308h99v-526h-82l-8 72h-6c-11.333 -18.667 -24.5 -34.167 -39.5 -46.5s-31.833 -21.666 -50.5 -27.999s-39 -9.5 -61 -9.5zM117 591.002l96 132h86l96 -132h-82l-80 112h46l-81 -112h-81z" />
    <glyph glyph-name="udieresis" unicode="&#xfc;" horiz-adv-x="511" 
d="M204 -12c-45.333 0 -81.333 12.335 -108 37.002s-40 67 -40 127v374h99v-356c0 -16.667 1.83301 -30.834 5.5 -42.501s9.16699 -21.334 16.5 -29.001s16.333 -13.167 27 -16.5s22.667 -5 36 -5c20.667 0 39.5 5.5 56.5 16.5s30.5 27.167 40.5 48.5s15 46.666 15 75.999
v308h99v-526h-82l-8 72h-6c-11.333 -18.667 -24.5 -34.167 -39.5 -46.5s-31.833 -21.666 -50.5 -27.999s-39 -9.5 -61 -9.5zM126 624.002v99h87v-99h-87zM298 624.002v99h87v-99h-87z" />
    <glyph glyph-name="yacute" unicode="&#xfd;" horiz-adv-x="452" 
d="M109 -185c-17.333 0 -32.3281 1.1709 -44.9951 3.50391s-21.334 4.16602 -26.001 5.49902v73h43c15.333 0 29.333 3.5 42 10.5s24.167 18.167 34.5 33.5s18.5 35 24.5 59l-173 526h103l85 -275c3.33301 -10.667 7.16602 -23.834 11.499 -39.501
s8.66602 -31.834 12.999 -48.501s7.83301 -31.667 10.5 -45h6c2.66699 10 5.33398 21.167 8.00098 33.5s5.66699 25 9 38s6.66602 25.5 9.99902 37.5s6 22.667 8 32l73 267h99l-154 -510c-8.66699 -28.667 -18.334 -55.334 -29.001 -80.001s-22.834 -46 -36.501 -64
s-30 -32 -49 -42s-41.5 -15 -67.5 -15zM184.005 591.004l76 132h102v-3l-99 -129h-79z" />
    <glyph glyph-name="thorn" unicode="&#xfe;" horiz-adv-x="516" 
d="M61 -176l-0.00292969 904.001h99v-264h5c10 16.667 21.833 30.5 35.5 41.5s29.334 19 47.001 24s36.5 7.5 56.5 7.5c36.667 0 68 -9.5 94 -28.5s46 -48.5 60 -88.5s21 -91.667 21 -155c0 -65.333 -7.33301 -118.333 -22 -159s-35.167 -70.5 -61.5 -89.5
s-57.5 -28.5 -93.5 -28.5c-20.667 0 -39.667 2.66699 -57 8s-32.666 13.666 -45.999 24.999s-24.666 25 -33.999 41h-5v-238h-99zM268.997 74.001c25.333 0 45.833 6.16992 61.5 18.5029s27.334 31.666 35.001 57.999s11.5 60.166 11.5 101.499v20c0 42 -3.66699 76 -11 102
s-18.833 45.167 -34.5 57.5s-36.167 18.5 -61.5 18.5c-17.333 0 -32.833 -3.33301 -46.5 -10s-25.334 -17.167 -35.001 -31.5s-17 -32.833 -22 -55.5s-7.5 -49.667 -7.5 -81v-18c0 -38.667 3.83301 -71.334 11.5 -98.001s19.5 -47 35.5 -61s37 -21 63 -21z" />
    <glyph glyph-name="ydieresis" unicode="&#xff;" horiz-adv-x="452" 
d="M109 -185c-17.333 0 -32.3281 1.1709 -44.9951 3.50391s-21.334 4.16602 -26.001 5.49902v73h43c15.333 0 29.333 3.5 42 10.5s24.167 18.167 34.5 33.5s18.5 35 24.5 59l-173 526h103l85 -275c3.33301 -10.667 7.16602 -23.834 11.499 -39.501
s8.66602 -31.834 12.999 -48.501s7.83301 -31.667 10.5 -45h6c2.66699 10 5.33398 21.167 8.00098 33.5s5.66699 25 9 38s6.66602 25.5 9.99902 37.5s6 22.667 8 32l73 267h99l-154 -510c-8.66699 -28.667 -18.334 -55.334 -29.001 -80.001s-22.834 -46 -36.501 -64
s-30 -32 -49 -42s-41.5 -15 -67.5 -15zM104.005 624.004v99h87v-99h-87zM276.005 624.004v99h88v-99h-88z" />
    <glyph glyph-name="Amacron" unicode="&#x100;" horiz-adv-x="614" 
d="M4 0l234 686h137l234 -686h-115l-54 163h-272l-54 -163h-110zM197 255l213.999 -0.000976562l-67 208c-2 6 -4.5 13.833 -7.5 23.5s-6.33301 20.334 -10 32.001s-7.16699 23.334 -10.5 35.001s-6.33301 22.5 -9 32.5h-6c-3.33301 -12 -7.33301 -25.833 -12 -41.5
s-9.16699 -30.834 -13.5 -45.501s-8.16602 -26.667 -11.499 -36zM172.999 768.999v70h267v-70h-267z" />
    <glyph glyph-name="amacron" unicode="&#x101;" horiz-adv-x="499" 
d="M182 -12c-17.333 0 -34.8281 2.33496 -52.4951 7.00195s-33.834 12.5 -48.501 23.5s-26.334 25.833 -35.001 44.5s-13 42 -13 70c0 32.667 6.66699 60.334 20 83.001s32.833 41.167 58.5 55.5s57.334 24.833 95.001 31.5s80.167 10 127.5 10v60
c0 17.333 -2.66699 32.333 -8 45s-14.5 22.5 -27.5 29.5s-31.167 10.5 -54.5 10.5c-24.667 0 -43.834 -3.66699 -57.501 -11s-23 -16.666 -28 -27.999s-7.5 -24 -7.5 -38v-12h-95c-0.666992 3.33301 -1 6.66602 -1 9.99902v11c0 33.333 8.33301 61 25 83
s39.5 38.333 68.5 49s62.167 16 99.5 16c40 0 73.667 -5.83301 101 -17.5s48 -29.334 62 -53.001s21 -53.834 21 -90.501v-272c0 -12 3 -20.667 9 -26s13 -8 21 -8h33v-67c-8.66699 -3.33301 -18.834 -6.66602 -30.501 -9.99902s-24.834 -5 -39.501 -5
c-16.667 0 -30.667 3.16699 -42 9.5s-20.333 15.166 -27 26.499s-11.334 24.333 -14.001 39h-6c-10 -14.667 -22.333 -27.834 -37 -39.501s-31.667 -20.667 -51 -27s-41.333 -9.5 -66 -9.5zM212.005 70.002c16.667 0 32.333 3.16699 47 9.5s27.5 15 38.5 26
s19.833 24.667 26.5 41s10 34.5 10 54.5v43c-43.333 0 -79.833 -3.5 -109.5 -10.5s-52 -17.833 -67 -32.5s-22.5 -33.667 -22.5 -57c0 -16 3 -29.5 9 -40.5s14.667 -19.333 26 -25s25.333 -8.5 42 -8.5zM112.004 630.002v70h266v-70h-266z" />
    <glyph glyph-name="Abreve" unicode="&#x102;" horiz-adv-x="614" 
d="M4 0l234 686h137l234 -686h-115l-54 163h-272l-54 -163h-110zM197 255l213.999 -0.000976562l-67 208c-2 6 -4.5 13.833 -7.5 23.5s-6.33301 20.334 -10 32.001s-7.16699 23.334 -10.5 35.001s-6.33301 22.5 -9 32.5h-6c-3.33301 -12 -7.33301 -25.833 -12 -41.5
s-9.16699 -30.834 -13.5 -45.501s-8.16602 -26.667 -11.499 -36zM305.999 749.999c-33.333 0 -59.666 6 -78.999 18s-33 27.333 -41 46s-12 37.334 -12 56.001h61c2 -7.33301 5.16699 -15.333 9.5 -24s11.5 -16 21.5 -22s23.667 -9 41 -9c18 0 32.167 3 42.5 9
s17.666 13.5 21.999 22.5s6.83301 16.833 7.5 23.5h62c0 -18.667 -4.33301 -37.334 -13 -56.001s-22.667 -34 -42 -46s-46 -18 -80 -18z" />
    <glyph glyph-name="abreve" unicode="&#x103;" horiz-adv-x="499" 
d="M182 -12c-17.333 0 -34.8281 2.33496 -52.4951 7.00195s-33.834 12.5 -48.501 23.5s-26.334 25.833 -35.001 44.5s-13 42 -13 70c0 32.667 6.66699 60.334 20 83.001s32.833 41.167 58.5 55.5s57.334 24.833 95.001 31.5s80.167 10 127.5 10v60
c0 17.333 -2.66699 32.333 -8 45s-14.5 22.5 -27.5 29.5s-31.167 10.5 -54.5 10.5c-24.667 0 -43.834 -3.66699 -57.501 -11s-23 -16.666 -28 -27.999s-7.5 -24 -7.5 -38v-12h-95c-0.666992 3.33301 -1 6.66602 -1 9.99902v11c0 33.333 8.33301 61 25 83
s39.5 38.333 68.5 49s62.167 16 99.5 16c40 0 73.667 -5.83301 101 -17.5s48 -29.334 62 -53.001s21 -53.834 21 -90.501v-272c0 -12 3 -20.667 9 -26s13 -8 21 -8h33v-67c-8.66699 -3.33301 -18.834 -6.66602 -30.501 -9.99902s-24.834 -5 -39.501 -5
c-16.667 0 -30.667 3.16699 -42 9.5s-20.333 15.166 -27 26.499s-11.334 24.333 -14.001 39h-6c-10 -14.667 -22.333 -27.834 -37 -39.501s-31.667 -20.667 -51 -27s-41.333 -9.5 -66 -9.5zM212.005 70.002c16.667 0 32.333 3.16699 47 9.5s27.5 15 38.5 26
s19.833 24.667 26.5 41s10 34.5 10 54.5v43c-43.333 0 -79.833 -3.5 -109.5 -10.5s-52 -17.833 -67 -32.5s-22.5 -33.667 -22.5 -57c0 -16 3 -29.5 9 -40.5s14.667 -19.333 26 -25s25.333 -8.5 42 -8.5zM244.004 603.002c-33.333 0 -59.6689 6 -79.002 18s-33 27.333 -41 46
s-12 37.334 -12 56.001h63c0.666992 -7.33301 3.33398 -15.5 8.00098 -24.5s11.834 -16.667 21.501 -23s23.167 -9.5 40.5 -9.5c18 0 32 3.16699 42 9.5s17.167 14 21.5 23s6.83301 17.167 7.5 24.5h63c0 -18.667 -4.33301 -37.334 -13 -56.001s-22.667 -34 -42 -46
s-46 -18 -80 -18z" />
    <glyph glyph-name="Aogonek" unicode="&#x104;" horiz-adv-x="614" 
d="M4 0l234 686h137l234 -686h-115l-54 163h-272l-54 -163h-110zM197 255l213.999 -0.000976562l-67 208c-2 6 -4.5 13.833 -7.5 23.5s-6.33301 20.334 -10 32.001s-7.16699 23.334 -10.5 35.001s-6.33301 22.5 -9 32.5h-6c-3.33301 -12 -7.33301 -25.833 -12 -41.5
s-9.16699 -30.834 -13.5 -45.501s-8.16602 -26.667 -11.499 -36zM548.999 -179.001c-15.333 0 -30.002 2.83496 -44.002 8.50195s-25.667 15 -35 28s-14 30.5 -14 52.5c0 22.667 4.83301 42.167 14.5 58.5s20.834 30.833 33.501 43.5h62v-5
c-6.66699 -6.66699 -13.834 -16.334 -21.501 -29.001s-11.5 -26.667 -11.5 -42c0 -14.667 3.83301 -27.334 11.5 -38.001s20.167 -16 37.5 -16h32v-47c-9.33301 -4.66699 -20.166 -8.16699 -32.499 -10.5s-23.166 -3.5 -32.499 -3.5z" />
    <glyph glyph-name="aogonek" unicode="&#x105;" horiz-adv-x="499" 
d="M182 -12c-17.333 0 -34.8281 2.33496 -52.4951 7.00195s-33.834 12.5 -48.501 23.5s-26.334 25.833 -35.001 44.5s-13 42 -13 70c0 32.667 6.66699 60.334 20 83.001s32.833 41.167 58.5 55.5s57.334 24.833 95.001 31.5s80.167 10 127.5 10v60
c0 17.333 -2.66699 32.333 -8 45s-14.5 22.5 -27.5 29.5s-31.167 10.5 -54.5 10.5c-24.667 0 -43.834 -3.66699 -57.501 -11s-23 -16.666 -28 -27.999s-7.5 -24 -7.5 -38v-12h-95c-0.666992 3.33301 -1 6.66602 -1 9.99902v11c0 33.333 8.33301 61 25 83
s39.5 38.333 68.5 49s62.167 16 99.5 16c40 0 73.667 -5.83301 101 -17.5s48 -29.334 62 -53.001s21 -53.834 21 -90.501v-272c0 -12 3 -20.667 9 -26s13 -8 21 -8h33v-67c-8.66699 -3.33301 -18.834 -6.66602 -30.501 -9.99902s-24.834 -5 -39.501 -5
c-16.667 0 -30.667 3.16699 -42 9.5s-20.333 15.166 -27 26.499s-11.334 24.333 -14.001 39h-6c-10 -14.667 -22.333 -27.834 -37 -39.501s-31.667 -20.667 -51 -27s-41.333 -9.5 -66 -9.5zM212.005 70.002c16.667 0 32.333 3.16699 47 9.5s27.5 15 38.5 26
s19.833 24.667 26.5 41s10 34.5 10 54.5v43c-43.333 0 -79.833 -3.5 -109.5 -10.5s-52 -17.833 -67 -32.5s-22.5 -33.667 -22.5 -57c0 -16 3 -29.5 9 -40.5s14.667 -19.333 26 -25s25.333 -8.5 42 -8.5zM423.004 -178.998c-15.333 0 -30.167 2.83496 -44.5 8.50195
s-26 15 -35 28s-13.5 30.5 -13.5 52.5c0 22.667 4.83301 42.167 14.5 58.5s20.5 30.833 32.5 43.5h63v-5c-7.33301 -6.66699 -14.666 -16.334 -21.999 -29.001s-11 -26.667 -11 -42c0 -14.667 3.66699 -27.334 11 -38.001s19.666 -16 36.999 -16h33v-47
c-10 -4.66699 -21 -8.16699 -33 -10.5s-22.667 -3.5 -32 -3.5z" />
    <glyph glyph-name="Cacute" unicode="&#x106;" horiz-adv-x="648" 
d="M336 -12c-64 0 -117.832 12.6689 -161.499 38.002s-76.334 64.166 -98.001 116.499s-32.5 119.166 -32.5 200.499c0 120.667 25.5 210 76.5 268s124.5 87 220.5 87c53.333 0 100 -9.5 140 -28.5s71.167 -48 93.5 -87s33.5 -88.5 33.5 -148.5h-108
c0 37.333 -6.33301 68.833 -19 94.5s-31 45 -55 58s-52.667 19.5 -86 19.5c-40 0 -74 -8.83301 -102 -26.5s-48.833 -44.667 -62.5 -81s-20.5 -82.5 -20.5 -138.5v-37c0 -56 6.83301 -101.833 20.5 -137.5s34.167 -62.167 61.5 -79.5s61.333 -26 102 -26
c34 0 63.333 6.33301 88 19s43.5 31.667 56.5 57s19.5 57 19.5 95h105c0 -60 -11.667 -109.5 -35 -148.5s-55.333 -67.833 -96 -86.5s-87.667 -28 -141 -28zM296.001 738.002l76 132h106l1 -3l-100 -129h-83z" />
    <glyph glyph-name="cacute" unicode="&#x107;" horiz-adv-x="480" 
d="M248 -12c-48 0 -87.6689 9.83301 -119.002 29.5s-54.666 49.834 -69.999 90.501s-23 92.334 -23 155.001c0 64 8 116.167 24 156.5s39.833 70.166 71.5 89.499s71.167 29 118.5 29c33.333 0 62 -4.33301 86 -13s44 -21.834 60 -39.501s28 -39.5 36 -65.5
s12 -56.333 12 -91h-100c0 29.333 -3.16699 53.333 -9.5 72s-16.5 32.5 -30.5 41.5s-32.667 13.5 -56 13.5s-43.333 -5.83301 -60 -17.5s-29.167 -30.667 -37.5 -57s-12.5 -61.166 -12.5 -104.499v-29c0 -38.667 3.83301 -71.334 11.5 -98.001s19.834 -46.667 36.501 -60
s38 -20 64 -20c23.333 0 42 4.66699 56 14s24.5 23.5 31.5 42.5s10.5 42.5 10.5 70.5h96c0 -30.667 -3.83301 -58.667 -11.5 -84s-19.5 -47.333 -35.5 -66s-36.333 -33.167 -61 -43.5s-54 -15.5 -88 -15.5zM198.998 591l76 132h102l1 -3l-100 -129h-79z" />
    <glyph glyph-name="Ccircumflex" unicode="&#x108;" horiz-adv-x="648" 
d="M336 -12c-64 0 -117.832 12.6689 -161.499 38.002s-76.334 64.166 -98.001 116.499s-32.5 119.166 -32.5 200.499c0 120.667 25.5 210 76.5 268s124.5 87 220.5 87c53.333 0 100 -9.5 140 -28.5s71.167 -48 93.5 -87s33.5 -88.5 33.5 -148.5h-108
c0 37.333 -6.33301 68.833 -19 94.5s-31 45 -55 58s-52.667 19.5 -86 19.5c-40 0 -74 -8.83301 -102 -26.5s-48.833 -44.667 -62.5 -81s-20.5 -82.5 -20.5 -138.5v-37c0 -56 6.83301 -101.833 20.5 -137.5s34.167 -62.167 61.5 -79.5s61.333 -26 102 -26
c34 0 63.333 6.33301 88 19s43.5 31.667 56.5 57s19.5 57 19.5 95h105c0 -60 -11.667 -109.5 -35 -148.5s-55.333 -67.833 -96 -86.5s-87.667 -28 -141 -28zM196.001 738.002l96 132h95l95 -132h-85l-80 112h46l-81 -112h-86z" />
    <glyph glyph-name="ccircumflex" unicode="&#x109;" horiz-adv-x="480" 
d="M248 -12c-48 0 -87.6689 9.83301 -119.002 29.5s-54.666 49.834 -69.999 90.501s-23 92.334 -23 155.001c0 64 8 116.167 24 156.5s39.833 70.166 71.5 89.499s71.167 29 118.5 29c33.333 0 62 -4.33301 86 -13s44 -21.834 60 -39.501s28 -39.5 36 -65.5
s12 -56.333 12 -91h-100c0 29.333 -3.16699 53.333 -9.5 72s-16.5 32.5 -30.5 41.5s-32.667 13.5 -56 13.5s-43.333 -5.83301 -60 -17.5s-29.167 -30.667 -37.5 -57s-12.5 -61.166 -12.5 -104.499v-29c0 -38.667 3.83301 -71.334 11.5 -98.001s19.834 -46.667 36.501 -60
s38 -20 64 -20c23.333 0 42 4.66699 56 14s24.5 23.5 31.5 42.5s10.5 42.5 10.5 70.5h96c0 -30.667 -3.83301 -58.667 -11.5 -84s-19.5 -47.333 -35.5 -66s-36.333 -33.167 -61 -43.5s-54 -15.5 -88 -15.5zM109.998 591l96 132h87l95 -132h-82l-79 112h46l-81 -112h-82z" />
    <glyph glyph-name="Cdotaccent" unicode="&#x10a;" horiz-adv-x="648" 
d="M336 -12c-64 0 -117.832 12.6689 -161.499 38.002s-76.334 64.166 -98.001 116.499s-32.5 119.166 -32.5 200.499c0 120.667 25.5 210 76.5 268s124.5 87 220.5 87c53.333 0 100 -9.5 140 -28.5s71.167 -48 93.5 -87s33.5 -88.5 33.5 -148.5h-108
c0 37.333 -6.33301 68.833 -19 94.5s-31 45 -55 58s-52.667 19.5 -86 19.5c-40 0 -74 -8.83301 -102 -26.5s-48.833 -44.667 -62.5 -81s-20.5 -82.5 -20.5 -138.5v-37c0 -56 6.83301 -101.833 20.5 -137.5s34.167 -62.167 61.5 -79.5s61.333 -26 102 -26
c34 0 63.333 6.33301 88 19s43.5 31.667 56.5 57s19.5 57 19.5 95h105c0 -60 -11.667 -109.5 -35 -148.5s-55.333 -67.833 -96 -86.5s-87.667 -28 -141 -28zM293.001 769.002v105h93v-105h-93z" />
    <glyph glyph-name="cdotaccent" unicode="&#x10b;" horiz-adv-x="480" 
d="M248 -12c-48 0 -87.6689 9.83301 -119.002 29.5s-54.666 49.834 -69.999 90.501s-23 92.334 -23 155.001c0 64 8 116.167 24 156.5s39.833 70.166 71.5 89.499s71.167 29 118.5 29c33.333 0 62 -4.33301 86 -13s44 -21.834 60 -39.501s28 -39.5 36 -65.5
s12 -56.333 12 -91h-100c0 29.333 -3.16699 53.333 -9.5 72s-16.5 32.5 -30.5 41.5s-32.667 13.5 -56 13.5s-43.333 -5.83301 -60 -17.5s-29.167 -30.667 -37.5 -57s-12.5 -61.166 -12.5 -104.499v-29c0 -38.667 3.83301 -71.334 11.5 -98.001s19.834 -46.667 36.501 -60
s38 -20 64 -20c23.333 0 42 4.66699 56 14s24.5 23.5 31.5 42.5s10.5 42.5 10.5 70.5h96c0 -30.667 -3.83301 -58.667 -11.5 -84s-19.5 -47.333 -35.5 -66s-36.333 -33.167 -61 -43.5s-54 -15.5 -88 -15.5zM202.998 618v104h93v-104h-93z" />
    <glyph glyph-name="Ccaron" unicode="&#x10c;" horiz-adv-x="648" 
d="M336 -12c-64 0 -117.832 12.6689 -161.499 38.002s-76.334 64.166 -98.001 116.499s-32.5 119.166 -32.5 200.499c0 120.667 25.5 210 76.5 268s124.5 87 220.5 87c53.333 0 100 -9.5 140 -28.5s71.167 -48 93.5 -87s33.5 -88.5 33.5 -148.5h-108
c0 37.333 -6.33301 68.833 -19 94.5s-31 45 -55 58s-52.667 19.5 -86 19.5c-40 0 -74 -8.83301 -102 -26.5s-48.833 -44.667 -62.5 -81s-20.5 -82.5 -20.5 -138.5v-37c0 -56 6.83301 -101.833 20.5 -137.5s34.167 -62.167 61.5 -79.5s61.333 -26 102 -26
c34 0 63.333 6.33301 88 19s43.5 31.667 56.5 57s19.5 57 19.5 95h105c0 -60 -11.667 -109.5 -35 -148.5s-55.333 -67.833 -96 -86.5s-87.667 -28 -141 -28zM196.001 870.002h86l81 -111l-46 -1l80 112h85l-95 -132h-95z" />
    <glyph glyph-name="ccaron" unicode="&#x10d;" horiz-adv-x="480" 
d="M248 -12c-48 0 -87.6689 9.83301 -119.002 29.5s-54.666 49.834 -69.999 90.501s-23 92.334 -23 155.001c0 64 8 116.167 24 156.5s39.833 70.166 71.5 89.499s71.167 29 118.5 29c33.333 0 62 -4.33301 86 -13s44 -21.834 60 -39.501s28 -39.5 36 -65.5
s12 -56.333 12 -91h-100c0 29.333 -3.16699 53.333 -9.5 72s-16.5 32.5 -30.5 41.5s-32.667 13.5 -56 13.5s-43.333 -5.83301 -60 -17.5s-29.167 -30.667 -37.5 -57s-12.5 -61.166 -12.5 -104.499v-29c0 -38.667 3.83301 -71.334 11.5 -98.001s19.834 -46.667 36.501 -60
s38 -20 64 -20c23.333 0 42 4.66699 56 14s24.5 23.5 31.5 42.5s10.5 42.5 10.5 70.5h96c0 -30.667 -3.83301 -58.667 -11.5 -84s-19.5 -47.333 -35.5 -66s-36.333 -33.167 -61 -43.5s-54 -15.5 -88 -15.5zM109.998 723h82l80 -111l-46 -1l80 112h82l-96 -132h-86z" />
    <glyph glyph-name="Dcaron" unicode="&#x10e;" horiz-adv-x="653" 
d="M73 0l-0.000976562 685.999h237c64.667 0 119.167 -12 163.5 -36s78 -61.167 101 -111.5s34.5 -115.166 34.5 -194.499s-11.5 -144.333 -34.5 -195s-56.667 -88.167 -101 -112.5s-99.166 -36.5 -164.499 -36.5h-236zM179.999 92.999l124.997 -0.000976562
c30.667 0 57.834 4.16699 81.501 12.5s43.834 21.5 60.501 39.5s29.334 41.833 38.001 71.5s13 65.5 13 107.5v34c0 42.667 -4.33301 79 -13 109s-21.167 54.333 -37.5 73s-36.5 32.334 -60.5 41.001s-51.333 13 -82 13h-125v-501zM178.996 869.998h86l81 -111l-46 -1
l80 112h86l-96 -132h-95z" />
    <glyph glyph-name="dcaron" unicode="&#x10f;" horiz-adv-x="517" 
d="M219 -12c-38 0 -70.668 9.5 -98.001 28.5s-48.166 48.833 -62.499 89.5s-21.5 94 -21.5 160c0 63.333 7.16699 115 21.5 155s34.833 69.5 61.5 88.5s58.334 28.5 95.001 28.5c21.333 0 40.5 -2.66699 57.5 -8s32.167 -13.5 45.5 -24.5s24.666 -24.833 33.999 -41.5h6v259
h99v-723h-80l-9 71h-6c-14 -26 -33.333 -46.333 -58 -61s-53 -22 -85 -22zM247.999 74c26 0 47 6.83203 63 20.499s27.833 33.5 35.5 59.5s11.5 58 11.5 96v24c0 30.667 -2.5 57.334 -7.5 80.001s-12.167 41 -21.5 55s-20.833 24.333 -34.5 31s-29.167 10 -46.5 10
c-25.333 0 -46 -6 -62 -18s-27.833 -30.833 -35.5 -56.5s-11.5 -59.167 -11.5 -100.5v-26c0 -40.667 3.83301 -74 11.5 -100s19.5 -45 35.5 -57s36.667 -18 62 -18zM493.999 554.999v168h92l-27 -168h-65z" />
    <glyph glyph-name="Dcroat" unicode="&#x110;" horiz-adv-x="653" 
d="M0 306v84h333v-84h-333zM73 0l-0.000976562 685.999h237c64.667 0 119.167 -12 163.5 -36s78 -61.167 101 -111.5s34.5 -115.166 34.5 -194.499s-11.5 -144.333 -34.5 -195s-56.667 -88.167 -101 -112.5s-99.166 -36.5 -164.499 -36.5h-236zM179.999 92.999
l124.997 -0.000976562c30.667 0 57.834 4.16699 81.501 12.5s43.834 21.5 60.501 39.5s29.334 41.833 38.001 71.5s13 65.5 13 107.5v34c0 42.667 -4.33301 79 -13 109s-21.167 54.333 -37.5 73s-36.5 32.334 -60.5 41.001s-51.333 13 -82 13h-125v-501z" />
    <glyph glyph-name="dcroat" unicode="&#x111;" horiz-adv-x="517" 
d="M219 -12c-38 0 -70.668 9.5 -98.001 28.5s-48.166 48.833 -62.499 89.5s-21.5 94 -21.5 160c0 63.333 7.16699 115 21.5 155s34.833 69.5 61.5 88.5s58.334 28.5 95.001 28.5c21.333 0 40.5 -2.66699 57.5 -8s32.167 -13.5 45.5 -24.5s24.666 -24.833 33.999 -41.5h6v259
h99v-723h-80l-9 71h-6c-14 -26 -33.333 -46.333 -58 -61s-53 -22 -85 -22zM247.999 74c26 0 47 6.83203 63 20.499s27.833 33.5 35.5 59.5s11.5 58 11.5 96v24c0 30.667 -2.5 57.334 -7.5 80.001s-12.167 41 -21.5 55s-20.833 24.333 -34.5 31s-29.167 10 -46.5 10
c-25.333 0 -46 -6 -62 -18s-27.833 -30.833 -35.5 -56.5s-11.5 -59.167 -11.5 -100.5v-26c0 -40.667 3.83301 -74 11.5 -100s19.5 -45 35.5 -57s36.667 -18 62 -18zM226.999 585.999v68h290v-68h-290z" />
    <glyph glyph-name="Emacron" unicode="&#x112;" horiz-adv-x="596" 
d="M73 0v686h472v-92h-365v-197h325v-93h-325v-211h371v-93h-478zM178 769v70h267v-70h-267z" />
    <glyph glyph-name="emacron" unicode="&#x113;" horiz-adv-x="500" 
d="M256 -12c-49.333 0 -90.168 9.66699 -122.501 29s-56.5 49.333 -72.5 90s-24 92.667 -24 156c0 64.667 8.16699 117.167 24.5 157.5s40.833 70 73.5 89s74 28.5 124 28.5c45.333 0 83 -8.83301 113 -26.5s52.667 -45.334 68 -83.001s23 -86.834 23 -147.501v-42h-324
c0.666992 -38.667 5 -70.667 13 -96s20.5 -44.166 37.5 -56.499s39.5 -18.5 67.5 -18.5c16.667 0 31.5 2.5 44.5 7.5s24.167 12.167 33.5 21.5s16.5 21.166 21.5 35.499s7.83301 30.5 8.5 48.5h97c-0.666992 -30.667 -5.66699 -58.167 -15 -82.5s-23 -44.666 -41 -60.999
s-39.667 -28.666 -65 -36.999s-53.666 -12.5 -84.999 -12.5zM139.998 309l221.001 -0.000976562c0 26.667 -2.33301 49.334 -7 68.001s-11.334 34 -20.001 46s-19.5 20.667 -32.5 26s-27.833 8 -44.5 8c-26 0 -47.333 -5.5 -64 -16.5s-29.167 -27.5 -37.5 -49.5
s-13.5 -49.333 -15.5 -82zM121.999 629.999v70h267v-70h-267z" />
    <glyph glyph-name="Ebreve" unicode="&#x114;" horiz-adv-x="596" 
d="M73 0v686h472v-92h-365v-197h325v-93h-325v-211h371v-93h-478zM311 750c-33.333 0 -59.666 6 -78.999 18s-33 27.5 -41 46.5s-12 37.5 -12 55.5h61c2 -7.33301 5.16699 -15.333 9.5 -24s11.5 -16 21.5 -22s23.667 -9 41 -9c18 0 32.167 3 42.5 9s17.666 13.5 21.999 22.5
s6.83301 16.833 7.5 23.5h62c0 -18 -4.33301 -36.5 -13 -55.5s-22.667 -34.5 -42 -46.5s-46 -18 -80 -18z" />
    <glyph glyph-name="ebreve" unicode="&#x115;" horiz-adv-x="500" 
d="M256 -12c-49.333 0 -90.168 9.66699 -122.501 29s-56.5 49.333 -72.5 90s-24 92.667 -24 156c0 64.667 8.16699 117.167 24.5 157.5s40.833 70 73.5 89s74 28.5 124 28.5c45.333 0 83 -8.83301 113 -26.5s52.667 -45.334 68 -83.001s23 -86.834 23 -147.501v-42h-324
c0.666992 -38.667 5 -70.667 13 -96s20.5 -44.166 37.5 -56.499s39.5 -18.5 67.5 -18.5c16.667 0 31.5 2.5 44.5 7.5s24.167 12.167 33.5 21.5s16.5 21.166 21.5 35.499s7.83301 30.5 8.5 48.5h97c-0.666992 -30.667 -5.66699 -58.167 -15 -82.5s-23 -44.666 -41 -60.999
s-39.667 -28.666 -65 -36.999s-53.666 -12.5 -84.999 -12.5zM139.998 309l221.001 -0.000976562c0 26.667 -2.33301 49.334 -7 68.001s-11.334 34 -20.001 46s-19.5 20.667 -32.5 26s-27.833 8 -44.5 8c-26 0 -47.333 -5.5 -64 -16.5s-29.167 -27.5 -37.5 -49.5
s-13.5 -49.333 -15.5 -82zM253.999 602.999c-33.333 0 -59.6699 6 -79.0029 18s-33 27.333 -41 46s-12 37.334 -12 56.001h63c0.666992 -7.33301 3.33398 -15.5 8.00098 -24.5s11.834 -16.667 21.501 -23s23.167 -9.5 40.5 -9.5c18 0 32 3.16699 42 9.5s17.333 14 22 23
s7 17.167 7 24.5h63c0 -18.667 -4.16699 -37.334 -12.5 -56.001s-22.166 -34 -41.499 -46s-46.333 -18 -81 -18z" />
    <glyph glyph-name="Edotaccent" unicode="&#x116;" horiz-adv-x="596" 
d="M73 0v686h472v-92h-365v-197h325v-93h-325v-211h371v-93h-478zM266 769v105h92v-105h-92z" />
    <glyph glyph-name="edotaccent" unicode="&#x117;" horiz-adv-x="500" 
d="M256 -12c-49.333 0 -90.168 9.66699 -122.501 29s-56.5 49.333 -72.5 90s-24 92.667 -24 156c0 64.667 8.16699 117.167 24.5 157.5s40.833 70 73.5 89s74 28.5 124 28.5c45.333 0 83 -8.83301 113 -26.5s52.667 -45.334 68 -83.001s23 -86.834 23 -147.501v-42h-324
c0.666992 -38.667 5 -70.667 13 -96s20.5 -44.166 37.5 -56.499s39.5 -18.5 67.5 -18.5c16.667 0 31.5 2.5 44.5 7.5s24.167 12.167 33.5 21.5s16.5 21.166 21.5 35.499s7.83301 30.5 8.5 48.5h97c-0.666992 -30.667 -5.66699 -58.167 -15 -82.5s-23 -44.666 -41 -60.999
s-39.667 -28.666 -65 -36.999s-53.666 -12.5 -84.999 -12.5zM139.998 309l221.001 -0.000976562c0 26.667 -2.33301 49.334 -7 68.001s-11.334 34 -20.001 46s-19.5 20.667 -32.5 26s-27.833 8 -44.5 8c-26 0 -47.333 -5.5 -64 -16.5s-29.167 -27.5 -37.5 -49.5
s-13.5 -49.333 -15.5 -82zM209.999 617.999v104h92v-104h-92z" />
    <glyph glyph-name="Eogonek" unicode="&#x118;" horiz-adv-x="596" 
d="M73 0v686h472v-92h-365v-197h325v-93h-325v-211h371v-93h-478zM486 -179c-15.333 0 -30.167 2.83496 -44.5 8.50195s-26 15 -35 28s-13.5 30.5 -13.5 52.5c0 22.667 4.83301 42.167 14.5 58.5s20.5 30.833 32.5 43.5h63v-5
c-7.33301 -6.66699 -14.666 -16.334 -21.999 -29.001s-11 -26.667 -11 -42c0 -14.667 3.66699 -27.334 11 -38.001s19.666 -16 36.999 -16h33v-47c-10 -4.66699 -21.167 -8.16699 -33.5 -10.5s-22.833 -3.5 -31.5 -3.5z" />
    <glyph glyph-name="eogonek" unicode="&#x119;" horiz-adv-x="500" 
d="M256 -12c-49.333 0 -90.168 9.66699 -122.501 29s-56.5 49.333 -72.5 90s-24 92.667 -24 156c0 64.667 8.16699 117.167 24.5 157.5s40.833 70 73.5 89s74 28.5 124 28.5c45.333 0 83 -8.83301 113 -26.5s52.667 -45.334 68 -83.001s23 -86.834 23 -147.501v-42h-324
c0.666992 -38.667 5 -70.667 13 -96s20.5 -44.166 37.5 -56.499s39.5 -18.5 67.5 -18.5c16.667 0 31.5 2.5 44.5 7.5s24.167 12.167 33.5 21.5s16.5 21.166 21.5 35.499s7.83301 30.5 8.5 48.5h97c-0.666992 -30.667 -5.66699 -58.167 -15 -82.5s-23 -44.666 -41 -60.999
s-39.667 -28.666 -65 -36.999s-53.666 -12.5 -84.999 -12.5zM139.998 309l221.001 -0.000976562c0 26.667 -2.33301 49.334 -7 68.001s-11.334 34 -20.001 46s-19.5 20.667 -32.5 26s-27.833 8 -44.5 8c-26 0 -47.333 -5.5 -64 -16.5s-29.167 -27.5 -37.5 -49.5
s-13.5 -49.333 -15.5 -82zM340.999 -179.001c-15.333 0 -30 2.83496 -44 8.50195s-25.667 15 -35 28s-14 30.5 -14 52.5c0 22.667 4.83301 42.167 14.5 58.5s20.5 30.833 32.5 43.5h63v-5c-7.33301 -6.66699 -14.666 -16.334 -21.999 -29.001s-11 -26.667 -11 -42
c0 -14.667 3.66699 -27.334 11 -38.001s19.666 -16 36.999 -16h33v-47c-10 -4.66699 -21 -8.16699 -33 -10.5s-22.667 -3.5 -32 -3.5z" />
    <glyph glyph-name="Ecaron" unicode="&#x11a;" horiz-adv-x="596" 
d="M73 0v686h472v-92h-365v-197h325v-93h-325v-211h371v-93h-478zM169 870h85l81 -111l-46 -1l80 112h86l-96 -132h-95z" />
    <glyph glyph-name="ecaron" unicode="&#x11b;" horiz-adv-x="500" 
d="M256 -12c-49.333 0 -90.168 9.66699 -122.501 29s-56.5 49.333 -72.5 90s-24 92.667 -24 156c0 64.667 8.16699 117.167 24.5 157.5s40.833 70 73.5 89s74 28.5 124 28.5c45.333 0 83 -8.83301 113 -26.5s52.667 -45.334 68 -83.001s23 -86.834 23 -147.501v-42h-324
c0.666992 -38.667 5 -70.667 13 -96s20.5 -44.166 37.5 -56.499s39.5 -18.5 67.5 -18.5c16.667 0 31.5 2.5 44.5 7.5s24.167 12.167 33.5 21.5s16.5 21.166 21.5 35.499s7.83301 30.5 8.5 48.5h97c-0.666992 -30.667 -5.66699 -58.167 -15 -82.5s-23 -44.666 -41 -60.999
s-39.667 -28.666 -65 -36.999s-53.666 -12.5 -84.999 -12.5zM139.998 309l221.001 -0.000976562c0 26.667 -2.33301 49.334 -7 68.001s-11.334 34 -20.001 46s-19.5 20.667 -32.5 26s-27.833 8 -44.5 8c-26 0 -47.333 -5.5 -64 -16.5s-29.167 -27.5 -37.5 -49.5
s-13.5 -49.333 -15.5 -82zM116.999 722.999h81l81 -111l-46 -1l80 112h81l-95 -132h-87z" />
    <glyph glyph-name="Gcircumflex" unicode="&#x11c;" horiz-adv-x="702" 
d="M347 -12c-98 0 -172.332 28.832 -222.999 86.499s-76 147.167 -76 268.5c0 80 12 146.167 36 198.5s59.167 91.5 105.5 117.5s102.833 39 169.5 39c41.333 0 79 -5 113 -15s63.5 -25.333 88.5 -46s44.333 -46.5 58 -77.5s20.5 -67.5 20.5 -109.5h-109
c0 26 -4 48.833 -12 68.5s-19.667 36 -35 49s-33.5 22.667 -54.5 29s-44.167 9.5 -69.5 9.5c-32.667 0 -61.5 -4.83301 -86.5 -14.5s-46 -24.5 -63 -44.5s-29.667 -45.5 -38 -76.5s-12.5 -67.833 -12.5 -110.5v-36c0 -56.667 7.16699 -103.167 21.5 -139.5
s36 -62.833 65 -79.5s64.167 -25 105.5 -25s75.333 6.83301 102 20.5s46.667 33.834 60 60.501s20 59.667 20 99v13h-198v89h303v-362h-73l-10 78c-16 -20 -34.333 -36.833 -55 -50.5s-43.834 -23.667 -69.501 -30s-53.5 -9.5 -83.5 -9.5zM210.001 737.999l96 132h95
l95 -132h-86l-80 112h46l-80 -112h-86z" />
    <glyph glyph-name="gcircumflex" unicode="&#x11d;" horiz-adv-x="505" 
d="M147 -185c-24.667 0 -47.1699 5.16602 -67.5029 15.499s-36.333 25.333 -48 45s-17.5 42.167 -17.5 67.5c0 28.667 7.5 52.667 22.5 72s33.5 34 55.5 44c-16 8 -28.667 19.167 -38 33.5s-14 30.5 -14 48.5c0 22.667 8 42 24 58s36 26.667 60 32
c-22.667 15.333 -40 34.666 -52 57.999s-18 49 -18 77c0 34 7.5 64 22.5 90s37.167 46.167 66.5 60.5s65.333 21.5 108 21.5c18 0 35 -1.33301 51 -4s30.333 -7 43 -13c19.333 10.667 33.833 24.334 43.5 41.001s15.5 33.667 17.5 51h92c0 -22 -4.16699 -41.833 -12.5 -59.5
s-19.666 -32.167 -33.999 -43.5s-31.166 -19.333 -50.499 -24c15.333 -15.333 27 -33.166 35 -53.499s12 -42.166 12 -65.499c0 -34 -7.33301 -63.833 -22 -89.5s-36.167 -45.834 -64.5 -60.501s-63.5 -22 -105.5 -22h-68c-15.333 0 -27.666 -3.5 -36.999 -10.5
s-14 -17.5 -14 -31.5c0 -12.667 4.83301 -22.667 14.5 -30s22.167 -11 37.5 -11h177c39.333 0 70.833 -13.333 94.5 -40s35.5 -60 35.5 -100c0 -29.333 -6.83301 -55.833 -20.5 -79.5s-33 -42.5 -58 -56.5s-54.5 -21 -88.5 -21h-182zM177.997 -112.001h146.003
c14 0 26.5 3 37.5 9s19.667 14.333 26 25s9.5 22.334 9.5 35.001c0 22 -5.83301 39.167 -17.5 51.5s-26.834 18.5 -45.501 18.5h-156c-18.667 0 -34.334 -6.66699 -47.001 -20s-19 -30 -19 -50c0 -20.667 6.16699 -37.334 18.5 -50.001s28.166 -19 47.499 -19zM251 265.999
c33.333 0 58.167 8.83301 74.5 26.5s24.5 42.5 24.5 74.5s-8.16699 56.667 -24.5 74s-41.166 26 -74.499 26c-32.667 0 -57.334 -8.66699 -74.001 -26s-25 -42 -25 -74c0 -21.333 3.66699 -39.5 11 -54.5s18.333 -26.5 33 -34.5s33 -12 55 -12zM109.001 590.999l96 132h86
l96 -132h-82l-80 112h46l-81 -112h-81z" />
    <glyph glyph-name="Gbreve" unicode="&#x11e;" horiz-adv-x="702" 
d="M347 -12c-98 0 -172.332 28.832 -222.999 86.499s-76 147.167 -76 268.5c0 80 12 146.167 36 198.5s59.167 91.5 105.5 117.5s102.833 39 169.5 39c41.333 0 79 -5 113 -15s63.5 -25.333 88.5 -46s44.333 -46.5 58 -77.5s20.5 -67.5 20.5 -109.5h-109
c0 26 -4 48.833 -12 68.5s-19.667 36 -35 49s-33.5 22.667 -54.5 29s-44.167 9.5 -69.5 9.5c-32.667 0 -61.5 -4.83301 -86.5 -14.5s-46 -24.5 -63 -44.5s-29.667 -45.5 -38 -76.5s-12.5 -67.833 -12.5 -110.5v-36c0 -56.667 7.16699 -103.167 21.5 -139.5
s36 -62.833 65 -79.5s64.167 -25 105.5 -25s75.333 6.83301 102 20.5s46.667 33.834 60 60.501s20 59.667 20 99v13h-198v89h303v-362h-73l-10 78c-16 -20 -34.333 -36.833 -55 -50.5s-43.834 -23.667 -69.501 -30s-53.5 -9.5 -83.5 -9.5zM352.001 749.999
c-33.333 0 -59.667 6 -79 18s-33 27.333 -41 46s-12 37.334 -12 56.001h62c1.33301 -7.33301 4.16602 -15.333 8.49902 -24s11.5 -16 21.5 -22s23.667 -9 41 -9c18 0 32.167 3 42.5 9s17.833 13.5 22.5 22.5s7.33398 16.833 8.00098 23.5h61
c0 -18.667 -4.16699 -37.334 -12.5 -56.001s-22.333 -34 -42 -46s-46.5 -18 -80.5 -18z" />
    <glyph glyph-name="gbreve" unicode="&#x11f;" horiz-adv-x="505" 
d="M147 -185c-24.667 0 -47.1699 5.16602 -67.5029 15.499s-36.333 25.333 -48 45s-17.5 42.167 -17.5 67.5c0 28.667 7.5 52.667 22.5 72s33.5 34 55.5 44c-16 8 -28.667 19.167 -38 33.5s-14 30.5 -14 48.5c0 22.667 8 42 24 58s36 26.667 60 32
c-22.667 15.333 -40 34.666 -52 57.999s-18 49 -18 77c0 34 7.5 64 22.5 90s37.167 46.167 66.5 60.5s65.333 21.5 108 21.5c18 0 35 -1.33301 51 -4s30.333 -7 43 -13c19.333 10.667 33.833 24.334 43.5 41.001s15.5 33.667 17.5 51h92c0 -22 -4.16699 -41.833 -12.5 -59.5
s-19.666 -32.167 -33.999 -43.5s-31.166 -19.333 -50.499 -24c15.333 -15.333 27 -33.166 35 -53.499s12 -42.166 12 -65.499c0 -34 -7.33301 -63.833 -22 -89.5s-36.167 -45.834 -64.5 -60.501s-63.5 -22 -105.5 -22h-68c-15.333 0 -27.666 -3.5 -36.999 -10.5
s-14 -17.5 -14 -31.5c0 -12.667 4.83301 -22.667 14.5 -30s22.167 -11 37.5 -11h177c39.333 0 70.833 -13.333 94.5 -40s35.5 -60 35.5 -100c0 -29.333 -6.83301 -55.833 -20.5 -79.5s-33 -42.5 -58 -56.5s-54.5 -21 -88.5 -21h-182zM177.997 -112.001h146.003
c14 0 26.5 3 37.5 9s19.667 14.333 26 25s9.5 22.334 9.5 35.001c0 22 -5.83301 39.167 -17.5 51.5s-26.834 18.5 -45.501 18.5h-156c-18.667 0 -34.334 -6.66699 -47.001 -20s-19 -30 -19 -50c0 -20.667 6.16699 -37.334 18.5 -50.001s28.166 -19 47.499 -19zM251 265.999
c33.333 0 58.167 8.83301 74.5 26.5s24.5 42.5 24.5 74.5s-8.16699 56.667 -24.5 74s-41.166 26 -74.499 26c-32.667 0 -57.334 -8.66699 -74.001 -26s-25 -42 -25 -74c0 -21.333 3.66699 -39.5 11 -54.5s18.333 -26.5 33 -34.5s33 -12 55 -12zM247.001 602.999
c-34 0 -60.667 6 -80 18s-33 27.333 -41 46s-12 37.334 -12 56.001h63c1.33301 -7.33301 4.16602 -15.5 8.49902 -24.5s11.333 -16.667 21 -23s23.167 -9.5 40.5 -9.5c18 0 32 3.16699 42 9.5s17.333 14 22 23s7 17.167 7 24.5h63c0 -18.667 -4.16699 -37.334 -12.5 -56.001
s-22.166 -34 -41.499 -46s-46 -18 -80 -18z" />
    <glyph glyph-name="Gdotaccent" unicode="&#x120;" horiz-adv-x="702" 
d="M347 -12c-98 0 -172.332 28.832 -222.999 86.499s-76 147.167 -76 268.5c0 80 12 146.167 36 198.5s59.167 91.5 105.5 117.5s102.833 39 169.5 39c41.333 0 79 -5 113 -15s63.5 -25.333 88.5 -46s44.333 -46.5 58 -77.5s20.5 -67.5 20.5 -109.5h-109
c0 26 -4 48.833 -12 68.5s-19.667 36 -35 49s-33.5 22.667 -54.5 29s-44.167 9.5 -69.5 9.5c-32.667 0 -61.5 -4.83301 -86.5 -14.5s-46 -24.5 -63 -44.5s-29.667 -45.5 -38 -76.5s-12.5 -67.833 -12.5 -110.5v-36c0 -56.667 7.16699 -103.167 21.5 -139.5
s36 -62.833 65 -79.5s64.167 -25 105.5 -25s75.333 6.83301 102 20.5s46.667 33.834 60 60.501s20 59.667 20 99v13h-198v89h303v-362h-73l-10 78c-16 -20 -34.333 -36.833 -55 -50.5s-43.834 -23.667 -69.501 -30s-53.5 -9.5 -83.5 -9.5zM307.001 768.999v105h93v-105h-93z
" />
    <glyph glyph-name="gdotaccent" unicode="&#x121;" horiz-adv-x="505" 
d="M147 -185c-24.667 0 -47.1699 5.16602 -67.5029 15.499s-36.333 25.333 -48 45s-17.5 42.167 -17.5 67.5c0 28.667 7.5 52.667 22.5 72s33.5 34 55.5 44c-16 8 -28.667 19.167 -38 33.5s-14 30.5 -14 48.5c0 22.667 8 42 24 58s36 26.667 60 32
c-22.667 15.333 -40 34.666 -52 57.999s-18 49 -18 77c0 34 7.5 64 22.5 90s37.167 46.167 66.5 60.5s65.333 21.5 108 21.5c18 0 35 -1.33301 51 -4s30.333 -7 43 -13c19.333 10.667 33.833 24.334 43.5 41.001s15.5 33.667 17.5 51h92c0 -22 -4.16699 -41.833 -12.5 -59.5
s-19.666 -32.167 -33.999 -43.5s-31.166 -19.333 -50.499 -24c15.333 -15.333 27 -33.166 35 -53.499s12 -42.166 12 -65.499c0 -34 -7.33301 -63.833 -22 -89.5s-36.167 -45.834 -64.5 -60.501s-63.5 -22 -105.5 -22h-68c-15.333 0 -27.666 -3.5 -36.999 -10.5
s-14 -17.5 -14 -31.5c0 -12.667 4.83301 -22.667 14.5 -30s22.167 -11 37.5 -11h177c39.333 0 70.833 -13.333 94.5 -40s35.5 -60 35.5 -100c0 -29.333 -6.83301 -55.833 -20.5 -79.5s-33 -42.5 -58 -56.5s-54.5 -21 -88.5 -21h-182zM177.997 -112.001h146.003
c14 0 26.5 3 37.5 9s19.667 14.333 26 25s9.5 22.334 9.5 35.001c0 22 -5.83301 39.167 -17.5 51.5s-26.834 18.5 -45.501 18.5h-156c-18.667 0 -34.334 -6.66699 -47.001 -20s-19 -30 -19 -50c0 -20.667 6.16699 -37.334 18.5 -50.001s28.166 -19 47.499 -19zM251 265.999
c33.333 0 58.167 8.83301 74.5 26.5s24.5 42.5 24.5 74.5s-8.16699 56.667 -24.5 74s-41.166 26 -74.499 26c-32.667 0 -57.334 -8.66699 -74.001 -26s-25 -42 -25 -74c0 -21.333 3.66699 -39.5 11 -54.5s18.333 -26.5 33 -34.5s33 -12 55 -12zM202.001 617.999v104h92v-104
h-92z" />
    <glyph glyph-name="uni0122" unicode="&#x122;" horiz-adv-x="702" 
d="M347 -12c-98 0 -172.332 28.832 -222.999 86.499s-76 147.167 -76 268.5c0 80 12 146.167 36 198.5s59.167 91.5 105.5 117.5s102.833 39 169.5 39c41.333 0 79 -5 113 -15s63.5 -25.333 88.5 -46s44.333 -46.5 58 -77.5s20.5 -67.5 20.5 -109.5h-109
c0 26 -4 48.833 -12 68.5s-19.667 36 -35 49s-33.5 22.667 -54.5 29s-44.167 9.5 -69.5 9.5c-32.667 0 -61.5 -4.83301 -86.5 -14.5s-46 -24.5 -63 -44.5s-29.667 -45.5 -38 -76.5s-12.5 -67.833 -12.5 -110.5v-36c0 -56.667 7.16699 -103.167 21.5 -139.5
s36 -62.833 65 -79.5s64.167 -25 105.5 -25s75.333 6.83301 102 20.5s46.667 33.834 60 60.501s20 59.667 20 99v13h-198v89h303v-362h-73l-10 78c-16 -20 -34.333 -36.833 -55 -50.5s-43.834 -23.667 -69.501 -30s-53.5 -9.5 -83.5 -9.5zM298.001 -294.001v42.001
c18 0 31 5.83301 39 17.5s12 27.5 12 47.5h-42v105h93v-85c0 -30.667 -4.33301 -55.334 -13 -74.001s-20.5 -32.167 -35.5 -40.5s-32.833 -12.5 -53.5 -12.5z" />
    <glyph glyph-name="uni0123" unicode="&#x123;" horiz-adv-x="505" 
d="M147 -185c-24.667 0 -47.1699 5.16602 -67.5029 15.499s-36.333 25.333 -48 45s-17.5 42.167 -17.5 67.5c0 28.667 7.5 52.667 22.5 72s33.5 34 55.5 44c-16 8 -28.667 19.167 -38 33.5s-14 30.5 -14 48.5c0 22.667 8 42 24 58s36 26.667 60 32
c-22.667 15.333 -40 34.666 -52 57.999s-18 49 -18 77c0 34 7.5 64 22.5 90s37.167 46.167 66.5 60.5s65.333 21.5 108 21.5c18 0 35 -1.33301 51 -4s30.333 -7 43 -13c19.333 10.667 33.833 24.334 43.5 41.001s15.5 33.667 17.5 51h92c0 -22 -4.16699 -41.833 -12.5 -59.5
s-19.666 -32.167 -33.999 -43.5s-31.166 -19.333 -50.499 -24c15.333 -15.333 27 -33.166 35 -53.499s12 -42.166 12 -65.499c0 -34 -7.33301 -63.833 -22 -89.5s-36.167 -45.834 -64.5 -60.501s-63.5 -22 -105.5 -22h-68c-15.333 0 -27.666 -3.5 -36.999 -10.5
s-14 -17.5 -14 -31.5c0 -12.667 4.83301 -22.667 14.5 -30s22.167 -11 37.5 -11h177c39.333 0 70.833 -13.333 94.5 -40s35.5 -60 35.5 -100c0 -29.333 -6.83301 -55.833 -20.5 -79.5s-33 -42.5 -58 -56.5s-54.5 -21 -88.5 -21h-182zM177.997 -112.001h146.003
c14 0 26.5 3 37.5 9s19.667 14.333 26 25s9.5 22.334 9.5 35.001c0 22 -5.83301 39.167 -17.5 51.5s-26.834 18.5 -45.501 18.5h-156c-18.667 0 -34.334 -6.66699 -47.001 -20s-19 -30 -19 -50c0 -20.667 6.16699 -37.334 18.5 -50.001s28.166 -19 47.499 -19zM251 265.999
c33.333 0 58.167 8.83301 74.5 26.5s24.5 42.5 24.5 74.5s-8.16699 56.667 -24.5 74s-41.166 26 -74.499 26c-32.667 0 -57.334 -8.66699 -74.001 -26s-25 -42 -25 -74c0 -21.333 3.66699 -39.5 11 -54.5s18.333 -26.5 33 -34.5s33 -12 55 -12zM303.001 836.999
l0.000976562 -43.002c-17.333 0 -30 -5.83301 -38 -17.5s-12 -27.5 -12 -47.5h41v-105h-92v85c0 30.667 4.16699 55.334 12.5 74.001s20.166 32.334 35.499 41.001s33 13 53 13z" />
    <glyph glyph-name="Hcircumflex" unicode="&#x124;" horiz-adv-x="654" 
d="M73 0v686h107v-289h294v289h107v-686h-107v303h-294v-303h-107zM184 738l95 132h96l95 -132h-86l-80 112h46l-81 -112h-85z" />
    <glyph glyph-name="hcircumflex" unicode="&#x125;" horiz-adv-x="511" 
d="M61 0v723h98v-258h7c10.667 16 23 29.333 37 40s29.833 18.834 47.5 24.501s37.167 8.5 58.5 8.5c29.333 0 55 -5.33301 77 -16s39.167 -27.834 51.5 -51.501s18.5 -55.5 18.5 -95.5v-375h-100v356c0 16.667 -1.83301 31 -5.5 43s-9.16699 21.667 -16.5 29
s-16.333 12.833 -27 16.5s-22.667 5.5 -36 5.5c-20.667 0 -39.5 -5.5 -56.5 -16.5s-30.5 -27 -40.5 -48s-15 -46.833 -15 -77.5v-308h-98zM-34 738l95 132h95l96 -132h-86l-80 112h46l-81 -112h-85z" />
    <glyph glyph-name="Hbar" unicode="&#x126;" horiz-adv-x="654" 
d="M73 0v686h107v-289h294v289h107v-686h-107v303h-294v-303h-107zM9 532v78h635v-78h-635z" />
    <glyph glyph-name="hbar" unicode="&#x127;" horiz-adv-x="511" 
d="M61 0v723h98v-258h7c10.667 16 23 29.333 37 40s29.833 18.834 47.5 24.501s37.167 8.5 58.5 8.5c29.333 0 55 -5.33301 77 -16s39.167 -27.834 51.5 -51.501s18.5 -55.5 18.5 -95.5v-375h-100v356c0 16.667 -1.83301 31 -5.5 43s-9.16699 21.667 -16.5 29
s-16.333 12.833 -27 16.5s-22.667 5.5 -36 5.5c-20.667 0 -39.5 -5.5 -56.5 -16.5s-30.5 -27 -40.5 -48s-15 -46.833 -15 -77.5v-308h-98zM0 586v68h291v-68h-291z" />
    <glyph glyph-name="Itilde" unicode="&#x128;" horiz-adv-x="253" 
d="M73 0v686h107v-686h-107zM-21 765c0 20 3 37.666 9 52.999s15 27.333 27 36s27 13 45 13c16 0 31.167 -2.66699 45.5 -8s28.166 -10.833 41.499 -16.5s26.666 -8.5 39.999 -8.5c9.33301 0 16.5 2.83301 21.5 8.5s8.16699 14.167 9.5 25.5h56
c0 -19.333 -3.16699 -36.666 -9.5 -51.999s-15.333 -27.5 -27 -36.5s-26.834 -13.5 -45.501 -13.5c-15.333 0 -30.166 2.83301 -44.499 8.5s-28.166 11.167 -41.499 16.5s-26.666 8 -39.999 8c-9.33301 0 -16.5 -2.83301 -21.5 -8.5s-8.16699 -14.167 -9.5 -25.5h-56z" />
    <glyph glyph-name="itilde" unicode="&#x129;" horiz-adv-x="220" 
d="M61 0v526h98v-526h-98zM-38 617c0 20 2.99805 37.666 8.99805 52.999s15 27.5 27 36.5s27 13.5 45 13.5c16 0 31 -2.66699 45 -8s27.833 -10.833 41.5 -16.5s27.167 -8.5 40.5 -8.5c9.33301 0 16.5 2.83301 21.5 8.5s8.16699 13.834 9.5 24.501h56
c0 -18.667 -3.16699 -35.834 -9.5 -51.501s-15.333 -28 -27 -37s-26.834 -13.5 -45.501 -13.5c-15.333 0 -30.166 2.83301 -44.499 8.5s-28.166 11.334 -41.499 17.001s-26.666 8.5 -39.999 8.5c-9.33301 0 -16.5 -3 -21.5 -9s-8.16699 -14.667 -9.5 -26h-56z" />
    <glyph glyph-name="Imacron" unicode="&#x12a;" horiz-adv-x="253" 
d="M73 0v686h107v-686h-107zM-7 769v70h267v-70h-267z" />
    <glyph glyph-name="imacron" unicode="&#x12b;" horiz-adv-x="220" 
d="M61 0v526h98v-526h-98zM-24 630v70h266v-70h-266z" />
    <glyph glyph-name="Ibreve" unicode="&#x12c;" horiz-adv-x="253" 
d="M73 0v686h107v-686h-107zM126 750c-34 0 -60.501 6 -79.501 18s-32.5 27.5 -40.5 46.5s-12 37.5 -12 55.5h61c1.33301 -7.33301 4.16602 -15.333 8.49902 -24s11.5 -16 21.5 -22s24 -9 42 -9s32 3 42 9s17.333 13.5 22 22.5s7.33398 16.833 8.00098 23.5h61
c0 -18 -4.16699 -36.5 -12.5 -55.5s-22.166 -34.5 -41.499 -46.5s-46 -18 -80 -18z" />
    <glyph glyph-name="ibreve" unicode="&#x12d;" horiz-adv-x="220" 
d="M61 0v526h98v-526h-98zM108 603c-33.333 0 -59.667 6 -79 18s-33 27.333 -41 46s-12 37.334 -12 56.001h63c0.666992 -7.33301 3.16699 -15.5 7.5 -24.5s11.5 -16.667 21.5 -23s23.667 -9.5 41 -9.5c18 0 32 3.16699 42 9.5s17.167 14 21.5 23s6.83301 17.167 7.5 24.5
h63c0 -18.667 -4.33301 -37.334 -13 -56.001s-22.667 -34 -42 -46s-46 -18 -80 -18z" />
    <glyph glyph-name="Iogonek" unicode="&#x12e;" horiz-adv-x="253" 
d="M73 0v686h107v-686h-107zM119 -179c-15.333 0 -30.002 2.83496 -44.002 8.50195s-25.667 15 -35 28s-14 30.5 -14 52.5c0 22.667 4.83301 42.167 14.5 58.5s20.834 30.833 33.501 43.5h62v-5c-6.66699 -6.66699 -13.834 -16.334 -21.501 -29.001s-11.5 -26.667 -11.5 -42
c0 -14.667 3.83301 -27.334 11.5 -38.001s20.167 -16 37.5 -16h32v-47c-9.33301 -4.66699 -20.166 -8.16699 -32.499 -10.5s-23.166 -3.5 -32.499 -3.5z" />
    <glyph glyph-name="iogonek" unicode="&#x12f;" horiz-adv-x="220" 
d="M61 619v104h98v-104h-98zM61 0v526h98v-526h-98zM109 -179c-15.333 0 -30.002 2.83496 -44.002 8.50195s-25.667 15 -35 28s-14 30.5 -14 52.5c0 22.667 4.83301 42.167 14.5 58.5s20.834 30.833 33.501 43.5h62v-5c-6.66699 -6.66699 -13.834 -16.334 -21.501 -29.001
s-11.5 -26.667 -11.5 -42c0 -14.667 3.66699 -27.334 11 -38.001s20 -16 38 -16h32v-47c-9.33301 -4.66699 -20.166 -8.16699 -32.499 -10.5s-23.166 -3.5 -32.499 -3.5z" />
    <glyph glyph-name="Idotaccent" unicode="&#x130;" horiz-adv-x="253" 
d="M73 0v686h107v-686h-107zM81 769v105h92v-105h-92z" />
    <glyph glyph-name="dotlessi" unicode="&#x131;" horiz-adv-x="220" 
d="M61 0v526h98v-526h-98z" />
    <glyph glyph-name="IJ" unicode="&#x132;" horiz-adv-x="761" 
d="M73 0v686h107v-686h-107zM483 -12c-43.333 0 -80.334 7.00098 -111.001 21.001s-54 35 -70 63s-24 62.667 -24 104v36h106v-34c0 -32 8.16699 -56.333 24.5 -73s41.5 -25 75.5 -25c33.333 0 58.333 11.167 75 33.5s25 55.166 25 98.499v474h108v-474
c0 -50.667 -8.33301 -92.667 -25 -126s-40.667 -58 -72 -74s-68.666 -24 -111.999 -24z" />
    <glyph glyph-name="ij" unicode="&#x133;" horiz-adv-x="438" 
d="M61 619v104h98v-104h-98zM61 0v526h98v-526h-98zM281 619v104h99v-104h-99zM271 -185c-7.33301 0 -15.667 0.5 -25 1.5s-18.333 2.5 -27 4.5s-15.667 4 -21 6v70h45c13.333 0 23 3.66699 29 11s9 19 9 35v583h99v-595c0 -22 -3.5 -41.833 -10.5 -59.5
s-18.5 -31.5 -34.5 -41.5s-37.333 -15 -64 -15z" />
    <glyph glyph-name="Jcircumflex" unicode="&#x134;" horiz-adv-x="508" 
d="M230 -12c-43.333 0 -80.334 7.00098 -111.001 21.001s-54 35 -70 63s-24 62.667 -24 104v36h106v-34c0 -32 8.16699 -56.333 24.5 -73s41.5 -25 75.5 -25c33.333 0 58.333 11.167 75 33.5s25 55.166 25 98.499v474h108v-474c0 -50.667 -8.33301 -92.667 -25 -126
s-40.667 -58 -72 -74s-68.666 -24 -111.999 -24zM240.999 738.001l96 132h95l96 -132h-86l-80 112h46l-81 -112h-86z" />
    <glyph glyph-name="jcircumflex" unicode="&#x135;" horiz-adv-x="218" 
d="M51 -185c-7.33301 0 -15.666 0.5 -24.999 1.5s-18.333 2.5 -27 4.5s-15.667 4 -21 6v70h44c14 0 24 3.66699 30 11s9 19 9 35v583h98v-595c0 -22 -3.5 -41.833 -10.5 -59.5s-18.333 -31.5 -34 -41.5s-36.834 -15 -63.501 -15zM-30 591l96 132h86l96 -132h-82l-80 112h46
l-81 -112h-81z" />
    <glyph glyph-name="uni0136" unicode="&#x136;" horiz-adv-x="612" 
d="M73 0v686h107v-344l287 344h127l-232 -276l239 -410h-125l-186 325l-110 -117v-208h-107zM266 -294v42.001c18 0 31 5.83301 39 17.5s12 27.5 12 47.5h-42v105h93v-85c0 -30.667 -4.33301 -55.334 -13 -74.001s-20.5 -32.167 -35.5 -40.5s-32.833 -12.5 -53.5 -12.5z" />
    <glyph glyph-name="uni0137" unicode="&#x137;" horiz-adv-x="475" 
d="M61 0v723h98v-433l182 236h113l-160 -204l168 -322h-111l-121 241l-71 -79v-162h-98zM192 -294v42.001c17.333 0 30 5.83301 38 17.5s12 27.5 12 47.5h-41v105h92v-85c0 -30.667 -4.33301 -55.334 -13 -74.001s-20.5 -32.167 -35.5 -40.5s-32.5 -12.5 -52.5 -12.5z" />
    <glyph glyph-name="kgreenlandic" unicode="&#x138;" horiz-adv-x="476" 
d="M61 0v526h98v-236l182 236h113l-160 -204l168 -322h-111l-121 241l-71 -79v-162h-98z" />
    <glyph glyph-name="Lacute" unicode="&#x139;" horiz-adv-x="494" 
d="M73 0v686h107v-592h299v-94h-406zM83 738l76 132h106l1 -3l-100 -129h-83z" />
    <glyph glyph-name="lacute" unicode="&#x13a;" horiz-adv-x="220" 
d="M61 0v723h98v-723h-98zM67 738l75 132h106l1 -3l-100 -129h-82z" />
    <glyph glyph-name="uni013B" unicode="&#x13b;" horiz-adv-x="494" 
d="M73 0v686h107v-592h299v-94h-406zM220 -294v42.001c18 0 31 5.83301 39 17.5s12 27.5 12 47.5h-42v105h93v-85c0 -30.667 -4.33301 -55.334 -13 -74.001s-20.5 -32.167 -35.5 -40.5s-32.833 -12.5 -53.5 -12.5z" />
    <glyph glyph-name="uni013C" unicode="&#x13c;" horiz-adv-x="220" 
d="M61 0v723h98v-723h-98zM55 -294v42.001c17.333 0 30 5.83301 38 17.5s12 27.5 12 47.5h-41v105h92v-85c0 -30.667 -4.33301 -55.334 -13 -74.001s-20.5 -32.167 -35.5 -40.5s-32.5 -12.5 -52.5 -12.5z" />
    <glyph glyph-name="Lcaron" unicode="&#x13d;" horiz-adv-x="494" 
d="M73 0v686h107v-592h299v-94h-406zM327 555v168h92l-27 -168h-65z" />
    <glyph glyph-name="lcaron" unicode="&#x13e;" horiz-adv-x="220" 
d="M61 0v723h98v-723h-98zM196 555v168h92l-27 -168h-65z" />
    <glyph glyph-name="Ldot" unicode="&#x13f;" horiz-adv-x="494" 
d="M73 0v686h107v-592h299v-94h-406zM323 325v104h97v-104h-97z" />
    <glyph glyph-name="ldot" unicode="&#x140;" horiz-adv-x="220" 
d="M61 0v723h98v-723h-98zM191 325v104h89v-104h-89z" />
    <glyph glyph-name="Lslash" unicode="&#x141;" horiz-adv-x="494" 
d="M73 0v686h107v-592h299v-94h-406zM0 193v81l310 233v-83z" />
    <glyph glyph-name="lslash" unicode="&#x142;" horiz-adv-x="220" 
d="M61 0v723h98v-723h-98zM2 228v82l215 189v-81z" />
    <glyph glyph-name="Nacute" unicode="&#x143;" horiz-adv-x="654" 
d="M73 0l0.000976562 686.001h103l266 -419c2.66699 -4.66699 6.16699 -10.667 10.5 -18s8.33301 -14.666 12 -21.999l9.5 -19h4v31.5v27.5v419h104v-686h-100l-269 425c-4 7.33301 -9.33301 17.166 -16 29.499s-12.334 23.166 -17.001 32.499h-4v-31.5v-31.5v-424h-103z
M285.001 738.001l76 132h106l1 -3l-100 -129h-83z" />
    <glyph glyph-name="nacute" unicode="&#x144;" horiz-adv-x="512" 
d="M61 0v526h81l9 -72h6c11.333 18.667 24.5 34.334 39.5 47.001s31.833 22 50.5 28s39 9 61 9c30 0 56 -5.33301 78 -16s39.167 -27.834 51.5 -51.501s18.5 -55.5 18.5 -95.5v-375h-100v356c0 16.667 -1.83301 31 -5.5 43s-9.16699 21.667 -16.5 29
s-16.333 12.833 -27 16.5s-22.667 5.5 -36 5.5c-20.667 0 -39.5 -5.66699 -56.5 -17s-30.5 -27.5 -40.5 -48.5s-15 -46.5 -15 -76.5v-308h-98zM208 591l75 132h102l1 -3l-100 -129h-78z" />
    <glyph glyph-name="uni0145" unicode="&#x145;" horiz-adv-x="654" 
d="M73 0l0.000976562 686.001h103l266 -419c2.66699 -4.66699 6.16699 -10.667 10.5 -18s8.33301 -14.666 12 -21.999l9.5 -19h4v31.5v27.5v419h104v-686h-100l-269 425c-4 7.33301 -9.33301 17.166 -16 29.499s-12.334 23.166 -17.001 32.499h-4v-31.5v-31.5v-424h-103z
M272.001 -293.999v42.001c18 0 31 5.83301 39 17.5s12 27.5 12 47.5h-42v105h93v-85c0 -30.667 -4.33301 -55.334 -13 -74.001s-20.5 -32.167 -35.5 -40.5s-32.833 -12.5 -53.5 -12.5z" />
    <glyph glyph-name="uni0146" unicode="&#x146;" horiz-adv-x="512" 
d="M61 0v526h81l9 -72h6c11.333 18.667 24.5 34.334 39.5 47.001s31.833 22 50.5 28s39 9 61 9c30 0 56 -5.33301 78 -16s39.167 -27.834 51.5 -51.501s18.5 -55.5 18.5 -95.5v-375h-100v356c0 16.667 -1.83301 31 -5.5 43s-9.16699 21.667 -16.5 29
s-16.333 12.833 -27 16.5s-22.667 5.5 -36 5.5c-20.667 0 -39.5 -5.66699 -56.5 -17s-30.5 -27.5 -40.5 -48.5s-15 -46.5 -15 -76.5v-308h-98zM203 -294l-0.000976562 42.001c17.333 0 30 5.83301 38 17.5s12 27.5 12 47.5h-41v105h92v-85
c0 -30.667 -4.16699 -55.334 -12.5 -74.001s-20.166 -32.167 -35.499 -40.5s-33 -12.5 -53 -12.5z" />
    <glyph glyph-name="Ncaron" unicode="&#x147;" horiz-adv-x="654" 
d="M73 0l0.000976562 686.001h103l266 -419c2.66699 -4.66699 6.16699 -10.667 10.5 -18s8.33301 -14.666 12 -21.999l9.5 -19h4v31.5v27.5v419h104v-686h-100l-269 425c-4 7.33301 -9.33301 17.166 -16 29.499s-12.334 23.166 -17.001 32.499h-4v-31.5v-31.5v-424h-103z
M185.001 870.001h86l81 -111l-46 -1l79 112h86l-95 -132h-95z" />
    <glyph glyph-name="ncaron" unicode="&#x148;" horiz-adv-x="512" 
d="M61 0v526h81l9 -72h6c11.333 18.667 24.5 34.334 39.5 47.001s31.833 22 50.5 28s39 9 61 9c30 0 56 -5.33301 78 -16s39.167 -27.834 51.5 -51.501s18.5 -55.5 18.5 -95.5v-375h-100v356c0 16.667 -1.83301 31 -5.5 43s-9.16699 21.667 -16.5 29
s-16.333 12.833 -27 16.5s-22.667 5.5 -36 5.5c-20.667 0 -39.5 -5.66699 -56.5 -17s-30.5 -27.5 -40.5 -48.5s-15 -46.5 -15 -76.5v-308h-98zM119 723h81l81 -111l-46 -1l80 112h81l-95 -132h-87z" />
    <glyph glyph-name="napostrophe" unicode="&#x149;" horiz-adv-x="512" 
d="M61 0v526h81l9 -72h6c11.333 18.667 24.5 34.334 39.5 47.001s31.833 22 50.5 28s39 9 61 9c30 0 56 -5.33301 78 -16s39.167 -27.834 51.5 -51.501s18.5 -55.5 18.5 -95.5v-375h-100v356c0 16.667 -1.83301 31 -5.5 43s-9.16699 21.667 -16.5 29
s-16.333 12.833 -27 16.5s-22.667 5.5 -36 5.5c-20.667 0 -39.5 -5.66699 -56.5 -17s-30.5 -27.5 -40.5 -48.5s-15 -46.5 -15 -76.5v-308h-98zM-9 557v43.002c18 0 31 5.83301 39 17.5s12 27.5 12 47.5h-42v105h93v-85c0 -30.667 -4.33301 -55.334 -13 -74.001
s-20.5 -32.334 -35.5 -41.001s-32.833 -13 -53.5 -13z" />
    <glyph glyph-name="Eng" unicode="&#x14a;" horiz-adv-x="654" 
d="M473 -185c-7.33301 0 -15.8301 0.499023 -25.4971 1.49902s-18.667 2.5 -27 4.5s-15.5 4 -21.5 6v69h42c14 0 23.833 3.66699 29.5 11s8.5 19 8.5 35v63l-266 420c-4 6.66699 -9.5 16.5 -16.5 29.5s-12.167 22.833 -15.5 29.5h-4v-30v-30v-424h-104v686h103l266 -419
c2.66699 -4 6 -9.66699 10 -17l12 -22c4 -7.33301 7 -13.333 9 -18h5v29.5v27.5v419h104v-741c0 -19.333 -1.83301 -37 -5.5 -53s-9.83398 -29.667 -18.501 -41s-19.834 -20.166 -33.501 -26.499s-30.834 -9.5 -51.501 -9.5z" />
    <glyph glyph-name="eng" unicode="&#x14b;" horiz-adv-x="511" 
d="M347 -185c-7.33301 0 -15.668 0.499023 -25.001 1.49902s-18.166 2.5 -26.499 4.5s-15.166 4 -20.499 6v68h43c14 0 23.833 3.83301 29.5 11.5s8.5 19.5 8.5 35.5v414c0 16.667 -1.83301 31 -5.5 43s-9.16699 21.667 -16.5 29s-16.333 12.833 -27 16.5s-23 5.5 -37 5.5
c-20.667 0 -39.334 -5.66699 -56.001 -17s-30 -27.5 -40 -48.5s-15 -46.5 -15 -76.5v-308h-98v526h81l9 -72h6c11.333 18.667 24.333 34.334 39 47.001s31.5 22 50.5 28s39.167 9 60.5 9c30 0 56 -5.33301 78 -16s39.167 -27.834 51.5 -51.501s18.5 -55.5 18.5 -95.5v-444
c0 -16.667 -2 -32.167 -6 -46.5s-10.167 -26.666 -18.5 -36.999s-19.5 -18.333 -33.5 -24s-30.667 -8.5 -50 -8.5z" />
    <glyph glyph-name="Omacron" unicode="&#x14c;" horiz-adv-x="699" 
d="M350 -12c-64 0 -119 12.833 -165 38.5s-81 64.834 -105 117.501s-36 119 -36 199c0 80.667 12 147.167 36 199.5s59 91.333 105 117s101 38.5 165 38.5c64.667 0 119.667 -12.833 165 -38.5s80 -64.667 104 -117s36 -118.833 36 -199.5c0 -80 -12 -146.333 -36 -199
s-58.667 -91.834 -104 -117.501s-100.333 -38.5 -165 -38.5zM350 80c31.333 0 59 5 83 15s44.333 25.167 61 45.5s29.334 45.833 38.001 76.5s13 66.667 13 108v36c0 41.333 -4.33301 77.333 -13 108s-21.334 56.167 -38.001 76.5s-37 35.5 -61 45.5s-51.667 15 -83 15
s-59.166 -5 -83.499 -15s-44.833 -25.167 -61.5 -45.5s-29.167 -45.833 -37.5 -76.5s-12.5 -66.667 -12.5 -108v-36c0 -41.333 4.16699 -77.333 12.5 -108s20.833 -56.167 37.5 -76.5s37.167 -35.5 61.5 -45.5s52.166 -15 83.499 -15zM215 769v70h268v-70h-268z" />
    <glyph glyph-name="omacron" unicode="&#x14d;" horiz-adv-x="521" 
d="M260 -12c-48.667 0 -89.667 9.66699 -123 29s-58.333 49.166 -75 89.499s-25 92.5 -25 156.5c0 64.667 8.33301 117.167 25 157.5s41.667 70 75 89s74.333 28.5 123 28.5c49.333 0 90.5 -9.5 123.5 -28.5s58 -48.667 75 -89s25.5 -92.833 25.5 -157.5
c0 -64 -8.5 -116.167 -25.5 -156.5s-42 -70.166 -75 -89.499s-74.167 -29 -123.5 -29zM260 70c28 0 51 6.33301 69 19s31.167 32.167 39.5 58.5s12.5 60.166 12.5 101.499v28c0 42 -4.16699 76.167 -12.5 102.5s-21.5 45.666 -39.5 57.999s-41 18.5 -69 18.5
s-50.833 -6.16699 -68.5 -18.5s-30.834 -31.666 -39.501 -57.999s-13 -60.5 -13 -102.5v-28c0 -41.333 4.33301 -75.166 13 -101.499s21.834 -45.833 39.501 -58.5s40.5 -19 68.5 -19zM127 630v70h266v-70h-266z" />
    <glyph glyph-name="Obreve" unicode="&#x14e;" horiz-adv-x="699" 
d="M350 -12c-64 0 -119 12.833 -165 38.5s-81 64.834 -105 117.501s-36 119 -36 199c0 80.667 12 147.167 36 199.5s59 91.333 105 117s101 38.5 165 38.5c64.667 0 119.667 -12.833 165 -38.5s80 -64.667 104 -117s36 -118.833 36 -199.5c0 -80 -12 -146.333 -36 -199
s-58.667 -91.834 -104 -117.501s-100.333 -38.5 -165 -38.5zM350 80c31.333 0 59 5 83 15s44.333 25.167 61 45.5s29.334 45.833 38.001 76.5s13 66.667 13 108v36c0 41.333 -4.33301 77.333 -13 108s-21.334 56.167 -38.001 76.5s-37 35.5 -61 45.5s-51.667 15 -83 15
s-59.166 -5 -83.499 -15s-44.833 -25.167 -61.5 -45.5s-29.167 -45.833 -37.5 -76.5s-12.5 -66.667 -12.5 -108v-36c0 -41.333 4.16699 -77.333 12.5 -108s20.833 -56.167 37.5 -76.5s37.167 -35.5 61.5 -45.5s52.166 -15 83.499 -15zM348 750c-33.333 0 -59.667 6 -79 18
s-32.833 27.333 -40.5 46s-11.5 37.334 -11.5 56.001h61c1.33301 -7.33301 4.16602 -15.333 8.49902 -24s11.5 -16 21.5 -22s23.667 -9 41 -9c18.667 0 33 3 43 9s17.333 13.5 22 22.5s7.33398 16.833 8.00098 23.5h61c0 -18.667 -4.16699 -37.334 -12.5 -56.001
s-22.333 -34 -42 -46s-46.5 -18 -80.5 -18z" />
    <glyph glyph-name="obreve" unicode="&#x14f;" horiz-adv-x="521" 
d="M260 -12c-48.667 0 -89.667 9.66699 -123 29s-58.333 49.166 -75 89.499s-25 92.5 -25 156.5c0 64.667 8.33301 117.167 25 157.5s41.667 70 75 89s74.333 28.5 123 28.5c49.333 0 90.5 -9.5 123.5 -28.5s58 -48.667 75 -89s25.5 -92.833 25.5 -157.5
c0 -64 -8.5 -116.167 -25.5 -156.5s-42 -70.166 -75 -89.499s-74.167 -29 -123.5 -29zM260 70c28 0 51 6.33301 69 19s31.167 32.167 39.5 58.5s12.5 60.166 12.5 101.499v28c0 42 -4.16699 76.167 -12.5 102.5s-21.5 45.666 -39.5 57.999s-41 18.5 -69 18.5
s-50.833 -6.16699 -68.5 -18.5s-30.834 -31.666 -39.501 -57.999s-13 -60.5 -13 -102.5v-28c0 -41.333 4.33301 -75.166 13 -101.499s21.834 -45.833 39.501 -58.5s40.5 -19 68.5 -19zM259 603c-33.333 0 -59.8301 6 -79.4971 18s-33.334 27.333 -41.001 46
s-11.5 37.334 -11.5 56.001h62c1.33301 -7.33301 4.16602 -15.5 8.49902 -24.5s11.5 -16.667 21.5 -23s23.667 -9.5 41 -9.5s31.166 3.16699 41.499 9.5s17.666 14 21.999 23s6.83301 17.167 7.5 24.5h62c0 -18.667 -4.16699 -37.334 -12.5 -56.001s-22.166 -34 -41.499 -46
s-46 -18 -80 -18z" />
    <glyph glyph-name="Ohungarumlaut" unicode="&#x150;" horiz-adv-x="699" 
d="M350 -12c-64 0 -119 12.833 -165 38.5s-81 64.834 -105 117.501s-36 119 -36 199c0 80.667 12 147.167 36 199.5s59 91.333 105 117s101 38.5 165 38.5c64.667 0 119.667 -12.833 165 -38.5s80 -64.667 104 -117s36 -118.833 36 -199.5c0 -80 -12 -146.333 -36 -199
s-58.667 -91.834 -104 -117.501s-100.333 -38.5 -165 -38.5zM350 80c31.333 0 59 5 83 15s44.333 25.167 61 45.5s29.334 45.833 38.001 76.5s13 66.667 13 108v36c0 41.333 -4.33301 77.333 -13 108s-21.334 56.167 -38.001 76.5s-37 35.5 -61 45.5s-51.667 15 -83 15
s-59.166 -5 -83.499 -15s-44.833 -25.167 -61.5 -45.5s-29.167 -45.833 -37.5 -76.5s-12.5 -66.667 -12.5 -108v-36c0 -41.333 4.16699 -77.333 12.5 -108s20.833 -56.167 37.5 -76.5s37.167 -35.5 61.5 -45.5s52.166 -15 83.499 -15zM380 738l58 132h103l1 -3l-82 -129h-80
zM232 738l58 132h102l1 -3l-82 -129h-79z" />
    <glyph glyph-name="ohungarumlaut" unicode="&#x151;" horiz-adv-x="521" 
d="M260 -12c-48.667 0 -89.667 9.66699 -123 29s-58.333 49.166 -75 89.499s-25 92.5 -25 156.5c0 64.667 8.33301 117.167 25 157.5s41.667 70 75 89s74.333 28.5 123 28.5c49.333 0 90.5 -9.5 123.5 -28.5s58 -48.667 75 -89s25.5 -92.833 25.5 -157.5
c0 -64 -8.5 -116.167 -25.5 -156.5s-42 -70.166 -75 -89.499s-74.167 -29 -123.5 -29zM260 70c28 0 51 6.33301 69 19s31.167 32.167 39.5 58.5s12.5 60.166 12.5 101.499v28c0 42 -4.16699 76.167 -12.5 102.5s-21.5 45.666 -39.5 57.999s-41 18.5 -69 18.5
s-50.833 -6.16699 -68.5 -18.5s-30.834 -31.666 -39.501 -57.999s-13 -60.5 -13 -102.5v-28c0 -41.333 4.33301 -75.166 13 -101.499s21.834 -45.833 39.501 -58.5s40.5 -19 68.5 -19zM144 591l58 132h102l1 -3l-82 -129h-79zM293 591l57 132h103l1 -3l-82 -129h-79z" />
    <glyph glyph-name="OE" unicode="&#x152;" horiz-adv-x="1069" 
d="M342 -12c-62.667 0 -116.167 12.832 -160.5 38.499s-78.333 64.834 -102 117.501s-35.5 119 -35.5 199c0 80.667 11.833 147.167 35.5 199.5s57.667 91.333 102 117s97.833 38.5 160.5 38.5c44 0 83.167 -7 117.5 -21s62.833 -35 85.5 -63v72h473v-93h-366v-196h326v-93
h-326v-211h371v-93h-478v72c-22.667 -28 -51.167 -49 -85.5 -63s-73.5 -21 -117.5 -21zM349 79.999c32 0 59.9971 5.16699 83.9971 15.5s44.333 25.833 61 46.5s29.334 46.5 38.001 77.5s13 67.5 13 109.5v27c0 42 -4.33301 78.667 -13 110s-21.334 57.333 -38.001 78
s-37 36.167 -61 46.5s-52 15.5 -84 15.5c-31.333 0 -59.166 -5.16699 -83.499 -15.5s-44.666 -25.833 -60.999 -46.5s-28.666 -46.667 -36.999 -78s-12.5 -68 -12.5 -110v-27c0 -42 4.16699 -78.5 12.5 -109.5s20.833 -56.833 37.5 -77.5s37 -36.167 61 -46.5
s51.667 -15.5 83 -15.5z" />
    <glyph glyph-name="oe" unicode="&#x153;" horiz-adv-x="839" 
d="M257 -12c-48 0 -88.3291 9.66797 -120.996 29.001s-57.334 49.166 -74.001 89.499s-25 92.5 -25 156.5c0 64.667 8.33301 117.167 25 157.5s41.5 70 74.5 89s73.5 28.5 121.5 28.5c38.667 0 72.167 -7 100.5 -21s51.5 -35.667 69.5 -65
c17.333 30 40.166 51.833 68.499 65.5s62.166 20.5 101.499 20.5c45.333 0 83.166 -8.83301 113.499 -26.5s53 -45.334 68 -83.001s22.5 -86.834 22.5 -147.501v-42h-323c0.666992 -38.667 5 -70.667 13 -96s20.5 -44.166 37.5 -56.499s39.5 -18.5 67.5 -18.5
c16 0 30.5 2.5 43.5 7.5s24.167 12.167 33.5 21.5s16.5 21.166 21.5 35.499s7.5 30.5 7.5 48.5h98c-0.666992 -30.667 -5.66699 -58.167 -15 -82.5s-23 -44.666 -41 -60.999s-39.5 -28.666 -64.5 -36.999s-53.5 -12.5 -85.5 -12.5c-38.667 0 -72 7 -100 21
s-50.667 35.333 -68 64c-18 -29.333 -41.167 -50.833 -69.5 -64.5s-61.833 -20.5 -100.5 -20.5zM258.004 70.001c27.333 0 49.833 6.16699 67.5 18.5s30.667 31.5 39 57.5s12.5 59.667 12.5 101v31c0 41.333 -4.16699 75.166 -12.5 101.499s-21.333 45.666 -39 57.999
s-40.167 18.5 -67.5 18.5s-49.833 -6.16699 -67.5 -18.5s-30.667 -31.5 -39 -57.5s-12.5 -59.667 -12.5 -101v-31c0 -41.333 4.16699 -75.166 12.5 -101.499s21.333 -45.666 39 -57.999s40.167 -18.5 67.5 -18.5zM480.004 309.001l220.001 -0.000976562
c0 26.667 -2.33301 49.334 -7 68.001s-11.5 34 -20.5 46s-19.833 20.667 -32.5 26s-27.334 8 -44.001 8c-25.333 0 -46.333 -5.5 -63 -16.5s-29.167 -27.333 -37.5 -49s-13.5 -49.167 -15.5 -82.5z" />
    <glyph glyph-name="Racute" unicode="&#x154;" horiz-adv-x="642" 
d="M73 0l0.00195312 686h307c49.333 0 89.166 -8.5 119.499 -25.5s52.666 -40.833 66.999 -71.5s21.5 -65.667 21.5 -105c0 -46 -9.33301 -86 -28 -120s-45 -59 -79 -75l132 -289h-116l-119 266h-198v-266h-107zM180.002 357l190 -0.00195312c36 0 63.167 11 81.5 33
s27.5 52.333 27.5 91c0 24.667 -3.83301 45.334 -11.5 62.001s-19.667 29.334 -36 38.001s-37.5 13 -63.5 13h-188v-237zM279.002 737.998l75 132h106l1 -3l-100 -129h-82z" />
    <glyph glyph-name="racute" unicode="&#x155;" horiz-adv-x="310" 
d="M61 0l0.00195312 525.997h81l8 -80h6c6 17.333 13.667 32.833 23 46.5s20.833 24.667 34.5 33s30.167 12.5 49.5 12.5c8.66699 0 16.5 -0.666992 23.5 -2s12.5 -3 16.5 -5v-96h-33c-18 0 -33.833 -3.16699 -47.5 -9.5s-25.334 -15.666 -35.001 -27.999
s-16.834 -27.666 -21.501 -45.999s-7 -39.166 -7 -62.499v-289h-98zM128.002 590.997l75 132h102l1 -3l-100 -129h-78z" />
    <glyph glyph-name="uni0156" unicode="&#x156;" horiz-adv-x="642" 
d="M73 0l0.00195312 686h307c49.333 0 89.166 -8.5 119.499 -25.5s52.666 -40.833 66.999 -71.5s21.5 -65.667 21.5 -105c0 -46 -9.33301 -86 -28 -120s-45 -59 -79 -75l132 -289h-116l-119 266h-198v-266h-107zM180.002 357l190 -0.00195312c36 0 63.167 11 81.5 33
s27.5 52.333 27.5 91c0 24.667 -3.83301 45.334 -11.5 62.001s-19.667 29.334 -36 38.001s-37.5 13 -63.5 13h-188v-237zM269.002 -294.002v42.001c18 0 31 5.83301 39 17.5s12 27.5 12 47.5h-42v105h93v-85c0 -30.667 -4.33301 -55.334 -13 -74.001
s-20.5 -32.167 -35.5 -40.5s-32.833 -12.5 -53.5 -12.5z" />
    <glyph glyph-name="uni0157" unicode="&#x157;" horiz-adv-x="310" 
d="M61 0l0.00195312 525.997h81l8 -80h6c6 17.333 13.667 32.833 23 46.5s20.833 24.667 34.5 33s30.167 12.5 49.5 12.5c8.66699 0 16.5 -0.666992 23.5 -2s12.5 -3 16.5 -5v-96h-33c-18 0 -33.833 -3.16699 -47.5 -9.5s-25.334 -15.666 -35.001 -27.999
s-16.834 -27.666 -21.501 -45.999s-7 -39.166 -7 -62.499v-289h-98zM55.002 -294.003v42.001c17.333 0 30 5.83301 38 17.5s12 27.5 12 47.5h-41v105h92v-85c0 -30.667 -4.16699 -55.334 -12.5 -74.001s-20 -32.167 -35 -40.5s-32.833 -12.5 -53.5 -12.5z" />
    <glyph glyph-name="Rcaron" unicode="&#x158;" horiz-adv-x="642" 
d="M73 0l0.00195312 686h307c49.333 0 89.166 -8.5 119.499 -25.5s52.666 -40.833 66.999 -71.5s21.5 -65.667 21.5 -105c0 -46 -9.33301 -86 -28 -120s-45 -59 -79 -75l132 -289h-116l-119 266h-198v-266h-107zM180.002 357l190 -0.00195312c36 0 63.167 11 81.5 33
s27.5 52.333 27.5 91c0 24.667 -3.83301 45.334 -11.5 62.001s-19.667 29.334 -36 38.001s-37.5 13 -63.5 13h-188v-237zM179.002 869.998h85l81 -111l-46 -1l80 112h86l-96 -132h-95z" />
    <glyph glyph-name="rcaron" unicode="&#x159;" horiz-adv-x="310" 
d="M61 0l0.00195312 525.997h81l8 -80h6c6 17.333 13.667 32.833 23 46.5s20.833 24.667 34.5 33s30.167 12.5 49.5 12.5c8.66699 0 16.5 -0.666992 23.5 -2s12.5 -3 16.5 -5v-96h-33c-18 0 -33.833 -3.16699 -47.5 -9.5s-25.334 -15.666 -35.001 -27.999
s-16.834 -27.666 -21.501 -45.999s-7 -39.166 -7 -62.499v-289h-98zM38.002 722.997h82l80 -111l-45 -1l79 112h82l-95 -132h-87z" />
    <glyph glyph-name="Sacute" unicode="&#x15a;" horiz-adv-x="590" 
d="M296 -12c-34 0 -66.5029 3.6709 -97.5029 11.0039s-58.167 19.166 -81.5 35.499s-41.666 37.666 -54.999 63.999s-20 58.833 -20 97.5v10.5c0 3.66699 0.333008 6.83398 1 9.50098h107c0 -2.66699 -0.166992 -5.83398 -0.5 -9.50098s-0.5 -7.16699 -0.5 -10.5
c0 -26 5.83301 -47.667 17.5 -65s28.5 -30.166 50.5 -38.499s48 -12.5 78 -12.5c16.667 0 32.334 1.16699 47.001 3.5s28.167 6.16602 40.5 11.499s22.833 12 31.5 20s15.334 17.667 20.001 29s7 24.333 7 39c0 20.667 -5.33301 38 -16 52s-25.167 25.667 -43.5 35
s-39 17.666 -62 24.999s-46.667 14.833 -71 22.5s-47.833 16.334 -70.5 26.001s-43.167 21.667 -61.5 36s-33 32.166 -44 53.499s-16.5 47.333 -16.5 78c0 31.333 5.83301 58.666 17.5 81.999s28.334 42.833 50.001 58.5s47.334 27.334 77.001 35.001s62.5 11.5 98.5 11.5
c33.333 0 64.166 -3.66699 92.499 -11s53.166 -18.666 74.499 -33.999s38 -35.166 50 -59.499s18 -53.833 18 -88.5v-14h-106v14c0 21.333 -5.16699 39.5 -15.5 54.5s-25 26.5 -44 34.5s-41.833 12 -68.5 12c-28.667 0 -53 -3.16699 -73 -9.5s-35.333 -16 -46 -29
s-16 -29.167 -16 -48.5s5.5 -35.5 16.5 -48.5s25.667 -24 44 -33s38.833 -17 61.5 -24s46.167 -14.333 70.5 -22s48 -16.334 71 -26.001s43.667 -21.834 62 -36.501s32.833 -32.834 43.5 -54.501s16 -47.5 16 -77.5c0 -50 -10.833 -90.333 -32.5 -121s-51.5 -53 -89.5 -67
s-82 -21 -132 -21zM254.997 738.004l75 132h107l1 -3l-100 -129h-83z" />
    <glyph glyph-name="sacute" unicode="&#x15b;" horiz-adv-x="463" 
d="M229 -12c-34.667 0 -64.3389 3.83398 -89.0059 11.501s-45 18.5 -61 32.5s-28 30.667 -36 50s-12 40.666 -12 63.999c0 3.33301 0.166992 6.66602 0.5 9.99902s0.833008 6.33301 1.5 9h95c-0.666992 -2.66699 -1 -5.16699 -1 -7.5v-7.5
c0.666992 -19.333 5.33398 -35.166 14.001 -47.499s21 -21.333 37 -27s33.667 -8.5 53 -8.5c18.667 0 35.334 2.66699 50.001 8s26.334 13.333 35.001 24s13 24.334 13 41.001c0 19.333 -6 34.5 -18 45.5s-27.667 19.833 -47 26.5s-39.666 13.334 -60.999 20.001
c-19.333 6 -38.333 12.833 -57 20.5s-35.667 17.167 -51 28.5s-27.666 25.666 -36.999 42.999s-14 39.333 -14 66c0 24 4.66699 45.167 14 63.5s22.333 33.833 39 46.5s36.667 22.167 60 28.5s49 9.5 77 9.5c29.333 0 55.166 -3.33301 77.499 -10s41.333 -16.167 57 -28.5
s27.5 -27 35.5 -44s12 -35.5 12 -55.5c0 -4.66699 -0.166992 -9.33398 -0.5 -14.001s-0.5 -8.66699 -0.5 -12h-94v16c0 14 -3.33301 26.167 -10 36.5s-16.5 18.5 -29.5 24.5s-30.167 9 -51.5 9c-14.667 0 -27.667 -1.66699 -39 -5s-20.666 -7.83301 -27.999 -13.5
s-12.666 -12.334 -15.999 -20.001s-5 -16.167 -5 -25.5c0 -16 4.83301 -28.5 14.5 -37.5s22.5 -16.5 38.5 -22.5s33.333 -12.333 52 -19c20.667 -6.66699 41.667 -13.5 63 -20.5s41 -16 59 -27s32.5 -25.833 43.5 -44.5s16.5 -42.667 16.5 -72s-5 -54.333 -15 -75
s-24 -37.667 -42 -51s-39.167 -23.166 -63.5 -29.499s-50.833 -9.5 -79.5 -9.5zM179.995 591.001l75 132h103v-3l-100 -129h-78z" />
    <glyph glyph-name="Scircumflex" unicode="&#x15c;" horiz-adv-x="590" 
d="M296 -12c-34 0 -66.5029 3.6709 -97.5029 11.0039s-58.167 19.166 -81.5 35.499s-41.666 37.666 -54.999 63.999s-20 58.833 -20 97.5v10.5c0 3.66699 0.333008 6.83398 1 9.50098h107c0 -2.66699 -0.166992 -5.83398 -0.5 -9.50098s-0.5 -7.16699 -0.5 -10.5
c0 -26 5.83301 -47.667 17.5 -65s28.5 -30.166 50.5 -38.499s48 -12.5 78 -12.5c16.667 0 32.334 1.16699 47.001 3.5s28.167 6.16602 40.5 11.499s22.833 12 31.5 20s15.334 17.667 20.001 29s7 24.333 7 39c0 20.667 -5.33301 38 -16 52s-25.167 25.667 -43.5 35
s-39 17.666 -62 24.999s-46.667 14.833 -71 22.5s-47.833 16.334 -70.5 26.001s-43.167 21.667 -61.5 36s-33 32.166 -44 53.499s-16.5 47.333 -16.5 78c0 31.333 5.83301 58.666 17.5 81.999s28.334 42.833 50.001 58.5s47.334 27.334 77.001 35.001s62.5 11.5 98.5 11.5
c33.333 0 64.166 -3.66699 92.499 -11s53.166 -18.666 74.499 -33.999s38 -35.166 50 -59.499s18 -53.833 18 -88.5v-14h-106v14c0 21.333 -5.16699 39.5 -15.5 54.5s-25 26.5 -44 34.5s-41.833 12 -68.5 12c-28.667 0 -53 -3.16699 -73 -9.5s-35.333 -16 -46 -29
s-16 -29.167 -16 -48.5s5.5 -35.5 16.5 -48.5s25.667 -24 44 -33s38.833 -17 61.5 -24s46.167 -14.333 70.5 -22s48 -16.334 71 -26.001s43.667 -21.834 62 -36.501s32.833 -32.834 43.5 -54.501s16 -47.5 16 -77.5c0 -50 -10.833 -90.333 -32.5 -121s-51.5 -53 -89.5 -67
s-82 -21 -132 -21zM154.997 738.004l95 132h96l95 -132h-86l-80 112h46l-81 -112h-85z" />
    <glyph glyph-name="scircumflex" unicode="&#x15d;" horiz-adv-x="463" 
d="M229 -12c-34.667 0 -64.3389 3.83398 -89.0059 11.501s-45 18.5 -61 32.5s-28 30.667 -36 50s-12 40.666 -12 63.999c0 3.33301 0.166992 6.66602 0.5 9.99902s0.833008 6.33301 1.5 9h95c-0.666992 -2.66699 -1 -5.16699 -1 -7.5v-7.5
c0.666992 -19.333 5.33398 -35.166 14.001 -47.499s21 -21.333 37 -27s33.667 -8.5 53 -8.5c18.667 0 35.334 2.66699 50.001 8s26.334 13.333 35.001 24s13 24.334 13 41.001c0 19.333 -6 34.5 -18 45.5s-27.667 19.833 -47 26.5s-39.666 13.334 -60.999 20.001
c-19.333 6 -38.333 12.833 -57 20.5s-35.667 17.167 -51 28.5s-27.666 25.666 -36.999 42.999s-14 39.333 -14 66c0 24 4.66699 45.167 14 63.5s22.333 33.833 39 46.5s36.667 22.167 60 28.5s49 9.5 77 9.5c29.333 0 55.166 -3.33301 77.499 -10s41.333 -16.167 57 -28.5
s27.5 -27 35.5 -44s12 -35.5 12 -55.5c0 -4.66699 -0.166992 -9.33398 -0.5 -14.001s-0.5 -8.66699 -0.5 -12h-94v16c0 14 -3.33301 26.167 -10 36.5s-16.5 18.5 -29.5 24.5s-30.167 9 -51.5 9c-14.667 0 -27.667 -1.66699 -39 -5s-20.666 -7.83301 -27.999 -13.5
s-12.666 -12.334 -15.999 -20.001s-5 -16.167 -5 -25.5c0 -16 4.83301 -28.5 14.5 -37.5s22.5 -16.5 38.5 -22.5s33.333 -12.333 52 -19c20.667 -6.66699 41.667 -13.5 63 -20.5s41 -16 59 -27s32.5 -25.833 43.5 -44.5s16.5 -42.667 16.5 -72s-5 -54.333 -15 -75
s-24 -37.667 -42 -51s-39.167 -23.166 -63.5 -29.499s-50.833 -9.5 -79.5 -9.5zM90.9951 591.001l96 132h86l96 -132h-82l-80 112h46l-81 -112h-81z" />
    <glyph glyph-name="Scedilla" unicode="&#x15e;" horiz-adv-x="590" 
d="M296 -12c-34 0 -66.5029 3.6709 -97.5029 11.0039s-58.167 19.166 -81.5 35.499s-41.666 37.666 -54.999 63.999s-20 58.833 -20 97.5v10.5c0 3.66699 0.333008 6.83398 1 9.50098h107c0 -2.66699 -0.166992 -5.83398 -0.5 -9.50098s-0.5 -7.16699 -0.5 -10.5
c0 -26 5.83301 -47.667 17.5 -65s28.5 -30.166 50.5 -38.499s48 -12.5 78 -12.5c16.667 0 32.334 1.16699 47.001 3.5s28.167 6.16602 40.5 11.499s22.833 12 31.5 20s15.334 17.667 20.001 29s7 24.333 7 39c0 20.667 -5.33301 38 -16 52s-25.167 25.667 -43.5 35
s-39 17.666 -62 24.999s-46.667 14.833 -71 22.5s-47.833 16.334 -70.5 26.001s-43.167 21.667 -61.5 36s-33 32.166 -44 53.499s-16.5 47.333 -16.5 78c0 31.333 5.83301 58.666 17.5 81.999s28.334 42.833 50.001 58.5s47.334 27.334 77.001 35.001s62.5 11.5 98.5 11.5
c33.333 0 64.166 -3.66699 92.499 -11s53.166 -18.666 74.499 -33.999s38 -35.166 50 -59.499s18 -53.833 18 -88.5v-14h-106v14c0 21.333 -5.16699 39.5 -15.5 54.5s-25 26.5 -44 34.5s-41.833 12 -68.5 12c-28.667 0 -53 -3.16699 -73 -9.5s-35.333 -16 -46 -29
s-16 -29.167 -16 -48.5s5.5 -35.5 16.5 -48.5s25.667 -24 44 -33s38.833 -17 61.5 -24s46.167 -14.333 70.5 -22s48 -16.334 71 -26.001s43.667 -21.834 62 -36.501s32.833 -32.834 43.5 -54.501s16 -47.5 16 -77.5c0 -50 -10.833 -90.333 -32.5 -121s-51.5 -53 -89.5 -67
s-82 -21 -132 -21zM299.997 -182.996c-14.667 0 -29.5 0.668945 -44.5 2.00195s-28.5 3.33301 -40.5 6v43h79c13.333 0 23.333 2.16699 30 6.5s10 11.166 10 20.499c0 8.66699 -2.83301 15 -8.5 19s-15.5 6 -29.5 6h-39l14 94h62l-5 -51
c14 -0.666992 27.333 -3.33398 40 -8.00098s23 -11.667 31 -21s12 -22 12 -38c0 -16.667 -3.5 -30.167 -10.5 -40.5s-16.167 -18.333 -27.5 -24s-23.333 -9.5 -36 -11.5s-25 -3 -37 -3z" />
    <glyph glyph-name="scedilla" unicode="&#x15f;" horiz-adv-x="463" 
d="M229 -12c-34.667 0 -64.3389 3.83398 -89.0059 11.501s-45 18.5 -61 32.5s-28 30.667 -36 50s-12 40.666 -12 63.999c0 3.33301 0.166992 6.66602 0.5 9.99902s0.833008 6.33301 1.5 9h95c-0.666992 -2.66699 -1 -5.16699 -1 -7.5v-7.5
c0.666992 -19.333 5.33398 -35.166 14.001 -47.499s21 -21.333 37 -27s33.667 -8.5 53 -8.5c18.667 0 35.334 2.66699 50.001 8s26.334 13.333 35.001 24s13 24.334 13 41.001c0 19.333 -6 34.5 -18 45.5s-27.667 19.833 -47 26.5s-39.666 13.334 -60.999 20.001
c-19.333 6 -38.333 12.833 -57 20.5s-35.667 17.167 -51 28.5s-27.666 25.666 -36.999 42.999s-14 39.333 -14 66c0 24 4.66699 45.167 14 63.5s22.333 33.833 39 46.5s36.667 22.167 60 28.5s49 9.5 77 9.5c29.333 0 55.166 -3.33301 77.499 -10s41.333 -16.167 57 -28.5
s27.5 -27 35.5 -44s12 -35.5 12 -55.5c0 -4.66699 -0.166992 -9.33398 -0.5 -14.001s-0.5 -8.66699 -0.5 -12h-94v16c0 14 -3.33301 26.167 -10 36.5s-16.5 18.5 -29.5 24.5s-30.167 9 -51.5 9c-14.667 0 -27.667 -1.66699 -39 -5s-20.666 -7.83301 -27.999 -13.5
s-12.666 -12.334 -15.999 -20.001s-5 -16.167 -5 -25.5c0 -16 4.83301 -28.5 14.5 -37.5s22.5 -16.5 38.5 -22.5s33.333 -12.333 52 -19c20.667 -6.66699 41.667 -13.5 63 -20.5s41 -16 59 -27s32.5 -25.833 43.5 -44.5s16.5 -42.667 16.5 -72s-5 -54.333 -15 -75
s-24 -37.667 -42 -51s-39.167 -23.166 -63.5 -29.499s-50.833 -9.5 -79.5 -9.5zM231.995 -182.999c-14.667 0 -29.502 0.668945 -44.502 2.00195s-28.833 3.33301 -41.5 6v43h80c12.667 0 22.5 2.16699 29.5 6.5s10.5 11.166 10.5 20.499c0 8.66699 -3 15 -9 19s-16 6 -30 6
h-39l15 94h61l-5 -51c14.667 -0.666992 28.334 -3.33398 41.001 -8.00098s22.834 -11.667 30.501 -21s11.5 -22 11.5 -38c0 -16.667 -3.5 -30.167 -10.5 -40.5s-16 -18.333 -27 -24s-23 -9.5 -36 -11.5s-25.167 -3 -36.5 -3z" />
    <glyph glyph-name="Scaron" unicode="&#x160;" horiz-adv-x="590" 
d="M296 -12c-34 0 -66.5029 3.6709 -97.5029 11.0039s-58.167 19.166 -81.5 35.499s-41.666 37.666 -54.999 63.999s-20 58.833 -20 97.5v10.5c0 3.66699 0.333008 6.83398 1 9.50098h107c0 -2.66699 -0.166992 -5.83398 -0.5 -9.50098s-0.5 -7.16699 -0.5 -10.5
c0 -26 5.83301 -47.667 17.5 -65s28.5 -30.166 50.5 -38.499s48 -12.5 78 -12.5c16.667 0 32.334 1.16699 47.001 3.5s28.167 6.16602 40.5 11.499s22.833 12 31.5 20s15.334 17.667 20.001 29s7 24.333 7 39c0 20.667 -5.33301 38 -16 52s-25.167 25.667 -43.5 35
s-39 17.666 -62 24.999s-46.667 14.833 -71 22.5s-47.833 16.334 -70.5 26.001s-43.167 21.667 -61.5 36s-33 32.166 -44 53.499s-16.5 47.333 -16.5 78c0 31.333 5.83301 58.666 17.5 81.999s28.334 42.833 50.001 58.5s47.334 27.334 77.001 35.001s62.5 11.5 98.5 11.5
c33.333 0 64.166 -3.66699 92.499 -11s53.166 -18.666 74.499 -33.999s38 -35.166 50 -59.499s18 -53.833 18 -88.5v-14h-106v14c0 21.333 -5.16699 39.5 -15.5 54.5s-25 26.5 -44 34.5s-41.833 12 -68.5 12c-28.667 0 -53 -3.16699 -73 -9.5s-35.333 -16 -46 -29
s-16 -29.167 -16 -48.5s5.5 -35.5 16.5 -48.5s25.667 -24 44 -33s38.833 -17 61.5 -24s46.167 -14.333 70.5 -22s48 -16.334 71 -26.001s43.667 -21.834 62 -36.501s32.833 -32.834 43.5 -54.501s16 -47.5 16 -77.5c0 -50 -10.833 -90.333 -32.5 -121s-51.5 -53 -89.5 -67
s-82 -21 -132 -21zM154.997 870.004h85l81 -111l-46 -1l80 112h86l-95 -132h-96z" />
    <glyph glyph-name="scaron" unicode="&#x161;" horiz-adv-x="463" 
d="M229 -12c-34.667 0 -64.3389 3.83398 -89.0059 11.501s-45 18.5 -61 32.5s-28 30.667 -36 50s-12 40.666 -12 63.999c0 3.33301 0.166992 6.66602 0.5 9.99902s0.833008 6.33301 1.5 9h95c-0.666992 -2.66699 -1 -5.16699 -1 -7.5v-7.5
c0.666992 -19.333 5.33398 -35.166 14.001 -47.499s21 -21.333 37 -27s33.667 -8.5 53 -8.5c18.667 0 35.334 2.66699 50.001 8s26.334 13.333 35.001 24s13 24.334 13 41.001c0 19.333 -6 34.5 -18 45.5s-27.667 19.833 -47 26.5s-39.666 13.334 -60.999 20.001
c-19.333 6 -38.333 12.833 -57 20.5s-35.667 17.167 -51 28.5s-27.666 25.666 -36.999 42.999s-14 39.333 -14 66c0 24 4.66699 45.167 14 63.5s22.333 33.833 39 46.5s36.667 22.167 60 28.5s49 9.5 77 9.5c29.333 0 55.166 -3.33301 77.499 -10s41.333 -16.167 57 -28.5
s27.5 -27 35.5 -44s12 -35.5 12 -55.5c0 -4.66699 -0.166992 -9.33398 -0.5 -14.001s-0.5 -8.66699 -0.5 -12h-94v16c0 14 -3.33301 26.167 -10 36.5s-16.5 18.5 -29.5 24.5s-30.167 9 -51.5 9c-14.667 0 -27.667 -1.66699 -39 -5s-20.666 -7.83301 -27.999 -13.5
s-12.666 -12.334 -15.999 -20.001s-5 -16.167 -5 -25.5c0 -16 4.83301 -28.5 14.5 -37.5s22.5 -16.5 38.5 -22.5s33.333 -12.333 52 -19c20.667 -6.66699 41.667 -13.5 63 -20.5s41 -16 59 -27s32.5 -25.833 43.5 -44.5s16.5 -42.667 16.5 -72s-5 -54.333 -15 -75
s-24 -37.667 -42 -51s-39.167 -23.166 -63.5 -29.499s-50.833 -9.5 -79.5 -9.5zM90.9951 723.001h81l81 -111l-46 -1l80 112h81l-95 -132h-87z" />
    <glyph glyph-name="uni0162" unicode="&#x162;" horiz-adv-x="551" 
d="M221 0v593h-202v93h513v-93h-203v-593h-108zM276 -183c-14.667 0 -29.5 0.668945 -44.5 2.00195s-28.5 3.33301 -40.5 6v43h79c13.333 0 23.333 2.16699 30 6.5s10 11.166 10 20.499c0 8.66699 -2.83301 15 -8.5 19s-15.5 6 -29.5 6h-39l14 94h62l-5 -51
c14 -0.666992 27.333 -3.33398 40 -8.00098s23 -11.667 31 -21s12 -22 12 -38c0 -16.667 -3.66699 -30.167 -11 -40.5s-16.5 -18.333 -27.5 -24s-22.833 -9.5 -35.5 -11.5s-25 -3 -37 -3z" />
    <glyph glyph-name="uni0163" unicode="&#x163;" horiz-adv-x="275" 
d="M177 -12c-27.333 0 -48.667 5.49902 -64 16.499s-26 25.667 -32 44s-9 37.833 -9 58.5v337h-56v82h58l18 148h79v-148h82v-82h-82v-328c0 -15.333 2.66699 -26.666 8 -33.999s15 -11 29 -11h45v-68c-6.66699 -2.66699 -14.5 -5 -23.5 -7s-18 -3.83301 -27 -5.5
s-17.5 -2.5 -25.5 -2.5zM162.999 -183.001c-14.667 0 -29.5 0.668945 -44.5 2.00195s-28.833 3.33301 -41.5 6v43h80c13.333 0 23.333 2.16699 30 6.5s10 11.166 10 20.499c0 8.66699 -3 15 -9 19s-15.667 6 -29 6h-40l15 94h62l-5 -51
c14 -0.666992 27.333 -3.33398 40 -8.00098s23 -11.667 31 -21s12 -22 12 -38c0 -16.667 -3.66699 -30.167 -11 -40.5s-16.5 -18.333 -27.5 -24s-22.833 -9.5 -35.5 -11.5s-25 -3 -37 -3z" />
    <glyph glyph-name="Tcaron" unicode="&#x164;" horiz-adv-x="551" 
d="M221 0v593h-202v93h513v-93h-203v-593h-108zM133 870h85l81 -111l-46 -1l80 112h86l-96 -132h-95z" />
    <glyph glyph-name="tcaron" unicode="&#x165;" horiz-adv-x="275" 
d="M177 -12c-27.333 0 -48.667 5.49902 -64 16.499s-26 25.667 -32 44s-9 37.833 -9 58.5v337h-56v82h58l18 148h79v-148h82v-82h-82v-328c0 -15.333 2.66699 -26.666 8 -33.999s15 -11 29 -11h45v-68c-6.66699 -2.66699 -14.5 -5 -23.5 -7s-18 -3.83301 -27 -5.5
s-17.5 -2.5 -25.5 -2.5zM203.999 554.999v168h92l-27 -168h-65z" />
    <glyph glyph-name="Tbar" unicode="&#x166;" horiz-adv-x="551" 
d="M221 0v593h-202v93h513v-93h-203v-593h-108zM131 289v75h290v-75h-290z" />
    <glyph glyph-name="tbar" unicode="&#x167;" horiz-adv-x="275" 
d="M16 241v66h229v-66h-229zM177 -12c-27.333 0 -48.667 5.49902 -64 16.499s-26 25.667 -32 44s-9 37.833 -9 58.5v337h-56v82h58l18 148h79v-148h82v-82h-82v-328c0 -15.333 2.66699 -26.666 8 -33.999s15 -11 29 -11h45v-68c-6.66699 -2.66699 -14.5 -5 -23.5 -7
s-18 -3.83301 -27 -5.5s-17.5 -2.5 -25.5 -2.5z" />
    <glyph glyph-name="Utilde" unicode="&#x168;" horiz-adv-x="647" 
d="M322 -12c-52 0 -97 8.66699 -135 26s-67.167 44.833 -87.5 82.5s-30.5 86.5 -30.5 146.5v443h108v-449c0 -52.667 12.333 -92 37 -118s60.667 -39 108 -39c48 0 84.833 13 110.5 39s38.5 65.333 38.5 118v449h107v-443c0 -60 -10.333 -108.833 -31 -146.5
s-50 -65.167 -88 -82.5s-83.667 -26 -137 -26zM176 765c0 20 2.99609 37.666 8.99609 52.999s15 27.333 27 36s27 13 45 13c16 0 31 -2.66699 45 -8s27.833 -10.833 41.5 -16.5s27.167 -8.5 40.5 -8.5c9.33301 0 16.5 2.83301 21.5 8.5s8.16699 14.167 9.5 25.5h56
c0 -19.333 -3.16699 -36.666 -9.5 -51.999s-15.5 -27.5 -27.5 -36.5s-27 -13.5 -45 -13.5c-15.333 0 -30.166 2.83301 -44.499 8.5s-28.166 11.167 -41.499 16.5s-26.666 8 -39.999 8c-9.33301 0 -16.666 -2.83301 -21.999 -8.5s-8.33301 -14.167 -9 -25.5h-56z" />
    <glyph glyph-name="utilde" unicode="&#x169;" horiz-adv-x="511" 
d="M204 -12c-45.333 0 -81.333 12.335 -108 37.002s-40 67 -40 127v374h99v-356c0 -16.667 1.83301 -30.834 5.5 -42.501s9.16699 -21.334 16.5 -29.001s16.333 -13.167 27 -16.5s22.667 -5 36 -5c20.667 0 39.5 5.5 56.5 16.5s30.5 27.167 40.5 48.5s15 46.666 15 75.999
v308h99v-526h-82l-8 72h-6c-11.333 -18.667 -24.5 -34.167 -39.5 -46.5s-31.833 -21.666 -50.5 -27.999s-39 -9.5 -61 -9.5zM108 617.002c0.666992 20 3.83301 37.666 9.5 52.999s14.5 27.5 26.5 36.5s27.333 13.5 46 13.5c15.333 0 30.166 -2.66699 44.499 -8
s28.333 -10.833 42 -16.5s27.167 -8.5 40.5 -8.5c9.33301 0 16.333 2.83301 21 8.5s7.66699 13.834 9 24.501h56c0 -18.667 -3 -35.834 -9 -51.501s-15 -28 -27 -37s-27.333 -13.5 -46 -13.5c-14.667 0 -29.167 2.83301 -43.5 8.5s-28.166 11.334 -41.499 17.001
s-27 8.5 -41 8.5c-9.33301 0 -16.5 -3 -21.5 -9s-8.16699 -14.667 -9.5 -26h-56z" />
    <glyph glyph-name="Umacron" unicode="&#x16a;" horiz-adv-x="647" 
d="M322 -12c-52.667 0 -97.833 8.66699 -135.5 26s-66.667 44.833 -87 82.5s-30.5 86.5 -30.5 146.5v443h108v-449c0 -52.667 12.333 -92 37 -118s60.667 -39 108 -39c48 0 84.833 13 110.5 39s38.5 65.333 38.5 118v449h107v-443c0 -60 -10.333 -108.833 -31 -146.5
s-50 -65.167 -88 -82.5s-83.667 -26 -137 -26zM189.001 769v70h268v-70h-268z" />
    <glyph glyph-name="umacron" unicode="&#x16b;" horiz-adv-x="511" 
d="M204 -12c-45.333 0 -81.333 12.335 -108 37.002s-40 67 -40 127v374h99v-356c0 -16.667 1.83301 -30.834 5.5 -42.501s9.16699 -21.334 16.5 -29.001s16.333 -13.167 27 -16.5s22.667 -5 36 -5c20.667 0 39.5 5.5 56.5 16.5s30.5 27.167 40.5 48.5s15 46.666 15 75.999
v308h99v-526h-82l-8 72h-6c-11.333 -18.667 -24.5 -34.167 -39.5 -46.5s-31.833 -21.666 -50.5 -27.999s-39 -9.5 -61 -9.5zM122 630.002v70h267v-70h-267z" />
    <glyph glyph-name="Ubreve" unicode="&#x16c;" horiz-adv-x="647" 
d="M322 -12c-52 0 -97 8.66699 -135 26s-67.167 44.833 -87.5 82.5s-30.5 86.5 -30.5 146.5v443h108v-449c0 -52.667 12.333 -92 37 -118s60.667 -39 108 -39c48 0 84.833 13 110.5 39s38.5 65.333 38.5 118v449h107v-443c0 -60 -10.333 -108.833 -31 -146.5
s-50 -65.167 -88 -82.5s-83.667 -26 -137 -26zM322 750c-33.333 0 -59.668 6 -79.001 18s-32.833 27.333 -40.5 46s-11.5 37.334 -11.5 56.001h61c1.33301 -7.33301 4.16602 -15.333 8.49902 -24s11.5 -16 21.5 -22s23.667 -9 41 -9c18.667 0 33 3 43 9s17.333 13.5 22 22.5
s7.33398 16.833 8.00098 23.5h61c0 -18.667 -4.16699 -37.334 -12.5 -56.001s-22.166 -34 -41.499 -46s-46.333 -18 -81 -18z" />
    <glyph glyph-name="ubreve" unicode="&#x16d;" horiz-adv-x="511" 
d="M204 -12c-45.333 0 -81.333 12.335 -108 37.002s-40 67 -40 127v374h99v-356c0 -16.667 1.83301 -30.834 5.5 -42.501s9.16699 -21.334 16.5 -29.001s16.333 -13.167 27 -16.5s22.667 -5 36 -5c20.667 0 39.5 5.5 56.5 16.5s30.5 27.167 40.5 48.5s15 46.666 15 75.999
v308h99v-526h-82l-8 72h-6c-11.333 -18.667 -24.5 -34.167 -39.5 -46.5s-31.833 -21.666 -50.5 -27.999s-39 -9.5 -61 -9.5zM255 603.002c-34 0 -60.667 6 -80 18s-33 27.333 -41 46s-12 37.334 -12 56.001h63c1.33301 -7.33301 4.16602 -15.5 8.49902 -24.5
s11.333 -16.667 21 -23s23.167 -9.5 40.5 -9.5c18 0 32 3.16699 42 9.5s17.333 14 22 23s7 17.167 7 24.5h63c0 -18.667 -4.16699 -37.334 -12.5 -56.001s-22.166 -34 -41.499 -46s-46 -18 -80 -18z" />
    <glyph glyph-name="Uring" unicode="&#x16e;" horiz-adv-x="647" 
d="M322 -12c-52 0 -97 8.66699 -135 26s-67.167 44.833 -87.5 82.5s-30.5 86.5 -30.5 146.5v443h108v-449c0 -52.667 12.333 -92 37 -118s60.667 -39 108 -39c48 0 84.833 13 110.5 39s38.5 65.333 38.5 118v449h107v-443c0 -60 -10.333 -108.833 -31 -146.5
s-50 -65.167 -88 -82.5s-83.667 -26 -137 -26zM323 729c-27.333 0 -49.833 8.99902 -67.5 26.999s-26.5 41 -26.5 69c0 28.667 8.83301 52 26.5 70s40.5 27 68.5 27c27.333 0 49.833 -9 67.5 -27s26.5 -41.333 26.5 -70c0 -27.333 -8.83301 -50.166 -26.5 -68.499
s-40.5 -27.5 -68.5 -27.5zM324 779.999c12.667 0 22.834 4.16602 30.501 12.499s11.5 19.5 11.5 33.5c0 13.333 -3.83301 24.333 -11.5 33s-17.834 13 -30.501 13s-23 -4.33301 -31 -13s-12 -20 -12 -34c0 -13.333 4 -24.166 12 -32.499s18.333 -12.5 31 -12.5z" />
    <glyph glyph-name="uring" unicode="&#x16f;" horiz-adv-x="511" 
d="M204 -12c-45.333 0 -81.333 12.335 -108 37.002s-40 67 -40 127v374h99v-356c0 -16.667 1.83301 -30.834 5.5 -42.501s9.16699 -21.334 16.5 -29.001s16.333 -13.167 27 -16.5s22.667 -5 36 -5c20.667 0 39.5 5.5 56.5 16.5s30.5 27.167 40.5 48.5s15 46.666 15 75.999
v308h99v-526h-82l-8 72h-6c-11.333 -18.667 -24.5 -34.167 -39.5 -46.5s-31.833 -21.666 -50.5 -27.999s-39 -9.5 -61 -9.5zM256 579.002c-26 0 -47.667 9.16699 -65 27.5s-26 41.166 -26 68.499c0 28.667 8.66699 52 26 70s39 27 65 27c26.667 0 48.5 -9 65.5 -27
s25.5 -41.333 25.5 -70c0 -27.333 -8.5 -50.166 -25.5 -68.499s-38.833 -27.5 -65.5 -27.5zM256 627.002c12.667 0 22.834 4.5 30.501 13.5s11.5 20.833 11.5 35.5c0 14 -3.83301 25.667 -11.5 35s-17.834 14 -30.501 14c-12 0 -22 -4.66699 -30 -14s-12 -21.333 -12 -36
c0 -14 4 -25.5 12 -34.5s18 -13.5 30 -13.5z" />
    <glyph glyph-name="Uhungarumlaut" unicode="&#x170;" horiz-adv-x="647" 
d="M322 -12c-52.667 0 -97.833 8.66699 -135.5 26s-66.667 44.833 -87 82.5s-30.5 86.5 -30.5 146.5v443h108v-449c0 -52.667 12.333 -92 37 -118s60.667 -39 108 -39c48 0 84.833 13 110.5 39s38.5 65.333 38.5 118v449h107v-443c0 -60 -10.333 -108.833 -31 -146.5
s-50 -65.167 -88 -82.5s-83.667 -26 -137 -26zM355.001 738l57 132h103l1 -3l-82 -129h-79zM206.001 738l58 132h102l1 -3l-82 -129h-79z" />
    <glyph glyph-name="uhungarumlaut" unicode="&#x171;" horiz-adv-x="511" 
d="M204 -12c-45.333 0 -81.333 12.335 -108 37.002s-40 67 -40 127v374h99v-356c0 -16.667 1.83301 -30.834 5.5 -42.501s9.16699 -21.334 16.5 -29.001s16.333 -13.167 27 -16.5s22.667 -5 36 -5c20.667 0 39.5 5.5 56.5 16.5s30.5 27.167 40.5 48.5s15 46.666 15 75.999
v308h99v-526h-82l-8 72h-6c-11.333 -18.667 -24.5 -34.167 -39.5 -46.5s-31.833 -21.666 -50.5 -27.999s-39 -9.5 -61 -9.5zM140 591.002l57 132h103l1 -3l-83 -129h-78zM288 591.002l58 132h103l1 -3l-82 -129h-80z" />
    <glyph glyph-name="Uogonek" unicode="&#x172;" horiz-adv-x="647" 
d="M322 -12c-52 0 -97 8.66699 -135 26s-67.167 44.833 -87.5 82.5s-30.5 86.5 -30.5 146.5v443h108v-449c0 -52.667 12.333 -92 37 -118s60.667 -39 108 -39c48 0 84.833 13 110.5 39s38.5 65.333 38.5 118v449h107v-443c0 -60 -10.333 -108.833 -31 -146.5
s-50 -65.167 -88 -82.5s-83.667 -26 -137 -26zM424 -179c-14.667 0 -29.1709 2.83496 -43.5039 8.50195s-26.166 15 -35.499 28s-14 30.5 -14 52.5c0 22.667 4.83301 42.167 14.5 58.5s20.834 30.833 33.501 43.5h63v-5c-7.33301 -6.66699 -14.833 -16.334 -22.5 -29.001
s-11.5 -26.667 -11.5 -42c0 -14.667 3.83301 -27.334 11.5 -38.001s20.167 -16 37.5 -16h32v-47c-9.33301 -4.66699 -20.166 -8.16699 -32.499 -10.5s-23.166 -3.5 -32.499 -3.5z" />
    <glyph glyph-name="uogonek" unicode="&#x173;" horiz-adv-x="511" 
d="M423 -179c-14.667 0 -29.1709 2.83398 -43.5039 8.50098s-26.166 15 -35.499 28s-14 30.5 -14 52.5c0 22.667 4.83301 42 14.5 58s20.834 30.333 33.501 43h61v-5c-6.66699 -6.66699 -13.667 -16.334 -21 -29.001s-11 -26.667 -11 -42
c0 -14.667 3.83301 -27.167 11.5 -37.5s20.167 -15.5 37.5 -15.5h32v-47c-9.33301 -4.66699 -20.166 -8.16699 -32.499 -10.5s-23.166 -3.5 -32.499 -3.5zM203.996 -11.999c-45.333 0 -81.333 12.335 -108 37.002s-40 67 -40 127v374h99v-356
c0 -16.667 1.83301 -30.834 5.5 -42.501s9.16699 -21.334 16.5 -29.001s16.333 -13.167 27 -16.5s22.667 -5 36 -5c20.667 0 39.5 5.5 56.5 16.5s30.5 27.167 40.5 48.5s15 46.666 15 75.999v308h99v-526h-82l-8 72h-6c-11.333 -18.667 -24.5 -34.167 -39.5 -46.5
s-31.833 -21.666 -50.5 -27.999s-39 -9.5 -61 -9.5z" />
    <glyph glyph-name="Wcircumflex" unicode="&#x174;" horiz-adv-x="846" 
d="M177 0l-164.997 685.999h113l96 -426c3.33301 -16.667 6.16602 -32.667 8.49902 -48s4.5 -29.166 6.5 -41.499s3.66699 -22.833 5 -31.5h6c1.33301 6.66699 2.66602 15.334 3.99902 26.001s3 21.834 5 33.501s4 23 6 34l5 27.5l95 426h131l91 -426
c2 -10.667 4.16699 -23 6.5 -37s4.83301 -28.333 7.5 -43s4.66699 -28.334 6 -41.001h6c0.666992 6.66699 2 15 4 25s4 20.833 6 32.5s4.16699 23 6.5 34s4.5 20.833 6.5 29.5l99 426h102l-169 -686h-123l-97 431l-8 46c-2.66699 15.333 -4.83398 29.666 -6.50098 42.999
s-3.16699 24.333 -4.5 33h-5c-1.33301 -8.66699 -3.16602 -20.667 -5.49902 -36s-4.83301 -30.833 -7.5 -46.5s-5.33398 -29.167 -8.00098 -40.5l-97 -430h-126zM281.003 737.999l96 132h95l95 -132h-85l-80 112h46l-81 -112h-86z" />
    <glyph glyph-name="wcircumflex" unicode="&#x175;" horiz-adv-x="667" 
d="M145 0l-138.002 526.004h101l66 -286c2.66699 -12.667 5.33398 -26.334 8.00098 -41.001s5.33398 -28.334 8.00098 -41.001s4.33398 -22.334 5.00098 -29.001h6c2.66699 12 5.16699 25.333 7.5 40s4.83301 28.667 7.5 42s4.66699 23.666 6 30.999l60 284h109l61 -285
c2.66699 -10 5.16699 -22 7.5 -36s4.83301 -27.667 7.5 -41s4.66699 -25 6 -35h6c2 10 4.16699 21.667 6.5 35s5 26.833 8 40.5s5.5 25.5 7.5 35.5l65 286h94l-137 -526h-105l-57 269c-2.66699 12 -5.5 25.833 -8.5 41.5s-5.83301 31.5 -8.5 47.5l-7 42h-6
c-0.666992 -8.66699 -2.33398 -20 -5.00098 -34s-5.5 -29.333 -8.5 -46s-6.5 -33.667 -10.5 -51l-58 -269h-104zM193.998 591.004l96 132h87l95 -132h-82l-79 112h46l-81 -112h-82z" />
    <glyph glyph-name="Ycircumflex" unicode="&#x176;" horiz-adv-x="604" 
d="M248 0v281l-236 405h120l170 -301h5l170 301h114l-235 -405v-281h-108zM160 738l95 132h95l96 -132h-86l-80 112h46l-81 -112h-85z" />
    <glyph glyph-name="ycircumflex" unicode="&#x177;" horiz-adv-x="452" 
d="M109 -185c-17.333 0 -32.3281 1.1709 -44.9951 3.50391s-21.334 4.16602 -26.001 5.49902v73h43c15.333 0 29.333 3.5 42 10.5s24.167 18.167 34.5 33.5s18.5 35 24.5 59l-173 526h103l85 -275c3.33301 -10.667 7.16602 -23.834 11.499 -39.501
s8.66602 -31.834 12.999 -48.501s7.83301 -31.667 10.5 -45h6c2.66699 10 5.33398 21.167 8.00098 33.5s5.66699 25 9 38s6.66602 25.5 9.99902 37.5s6 22.667 8 32l73 267h99l-154 -510c-8.66699 -28.667 -18.334 -55.334 -29.001 -80.001s-22.834 -46 -36.501 -64
s-30 -32 -49 -42s-41.5 -15 -67.5 -15zM95.0049 591.004l96 132h86l96 -132h-82l-80 112h46l-80 -112h-82z" />
    <glyph glyph-name="Ydieresis" unicode="&#x178;" horiz-adv-x="604" 
d="M248 0v281l-236 405h120l170 -301h5l170 301h114l-235 -405v-281h-108zM174 769v100h86v-100h-86zM346 769v100h86v-100h-86z" />
    <glyph glyph-name="Zacute" unicode="&#x179;" horiz-adv-x="572" 
d="M29 0v53l351 541h-328v92h480v-52l-352 -541h360v-93h-511zM243 738l75 132h107l1 -3l-100 -129h-83z" />
    <glyph glyph-name="zacute" unicode="&#x17a;" horiz-adv-x="450" 
d="M24 0v49l250 395h-233v82h370v-47l-251 -396h262v-83h-398zM175 591l76 132h102l1 -3l-100 -129h-79z" />
    <glyph glyph-name="Zdotaccent" unicode="&#x17b;" horiz-adv-x="572" 
d="M29 0v53l351 541h-328v92h480v-52l-352 -541h360v-93h-511zM240 769v105h93v-105h-93z" />
    <glyph glyph-name="zdotaccent" unicode="&#x17c;" horiz-adv-x="450" 
d="M24 0v49l250 395h-233v82h370v-47l-251 -396h262v-83h-398zM179 618v104h92v-104h-92z" />
    <glyph glyph-name="Zcaron" unicode="&#x17d;" horiz-adv-x="572" 
d="M29 0v53l351 541h-328v92h480v-52l-352 -541h360v-93h-511zM143 870h86l80 -111l-46 -1l80 112h86l-95 -132h-95z" />
    <glyph glyph-name="zcaron" unicode="&#x17e;" horiz-adv-x="450" 
d="M24 0v49l250 395h-233v82h370v-47l-251 -396h262v-83h-398zM86 723h81l81 -111l-46 -1l80 112h82l-96 -132h-86z" />
    <glyph glyph-name="longs" unicode="&#x17f;" horiz-adv-x="269" 
d="M81 0l0.000976562 444.002h-67v82h67v80c0 24.667 3.5 46.5 10.5 65.5s18.833 33.833 35.5 44.5s39 16 67 16c8 0 16.333 -0.5 25 -1.5s17.167 -2.33301 25.5 -4s15.166 -3.83398 20.499 -6.50098v-71h-44c-14.667 0 -25.167 -3.83301 -31.5 -11.5
s-9.5 -18.834 -9.5 -33.501v-604h-99z" />
    <glyph glyph-name="uni018F" unicode="&#x18f;" horiz-adv-x="678" 
d="M340 -12c-48.667 0 -91.332 6.16797 -127.999 18.501s-67.5 31.833 -92.5 58.5s-44 62.167 -57 106.5s-19.5 98.5 -19.5 162.5v40h480c-1.33301 55.333 -9.16602 100.166 -23.499 134.499s-35.5 59.5 -63.5 75.5s-63 24 -105 24c-24 0 -46.5 -2.83301 -67.5 -8.5
s-39.833 -14.667 -56.5 -27s-29.667 -28.333 -39 -48s-14 -43.5 -14 -71.5h-110c0 41.333 7.33301 77.333 22 108s35 56.167 61 76.5s56.667 35.5 92 45.5s73.666 15 114.999 15c68.667 0 125.167 -12.833 169.5 -38.5s77.333 -64.834 99 -117.501s32.5 -119.667 32.5 -201
c0 -80 -10.833 -146.167 -32.5 -198.5s-54.334 -91.166 -98.001 -116.499s-98.5 -38 -164.5 -38zM342.002 78.001c38 0 69.835 7.5 95.502 22.5s45.667 38.167 60 69.5s22.5 72 24.5 122h-369c0 -40 4.33301 -73.667 13 -101s21.167 -49.333 37.5 -66
s36.166 -28.667 59.499 -36s49.666 -11 78.999 -11z" />
    <glyph glyph-name="florin" unicode="&#x192;" horiz-adv-x="508" 
d="M84 -186c-7.33301 0 -15.166 0.5 -23.499 1.5s-16.5 2.33301 -24.5 4s-14.667 3.83398 -20 6.50098l15 70h45c14.667 0 26 4 34 12s13.333 19 16 33l100 472h-66l16 82h67l24 111c5.33301 24.667 13.5 46.5 24.5 65.5s26 33.833 45 44.5s42.833 16 71.5 16
c7.33301 0 15.166 -0.5 23.499 -1.5s16.5 -2.33301 24.5 -4s14.667 -3.83398 20 -6.50098l-15 -70h-45c-14 0 -25 -4 -33 -12s-13.667 -19 -17 -33l-24 -110h86l-17 -82h-86l-101 -474c-4.66699 -24.667 -12.667 -46.5 -24 -65.5s-26.5 -33.667 -45.5 -44
s-42.5 -15.5 -70.5 -15.5z" />
    <glyph glyph-name="uni019D" unicode="&#x19d;" horiz-adv-x="654" 
d="M67 -185c-8 0 -16.668 0.500977 -26.001 1.50098s-18.166 2.5 -26.499 4.5s-15.5 4 -21.5 6v69h42c14 0 23.833 3.66699 29.5 11s8.5 19 8.5 35v744h103l266 -419c2.66699 -4 6 -9.66699 10 -17l12 -22c4 -7.33301 7 -13.333 9 -18h5v29.5v27.5v419h104v-686h-101
l-268 425c-4 6.66699 -9.5 16.5 -16.5 29.5s-12.167 22.833 -15.5 29.5h-4v-30v-30v-479c0 -19.333 -2 -36.833 -6 -52.5s-10.333 -29.334 -19 -41.001s-20 -20.667 -34 -27s-31 -9.5 -51 -9.5z" />
    <glyph glyph-name="Ohorn" unicode="&#x1a0;" horiz-adv-x="699" 
d="M350 -12c-64 0 -119 12.833 -165 38.5s-81 64.834 -105 117.501s-36 119 -36 199c0 80.667 12 147.167 36 199.5s59 91.333 105 117s101 38.5 165 38.5c64.667 0 119.667 -12.833 165 -38.5s80 -64.667 104 -117s36 -118.833 36 -199.5c0 -80 -12 -146.333 -36 -199
s-58.667 -91.834 -104 -117.501s-100.333 -38.5 -165 -38.5zM350 80c31.333 0 59 5 83 15s44.333 25.167 61 45.5s29.334 45.833 38.001 76.5s13 66.667 13 108v36c0 41.333 -4.33301 77.333 -13 108s-21.334 56.167 -38.001 76.5s-37 35.5 -61 45.5s-51.667 15 -83 15
s-59.166 -5 -83.499 -15s-44.833 -25.167 -61.5 -45.5s-29.167 -45.833 -37.5 -76.5s-12.5 -66.667 -12.5 -108v-36c0 -41.333 4.16699 -77.333 12.5 -108s20.833 -56.167 37.5 -76.5s37.167 -35.5 61.5 -45.5s52.166 -15 83.499 -15zM522 580l-0.000976562 50.999
c35.333 0 63.166 7.5 83.499 22.5s30.5 35.5 30.5 61.5h-50v112h114v-86c0 -33.333 -7.16699 -62.166 -21.5 -86.499s-34.666 -42.833 -60.999 -55.5s-58.166 -19 -95.499 -19z" />
    <glyph glyph-name="ohorn" unicode="&#x1a1;" horiz-adv-x="521" 
d="M260 -12c-48.667 0 -89.667 9.66699 -123 29s-58.333 49.166 -75 89.499s-25 92.5 -25 156.5c0 64.667 8.33301 117.167 25 157.5s41.667 70 75 89s74.333 28.5 123 28.5c49.333 0 90.5 -9.5 123.5 -28.5s58 -48.667 75 -89s25.5 -92.833 25.5 -157.5
c0 -64 -8.5 -116.167 -25.5 -156.5s-42 -70.166 -75 -89.499s-74.167 -29 -123.5 -29zM260 70c28 0 51 6.33301 69 19s31.167 32.167 39.5 58.5s12.5 60.166 12.5 101.499v28c0 42 -4.16699 76.167 -12.5 102.5s-21.5 45.666 -39.5 57.999s-41 18.5 -69 18.5
s-50.833 -6.16699 -68.5 -18.5s-30.834 -31.666 -39.501 -57.999s-13 -60.5 -13 -102.5v-28c0 -41.333 4.33301 -75.166 13 -101.499s21.834 -45.833 39.501 -58.5s40.5 -19 68.5 -19zM389 437v52.001c32 3.33301 57.833 12 77.5 26s32.167 34 37.5 60h-51v111h114v-64
c0 -37.333 -6.33301 -69 -19 -95s-32.167 -46.333 -58.5 -61s-59.833 -24.334 -100.5 -29.001z" />
    <glyph glyph-name="Uhorn" unicode="&#x1af;" horiz-adv-x="647" 
d="M322 -12c-52.667 0 -97.833 8.66699 -135.5 26s-66.667 44.833 -87 82.5s-30.5 86.5 -30.5 146.5v443h108v-449c0 -52.667 12.333 -92 37 -118s60.667 -39 108 -39c48 0 84.833 13 110.5 39s38.5 65.333 38.5 118v449h107v-443c0 -60 -10.333 -108.833 -31 -146.5
s-50 -65.167 -88 -82.5s-83.667 -26 -137 -26zM512.001 635l-0.000976562 51c35.333 0 63.166 7.5 83.499 22.5s30.5 35.833 30.5 62.5h-50v111h114v-85c0 -34 -7.16699 -63 -21.5 -87s-34.666 -42.5 -60.999 -55.5s-58.166 -19.5 -95.499 -19.5z" />
    <glyph glyph-name="uhorn" unicode="&#x1b0;" horiz-adv-x="511" 
d="M204 -12c-45.333 0 -81.333 12.335 -108 37.002s-40 67 -40 127v374h99v-356c0 -16.667 1.83301 -30.834 5.5 -42.501s9.16699 -21.334 16.5 -29.001s16.333 -13.167 27 -16.5s22.667 -5 36 -5c20.667 0 39.5 5.5 56.5 16.5s30.5 27.167 40.5 48.5s15 46.666 15 75.999
v308h99v-526h-82l-8 72h-6c-11.333 -18.667 -24.5 -34.167 -39.5 -46.5s-31.833 -21.666 -50.5 -27.999s-39 -9.5 -61 -9.5zM379 475.002l0.000976562 51c32 3.33301 57.667 12 77 26s31.666 34 36.999 60h-51v111h115v-64c0 -37.333 -6.5 -69 -19.5 -95
s-32.5 -46.333 -58.5 -61s-59.333 -24 -100 -28z" />
    <glyph glyph-name="uni01C4" unicode="&#x1c4;" horiz-adv-x="1213" 
d="M73 0l-0.000976562 685.999h237c64.667 0 119.167 -12 163.5 -36s78 -61.167 101 -111.5s34.5 -115.166 34.5 -194.499s-11.5 -144.333 -34.5 -195s-56.667 -88.167 -101 -112.5s-99.166 -36.5 -164.499 -36.5h-236zM179.999 92.999l124.997 -0.000976562
c30.667 0 57.834 4.16699 81.501 12.5s43.834 21.5 60.501 39.5s29.334 41.833 38.001 71.5s13 65.5 13 107.5v34c0 42.667 -4.33301 79 -13 109s-21.167 54.333 -37.5 73s-36.5 32.334 -60.5 41.001s-51.333 13 -82 13h-125v-501zM670.996 -0.00195312v53l351 541h-328v92
h480v-52l-352 -541h360v-93h-511zM783.996 869.998h86l81 -111l-46 -1l80 112h86l-96 -132h-95z" />
    <glyph glyph-name="uni01C5" unicode="&#x1c5;" horiz-adv-x="1103" 
d="M73 0l-0.000976562 685.999h237c64.667 0 119.167 -12 163.5 -36s78 -61.167 101 -111.5s34.5 -115.166 34.5 -194.499s-11.5 -144.333 -34.5 -195s-56.667 -88.167 -101 -112.5s-99.166 -36.5 -164.499 -36.5h-236zM179.999 92.999l124.997 -0.000976562
c30.667 0 57.834 4.16699 81.501 12.5s43.834 21.5 60.501 39.5s29.334 41.833 38.001 71.5s13 65.5 13 107.5v34c0 42.667 -4.33301 79 -13 109s-21.167 54.333 -37.5 73s-36.5 32.334 -60.5 41.001s-51.333 13 -82 13h-125v-501zM676.996 -0.00195312v49l250 395h-233v82
h370v-47l-251 -396h262v-83h-398zM738.996 722.998h81l81 -111l-46 -1l80 112h82l-96 -132h-87z" />
    <glyph glyph-name="uni01C6" unicode="&#x1c6;" horiz-adv-x="967" 
d="M219 -12c-38 0 -70.668 9.5 -98.001 28.5s-48.166 48.833 -62.499 89.5s-21.5 94 -21.5 160c0 63.333 7.16699 115 21.5 155s34.833 69.5 61.5 88.5s58.334 28.5 95.001 28.5c21.333 0 40.5 -2.66699 57.5 -8s32.167 -13.5 45.5 -24.5s24.666 -24.833 33.999 -41.5h6v259
h99v-723h-80l-9 71h-6c-14 -26 -33.333 -46.333 -58 -61s-53 -22 -85 -22zM247.999 74c26 0 47 6.83203 63 20.499s27.833 33.5 35.5 59.5s11.5 58 11.5 96v24c0 30.667 -2.5 57.334 -7.5 80.001s-12.167 41 -21.5 55s-20.833 24.333 -34.5 31s-29.167 10 -46.5 10
c-25.333 0 -46 -6 -62 -18s-27.833 -30.833 -35.5 -56.5s-11.5 -59.167 -11.5 -100.5v-26c0 -40.667 3.83301 -74 11.5 -100s19.5 -45 35.5 -57s36.667 -18 62 -18zM540.999 -0.000976562v49l251 395h-233v82h369v-47l-250 -396h262v-83h-399zM602.999 722.999h82l81 -111
l-46 -1l80 112h81l-95 -132h-87z" />
    <glyph glyph-name="uni01C7" unicode="&#x1c7;" horiz-adv-x="985" 
d="M73 0v686h107v-592h299v-94h-406zM707 -12c-43.333 0 -80.167 7.00098 -110.5 21.001s-53.666 35 -69.999 63s-24.5 62.667 -24.5 104v36h107v-34c0 -32 8.16699 -56.333 24.5 -73s41.166 -25 74.499 -25c34 0 59.333 11.167 76 33.5s25 55.166 25 98.499v474h107v-474
c0 -50.667 -8.33301 -92.667 -25 -126s-40.5 -58 -71.5 -74s-68.5 -24 -112.5 -24z" />
    <glyph glyph-name="uni01C8" unicode="&#x1c8;" horiz-adv-x="712" 
d="M73 0v686h107v-592h299v-94h-406zM555 619v104h98v-104h-98zM545 -185c-7.33301 0 -15.666 0.5 -24.999 1.5s-18.333 2.5 -27 4.5s-15.667 4 -21 6v70h44c14 0 24 3.66699 30 11s9 19 9 35v583h98v-595c0 -22 -3.5 -41.833 -10.5 -59.5s-18.333 -31.5 -34 -41.5
s-36.834 -15 -63.501 -15z" />
    </font>
</defs>
</svg>
