<?xml version="1.0" standalone="no"?>
<!DOCTYPE svg PUBLIC "-//W3C//DTD SVG 1.1//EN" "http://www.w3.org/Graphics/SVG/1.1/DTD/svg11.dtd" >
<svg xmlns="http://www.w3.org/2000/svg" xmlns:xlink="http://www.w3.org/1999/xlink" version="1.1">
<metadata>
Created by FontForge 20170812 at Thu Jan 28 13:14:41 2021
 By www-data
Copyright 2020 The Archivo Project Authors (https://github.com/Omnibus-Type/Archivo)
</metadata>
<defs>
<font id="ArchivoSemiCondensed-SemiBold" horiz-adv-x="0" >
  <font-face 
    font-family="Archivo SemiCondensed SemiBold"
    font-weight="600"
    font-stretch="semi-condensed"
    units-per-em="1000"
    panose-1="0 0 0 0 0 0 0 0 0 0"
    ascent="800"
    descent="-200"
    x-height="526"
    cap-height="686"
    bbox="-216 -403.002 1182 1095"
    underline-thickness="44"
    underline-position="-170"
    unicode-range="U+000D-FEFF"
  />
<missing-glyph horiz-adv-x="636" 
d="M68 0v700h500v-700h-500zM148 50h340l-170 255zM118 95l170 255l-170 255v-510zM518 95v510l-170 -255zM318 395l170 255h-340z" />
    <glyph glyph-name="fi" unicode="fi" horiz-adv-x="516" 
d="M80 0l-0.00195312 431h-66v95h66v73c0 26 4 49 12 69s21 35.667 39 47s42 17 72 17c8 0 16.833 -0.666992 26.5 -2s18.834 -3 27.501 -5s16 -4.33301 22 -7v-81h-44c-13.333 0 -23.166 -3.83301 -29.499 -11.5s-9.5 -18.167 -9.5 -31.5v-68h83v-95h-83v-431h-116z
M341.998 611v112h115v-112h-115zM341.998 0v526h115v-526h-115z" />
    <glyph glyph-name="fl" unicode="fl" horiz-adv-x="516" 
d="M80 0l-0.00195312 431h-66v95h66v73c0 26 4 49 12 69s21 35.667 39 47s42 17 72 17c8 0 16.833 -0.666992 26.5 -2s18.834 -3 27.501 -5s16 -4.33301 22 -7v-81h-44c-13.333 0 -23.166 -3.83301 -29.499 -11.5s-9.5 -18.167 -9.5 -31.5v-68h83v-95h-83v-431h-116z
M341.998 0v723h115v-723h-115z" />
    <glyph glyph-name="f_f" unicode="ff" horiz-adv-x="545" 
d="M80 0l-0.00195312 431h-66v95h66v73c0 26 4 49 12 69s21 35.667 39 47s42 17 72 17c8 0 16.833 -0.666992 26.5 -2s18.834 -3 27.501 -5s16 -4.33301 22 -7v-81h-44c-13.333 0 -23.166 -3.83301 -29.499 -11.5s-9.5 -18.167 -9.5 -31.5v-68h146v73c0 26 4 49 12 69
s21 35.667 39 47s42 17 72 17c8 0 16.667 -0.666992 26 -2s18.5 -3 27.5 -5s16.5 -4.33301 22.5 -7v-81h-44c-13.333 0 -23.333 -3.83301 -30 -11.5s-10 -18.167 -10 -31.5v-68h84v-95h-84v-431h-115v431h-146v-431h-116z" />
    <glyph glyph-name="f_f_i" unicode="ffi" horiz-adv-x="778" 
d="M80 0l-0.00195312 431h-66v95h66v73c0 26 4 49 12 69s21 35.667 39 47s42 17 72 17c8 0 16.833 -0.666992 26.5 -2s18.834 -3 27.501 -5s16 -4.33301 22 -7v-81h-44c-13.333 0 -23.166 -3.83301 -29.499 -11.5s-9.5 -18.167 -9.5 -31.5v-68h146v73c0 26 4 49 12 69
s21 35.667 39 47s42 17 72 17c8 0 16.667 -0.666992 26 -2s18.5 -3 27.5 -5s16.5 -4.33301 22.5 -7v-81h-44c-13.333 0 -23.333 -3.83301 -30 -11.5s-10 -18.167 -10 -31.5v-68h84v-95h-84v-431h-115v431h-146v-431h-116zM603.998 611v112h115v-112h-115zM603.998 0v526h115
v-526h-115z" />
    <glyph glyph-name="f_f_l" unicode="ffl" horiz-adv-x="778" 
d="M80 0l-0.00195312 431h-66v95h66v73c0 26 4 49 12 69s21 35.667 39 47s42 17 72 17c8 0 16.833 -0.666992 26.5 -2s18.834 -3 27.501 -5s16 -4.33301 22 -7v-81h-44c-13.333 0 -23.166 -3.83301 -29.499 -11.5s-9.5 -18.167 -9.5 -31.5v-68h146v73c0 26 4 49 12 69
s21 35.667 39 47s42 17 72 17c8 0 16.667 -0.666992 26 -2s18.5 -3 27.5 -5s16.5 -4.33301 22.5 -7v-81h-44c-13.333 0 -23.333 -3.83301 -30 -11.5s-10 -18.167 -10 -31.5v-68h84v-95h-84v-431h-115v431h-146v-431h-116zM603.998 0v723h115v-723h-115z" />
    <glyph glyph-name=".notdef" horiz-adv-x="636" 
d="M68 0v700h500v-700h-500zM148 50h340l-170 255zM118 95l170 255l-170 255v-510zM518 95v510l-170 -255zM318 395l170 255h-340z" />
    <glyph glyph-name="CR" unicode="&#xd;" horiz-adv-x="600" 
 />
    <glyph glyph-name="space" unicode=" " horiz-adv-x="175" 
 />
    <glyph glyph-name="exclam" unicode="!" horiz-adv-x="278" 
d="M103 194l-31 492h134l-31 -492h-72zM80 0v129h118v-129h-118z" />
    <glyph glyph-name="quotedbl" unicode="&#x22;" horiz-adv-x="406" 
d="M74 407l-17 132v147h115v-147l-22 -132h-76zM255 407l-18 132v147h115v-147l-22 -132h-75z" />
    <glyph glyph-name="numbersign" unicode="#" horiz-adv-x="542" 
d="M59 -12l35 184h-67v88h84l27 144h-71v87h88l40 207h89l-39 -207h108l40 207h90l-40 -207h72v-87h-89l-27 -144h76v-88h-93l-35 -184h-90l36 184h-110l-34 -184h-90zM201 260h108l27 144h-108z" />
    <glyph glyph-name="dollar" unicode="$" horiz-adv-x="478" 
d="M215 -50v779h50v-779h-50zM237 68c-35.333 0 -65.8311 4.00195 -91.498 12.002s-46.834 19.167 -63.501 33.5s-29 31.166 -37 50.499s-12 40.666 -12 63.999c0 3.33301 0.166992 6.66602 0.5 9.99902s0.5 6 0.5 8h111v-6.5v-6.5
c0.666992 -16.667 5.16699 -30.5 13.5 -41.5s19.666 -19.167 33.999 -24.5s29.833 -8 46.5 -8s31.667 2.16699 45 6.5s24 11 32 20s12 20.833 12 35.5c0 17.333 -5.66699 30.833 -17 40.5s-26.333 17.667 -45 24s-38.667 12.833 -60 19.5c-18.667 6 -37.667 12.667 -57 20
s-36.833 16.833 -52.5 28.5s-28.334 26.5 -38.001 44.5s-14.5 40.333 -14.5 67c0 25.333 5 47.5 15 66.5s24 35 42 48s39 22.667 63 29s50.333 9.5 79 9.5c28 0 53.5 -3.16699 76.5 -9.5s42.833 -15.5 59.5 -27.5s29.5 -26.5 38.5 -43.5s13.5 -36.167 13.5 -57.5
c0 -4.66699 -0.166992 -9.66699 -0.5 -15s-0.5 -9 -0.5 -11h-110v13c0 13.333 -3.33301 24.333 -10 33s-16 15.5 -28 20.5s-26.667 7.5 -44 7.5c-13.333 0 -25 -1.33301 -35 -4s-18.333 -6.5 -25 -11.5s-11.667 -10.667 -15 -17s-5 -13.5 -5 -21.5c0 -14 4.66699 -25 14 -33
s21.666 -14.833 36.999 -20.5s32 -11.5 50 -17.5c20.667 -6.66699 41.834 -13.667 63.501 -21s41.834 -16.5 60.501 -27.5s33.667 -25.833 45 -44.5s17 -43.334 17 -74.001c0 -30 -5.16699 -55.667 -15.5 -77s-24.833 -38.666 -43.5 -51.999s-40.667 -23.166 -66 -29.499
s-53 -9.5 -83 -9.5z" />
    <glyph glyph-name="percent" unicode="%" horiz-adv-x="865" 
d="M173 0l434 686h88l-435 -686h-87zM224 338c-30.667 0 -57 5.66602 -79 16.999s-38.667 30 -50 56s-17 61.667 -17 107s5.66699 81 17 107s28 44.667 50 56s48.333 17 79 17s56.834 -5.66699 78.501 -17s38.167 -30 49.5 -56s17 -61.667 17 -107
s-5.66699 -81.166 -17 -107.499s-27.833 -45 -49.5 -56s-47.834 -16.5 -78.501 -16.5zM224 406.999c24 0 39.667 9.33105 47 27.998s11 43.667 11 75v16c0 20.667 -1.66699 38.834 -5 54.501s-9 27.834 -17 36.501s-20 13 -36 13c-24 0 -39.667 -9.5 -47 -28.5
s-11 -44.167 -11 -75.5v-16c0 -31.333 3.66699 -56.333 11 -75s23 -28 47 -28zM643 -12.0029c-30.667 0 -57 5.66602 -79 16.999s-38.667 30 -50 56s-17 61.667 -17 107s5.66699 81 17 107s28 44.667 50 56s48.333 17 79 17s56.834 -5.66699 78.501 -17s38.167 -30 49.5 -56
s17 -61.667 17 -107s-5.66699 -81.166 -17 -107.499s-27.833 -45 -49.5 -56s-47.834 -16.5 -78.501 -16.5zM643 56.9961c24 0 39.5 9.49805 46.5 28.498s10.5 44.167 10.5 75.5v15c0 20.667 -1.5 38.834 -4.5 54.501s-8.5 27.834 -16.5 36.501s-20 13 -36 13
c-24 0 -39.667 -9.5 -47 -28.5s-11 -44.167 -11 -75.5v-15c0 -31.333 3.66699 -56.5 11 -75.5s23 -28.5 47 -28.5z" />
    <glyph glyph-name="ampersand" unicode="&#x26;" horiz-adv-x="652" 
d="M290 -12c-49.333 0 -92.501 7.99414 -129.501 23.9941s-65.667 38.833 -86 68.5s-30.5 64.5 -30.5 104.5c0 45.333 11.333 81.833 34 109.5s51.334 46.834 86.001 57.501v4c-30 14 -55.167 32.833 -75.5 56.5s-30.5 55.834 -30.5 96.501c0 39.333 10 73.166 30 101.499
s48.167 50 84.5 65s79.166 22.5 128.499 22.5c46.667 0 87.5 -7.33301 122.5 -22s62.333 -36.167 82 -64.5s29.5 -62.166 29.5 -101.499v-22h-114v14c0 22.667 -4.83301 41.334 -14.5 56.001s-23.334 25.667 -41.001 33s-39.167 11 -64.5 11
c-19.333 0 -36.666 -2.16699 -51.999 -6.5s-28.333 -10.833 -39 -19.5s-18.667 -19.5 -24 -32.5s-8 -28.167 -8 -45.5c0 -22 4.66699 -40.667 14 -56s22 -26.833 38 -34.5s34 -11.5 54 -11.5h53v-95h-52c-21.333 0 -41.166 -3 -59.499 -9s-33.166 -16.667 -44.499 -32
s-17 -37 -17 -65c0 -25.333 5.16699 -46.166 15.5 -62.499s25.333 -28.5 45 -36.5s43.167 -12 70.5 -12c28.667 0 52.167 4.33301 70.5 13s32.166 21.334 41.499 38.001s14 37.334 14 62.001v199h200v-95h-86v-99c0 -44 -9 -82 -27 -114s-45 -56.667 -81 -74
s-81.667 -26 -137 -26z" />
    <glyph glyph-name="quotesingle" unicode="'" horiz-adv-x="225" 
d="M74 407l-17 132v147h115v-147l-22 -132h-76z" />
    <glyph glyph-name="parenleft" unicode="(" horiz-adv-x="350" 
d="M231 -157c-54.667 61.333 -96.834 130.665 -126.501 207.998s-44.5 157 -44.5 239c0 81.333 14.833 160.833 44.5 238.5s71.834 146.834 126.501 207.501h77c-25.333 -40.667 -48.333 -85.667 -69 -135s-37 -100.5 -49 -153.5s-18 -105.5 -18 -157.5s6 -104.667 18 -158
s28.333 -104.666 49 -153.999s43.667 -94.333 69 -135h-77z" />
    <glyph glyph-name="parenright" unicode=")" horiz-adv-x="350" 
d="M120 735c55.333 -61.333 97.5 -130.668 126.5 -208.001s43.5 -157 43.5 -239c0 -81.333 -14.5 -160.666 -43.5 -237.999s-71.167 -146.666 -126.5 -207.999h-78c26 40.667 49.333 85.667 70 135s36.834 100.5 48.501 153.5s17.5 105.5 17.5 157.5
s-5.83301 104.667 -17.5 158s-27.834 104.666 -48.501 153.999s-44 94.333 -70 135h78z" />
    <glyph glyph-name="asterisk" unicode="*" horiz-adv-x="395" 
d="M160 329l11 133l-101 -76l-38 66l113 56l-113 57l38 65l101 -76l-11 133h74l-11 -133l102 76l37 -65l-113 -57l113 -56l-37 -66l-102 76l11 -133h-74z" />
    <glyph glyph-name="plus" unicode="+" horiz-adv-x="587" 
d="M246 13v196h-174v95h174v196h94v-196h174v-95h-174v-196h-94z" />
    <glyph glyph-name="comma" unicode="," horiz-adv-x="267" 
d="M67 -162v52.999c14.667 2.66699 26.667 9.16699 36 19.5s16.333 23.166 21 38.499s7 32.333 7 51h-56v129h118v-116c0 -39.333 -6 -71.166 -18 -95.499s-27.5 -42.666 -46.5 -54.999s-39.5 -20.5 -61.5 -24.5z" />
    <glyph glyph-name="hyphen" unicode="-" horiz-adv-x="302" 
d="M37 217v107h229v-107h-229z" />
    <glyph glyph-name="period" unicode="." horiz-adv-x="267" 
d="M74 0v129h118v-129h-118z" />
    <glyph glyph-name="slash" unicode="/" horiz-adv-x="286" 
d="M0 -49l200 784h86l-200 -784h-86z" />
    <glyph glyph-name="zero" unicode="0" horiz-adv-x="519" 
d="M260 -12c-36.667 0 -68.665 5.83301 -95.998 17.5s-50 31.167 -68 58.5s-31.667 63.833 -41 109.5s-14 102.167 -14 169.5c0 68 4.66699 124.667 14 170s23.166 81.666 41.499 108.999s41.166 46.833 68.499 58.5s59 17.5 95 17.5c36.667 0 68.5 -5.83301 95.5 -17.5
s49.667 -31.167 68 -58.5s32 -63.666 41 -108.999s13.5 -102 13.5 -170c0 -67.333 -4.5 -123.833 -13.5 -169.5s-22.833 -82.167 -41.5 -109.5s-41.5 -46.833 -68.5 -58.5s-58.5 -17.5 -94.5 -17.5zM260.002 83c28 0 49 8.33203 63 24.999s23.667 41.5 29 74.5
s8 74.5 8 124.5v70c0 50.667 -2.66699 92.834 -8 126.501s-15 58.667 -29 75s-35 24.5 -63 24.5c-27.333 0 -48.333 -8.16699 -63 -24.5s-24.5 -41 -29.5 -74s-7.5 -74.833 -7.5 -125.5v-70c0 -50.667 2.5 -92.667 7.5 -126s14.833 -58.333 29.5 -75s35.667 -25 63 -25z" />
    <glyph glyph-name="one" unicode="1" horiz-adv-x="502" 
d="M75 0v95.001h145v440h-146v73c19.333 2 41.333 6.66699 66 14s49.667 16.666 75 27.999s48.333 23.333 69 36h53v-591h136v-95h-398z" />
    <glyph glyph-name="two" unicode="2" horiz-adv-x="520" 
d="M44 0l0.00390625 34c0 29.333 4.83301 56.166 14.5 80.499s22.5 46.666 38.5 66.999s34 39.666 54 57.999s40 35.833 60 52.5c26 22 50.167 43.833 72.5 65.5s40.166 44.667 53.499 69s20 51.166 20 80.499c0 16.667 -2.83301 32.167 -8.5 46.5s-15.167 26 -28.5 35
s-31.333 13.5 -54 13.5s-41.334 -4.66699 -56.001 -14s-25.334 -22 -32.001 -38s-10 -35.333 -10 -58v-42h-114c-0.666992 4 -1.33398 9.5 -2.00098 16.5s-1 14.833 -1 23.5c0 48.667 9.66699 88.334 29 119.001s45.666 53.167 78.999 67.5s71 21.5 113 21.5
c39.333 0 72 -5.5 98 -16.5s46.667 -26 62 -45s26.333 -40.167 33 -63.5s10 -46.666 10 -69.999c0 -31.333 -4.66699 -59.666 -14 -84.999s-22.333 -49.166 -39 -71.499s-36.5 -44 -59.5 -65s-47.833 -42.167 -74.5 -63.5c-15.333 -12.667 -30.166 -25.5 -44.499 -38.5
s-26.833 -26 -37.5 -39s-18.667 -25.5 -24 -37.5h297v-103h-435z" />
    <glyph glyph-name="three" unicode="3" horiz-adv-x="520" 
d="M259 -12c-48.667 0 -89.6699 8.16406 -123.003 24.4971s-58.333 39.666 -75 69.999s-25 65.833 -25 106.5v17h117v-18c0 -33.333 8.83301 -59 26.5 -77s43.167 -27 76.5 -27c32.667 0 58.334 8.83301 77.001 26.5s28 45.834 28 84.501c0 28 -5 49.5 -15 64.5
s-23.5 25.833 -40.5 32.5s-35.5 10 -55.5 10h-55v95h57c18 0 34.333 3.83301 49 11.5s26 19.667 34 36s12 36.833 12 61.5c0 22.667 -3.66699 41.167 -11 55.5s-17.666 24.833 -30.999 31.5s-28.666 10 -45.999 10c-18.667 0 -35 -3.66699 -49 -11
s-24.833 -18.333 -32.5 -33s-11.5 -33 -11.5 -55v-16h-116v23c0 38 8.66699 71 26 99s41.833 49.667 73.5 65s68.5 23 110.5 23s78.5 -7 109.5 -21s55 -34.833 72 -62.5s25.5 -61.167 25.5 -100.5c0 -28 -4.5 -52.167 -13.5 -72.5s-21 -37.166 -36 -50.499
s-31.5 -24.666 -49.5 -33.999v-4c32 -11.333 58.667 -30.666 80 -57.999s32 -63.666 32 -108.999c0 -40.667 -9 -75.834 -27 -105.501s-43.667 -52.5 -77 -68.5s-72.333 -24 -117 -24z" />
    <glyph glyph-name="four" unicode="4" horiz-adv-x="515" 
d="M295 0l0.000976562 154.997h-271v97c23.333 43.333 45 88.5 65 135.5s37.833 96.333 53.5 148s29.167 105.834 40.5 162.501h120c-6.66699 -33.333 -15.834 -68.166 -27.501 -104.499s-24.5 -72.166 -38.5 -107.499s-28 -68.5 -42 -99.5s-27.333 -58.333 -40 -82
s-23 -41.5 -31 -53.5h171v166c5.33301 12 10.833 25.5 16.5 40.5s11.167 30.833 16.5 47.5s10.333 33 15 49s8.66699 31 12 45h56v-348h76v-96h-76v-155h-116z" />
    <glyph glyph-name="five" unicode="5" horiz-adv-x="522" 
d="M261 -12c-44.667 0 -83.667 8.66699 -117 26s-58.833 42.666 -76.5 75.999s-26.5 74.333 -26.5 123h118c0 -27.333 4 -50.833 12 -70.5s19.667 -34.5 35 -44.5s33.333 -15 54 -15c21.333 0 39.333 5.16699 54 15.5s26.167 26 34.5 47s12.5 47.167 12.5 78.5
c0 28.667 -3.83301 52.5 -11.5 71.5s-18.667 33.5 -33 43.5s-31.5 15 -51.5 15c-14.667 0 -28.167 -3 -40.5 -9s-23.166 -13.667 -32.499 -23s-17.333 -19.666 -24 -30.999l-105 15l25 380h359v-104h-259l-10 -174c8.66699 6.66699 18.5 13 29.5 19s23.667 10.833 38 14.5
s30.833 5.5 49.5 5.5c36 0 67.833 -7.83301 95.5 -23.5s49.5 -39.834 65.5 -72.501s24 -74.667 24 -126c0 -50.667 -8.83301 -93.667 -26.5 -129s-42.834 -62.166 -75.501 -80.499s-71.667 -27.5 -117 -27.5z" />
    <glyph glyph-name="six" unicode="6" horiz-adv-x="520" 
d="M271 -12c-36.667 0 -69.167 5.33496 -97.5 16.002s-52.333 28.667 -72 54s-34.5 59.666 -44.5 102.999s-15 97.666 -15 162.999c0 72 5 132 15 180s24.5 86.167 43.5 114.5s42.5 48.666 70.5 60.999s60.333 18.5 97 18.5c45.333 0 82.333 -9 111 -27
s49.667 -43.167 63 -75.5s20 -70.166 20 -113.499h-114c0 26.667 -2.83301 49 -8.5 67s-14.667 31.5 -27 40.5s-28.5 13.5 -48.5 13.5c-29.333 0 -51.5 -8.83301 -66.5 -26.5s-25 -43.5 -30 -77.5s-7.83301 -75.667 -8.5 -125c5.33301 10 14.166 20 26.499 30
s28 18.5 47 25.5s40.167 10.5 63.5 10.5c42.667 0 77.834 -9.33301 105.501 -28s48.167 -44.667 61.5 -78s20 -72 20 -116c0 -48.667 -9 -90.167 -27 -124.5s-42.833 -60.5 -74.5 -78.5s-68.5 -27 -110.5 -27zM266 83.002c24 0 43.332 5.83398 57.999 17.501
s25.334 27.667 32.001 48s10 43.166 10 68.499s-3.33301 47.666 -10 66.999s-17.334 34.5 -32.001 45.5s-33.667 16.5 -57 16.5s-42.5 -5.5 -57.5 -16.5s-25.833 -26.167 -32.5 -45.5s-10 -42.333 -10 -69c0 -24.667 3.33301 -47.167 10 -67.5
s17.334 -36.166 32.001 -47.499s33.667 -17 57 -17z" />
    <glyph glyph-name="seven" unicode="7" horiz-adv-x="505" 
d="M121 0c0 57.333 6.16699 113.331 18.5 167.998s29 106.834 50 156.501s44.5 96.334 70.5 140.001s52.333 82.834 79 117.501h-307v104h444v-73c-21.333 -28 -42.833 -58.833 -64.5 -92.5s-42.5 -69.167 -62.5 -106.5s-37.833 -75.833 -53.5 -115.5
s-28.167 -80.334 -37.5 -122.001s-14 -83.5 -14 -125.5v-51h-123z" />
    <glyph glyph-name="eight" unicode="8" horiz-adv-x="516" 
d="M258 -12c-51.333 0 -93.498 8.5 -126.498 25.5s-57.167 40.5 -72.5 70.5s-23 64.333 -23 103c0 38 8.16699 71.167 24.5 99.5s41.833 49.833 76.5 64.5c-28.667 17.333 -50.167 39.666 -64.5 66.999s-21.5 57 -21.5 89c0 38 7.83301 71.167 23.5 99.5
s39 50.666 70 66.999s68.833 24.5 113.5 24.5c45.333 0 83.166 -8.16699 113.499 -24.5s53.5 -38.666 69.5 -66.999s24 -61.5 24 -99.5c0 -32 -7 -61.667 -21 -89s-35.667 -49.666 -65 -66.999c35.333 -14.667 61 -36.167 77 -64.5s24 -61.5 24 -99.5
c0 -38.667 -7.83301 -73 -23.5 -103s-39.834 -53.5 -72.501 -70.5s-74.667 -25.5 -126 -25.5zM258.002 82c35.333 0 61.333 10 78 30s25 47.333 25 82s-8.5 61.667 -25.5 81s-42.833 29 -77.5 29s-60.5 -9.66699 -77.5 -29s-25.5 -46.333 -25.5 -81s8.5 -62 25.5 -82
s42.833 -30 77.5 -30zM258.002 397c30 0 52.667 8.83301 68 26.5s23 43.167 23 76.5c0 32.667 -7.83301 58.167 -23.5 76.5s-38.167 27.5 -67.5 27.5c-30 0 -52.667 -9.16699 -68 -27.5s-23 -43.833 -23 -76.5c0 -33.333 7.66699 -58.833 23 -76.5s38 -26.5 68 -26.5z" />
    <glyph glyph-name="nine" unicode="9" horiz-adv-x="519" 
d="M251 -12c-45.333 0 -82.3301 8.99805 -110.997 26.998s-49.667 43.333 -63 76s-20 70.334 -20 113.001h115c0 -26.667 2.66699 -49 8 -67s14.166 -31.5 26.499 -40.5s28.833 -13.5 49.5 -13.5c29.333 0 51.333 9 66 27s24.5 44 29.5 78s7.83301 75.333 8.5 124
c-4.66699 -8.66699 -13.167 -18.334 -25.5 -29.001s-28 -19.5 -47 -26.5s-40.167 -10.5 -63.5 -10.5c-42.667 0 -77.834 9.33301 -105.501 28s-48.334 44.667 -62.001 78s-20.5 72 -20.5 116c0 49.333 9 91.166 27 125.499s43 60.333 75 78s68.667 26.5 110 26.5
c36.667 0 69.167 -5.33301 97.5 -16s52.5 -28.667 72.5 -54s35 -59.666 45 -102.999s15 -97.333 15 -162c0 -72 -5 -132.167 -15 -180.5s-24.5 -86.666 -43.5 -114.999s-42.667 -48.666 -71 -60.999s-60.833 -18.5 -97.5 -18.5zM253.003 339.998
c23.333 0 42.334 5.49902 57.001 16.499s25.5 26.333 32.5 46s10.5 42.5 10.5 68.5s-3.33301 48.833 -10 68.5s-17.334 35.167 -32.001 46.5s-34 17 -58 17s-43.167 -5.83301 -57.5 -17.5s-24.833 -27.5 -31.5 -47.5s-10 -43 -10 -69c0 -25.333 3.33301 -47.666 10 -66.999
s17.167 -34.5 31.5 -45.5s33.5 -16.5 57.5 -16.5z" />
    <glyph glyph-name="colon" unicode=":" horiz-adv-x="298" 
d="M90 397v129h118v-129h-118zM90 0v129h118v-129h-118z" />
    <glyph glyph-name="semicolon" unicode=";" horiz-adv-x="298" 
d="M85 -162v52.999c14 2.66699 25.667 9.16699 35 19.5s16.333 23.166 21 38.499s7 32.333 7 51h-55v129h117v-116c0 -39.333 -5.83301 -71.166 -17.5 -95.499s-27 -42.666 -46 -54.999s-39.5 -20.5 -61.5 -24.5zM92 396.999v129h117v-129h-117z" />
    <glyph glyph-name="less" unicode="&#x3c;" horiz-adv-x="587" 
d="M504 17l-442 183v115l442 184v-106l-344 -135l344 -135v-106z" />
    <glyph glyph-name="equal" unicode="=" horiz-adv-x="587" 
d="M72 312v95h442v-95h-442zM72 104v94h442v-94h-442z" />
    <glyph glyph-name="greater" unicode="&#x3e;" horiz-adv-x="587" 
d="M82 17v106l345 135l-345 135v106l442 -184v-115z" />
    <glyph glyph-name="question" unicode="?" horiz-adv-x="540" 
d="M214 194l-0.00488281 50.9971c0 24 3.5 44.5 10.5 61.5s15.833 32 26.5 45s22 24.833 34 35.5s23.333 21.667 34 33s19.334 23.833 26.001 37.5s10 29.834 10 48.501c0 10.667 -1 21.167 -3 31.5s-6 20 -12 29s-14.833 16.333 -26.5 22s-26.834 8.5 -45.501 8.5
c-20.667 0 -37.334 -3.66699 -50.001 -11s-22.167 -16.666 -28.5 -27.999s-10.666 -23.333 -12.999 -36s-3.5 -24.667 -3.5 -36v-13.5c0 -4.33301 0.333008 -8.83301 1 -13.5h-117c0 3.33301 -0.5 7.83301 -1.5 13.5s-1.5 12.834 -1.5 21.501c0 20.667 2.83301 41 8.5 61
s14.167 38.667 25.5 56s25.833 32.5 43.5 45.5s38.334 23.167 62.001 30.5s51.167 11 82.5 11c26.667 0 50.834 -2.83301 72.501 -8.5s40.5 -13.667 56.5 -24s29.5 -23 40.5 -38s19.333 -31.5 25 -49.5s8.5 -37.333 8.5 -58c0 -30.667 -3.66699 -56.667 -11 -78
s-17.166 -39.5 -29.499 -54.5s-25.166 -28.333 -38.499 -40s-26.166 -23 -38.499 -34s-22.333 -23.167 -30 -36.5s-11.5 -29.333 -11.5 -48v-35h-106zM207.995 -0.00292969v129h118v-129h-118z" />
    <glyph glyph-name="at" unicode="@" horiz-adv-x="890" 
d="M424 -154c-79.333 0 -147.667 14.5049 -205 43.5049s-101.333 74.167 -132 135.5s-46 140.333 -46 237c0 80.667 11 148.667 33 204s52.333 100.166 91 134.499s83 59.166 133 74.499s103 23 159 23c56.667 0 108.834 -7 156.501 -21s89 -36 124 -66
s62.167 -69 81.5 -117s29 -105.667 29 -173c0 -41.333 -3.83301 -78.166 -11.5 -110.499s-18.334 -60.333 -32.001 -84s-29.5 -43.167 -47.5 -58.5s-37.167 -26.833 -57.5 -34.5s-40.833 -11.5 -61.5 -11.5c-26 0 -46.333 3.83301 -61 11.5s-25.5 16.334 -32.5 26.001
s-11.167 17.834 -12.5 24.501h-5c-9.33301 -12.667 -20.166 -23.834 -32.499 -33.501s-26.666 -17 -42.999 -22s-35.5 -7.5 -57.5 -7.5c-13.333 0 -27.666 2 -42.999 6s-29.5 10.833 -42.5 20.5s-23.833 23.167 -32.5 40.5s-13 39.333 -13 66c0 32 6.33301 58.5 19 79.5
s30.5 37.833 53.5 50.5s50.167 21.667 81.5 27s66 8 104 8v52c0 13.333 -1.83301 25.166 -5.5 35.499s-10.167 18.166 -19.5 23.499s-23 8 -41 8c-18.667 0 -33.334 -2.5 -44.001 -7.5s-18.167 -11.833 -22.5 -20.5s-6.5 -17.667 -6.5 -27v-17h-97
c-0.666992 3.33301 -1 6.5 -1 9.5v9.5c0 28.667 7.16699 53.167 21.5 73.5s34.333 35.833 60 46.5s55.5 16 89.5 16c36.667 0 67.334 -5.33301 92.001 -16s43.334 -26.667 56.001 -48s19 -48.333 19 -81v-235c0 -14.667 3.5 -25.167 10.5 -31.5s16.167 -9.5 27.5 -9.5
c18.667 0 36.5 6.83301 53.5 20.5s31 36.667 42 69s16.5 76.5 16.5 132.5c0 72.667 -13.333 131.667 -40 177s-63.667 78.5 -111 99.5s-102.333 31.5 -165 31.5c-69.333 0 -129.333 -13.333 -180 -40s-89.834 -67.334 -117.501 -122.001s-41.5 -123.667 -41.5 -207
c0 -114.667 25.167 -201 75.5 -259s127.833 -87 232.5 -87c16.667 0 35.667 1.33301 57 4s42.166 6.16699 62.499 10.5s36.5 9.16602 48.5 14.499v-73c-14.667 -4.66699 -32.334 -8.83398 -53.001 -12.501s-41.334 -6.66699 -62.001 -9s-38.667 -3.5 -54 -3.5z
M425.999 103.005c16 0 29.998 2.66699 41.998 8s22 13.166 30 23.499s13.833 22.833 17.5 37.5s5.5 31.334 5.5 50.001v27c-29.333 0 -55.666 -2.5 -78.999 -7.5s-41.666 -13.5 -54.999 -25.5s-20 -28.667 -20 -50c0 -14 2.16699 -25.667 6.5 -35s10.833 -16.333 19.5 -21
s19.667 -7 33 -7z" />
    <glyph glyph-name="A" unicode="A" horiz-adv-x="628" 
d="M3 0l231 686h160l231 -686h-134l-49 150h-262l-48 -150h-129zM213 256l196.001 0.00292969l-61 197c-2 6 -4.33301 13.667 -7 23s-5.66699 19.666 -9 30.999s-6.5 22.666 -9.5 33.999s-5.83301 21.666 -8.5 30.999h-6c-2.66699 -12 -6.33398 -25.833 -11.001 -41.5
s-9.16699 -30.5 -13.5 -44.5s-7.83301 -25 -10.5 -33z" />
    <glyph glyph-name="B" unicode="B" horiz-adv-x="626" 
d="M68 0l-0.000976562 686h317c38 0 71 -6.83301 99 -20.5s49.833 -33 65.5 -58s23.5 -54.5 23.5 -88.5c0 -26.667 -4.83301 -50.834 -14.5 -72.501s-22.5 -39.667 -38.5 -54s-34 -25.166 -54 -32.499v-4c23.333 -6 44.333 -16 63 -30s33.334 -32.333 44.001 -55
s16 -49.667 16 -81c0 -44.667 -9.33301 -81 -28 -109s-44.5 -48.5 -77.5 -61.5s-70.833 -19.5 -113.5 -19.5h-302zM192.999 107h176c29.333 0 52 7.83301 68 23.5s24 39.834 24 72.501c0 19.333 -3.33301 36.166 -10 50.499s-17 25.333 -31 33s-32.333 11.5 -55 11.5h-172
v-191zM192.999 402h164c19.333 0 35.5 4 48.5 12s22.833 18.667 29.5 32s10 28.666 10 45.999c0 28.667 -7.5 50.334 -22.5 65.001s-35.167 22 -60.5 22h-169v-177z" />
    <glyph glyph-name="C" unicode="C" horiz-adv-x="647" 
d="M336 -12c-64.667 0 -118.833 12.5 -162.5 37.5s-76.667 63.667 -99 116s-33.5 119.5 -33.5 201.5c0 121.333 25.667 210.833 77 268.5s125.666 86.5 222.999 86.5c52.667 0 99.167 -9.5 139.5 -28.5s72 -48.167 95 -87.5s34.5 -90 34.5 -152h-126
c0 34.667 -5.83301 64 -17.5 88s-28.167 42.333 -49.5 55s-47 19 -77 19c-38 0 -69.667 -8.5 -95 -25.5s-44.166 -42.333 -56.499 -76s-18.5 -75.834 -18.5 -126.501v-42c0 -51.333 6 -93.833 18 -127.5s30.5 -58.667 55.5 -75s56.833 -24.5 95.5 -24.5c31.333 0 58 6 80 18
s39 29.833 51 53.5s18 53.167 18 88.5h122c0 -61.333 -11.833 -111.666 -35.5 -150.999s-56 -68.5 -97 -87.5s-88.167 -28.5 -141.5 -28.5z" />
    <glyph glyph-name="D" unicode="D" horiz-adv-x="652" 
d="M68 0l0.000976562 686.001h247c64 0 117.833 -12.167 161.5 -36.5s76.834 -61.666 99.501 -111.999s34 -114.833 34 -193.5s-11.333 -143.334 -34 -194.001s-55.834 -88.334 -99.501 -113.001s-97.834 -37 -162.501 -37h-246zM194.001 107.001l116 -0.000976562
c28 0 52.667 4.16699 74 12.5s39.166 21 53.499 38s25.333 39.167 33 66.5s11.5 60 11.5 98v38c0 38.667 -3.83301 71.667 -11.5 99s-18.667 49.833 -33 67.5s-32.166 30.834 -53.499 39.501s-46 13 -74 13h-116v-472z" />
    <glyph glyph-name="E" unicode="E" horiz-adv-x="596" 
d="M68 0v686h478v-107h-352v-175h311v-108h-311v-189h357v-107h-483z" />
    <glyph glyph-name="F" unicode="F" horiz-adv-x="536" 
d="M68 0v686h437v-107h-311v-190h276v-108h-276v-281h-126z" />
    <glyph glyph-name="G" unicode="G" horiz-adv-x="704" 
d="M344 -12c-96.667 0 -170.333 28.6689 -221 86.002s-76 147 -76 269c0 80.667 12 147.167 36 199.5s59.333 91.333 106 117s103.667 38.5 171 38.5c40.667 0 78.167 -5 112.5 -15s64.333 -25.333 90 -46s45.667 -46.5 60 -77.5s21.5 -67.5 21.5 -109.5h-127
c0 22.667 -3.83301 42.834 -11.5 60.501s-18.5 32.5 -32.5 44.5s-30.5 21.167 -49.5 27.5s-40.167 9.5 -63.5 9.5c-30.667 0 -57.667 -4.66699 -81 -14s-42.666 -23.5 -57.999 -42.5s-26.833 -42.833 -34.5 -71.5s-11.5 -62.334 -11.5 -101.001v-41
c0 -52.667 6.5 -95.834 19.5 -129.501s32.667 -58.334 59 -74.001s59.166 -23.5 98.499 -23.5c36 0 66.333 6.16699 91 18.5s43.667 30.333 57 54s20 52.5 20 86.5v10h-185v103h308v-367h-83l-10 74c-16.667 -19.333 -35 -35.333 -55 -48s-42.333 -22.167 -67 -28.5
s-52.667 -9.5 -84 -9.5z" />
    <glyph glyph-name="H" unicode="H" horiz-adv-x="654" 
d="M68 0v686h126v-282h267v282h125v-686h-125v296h-267v-296h-126z" />
    <glyph glyph-name="I" unicode="I" horiz-adv-x="262" 
d="M68 0v686h126v-686h-126z" />
    <glyph glyph-name="J" unicode="J" horiz-adv-x="522" 
d="M240 -12c-45.333 0 -84.001 7.16797 -116.001 21.501s-56.5 35.666 -73.5 63.999s-25.5 63.833 -25.5 106.5v40h124v-37c0 -28.667 7.5 -50.5 22.5 -65.5s38.167 -22.5 69.5 -22.5s54.5 10.5 69.5 31.5s22.5 51.167 22.5 90.5v469h125v-471
c0 -51.333 -8.66699 -93.833 -26 -127.5s-42.166 -58.667 -74.499 -75s-71.5 -24.5 -117.5 -24.5z" />
    <glyph glyph-name="K" unicode="K" horiz-adv-x="628" 
d="M68 0v686h126v-322l266 322h146l-233 -278l239 -408h-145l-177 309l-96 -99v-210h-126z" />
    <glyph glyph-name="L" unicode="L" horiz-adv-x="510" 
d="M68 0v686h126v-577h298v-109h-424z" />
    <glyph glyph-name="M" unicode="M" horiz-adv-x="778" 
d="M69 0l-0.000976562 686.003h192l98 -383c3.33301 -11.333 6.83301 -24.833 10.5 -40.5s7.16699 -31 10.5 -46s6 -28.167 8 -39.5h7c1.33301 9.33301 3.33301 21 6 35s5.66699 29 9 45s6.66602 31.333 9.99902 46l99 383h190v-686h-124v372
c0 23.333 0.333008 47.166 1 71.499s1.5 45.5 2.5 63.5s1.5 29.667 1.5 35h-8c-0.666992 -6 -3.16699 -17.333 -7.5 -34s-8.83301 -34.667 -13.5 -54s-9 -36.333 -13 -51l-106 -403h-111l-106 403c-2.66699 11.333 -6 25.166 -10 41.499s-8 33.333 -12 51
s-7.66699 33.167 -11 46.5h-8c0.666992 -14.667 1.33398 -32.167 2.00098 -52.5s1.33398 -40.833 2.00098 -61.5s1 -39.334 1 -56.001v-372h-120z" />
    <glyph glyph-name="N" unicode="N" horiz-adv-x="655" 
d="M68 0v685.999h120l244 -390c3.33301 -4.66699 7 -10.5 11 -17.5s7.83301 -14.167 11.5 -21.5s6.16699 -13.666 7.5 -18.999h5v31v27v390h120v-686h-119l-246 394c-4 8 -9.16699 18 -15.5 30s-10.833 22 -13.5 30h-5v-29v-31v-394h-120z" />
    <glyph glyph-name="O" unicode="O" horiz-adv-x="699" 
d="M350 -12c-64.667 0 -120.167 12.667 -166.5 38s-81.666 64.333 -105.999 117s-36.5 119.334 -36.5 200.001c0 81.333 12.167 148.166 36.5 200.499s59.666 91.166 105.999 116.499s101.833 38 166.5 38s120 -12.667 166 -38s81.167 -64.166 105.5 -116.499
s36.5 -119.166 36.5 -200.499c0 -80.667 -12.167 -147.334 -36.5 -200.001s-59.5 -91.667 -105.5 -117s-101.333 -38 -166 -38zM350 95c29.333 0 55.166 4.83301 77.499 14.5s41.166 24 56.499 43s26.833 42.667 34.5 71s11.5 61.166 11.5 98.499v42
c0 37.333 -3.83301 70.333 -11.5 99s-19.167 52.5 -34.5 71.5s-34.166 33.333 -56.499 43s-48.166 14.5 -77.499 14.5c-30 0 -56.167 -4.83301 -78.5 -14.5s-41 -24 -56 -43s-26.333 -42.833 -34 -71.5s-11.5 -61.667 -11.5 -99v-42c0 -37.333 3.83301 -70.166 11.5 -98.499
s19 -52 34 -71s33.667 -33.333 56 -43s48.5 -14.5 78.5 -14.5z" />
    <glyph glyph-name="P" unicode="P" horiz-adv-x="600" 
d="M68 0v686h300c49.333 0 89.333 -9 120 -27s53.5 -43.167 68.5 -75.5s22.5 -70.5 22.5 -114.5c0 -44.667 -8 -83.667 -24 -117s-39.833 -59.333 -71.5 -78s-71.5 -28 -119.5 -28h-170v-246h-126zM194 353l160 0.00292969c32 0 56.333 10.167 73 30.5s25 48.166 25 83.499
c0 25.333 -3.66699 46.166 -11 62.499s-18.333 28.666 -33 36.999s-33.667 12.5 -57 12.5h-157v-226z" />
    <glyph glyph-name="Q" unicode="Q" horiz-adv-x="699" 
d="M481 -130l-101.999 118.999c-4.66699 -0.666992 -9.5 -1 -14.5 -1h-14.5c-64.667 0 -120.167 12.667 -166.5 38s-81.666 64.333 -105.999 117s-36.5 119.334 -36.5 200.001c0 81.333 12.167 148.166 36.5 200.499s59.666 91.166 105.999 116.499s101.833 38 166.5 38
s120 -12.667 166 -38s81.167 -64.166 105.5 -116.499s36.5 -119.166 36.5 -200.499c0 -84.667 -13.333 -153.667 -40 -207s-65.334 -92.333 -116.001 -117l135 -149h-156zM350.001 94.999c29.333 0 55.166 4.83301 77.499 14.5s41.166 24 56.499 43s26.833 42.667 34.5 71
s11.5 61.166 11.5 98.499v42c0 37.333 -3.83301 70.333 -11.5 99s-19.167 52.5 -34.5 71.5s-34.166 33.333 -56.499 43s-48.166 14.5 -77.499 14.5c-30 0 -56.167 -4.83301 -78.5 -14.5s-41 -24 -56 -43s-26.333 -42.833 -34 -71.5s-11.5 -61.667 -11.5 -99v-42
c0 -37.333 3.83301 -70.166 11.5 -98.499s19 -52 34 -71s33.667 -33.333 56 -43s48.5 -14.5 78.5 -14.5z" />
    <glyph glyph-name="R" unicode="R" horiz-adv-x="640" 
d="M68 0l-0.000976562 685.999h311c50 0 90.833 -8.66699 122.5 -26s54.834 -41.666 69.501 -72.999s22 -67.333 22 -108c0 -44.667 -8.66699 -84.167 -26 -118.5s-43.333 -59.833 -78 -76.5l129 -284h-135l-114 256h-175v-256h-126zM193.999 361.999l172 0.000976562
c33.333 0 58.333 10 75 30s25 47.667 25 83c0 23.333 -3.66699 42.666 -11 57.999s-18.333 26.833 -33 34.5s-33.667 11.5 -57 11.5h-171v-217z" />
    <glyph glyph-name="S" unicode="S" horiz-adv-x="591" 
d="M295 -12c-34.667 0 -67.499 3.83398 -98.499 11.501s-58.333 19.834 -82 36.501s-42.167 38.334 -55.5 65.001s-20 59 -20 97v11.5v8.5h125v-8v-10c0 -23.333 5 -42.833 15 -58.5s25 -27.334 45 -35.001s44 -11.5 72 -11.5c18.667 0 35 1.16699 49 3.5
s26.167 6.16602 36.5 11.499s19 11.5 26 18.5s12 15.167 15 24.5s4.5 19.666 4.5 30.999c0 19.333 -5.16699 35.333 -15.5 48s-24.5 23.5 -42.5 32.5s-38 17 -60 24s-44.833 14.167 -68.5 21.5s-46.667 16.166 -69 26.499s-42.333 22.833 -60 37.5
s-31.834 32.834 -42.501 54.501s-16 47.834 -16 78.501c0 32.667 6.33301 61.167 19 85.5s30.167 44.333 52.5 60s48.333 27.167 78 34.5s61.834 11 96.501 11c33.333 0 64.5 -3.66699 93.5 -11s54.5 -18.833 76.5 -34.5s39.167 -35.834 51.5 -60.501
s18.5 -54.334 18.5 -89.001v-15h-123v12c0 19.333 -4.66699 35.833 -14 49.5s-22.666 24.167 -39.999 31.5s-38.333 11 -63 11s-45.834 -2.83301 -63.501 -8.5s-31.334 -14.167 -41.001 -25.5s-14.5 -25.666 -14.5 -42.999s5.16699 -32 15.5 -44s24.5 -22.167 42.5 -30.5
s38 -16 60 -23s44.833 -14.167 68.5 -21.5s46.667 -16 69 -26s42.5 -22.5 60.5 -37.5s32.167 -33.167 42.5 -54.5s15.5 -47.333 15.5 -78c0 -50.667 -11 -91.5 -33 -122.5s-52.5 -53.667 -91.5 -68s-83.833 -21.5 -134.5 -21.5z" />
    <glyph glyph-name="T" unicode="T" horiz-adv-x="559" 
d="M217 0v578h-196v108h517v-108h-196v-578h-125z" />
    <glyph glyph-name="U" unicode="U" horiz-adv-x="646" 
d="M322 -12c-53.333 0 -99.3311 8.66699 -137.998 26s-68.334 44.833 -89.001 82.5s-31 86.167 -31 145.5v444h125v-445c0 -48.667 11.333 -85.167 34 -109.5s55.667 -36.5 99 -36.5s76.666 12.167 99.999 36.5s35 60.833 35 109.5v445h125v-444
c0 -59.333 -10.5 -107.833 -31.5 -145.5s-50.833 -65.167 -89.5 -82.5s-85 -26 -139 -26z" />
    <glyph glyph-name="V" unicode="V" horiz-adv-x="599" 
d="M224 0l-214.001 685.999h135l131 -442c2.66699 -9.33301 5.33398 -20.166 8.00098 -32.499s5.5 -24.333 8.5 -36s5.5 -22.167 7.5 -31.5h5c2 6 4.16699 13.833 6.5 23.5s4.83301 21 7.5 34s5.66699 26.833 9 41.5l131 443h129l-213 -686h-151z" />
    <glyph glyph-name="W" unicode="W" horiz-adv-x="861" 
d="M173 0l-161.998 686.002h131l88 -405c3.33301 -19.333 6.16602 -36.666 8.49902 -51.999s4.33301 -28.833 6 -40.5s2.83398 -21.5 3.50098 -29.5h6c0.666992 6 1.66699 14.167 3 24.5s3 21.666 5 33.999s4 24 6 35s3.33301 20.5 4 28.5l88 405h152l84 -405
c2.66699 -10.667 5 -23.167 7 -37.5s4 -28.833 6 -43.5s4 -28.334 6 -41.001h5c0.666992 6 1.83398 14 3.50098 24s3.5 20.833 5.5 32.5s4.16699 23.167 6.5 34.5s4.16602 21.666 5.49902 30.999l92 405h118l-167 -686h-141l-91 412
c-2.66699 17.333 -5.33398 34 -8.00098 50s-4.83398 30.333 -6.50098 43s-2.83398 23 -3.50098 31h-5c-0.666992 -8.66699 -2.16699 -20.667 -4.5 -36s-4.66602 -31 -6.99902 -47s-4.83301 -29.667 -7.5 -41l-92 -412h-145z" />
    <glyph glyph-name="X" unicode="X" horiz-adv-x="615" 
d="M7 0l219 360l-198 326h148l133 -229h5l133 229h140l-198 -325l220 -361h-148l-155 264h-5l-154 -264h-140z" />
    <glyph glyph-name="Y" unicode="Y" horiz-adv-x="612" 
d="M243 0v278l-233 408h140l157 -287h5l156 287h133l-232 -408v-278h-126z" />
    <glyph glyph-name="Z" unicode="Z" horiz-adv-x="573" 
d="M27 0v59l330 520h-307v107h484v-59l-329 -520h337v-107h-515z" />
    <glyph glyph-name="bracketleft" unicode="[" horiz-adv-x="330" 
d="M97 -161v896h210v-81h-107v-734h107v-81h-210z" />
    <glyph glyph-name="backslash" unicode="\" horiz-adv-x="286" 
d="M286 -49h-86l-200 784h86z" />
    <glyph glyph-name="bracketright" unicode="]" horiz-adv-x="330" 
d="M233 735v-896h-210v81h107v734h-107v81h210z" />
    <glyph glyph-name="asciicircum" unicode="^" horiz-adv-x="587" 
d="M96 322l144 364h106l145 -364h-101l-97 267l-96 -267h-101z" />
    <glyph glyph-name="underscore" unicode="_" horiz-adv-x="451" 
d="M0 -148v83h451v-83h-451z" />
    <glyph glyph-name="grave" unicode="`" horiz-adv-x="190" 
d="M190 591h-90l-100 129l1 3h115z" />
    <glyph glyph-name="a" unicode="a" horiz-adv-x="506" 
d="M182 -12c-16 0 -32.8271 2.16406 -50.4941 6.49707s-34.167 11.833 -49.5 22.5s-27.5 25.667 -36.5 45s-13.5 43.333 -13.5 72c0 32.667 6.5 60.5 19.5 83.5s32.167 41.833 57.5 56.5s56.166 25.334 92.499 32.001s77.5 10 123.5 10v53
c0 14.667 -2.16699 27.834 -6.5 39.501s-12 20.834 -23 27.501s-26.5 10 -46.5 10c-22 0 -39 -3.33301 -51 -10s-20.167 -14.834 -24.5 -24.501s-6.5 -19.834 -6.5 -30.501v-12h-111c-0.666992 2.66699 -1 5.66699 -1 9v11c0 32.667 8.33301 60.167 25 82.5s39.667 39 69 50
s63 16.5 101 16.5c42 0 77.167 -6 105.5 -18s49.666 -30.167 63.999 -54.5s21.5 -55.833 21.5 -94.5v-253c0 -12 3.16699 -20.667 9.5 -26s13.833 -8 22.5 -8h29v-80c-7.33301 -3.33301 -17.333 -6.66602 -30 -9.99902s-27.334 -5 -44.001 -5s-31.334 2.83301 -44.001 8.5
s-23 13.834 -31 24.501s-13.333 23 -16 37h-6c-10 -13.333 -21.833 -25.5 -35.5 -36.5s-29.834 -19.5 -48.501 -25.5s-40.334 -9 -65.001 -9zM219.006 82.9971c16.667 0 31.499 2.99805 44.499 8.99805s24 14.167 33 24.5s16 23 21 38s7.5 31.5 7.5 49.5v35
c-35.333 0 -66.166 -3.16699 -92.499 -9.5s-46.666 -16.166 -60.999 -29.499s-21.5 -30.666 -21.5 -51.999c0 -13.333 2.5 -24.833 7.5 -34.5s12.667 -17.167 23 -22.5s23.166 -8 38.499 -8z" />
    <glyph glyph-name="b" unicode="b" horiz-adv-x="530" 
d="M311 -12c-32.667 0 -60.999 7.16797 -84.999 21.501s-43 33.833 -57 58.5h-6l-9 -68h-96v723h116v-257h6c8.66699 15.333 19.5 28.5 32.5 39.5s28.333 19.167 46 24.5s37.167 8 58.5 8c36 0 67.167 -9.5 93.5 -28.5s46.666 -48.5 60.999 -88.5s21.5 -92 21.5 -156
c0 -64.667 -7.16699 -117.334 -21.5 -158.001s-35 -70.667 -62 -90s-59.833 -29 -98.5 -29zM274.001 89.001c24.667 0 44.334 5.66602 59.001 16.999s25.167 28.666 31.5 51.999s9.5 53.333 9.5 90v27c0 37.333 -3.16699 67.833 -9.5 91.5s-16.833 41.167 -31.5 52.5
s-34.334 17 -59.001 17c-17.333 0 -32.333 -3.5 -45 -10.5s-23 -17.167 -31 -30.5s-14 -30.166 -18 -50.499s-6 -43.5 -6 -69.5v-27c0 -34.667 3.33301 -63.667 10 -87s17.5 -41.166 32.5 -53.499s34.167 -18.5 57.5 -18.5z" />
    <glyph glyph-name="c" unicode="c" horiz-adv-x="493" 
d="M254 -12c-49.333 0 -90.1631 9.83105 -122.496 29.498s-56.333 49.834 -72 90.501s-23.5 92.334 -23.5 155.001c0 64 8.16699 116.333 24.5 157s40.666 70.5 72.999 89.5s72.833 28.5 121.5 28.5c33.333 0 62.5 -4.16699 87.5 -12.5s46 -21.333 63 -39
s29.833 -39.667 38.5 -66s13 -57.5 13 -93.5h-117c0 27.333 -2.83301 49.5 -8.5 66.5s-14.834 29.667 -27.501 38s-29.334 12.5 -50.001 12.5c-22.667 0 -41.334 -5.83301 -56.001 -17.5s-25.5 -29.5 -32.5 -53.5s-10.5 -55.667 -10.5 -95v-31
c0 -33.333 3.16699 -62.5 9.5 -87.5s17 -44 32 -57s35.167 -19.5 60.5 -19.5c20 0 36.333 4 49 12s22.334 20.667 29.001 38s10 39.333 10 66h112c0 -32.667 -4.33301 -62 -13 -88s-21.334 -48.167 -38.001 -66.5s-37.667 -32.333 -63 -42s-55 -14.5 -89 -14.5z" />
    <glyph glyph-name="d" unicode="d" horiz-adv-x="530" 
d="M218 -12c-38 0 -70.665 9.66602 -97.998 28.999s-48.166 49.333 -62.499 90s-21.5 93.334 -21.5 158.001c0 64 7.16699 116 21.5 156s34.833 69.5 61.5 88.5s58 28.5 94 28.5c21.333 0 40.666 -2.66699 57.999 -8s32.666 -13.5 45.999 -24.5s24.333 -24.167 33 -39.5h6
v257h115v-723h-95l-9 68h-6c-13.333 -24.667 -32.333 -44.167 -57 -58.5s-53.334 -21.5 -86.001 -21.5zM256.002 88.999c23.333 0 42.332 6.16797 56.999 18.501s25.5 30.166 32.5 53.499s10.5 52.333 10.5 87v27c0 26 -2 49.167 -6 69.5s-10.167 37.166 -18.5 50.499
s-18.833 23.5 -31.5 30.5s-27.667 10.5 -45 10.5c-24 0 -43.333 -5.66699 -58 -17s-25.334 -28.833 -32.001 -52.5s-10 -54.167 -10 -91.5v-27c0 -36.667 3.33301 -66.667 10 -90s17.334 -40.666 32.001 -51.999s34.334 -17 59.001 -17z" />
    <glyph glyph-name="e" unicode="e" horiz-adv-x="507" 
d="M261 -12c-50.667 0 -92.667 9.66797 -126 29.001s-58.166 49.333 -74.499 90s-24.5 92.667 -24.5 156c0 64.667 8.16699 117.167 24.5 157.5s41.333 70 75 89s76.167 28.5 127.5 28.5c46 0 84.5 -8.83301 115.5 -26.5s54.167 -45.834 69.5 -84.501s23 -89.667 23 -153
v-38h-316c0.666992 -34.667 4.5 -63.667 11.5 -87s18.167 -40.5 33.5 -51.5s36 -16.5 62 -16.5c13.333 0 25.833 2 37.5 6s21.667 10.167 30 18.5s14.833 19 19.5 32s7.33398 28.5 8.00098 46.5h114c-0.666992 -33.333 -6 -62.333 -16 -87s-24.333 -45 -43 -61
s-40.834 -28 -66.501 -36s-53.834 -12 -84.501 -12zM156 314.001l195.001 -0.00195312c0 24 -1.83301 44.167 -5.5 60.5s-9.33398 29.833 -17.001 40.5s-17 18.334 -28 23.001s-23.833 7 -38.5 7c-23.333 0 -42.5 -4.83301 -57.5 -14.5s-26.333 -24.167 -34 -43.5
s-12.5 -43.666 -14.5 -72.999z" />
    <glyph glyph-name="f" unicode="f" horiz-adv-x="284" 
d="M80 0l-0.00195312 431h-66v95h66v73c0 26 4 49 12 69s21 35.667 39 47s42 17 72 17c8 0 16.833 -0.666992 26.5 -2s18.834 -3 27.501 -5s16 -4.33301 22 -7v-81h-44c-13.333 0 -23.166 -3.83301 -29.499 -11.5s-9.5 -18.167 -9.5 -31.5v-68h83v-95h-83v-431h-116z" />
    <glyph glyph-name="g" unicode="g" horiz-adv-x="521" 
d="M145 -187c-24 0 -46.167 5.16992 -66.5 15.5029s-36.5 25 -48.5 44s-18 41.5 -18 67.5c0 28.667 7.83301 52.167 23.5 70.5s33.834 32.166 54.501 41.499c-15.333 8.66699 -27.666 20 -36.999 34s-14 30 -14 48c0 24 8.16699 43.833 24.5 59.5s36.5 26.167 60.5 31.5
c-22.667 15.333 -40.167 34.833 -52.5 58.5s-18.5 50.167 -18.5 79.5c0 35.333 8 66.166 24 92.499s39.167 46.666 69.5 60.999s66.833 21.5 109.5 21.5c17.333 0 34 -1.33301 50 -4s30.333 -6.33398 43 -11.001c19.333 12 33.166 26.5 41.499 43.5
s13.166 33.167 14.499 48.5h106c0 -24 -4.16699 -45 -12.5 -63s-19.833 -32.5 -34.5 -43.5s-31.667 -19.167 -51 -24.5c15.333 -15.333 27 -33.166 35 -53.499s12 -42.5 12 -66.5c0 -35.333 -7.5 -66.166 -22.5 -92.499s-37 -46.833 -66 -61.5s-64.833 -22 -107.5 -22h-68
c-14 0 -25 -3.16699 -33 -9.5s-12 -15.5 -12 -27.5c0 -10.667 4 -19.334 12 -26.001s18.667 -10 32 -10h184c40 0 72 -13.333 96 -40s36 -60 36 -100c0 -30 -7.16699 -57.167 -21.5 -81.5s-34.333 -43.833 -60 -58.5s-56.5 -22 -92.5 -22h-192zM185 -102.997
l145.998 0.000976562c12.667 0 23.834 2.5 33.501 7.5s17.334 12.167 23.001 21.5s8.5 19.666 8.5 30.999c0 19.333 -5.33301 34.166 -16 44.499s-24.667 15.5 -42 15.5h-153c-16.667 0 -30.5 -5.66699 -41.5 -17s-16.5 -25.666 -16.5 -42.999c0 -18 5.33301 -32.5 16 -43.5
s24.667 -16.5 42 -16.5zM256.998 269.004c30 0 52.334 8.16699 67.001 24.5s22 39.5 22 69.5c0 30.667 -7.33301 54 -22 70s-37 24 -67 24s-52.333 -8 -67 -24s-22 -39.333 -22 -70c0 -20 3.16699 -37 9.5 -51s16.166 -24.667 29.499 -32s30 -11 50 -11z" />
    <glyph glyph-name="h" unicode="h" horiz-adv-x="522" 
d="M58 0l0.000976562 723.001h116v-255h6c10 14.667 21.833 27.167 35.5 37.5s29.167 18.333 46.5 24s36.666 8.5 57.999 8.5c30 0 56 -5.5 78 -16.5s39.167 -28.667 51.5 -53s18.5 -56.833 18.5 -97.5v-371h-116v347c0 16 -1.66699 29.333 -5 40s-8.33301 19.667 -15 27
s-15 12.666 -25 15.999s-21.333 5 -34 5c-18.667 0 -35.5 -5.16699 -50.5 -15.5s-26.833 -25 -35.5 -44s-13 -41.833 -13 -68.5v-307h-116z" />
    <glyph glyph-name="i" unicode="i" horiz-adv-x="233" 
d="M58 611v112h116v-112h-116zM58 0v526h116v-526h-116z" />
    <glyph glyph-name="j" unicode="j" horiz-adv-x="230" 
d="M58 611v112h116v-112h-116zM55 -187c-8 0 -17.168 0.667969 -27.501 2.00098s-20.333 3.16602 -30 5.49902s-17.5 4.5 -23.5 6.5v82h47c13.333 0 22.833 3.66699 28.5 11s8.5 19 8.5 35v571h116v-587c0 -24 -3.83301 -45.5 -11.5 -64.5s-20.167 -34 -37.5 -45
s-40.666 -16.5 -69.999 -16.5z" />
    <glyph glyph-name="k" unicode="k" horiz-adv-x="492" 
d="M58 0v723h116v-418l167 221h131l-159 -204l168 -322h-130l-112 228l-65 -71v-157h-116z" />
    <glyph glyph-name="l" unicode="l" horiz-adv-x="232" 
d="M58 0v723h116v-723h-116z" />
    <glyph glyph-name="m" unicode="m" horiz-adv-x="775" 
d="M58 0l0.00292969 526.001h97l10 -68h6c10 16.667 21.667 31 35 43s28.5 21.167 45.5 27.5s35.833 9.5 56.5 9.5c29.333 0 54.666 -6.16699 75.999 -18.5s37.333 -32.833 48 -61.5h6c10.667 16.667 22.667 31 36 43s29 21.167 47 27.5s37.333 9.5 58 9.5
c29.333 0 54.5 -5.33301 75.5 -16s37.333 -27.834 49 -51.501s17.5 -55.5 17.5 -95.5v-375h-115v349c0 15.333 -1.5 28.5 -4.5 39.5s-7.33301 19.833 -13 26.5s-13 11.667 -22 15s-18.833 5 -29.5 5c-17.333 0 -32.666 -5.16699 -45.999 -15.5s-23.833 -25 -31.5 -44
s-11.5 -41.833 -11.5 -68.5v-307h-115v349c0 15.333 -1.66699 28.5 -5 39.5s-7.83301 19.833 -13.5 26.5s-12.834 11.667 -21.501 15s-18.334 5 -29.001 5c-17.333 0 -32.833 -5.16699 -46.5 -15.5s-24.334 -25 -32.001 -44s-11.5 -41.833 -11.5 -68.5v-307h-116z" />
    <glyph glyph-name="n" unicode="n" horiz-adv-x="522" 
d="M58 0v526.001h97l10 -68h6c10.667 16.667 23.167 31 37.5 43s30.833 21.167 49.5 27.5s39 9.5 61 9.5c30.667 0 57 -5.5 79 -16.5s39.167 -28.667 51.5 -53s18.5 -56.833 18.5 -97.5v-371h-116v347c0 16 -1.66699 29.333 -5 40s-8.33301 19.667 -15 27
s-15 12.666 -25 15.999s-21.333 5 -34 5c-18.667 0 -35.5 -5.16699 -50.5 -15.5s-26.833 -25 -35.5 -44s-13 -41.833 -13 -68.5v-307h-116z" />
    <glyph glyph-name="o" unicode="o" horiz-adv-x="533" 
d="M266 -12c-50.667 0 -93.167 9.66699 -127.5 29s-60 49.333 -77 90s-25.5 92.667 -25.5 156c0 64 8.5 116.167 25.5 156.5s42.667 70.166 77 89.499s76.833 29 127.5 29c52 0 95 -9.66699 129 -29s59.5 -49.166 76.5 -89.499s25.5 -92.5 25.5 -156.5
c0 -63.333 -8.5 -115.333 -25.5 -156s-42.5 -70.667 -76.5 -90s-77 -29 -129 -29zM266 83c27.333 0 49 5.83301 65 17.5s27.833 29.667 35.5 54s11.5 55.5 11.5 93.5v30c0 38 -3.83301 69.167 -11.5 93.5s-19.5 42.333 -35.5 54s-37.667 17.5 -65 17.5
c-26 0 -47.167 -5.83301 -63.5 -17.5s-28.333 -29.667 -36 -54s-11.5 -55.5 -11.5 -93.5v-30c0 -38 3.83301 -69.167 11.5 -93.5s19.667 -42.333 36 -54s37.5 -17.5 63.5 -17.5z" />
    <glyph glyph-name="p" unicode="p" horiz-adv-x="530" 
d="M58 -177l-0.000976562 703.001h96l9 -68h6c14 25.333 33 45 57 59s52.333 21 85 21c38.667 0 71.5 -9.5 98.5 -28.5s47.667 -48.833 62 -89.5s21.5 -93.667 21.5 -159c0 -62.667 -7.16699 -114.334 -21.5 -155.001s-34.666 -70.5 -60.999 -89.5s-57.5 -28.5 -93.5 -28.5
c-21.333 0 -40.833 2.66699 -58.5 8s-33 13.5 -46 24.5s-23.833 24.167 -32.5 39.5h-6v-237h-116zM273.999 91.001c24.667 0 44.334 5.5 59.001 16.5s25.167 28.333 31.5 52s9.5 53.834 9.5 90.501v27c0 36.667 -3.16699 67 -9.5 91s-16.833 41.667 -31.5 53
s-34.334 17 -59.001 17c-23.333 0 -42.5 -6.16699 -57.5 -18.5s-25.833 -30.5 -32.5 -54.5s-10 -53.333 -10 -88v-26c0 -26 2 -49 6 -69s10 -36.833 18 -50.5s18.333 -23.834 31 -30.501s27.667 -10 45 -10z" />
    <glyph glyph-name="q" unicode="q" horiz-adv-x="530" 
d="M356 -177l-0.000976562 236.999h-6c-8.66699 -15.333 -19.667 -28.5 -33 -39.5s-28.666 -19.167 -45.999 -24.5s-36.666 -8 -57.999 -8c-36 0 -67.333 9.5 -94 28.5s-47.167 48.833 -61.5 89.5s-21.5 92.334 -21.5 155.001c0 65.333 7.16699 118.333 21.5 159
s35.166 70.5 62.499 89.5s60.333 28.5 99 28.5c32 0 60.333 -7 85 -21s43.667 -33.667 57 -59h6l9 68h95v-703h-115zM254.999 90.999c18 0 33.334 3.33301 46.001 10s23 16.834 31 30.501s14 30.5 18 50.5s6 43 6 69v26c0 34.667 -3.5 64 -10.5 88
s-17.833 42.167 -32.5 54.5s-33.667 18.5 -57 18.5c-24.667 0 -44.334 -5.66699 -59.001 -17s-25.334 -29 -32.001 -53s-10 -54.333 -10 -91v-27c0 -36.667 3.33301 -66.834 10 -90.501s17.334 -41 32.001 -52s34 -16.5 58 -16.5z" />
    <glyph glyph-name="r" unicode="r" horiz-adv-x="325" 
d="M58 0l-0.00488281 526.001h97l9 -79h6c6.66699 17.333 14.5 32.833 23.5 46.5s20.333 24.5 34 32.5s29.834 12 48.501 12c8.66699 0 16.834 -0.666992 24.501 -2s13.834 -3 18.501 -5v-114h-37c-17.333 0 -32.666 -2.66699 -45.999 -8s-24.666 -13.833 -33.999 -25.5
s-16.333 -26.334 -21 -44.001s-7 -38.5 -7 -62.5v-277h-116z" />
    <glyph glyph-name="s" unicode="s" horiz-adv-x="478" 
d="M237 -12c-35.333 0 -65.8311 4.00098 -91.498 12.001s-46.834 19.167 -63.501 33.5s-29 31.166 -37 50.499s-12 40.333 -12 63c0 3.33301 0.166992 6.66602 0.5 9.99902s0.5 6.33301 0.5 9h111v-7v-6c0.666992 -16.667 5.16699 -30.667 13.5 -42
s19.666 -19.666 33.999 -24.999s29.833 -8 46.5 -8s31.667 2.16699 45 6.5s24 11.166 32 20.499s12 21 12 35c0 17.333 -5.66699 30.833 -17 40.5s-26.333 17.667 -45 24s-38.667 12.833 -60 19.5c-18.667 6 -37.667 12.833 -57 20.5s-36.833 17.167 -52.5 28.5
s-28.334 26 -38.001 44s-14.5 40.667 -14.5 68c0 25.333 5 47.5 15 66.5s24 34.833 42 47.5s39 22.334 63 29.001s50.333 10 79 10c28 0 53.5 -3.16699 76.5 -9.5s42.833 -15.5 59.5 -27.5s29.5 -26.667 38.5 -44s13.5 -36.333 13.5 -57
c0 -5.33301 -0.166992 -10.5 -0.5 -15.5s-0.5 -8.83301 -0.5 -11.5h-110v13c0 13.333 -3.33301 24.5 -10 33.5s-16 16 -28 21s-26.667 7.5 -44 7.5c-13.333 0 -25 -1.33301 -35 -4s-18.333 -6.5 -25 -11.5s-11.667 -10.833 -15 -17.5s-5 -14 -5 -22
c0 -13.333 4.66699 -24.166 14 -32.499s21.666 -15.333 36.999 -21s32 -11.5 50 -17.5c20.667 -6 41.834 -12.667 63.501 -20s41.834 -16.5 60.501 -27.5s33.667 -25.833 45 -44.5s17 -43.334 17 -74.001c0 -30 -5.16699 -55.833 -15.5 -77.5s-24.833 -39 -43.5 -52
s-40.667 -22.667 -66 -29s-53 -9.5 -83 -9.5z" />
    <glyph glyph-name="t" unicode="t" horiz-adv-x="286" 
d="M183 -12c-29.333 0 -52.332 6 -68.999 18s-28.334 27.667 -35.001 47s-10 40 -10 62v316h-55v95h57l21 149h92v-149h80v-95h-80v-304c0 -14 3 -24.667 9 -32s15.667 -11 29 -11h42v-80c-7.33301 -2.66699 -15.666 -5.16699 -24.999 -7.5s-18.833 -4.33301 -28.5 -6
s-18.834 -2.5 -27.501 -2.5z" />
    <glyph glyph-name="u" unicode="u" horiz-adv-x="522" 
d="M203 -12c-45.333 0 -81.501 12.833 -108.501 38.5s-40.5 68.5 -40.5 128.5v371h116v-347c0 -15.333 1.66699 -28.5 5 -39.5s8.33301 -20 15 -27s14.834 -12.167 24.501 -15.5s20.834 -5 33.501 -5c19.333 0 36.5 5.16699 51.5 15.5s26.833 25.166 35.5 44.499
s13 42 13 68v306h115v-526h-96l-9 69h-6c-10.667 -16.667 -23.167 -31.167 -37.5 -43.5s-30.833 -21.666 -49.5 -27.999s-39.334 -9.5 -62.001 -9.5z" />
    <glyph glyph-name="v" unicode="v" horiz-adv-x="467" 
d="M168 0l-163.001 526.001h121l72 -254c3.33301 -10 7 -23.833 11 -41.5s8.33301 -35.834 13 -54.501s8.33398 -35.667 11.001 -51h6c2.66699 10 6 24.167 10 42.5s8.16699 37 12.5 56s8.5 35.167 12.5 48.5l71 254h117l-164 -526h-130z" />
    <glyph glyph-name="w" unicode="w" horiz-adv-x="687" 
d="M141 0l-136.999 525.997h119l61 -278c3.33301 -13.333 6.16602 -27.166 8.49902 -41.499s4.33301 -27.166 6 -38.499s2.83398 -19.666 3.50098 -24.999h7c2 12 4.16699 25.167 6.5 39.5s4.5 27.833 6.5 40.5s3.33301 21.667 4 27l58 276h126l59 -277
c2.66699 -9.33301 5 -20.666 7 -33.999s4.16699 -26.333 6.5 -39s4.16602 -23.667 5.49902 -33h6c1.33301 9.33301 3 20.333 5 33s4.16699 25.334 6.5 38.001s4.5 23.667 6.5 33l61 279h110l-137 -526h-124l-52 255c-2.66699 12.667 -5.5 26.667 -8.5 42
s-5.66699 30.666 -8 45.999s-4.5 28.666 -6.5 39.999h-6c-0.666992 -6.66699 -2 -16.5 -4 -29.5s-4.5 -27.833 -7.5 -44.5s-6.5 -34.667 -10.5 -54l-54 -255h-124z" />
    <glyph glyph-name="x" unicode="x" horiz-adv-x="490" 
d="M9 0l164 272l-152 254h136l90 -166h5l91 166h129l-153 -253l162 -273h-135l-101 185h-6l-101 -185h-129z" />
    <glyph glyph-name="y" unicode="y" horiz-adv-x="467" 
d="M120 -187c-20.667 0 -38.332 1.66797 -52.999 5.00098s-24 5.66602 -28 6.99902v84h47c14.667 0 28.167 3.5 40.5 10.5s23.166 17.5 32.499 31.5s16.333 30.333 21 49l-174 526h121l81 -264c3.33301 -10.667 6.83301 -23.667 10.5 -39s7.5 -31 11.5 -47
s7.33301 -30.667 10 -44h6c2 10 4.33301 21.167 7 33.5s5.5 25 8.5 38s6.16699 25.5 9.5 37.5s6 22.667 8 32l67 253h116l-153 -508c-8.66699 -28.667 -18.5 -55.5 -29.5 -80.5s-23.667 -46.667 -38 -65s-31.333 -32.833 -51 -43.5s-43.167 -16 -70.5 -16z" />
    <glyph glyph-name="z" unicode="z" horiz-adv-x="457" 
d="M22 0v54l237 377h-222v95h383v-52l-238 -378h248v-96h-408z" />
    <glyph glyph-name="braceleft" unicode="{" horiz-adv-x="376" 
d="M326 -159c-30 0 -56.999 1.83398 -80.999 5.50098s-44.667 10.334 -62 20.001s-30.666 24 -39.999 43s-14 43.5 -14 73.5v202c0 15.333 -4.33301 27.166 -13 35.499s-19.667 14.5 -33 18.5s-27 6 -41 6v86c14 0 27.667 2 41 6s24.333 10.333 33 19s13 20.334 13 35.001
v202c0 30 4.66699 54.5 14 73.5s22.666 33.333 39.999 43s38 16.334 62 20.001s51 5.5 81 5.5v-70c-14.667 0 -29 -1.83301 -43 -5.5s-25.667 -10.5 -35 -20.5s-14.333 -24.333 -15 -43l-7 -196c-0.666992 -33.333 -8.83398 -59.5 -24.501 -78.5s-42.167 -28.5 -79.5 -28.5
v-9c24.667 -0.666992 44.5 -5.33398 59.5 -14.001s26 -20.834 33 -36.501s10.833 -34.834 11.5 -57.501l7 -196c0.666992 -18 5.66699 -32.167 15 -42.5s21 -17.333 35 -21s28.333 -5.5 43 -5.5v-70z" />
    <glyph glyph-name="bar" unicode="|" horiz-adv-x="227" 
d="M68 -192v915h90v-915h-90z" />
    <glyph glyph-name="braceright" unicode="}" horiz-adv-x="376" 
d="M50 735c29.333 0 56.165 -1.83203 80.498 -5.49902s45.166 -10.334 62.499 -20.001s30.666 -24 39.999 -43s14 -43.5 14 -73.5v-202c0 -14.667 4.33301 -26.334 13 -35.001s19.834 -15 33.501 -19s27.167 -6 40.5 -6v-86c-13.333 0 -26.833 -2 -40.5 -6
s-24.834 -10.167 -33.501 -18.5s-13 -20.166 -13 -35.499v-202c0 -30 -4.66699 -54.5 -14 -73.5s-22.666 -33.333 -39.999 -43s-38.166 -16.334 -62.499 -20.001s-51.166 -5.5 -80.499 -5.5v70c14.667 0 28.834 1.83301 42.501 5.5s25.167 10.667 34.5 21
s14.333 24.5 15 42.5l7 196c1.33301 33.333 9.83301 59.5 25.5 78.5s42.167 28.5 79.5 28.5v9c-24.667 0.666992 -44.5 5.33398 -59.5 14.001s-26.167 21 -33.5 37s-11.333 35 -12 57l-7 196c-0.666992 18.667 -5.5 33 -14.5 43s-20.333 16.833 -34 20.5
s-28.167 5.5 -43.5 5.5v70z" />
    <glyph glyph-name="asciitilde" unicode="~" horiz-adv-x="587" 
d="M66 211l0.000976562 104c6.66699 9.33301 16.334 19 29.001 29s27.667 18.333 45 25s36.666 10 57.999 10c17.333 0 33.666 -2.5 48.999 -7.5s30.5 -11.167 45.5 -18.5s30.5 -13.5 46.5 -18.5s33 -7.5 51 -7.5c18.667 0 36.5 3.33301 53.5 10s32.167 15.167 45.5 25.5
s24 19.833 32 28.5v-104c-6 -8.66699 -15.5 -18.167 -28.5 -28.5s-28 -18.833 -45 -25.5s-36.167 -10 -57.5 -10c-17.333 0 -33.833 2.5 -49.5 7.5s-31 11.167 -46 18.5s-30.5 13.5 -46.5 18.5s-32.667 7.5 -50 7.5c-19.333 0 -37.5 -3.33301 -54.5 -10
s-32.167 -15 -45.5 -25s-24 -19.667 -32 -29z" />
    <glyph glyph-name="uni00A0" unicode="&#xa0;" horiz-adv-x="175" 
 />
    <glyph glyph-name="exclamdown" unicode="&#xa1;" horiz-adv-x="278" 
d="M72 -161l31 492h72l31 -492h-134zM80 396v130h118v-130h-118z" />
    <glyph glyph-name="cent" unicode="&#xa2;" horiz-adv-x="516" 
d="M238 -50v779h50v-779h-50zM264 68c-50 0 -90.999 9.83008 -122.999 29.4971s-55.833 49.834 -71.5 90.501s-23.5 92.334 -23.5 155.001c0 64.667 8 117.167 24 157.5s40.333 70.166 73 89.499s73.334 29 122.001 29c33.333 0 62.5 -4.33301 87.5 -13s46 -21.667 63 -39
s29.667 -39.333 38 -66s12.5 -57.667 12.5 -93h-116c0 26.667 -2.83301 48.5 -8.5 65.5s-14.834 29.667 -27.501 38s-29.334 12.5 -50.001 12.5c-22.667 0 -41.334 -5.66699 -56.001 -17s-25.667 -29.166 -33 -53.499s-11 -56.166 -11 -95.499v-31
c0 -33.333 3.33301 -62.333 10 -87s17.5 -43.667 32.5 -57s34.833 -20 59.5 -20c20 0 36.5 4 49.5 12s22.833 20.667 29.5 38s10 39.333 10 66h111c0 -32.667 -4.16699 -62 -12.5 -88s-21 -48.167 -38 -66.5s-38.167 -32.333 -63.5 -42s-54.666 -14.5 -87.999 -14.5z" />
    <glyph glyph-name="sterling" unicode="&#xa3;" horiz-adv-x="525" 
d="M37 0l-0.000976562 97.9971h61v194h-74v95h74v117c0 42.667 7.33301 78.334 22 107.001s36.5 50.334 65.5 65.001s64.167 22 105.5 22c40.667 0 75.334 -7 104.001 -21s50.667 -34.667 66 -62s23 -61.666 23 -102.999v-20h-116v26c0 18 -3.16699 33.333 -9.5 46
s-15 22.167 -26 28.5s-24.833 9.5 -41.5 9.5c-16 0 -29.667 -3 -41 -9s-20 -15 -26 -27s-9 -27 -9 -45v-134h132v-95h-133l-11 -194h272v-98h-438z" />
    <glyph glyph-name="currency" unicode="&#xa4;" horiz-adv-x="589" 
d="M89 96l-47.002 47.002l55 56c-16.667 20.667 -29.167 43.834 -37.5 69.501s-12.5 52.5 -12.5 80.5c0 27.333 4.16699 54.166 12.5 80.499s20.833 49.166 37.5 68.499l-56 54l50 50l57 -56c18.667 16 40.834 28.333 66.501 37s51.834 13 78.501 13
c27.333 0 53.833 -4.33301 79.5 -13s47.5 -21 65.5 -37l57 56l50 -50l-55 -54c16.667 -18.667 29 -41.334 37 -68.001s12 -53.667 12 -81s-4 -54 -12 -80s-20.333 -49.333 -37 -70l54 -56l-47 -47l-56 58c-19.333 -18 -41.833 -31.5 -67.5 -40.5s-52.5 -13.5 -80.5 -13.5
c-27.333 0 -54 4.33301 -80 13s-48.667 22 -68 40zM292.998 179.002c30.667 0 58.334 7.83105 83.001 23.498s44.167 36.334 58.5 62.001s21.5 53.834 21.5 84.501c0 30 -7.16699 57.667 -21.5 83s-33.833 45.833 -58.5 61.5s-52.334 23.5 -83.001 23.5
c-30 0 -57.333 -7.83301 -82 -23.5s-44.334 -36.167 -59.001 -61.5s-22 -53 -22 -83c0 -30.667 7.33301 -59 22 -85s34.334 -46.667 59.001 -62s52 -23 82 -23z" />
    <glyph glyph-name="yen" unicode="&#xa5;" horiz-adv-x="541" 
d="M212 0l0.00195312 154.002h-177v73h177v70h-177v72h141c-4.66699 9.33301 -10.834 20.666 -18.501 33.999s-14.167 25 -19.5 35l-128 248h134l96 -207c4.66699 -8.66699 9 -17.667 13 -27s7.66699 -18 11 -26s6.33301 -15 9 -21h5c2.66699 6 5.66699 13.167 9 21.5
s7 17.333 11 27s8 18.5 12 26.5l94 206h126l-121 -242c-7.33301 -12.667 -14.833 -25.834 -22.5 -39.501s-13.834 -25.5 -18.501 -35.5h139v-72h-175v-70h175v-73h-175v-154h-120z" />
    <glyph glyph-name="brokenbar" unicode="&#xa6;" horiz-adv-x="227" 
d="M68 345v378h90v-378h-90zM68 -192v378h90v-378h-90z" />
    <glyph glyph-name="section" unicode="&#xa7;" horiz-adv-x="520" 
d="M256 -182c-30 0 -56.833 3.33203 -80.5 9.99902s-44 16.334 -61 29.001s-30 27.834 -39 45.501s-13.5 36.834 -13.5 57.501c0 4.66699 0.166992 9.16699 0.5 13.5s0.5 7.5 0.5 9.5h115v-7c0 -9.33301 1.5 -18.166 4.5 -26.499s7.83301 -15.5 14.5 -21.5
s15.334 -10.667 26.001 -14s23.334 -5 38.001 -5c19.333 0 35.166 3 47.499 9s21.5 14 27.5 24s9 21 9 33c0 17.333 -5.5 32 -16.5 44s-25.333 22.833 -43 32.5s-37 18.834 -58 27.501s-42 18.334 -63 29.001s-40.333 23.334 -58 38.001s-32 32.167 -43 52.5
s-16.5 44.833 -16.5 73.5c0 20 3.33301 38.5 10 55.5s15.834 32.333 27.501 46s25.5 25.834 41.5 36.501c-19.333 14 -35.166 31.5 -47.499 52.5s-18.5 46.833 -18.5 77.5c0 26 5 48.833 15 68.5s24.167 36.167 42.5 49.5s40 23.333 65 30s52.5 10 82.5 10
s57 -3.33301 81 -10s44.333 -16.334 61 -29.001s29.5 -27.834 38.5 -45.501s13.5 -36.834 13.5 -57.501c0 -4 -0.166992 -8.33301 -0.5 -13s-0.5 -8 -0.5 -10h-115v8c0 8.66699 -1.5 17 -4.5 25s-7.83301 15 -14.5 21s-15.334 10.833 -26.001 14.5s-23.334 5.5 -38.001 5.5
c-19.333 0 -35.166 -3 -47.499 -9s-21.5 -14 -27.5 -24s-9 -21 -9 -33c0 -17.333 5.5 -32 16.5 -44s25.333 -22.833 43 -32.5s37 -18.834 58 -27.501s42 -18.334 63 -29.001s40.333 -23.334 58 -38.001s32 -32.167 43 -52.5s16.5 -44.833 16.5 -73.5
c0 -20 -3.33301 -38.5 -10 -55.5s-15.834 -32.333 -27.501 -46s-25.5 -25.834 -41.5 -36.501c19.333 -14 35.166 -31.5 47.499 -52.5s18.5 -46.833 18.5 -77.5c0 -26 -5 -48.833 -15 -68.5s-24.167 -36.167 -42.5 -49.5s-40 -23.333 -65 -30s-52.5 -10 -82.5 -10z
M321 150.999c12.667 8 22.833 18.001 30.5 30.001s11.5 25.333 11.5 40c0 20.667 -4.66699 38 -14 52s-22 26.167 -38 36.5s-33.5 19.666 -52.5 27.999s-38.833 17.166 -59.5 26.499c-12 -8 -21.833 -18 -29.5 -30s-11.5 -25.333 -11.5 -40c0 -20 4.66699 -37.333 14 -52
s21.833 -27.167 37.5 -37.5s33.167 -19.666 52.5 -27.999s39 -16.833 59 -25.5z" />
    <glyph glyph-name="dieresis" unicode="&#xa8;" horiz-adv-x="275" 
d="M0 616v107h96v-107h-96zM178 616v107h97v-107h-97z" />
    <glyph glyph-name="copyright" unicode="&#xa9;" horiz-adv-x="697" 
d="M348 -12c-46 0 -88.333 8.33301 -127 25s-72.167 40.5 -100.5 71.5s-50.333 68.5 -66 112.5s-23.5 92.667 -23.5 146c0 54 7.83301 102.833 23.5 146.5s37.667 81 66 112s61.833 54.833 100.5 71.5s81 25 127 25s88.333 -8.33301 127 -25s72.334 -40.5 101.001 -71.5
s50.834 -68.333 66.501 -112s23.5 -92.5 23.5 -146.5c0 -53.333 -7.83301 -102 -23.5 -146s-37.834 -81.5 -66.501 -112.5s-62.334 -54.833 -101.001 -71.5s-81 -25 -127 -25zM348 131c-36 0 -65.8311 7.33496 -89.498 22.002s-41.334 37.667 -53.001 69
s-17.5 71.333 -17.5 120c0 49.333 5.83301 89.5 17.5 120.5s29.334 53.833 53.001 68.5s53.834 22 90.501 22c32.667 0 59.667 -5.83301 81 -17.5s37.166 -29.667 47.499 -54s15.5 -55.5 15.5 -93.5h-75c0 24 -2.16699 43.333 -6.5 58s-11.5 25.5 -21.5 32.5
s-24 10.5 -42 10.5c-28.667 0 -49.834 -10.667 -63.501 -32s-20.5 -54 -20.5 -98v-33c0 -28 3 -51.833 9 -71.5s15.167 -34.5 27.5 -44.5s28.166 -15 47.499 -15c17.333 0 31.5 3.66699 42.5 11s18.833 18.666 23.5 33.999s7 34 7 56h72
c0 -32.667 -5.16699 -61.334 -15.5 -86.001s-26 -44 -47 -58s-48.5 -21 -82.5 -21zM348.002 40.002c51.333 0 96.666 12.333 135.999 37s70.333 59.667 93 105s34 99 34 161c0 62.667 -11.333 116.5 -34 161.5s-53.667 79.667 -93 104s-84.666 36.5 -135.999 36.5
c-50.667 0 -95.834 -12.167 -135.501 -36.5s-70.834 -59 -93.501 -104s-34 -98.833 -34 -161.5c0 -62 11.333 -115.667 34 -161s53.834 -80.333 93.501 -105s84.834 -37 135.501 -37z" />
    <glyph glyph-name="ordfeminine" unicode="&#xaa;" horiz-adv-x="360" 
d="M130 330c-13.333 0 -27.3369 2.83496 -42.0039 8.50195s-27.167 15.667 -37.5 30s-15.5 34.166 -15.5 59.499c0 23.333 4.5 43 13.5 59s21.5 28.5 37.5 37.5s35.167 15.5 57.5 19.5s46.833 6 73.5 6v36c0 10 -1.33301 18.667 -4 26s-7.16699 13.166 -13.5 17.499
s-15.833 6.5 -28.5 6.5c-12 0 -21.667 -2.16699 -29 -6.5s-12.333 -9.5 -15 -15.5s-4 -12.667 -4 -20v-10h-73c-0.666992 1.33301 -1 3.5 -1 6.5v6.5c0 32.667 11.333 57.667 34 75s52.334 26 89.001 26c26 0 47.833 -4 65.5 -12s31.167 -20 40.5 -36s14 -35.667 14 -59
v-175c0 -8 2 -13.833 6 -17.5s8.33301 -5.5 13 -5.5h19v-52c-5.33301 -2 -12 -4 -20 -6s-17 -3 -27 -3c-15.333 0 -28.166 4 -38.499 12s-17.166 19 -20.499 33h-4c-9.33301 -14 -21.166 -25.333 -35.499 -34s-32.5 -13 -54.5 -13zM152.996 392.002
c14 0 25.666 3.66699 34.999 11s16.5 17.333 21.5 30s7.5 26.667 7.5 42v22c-20 0 -37.833 -1.83301 -53.5 -5.5s-28 -10 -37 -19s-13.5 -21.167 -13.5 -36.5c0 -8 1.33301 -15.333 4 -22s6.83398 -12 12.501 -16s13.5 -6 23.5 -6z" />
    <glyph glyph-name="guillemotleft" unicode="&#xab;" horiz-adv-x="520" 
d="M189 125l-134 201l134 200h88l-109 -200l109 -201h-88zM386 125l-134 201l134 200h88l-109 -200l109 -201h-88z" />
    <glyph glyph-name="logicalnot" unicode="&#xac;" horiz-adv-x="587" 
d="M418 204v155h-354v95h448v-250h-94z" />
    <glyph glyph-name="uni00AD" unicode="&#xad;" horiz-adv-x="302" 
d="M37 217v107h229v-107h-229z" />
    <glyph glyph-name="registered" unicode="&#xae;" horiz-adv-x="697" 
d="M348 -12c-46 0 -88.333 8.33301 -127 25s-72.167 40.5 -100.5 71.5s-50.333 68.5 -66 112.5s-23.5 92.667 -23.5 146c0 54 7.83301 102.833 23.5 146.5s37.667 81 66 112s61.833 54.833 100.5 71.5s81 25 127 25s88.333 -8.33301 127 -25s72.334 -40.5 101.001 -71.5
s50.834 -68.333 66.501 -112s23.5 -92.5 23.5 -146.5c0 -53.333 -7.83301 -102 -23.5 -146s-37.834 -81.5 -66.501 -112.5s-62.334 -54.833 -101.001 -71.5s-81 -25 -127 -25zM348 40c51.333 0 96.666 12.333 135.999 37s70.333 59.667 93 105s34 99 34 161
c0 62.667 -11.333 116.5 -34 161.5s-53.667 79.667 -93 104s-84.666 36.5 -135.999 36.5c-50.667 0 -95.834 -12.167 -135.501 -36.5s-70.834 -59 -93.501 -104s-34 -98.833 -34 -161.5c0 -62 11.333 -115.667 34 -161s53.834 -80.333 93.501 -105s84.834 -37 135.501 -37z
M215 137l0.000976562 412h169c40.667 0 70.667 -11.333 90 -34s29 -52.667 29 -90c0 -26 -4.83301 -49.167 -14.5 -69.5s-24.834 -35.833 -45.501 -46.5l75 -172h-80l-66 155h-82v-155h-75zM290.001 356l83.999 0.000976562c16 0 28.833 6 38.5 18s14.5 28.333 14.5 49
c0 21.333 -4.66699 37.166 -14 47.499s-22.666 15.5 -39.999 15.5h-83v-130z" />
    <glyph glyph-name="macron" unicode="&#xaf;" horiz-adv-x="268" 
d="M0 621v79h268v-79h-268z" />
    <glyph glyph-name="degree" unicode="&#xb0;" horiz-adv-x="400" 
d="M200 410c-26 0 -50 6.33301 -72 19s-39.5 30 -52.5 52s-19.5 46.333 -19.5 73s6.5 51 19.5 73s30.5 39.333 52.5 52s46 19 72 19c27.333 0 51.833 -6.33301 73.5 -19s39 -30 52 -52s19.5 -46.667 19.5 -74c0 -26 -6.5 -50 -19.5 -72s-30.333 -39.333 -52 -52
s-46.167 -19 -73.5 -19zM200 478c21.333 0 39.166 7.5 53.499 22.5s21.5 32.5 21.5 52.5c0 21.333 -7.16699 39.333 -21.5 54s-32.166 22 -53.499 22c-20.667 0 -38.5 -7.33301 -53.5 -22s-22.5 -32.667 -22.5 -54c0 -20 7.5 -37.5 22.5 -52.5s32.833 -22.5 53.5 -22.5z" />
    <glyph glyph-name="plusminus" unicode="&#xb1;" horiz-adv-x="587" 
d="M246 153v196h-174v94h174v197h94v-197h174v-94h-174v-196h-94zM72 5v95h442v-95h-442z" />
    <glyph glyph-name="uni00B2" unicode="&#xb2;" horiz-adv-x="318" 
d="M43 440l0.000976562 24.001c0 18.667 4 35.5 12 50.5s18.5 28.667 31.5 41s26.5 24.166 40.5 35.499c19.333 17.333 36.5 34.333 51.5 51s22.5 35.334 22.5 56.001c0 10.667 -2.83301 20.167 -8.5 28.5s-15.834 12.5 -30.501 12.5c-10 0 -18.167 -2 -24.5 -6
s-11 -9.83301 -14 -17.5s-4.5 -16.834 -4.5 -27.501v-21h-71c-0.666992 2.66699 -1.16699 6.5 -1.5 11.5s-0.5 9.5 -0.5 13.5c0 25.333 5.33301 45.833 16 61.5s25 27.334 43 35.001s38.333 11.5 61 11.5c27.333 0 48.833 -5.16699 64.5 -15.5s26.834 -23.5 33.501 -39.5
s10 -32.667 10 -50c0 -16.667 -2.66699 -31.834 -8 -45.501s-12.5 -26.167 -21.5 -37.5s-19 -22 -30 -32s-22.167 -19.333 -33.5 -28l-26 -24c-8.66699 -8 -16.334 -16 -23.001 -24h144v-64h-233z" />
    <glyph glyph-name="uni00B3" unicode="&#xb3;" horiz-adv-x="318" 
d="M160 428c-40 0 -69.999 9.66602 -89.999 28.999s-30 45.666 -30 78.999v10h73v-10c0 -15.333 3.66699 -27.166 11 -35.499s18.666 -12.5 33.999 -12.5c10.667 0 19.334 1.83301 26.001 5.5s11.834 9.16699 15.501 16.5s5.5 17 5.5 29
c0 12.667 -2.16699 22.334 -6.5 29.001s-10.166 11.334 -17.499 14.001s-16 4 -26 4h-29v61h30c9.33301 0 17 1.66699 23 5s10.667 8.66602 14 15.999s5 16.666 5 27.999c0 10 -1.5 18.167 -4.5 24.5s-7.33301 11.166 -13 14.499s-12.5 5 -20.5 5
c-8.66699 0 -16 -1.66699 -22 -5s-10.667 -8.33301 -14 -15s-5 -14.667 -5 -24v-10h-73v13c0 20 4.83301 37.667 14.5 53s23 27.166 40 35.499s36.833 12.5 59.5 12.5c23.333 0 43.333 -4 60 -12s29.5 -19.333 38.5 -34s13.5 -32.667 13.5 -54
c0 -19.333 -4.33301 -35.166 -13 -47.499s-20 -22.166 -34 -29.499v-4c17.333 -6.66699 30.666 -17.167 39.999 -31.5s14 -32.166 14 -53.499s-4.83301 -40 -14.5 -56s-23.334 -28.333 -41.001 -37s-38.834 -13 -63.501 -13z" />
    <glyph glyph-name="acute" unicode="&#xb4;" horiz-adv-x="190" 
d="M0 591l73 132h116l1 -3l-101 -129h-89z" />
    <glyph glyph-name="uni00B5" unicode="&#xb5;" horiz-adv-x="526" 
d="M58 -186v711.999h116v-347c0 -16 1.66699 -29.333 5 -40s8.33301 -19.667 15 -27s14.834 -12.5 24.501 -15.5s20.834 -4.5 33.501 -4.5c20 0 37.5 5.33301 52.5 16s26.667 26.334 35 47.001s12.5 45.667 12.5 75v296h115v-526h-97l-9 68h-6
c-8.66699 -16.667 -19.334 -30.667 -32.001 -42s-26.5 -19.833 -41.5 -25.5s-31.5 -8.5 -49.5 -8.5c-12 0 -23.333 1.66699 -34 5s-20.334 8.33301 -29.001 15c2 -10 3.33301 -21.5 4 -34.5s1 -25.5 1 -37.5v-126h-116z" />
    <glyph glyph-name="paragraph" unicode="&#xb6;" horiz-adv-x="539" 
d="M226 -168l-0.000976562 423.001c-32 2 -62 11.5 -90 28.5s-50.833 41.167 -68.5 72.5s-26.5 68.666 -26.5 111.999c0 54 10.667 97 32 129s49.833 54.833 85.5 68.5s74.834 20.5 117.501 20.5h228v-67h-53v-787h-84v787h-57v-787h-84z" />
    <glyph glyph-name="periodcentered" unicode="&#xb7;" horiz-adv-x="293" 
d="M87 287v129h119v-129h-119z" />
    <glyph glyph-name="cedilla" unicode="&#xb8;" horiz-adv-x="207" 
d="M91 -187c-15.333 0 -31.167 0.831055 -47.5 2.49805s-30.833 3.83398 -43.5 6.50098v48h79c13.333 0 23.5 1.83301 30.5 5.5s10.5 10.167 10.5 19.5c0 8.66699 -2.83301 14.834 -8.5 18.501s-15.834 5.5 -30.501 5.5h-37l14 97h70l-5 -51
c14 -0.666992 27.5 -3.5 40.5 -8.5s23.5 -12.333 31.5 -22s12 -22.5 12 -38.5c0 -17.333 -3.83301 -31.5 -11.5 -42.5s-17.5 -19.333 -29.5 -25s-24.667 -9.66699 -38 -12s-25.666 -3.5 -36.999 -3.5z" />
    <glyph glyph-name="uni00B9" unicode="&#xb9;" horiz-adv-x="318" 
d="M57 440v64h74v199h-74v48c11.333 0.666992 23.5 3 36.5 7s26.167 9 39.5 15s25 13 35 21h36v-290h67v-64h-214z" />
    <glyph glyph-name="ordmasculine" unicode="&#xba;" horiz-adv-x="351" 
d="M176 330c-32 0 -58.832 6.66699 -80.499 20s-37.667 33.666 -48 60.999s-15.5 62 -15.5 104s5.16699 76.5 15.5 103.5s26.333 47 48 60s48.5 19.5 80.5 19.5c32.667 0 59.667 -6.5 81 -19.5s37.166 -33 47.499 -60s15.5 -61.5 15.5 -103.5s-5.33301 -76.667 -16 -104
s-26.667 -47.666 -48 -60.999s-48 -20 -80 -20zM176.001 394c26 0 43.498 10 52.498 30s13.5 46.333 13.5 79v21c0 34.667 -4.66699 61.667 -14 81s-26.666 29 -51.999 29s-42.666 -9.66699 -51.999 -29s-14 -46 -14 -80v-21c0 -33.333 4.5 -60 13.5 -80s26.5 -30 52.5 -30z
" />
    <glyph glyph-name="guillemotright" unicode="&#xbb;" horiz-adv-x="520" 
d="M331 526l135 -201l-135 -200h-87l108 200l-108 201h87zM134 526l135 -201l-135 -200h-87l109 200l-109 201h87z" />
    <glyph glyph-name="onequarter" unicode="&#xbc;" horiz-adv-x="784" 
d="M110 -12l491 710h76l-492 -710h-75zM57 340v64h74v199h-74v48c11.333 0.666992 23.5 3 36.5 7s26.167 9 39.5 15s25 13 35 21h36v-290h67v-64h-214zM604 0l-0.000976562 74.002h-138v57c17.333 32 32.333 67.167 45 105.5s23 79.5 31 123.5h77
c-4 -20.667 -9.5 -42 -16.5 -64s-14.667 -43.333 -23 -64s-16.666 -39.5 -24.999 -56.5s-15.833 -30.5 -22.5 -40.5h72v63c3.33301 7.33301 7 16.666 11 27.999s8 23.166 12 35.499s7 23.5 9 33.5h41v-160h37v-61h-37v-74h-73z" />
    <glyph glyph-name="onehalf" unicode="&#xbd;" horiz-adv-x="784" 
d="M110 -12l491 710h76l-492 -710h-75zM492 0l0.000976562 24.001c0 18.667 4 35.5 12 50.5s18.333 28.667 31 41s26 24.166 40 35.499c20 17.333 37.5 34.333 52.5 51s22.5 35.334 22.5 56.001c0 10.667 -3 20.167 -9 28.5s-16.333 12.5 -31 12.5
c-10 0 -18.167 -2 -24.5 -6s-11 -9.83301 -14 -17.5s-4.5 -16.834 -4.5 -27.501v-21h-70c-0.666992 2.66699 -1.33398 6.5 -2.00098 11.5s-1 9.5 -1 13.5c0 25.333 5.33301 45.833 16 61.5s25.167 27.334 43.5 35.001s38.5 11.5 60.5 11.5c27.333 0 49 -5.16699 65 -15.5
s27.333 -23.5 34 -39.5s10 -32.667 10 -50c0 -16.667 -2.66699 -31.834 -8 -45.501s-12.666 -26.167 -21.999 -37.5s-19.5 -22 -30.5 -32s-21.833 -19.333 -32.5 -28c-9.33301 -8 -18.333 -16 -27 -24s-16.334 -16 -23.001 -24h145v-64h-233zM57.001 340.001v64h74v199h-74
v48c11.333 0.666992 23.5 3 36.5 7s26.167 9 39.5 15s25 13 35 21h36v-290h67v-64h-214z" />
    <glyph glyph-name="threequarters" unicode="&#xbe;" horiz-adv-x="784" 
d="M110 -12l491 710h76l-492 -710h-75zM160 328c-40 0 -69.999 9.66602 -89.999 28.999s-30 45.666 -30 78.999v10h73v-10c0 -15.333 3.66699 -27.166 11 -35.499s18.666 -12.5 33.999 -12.5c10.667 0 19.334 1.83301 26.001 5.5s11.834 9.16699 15.501 16.5s5.5 17 5.5 29
c0 12.667 -2.16699 22.334 -6.5 29.001s-10.166 11.334 -17.499 14.001s-16 4 -26 4h-29v61h30c9.33301 0 17 1.66699 23 5s10.667 8.66602 14 15.999s5 16.666 5 27.999c0 10 -1.5 18.167 -4.5 24.5s-7.33301 11.166 -13 14.499s-12.5 5 -20.5 5
c-8.66699 0 -16 -1.66699 -22 -5s-10.667 -8.33301 -14 -15s-5 -14.667 -5 -24v-10h-73v13c0 20 4.83301 37.667 14.5 53s23 27.166 40 35.499s36.833 12.5 59.5 12.5c23.333 0 43.333 -4 60 -12s29.5 -19.333 38.5 -34s13.5 -32.667 13.5 -54
c0 -19.333 -4.33301 -35.166 -13 -47.499s-20 -22.166 -34 -29.499v-4c17.333 -6.66699 30.666 -17.167 39.999 -31.5s14 -32.166 14 -53.499s-4.83301 -40 -14.5 -56s-23.334 -28.333 -41.001 -37s-38.834 -13 -63.501 -13zM604.001 -0.000976562l-0.000976562 74.002h-138
v57c17.333 32 32.333 67.167 45 105.5s23 79.5 31 123.5h77c-4 -20.667 -9.5 -42 -16.5 -64s-14.667 -43.333 -23 -64s-16.666 -39.5 -24.999 -56.5s-15.833 -30.5 -22.5 -40.5h72v63c3.33301 7.33301 7 16.666 11 27.999s8 23.166 12 35.499s7 23.5 9 33.5h41v-160h37v-61
h-37v-74h-73z" />
    <glyph glyph-name="questiondown" unicode="&#xbf;" horiz-adv-x="540" 
d="M265 -172c-26 0 -49.8359 2.82715 -71.5029 8.49414s-40.667 13.834 -57 24.501s-30 23.334 -41 38.001s-19.333 31.167 -25 49.5s-8.5 37.833 -8.5 58.5c0 30 3.83301 55.667 11.5 77s17.5 39.5 29.5 54.5s24.833 28.333 38.5 40s26.5 23 38.5 34
s21.833 23.167 29.5 36.5s11.5 29.333 11.5 48v35h106v-51c0 -23.333 -3.5 -43.666 -10.5 -60.999s-15.833 -32.5 -26.5 -45.5s-22 -24.833 -34 -35.5s-23.167 -21.667 -33.5 -33s-19 -23.666 -26 -36.999s-10.5 -29.666 -10.5 -48.999c0 -10 1 -20.333 3 -31
s6 -20.5 12 -29.5s14.833 -16.333 26.5 -22s27.167 -8.5 46.5 -8.5c20.667 0 37.334 3.66699 50.001 11s22 16.666 28 27.999s10.167 23.5 12.5 36.5s3.5 24.833 3.5 35.5c0 6 -0.166992 11.333 -0.5 16s-0.5 8.66699 -0.5 12h117
c0.666992 -4 1.33398 -9.16699 2.00098 -15.5s1 -13.166 1 -20.499c0 -20.667 -2.66699 -41 -8 -61s-13.5 -38.5 -24.5 -55.5s-25.167 -32.167 -42.5 -45.5s-38.166 -23.666 -62.499 -30.999s-52.5 -11 -84.5 -11zM214.997 396.994v129h118v-129h-118z" />
    <glyph glyph-name="Agrave" unicode="&#xc0;" horiz-adv-x="628" 
d="M3 0l231 686h160l231 -686h-134l-49 150h-262l-48 -150h-129zM213 256l196.001 0.00292969l-61 197c-2 6 -4.33301 13.667 -7 23s-5.66699 19.666 -9 30.999s-6.5 22.666 -9.5 33.999s-5.83301 21.666 -8.5 30.999h-6c-2.66699 -12 -6.33398 -25.833 -11.001 -41.5
s-9.16699 -30.5 -13.5 -44.5s-7.83301 -25 -10.5 -33zM372.001 739.003h-94l-101 129l1 3h121z" />
    <glyph glyph-name="Aacute" unicode="&#xc1;" horiz-adv-x="628" 
d="M3 0l231 686h160l231 -686h-134l-49 150h-262l-48 -150h-129zM213 256l196.001 0.00292969l-61 197c-2 6 -4.33301 13.667 -7 23s-5.66699 19.666 -9 30.999s-6.5 22.666 -9.5 33.999s-5.83301 21.666 -8.5 30.999h-6c-2.66699 -12 -6.33398 -25.833 -11.001 -41.5
s-9.16699 -30.5 -13.5 -44.5s-7.83301 -25 -10.5 -33zM264.001 739.003l74 132h120l1 -3l-100 -129h-95z" />
    <glyph glyph-name="Acircumflex" unicode="&#xc2;" horiz-adv-x="628" 
d="M3 0l231 686h160l231 -686h-134l-49 150h-262l-48 -150h-129zM213 256l196.001 0.00292969l-61 197c-2 6 -4.33301 13.667 -7 23s-5.66699 19.666 -9 30.999s-6.5 22.666 -9.5 33.999s-5.83301 21.666 -8.5 30.999h-6c-2.66699 -12 -6.33398 -25.833 -11.001 -41.5
s-9.16699 -30.5 -13.5 -44.5s-7.83301 -25 -10.5 -33zM163.001 739.003l97 132h109l96 -132h-97l-79 111l52 -1l-81 -110h-97z" />
    <glyph glyph-name="Atilde" unicode="&#xc3;" horiz-adv-x="628" 
d="M3 0l231 686h160l231 -686h-134l-49 150h-262l-48 -150h-129zM213 256l196.001 0.00292969l-61 197c-2 6 -4.33301 13.667 -7 23s-5.66699 19.666 -9 30.999s-6.5 22.666 -9.5 33.999s-5.83301 21.666 -8.5 30.999h-6c-2.66699 -12 -6.33398 -25.833 -11.001 -41.5
s-9.16699 -30.5 -13.5 -44.5s-7.83301 -25 -10.5 -33zM162.001 760.003c0 21.333 3.00098 40.332 9.00098 56.999s15.333 29.834 28 39.501s28.667 14.5 48 14.5c16 0 31 -2.66699 45 -8s27.833 -10.833 41.5 -16.5s27.167 -8.5 40.5 -8.5c9.33301 0 16.5 2.66699 21.5 8
s8.16699 14 9.5 26h62c0 -20.667 -3.16699 -39.5 -9.5 -56.5s-15.833 -30.5 -28.5 -40.5s-28.667 -15 -48 -15c-15.333 0 -30.166 3 -44.499 9s-28 11.833 -41 17.5s-26.5 8.5 -40.5 8.5c-8.66699 0 -15.834 -2.83301 -21.501 -8.5s-8.83398 -14.5 -9.50098 -26.5h-62z" />
    <glyph glyph-name="Adieresis" unicode="&#xc4;" horiz-adv-x="628" 
d="M3 0l231 686h160l231 -686h-134l-49 150h-262l-48 -150h-129zM213 256l196.001 0.00292969l-61 197c-2 6 -4.33301 13.667 -7 23s-5.66699 19.666 -9 30.999s-6.5 22.666 -9.5 33.999s-5.83301 21.666 -8.5 30.999h-6c-2.66699 -12 -6.33398 -25.833 -11.001 -41.5
s-9.16699 -30.5 -13.5 -44.5s-7.83301 -25 -10.5 -33zM178.001 761.003v110h96v-110h-96zM355.001 761.003v110h96v-110h-96z" />
    <glyph glyph-name="Aring" unicode="&#xc5;" horiz-adv-x="628" 
d="M3 0l231 686h160l231 -686h-134l-49 150h-262l-48 -150h-129zM213 256l196.001 0.00292969l-61 197c-2 6 -4.33301 13.667 -7 23s-5.66699 19.666 -9 30.999s-6.5 22.666 -9.5 33.999s-5.83301 21.666 -8.5 30.999h-6c-2.66699 -12 -6.33398 -25.833 -11.001 -41.5
s-9.16699 -30.5 -13.5 -44.5s-7.83301 -25 -10.5 -33zM314.001 729.003c-28.667 0 -52.334 9.33301 -71.001 28s-28 42.334 -28 71.001c0 29.333 9.33301 53.333 28 72s42.667 28 72 28c28.667 0 52.334 -9.33301 71.001 -28s28 -42.667 28 -72
c0 -28.667 -9.33301 -52.334 -28 -71.001s-42.667 -28 -72 -28zM315.001 784.003c12 0 22 4 30 12s12 18.667 12 32s-4 24.166 -12 32.499s-18 12.5 -30 12.5c-12.667 0 -22.834 -4.16699 -30.501 -12.5s-11.5 -19.166 -11.5 -32.499s3.83301 -24 11.5 -32
s17.834 -12 30.501 -12z" />
    <glyph glyph-name="AE" unicode="&#xc6;" horiz-adv-x="893" 
d="M-5 0l280 686h567v-107h-371l44 -175h287v-108h-261l47 -188h260v-108h-363l-37 151h-266l-59 -151h-128zM222 256l203 0.000976562l-59 237c-1.33301 8 -2.83301 15.5 -4.5 22.5s-3.16699 14 -4.5 21s-2.5 13.5 -3.5 19.5s-2.16699 11.667 -3.5 17h-5
c-1.33301 -2.66699 -3 -7.16699 -5 -13.5s-4 -13.5 -6 -21.5s-4.33301 -15.833 -7 -23.5s-5 -14.834 -7 -21.501z" />
    <glyph glyph-name="Ccedilla" unicode="&#xc7;" horiz-adv-x="647" 
d="M336 -12c-64.667 0 -118.833 12.5 -162.5 37.5s-76.667 63.667 -99 116s-33.5 119.5 -33.5 201.5c0 121.333 25.667 210.833 77 268.5s125.666 86.5 222.999 86.5c52.667 0 99.167 -9.5 139.5 -28.5s72 -48.167 95 -87.5s34.5 -90 34.5 -152h-126
c0 34.667 -5.83301 64 -17.5 88s-28.167 42.333 -49.5 55s-47 19 -77 19c-38 0 -69.667 -8.5 -95 -25.5s-44.166 -42.333 -56.499 -76s-18.5 -75.834 -18.5 -126.501v-42c0 -51.333 6 -93.833 18 -127.5s30.5 -58.667 55.5 -75s56.833 -24.5 95.5 -24.5c31.333 0 58 6 80 18
s39 29.833 51 53.5s18 53.167 18 88.5h122c0 -61.333 -11.833 -111.666 -35.5 -150.999s-56 -68.5 -97 -87.5s-88.167 -28.5 -141.5 -28.5zM339.001 -187c-15.333 0 -31.167 0.831055 -47.5 2.49805s-30.833 3.83398 -43.5 6.50098v48h79c13.333 0 23.5 1.83301 30.5 5.5
s10.5 10.167 10.5 19.5c0 8.66699 -2.83301 14.834 -8.5 18.501s-15.834 5.5 -30.501 5.5h-37l14 97h70l-5 -51c14 -0.666992 27.5 -3.5 40.5 -8.5s23.5 -12.333 31.5 -22s12 -22.5 12 -38.5c0 -17.333 -3.83301 -31.5 -11.5 -42.5s-17.5 -19.333 -29.5 -25
s-24.667 -9.66699 -38 -12s-25.666 -3.5 -36.999 -3.5z" />
    <glyph glyph-name="Egrave" unicode="&#xc8;" horiz-adv-x="596" 
d="M68 0v686h478v-107h-352v-175h311v-108h-311v-189h357v-107h-483zM367 739h-94l-101 129l1 3h121z" />
    <glyph glyph-name="Eacute" unicode="&#xc9;" horiz-adv-x="596" 
d="M68 0v686h478v-107h-352v-175h311v-108h-311v-189h357v-107h-483zM259 739l73 132h121l1 -3l-100 -129h-95z" />
    <glyph glyph-name="Ecircumflex" unicode="&#xca;" horiz-adv-x="596" 
d="M68 0v686h478v-107h-352v-175h311v-108h-311v-189h357v-107h-483zM158 739l97 132h109l96 -132h-97l-79 111l52 -1l-81 -110h-97z" />
    <glyph glyph-name="Edieresis" unicode="&#xcb;" horiz-adv-x="596" 
d="M68 0v686h478v-107h-352v-175h311v-108h-311v-189h357v-107h-483zM173 761v110h96v-110h-96zM350 761v110h96v-110h-96z" />
    <glyph glyph-name="Igrave" unicode="&#xcc;" horiz-adv-x="262" 
d="M68 0v686h126v-686h-126zM189 739h-95l-100 129l1 3h120z" />
    <glyph glyph-name="Iacute" unicode="&#xcd;" horiz-adv-x="262" 
d="M68 0v686h126v-686h-126zM80 739l74 132h120l1 -3l-100 -129h-95z" />
    <glyph glyph-name="Icircumflex" unicode="&#xce;" horiz-adv-x="262" 
d="M68 0v686h126v-686h-126zM-21 739l97 132h109l96 -132h-97l-79 111l52 -1l-81 -110h-97z" />
    <glyph glyph-name="Idieresis" unicode="&#xcf;" horiz-adv-x="262" 
d="M68 0v686h126v-686h-126zM-6 761v110h96v-110h-96zM172 761v110h96v-110h-96z" />
    <glyph glyph-name="Eth" unicode="&#xd0;" horiz-adv-x="652" 
d="M0 300v96h333v-96h-333zM68 0l0.000976562 686.001h247c64 0 117.833 -12.167 161.5 -36.5s76.834 -61.666 99.501 -111.999s34 -114.833 34 -193.5s-11.333 -143.334 -34 -194.001s-55.834 -88.334 -99.501 -113.001s-97.834 -37 -162.501 -37h-246zM194.001 107.001
l116 -0.000976562c28 0 52.667 4.16699 74 12.5s39.166 21 53.499 38s25.333 39.167 33 66.5s11.5 60 11.5 98v38c0 38.667 -3.83301 71.667 -11.5 99s-18.667 49.833 -33 67.5s-32.166 30.834 -53.499 39.501s-46 13 -74 13h-116v-472z" />
    <glyph glyph-name="Ntilde" unicode="&#xd1;" horiz-adv-x="655" 
d="M68 0v685.999h120l244 -390c3.33301 -4.66699 7 -10.5 11 -17.5s7.83301 -14.167 11.5 -21.5s6.16699 -13.666 7.5 -18.999h5v31v27v390h120v-686h-119l-246 394c-4 8 -9.16699 18 -15.5 30s-10.833 22 -13.5 30h-5v-29v-31v-394h-120zM175 759.999
c0 21.333 3.00098 40.332 9.00098 56.999s15.333 29.834 28 39.501s28.667 14.5 48 14.5c16 0 31 -2.66699 45 -8s27.833 -10.833 41.5 -16.5s27.167 -8.5 40.5 -8.5c9.33301 0 16.5 2.66699 21.5 8s8.16699 14 9.5 26h62c0 -20.667 -3.16699 -39.5 -9.5 -56.5
s-15.833 -30.5 -28.5 -40.5s-28.667 -15 -48 -15c-15.333 0 -30.166 3 -44.499 9s-28 11.833 -41 17.5s-26.5 8.5 -40.5 8.5c-8.66699 0 -15.834 -2.83301 -21.501 -8.5s-8.83398 -14.5 -9.50098 -26.5h-62z" />
    <glyph glyph-name="Ograve" unicode="&#xd2;" horiz-adv-x="699" 
d="M350 -12c-64.667 0 -120.167 12.667 -166.5 38s-81.666 64.333 -105.999 117s-36.5 119.334 -36.5 200.001c0 81.333 12.167 148.166 36.5 200.499s59.666 91.166 105.999 116.499s101.833 38 166.5 38s120 -12.667 166 -38s81.167 -64.166 105.5 -116.499
s36.5 -119.166 36.5 -200.499c0 -80.667 -12.167 -147.334 -36.5 -200.001s-59.5 -91.667 -105.5 -117s-101.333 -38 -166 -38zM350 95c29.333 0 55.166 4.83301 77.499 14.5s41.166 24 56.499 43s26.833 42.667 34.5 71s11.5 61.166 11.5 98.499v42
c0 37.333 -3.83301 70.333 -11.5 99s-19.167 52.5 -34.5 71.5s-34.166 33.333 -56.499 43s-48.166 14.5 -77.499 14.5c-30 0 -56.167 -4.83301 -78.5 -14.5s-41 -24 -56 -43s-26.333 -42.833 -34 -71.5s-11.5 -61.667 -11.5 -99v-42c0 -37.333 3.83301 -70.166 11.5 -98.499
s19 -52 34 -71s33.667 -33.333 56 -43s48.5 -14.5 78.5 -14.5zM407 739h-94l-101 129l1 3h121z" />
    <glyph glyph-name="Oacute" unicode="&#xd3;" horiz-adv-x="699" 
d="M350 -12c-64.667 0 -120.167 12.667 -166.5 38s-81.666 64.333 -105.999 117s-36.5 119.334 -36.5 200.001c0 81.333 12.167 148.166 36.5 200.499s59.666 91.166 105.999 116.499s101.833 38 166.5 38s120 -12.667 166 -38s81.167 -64.166 105.5 -116.499
s36.5 -119.166 36.5 -200.499c0 -80.667 -12.167 -147.334 -36.5 -200.001s-59.5 -91.667 -105.5 -117s-101.333 -38 -166 -38zM350 95c29.333 0 55.166 4.83301 77.499 14.5s41.166 24 56.499 43s26.833 42.667 34.5 71s11.5 61.166 11.5 98.499v42
c0 37.333 -3.83301 70.333 -11.5 99s-19.167 52.5 -34.5 71.5s-34.166 33.333 -56.499 43s-48.166 14.5 -77.499 14.5c-30 0 -56.167 -4.83301 -78.5 -14.5s-41 -24 -56 -43s-26.333 -42.833 -34 -71.5s-11.5 -61.667 -11.5 -99v-42c0 -37.333 3.83301 -70.166 11.5 -98.499
s19 -52 34 -71s33.667 -33.333 56 -43s48.5 -14.5 78.5 -14.5zM299 739l74 132h120l1 -3l-100 -129h-95z" />
    <glyph glyph-name="Ocircumflex" unicode="&#xd4;" horiz-adv-x="699" 
d="M350 -12c-64.667 0 -120.167 12.667 -166.5 38s-81.666 64.333 -105.999 117s-36.5 119.334 -36.5 200.001c0 81.333 12.167 148.166 36.5 200.499s59.666 91.166 105.999 116.499s101.833 38 166.5 38s120 -12.667 166 -38s81.167 -64.166 105.5 -116.499
s36.5 -119.166 36.5 -200.499c0 -80.667 -12.167 -147.334 -36.5 -200.001s-59.5 -91.667 -105.5 -117s-101.333 -38 -166 -38zM350 95c29.333 0 55.166 4.83301 77.499 14.5s41.166 24 56.499 43s26.833 42.667 34.5 71s11.5 61.166 11.5 98.499v42
c0 37.333 -3.83301 70.333 -11.5 99s-19.167 52.5 -34.5 71.5s-34.166 33.333 -56.499 43s-48.166 14.5 -77.499 14.5c-30 0 -56.167 -4.83301 -78.5 -14.5s-41 -24 -56 -43s-26.333 -42.833 -34 -71.5s-11.5 -61.667 -11.5 -99v-42c0 -37.333 3.83301 -70.166 11.5 -98.499
s19 -52 34 -71s33.667 -33.333 56 -43s48.5 -14.5 78.5 -14.5zM198 739l97 132h109l96 -132h-97l-79 111l52 -1l-81 -110h-97z" />
    <glyph glyph-name="Otilde" unicode="&#xd5;" horiz-adv-x="699" 
d="M350 -12c-64.667 0 -120.167 12.667 -166.5 38s-81.666 64.333 -105.999 117s-36.5 119.334 -36.5 200.001c0 81.333 12.167 148.166 36.5 200.499s59.666 91.166 105.999 116.499s101.833 38 166.5 38s120 -12.667 166 -38s81.167 -64.166 105.5 -116.499
s36.5 -119.166 36.5 -200.499c0 -80.667 -12.167 -147.334 -36.5 -200.001s-59.5 -91.667 -105.5 -117s-101.333 -38 -166 -38zM350 95c29.333 0 55.166 4.83301 77.499 14.5s41.166 24 56.499 43s26.833 42.667 34.5 71s11.5 61.166 11.5 98.499v42
c0 37.333 -3.83301 70.333 -11.5 99s-19.167 52.5 -34.5 71.5s-34.166 33.333 -56.499 43s-48.166 14.5 -77.499 14.5c-30 0 -56.167 -4.83301 -78.5 -14.5s-41 -24 -56 -43s-26.333 -42.833 -34 -71.5s-11.5 -61.667 -11.5 -99v-42c0 -37.333 3.83301 -70.166 11.5 -98.499
s19 -52 34 -71s33.667 -33.333 56 -43s48.5 -14.5 78.5 -14.5zM197 760c0 21.333 2.99902 40.332 8.99902 56.999s15.333 29.834 28 39.501s28.667 14.5 48 14.5c16.667 0 31.834 -2.66699 45.501 -8s27.334 -10.833 41.001 -16.5s27.167 -8.5 40.5 -8.5
c9.33301 0 16.5 2.66699 21.5 8s8.16699 14 9.5 26h62c0 -20.667 -3.16699 -39.5 -9.5 -56.5s-15.833 -30.5 -28.5 -40.5s-28.667 -15 -48 -15c-15.333 0 -30.166 3 -44.499 9s-28 11.833 -41 17.5s-26.5 8.5 -40.5 8.5c-8.66699 0 -15.834 -2.83301 -21.501 -8.5
s-8.83398 -14.5 -9.50098 -26.5h-62z" />
    <glyph glyph-name="Odieresis" unicode="&#xd6;" horiz-adv-x="699" 
d="M350 -12c-64.667 0 -120.167 12.667 -166.5 38s-81.666 64.333 -105.999 117s-36.5 119.334 -36.5 200.001c0 81.333 12.167 148.166 36.5 200.499s59.666 91.166 105.999 116.499s101.833 38 166.5 38s120 -12.667 166 -38s81.167 -64.166 105.5 -116.499
s36.5 -119.166 36.5 -200.499c0 -80.667 -12.167 -147.334 -36.5 -200.001s-59.5 -91.667 -105.5 -117s-101.333 -38 -166 -38zM350 95c29.333 0 55.166 4.83301 77.499 14.5s41.166 24 56.499 43s26.833 42.667 34.5 71s11.5 61.166 11.5 98.499v42
c0 37.333 -3.83301 70.333 -11.5 99s-19.167 52.5 -34.5 71.5s-34.166 33.333 -56.499 43s-48.166 14.5 -77.499 14.5c-30 0 -56.167 -4.83301 -78.5 -14.5s-41 -24 -56 -43s-26.333 -42.833 -34 -71.5s-11.5 -61.667 -11.5 -99v-42c0 -37.333 3.83301 -70.166 11.5 -98.499
s19 -52 34 -71s33.667 -33.333 56 -43s48.5 -14.5 78.5 -14.5zM213 761v110h96v-110h-96zM390 761v110h96v-110h-96z" />
    <glyph glyph-name="multiply" unicode="&#xd7;" horiz-adv-x="587" 
d="M154 51l-65 66l138 139l-139 139l66 67l140 -139l139 139l66 -66l-140 -140l140 -138l-67 -67l-139 139z" />
    <glyph glyph-name="Oslash" unicode="&#xd8;" horiz-adv-x="699" 
d="M350 -12c-64.667 0 -120.167 12.667 -166.5 38s-81.666 64.333 -105.999 117s-36.5 119.334 -36.5 200.001c0 81.333 12.167 148.166 36.5 200.499s59.666 91.166 105.999 116.499s101.833 38 166.5 38s120 -12.667 166 -38s81.167 -64.166 105.5 -116.499
s36.5 -119.166 36.5 -200.499c0 -80.667 -12.167 -147.334 -36.5 -200.001s-59.5 -91.667 -105.5 -117s-101.333 -38 -166 -38zM350 95c29.333 0 55.166 4.83301 77.499 14.5s41.166 24 56.499 43s26.833 42.667 34.5 71s11.5 61.166 11.5 98.499v42
c0 37.333 -3.83301 70.333 -11.5 99s-19.167 52.5 -34.5 71.5s-34.166 33.333 -56.499 43s-48.166 14.5 -77.499 14.5c-30 0 -56.167 -4.83301 -78.5 -14.5s-41 -24 -56 -43s-26.333 -42.833 -34 -71.5s-11.5 -61.667 -11.5 -99v-42c0 -37.333 3.83301 -70.166 11.5 -98.499
s19 -52 34 -71s33.667 -33.333 56 -43s48.5 -14.5 78.5 -14.5zM46 -47l512 780h94l-513 -780h-93z" />
    <glyph glyph-name="Ugrave" unicode="&#xd9;" horiz-adv-x="646" 
d="M322 -12c-53.333 0 -99.3311 8.66699 -137.998 26s-68.334 44.833 -89.001 82.5s-31 86.167 -31 145.5v444h125v-445c0 -48.667 11.333 -85.167 34 -109.5s55.667 -36.5 99 -36.5s76.666 12.167 99.999 36.5s35 60.833 35 109.5v445h125v-444
c0 -59.333 -10.5 -107.833 -31.5 -145.5s-50.833 -65.167 -89.5 -82.5s-85 -26 -139 -26zM381.002 739h-95l-100 129l1 3h120z" />
    <glyph glyph-name="Uacute" unicode="&#xda;" horiz-adv-x="646" 
d="M322 -12c-53.333 0 -99.3311 8.66699 -137.998 26s-68.334 44.833 -89.001 82.5s-31 86.167 -31 145.5v444h125v-445c0 -48.667 11.333 -85.167 34 -109.5s55.667 -36.5 99 -36.5s76.666 12.167 99.999 36.5s35 60.833 35 109.5v445h125v-444
c0 -59.333 -10.5 -107.833 -31.5 -145.5s-50.833 -65.167 -89.5 -82.5s-85 -26 -139 -26zM272.002 739l74 132h120l1 -3l-100 -129h-95z" />
    <glyph glyph-name="Ucircumflex" unicode="&#xdb;" horiz-adv-x="646" 
d="M322 -12c-53.333 0 -99.3311 8.66699 -137.998 26s-68.334 44.833 -89.001 82.5s-31 86.167 -31 145.5v444h125v-445c0 -48.667 11.333 -85.167 34 -109.5s55.667 -36.5 99 -36.5s76.666 12.167 99.999 36.5s35 60.833 35 109.5v445h125v-444
c0 -59.333 -10.5 -107.833 -31.5 -145.5s-50.833 -65.167 -89.5 -82.5s-85 -26 -139 -26zM171.002 739l97 132h109l96 -132h-97l-79 111l52 -1l-81 -110h-97z" />
    <glyph glyph-name="Udieresis" unicode="&#xdc;" horiz-adv-x="646" 
d="M322 -12c-53.333 0 -99.3311 8.66699 -137.998 26s-68.334 44.833 -89.001 82.5s-31 86.167 -31 145.5v444h125v-445c0 -48.667 11.333 -85.167 34 -109.5s55.667 -36.5 99 -36.5s76.666 12.167 99.999 36.5s35 60.833 35 109.5v445h125v-444
c0 -59.333 -10.5 -107.833 -31.5 -145.5s-50.833 -65.167 -89.5 -82.5s-85 -26 -139 -26zM186.002 761v110h96v-110h-96zM364.002 761v110h96v-110h-96z" />
    <glyph glyph-name="Yacute" unicode="&#xdd;" horiz-adv-x="612" 
d="M243 0v278l-233 408h140l157 -287h5l156 287h133l-232 -408v-278h-126zM256 739l73 132h121l1 -3l-101 -129h-94z" />
    <glyph glyph-name="Thorn" unicode="&#xde;" horiz-adv-x="615" 
d="M71 0v686.002h126v-113h164c49.333 0 89.333 -9 120 -27s53.5 -43.333 68.5 -76s22.5 -70.667 22.5 -114c0 -44.667 -8 -83.834 -24 -117.501s-39.833 -59.834 -71.5 -78.501s-71.167 -28 -118.5 -28h-161v-132h-126zM197 238.002h149.998
c32.667 0 57.334 10.5 74.001 31.5s25 49.167 25 84.5c0 23.333 -3.5 43.333 -10.5 60s-17.667 29.5 -32 38.5s-33.166 13.5 -56.499 13.5h-150v-228z" />
    <glyph glyph-name="germandbls" unicode="&#xdf;" horiz-adv-x="562" 
d="M65 0l-0.00390625 518c0 39.333 6 72.666 18 99.999s28.333 49.666 49 66.999s44.667 30 72 38s56.333 12 87 12c33.333 0 63 -4 89 -12s48.333 -19.833 67 -35.5s32.834 -34.667 42.501 -57s14.5 -47.833 14.5 -76.5c0 -37.333 -9.16699 -70 -27.5 -98
s-42.5 -48 -72.5 -60v-4c38.667 -12.667 68.834 -35 90.501 -67s32.5 -71 32.5 -117c0 -41.333 -8.5 -77.666 -25.5 -108.999s-41.167 -55.666 -72.5 -72.999s-67.666 -26 -108.999 -26h-79v97h66c20.667 0 38.667 5.16699 54 15.5s27.166 24.5 35.499 42.5
s12.5 38.333 12.5 61c0 23.333 -4.16699 43.833 -12.5 61.5s-20.166 31.667 -35.499 42s-33.666 15.5 -54.999 15.5h-65v101h58c18 0 33.5 4.66699 46.5 14s23.333 21.833 31 37.5s11.5 33.167 11.5 52.5c0 30 -8.33301 54.167 -25 72.5s-41.667 27.5 -75 27.5
c-22 0 -41 -4.33301 -57 -13s-28.5 -21.5 -37.5 -38.5s-13.5 -38.167 -13.5 -63.5v-525h-115z" />
    <glyph glyph-name="agrave" unicode="&#xe0;" horiz-adv-x="506" 
d="M182 -12c-16 0 -32.8271 2.16406 -50.4941 6.49707s-34.167 11.833 -49.5 22.5s-27.5 25.667 -36.5 45s-13.5 43.333 -13.5 72c0 32.667 6.5 60.5 19.5 83.5s32.167 41.833 57.5 56.5s56.166 25.334 92.499 32.001s77.5 10 123.5 10v53
c0 14.667 -2.16699 27.834 -6.5 39.501s-12 20.834 -23 27.501s-26.5 10 -46.5 10c-22 0 -39 -3.33301 -51 -10s-20.167 -14.834 -24.5 -24.501s-6.5 -19.834 -6.5 -30.501v-12h-111c-0.666992 2.66699 -1 5.66699 -1 9v11c0 32.667 8.33301 60.167 25 82.5s39.667 39 69 50
s63 16.5 101 16.5c42 0 77.167 -6 105.5 -18s49.666 -30.167 63.999 -54.5s21.5 -55.833 21.5 -94.5v-253c0 -12 3.16699 -20.667 9.5 -26s13.833 -8 22.5 -8h29v-80c-7.33301 -3.33301 -17.333 -6.66602 -30 -9.99902s-27.334 -5 -44.001 -5s-31.334 2.83301 -44.001 8.5
s-23 13.834 -31 24.501s-13.333 23 -16 37h-6c-10 -13.333 -21.833 -25.5 -35.5 -36.5s-29.834 -19.5 -48.501 -25.5s-40.334 -9 -65.001 -9zM219.006 82.9971c16.667 0 31.499 2.99805 44.499 8.99805s24 14.167 33 24.5s16 23 21 38s7.5 31.5 7.5 49.5v35
c-35.333 0 -66.166 -3.16699 -92.499 -9.5s-46.666 -16.166 -60.999 -29.499s-21.5 -30.666 -21.5 -51.999c0 -13.333 2.5 -24.833 7.5 -34.5s12.667 -17.167 23 -22.5s23.166 -8 38.499 -8zM311.005 590.995h-90l-100 129v3h116z" />
    <glyph glyph-name="aacute" unicode="&#xe1;" horiz-adv-x="506" 
d="M182 -12c-16 0 -32.8271 2.16406 -50.4941 6.49707s-34.167 11.833 -49.5 22.5s-27.5 25.667 -36.5 45s-13.5 43.333 -13.5 72c0 32.667 6.5 60.5 19.5 83.5s32.167 41.833 57.5 56.5s56.166 25.334 92.499 32.001s77.5 10 123.5 10v53
c0 14.667 -2.16699 27.834 -6.5 39.501s-12 20.834 -23 27.501s-26.5 10 -46.5 10c-22 0 -39 -3.33301 -51 -10s-20.167 -14.834 -24.5 -24.501s-6.5 -19.834 -6.5 -30.501v-12h-111c-0.666992 2.66699 -1 5.66699 -1 9v11c0 32.667 8.33301 60.167 25 82.5s39.667 39 69 50
s63 16.5 101 16.5c42 0 77.167 -6 105.5 -18s49.666 -30.167 63.999 -54.5s21.5 -55.833 21.5 -94.5v-253c0 -12 3.16699 -20.667 9.5 -26s13.833 -8 22.5 -8h29v-80c-7.33301 -3.33301 -17.333 -6.66602 -30 -9.99902s-27.334 -5 -44.001 -5s-31.334 2.83301 -44.001 8.5
s-23 13.834 -31 24.501s-13.333 23 -16 37h-6c-10 -13.333 -21.833 -25.5 -35.5 -36.5s-29.834 -19.5 -48.501 -25.5s-40.334 -9 -65.001 -9zM219.006 82.9971c16.667 0 31.499 2.99805 44.499 8.99805s24 14.167 33 24.5s16 23 21 38s7.5 31.5 7.5 49.5v35
c-35.333 0 -66.166 -3.16699 -92.499 -9.5s-46.666 -16.166 -60.999 -29.499s-21.5 -30.666 -21.5 -51.999c0 -13.333 2.5 -24.833 7.5 -34.5s12.667 -17.167 23 -22.5s23.166 -8 38.499 -8zM194.005 590.995l74 132h115l1 -3l-100 -129h-90z" />
    <glyph glyph-name="acircumflex" unicode="&#xe2;" horiz-adv-x="506" 
d="M182 -12c-16 0 -32.8271 2.16406 -50.4941 6.49707s-34.167 11.833 -49.5 22.5s-27.5 25.667 -36.5 45s-13.5 43.333 -13.5 72c0 32.667 6.5 60.5 19.5 83.5s32.167 41.833 57.5 56.5s56.166 25.334 92.499 32.001s77.5 10 123.5 10v53
c0 14.667 -2.16699 27.834 -6.5 39.501s-12 20.834 -23 27.501s-26.5 10 -46.5 10c-22 0 -39 -3.33301 -51 -10s-20.167 -14.834 -24.5 -24.501s-6.5 -19.834 -6.5 -30.501v-12h-111c-0.666992 2.66699 -1 5.66699 -1 9v11c0 32.667 8.33301 60.167 25 82.5s39.667 39 69 50
s63 16.5 101 16.5c42 0 77.167 -6 105.5 -18s49.666 -30.167 63.999 -54.5s21.5 -55.833 21.5 -94.5v-253c0 -12 3.16699 -20.667 9.5 -26s13.833 -8 22.5 -8h29v-80c-7.33301 -3.33301 -17.333 -6.66602 -30 -9.99902s-27.334 -5 -44.001 -5s-31.334 2.83301 -44.001 8.5
s-23 13.834 -31 24.501s-13.333 23 -16 37h-6c-10 -13.333 -21.833 -25.5 -35.5 -36.5s-29.834 -19.5 -48.501 -25.5s-40.334 -9 -65.001 -9zM219.006 82.9971c16.667 0 31.499 2.99805 44.499 8.99805s24 14.167 33 24.5s16 23 21 38s7.5 31.5 7.5 49.5v35
c-35.333 0 -66.166 -3.16699 -92.499 -9.5s-46.666 -16.166 -60.999 -29.499s-21.5 -30.666 -21.5 -51.999c0 -13.333 2.5 -24.833 7.5 -34.5s12.667 -17.167 23 -22.5s23.166 -8 38.499 -8zM103.005 590.995l97 132h99l97 -132h-93l-79 111l52 -1l-80 -110h-93z" />
    <glyph glyph-name="atilde" unicode="&#xe3;" horiz-adv-x="506" 
d="M182 -12c-16 0 -32.8271 2.16406 -50.4941 6.49707s-34.167 11.833 -49.5 22.5s-27.5 25.667 -36.5 45s-13.5 43.333 -13.5 72c0 32.667 6.5 60.5 19.5 83.5s32.167 41.833 57.5 56.5s56.166 25.334 92.499 32.001s77.5 10 123.5 10v53
c0 14.667 -2.16699 27.834 -6.5 39.501s-12 20.834 -23 27.501s-26.5 10 -46.5 10c-22 0 -39 -3.33301 -51 -10s-20.167 -14.834 -24.5 -24.501s-6.5 -19.834 -6.5 -30.501v-12h-111c-0.666992 2.66699 -1 5.66699 -1 9v11c0 32.667 8.33301 60.167 25 82.5s39.667 39 69 50
s63 16.5 101 16.5c42 0 77.167 -6 105.5 -18s49.666 -30.167 63.999 -54.5s21.5 -55.833 21.5 -94.5v-253c0 -12 3.16699 -20.667 9.5 -26s13.833 -8 22.5 -8h29v-80c-7.33301 -3.33301 -17.333 -6.66602 -30 -9.99902s-27.334 -5 -44.001 -5s-31.334 2.83301 -44.001 8.5
s-23 13.834 -31 24.501s-13.333 23 -16 37h-6c-10 -13.333 -21.833 -25.5 -35.5 -36.5s-29.834 -19.5 -48.501 -25.5s-40.334 -9 -65.001 -9zM219.006 82.9971c16.667 0 31.499 2.99805 44.499 8.99805s24 14.167 33 24.5s16 23 21 38s7.5 31.5 7.5 49.5v35
c-35.333 0 -66.166 -3.16699 -92.499 -9.5s-46.666 -16.166 -60.999 -29.499s-21.5 -30.666 -21.5 -51.999c0 -13.333 2.5 -24.833 7.5 -34.5s12.667 -17.167 23 -22.5s23.166 -8 38.499 -8zM97.0049 609.995c0 21.333 2.99902 40.332 8.99902 56.999
s15.5 29.834 28.5 39.501s29.167 14.5 48.5 14.5c16 0 31 -2.66699 45 -8s27.667 -10.833 41 -16.5s26.666 -8.5 39.999 -8.5c9.33301 0 16.5 2.66699 21.5 8s8.5 14 10.5 26h61c0 -20.667 -3.16699 -39.5 -9.5 -56.5s-15.666 -30.5 -27.999 -40.5s-28.5 -15 -48.5 -15
c-15.333 0 -30 3 -44 9s-27.667 11.833 -41 17.5s-27 8.5 -41 8.5c-8.66699 0 -15.667 -2.83301 -21 -8.5s-8.66602 -14.5 -9.99902 -26.5h-62z" />
    <glyph glyph-name="adieresis" unicode="&#xe4;" horiz-adv-x="506" 
d="M182 -12c-16 0 -32.8271 2.16406 -50.4941 6.49707s-34.167 11.833 -49.5 22.5s-27.5 25.667 -36.5 45s-13.5 43.333 -13.5 72c0 32.667 6.5 60.5 19.5 83.5s32.167 41.833 57.5 56.5s56.166 25.334 92.499 32.001s77.5 10 123.5 10v53
c0 14.667 -2.16699 27.834 -6.5 39.501s-12 20.834 -23 27.501s-26.5 10 -46.5 10c-22 0 -39 -3.33301 -51 -10s-20.167 -14.834 -24.5 -24.501s-6.5 -19.834 -6.5 -30.501v-12h-111c-0.666992 2.66699 -1 5.66699 -1 9v11c0 32.667 8.33301 60.167 25 82.5s39.667 39 69 50
s63 16.5 101 16.5c42 0 77.167 -6 105.5 -18s49.666 -30.167 63.999 -54.5s21.5 -55.833 21.5 -94.5v-253c0 -12 3.16699 -20.667 9.5 -26s13.833 -8 22.5 -8h29v-80c-7.33301 -3.33301 -17.333 -6.66602 -30 -9.99902s-27.334 -5 -44.001 -5s-31.334 2.83301 -44.001 8.5
s-23 13.834 -31 24.501s-13.333 23 -16 37h-6c-10 -13.333 -21.833 -25.5 -35.5 -36.5s-29.834 -19.5 -48.501 -25.5s-40.334 -9 -65.001 -9zM219.006 82.9971c16.667 0 31.499 2.99805 44.499 8.99805s24 14.167 33 24.5s16 23 21 38s7.5 31.5 7.5 49.5v35
c-35.333 0 -66.166 -3.16699 -92.499 -9.5s-46.666 -16.166 -60.999 -29.499s-21.5 -30.666 -21.5 -51.999c0 -13.333 2.5 -24.833 7.5 -34.5s12.667 -17.167 23 -22.5s23.166 -8 38.499 -8zM112.005 615.995v107h97v-107h-97zM290.005 615.995v107h97v-107h-97z" />
    <glyph glyph-name="aring" unicode="&#xe5;" horiz-adv-x="506" 
d="M182 -12c-16 0 -32.8271 2.16406 -50.4941 6.49707s-34.167 11.833 -49.5 22.5s-27.5 25.667 -36.5 45s-13.5 43.333 -13.5 72c0 32.667 6.5 60.5 19.5 83.5s32.167 41.833 57.5 56.5s56.166 25.334 92.499 32.001s77.5 10 123.5 10v53
c0 14.667 -2.16699 27.834 -6.5 39.501s-12 20.834 -23 27.501s-26.5 10 -46.5 10c-22 0 -39 -3.33301 -51 -10s-20.167 -14.834 -24.5 -24.501s-6.5 -19.834 -6.5 -30.501v-12h-111c-0.666992 2.66699 -1 5.66699 -1 9v11c0 32.667 8.33301 60.167 25 82.5s39.667 39 69 50
s63 16.5 101 16.5c42 0 77.167 -6 105.5 -18s49.666 -30.167 63.999 -54.5s21.5 -55.833 21.5 -94.5v-253c0 -12 3.16699 -20.667 9.5 -26s13.833 -8 22.5 -8h29v-80c-7.33301 -3.33301 -17.333 -6.66602 -30 -9.99902s-27.334 -5 -44.001 -5s-31.334 2.83301 -44.001 8.5
s-23 13.834 -31 24.501s-13.333 23 -16 37h-6c-10 -13.333 -21.833 -25.5 -35.5 -36.5s-29.834 -19.5 -48.501 -25.5s-40.334 -9 -65.001 -9zM219.006 82.9971c16.667 0 31.499 2.99805 44.499 8.99805s24 14.167 33 24.5s16 23 21 38s7.5 31.5 7.5 49.5v35
c-35.333 0 -66.166 -3.16699 -92.499 -9.5s-46.666 -16.166 -60.999 -29.499s-21.5 -30.666 -21.5 -51.999c0 -13.333 2.5 -24.833 7.5 -34.5s12.667 -17.167 23 -22.5s23.166 -8 38.499 -8zM250.005 578.995c-27.333 0 -50 9.33301 -68 28s-27 42.334 -27 71.001
c0 29.333 9 53.333 27 72s40.667 28 68 28c28 0 50.833 -9.33301 68.5 -28s26.5 -42.667 26.5 -72c0 -28.667 -9 -52.334 -27 -71.001s-40.667 -28 -68 -28zM250.005 630.995c12.667 0 22.834 4.33301 30.501 13s11.5 20 11.5 34s-3.83301 25.5 -11.5 34.5
s-17.834 13.5 -30.501 13.5c-12 0 -22 -4.5 -30 -13.5s-12 -20.5 -12 -34.5s4 -25.333 12 -34s18 -13 30 -13z" />
    <glyph glyph-name="ae" unicode="&#xe6;" horiz-adv-x="803" 
d="M203 -12c-18 0 -36.8301 2.17285 -56.4971 6.50586s-38.334 11.833 -56.001 22.5s-31.834 25.667 -42.501 45s-16 43.333 -16 72c0 32.667 6.83301 60.5 20.5 83.5s33.667 41.667 60 56s58.5 24.833 96.5 31.5s81.333 10 130 10v54c0 15.333 -2.33301 28.666 -7 39.999
s-13.167 20.333 -25.5 27s-29.5 10 -51.5 10c-23.333 0 -41.5 -3.33301 -54.5 -10s-21.833 -14.834 -26.5 -24.501s-7 -19.834 -7 -30.501v-12h-111c-0.666992 2.66699 -1 5.5 -1 8.5v9.5c0 33.333 8.33301 61.166 25 83.499s40.167 39.166 70.5 50.499s65.5 17 105.5 17
c35.333 0 65.833 -4.5 91.5 -13.5s46.5 -23.167 62.5 -42.5c18 19.333 39.5 33.5 64.5 42.5s53.5 13.5 85.5 13.5c46.667 0 85.167 -8.83301 115.5 -26.5s53.166 -46 68.499 -85s23 -91.167 23 -156.5v-33h-312c0.666992 -35.333 4.33398 -64.833 11.001 -88.5
s17.667 -41.167 33 -52.5s35.666 -17 60.999 -17c14 0 26.5 2 37.5 6s20.667 10.333 29 19s14.666 19.667 18.999 33s6.5 29 6.5 47h115c-0.666992 -33.333 -6 -62.333 -16 -87s-24.333 -45 -43 -61s-40.5 -28 -65.5 -36s-52.833 -12 -83.5 -12c-42 0 -77.5 6.5 -106.5 19.5
s-52.167 32.833 -69.5 59.5c-12.667 -16.667 -27.667 -30.834 -45 -42.501s-37.166 -20.667 -59.499 -27s-47.5 -9.5 -75.5 -9.5zM225.003 81.0059c17.333 0 33 2.83203 47 8.49902s26 13.834 36 24.501s17.667 23.667 23 39s8 32.666 8 51.999v32
c-38 0 -71.167 -2.83301 -99.5 -8.5s-50.333 -15.167 -66 -28.5s-23.5 -30.666 -23.5 -51.999c0 -14 2.83301 -26 8.5 -36s14 -17.667 25 -23s24.833 -8 41.5 -8zM456.003 315.005l191.002 -0.000976562c0 24 -2 44.333 -6 61s-9.66699 30.334 -17 41.001
s-16.333 18.334 -27 23.001s-23.334 7 -38.001 7c-22.667 0 -41.334 -4.83301 -56.001 -14.5s-25.667 -24.334 -33 -44.001s-12 -44.167 -14 -73.5z" />
    <glyph glyph-name="ccedilla" unicode="&#xe7;" horiz-adv-x="493" 
d="M254 -12c-49.333 0 -90.1631 9.83105 -122.496 29.498s-56.333 49.834 -72 90.501s-23.5 92.334 -23.5 155.001c0 64 8.16699 116.333 24.5 157s40.666 70.5 72.999 89.5s72.833 28.5 121.5 28.5c33.333 0 62.5 -4.16699 87.5 -12.5s46 -21.333 63 -39
s29.833 -39.667 38.5 -66s13 -57.5 13 -93.5h-117c0 27.333 -2.83301 49.5 -8.5 66.5s-14.834 29.667 -27.501 38s-29.334 12.5 -50.001 12.5c-22.667 0 -41.334 -5.83301 -56.001 -17.5s-25.5 -29.5 -32.5 -53.5s-10.5 -55.667 -10.5 -95v-31
c0 -33.333 3.16699 -62.5 9.5 -87.5s17 -44 32 -57s35.167 -19.5 60.5 -19.5c20 0 36.333 4 49 12s22.334 20.667 29.001 38s10 39.333 10 66h112c0 -32.667 -4.33301 -62 -13 -88s-21.334 -48.167 -38.001 -66.5s-37.667 -32.333 -63 -42s-55 -14.5 -89 -14.5z
M250.003 -187.002c-15.333 0 -30.999 0.831055 -46.999 2.49805s-30.333 3.83398 -43 6.50098v48h78c13.333 0 23.5 1.83301 30.5 5.5s10.5 10.167 10.5 19.5c0 8.66699 -2.83301 14.834 -8.5 18.501s-15.834 5.5 -30.501 5.5h-36l14 97h70l-5 -51
c14 -0.666992 27.333 -3.5 40 -8.5s23 -12.333 31 -22s12 -22.5 12 -38.5c0 -17.333 -3.83301 -31.5 -11.5 -42.5s-17.5 -19.333 -29.5 -25s-24.5 -9.66699 -37.5 -12s-25.5 -3.5 -37.5 -3.5z" />
    <glyph glyph-name="egrave" unicode="&#xe8;" horiz-adv-x="507" 
d="M261 -12c-50.667 0 -92.667 9.66797 -126 29.001s-58.166 49.333 -74.499 90s-24.5 92.667 -24.5 156c0 64.667 8.16699 117.167 24.5 157.5s41.333 70 75 89s76.167 28.5 127.5 28.5c46 0 84.5 -8.83301 115.5 -26.5s54.167 -45.834 69.5 -84.501s23 -89.667 23 -153
v-38h-316c0.666992 -34.667 4.5 -63.667 11.5 -87s18.167 -40.5 33.5 -51.5s36 -16.5 62 -16.5c13.333 0 25.833 2 37.5 6s21.667 10.167 30 18.5s14.833 19 19.5 32s7.33398 28.5 8.00098 46.5h114c-0.666992 -33.333 -6 -62.333 -16 -87s-24.333 -45 -43 -61
s-40.834 -28 -66.501 -36s-53.834 -12 -84.501 -12zM156 314.001l195.001 -0.00195312c0 24 -1.83301 44.167 -5.5 60.5s-9.33398 29.833 -17.001 40.5s-17 18.334 -28 23.001s-23.833 7 -38.5 7c-23.333 0 -42.5 -4.83301 -57.5 -14.5s-26.333 -24.167 -34 -43.5
s-12.5 -43.666 -14.5 -72.999zM321.001 590.999h-90l-100 129l1 3h115z" />
    <glyph glyph-name="eacute" unicode="&#xe9;" horiz-adv-x="507" 
d="M261 -12c-50.667 0 -92.667 9.66797 -126 29.001s-58.166 49.333 -74.499 90s-24.5 92.667 -24.5 156c0 64.667 8.16699 117.167 24.5 157.5s41.333 70 75 89s76.167 28.5 127.5 28.5c46 0 84.5 -8.83301 115.5 -26.5s54.167 -45.834 69.5 -84.501s23 -89.667 23 -153
v-38h-316c0.666992 -34.667 4.5 -63.667 11.5 -87s18.167 -40.5 33.5 -51.5s36 -16.5 62 -16.5c13.333 0 25.833 2 37.5 6s21.667 10.167 30 18.5s14.833 19 19.5 32s7.33398 28.5 8.00098 46.5h114c-0.666992 -33.333 -6 -62.333 -16 -87s-24.333 -45 -43 -61
s-40.834 -28 -66.501 -36s-53.834 -12 -84.501 -12zM156 314.001l195.001 -0.00195312c0 24 -1.83301 44.167 -5.5 60.5s-9.33398 29.833 -17.001 40.5s-17 18.334 -28 23.001s-23.833 7 -38.5 7c-23.333 0 -42.5 -4.83301 -57.5 -14.5s-26.333 -24.167 -34 -43.5
s-12.5 -43.666 -14.5 -72.999zM204.001 590.999l74 132h116v-3l-100 -129h-90z" />
    <glyph glyph-name="ecircumflex" unicode="&#xea;" horiz-adv-x="507" 
d="M261 -12c-50.667 0 -92.667 9.66797 -126 29.001s-58.166 49.333 -74.499 90s-24.5 92.667 -24.5 156c0 64.667 8.16699 117.167 24.5 157.5s41.333 70 75 89s76.167 28.5 127.5 28.5c46 0 84.5 -8.83301 115.5 -26.5s54.167 -45.834 69.5 -84.501s23 -89.667 23 -153
v-38h-316c0.666992 -34.667 4.5 -63.667 11.5 -87s18.167 -40.5 33.5 -51.5s36 -16.5 62 -16.5c13.333 0 25.833 2 37.5 6s21.667 10.167 30 18.5s14.833 19 19.5 32s7.33398 28.5 8.00098 46.5h114c-0.666992 -33.333 -6 -62.333 -16 -87s-24.333 -45 -43 -61
s-40.834 -28 -66.501 -36s-53.834 -12 -84.501 -12zM156 314.001l195.001 -0.00195312c0 24 -1.83301 44.167 -5.5 60.5s-9.33398 29.833 -17.001 40.5s-17 18.334 -28 23.001s-23.833 7 -38.5 7c-23.333 0 -42.5 -4.83301 -57.5 -14.5s-26.333 -24.167 -34 -43.5
s-12.5 -43.666 -14.5 -72.999zM114.001 590.999l96 132h100l96 -132h-93l-79 111l52 -1l-80 -110h-92z" />
    <glyph glyph-name="edieresis" unicode="&#xeb;" horiz-adv-x="507" 
d="M261 -12c-50.667 0 -92.667 9.66797 -126 29.001s-58.166 49.333 -74.499 90s-24.5 92.667 -24.5 156c0 64.667 8.16699 117.167 24.5 157.5s41.333 70 75 89s76.167 28.5 127.5 28.5c46 0 84.5 -8.83301 115.5 -26.5s54.167 -45.834 69.5 -84.501s23 -89.667 23 -153
v-38h-316c0.666992 -34.667 4.5 -63.667 11.5 -87s18.167 -40.5 33.5 -51.5s36 -16.5 62 -16.5c13.333 0 25.833 2 37.5 6s21.667 10.167 30 18.5s14.833 19 19.5 32s7.33398 28.5 8.00098 46.5h114c-0.666992 -33.333 -6 -62.333 -16 -87s-24.333 -45 -43 -61
s-40.834 -28 -66.501 -36s-53.834 -12 -84.501 -12zM156 314.001l195.001 -0.00195312c0 24 -1.83301 44.167 -5.5 60.5s-9.33398 29.833 -17.001 40.5s-17 18.334 -28 23.001s-23.833 7 -38.5 7c-23.333 0 -42.5 -4.83301 -57.5 -14.5s-26.333 -24.167 -34 -43.5
s-12.5 -43.666 -14.5 -72.999zM122.001 615.999v107h97v-107h-97zM300.001 615.999v107h97v-107h-97z" />
    <glyph glyph-name="igrave" unicode="&#xec;" horiz-adv-x="233" 
d="M58 0v526h116v-526h-116zM176 591h-89l-101 129l1 3h116z" />
    <glyph glyph-name="iacute" unicode="&#xed;" horiz-adv-x="233" 
d="M58 0v526h116v-526h-116zM60 591l73 132h116l1 -3l-101 -129h-89z" />
    <glyph glyph-name="icircumflex" unicode="&#xee;" horiz-adv-x="233" 
d="M58 0v526h116v-526h-116zM-31 591l97 132h99l96 -132h-92l-79 111l51 -1l-80 -110h-92z" />
    <glyph glyph-name="idieresis" unicode="&#xef;" horiz-adv-x="233" 
d="M58 0v526h116v-526h-116zM-22 616v107h96v-107h-96zM156 616v107h96v-107h-96z" />
    <glyph glyph-name="eth" unicode="&#xf0;" horiz-adv-x="544" 
d="M271 -12c-50.667 0 -92.998 9.50098 -126.998 28.501s-59.667 48.667 -77 89s-26 92.166 -26 155.499c0 60 7.66699 110.167 23 150.5s37.5 70.666 66.5 90.999s63.833 30.5 104.5 30.5c13.333 0 26.166 -1.16699 38.499 -3.5s24.166 -5.83301 35.499 -10.5l3 3
c-9.33301 14.667 -18.833 29 -28.5 43s-20.167 27.667 -31.5 41l-139 -11v64l85 7c-9.33301 9.33301 -18.833 18.333 -28.5 27s-19.5 17.334 -29.5 26.001l3 4h129c6 -4 12 -8.66699 18 -14s12 -10.833 18 -16.5s11.333 -11.167 16 -16.5l135 11v-64l-81 -7
c26.667 -32.667 49.167 -67.334 67.5 -104.001s32.5 -75.667 42.5 -117s15 -86 15 -134c0 -63.333 -8.66699 -115.166 -26 -155.499s-43 -70 -77 -89s-77 -28.5 -129 -28.5zM272.002 83.001c26.667 0 48.168 5.83203 64.501 17.499s28.166 29.334 35.499 53.001
s11 53.834 11 90.501v33c0 37.333 -3.83301 67.833 -11.5 91.5s-19.667 41.167 -36 52.5s-37.5 17 -63.5 17c-26.667 0 -48.167 -5.66699 -64.5 -17s-28.166 -29 -35.499 -53s-11 -54 -11 -90v-33c0 -37.333 3.66699 -67.833 11 -91.5s19.166 -41.334 35.499 -53.001
s37.833 -17.5 64.5 -17.5z" />
    <glyph glyph-name="ntilde" unicode="&#xf1;" horiz-adv-x="522" 
d="M58 0v526.001h97l10 -68h6c10.667 16.667 23.167 31 37.5 43s30.833 21.167 49.5 27.5s39 9.5 61 9.5c30.667 0 57 -5.5 79 -16.5s39.167 -28.667 51.5 -53s18.5 -56.833 18.5 -97.5v-371h-116v347c0 16 -1.66699 29.333 -5 40s-8.33301 19.667 -15 27
s-15 12.666 -25 15.999s-21.333 5 -34 5c-18.667 0 -35.5 -5.16699 -50.5 -15.5s-26.833 -25 -35.5 -44s-13 -41.833 -13 -68.5v-307h-116zM111 610.001c0 21.333 3.00293 40.332 9.00293 56.999s15.333 29.834 28 39.501s28.667 14.5 48 14.5c16 0 31 -2.66699 45 -8
s27.667 -10.833 41 -16.5s27 -8.5 41 -8.5c8.66699 0 15.667 2.66699 21 8s8.66602 14 9.99902 26h62c0 -20.667 -3.16699 -39.5 -9.5 -56.5s-15.833 -30.5 -28.5 -40.5s-29 -15 -49 -15c-15.333 0 -30 3 -44 9s-27.5 11.833 -40.5 17.5s-26.5 8.5 -40.5 8.5
c-8.66699 0 -15.834 -2.83301 -21.501 -8.5s-8.83398 -14.5 -9.50098 -26.5h-62z" />
    <glyph glyph-name="ograve" unicode="&#xf2;" horiz-adv-x="533" 
d="M266 -12c-50.667 0 -93.167 9.66699 -127.5 29s-60 49.333 -77 90s-25.5 92.667 -25.5 156c0 64 8.5 116.167 25.5 156.5s42.667 70.166 77 89.499s76.833 29 127.5 29c52 0 95 -9.66699 129 -29s59.5 -49.166 76.5 -89.499s25.5 -92.5 25.5 -156.5
c0 -63.333 -8.5 -115.333 -25.5 -156s-42.5 -70.667 -76.5 -90s-77 -29 -129 -29zM266 83c27.333 0 49 5.83301 65 17.5s27.833 29.667 35.5 54s11.5 55.5 11.5 93.5v30c0 38 -3.83301 69.167 -11.5 93.5s-19.5 42.333 -35.5 54s-37.667 17.5 -65 17.5
c-26 0 -47.167 -5.83301 -63.5 -17.5s-28.333 -29.667 -36 -54s-11.5 -55.5 -11.5 -93.5v-30c0 -38 3.83301 -69.167 11.5 -93.5s19.667 -42.333 36 -54s37.5 -17.5 63.5 -17.5zM328 591h-90l-100 129v3h116z" />
    <glyph glyph-name="oacute" unicode="&#xf3;" horiz-adv-x="533" 
d="M266 -12c-50.667 0 -93.167 9.66699 -127.5 29s-60 49.333 -77 90s-25.5 92.667 -25.5 156c0 64 8.5 116.167 25.5 156.5s42.667 70.166 77 89.499s76.833 29 127.5 29c52 0 95 -9.66699 129 -29s59.5 -49.166 76.5 -89.499s25.5 -92.5 25.5 -156.5
c0 -63.333 -8.5 -115.333 -25.5 -156s-42.5 -70.667 -76.5 -90s-77 -29 -129 -29zM266 83c27.333 0 49 5.83301 65 17.5s27.833 29.667 35.5 54s11.5 55.5 11.5 93.5v30c0 38 -3.83301 69.167 -11.5 93.5s-19.5 42.333 -35.5 54s-37.667 17.5 -65 17.5
c-26 0 -47.167 -5.83301 -63.5 -17.5s-28.333 -29.667 -36 -54s-11.5 -55.5 -11.5 -93.5v-30c0 -38 3.83301 -69.167 11.5 -93.5s19.667 -42.333 36 -54s37.5 -17.5 63.5 -17.5zM211 591l73 132h116l1 -3l-101 -129h-89z" />
    <glyph glyph-name="ocircumflex" unicode="&#xf4;" horiz-adv-x="533" 
d="M266 -12c-50.667 0 -93.167 9.66699 -127.5 29s-60 49.333 -77 90s-25.5 92.667 -25.5 156c0 64 8.5 116.167 25.5 156.5s42.667 70.166 77 89.499s76.833 29 127.5 29c52 0 95 -9.66699 129 -29s59.5 -49.166 76.5 -89.499s25.5 -92.5 25.5 -156.5
c0 -63.333 -8.5 -115.333 -25.5 -156s-42.5 -70.667 -76.5 -90s-77 -29 -129 -29zM266 83c27.333 0 49 5.83301 65 17.5s27.833 29.667 35.5 54s11.5 55.5 11.5 93.5v30c0 38 -3.83301 69.167 -11.5 93.5s-19.5 42.333 -35.5 54s-37.667 17.5 -65 17.5
c-26 0 -47.167 -5.83301 -63.5 -17.5s-28.333 -29.667 -36 -54s-11.5 -55.5 -11.5 -93.5v-30c0 -38 3.83301 -69.167 11.5 -93.5s19.667 -42.333 36 -54s37.5 -17.5 63.5 -17.5zM120 591l97 132h99l96 -132h-92l-79 111l52 -1l-81 -110h-92z" />
    <glyph glyph-name="otilde" unicode="&#xf5;" horiz-adv-x="533" 
d="M266 -12c-50.667 0 -93.167 9.66699 -127.5 29s-60 49.333 -77 90s-25.5 92.667 -25.5 156c0 64 8.5 116.167 25.5 156.5s42.667 70.166 77 89.499s76.833 29 127.5 29c52 0 95 -9.66699 129 -29s59.5 -49.166 76.5 -89.499s25.5 -92.5 25.5 -156.5
c0 -63.333 -8.5 -115.333 -25.5 -156s-42.5 -70.667 -76.5 -90s-77 -29 -129 -29zM266 83c27.333 0 49 5.83301 65 17.5s27.833 29.667 35.5 54s11.5 55.5 11.5 93.5v30c0 38 -3.83301 69.167 -11.5 93.5s-19.5 42.333 -35.5 54s-37.667 17.5 -65 17.5
c-26 0 -47.167 -5.83301 -63.5 -17.5s-28.333 -29.667 -36 -54s-11.5 -55.5 -11.5 -93.5v-30c0 -38 3.83301 -69.167 11.5 -93.5s19.667 -42.333 36 -54s37.5 -17.5 63.5 -17.5zM114 610c0 21.333 2.99609 40.332 8.99609 56.999s15.5 29.834 28.5 39.501
s29.167 14.5 48.5 14.5c16 0 30.833 -2.66699 44.5 -8s27.334 -10.833 41.001 -16.5s27.167 -8.5 40.5 -8.5c9.33301 0 16.5 2.66699 21.5 8s8.5 14 10.5 26h61c0 -20.667 -3.16699 -39.5 -9.5 -56.5s-15.666 -30.5 -27.999 -40.5s-28.5 -15 -48.5 -15
c-15.333 0 -30.166 3 -44.499 9s-28 11.833 -41 17.5s-26.5 8.5 -40.5 8.5c-8.66699 0 -15.667 -2.83301 -21 -8.5s-8.66602 -14.5 -9.99902 -26.5h-62z" />
    <glyph glyph-name="odieresis" unicode="&#xf6;" horiz-adv-x="533" 
d="M266 -12c-50.667 0 -93.167 9.66699 -127.5 29s-60 49.333 -77 90s-25.5 92.667 -25.5 156c0 64 8.5 116.167 25.5 156.5s42.667 70.166 77 89.499s76.833 29 127.5 29c52 0 95 -9.66699 129 -29s59.5 -49.166 76.5 -89.499s25.5 -92.5 25.5 -156.5
c0 -63.333 -8.5 -115.333 -25.5 -156s-42.5 -70.667 -76.5 -90s-77 -29 -129 -29zM267 83c26.667 0 48 5.83301 64 17.5s27.833 29.667 35.5 54s11.5 55.5 11.5 93.5v30c0 38 -3.83301 69.167 -11.5 93.5s-19.5 42.333 -35.5 54s-37.333 17.5 -64 17.5
s-48.167 -5.83301 -64.5 -17.5s-28.333 -29.667 -36 -54s-11.5 -55.5 -11.5 -93.5v-30c0 -38 3.83301 -69.167 11.5 -93.5s19.667 -42.333 36 -54s37.833 -17.5 64.5 -17.5zM129 616v107h96v-107h-96zM307 616v107h97v-107h-97z" />
    <glyph glyph-name="divide" unicode="&#xf7;" horiz-adv-x="587" 
d="M72 209v95h442v-95h-442zM240 13v104h106v-104h-106zM240 398v103h106v-103h-106z" />
    <glyph glyph-name="oslash" unicode="&#xf8;" horiz-adv-x="533" 
d="M266 -12c-50.667 0 -93.167 9.66699 -127.5 29s-60 49.333 -77 90s-25.5 92.667 -25.5 156c0 64 8.5 116.167 25.5 156.5s42.667 70.166 77 89.499s76.833 29 127.5 29c52 0 95 -9.66699 129 -29s59.5 -49.166 76.5 -89.499s25.5 -92.5 25.5 -156.5
c0 -63.333 -8.5 -115.333 -25.5 -156s-42.5 -70.667 -76.5 -90s-77 -29 -129 -29zM266 83c27.333 0 49 5.83301 65 17.5s27.833 29.667 35.5 54s11.5 55.5 11.5 93.5v30c0 38 -3.83301 69.167 -11.5 93.5s-19.5 42.333 -35.5 54s-37.667 17.5 -65 17.5
c-26 0 -47.167 -5.83301 -63.5 -17.5s-28.333 -29.667 -36 -54s-11.5 -55.5 -11.5 -93.5v-30c0 -38 3.83301 -69.167 11.5 -93.5s19.667 -42.333 36 -54s37.5 -17.5 63.5 -17.5zM35 -46l394 620h69l-393 -620h-70z" />
    <glyph glyph-name="ugrave" unicode="&#xf9;" horiz-adv-x="522" 
d="M203 -12c-45.333 0 -81.501 12.833 -108.501 38.5s-40.5 68.5 -40.5 128.5v371h116v-347c0 -15.333 1.66699 -28.5 5 -39.5s8.33301 -20 15 -27s14.834 -12.167 24.501 -15.5s20.834 -5 33.501 -5c19.333 0 36.5 5.16699 51.5 15.5s26.833 25.166 35.5 44.499
s13 42 13 68v306h115v-526h-96l-9 69h-6c-10.667 -16.667 -23.167 -31.167 -37.5 -43.5s-30.833 -21.666 -49.5 -27.999s-39.334 -9.5 -62.001 -9.5zM321.999 591h-89l-101 129l1 3h116z" />
    <glyph glyph-name="uacute" unicode="&#xfa;" horiz-adv-x="522" 
d="M203 -12c-45.333 0 -81.501 12.833 -108.501 38.5s-40.5 68.5 -40.5 128.5v371h116v-347c0 -15.333 1.66699 -28.5 5 -39.5s8.33301 -20 15 -27s14.834 -12.167 24.501 -15.5s20.834 -5 33.501 -5c19.333 0 36.5 5.16699 51.5 15.5s26.833 25.166 35.5 44.499
s13 42 13 68v306h115v-526h-96l-9 69h-6c-10.667 -16.667 -23.167 -31.167 -37.5 -43.5s-30.833 -21.666 -49.5 -27.999s-39.334 -9.5 -62.001 -9.5zM205.999 591l73 132h116l1 -3l-101 -129h-89z" />
    <glyph glyph-name="ucircumflex" unicode="&#xfb;" horiz-adv-x="522" 
d="M203 -12c-45.333 0 -81.501 12.833 -108.501 38.5s-40.5 68.5 -40.5 128.5v371h116v-347c0 -15.333 1.66699 -28.5 5 -39.5s8.33301 -20 15 -27s14.834 -12.167 24.501 -15.5s20.834 -5 33.501 -5c19.333 0 36.5 5.16699 51.5 15.5s26.833 25.166 35.5 44.499
s13 42 13 68v306h115v-526h-96l-9 69h-6c-10.667 -16.667 -23.167 -31.167 -37.5 -43.5s-30.833 -21.666 -49.5 -27.999s-39.334 -9.5 -62.001 -9.5zM114.999 591l97 132h99l96 -132h-92l-79 111l51 -1l-80 -110h-92z" />
    <glyph glyph-name="udieresis" unicode="&#xfc;" horiz-adv-x="522" 
d="M203 -12c-45.333 0 -81.501 12.833 -108.501 38.5s-40.5 68.5 -40.5 128.5v371h116v-347c0 -15.333 1.66699 -28.5 5 -39.5s8.33301 -20 15 -27s14.834 -12.167 24.501 -15.5s20.834 -5 33.501 -5c19.333 0 36.5 5.16699 51.5 15.5s26.833 25.166 35.5 44.499
s13 42 13 68v306h115v-526h-96l-9 69h-6c-10.667 -16.667 -23.167 -31.167 -37.5 -43.5s-30.833 -21.666 -49.5 -27.999s-39.334 -9.5 -62.001 -9.5zM123.999 616v107h96v-107h-96zM300.999 616v107h97v-107h-97z" />
    <glyph glyph-name="yacute" unicode="&#xfd;" horiz-adv-x="467" 
d="M120 -187c-20.667 0 -38.332 1.66797 -52.999 5.00098s-24 5.66602 -28 6.99902v84h47c14.667 0 28.167 3.5 40.5 10.5s23.166 17.5 32.499 31.5s16.333 30.333 21 49l-174 526h121l81 -264c3.33301 -10.667 6.83301 -23.667 10.5 -39s7.5 -31 11.5 -47
s7.33301 -30.667 10 -44h6c2 10 4.33301 21.167 7 33.5s5.5 25 8.5 38s6.16699 25.5 9.5 37.5s6 22.667 8 32l67 253h116l-153 -508c-8.66699 -28.667 -18.5 -55.5 -29.5 -80.5s-23.667 -46.667 -38 -65s-31.333 -32.833 -51 -43.5s-43.167 -16 -70.5 -16zM186.002 591.001
l74 132h116v-3l-100 -129h-90z" />
    <glyph glyph-name="thorn" unicode="&#xfe;" horiz-adv-x="530" 
d="M58 -177l-0.000976562 907h116v-264h6c9.33301 16 20.666 29.333 33.999 40s28.833 18.5 46.5 23.5s36.834 7.5 57.501 7.5c36.667 0 68 -9.5 94 -28.5s46 -48.667 60 -89s21 -92.166 21 -155.499c0 -64.667 -7.33301 -117.334 -22 -158.001s-35.167 -70.5 -61.5 -89.5
s-57.166 -28.5 -92.499 -28.5c-21.333 0 -40.833 2.66699 -58.5 8s-33 13.5 -46 24.5s-23.833 24.167 -32.5 39.5h-6v-237h-116zM273.999 89c24.667 0 44.334 5.66992 59.001 17.0029s25.167 29.166 31.5 53.499s9.5 55.166 9.5 92.499v19c0 38.667 -3.16699 70 -9.5 94
s-16.833 41.833 -31.5 53.5s-34.334 17.5 -59.001 17.5c-17.333 0 -32.333 -3.5 -45 -10.5s-23 -17.333 -31 -31s-14 -30.834 -18 -51.501s-6 -44.667 -6 -72v-18c0 -35.333 3.33301 -65.333 10 -90s17.5 -43.167 32.5 -55.5s34.167 -18.5 57.5 -18.5z" />
    <glyph glyph-name="ydieresis" unicode="&#xff;" horiz-adv-x="467" 
d="M120 -187c-20.667 0 -38.332 1.66797 -52.999 5.00098s-24 5.66602 -28 6.99902v84h47c14.667 0 28.167 3.5 40.5 10.5s23.166 17.5 32.499 31.5s16.333 30.333 21 49l-174 526h121l81 -264c3.33301 -10.667 6.83301 -23.667 10.5 -39s7.5 -31 11.5 -47
s7.33301 -30.667 10 -44h6c2 10 4.33301 21.167 7 33.5s5.5 25 8.5 38s6.16699 25.5 9.5 37.5s6 22.667 8 32l67 253h116l-153 -508c-8.66699 -28.667 -18.5 -55.5 -29.5 -80.5s-23.667 -46.667 -38 -65s-31.333 -32.833 -51 -43.5s-43.167 -16 -70.5 -16zM105.002 616.001
v107h96v-107h-96zM282.002 616.001v107h97v-107h-97z" />
    <glyph glyph-name="Amacron" unicode="&#x100;" horiz-adv-x="628" 
d="M3 0l231 686h160l231 -686h-134l-49 150h-262l-48 -150h-129zM213 256l196.001 0.00292969l-61 197c-2 6 -4.33301 13.667 -7 23s-5.66699 19.666 -9 30.999s-6.5 22.666 -9.5 33.999s-5.83301 21.666 -8.5 30.999h-6c-2.66699 -12 -6.33398 -25.833 -11.001 -41.5
s-9.16699 -30.5 -13.5 -44.5s-7.83301 -25 -10.5 -33zM180.001 761.003v78h268v-78h-268z" />
    <glyph glyph-name="amacron" unicode="&#x101;" horiz-adv-x="506" 
d="M182 -12c-16 0 -32.8271 2.16406 -50.4941 6.49707s-34.167 11.833 -49.5 22.5s-27.5 25.667 -36.5 45s-13.5 43.333 -13.5 72c0 32.667 6.5 60.5 19.5 83.5s32.167 41.833 57.5 56.5s56.166 25.334 92.499 32.001s77.5 10 123.5 10v53
c0 14.667 -2.16699 27.834 -6.5 39.501s-12 20.834 -23 27.501s-26.5 10 -46.5 10c-22 0 -39 -3.33301 -51 -10s-20.167 -14.834 -24.5 -24.501s-6.5 -19.834 -6.5 -30.501v-12h-111c-0.666992 2.66699 -1 5.66699 -1 9v11c0 32.667 8.33301 60.167 25 82.5s39.667 39 69 50
s63 16.5 101 16.5c42 0 77.167 -6 105.5 -18s49.666 -30.167 63.999 -54.5s21.5 -55.833 21.5 -94.5v-253c0 -12 3.16699 -20.667 9.5 -26s13.833 -8 22.5 -8h29v-80c-7.33301 -3.33301 -17.333 -6.66602 -30 -9.99902s-27.334 -5 -44.001 -5s-31.334 2.83301 -44.001 8.5
s-23 13.834 -31 24.501s-13.333 23 -16 37h-6c-10 -13.333 -21.833 -25.5 -35.5 -36.5s-29.834 -19.5 -48.501 -25.5s-40.334 -9 -65.001 -9zM219.006 82.9971c16.667 0 31.499 2.99805 44.499 8.99805s24 14.167 33 24.5s16 23 21 38s7.5 31.5 7.5 49.5v35
c-35.333 0 -66.166 -3.16699 -92.499 -9.5s-46.666 -16.166 -60.999 -29.499s-21.5 -30.666 -21.5 -51.999c0 -13.333 2.5 -24.833 7.5 -34.5s12.667 -17.167 23 -22.5s23.166 -8 38.499 -8zM115.005 620.995v79h269v-79h-269z" />
    <glyph glyph-name="Abreve" unicode="&#x102;" horiz-adv-x="628" 
d="M3 0l231 686h160l231 -686h-134l-49 150h-262l-48 -150h-129zM213 256l196.001 0.00292969l-61 197c-2 6 -4.33301 13.667 -7 23s-5.66699 19.666 -9 30.999s-6.5 22.666 -9.5 33.999s-5.83301 21.666 -8.5 30.999h-6c-2.66699 -12 -6.33398 -25.833 -11.001 -41.5
s-9.16699 -30.5 -13.5 -44.5s-7.83301 -25 -10.5 -33zM314.001 743.003c-34.667 0 -62 6.49707 -82 19.4971s-34.333 29.5 -43 49.5s-13 39.667 -13 59h70c1.33301 -7.33301 4.16602 -15.166 8.49902 -23.499s11.5 -15.333 21.5 -21s22.667 -8.5 38 -8.5
c16.667 0 30 2.83301 40 8.5s17.333 12.834 22 21.501s7.33398 16.334 8.00098 23.001h69c0 -19.333 -4.5 -39 -13.5 -59s-23.5 -36.5 -43.5 -49.5s-47.333 -19.5 -82 -19.5z" />
    <glyph glyph-name="abreve" unicode="&#x103;" horiz-adv-x="506" 
d="M182 -12c-16 0 -32.8271 2.16406 -50.4941 6.49707s-34.167 11.833 -49.5 22.5s-27.5 25.667 -36.5 45s-13.5 43.333 -13.5 72c0 32.667 6.5 60.5 19.5 83.5s32.167 41.833 57.5 56.5s56.166 25.334 92.499 32.001s77.5 10 123.5 10v53
c0 14.667 -2.16699 27.834 -6.5 39.501s-12 20.834 -23 27.501s-26.5 10 -46.5 10c-22 0 -39 -3.33301 -51 -10s-20.167 -14.834 -24.5 -24.501s-6.5 -19.834 -6.5 -30.501v-12h-111c-0.666992 2.66699 -1 5.66699 -1 9v11c0 32.667 8.33301 60.167 25 82.5s39.667 39 69 50
s63 16.5 101 16.5c42 0 77.167 -6 105.5 -18s49.666 -30.167 63.999 -54.5s21.5 -55.833 21.5 -94.5v-253c0 -12 3.16699 -20.667 9.5 -26s13.833 -8 22.5 -8h29v-80c-7.33301 -3.33301 -17.333 -6.66602 -30 -9.99902s-27.334 -5 -44.001 -5s-31.334 2.83301 -44.001 8.5
s-23 13.834 -31 24.501s-13.333 23 -16 37h-6c-10 -13.333 -21.833 -25.5 -35.5 -36.5s-29.834 -19.5 -48.501 -25.5s-40.334 -9 -65.001 -9zM219.006 82.9971c16.667 0 31.499 2.99805 44.499 8.99805s24 14.167 33 24.5s16 23 21 38s7.5 31.5 7.5 49.5v35
c-35.333 0 -66.166 -3.16699 -92.499 -9.5s-46.666 -16.166 -60.999 -29.499s-21.5 -30.666 -21.5 -51.999c0 -13.333 2.5 -24.833 7.5 -34.5s12.667 -17.167 23 -22.5s23.166 -8 38.499 -8zM249.005 595.995c-34 0 -61.1689 6.5 -81.502 19.5s-34.833 29.333 -43.5 49
s-13 39.167 -13 58.5h72c0.666992 -7.33301 3.33398 -15.5 8.00098 -24.5s11.667 -16.333 21 -22s21.666 -8.5 36.999 -8.5c16 0 28.833 2.83301 38.5 8.5s16.834 13 21.501 22s7.33398 17.167 8.00098 24.5h71c0 -19.333 -4.5 -38.833 -13.5 -58.5s-23.5 -36 -43.5 -49
s-47.333 -19.5 -82 -19.5z" />
    <glyph glyph-name="Aogonek" unicode="&#x104;" horiz-adv-x="628" 
d="M3 0l231 686h160l231 -686h-134l-49 150h-262l-48 -150h-129zM213 256l196.001 0.00292969l-61 197c-2 6 -4.33301 13.667 -7 23s-5.66699 19.666 -9 30.999s-6.5 22.666 -9.5 33.999s-5.83301 21.666 -8.5 30.999h-6c-2.66699 -12 -6.33398 -25.833 -11.001 -41.5
s-9.16699 -30.5 -13.5 -44.5s-7.83301 -25 -10.5 -33zM549.001 -183.997c-16 0 -31.333 2.83105 -46 8.49805s-26.834 15.334 -36.501 29.001s-14.5 31.834 -14.5 54.501c0 24 5 44.167 15 60.5s21 30.833 33 43.5h72v-4c-7.33301 -6.66699 -14.666 -16.5 -21.999 -29.5
s-11 -26.833 -11 -41.5s3.66699 -27.167 11 -37.5s19.333 -15.5 36 -15.5h34v-54c-10.667 -4.66699 -22.667 -8.16699 -36 -10.5s-25 -3.5 -35 -3.5z" />
    <glyph glyph-name="aogonek" unicode="&#x105;" horiz-adv-x="506" 
d="M182 -12c-16 0 -32.8271 2.16406 -50.4941 6.49707s-34.167 11.833 -49.5 22.5s-27.5 25.667 -36.5 45s-13.5 43.333 -13.5 72c0 32.667 6.5 60.5 19.5 83.5s32.167 41.833 57.5 56.5s56.166 25.334 92.499 32.001s77.5 10 123.5 10v53
c0 14.667 -2.16699 27.834 -6.5 39.501s-12 20.834 -23 27.501s-26.5 10 -46.5 10c-22 0 -39 -3.33301 -51 -10s-20.167 -14.834 -24.5 -24.501s-6.5 -19.834 -6.5 -30.501v-12h-111c-0.666992 2.66699 -1 5.66699 -1 9v11c0 32.667 8.33301 60.167 25 82.5s39.667 39 69 50
s63 16.5 101 16.5c42 0 77.167 -6 105.5 -18s49.666 -30.167 63.999 -54.5s21.5 -55.833 21.5 -94.5v-253c0 -12 3.16699 -20.667 9.5 -26s13.833 -8 22.5 -8h29v-80c-7.33301 -3.33301 -17.333 -6.66602 -30 -9.99902s-27.334 -5 -44.001 -5s-31.334 2.83301 -44.001 8.5
s-23 13.834 -31 24.501s-13.333 23 -16 37h-6c-10 -13.333 -21.833 -25.5 -35.5 -36.5s-29.834 -19.5 -48.501 -25.5s-40.334 -9 -65.001 -9zM219.006 82.9971c16.667 0 31.499 2.99805 44.499 8.99805s24 14.167 33 24.5s16 23 21 38s7.5 31.5 7.5 49.5v35
c-35.333 0 -66.166 -3.16699 -92.499 -9.5s-46.666 -16.166 -60.999 -29.499s-21.5 -30.666 -21.5 -51.999c0 -13.333 2.5 -24.833 7.5 -34.5s12.667 -17.167 23 -22.5s23.166 -8 38.499 -8zM424.005 -184.005c-15.333 0 -30.502 2.83105 -45.502 8.49805
s-27.167 15.334 -36.5 29.001s-14 31.834 -14 54.501c0 24 5 44.167 15 60.5s21 30.833 33 43.5h71v-4c-7.33301 -6.66699 -14.666 -16.5 -21.999 -29.5s-11 -26.833 -11 -41.5s3.83301 -27.167 11.5 -37.5s19.834 -15.5 36.501 -15.5h33v-54
c-10.667 -4.66699 -22.667 -8.16699 -36 -10.5s-25 -3.5 -35 -3.5z" />
    <glyph glyph-name="Cacute" unicode="&#x106;" horiz-adv-x="647" 
d="M336 -12c-64.667 0 -118.833 12.5 -162.5 37.5s-76.667 63.667 -99 116s-33.5 119.5 -33.5 201.5c0 121.333 25.667 210.833 77 268.5s125.666 86.5 222.999 86.5c52.667 0 99.167 -9.5 139.5 -28.5s72 -48.167 95 -87.5s34.5 -90 34.5 -152h-126
c0 34.667 -5.83301 64 -17.5 88s-28.167 42.333 -49.5 55s-47 19 -77 19c-38 0 -69.667 -8.5 -95 -25.5s-44.166 -42.333 -56.499 -76s-18.5 -75.834 -18.5 -126.501v-42c0 -51.333 6 -93.833 18 -127.5s30.5 -58.667 55.5 -75s56.833 -24.5 95.5 -24.5c31.333 0 58 6 80 18
s39 29.833 51 53.5s18 53.167 18 88.5h122c0 -61.333 -11.833 -111.666 -35.5 -150.999s-56 -68.5 -97 -87.5s-88.167 -28.5 -141.5 -28.5zM290.001 739l73 132h121l1 -3l-101 -129h-94z" />
    <glyph glyph-name="cacute" unicode="&#x107;" horiz-adv-x="493" 
d="M254 -12c-49.333 0 -90.1631 9.83105 -122.496 29.498s-56.333 49.834 -72 90.501s-23.5 92.334 -23.5 155.001c0 64 8.16699 116.333 24.5 157s40.666 70.5 72.999 89.5s72.833 28.5 121.5 28.5c33.333 0 62.5 -4.16699 87.5 -12.5s46 -21.333 63 -39
s29.833 -39.667 38.5 -66s13 -57.5 13 -93.5h-117c0 27.333 -2.83301 49.5 -8.5 66.5s-14.834 29.667 -27.501 38s-29.334 12.5 -50.001 12.5c-22.667 0 -41.334 -5.83301 -56.001 -17.5s-25.5 -29.5 -32.5 -53.5s-10.5 -55.667 -10.5 -95v-31
c0 -33.333 3.16699 -62.5 9.5 -87.5s17 -44 32 -57s35.167 -19.5 60.5 -19.5c20 0 36.333 4 49 12s22.334 20.667 29.001 38s10 39.333 10 66h112c0 -32.667 -4.33301 -62 -13 -88s-21.334 -48.167 -38.001 -66.5s-37.667 -32.333 -63 -42s-55 -14.5 -89 -14.5z
M199.003 590.998l73 132h116l1 -3l-101 -129h-89z" />
    <glyph glyph-name="Ccircumflex" unicode="&#x108;" horiz-adv-x="647" 
d="M336 -12c-64.667 0 -118.833 12.5 -162.5 37.5s-76.667 63.667 -99 116s-33.5 119.5 -33.5 201.5c0 121.333 25.667 210.833 77 268.5s125.666 86.5 222.999 86.5c52.667 0 99.167 -9.5 139.5 -28.5s72 -48.167 95 -87.5s34.5 -90 34.5 -152h-126
c0 34.667 -5.83301 64 -17.5 88s-28.167 42.333 -49.5 55s-47 19 -77 19c-38 0 -69.667 -8.5 -95 -25.5s-44.166 -42.333 -56.499 -76s-18.5 -75.834 -18.5 -126.501v-42c0 -51.333 6 -93.833 18 -127.5s30.5 -58.667 55.5 -75s56.833 -24.5 95.5 -24.5c31.333 0 58 6 80 18
s39 29.833 51 53.5s18 53.167 18 88.5h122c0 -61.333 -11.833 -111.666 -35.5 -150.999s-56 -68.5 -97 -87.5s-88.167 -28.5 -141.5 -28.5zM189.001 739l96 132h110l96 -132h-97l-79 111l51 -1l-80 -110h-97z" />
    <glyph glyph-name="ccircumflex" unicode="&#x109;" horiz-adv-x="493" 
d="M254 -12c-49.333 0 -90.1631 9.83105 -122.496 29.498s-56.333 49.834 -72 90.501s-23.5 92.334 -23.5 155.001c0 64 8.16699 116.333 24.5 157s40.666 70.5 72.999 89.5s72.833 28.5 121.5 28.5c33.333 0 62.5 -4.16699 87.5 -12.5s46 -21.333 63 -39
s29.833 -39.667 38.5 -66s13 -57.5 13 -93.5h-117c0 27.333 -2.83301 49.5 -8.5 66.5s-14.834 29.667 -27.501 38s-29.334 12.5 -50.001 12.5c-22.667 0 -41.334 -5.83301 -56.001 -17.5s-25.5 -29.5 -32.5 -53.5s-10.5 -55.667 -10.5 -95v-31
c0 -33.333 3.16699 -62.5 9.5 -87.5s17 -44 32 -57s35.167 -19.5 60.5 -19.5c20 0 36.333 4 49 12s22.334 20.667 29.001 38s10 39.333 10 66h112c0 -32.667 -4.33301 -62 -13 -88s-21.334 -48.167 -38.001 -66.5s-37.667 -32.333 -63 -42s-55 -14.5 -89 -14.5z
M108.003 590.998l97 132h99l96 -132h-92l-79 111l52 -1l-81 -110h-92z" />
    <glyph glyph-name="Cdotaccent" unicode="&#x10a;" horiz-adv-x="647" 
d="M336 -12c-64.667 0 -118.833 12.5 -162.5 37.5s-76.667 63.667 -99 116s-33.5 119.5 -33.5 201.5c0 121.333 25.667 210.833 77 268.5s125.666 86.5 222.999 86.5c52.667 0 99.167 -9.5 139.5 -28.5s72 -48.167 95 -87.5s34.5 -90 34.5 -152h-126
c0 34.667 -5.83301 64 -17.5 88s-28.167 42.333 -49.5 55s-47 19 -77 19c-38 0 -69.667 -8.5 -95 -25.5s-44.166 -42.333 -56.499 -76s-18.5 -75.834 -18.5 -126.501v-42c0 -51.333 6 -93.833 18 -127.5s30.5 -58.667 55.5 -75s56.833 -24.5 95.5 -24.5c31.333 0 58 6 80 18
s39 29.833 51 53.5s18 53.167 18 88.5h122c0 -61.333 -11.833 -111.666 -35.5 -150.999s-56 -68.5 -97 -87.5s-88.167 -28.5 -141.5 -28.5zM288.001 761v116h104v-116h-104z" />
    <glyph glyph-name="cdotaccent" unicode="&#x10b;" horiz-adv-x="493" 
d="M254 -12c-49.333 0 -90.1631 9.83105 -122.496 29.498s-56.333 49.834 -72 90.501s-23.5 92.334 -23.5 155.001c0 64 8.16699 116.333 24.5 157s40.666 70.5 72.999 89.5s72.833 28.5 121.5 28.5c33.333 0 62.5 -4.16699 87.5 -12.5s46 -21.333 63 -39
s29.833 -39.667 38.5 -66s13 -57.5 13 -93.5h-117c0 27.333 -2.83301 49.5 -8.5 66.5s-14.834 29.667 -27.501 38s-29.334 12.5 -50.001 12.5c-22.667 0 -41.334 -5.83301 -56.001 -17.5s-25.5 -29.5 -32.5 -53.5s-10.5 -55.667 -10.5 -95v-31
c0 -33.333 3.16699 -62.5 9.5 -87.5s17 -44 32 -57s35.167 -19.5 60.5 -19.5c20 0 36.333 4 49 12s22.334 20.667 29.001 38s10 39.333 10 66h112c0 -32.667 -4.33301 -62 -13 -88s-21.334 -48.167 -38.001 -66.5s-37.667 -32.333 -63 -42s-55 -14.5 -89 -14.5z
M203.003 607.998v114h103v-114h-103z" />
    <glyph glyph-name="Ccaron" unicode="&#x10c;" horiz-adv-x="647" 
d="M336 -12c-64.667 0 -118.833 12.5 -162.5 37.5s-76.667 63.667 -99 116s-33.5 119.5 -33.5 201.5c0 121.333 25.667 210.833 77 268.5s125.666 86.5 222.999 86.5c52.667 0 99.167 -9.5 139.5 -28.5s72 -48.167 95 -87.5s34.5 -90 34.5 -152h-126
c0 34.667 -5.83301 64 -17.5 88s-28.167 42.333 -49.5 55s-47 19 -77 19c-38 0 -69.667 -8.5 -95 -25.5s-44.166 -42.333 -56.499 -76s-18.5 -75.834 -18.5 -126.501v-42c0 -51.333 6 -93.833 18 -127.5s30.5 -58.667 55.5 -75s56.833 -24.5 95.5 -24.5c31.333 0 58 6 80 18
s39 29.833 51 53.5s18 53.167 18 88.5h122c0 -61.333 -11.833 -111.666 -35.5 -150.999s-56 -68.5 -97 -87.5s-88.167 -28.5 -141.5 -28.5zM189.001 871h97l80 -110l-51 -1l79 111h97l-96 -132h-110z" />
    <glyph glyph-name="ccaron" unicode="&#x10d;" horiz-adv-x="493" 
d="M254 -12c-49.333 0 -90.1631 9.83105 -122.496 29.498s-56.333 49.834 -72 90.501s-23.5 92.334 -23.5 155.001c0 64 8.16699 116.333 24.5 157s40.666 70.5 72.999 89.5s72.833 28.5 121.5 28.5c33.333 0 62.5 -4.16699 87.5 -12.5s46 -21.333 63 -39
s29.833 -39.667 38.5 -66s13 -57.5 13 -93.5h-117c0 27.333 -2.83301 49.5 -8.5 66.5s-14.834 29.667 -27.501 38s-29.334 12.5 -50.001 12.5c-22.667 0 -41.334 -5.83301 -56.001 -17.5s-25.5 -29.5 -32.5 -53.5s-10.5 -55.667 -10.5 -95v-31
c0 -33.333 3.16699 -62.5 9.5 -87.5s17 -44 32 -57s35.167 -19.5 60.5 -19.5c20 0 36.333 4 49 12s22.334 20.667 29.001 38s10 39.333 10 66h112c0 -32.667 -4.33301 -62 -13 -88s-21.334 -48.167 -38.001 -66.5s-37.667 -32.333 -63 -42s-55 -14.5 -89 -14.5z
M108.003 722.998h92l81 -110l-52 -1l79 111h92l-96 -132h-99z" />
    <glyph glyph-name="Dcaron" unicode="&#x10e;" horiz-adv-x="652" 
d="M68 0l0.000976562 686.001h247c64 0 117.833 -12.167 161.5 -36.5s76.834 -61.666 99.501 -111.999s34 -114.833 34 -193.5s-11.333 -143.334 -34 -194.001s-55.834 -88.334 -99.501 -113.001s-97.834 -37 -162.501 -37h-246zM194.001 107.001l116 -0.000976562
c28 0 52.667 4.16699 74 12.5s39.166 21 53.499 38s25.333 39.167 33 66.5s11.5 60 11.5 98v38c0 38.667 -3.83301 71.667 -11.5 99s-18.667 49.833 -33 67.5s-32.166 30.834 -53.499 39.501s-46 13 -74 13h-116v-472zM172.001 871h97l81 -110l-52 -1l79 111h97l-96 -132
h-109z" />
    <glyph glyph-name="dcaron" unicode="&#x10f;" horiz-adv-x="530" 
d="M218 -12c-38 0 -70.665 9.66602 -97.998 28.999s-48.166 49.333 -62.499 90s-21.5 93.334 -21.5 158.001c0 64 7.16699 116 21.5 156s34.833 69.5 61.5 88.5s58 28.5 94 28.5c21.333 0 40.666 -2.66699 57.999 -8s32.666 -13.5 45.999 -24.5s24.333 -24.167 33 -39.5h6
v257h115v-723h-95l-9 68h-6c-13.333 -24.667 -32.333 -44.167 -57 -58.5s-53.334 -21.5 -86.001 -21.5zM256.002 88.999c23.333 0 42.332 6.16797 56.999 18.501s25.5 30.166 32.5 53.499s10.5 52.333 10.5 87v27c0 26 -2 49.167 -6 69.5s-10.167 37.166 -18.5 50.499
s-18.833 23.5 -31.5 30.5s-27.667 10.5 -45 10.5c-24 0 -43.333 -5.66699 -58 -17s-25.334 -28.833 -32.001 -52.5s-10 -54.167 -10 -91.5v-27c0 -36.667 3.33301 -66.667 10 -90s17.334 -40.666 32.001 -51.999s34.334 -17 59.001 -17zM508.001 555v168h106l-31 -168h-75z
" />
    <glyph glyph-name="Dcroat" unicode="&#x110;" horiz-adv-x="652" 
d="M0 300v96h333v-96h-333zM68 0l0.000976562 686.001h247c64 0 117.833 -12.167 161.5 -36.5s76.834 -61.666 99.501 -111.999s34 -114.833 34 -193.5s-11.333 -143.334 -34 -194.001s-55.834 -88.334 -99.501 -113.001s-97.834 -37 -162.501 -37h-246zM194.001 107.001
l116 -0.000976562c28 0 52.667 4.16699 74 12.5s39.166 21 53.499 38s25.333 39.167 33 66.5s11.5 60 11.5 98v38c0 38.667 -3.83301 71.667 -11.5 99s-18.667 49.833 -33 67.5s-32.166 30.834 -53.499 39.501s-46 13 -74 13h-116v-472z" />
    <glyph glyph-name="dcroat" unicode="&#x111;" horiz-adv-x="530" 
d="M218 -12c-38 0 -70.665 9.66602 -97.998 28.999s-48.166 49.333 -62.499 90s-21.5 93.334 -21.5 158.001c0 64 7.16699 116 21.5 156s34.833 69.5 61.5 88.5s58 28.5 94 28.5c21.333 0 40.666 -2.66699 57.999 -8s32.666 -13.5 45.999 -24.5s24.333 -24.167 33 -39.5h6
v257h115v-723h-95l-9 68h-6c-13.333 -24.667 -32.333 -44.167 -57 -58.5s-53.334 -21.5 -86.001 -21.5zM256.002 88.999c23.333 0 42.332 6.16797 56.999 18.501s25.5 30.166 32.5 53.499s10.5 52.333 10.5 87v27c0 26 -2 49.167 -6 69.5s-10.167 37.166 -18.5 50.499
s-18.833 23.5 -31.5 30.5s-27.667 10.5 -45 10.5c-24 0 -43.333 -5.66699 -58 -17s-25.334 -28.833 -32.001 -52.5s-10 -54.167 -10 -91.5v-27c0 -36.667 3.33301 -66.667 10 -90s17.334 -40.666 32.001 -51.999s34.334 -17 59.001 -17zM229.001 581v78h301v-78h-301z" />
    <glyph glyph-name="Emacron" unicode="&#x112;" horiz-adv-x="596" 
d="M68 0v686h478v-107h-352v-175h311v-108h-311v-189h357v-107h-483zM175 761v78h268v-78h-268z" />
    <glyph glyph-name="emacron" unicode="&#x113;" horiz-adv-x="507" 
d="M261 -12c-50.667 0 -92.667 9.66797 -126 29.001s-58.166 49.333 -74.499 90s-24.5 92.667 -24.5 156c0 64.667 8.16699 117.167 24.5 157.5s41.333 70 75 89s76.167 28.5 127.5 28.5c46 0 84.5 -8.83301 115.5 -26.5s54.167 -45.834 69.5 -84.501s23 -89.667 23 -153
v-38h-316c0.666992 -34.667 4.5 -63.667 11.5 -87s18.167 -40.5 33.5 -51.5s36 -16.5 62 -16.5c13.333 0 25.833 2 37.5 6s21.667 10.167 30 18.5s14.833 19 19.5 32s7.33398 28.5 8.00098 46.5h114c-0.666992 -33.333 -6 -62.333 -16 -87s-24.333 -45 -43 -61
s-40.834 -28 -66.501 -36s-53.834 -12 -84.501 -12zM156 314.001l195.001 -0.00195312c0 24 -1.83301 44.167 -5.5 60.5s-9.33398 29.833 -17.001 40.5s-17 18.334 -28 23.001s-23.833 7 -38.5 7c-23.333 0 -42.5 -4.83301 -57.5 -14.5s-26.333 -24.167 -34 -43.5
s-12.5 -43.666 -14.5 -72.999zM125.001 620.999v79h269v-79h-269z" />
    <glyph glyph-name="Ebreve" unicode="&#x114;" horiz-adv-x="596" 
d="M68 0v686h478v-107h-352v-175h311v-108h-311v-189h357v-107h-483zM309 743c-34.667 0 -61.999 6.49707 -81.999 19.4971s-34.333 29.5 -43 49.5s-13 39.667 -13 59h70c1.33301 -7.33301 4.16602 -15.166 8.49902 -23.499s11.5 -15.333 21.5 -21s22.667 -8.5 38 -8.5
c16.667 0 30 2.83301 40 8.5s17.333 12.834 22 21.501s7 16.334 7 23.001h70c0 -19.333 -4.5 -39 -13.5 -59s-23.5 -36.5 -43.5 -49.5s-47.333 -19.5 -82 -19.5z" />
    <glyph glyph-name="ebreve" unicode="&#x115;" horiz-adv-x="507" 
d="M261 -12c-50.667 0 -92.667 9.66797 -126 29.001s-58.166 49.333 -74.499 90s-24.5 92.667 -24.5 156c0 64.667 8.16699 117.167 24.5 157.5s41.333 70 75 89s76.167 28.5 127.5 28.5c46 0 84.5 -8.83301 115.5 -26.5s54.167 -45.834 69.5 -84.501s23 -89.667 23 -153
v-38h-316c0.666992 -34.667 4.5 -63.667 11.5 -87s18.167 -40.5 33.5 -51.5s36 -16.5 62 -16.5c13.333 0 25.833 2 37.5 6s21.667 10.167 30 18.5s14.833 19 19.5 32s7.33398 28.5 8.00098 46.5h114c-0.666992 -33.333 -6 -62.333 -16 -87s-24.333 -45 -43 -61
s-40.834 -28 -66.501 -36s-53.834 -12 -84.501 -12zM156 314.001l195.001 -0.00195312c0 24 -1.83301 44.167 -5.5 60.5s-9.33398 29.833 -17.001 40.5s-17 18.334 -28 23.001s-23.833 7 -38.5 7c-23.333 0 -42.5 -4.83301 -57.5 -14.5s-26.333 -24.167 -34 -43.5
s-12.5 -43.666 -14.5 -72.999zM259.001 595.999c-34 0 -61.1689 6.5 -81.502 19.5s-34.833 29.333 -43.5 49s-13 39.167 -13 58.5h72c0.666992 -7.33301 3.33398 -15.5 8.00098 -24.5s11.667 -16.333 21 -22s21.666 -8.5 36.999 -8.5c16 0 28.833 2.83301 38.5 8.5
s16.834 13 21.501 22s7.33398 17.167 8.00098 24.5h71c0 -19.333 -4.5 -38.833 -13.5 -58.5s-23.5 -36 -43.5 -49s-47.333 -19.5 -82 -19.5z" />
    <glyph glyph-name="Edotaccent" unicode="&#x116;" horiz-adv-x="596" 
d="M68 0v686h478v-107h-352v-175h311v-108h-311v-189h357v-107h-483zM258 761v116h103v-116h-103z" />
    <glyph glyph-name="edotaccent" unicode="&#x117;" horiz-adv-x="507" 
d="M261 -12c-50.667 0 -92.667 9.66797 -126 29.001s-58.166 49.333 -74.499 90s-24.5 92.667 -24.5 156c0 64.667 8.16699 117.167 24.5 157.5s41.333 70 75 89s76.167 28.5 127.5 28.5c46 0 84.5 -8.83301 115.5 -26.5s54.167 -45.834 69.5 -84.501s23 -89.667 23 -153
v-38h-316c0.666992 -34.667 4.5 -63.667 11.5 -87s18.167 -40.5 33.5 -51.5s36 -16.5 62 -16.5c13.333 0 25.833 2 37.5 6s21.667 10.167 30 18.5s14.833 19 19.5 32s7.33398 28.5 8.00098 46.5h114c-0.666992 -33.333 -6 -62.333 -16 -87s-24.333 -45 -43 -61
s-40.834 -28 -66.501 -36s-53.834 -12 -84.501 -12zM156 314.001l195.001 -0.00195312c0 24 -1.83301 44.167 -5.5 60.5s-9.33398 29.833 -17.001 40.5s-17 18.334 -28 23.001s-23.833 7 -38.5 7c-23.333 0 -42.5 -4.83301 -57.5 -14.5s-26.333 -24.167 -34 -43.5
s-12.5 -43.666 -14.5 -72.999zM208.001 607.999v114h104v-114h-104z" />
    <glyph glyph-name="Eogonek" unicode="&#x118;" horiz-adv-x="596" 
d="M68 0v686h478v-107h-352v-175h311v-108h-311v-189h357v-107h-483zM480 -184c-15.333 0 -30.502 2.83105 -45.502 8.49805s-27.167 15.334 -36.5 29.001s-14 31.834 -14 54.501c0 24 5 44.167 15 60.5s21 30.833 33 43.5h71v-4
c-7.33301 -6.66699 -14.666 -16.5 -21.999 -29.5s-11 -26.833 -11 -41.5s3.83301 -27.167 11.5 -37.5s19.834 -15.5 36.501 -15.5h33v-54c-10 -4.66699 -21.833 -8.16699 -35.5 -10.5s-25.5 -3.5 -35.5 -3.5z" />
    <glyph glyph-name="eogonek" unicode="&#x119;" horiz-adv-x="507" 
d="M261 -12c-50.667 0 -92.667 9.66797 -126 29.001s-58.166 49.333 -74.499 90s-24.5 92.667 -24.5 156c0 64.667 8.16699 117.167 24.5 157.5s41.333 70 75 89s76.167 28.5 127.5 28.5c46 0 84.5 -8.83301 115.5 -26.5s54.167 -45.834 69.5 -84.501s23 -89.667 23 -153
v-38h-316c0.666992 -34.667 4.5 -63.667 11.5 -87s18.167 -40.5 33.5 -51.5s36 -16.5 62 -16.5c13.333 0 25.833 2 37.5 6s21.667 10.167 30 18.5s14.833 19 19.5 32s7.33398 28.5 8.00098 46.5h114c-0.666992 -33.333 -6 -62.333 -16 -87s-24.333 -45 -43 -61
s-40.834 -28 -66.501 -36s-53.834 -12 -84.501 -12zM156 314.001l195.001 -0.00195312c0 24 -1.83301 44.167 -5.5 60.5s-9.33398 29.833 -17.001 40.5s-17 18.334 -28 23.001s-23.833 7 -38.5 7c-23.333 0 -42.5 -4.83301 -57.5 -14.5s-26.333 -24.167 -34 -43.5
s-12.5 -43.666 -14.5 -72.999zM344.001 -184.001c-16 0 -31.333 2.83105 -46 8.49805s-26.834 15.334 -36.501 29.001s-14.5 31.834 -14.5 54.501c0 24 5 44.167 15 60.5s21 30.833 33 43.5h72v-4c-7.33301 -6.66699 -14.666 -16.5 -21.999 -29.5s-11 -26.833 -11 -41.5
s3.66699 -27.167 11 -37.5s19.333 -15.5 36 -15.5h34v-54c-10.667 -4.66699 -22.667 -8.16699 -36 -10.5s-25 -3.5 -35 -3.5z" />
    <glyph glyph-name="Ecaron" unicode="&#x11a;" horiz-adv-x="596" 
d="M68 0v686h478v-107h-352v-175h311v-108h-311v-189h357v-107h-483zM158 871h97l81 -110l-52 -1l79 111h97l-96 -132h-109z" />
    <glyph glyph-name="ecaron" unicode="&#x11b;" horiz-adv-x="507" 
d="M261 -12c-50.667 0 -92.667 9.66797 -126 29.001s-58.166 49.333 -74.499 90s-24.5 92.667 -24.5 156c0 64.667 8.16699 117.167 24.5 157.5s41.333 70 75 89s76.167 28.5 127.5 28.5c46 0 84.5 -8.83301 115.5 -26.5s54.167 -45.834 69.5 -84.501s23 -89.667 23 -153
v-38h-316c0.666992 -34.667 4.5 -63.667 11.5 -87s18.167 -40.5 33.5 -51.5s36 -16.5 62 -16.5c13.333 0 25.833 2 37.5 6s21.667 10.167 30 18.5s14.833 19 19.5 32s7.33398 28.5 8.00098 46.5h114c-0.666992 -33.333 -6 -62.333 -16 -87s-24.333 -45 -43 -61
s-40.834 -28 -66.501 -36s-53.834 -12 -84.501 -12zM156 314.001l195.001 -0.00195312c0 24 -1.83301 44.167 -5.5 60.5s-9.33398 29.833 -17.001 40.5s-17 18.334 -28 23.001s-23.833 7 -38.5 7c-23.333 0 -42.5 -4.83301 -57.5 -14.5s-26.333 -24.167 -34 -43.5
s-12.5 -43.666 -14.5 -72.999zM114.001 722.999h92l80 -110l-52 -1l79 111h93l-96 -132h-100z" />
    <glyph glyph-name="Gcircumflex" unicode="&#x11c;" horiz-adv-x="704" 
d="M344 -12c-96.667 0 -170.333 28.6689 -221 86.002s-76 147 -76 269c0 80.667 12 147.167 36 199.5s59.333 91.333 106 117s103.667 38.5 171 38.5c40.667 0 78.167 -5 112.5 -15s64.333 -25.333 90 -46s45.667 -46.5 60 -77.5s21.5 -67.5 21.5 -109.5h-127
c0 22.667 -3.83301 42.834 -11.5 60.501s-18.5 32.5 -32.5 44.5s-30.5 21.167 -49.5 27.5s-40.167 9.5 -63.5 9.5c-30.667 0 -57.667 -4.66699 -81 -14s-42.666 -23.5 -57.999 -42.5s-26.833 -42.833 -34.5 -71.5s-11.5 -62.334 -11.5 -101.001v-41
c0 -52.667 6.5 -95.834 19.5 -129.501s32.667 -58.334 59 -74.001s59.166 -23.5 98.499 -23.5c36 0 66.333 6.16699 91 18.5s43.667 30.333 57 54s20 52.5 20 86.5v10h-185v103h308v-367h-83l-10 74c-16.667 -19.333 -35 -35.333 -55 -48s-42.333 -22.167 -67 -28.5
s-52.667 -9.5 -84 -9.5zM200.001 739.002l97 132h109l96 -132h-97l-79 111l52 -1l-80 -110h-98z" />
    <glyph glyph-name="gcircumflex" unicode="&#x11d;" horiz-adv-x="521" 
d="M145 -187c-24 0 -46.167 5.16992 -66.5 15.5029s-36.5 25 -48.5 44s-18 41.5 -18 67.5c0 28.667 7.83301 52.167 23.5 70.5s33.834 32.166 54.501 41.499c-15.333 8.66699 -27.666 20 -36.999 34s-14 30 -14 48c0 24 8.16699 43.833 24.5 59.5s36.5 26.167 60.5 31.5
c-22.667 15.333 -40.167 34.833 -52.5 58.5s-18.5 50.167 -18.5 79.5c0 35.333 8 66.166 24 92.499s39.167 46.666 69.5 60.999s66.833 21.5 109.5 21.5c17.333 0 34 -1.33301 50 -4s30.333 -6.33398 43 -11.001c19.333 12 33.166 26.5 41.499 43.5
s13.166 33.167 14.499 48.5h106c0 -24 -4.16699 -45 -12.5 -63s-19.833 -32.5 -34.5 -43.5s-31.667 -19.167 -51 -24.5c15.333 -15.333 27 -33.166 35 -53.499s12 -42.5 12 -66.5c0 -35.333 -7.5 -66.166 -22.5 -92.499s-37 -46.833 -66 -61.5s-64.833 -22 -107.5 -22h-68
c-14 0 -25 -3.16699 -33 -9.5s-12 -15.5 -12 -27.5c0 -10.667 4 -19.334 12 -26.001s18.667 -10 32 -10h184c40 0 72 -13.333 96 -40s36 -60 36 -100c0 -30 -7.16699 -57.167 -21.5 -81.5s-34.333 -43.833 -60 -58.5s-56.5 -22 -92.5 -22h-192zM185 -102.997
l145.998 0.000976562c12.667 0 23.834 2.5 33.501 7.5s17.334 12.167 23.001 21.5s8.5 19.666 8.5 30.999c0 19.333 -5.33301 34.166 -16 44.499s-24.667 15.5 -42 15.5h-153c-16.667 0 -30.5 -5.66699 -41.5 -17s-16.5 -25.666 -16.5 -42.999c0 -18 5.33301 -32.5 16 -43.5
s24.667 -16.5 42 -16.5zM256.998 269.004c30 0 52.334 8.16699 67.001 24.5s22 39.5 22 69.5c0 30.667 -7.33301 54 -22 70s-37 24 -67 24s-52.333 -8 -67 -24s-22 -39.333 -22 -70c0 -20 3.16699 -37 9.5 -51s16.166 -24.667 29.499 -32s30 -11 50 -11zM107.999 591.004
l96 132h100l96 -132h-93l-79 111l52 -1l-80 -110h-92z" />
    <glyph glyph-name="Gbreve" unicode="&#x11e;" horiz-adv-x="704" 
d="M344 -12c-96.667 0 -170.333 28.6689 -221 86.002s-76 147 -76 269c0 80.667 12 147.167 36 199.5s59.333 91.333 106 117s103.667 38.5 171 38.5c40.667 0 78.167 -5 112.5 -15s64.333 -25.333 90 -46s45.667 -46.5 60 -77.5s21.5 -67.5 21.5 -109.5h-127
c0 22.667 -3.83301 42.834 -11.5 60.501s-18.5 32.5 -32.5 44.5s-30.5 21.167 -49.5 27.5s-40.167 9.5 -63.5 9.5c-30.667 0 -57.667 -4.66699 -81 -14s-42.666 -23.5 -57.999 -42.5s-26.833 -42.833 -34.5 -71.5s-11.5 -62.334 -11.5 -101.001v-41
c0 -52.667 6.5 -95.834 19.5 -129.501s32.667 -58.334 59 -74.001s59.166 -23.5 98.499 -23.5c36 0 66.333 6.16699 91 18.5s43.667 30.333 57 54s20 52.5 20 86.5v10h-185v103h308v-367h-83l-10 74c-16.667 -19.333 -35 -35.333 -55 -48s-42.333 -22.167 -67 -28.5
s-52.667 -9.5 -84 -9.5zM351.001 743.002c-34 0 -61.168 6.49707 -81.501 19.4971s-34.666 29.5 -42.999 49.5s-12.5 39.667 -12.5 59h70c1.33301 -7.33301 4.16602 -15.166 8.49902 -23.499s11.333 -15.333 21 -21s22.5 -8.5 38.5 -8.5s29 2.83301 39 8.5
s17.333 12.834 22 21.501s7.33398 16.334 8.00098 23.001h70c0 -19.333 -4.66699 -39 -14 -59s-24 -36.5 -44 -49.5s-47.333 -19.5 -82 -19.5z" />
    <glyph glyph-name="gbreve" unicode="&#x11f;" horiz-adv-x="521" 
d="M145 -187c-24 0 -46.167 5.16992 -66.5 15.5029s-36.5 25 -48.5 44s-18 41.5 -18 67.5c0 28.667 7.83301 52.167 23.5 70.5s33.834 32.166 54.501 41.499c-15.333 8.66699 -27.666 20 -36.999 34s-14 30 -14 48c0 24 8.16699 43.833 24.5 59.5s36.5 26.167 60.5 31.5
c-22.667 15.333 -40.167 34.833 -52.5 58.5s-18.5 50.167 -18.5 79.5c0 35.333 8 66.166 24 92.499s39.167 46.666 69.5 60.999s66.833 21.5 109.5 21.5c17.333 0 34 -1.33301 50 -4s30.333 -6.33398 43 -11.001c19.333 12 33.166 26.5 41.499 43.5
s13.166 33.167 14.499 48.5h106c0 -24 -4.16699 -45 -12.5 -63s-19.833 -32.5 -34.5 -43.5s-31.667 -19.167 -51 -24.5c15.333 -15.333 27 -33.166 35 -53.499s12 -42.5 12 -66.5c0 -35.333 -7.5 -66.166 -22.5 -92.499s-37 -46.833 -66 -61.5s-64.833 -22 -107.5 -22h-68
c-14 0 -25 -3.16699 -33 -9.5s-12 -15.5 -12 -27.5c0 -10.667 4 -19.334 12 -26.001s18.667 -10 32 -10h184c40 0 72 -13.333 96 -40s36 -60 36 -100c0 -30 -7.16699 -57.167 -21.5 -81.5s-34.333 -43.833 -60 -58.5s-56.5 -22 -92.5 -22h-192zM185 -102.997
l145.998 0.000976562c12.667 0 23.834 2.5 33.501 7.5s17.334 12.167 23.001 21.5s8.5 19.666 8.5 30.999c0 19.333 -5.33301 34.166 -16 44.499s-24.667 15.5 -42 15.5h-153c-16.667 0 -30.5 -5.66699 -41.5 -17s-16.5 -25.666 -16.5 -42.999c0 -18 5.33301 -32.5 16 -43.5
s24.667 -16.5 42 -16.5zM256.998 269.004c30 0 52.334 8.16699 67.001 24.5s22 39.5 22 69.5c0 30.667 -7.33301 54 -22 70s-37 24 -67 24s-52.333 -8 -67 -24s-22 -39.333 -22 -70c0 -20 3.16699 -37 9.5 -51s16.166 -24.667 29.499 -32s30 -11 50 -11zM252.999 596.004
c-34 0 -61.167 6.5 -81.5 19.5s-34.833 29.333 -43.5 49s-13 39.167 -13 58.5h72c0.666992 -7.33301 3.33398 -15.5 8.00098 -24.5s11.667 -16.333 21 -22s21.666 -8.5 36.999 -8.5c16 0 29 2.83301 39 8.5s17.167 13 21.5 22s6.83301 17.167 7.5 24.5h71
c0 -19.333 -4.5 -38.833 -13.5 -58.5s-23.5 -36 -43.5 -49s-47.333 -19.5 -82 -19.5z" />
    <glyph glyph-name="Gdotaccent" unicode="&#x120;" horiz-adv-x="704" 
d="M344 -12c-96.667 0 -170.333 28.6689 -221 86.002s-76 147 -76 269c0 80.667 12 147.167 36 199.5s59.333 91.333 106 117s103.667 38.5 171 38.5c40.667 0 78.167 -5 112.5 -15s64.333 -25.333 90 -46s45.667 -46.5 60 -77.5s21.5 -67.5 21.5 -109.5h-127
c0 22.667 -3.83301 42.834 -11.5 60.501s-18.5 32.5 -32.5 44.5s-30.5 21.167 -49.5 27.5s-40.167 9.5 -63.5 9.5c-30.667 0 -57.667 -4.66699 -81 -14s-42.666 -23.5 -57.999 -42.5s-26.833 -42.833 -34.5 -71.5s-11.5 -62.334 -11.5 -101.001v-41
c0 -52.667 6.5 -95.834 19.5 -129.501s32.667 -58.334 59 -74.001s59.166 -23.5 98.499 -23.5c36 0 66.333 6.16699 91 18.5s43.667 30.333 57 54s20 52.5 20 86.5v10h-185v103h308v-367h-83l-10 74c-16.667 -19.333 -35 -35.333 -55 -48s-42.333 -22.167 -67 -28.5
s-52.667 -9.5 -84 -9.5zM300.001 761.002v116h104v-116h-104z" />
    <glyph glyph-name="gdotaccent" unicode="&#x121;" horiz-adv-x="521" 
d="M145 -187c-24 0 -46.167 5.16992 -66.5 15.5029s-36.5 25 -48.5 44s-18 41.5 -18 67.5c0 28.667 7.83301 52.167 23.5 70.5s33.834 32.166 54.501 41.499c-15.333 8.66699 -27.666 20 -36.999 34s-14 30 -14 48c0 24 8.16699 43.833 24.5 59.5s36.5 26.167 60.5 31.5
c-22.667 15.333 -40.167 34.833 -52.5 58.5s-18.5 50.167 -18.5 79.5c0 35.333 8 66.166 24 92.499s39.167 46.666 69.5 60.999s66.833 21.5 109.5 21.5c17.333 0 34 -1.33301 50 -4s30.333 -6.33398 43 -11.001c19.333 12 33.166 26.5 41.499 43.5
s13.166 33.167 14.499 48.5h106c0 -24 -4.16699 -45 -12.5 -63s-19.833 -32.5 -34.5 -43.5s-31.667 -19.167 -51 -24.5c15.333 -15.333 27 -33.166 35 -53.499s12 -42.5 12 -66.5c0 -35.333 -7.5 -66.166 -22.5 -92.499s-37 -46.833 -66 -61.5s-64.833 -22 -107.5 -22h-68
c-14 0 -25 -3.16699 -33 -9.5s-12 -15.5 -12 -27.5c0 -10.667 4 -19.334 12 -26.001s18.667 -10 32 -10h184c40 0 72 -13.333 96 -40s36 -60 36 -100c0 -30 -7.16699 -57.167 -21.5 -81.5s-34.333 -43.833 -60 -58.5s-56.5 -22 -92.5 -22h-192zM185 -102.997
l145.998 0.000976562c12.667 0 23.834 2.5 33.501 7.5s17.334 12.167 23.001 21.5s8.5 19.666 8.5 30.999c0 19.333 -5.33301 34.166 -16 44.499s-24.667 15.5 -42 15.5h-153c-16.667 0 -30.5 -5.66699 -41.5 -17s-16.5 -25.666 -16.5 -42.999c0 -18 5.33301 -32.5 16 -43.5
s24.667 -16.5 42 -16.5zM256.998 269.004c30 0 52.334 8.16699 67.001 24.5s22 39.5 22 69.5c0 30.667 -7.33301 54 -22 70s-37 24 -67 24s-52.333 -8 -67 -24s-22 -39.333 -22 -70c0 -20 3.16699 -37 9.5 -51s16.166 -24.667 29.499 -32s30 -11 50 -11zM201.999 608.004
v114h104v-114h-104z" />
    <glyph glyph-name="uni0122" unicode="&#x122;" horiz-adv-x="704" 
d="M344 -12c-96.667 0 -170.333 28.6689 -221 86.002s-76 147 -76 269c0 80.667 12 147.167 36 199.5s59.333 91.333 106 117s103.667 38.5 171 38.5c40.667 0 78.167 -5 112.5 -15s64.333 -25.333 90 -46s45.667 -46.5 60 -77.5s21.5 -67.5 21.5 -109.5h-127
c0 22.667 -3.83301 42.834 -11.5 60.501s-18.5 32.5 -32.5 44.5s-30.5 21.167 -49.5 27.5s-40.167 9.5 -63.5 9.5c-30.667 0 -57.667 -4.66699 -81 -14s-42.666 -23.5 -57.999 -42.5s-26.833 -42.833 -34.5 -71.5s-11.5 -62.334 -11.5 -101.001v-41
c0 -52.667 6.5 -95.834 19.5 -129.501s32.667 -58.334 59 -74.001s59.166 -23.5 98.499 -23.5c36 0 66.333 6.16699 91 18.5s43.667 30.333 57 54s20 52.5 20 86.5v10h-185v103h308v-367h-83l-10 74c-16.667 -19.333 -35 -35.333 -55 -48s-42.333 -22.167 -67 -28.5
s-52.667 -9.5 -84 -9.5zM292.001 -302.998l0.00195312 47c19.333 0 33.166 6 41.499 18s12.5 27.333 12.5 46h-46v116h104v-93c0 -32 -4.83301 -58 -14.5 -78s-22.834 -34.333 -39.501 -43s-36 -13 -58 -13z" />
    <glyph glyph-name="uni0123" unicode="&#x123;" horiz-adv-x="521" 
d="M145 -187c-24 0 -46.167 5.16992 -66.5 15.5029s-36.5 25 -48.5 44s-18 41.5 -18 67.5c0 28.667 7.83301 52.167 23.5 70.5s33.834 32.166 54.501 41.499c-15.333 8.66699 -27.666 20 -36.999 34s-14 30 -14 48c0 24 8.16699 43.833 24.5 59.5s36.5 26.167 60.5 31.5
c-22.667 15.333 -40.167 34.833 -52.5 58.5s-18.5 50.167 -18.5 79.5c0 35.333 8 66.166 24 92.499s39.167 46.666 69.5 60.999s66.833 21.5 109.5 21.5c17.333 0 34 -1.33301 50 -4s30.333 -6.33398 43 -11.001c19.333 12 33.166 26.5 41.499 43.5
s13.166 33.167 14.499 48.5h106c0 -24 -4.16699 -45 -12.5 -63s-19.833 -32.5 -34.5 -43.5s-31.667 -19.167 -51 -24.5c15.333 -15.333 27 -33.166 35 -53.499s12 -42.5 12 -66.5c0 -35.333 -7.5 -66.166 -22.5 -92.499s-37 -46.833 -66 -61.5s-64.833 -22 -107.5 -22h-68
c-14 0 -25 -3.16699 -33 -9.5s-12 -15.5 -12 -27.5c0 -10.667 4 -19.334 12 -26.001s18.667 -10 32 -10h184c40 0 72 -13.333 96 -40s36 -60 36 -100c0 -30 -7.16699 -57.167 -21.5 -81.5s-34.333 -43.833 -60 -58.5s-56.5 -22 -92.5 -22h-192zM185 -102.997
l145.998 0.000976562c12.667 0 23.834 2.5 33.501 7.5s17.334 12.167 23.001 21.5s8.5 19.666 8.5 30.999c0 19.333 -5.33301 34.166 -16 44.499s-24.667 15.5 -42 15.5h-153c-16.667 0 -30.5 -5.66699 -41.5 -17s-16.5 -25.666 -16.5 -42.999c0 -18 5.33301 -32.5 16 -43.5
s24.667 -16.5 42 -16.5zM256.998 269.004c30 0 52.334 8.16699 67.001 24.5s22 39.5 22 69.5c0 30.667 -7.33301 54 -22 70s-37 24 -67 24s-52.333 -8 -67 -24s-22 -39.333 -22 -70c0 -20 3.16699 -37 9.5 -51s16.166 -24.667 29.499 -32s30 -11 50 -11zM312.999 844.004
v-47c-18.667 0 -32.334 -6 -41.001 -18s-13 -27.333 -13 -46h47v-116h-104v93c0 32 4.83301 58 14.5 78s22.834 34.333 39.501 43s35.667 13 57 13z" />
    <glyph glyph-name="Hcircumflex" unicode="&#x124;" horiz-adv-x="654" 
d="M68 0v686h126v-282h267v282h125v-686h-125v296h-267v-296h-126zM175 739l97 132h109l96 -132h-97l-79 111l52 -1l-81 -110h-97z" />
    <glyph glyph-name="hcircumflex" unicode="&#x125;" horiz-adv-x="522" 
d="M58 0l0.000976562 723.001h116v-255h6c10 14.667 21.833 27.167 35.5 37.5s29.167 18.333 46.5 24s36.666 8.5 57.999 8.5c30 0 56 -5.5 78 -16.5s39.167 -28.667 51.5 -53s18.5 -56.833 18.5 -97.5v-371h-116v347c0 16 -1.66699 29.333 -5 40s-8.33301 19.667 -15 27
s-15 12.666 -25 15.999s-21.333 5 -34 5c-18.667 0 -35.5 -5.16699 -50.5 -15.5s-26.833 -25 -35.5 -44s-13 -41.833 -13 -68.5v-307h-116zM-35.999 739.001l96 132h110l96 -132h-97l-80 111l52 -1l-80 -110h-97z" />
    <glyph glyph-name="Hbar" unicode="&#x126;" horiz-adv-x="654" 
d="M68 0v686h126v-282h267v282h125v-686h-125v296h-267v-296h-126zM7 523v90h638v-90h-638z" />
    <glyph glyph-name="hbar" unicode="&#x127;" horiz-adv-x="522" 
d="M58 0l0.000976562 723.001h116v-255h6c10 14.667 21.833 27.167 35.5 37.5s29.167 18.333 46.5 24s36.666 8.5 57.999 8.5c30 0 56 -5.5 78 -16.5s39.167 -28.667 51.5 -53s18.5 -56.833 18.5 -97.5v-371h-116v347c0 16 -1.66699 29.333 -5 40s-8.33301 19.667 -15 27
s-15 12.666 -25 15.999s-21.333 5 -34 5c-18.667 0 -35.5 -5.16699 -50.5 -15.5s-26.833 -25 -35.5 -44s-13 -41.833 -13 -68.5v-307h-116zM0.000976562 581.001v78h300v-78h-300z" />
    <glyph glyph-name="Itilde" unicode="&#x128;" horiz-adv-x="262" 
d="M68 0v686h126v-686h-126zM-22 760c0 21.333 2.99609 40.332 8.99609 56.999s15.5 29.834 28.5 39.501s29.167 14.5 48.5 14.5c16 0 30.833 -2.66699 44.5 -8s27.334 -10.833 41.001 -16.5s27.167 -8.5 40.5 -8.5c9.33301 0 16.5 2.66699 21.5 8s8.5 14 10.5 26h61
c0 -20.667 -3.16699 -39.5 -9.5 -56.5s-15.666 -30.5 -27.999 -40.5s-28.5 -15 -48.5 -15c-15.333 0 -30.166 3 -44.499 9s-28 11.833 -41 17.5s-26.5 8.5 -40.5 8.5c-8.66699 0 -15.667 -2.83301 -21 -8.5s-8.66602 -14.5 -9.99902 -26.5h-62z" />
    <glyph glyph-name="itilde" unicode="&#x129;" horiz-adv-x="233" 
d="M58 0v526h116v-526h-116zM-37 610c0 21.333 3.00098 40.332 9.00098 56.999s15.333 29.834 28 39.501s28.667 14.5 48 14.5c16 0 31 -2.66699 45 -8s27.833 -10.833 41.5 -16.5s27.167 -8.5 40.5 -8.5c9.33301 0 16.5 2.66699 21.5 8s8.16699 14 9.5 26h62
c0 -20.667 -3.16699 -39.5 -9.5 -56.5s-15.833 -30.5 -28.5 -40.5s-28.667 -15 -48 -15c-15.333 0 -30.166 3 -44.499 9s-28 11.833 -41 17.5s-26.5 8.5 -40.5 8.5c-8.66699 0 -15.834 -2.83301 -21.501 -8.5s-8.83398 -14.5 -9.50098 -26.5h-62z" />
    <glyph glyph-name="Imacron" unicode="&#x12a;" horiz-adv-x="262" 
d="M68 0v686h126v-686h-126zM-4 761v78h268v-78h-268z" />
    <glyph glyph-name="imacron" unicode="&#x12b;" horiz-adv-x="233" 
d="M58 0v526h116v-526h-116zM-19 621v79h268v-79h-268z" />
    <glyph glyph-name="Ibreve" unicode="&#x12c;" horiz-adv-x="262" 
d="M68 0v686h126v-686h-126zM130 743c-34 0 -61.1699 6.49707 -81.5029 19.4971s-34.666 29.5 -42.999 49.5s-12.5 39.667 -12.5 59h69c1.33301 -7.33301 4.33301 -15.166 9 -23.499s11.834 -15.333 21.501 -21s22.167 -8.5 37.5 -8.5c16.667 0 30 2.83301 40 8.5
s17.333 12.834 22 21.501s7.33398 16.334 8.00098 23.001h70c0 -19.333 -4.66699 -39 -14 -59s-24 -36.5 -44 -49.5s-47.333 -19.5 -82 -19.5z" />
    <glyph glyph-name="ibreve" unicode="&#x12d;" horiz-adv-x="233" 
d="M58 0v526h116v-526h-116zM114 596c-34 0 -61.1699 6.5 -81.5029 19.5s-34.666 29.333 -42.999 49s-12.5 39.167 -12.5 58.5h71c0.666992 -7.33301 3.33398 -15.5 8.00098 -24.5s11.667 -16.333 21 -22s22 -8.5 38 -8.5s28.833 2.83301 38.5 8.5s16.834 13 21.501 22
s7 17.167 7 24.5h72c0 -19.333 -4.5 -38.833 -13.5 -58.5s-23.5 -36 -43.5 -49s-47.667 -19.5 -83 -19.5z" />
    <glyph glyph-name="Iogonek" unicode="&#x12e;" horiz-adv-x="262" 
d="M68 0v686h126v-686h-126zM117 -184c-15.333 0 -30.501 2.83105 -45.501 8.49805s-27.167 15.334 -36.5 29.001s-14 31.834 -14 54.501c0 24 5 44.167 15 60.5s21 30.833 33 43.5h72v-4c-7.33301 -6.66699 -14.666 -16.5 -21.999 -29.5s-11 -26.833 -11 -41.5
s3.66699 -27.167 11 -37.5s19.333 -15.5 36 -15.5h33v-54c-10 -4.66699 -21.667 -8.16699 -35 -10.5s-25.333 -3.5 -36 -3.5z" />
    <glyph glyph-name="iogonek" unicode="&#x12f;" horiz-adv-x="233" 
d="M58 611v112h116v-112h-116zM58 0v526h116v-526h-116zM110 -184c-15.333 0 -30.502 2.83105 -45.502 8.49805s-27.167 15.334 -36.5 29.001s-14 31.834 -14 54.501c0 24 5 44.167 15 60.5s21 30.833 33 43.5h71v-4c-7.33301 -6.66699 -14.666 -16.5 -21.999 -29.5
s-11 -26.833 -11 -41.5s3.83301 -27.167 11.5 -37.5s19.834 -15.5 36.501 -15.5h33v-54c-10 -4.66699 -21.833 -8.16699 -35.5 -10.5s-25.5 -3.5 -35.5 -3.5z" />
    <glyph glyph-name="Idotaccent" unicode="&#x130;" horiz-adv-x="262" 
d="M68 0v686h126v-686h-126zM79 761v116h104v-116h-104z" />
    <glyph glyph-name="dotlessi" unicode="&#x131;" horiz-adv-x="233" 
d="M58 0v526h116v-526h-116z" />
    <glyph glyph-name="IJ" unicode="&#x132;" horiz-adv-x="784" 
d="M68 0v686h126v-686h-126zM502 -12c-45.333 0 -84.001 7.16797 -116.001 21.501s-56.5 35.666 -73.5 63.999s-25.5 63.833 -25.5 106.5v40h123v-37c0 -28.667 7.5 -50.5 22.5 -65.5s38.5 -22.5 70.5 -22.5c30.667 0 53.5 10.5 68.5 31.5s22.5 51.167 22.5 90.5v469h126
v-471c0 -51.333 -8.83301 -93.833 -26.5 -127.5s-42.667 -58.667 -75 -75s-71.166 -24.5 -116.499 -24.5z" />
    <glyph glyph-name="ij" unicode="&#x133;" horiz-adv-x="463" 
d="M58 611v112h116v-112h-116zM58 0v526h116v-526h-116zM291 611v112h115v-112h-115zM288 -187c-8 0 -17.167 0.667969 -27.5 2.00098s-20.333 3.16602 -30 5.49902s-17.5 4.5 -23.5 6.5v82h46c13.333 0 23 3.66699 29 11s9 19 9 35v571h115v-587
c0 -24 -3.83301 -45.5 -11.5 -64.5s-20 -34 -37 -45s-40.167 -16.5 -69.5 -16.5z" />
    <glyph glyph-name="Jcircumflex" unicode="&#x134;" horiz-adv-x="522" 
d="M240 -12c-45.333 0 -84.001 7.16797 -116.001 21.501s-56.5 35.666 -73.5 63.999s-25.5 63.833 -25.5 106.5v40h124v-37c0 -28.667 7.5 -50.5 22.5 -65.5s38.167 -22.5 69.5 -22.5s54.5 10.5 69.5 31.5s22.5 51.167 22.5 90.5v469h125v-471
c0 -51.333 -8.66699 -93.833 -26 -127.5s-42.166 -58.667 -74.499 -75s-71.5 -24.5 -117.5 -24.5zM243.999 739.001l97 132h109l96 -132h-97l-79 111l51 -1l-80 -110h-97z" />
    <glyph glyph-name="jcircumflex" unicode="&#x135;" horiz-adv-x="230" 
d="M55 -187c-8 0 -17.168 0.667969 -27.501 2.00098s-20.333 3.16602 -30 5.49902s-17.5 4.5 -23.5 6.5v82h47c13.333 0 22.833 3.66699 28.5 11s8.5 19 8.5 35v571h116v-587c0 -24 -3.83301 -45.5 -11.5 -64.5s-20.167 -34 -37.5 -45s-40.666 -16.5 -69.999 -16.5z
M-32.001 591.001l97 132h99l96 -132h-92l-79 111l52 -1l-81 -110h-92z" />
    <glyph glyph-name="uni0136" unicode="&#x136;" horiz-adv-x="628" 
d="M68 0v686h126v-322l266 322h146l-233 -278l239 -408h-145l-177 309l-96 -99v-210h-126zM267 -303l0.000976562 47c18.667 0 32.167 6 40.5 18s12.5 27.333 12.5 46h-46v116h104v-93c0 -32 -4.83301 -58 -14.5 -78s-22.834 -34.333 -39.501 -43s-35.667 -13 -57 -13z" />
    <glyph glyph-name="uni0137" unicode="&#x137;" horiz-adv-x="492" 
d="M58 0v723h116v-418l167 221h131l-159 -204l168 -322h-130l-112 228l-65 -71v-157h-116zM195 -303l-0.000976562 47c18.667 0 32.334 6 41.001 18s13 27.333 13 46h-46v116h103v-93c0 -32 -4.83301 -58 -14.5 -78s-22.667 -34.333 -39 -43s-35.5 -13 -57.5 -13z" />
    <glyph glyph-name="kgreenlandic" unicode="&#x138;" horiz-adv-x="492" 
d="M58 0v526h116v-221l167 221h131l-159 -204l168 -322h-130l-112 228l-65 -71v-157h-116z" />
    <glyph glyph-name="Lacute" unicode="&#x139;" horiz-adv-x="510" 
d="M68 0v686h126v-577h298v-109h-424zM81 739l73 132h121l1 -3l-101 -129h-94z" />
    <glyph glyph-name="lacute" unicode="&#x13a;" horiz-adv-x="232" 
d="M58 0v723h116v-723h-116zM66 739l73 132h121l1 -3l-101 -129h-94z" />
    <glyph glyph-name="uni013B" unicode="&#x13b;" horiz-adv-x="510" 
d="M68 0v686h126v-577h298v-109h-424zM221 -303l0.000976562 47c18.667 0 32.167 6 40.5 18s12.5 27.333 12.5 46h-46v116h104v-93c0 -32 -4.83301 -58 -14.5 -78s-22.834 -34.333 -39.501 -43s-35.667 -13 -57 -13z" />
    <glyph glyph-name="uni013C" unicode="&#x13c;" horiz-adv-x="232" 
d="M58 0v723h116v-723h-116zM57 -303l0.000976562 47c18.667 0 32.167 6 40.5 18s12.5 27.333 12.5 46h-46v116h104v-93c0 -32 -4.83301 -58 -14.5 -78s-22.834 -34.333 -39.501 -43s-35.667 -13 -57 -13z" />
    <glyph glyph-name="Lcaron" unicode="&#x13d;" horiz-adv-x="510" 
d="M68 0v686h126v-577h298v-109h-424zM334 555v168h106l-31 -168h-75z" />
    <glyph glyph-name="lcaron" unicode="&#x13e;" horiz-adv-x="232" 
d="M58 0v723h116v-723h-116zM211 555v168h105l-31 -168h-74z" />
    <glyph glyph-name="Ldot" unicode="&#x13f;" horiz-adv-x="510" 
d="M68 0v686h126v-577h298v-109h-424zM329 322v111h109v-111h-109z" />
    <glyph glyph-name="ldot" unicode="&#x140;" horiz-adv-x="232" 
d="M58 0v723h116v-723h-116zM204 322v111h98v-111h-98z" />
    <glyph glyph-name="Lslash" unicode="&#x141;" horiz-adv-x="510" 
d="M68 0v686h126v-577h298v-109h-424zM0 185v91l318 239v-92z" />
    <glyph glyph-name="lslash" unicode="&#x142;" horiz-adv-x="232" 
d="M58 0v723h116v-723h-116zM-1 223v89l233 193v-89z" />
    <glyph glyph-name="Nacute" unicode="&#x143;" horiz-adv-x="655" 
d="M68 0v685.999h120l244 -390c3.33301 -4.66699 7 -10.5 11 -17.5s7.83301 -14.167 11.5 -21.5s6.16699 -13.666 7.5 -18.999h5v31v27v390h120v-686h-119l-246 394c-4 8 -9.16699 18 -15.5 30s-10.833 22 -13.5 30h-5v-29v-31v-394h-120zM277 738.999l74 132h120l1 -3
l-100 -129h-95z" />
    <glyph glyph-name="nacute" unicode="&#x144;" horiz-adv-x="522" 
d="M58 0v526.001h97l10 -68h6c10.667 16.667 23.167 31 37.5 43s30.833 21.167 49.5 27.5s39 9.5 61 9.5c30.667 0 57 -5.5 79 -16.5s39.167 -28.667 51.5 -53s18.5 -56.833 18.5 -97.5v-371h-116v347c0 16 -1.66699 29.333 -5 40s-8.33301 19.667 -15 27
s-15 12.666 -25 15.999s-21.333 5 -34 5c-18.667 0 -35.5 -5.16699 -50.5 -15.5s-26.833 -25 -35.5 -44s-13 -41.833 -13 -68.5v-307h-116zM208 591.001l73 132h116l1 -3l-101 -129h-89z" />
    <glyph glyph-name="uni0145" unicode="&#x145;" horiz-adv-x="655" 
d="M68 0v685.999h120l244 -390c3.33301 -4.66699 7 -10.5 11 -17.5s7.83301 -14.167 11.5 -21.5s6.16699 -13.666 7.5 -18.999h5v31v27v390h120v-686h-119l-246 394c-4 8 -9.16699 18 -15.5 30s-10.833 22 -13.5 30h-5v-29v-31v-394h-120zM268 -303.001v47
c18.667 0 32.334 6 41.001 18s13 27.333 13 46h-46v116h103v-93c0 -32 -4.83301 -58 -14.5 -78s-22.834 -34.333 -39.501 -43s-35.667 -13 -57 -13z" />
    <glyph glyph-name="uni0146" unicode="&#x146;" horiz-adv-x="522" 
d="M58 0v526.001h97l10 -68h6c10.667 16.667 23.167 31 37.5 43s30.833 21.167 49.5 27.5s39 9.5 61 9.5c30.667 0 57 -5.5 79 -16.5s39.167 -28.667 51.5 -53s18.5 -56.833 18.5 -97.5v-371h-116v347c0 16 -1.66699 29.333 -5 40s-8.33301 19.667 -15 27
s-15 12.666 -25 15.999s-21.333 5 -34 5c-18.667 0 -35.5 -5.16699 -50.5 -15.5s-26.833 -25 -35.5 -44s-13 -41.833 -13 -68.5v-307h-116zM204 -302.999v47c18.667 0 32.334 6 41.001 18s13 27.333 13 46h-46v116h103v-93c0 -32 -4.83301 -58 -14.5 -78
s-22.834 -34.333 -39.501 -43s-35.667 -13 -57 -13z" />
    <glyph glyph-name="Ncaron" unicode="&#x147;" horiz-adv-x="655" 
d="M68 0v685.999h120l244 -390c3.33301 -4.66699 7 -10.5 11 -17.5s7.83301 -14.167 11.5 -21.5s6.16699 -13.666 7.5 -18.999h5v31v27v390h120v-686h-119l-246 394c-4 8 -9.16699 18 -15.5 30s-10.833 22 -13.5 30h-5v-29v-31v-394h-120zM176 870.999h97l81 -110l-52 -1
l79 111h97l-96 -132h-109z" />
    <glyph glyph-name="ncaron" unicode="&#x148;" horiz-adv-x="522" 
d="M58 0v526.001h97l10 -68h6c10.667 16.667 23.167 31 37.5 43s30.833 21.167 49.5 27.5s39 9.5 61 9.5c30.667 0 57 -5.5 79 -16.5s39.167 -28.667 51.5 -53s18.5 -56.833 18.5 -97.5v-371h-116v347c0 16 -1.66699 29.333 -5 40s-8.33301 19.667 -15 27
s-15 12.666 -25 15.999s-21.333 5 -34 5c-18.667 0 -35.5 -5.16699 -50.5 -15.5s-26.833 -25 -35.5 -44s-13 -41.833 -13 -68.5v-307h-116zM117 723.001h92l80 -110l-51 -1l79 111h92l-96 -132h-99z" />
    <glyph glyph-name="napostrophe" unicode="&#x149;" horiz-adv-x="522" 
d="M58 0v526.001h97l10 -68h6c10.667 16.667 23.167 31 37.5 43s30.833 21.167 49.5 27.5s39 9.5 61 9.5c30.667 0 57 -5.5 79 -16.5s39.167 -28.667 51.5 -53s18.5 -56.833 18.5 -97.5v-371h-116v347c0 16 -1.66699 29.333 -5 40s-8.33301 19.667 -15 27
s-15 12.666 -25 15.999s-21.333 5 -34 5c-18.667 0 -35.5 -5.16699 -50.5 -15.5s-26.833 -25 -35.5 -44s-13 -41.833 -13 -68.5v-307h-116zM-7 553.001v47c18.667 0 32.334 6 41.001 18s13 27.333 13 46h-47v116h104v-93c0 -32 -4.83301 -58 -14.5 -78
s-22.834 -34.333 -39.501 -43s-35.667 -13 -57 -13z" />
    <glyph glyph-name="Eng" unicode="&#x14a;" horiz-adv-x="655" 
d="M467 -187c-8 0 -17.332 0.834961 -27.999 2.50195s-20.834 3.5 -30.501 5.5s-17.5 4.33301 -23.5 7v81h44c13.333 0 23 3.5 29 10.5s9 18.5 9 34.5v48l-245 392c-4.66699 7.33301 -10 17.333 -16 30s-10 21.667 -12 27h-5v-28v-29v-394h-121v686h120l245 -390
c2.66699 -4 6 -9.66699 10 -17s7.66699 -14.5 11 -21.5s5.66602 -12.5 6.99902 -16.5h5v27.5v27.5v390h121v-729c0 -20.667 -2 -39.834 -6 -57.501s-10.667 -32.834 -20 -45.501s-21.666 -22.667 -36.999 -30s-34.333 -11 -57 -11z" />
    <glyph glyph-name="eng" unicode="&#x14b;" horiz-adv-x="522" 
d="M349 -187c-8 0 -17.168 0.666992 -27.501 2s-20 3.16602 -29 5.49902s-16.5 4.5 -22.5 6.5v81h44c14 0 23.833 3.66699 29.5 11s8.5 19 8.5 35v393c0 16 -1.66699 29.333 -5 40s-8.33301 19.667 -15 27s-15 12.666 -25 15.999s-21.333 5 -34 5
c-18.667 0 -35.5 -5.16699 -50.5 -15.5s-26.833 -25 -35.5 -44s-13 -41.833 -13 -68.5v-307h-116v526h97l10 -68h6c10.667 16.667 23.167 31 37.5 43s30.833 21.167 49.5 27.5s39 9.5 61 9.5c30.667 0 57 -5.5 79 -16.5s39 -28.667 51 -53s18 -56.833 18 -97.5v-432
c0 -18 -2.16699 -34.667 -6.5 -50s-11.166 -28.666 -20.499 -39.999s-21.5 -20.166 -36.5 -26.499s-33.167 -9.5 -54.5 -9.5z" />
    <glyph glyph-name="Omacron" unicode="&#x14c;" horiz-adv-x="699" 
d="M350 -12c-64.667 0 -120.167 12.667 -166.5 38s-81.666 64.333 -105.999 117s-36.5 119.334 -36.5 200.001c0 81.333 12.167 148.166 36.5 200.499s59.666 91.166 105.999 116.499s101.833 38 166.5 38s120 -12.667 166 -38s81.167 -64.166 105.5 -116.499
s36.5 -119.166 36.5 -200.499c0 -80.667 -12.167 -147.334 -36.5 -200.001s-59.5 -91.667 -105.5 -117s-101.333 -38 -166 -38zM350 95c29.333 0 55.166 4.83301 77.499 14.5s41.166 24 56.499 43s26.833 42.667 34.5 71s11.5 61.166 11.5 98.499v42
c0 37.333 -3.83301 70.333 -11.5 99s-19.167 52.5 -34.5 71.5s-34.166 33.333 -56.499 43s-48.166 14.5 -77.499 14.5c-30 0 -56.167 -4.83301 -78.5 -14.5s-41 -24 -56 -43s-26.333 -42.833 -34 -71.5s-11.5 -61.667 -11.5 -99v-42c0 -37.333 3.83301 -70.166 11.5 -98.499
s19 -52 34 -71s33.667 -33.333 56 -43s48.5 -14.5 78.5 -14.5zM215 761v78h268v-78h-268z" />
    <glyph glyph-name="omacron" unicode="&#x14d;" horiz-adv-x="533" 
d="M266 -12c-50.667 0 -93.167 9.66699 -127.5 29s-60 49.333 -77 90s-25.5 92.667 -25.5 156c0 64 8.5 116.167 25.5 156.5s42.667 70.166 77 89.499s76.833 29 127.5 29c52 0 95 -9.66699 129 -29s59.5 -49.166 76.5 -89.499s25.5 -92.5 25.5 -156.5
c0 -63.333 -8.5 -115.333 -25.5 -156s-42.5 -70.667 -76.5 -90s-77 -29 -129 -29zM267 83c26.667 0 48 5.83301 64 17.5s27.833 29.667 35.5 54s11.5 55.5 11.5 93.5v30c0 38 -3.83301 69.167 -11.5 93.5s-19.5 42.333 -35.5 54s-37.333 17.5 -64 17.5
s-48.167 -5.83301 -64.5 -17.5s-28.333 -29.667 -36 -54s-11.5 -55.5 -11.5 -93.5v-30c0 -38 3.83301 -69.167 11.5 -93.5s19.667 -42.333 36 -54s37.833 -17.5 64.5 -17.5zM132 621v79h268v-79h-268z" />
    <glyph glyph-name="Obreve" unicode="&#x14e;" horiz-adv-x="699" 
d="M350 -12c-64.667 0 -120.167 12.667 -166.5 38s-81.666 64.333 -105.999 117s-36.5 119.334 -36.5 200.001c0 81.333 12.167 148.166 36.5 200.499s59.666 91.166 105.999 116.499s101.833 38 166.5 38s120 -12.667 166 -38s81.167 -64.166 105.5 -116.499
s36.5 -119.166 36.5 -200.499c0 -80.667 -12.167 -147.334 -36.5 -200.001s-59.5 -91.667 -105.5 -117s-101.333 -38 -166 -38zM350 95c29.333 0 55.166 4.83301 77.499 14.5s41.166 24 56.499 43s26.833 42.667 34.5 71s11.5 61.166 11.5 98.499v42
c0 37.333 -3.83301 70.333 -11.5 99s-19.167 52.5 -34.5 71.5s-34.166 33.333 -56.499 43s-48.166 14.5 -77.499 14.5c-30 0 -56.167 -4.83301 -78.5 -14.5s-41 -24 -56 -43s-26.333 -42.833 -34 -71.5s-11.5 -61.667 -11.5 -99v-42c0 -37.333 3.83301 -70.166 11.5 -98.499
s19 -52 34 -71s33.667 -33.333 56 -43s48.5 -14.5 78.5 -14.5zM349 743c-34.667 0 -62 6.49707 -82 19.4971s-34.333 29.5 -43 49.5s-13 39.667 -13 59h70c1.33301 -7.33301 4.16602 -15.166 8.49902 -23.499s11.5 -15.333 21.5 -21s22.667 -8.5 38 -8.5
c16.667 0 30 2.83301 40 8.5s17.333 12.834 22 21.501s7.33398 16.334 8.00098 23.001h69c0 -19.333 -4.5 -39 -13.5 -59s-23.5 -36.5 -43.5 -49.5s-47.333 -19.5 -82 -19.5z" />
    <glyph glyph-name="obreve" unicode="&#x14f;" horiz-adv-x="533" 
d="M266 -12c-50.667 0 -93.167 9.66699 -127.5 29s-60 49.333 -77 90s-25.5 92.667 -25.5 156c0 64 8.5 116.167 25.5 156.5s42.667 70.166 77 89.499s76.833 29 127.5 29c52 0 95 -9.66699 129 -29s59.5 -49.166 76.5 -89.499s25.5 -92.5 25.5 -156.5
c0 -63.333 -8.5 -115.333 -25.5 -156s-42.5 -70.667 -76.5 -90s-77 -29 -129 -29zM266 83c27.333 0 49 5.83301 65 17.5s27.833 29.667 35.5 54s11.5 55.5 11.5 93.5v30c0 38 -3.83301 69.167 -11.5 93.5s-19.5 42.333 -35.5 54s-37.667 17.5 -65 17.5
c-26 0 -47.167 -5.83301 -63.5 -17.5s-28.333 -29.667 -36 -54s-11.5 -55.5 -11.5 -93.5v-30c0 -38 3.83301 -69.167 11.5 -93.5s19.667 -42.333 36 -54s37.5 -17.5 63.5 -17.5zM266 596c-34.667 0 -62 6.5 -82 19.5s-34.333 29.333 -43 49s-13 39.167 -13 58.5h71
c1.33301 -7.33301 4.16602 -15.5 8.49902 -24.5s11.166 -16.333 20.499 -22s22 -8.5 38 -8.5s28.833 2.83301 38.5 8.5s16.834 13 21.501 22s7.33398 17.167 8.00098 24.5h71c0 -19.333 -4.5 -38.833 -13.5 -58.5s-23.5 -36 -43.5 -49s-47.333 -19.5 -82 -19.5z" />
    <glyph glyph-name="Ohungarumlaut" unicode="&#x150;" horiz-adv-x="699" 
d="M350 -12c-64.667 0 -120.167 12.667 -166.5 38s-81.666 64.333 -105.999 117s-36.5 119.334 -36.5 200.001c0 81.333 12.167 148.166 36.5 200.499s59.666 91.166 105.999 116.499s101.833 38 166.5 38s120 -12.667 166 -38s81.167 -64.166 105.5 -116.499
s36.5 -119.166 36.5 -200.499c0 -80.667 -12.167 -147.334 -36.5 -200.001s-59.5 -91.667 -105.5 -117s-101.333 -38 -166 -38zM350 95c29.333 0 55.166 4.83301 77.499 14.5s41.166 24 56.499 43s26.833 42.667 34.5 71s11.5 61.166 11.5 98.499v42
c0 37.333 -3.83301 70.333 -11.5 99s-19.167 52.5 -34.5 71.5s-34.166 33.333 -56.499 43s-48.166 14.5 -77.499 14.5c-30 0 -56.167 -4.83301 -78.5 -14.5s-41 -24 -56 -43s-26.333 -42.833 -34 -71.5s-11.5 -61.667 -11.5 -99v-42c0 -37.333 3.83301 -70.166 11.5 -98.499
s19 -52 34 -71s33.667 -33.333 56 -43s48.5 -14.5 78.5 -14.5zM384 739l63 132h118l1 -3l-91 -129h-91zM220 739l63 132h118l1 -3l-91 -129h-91z" />
    <glyph glyph-name="ohungarumlaut" unicode="&#x151;" horiz-adv-x="533" 
d="M266 -12c-50.667 0 -93.167 9.66699 -127.5 29s-60 49.333 -77 90s-25.5 92.667 -25.5 156c0 64 8.5 116.167 25.5 156.5s42.667 70.166 77 89.499s76.833 29 127.5 29c52 0 95 -9.66699 129 -29s59.5 -49.166 76.5 -89.499s25.5 -92.5 25.5 -156.5
c0 -63.333 -8.5 -115.333 -25.5 -156s-42.5 -70.667 -76.5 -90s-77 -29 -129 -29zM267 83c26.667 0 48 5.83301 64 17.5s27.833 29.667 35.5 54s11.5 55.5 11.5 93.5v30c0 38 -3.83301 69.167 -11.5 93.5s-19.5 42.333 -35.5 54s-37.333 17.5 -64 17.5
s-48.167 -5.83301 -64.5 -17.5s-28.333 -29.667 -36 -54s-11.5 -55.5 -11.5 -93.5v-30c0 -38 3.83301 -69.167 11.5 -93.5s19.667 -42.333 36 -54s37.833 -17.5 64.5 -17.5zM138 591l63 132h118l1 -3l-90 -129h-92zM302 591l63 132h118l1 -3l-90 -129h-92z" />
    <glyph glyph-name="OE" unicode="&#x152;" horiz-adv-x="1058" 
d="M340 -12c-62.667 0 -116.334 12.6699 -161.001 38.0029s-78.834 64.333 -102.501 117s-35.5 119.334 -35.5 200.001c0 81.333 11.833 148.166 35.5 200.499s57.834 91.166 102.501 116.499s98.334 38 161.001 38c39.333 0 75 -5.33301 107 -16s59.667 -27.334 83 -50.001
v54h477v-107h-353v-175h313v-108h-313v-188h359v-108h-483v54c-23.333 -22.667 -51 -39.334 -83 -50.001s-67.667 -16 -107 -16zM350 95.0029c30 0 56.167 5 78.5 15s41 24.833 56 44.5s26.333 44 34 73s11.5 62.5 11.5 100.5v29c0 38.667 -3.83301 72.667 -11.5 102
s-19 53.833 -34 73.5s-33.667 34.5 -56 44.5s-48.5 15 -78.5 15c-30.667 0 -57.167 -5.16699 -79.5 -15.5s-41 -25.333 -56 -45s-26.167 -44 -33.5 -73s-11 -62.833 -11 -101.5v-29c0 -38 3.66699 -71.5 11 -100.5s18.5 -53.333 33.5 -73s33.667 -34.5 56 -44.5
s48.833 -15 79.5 -15z" />
    <glyph glyph-name="oe" unicode="&#x153;" horiz-adv-x="846" 
d="M264 -12c-50 0 -91.999 9.66895 -125.999 29.002s-59.5 49.333 -76.5 90s-25.5 92.667 -25.5 156c0 64 8.5 116.167 25.5 156.5s42.5 70.166 76.5 89.499s76 29 126 29c38 0 71.167 -6.16699 99.5 -18.5s51.5 -31.5 69.5 -57.5c18.667 26.667 41.834 46 69.501 58
s60.5 18 98.5 18c46.667 0 85.5 -8.83301 116.5 -26.5s54.167 -45.834 69.5 -84.501s23 -89.667 23 -153v-38h-317c0.666992 -34.667 4.66699 -63.667 12 -87s18.666 -40.5 33.999 -51.5s36 -16.5 62 -16.5c13.333 0 25.833 2 37.5 6s21.667 10.167 30 18.5
s14.833 19 19.5 32s7 28.5 7 46.5h115c-0.666992 -33.333 -6 -62.333 -16 -87s-24.333 -45 -43 -61s-40.834 -28 -66.501 -36s-54.167 -12 -85.5 -12c-38 0 -70.667 6.16699 -98 18.5s-50 31.166 -68 56.499c-18.667 -25.333 -42 -44.166 -70 -56.499s-61 -18.5 -99 -18.5z
M264.001 83.002c26.667 0 48 5.83105 64 17.498s27.667 29.5 35 53.5s11 54.667 11 92v33c0 38 -3.66699 69 -11 93s-19 41.833 -35 53.5s-37.333 17.5 -64 17.5c-25.333 0 -46 -5.66699 -62 -17s-27.833 -29.166 -35.5 -53.499s-11.5 -55.166 -11.5 -92.499v-33
c0 -38 3.83301 -69 11.5 -93s19.5 -41.833 35.5 -53.5s36.667 -17.5 62 -17.5zM494.001 314l196 -0.00195312c0 24 -1.83301 44.167 -5.5 60.5s-9.5 29.833 -17.5 40.5s-17.5 18.334 -28.5 23.001s-23.833 7 -38.5 7c-23.333 0 -42.333 -4.83301 -57 -14.5
s-26 -24.167 -34 -43.5s-13 -43.666 -15 -72.999z" />
    <glyph glyph-name="Racute" unicode="&#x154;" horiz-adv-x="640" 
d="M68 0l-0.000976562 685.999h311c50 0 90.833 -8.66699 122.5 -26s54.834 -41.666 69.501 -72.999s22 -67.333 22 -108c0 -44.667 -8.66699 -84.167 -26 -118.5s-43.333 -59.833 -78 -76.5l129 -284h-135l-114 256h-175v-256h-126zM193.999 361.999l172 0.000976562
c33.333 0 58.333 10 75 30s25 47.667 25 83c0 23.333 -3.66699 42.666 -11 57.999s-18.333 26.833 -33 34.5s-33.667 11.5 -57 11.5h-171v-217zM269.999 739l74 132h120l1 -3l-100 -129h-95z" />
    <glyph glyph-name="racute" unicode="&#x155;" horiz-adv-x="325" 
d="M58 0l-0.00488281 526.001h97l9 -79h6c6.66699 17.333 14.5 32.833 23.5 46.5s20.333 24.5 34 32.5s29.834 12 48.501 12c8.66699 0 16.834 -0.666992 24.501 -2s13.834 -3 18.501 -5v-114h-37c-17.333 0 -32.666 -2.66699 -45.999 -8s-24.666 -13.833 -33.999 -25.5
s-16.333 -26.334 -21 -44.001s-7 -38.5 -7 -62.5v-277h-116zM131.995 591.001l73 132h116l1 -3l-101 -129h-89z" />
    <glyph glyph-name="uni0156" unicode="&#x156;" horiz-adv-x="640" 
d="M68 0l-0.000976562 685.999h311c50 0 90.833 -8.66699 122.5 -26s54.834 -41.666 69.501 -72.999s22 -67.333 22 -108c0 -44.667 -8.66699 -84.167 -26 -118.5s-43.333 -59.833 -78 -76.5l129 -284h-135l-114 256h-175v-256h-126zM193.999 361.999l172 0.000976562
c33.333 0 58.333 10 75 30s25 47.667 25 83c0 23.333 -3.66699 42.666 -11 57.999s-18.333 26.833 -33 34.5s-33.667 11.5 -57 11.5h-171v-217zM262.999 -303v47c18.667 0 32.334 6 41.001 18s13 27.333 13 46h-47v116h104v-93c0 -32 -4.83301 -58 -14.5 -78
s-22.834 -34.333 -39.501 -43s-35.667 -13 -57 -13z" />
    <glyph glyph-name="uni0157" unicode="&#x157;" horiz-adv-x="325" 
d="M58 0l-0.00488281 526.001h97l9 -79h6c6.66699 17.333 14.5 32.833 23.5 46.5s20.333 24.5 34 32.5s29.834 12 48.501 12c8.66699 0 16.834 -0.666992 24.501 -2s13.834 -3 18.501 -5v-114h-37c-17.333 0 -32.666 -2.66699 -45.999 -8s-24.666 -13.833 -33.999 -25.5
s-16.333 -26.334 -21 -44.001s-7 -38.5 -7 -62.5v-277h-116zM56.9951 -302.999l-0.000976562 47c18.667 0 32.334 6 41.001 18s13 27.333 13 46h-46v116h104v-93c0 -32 -5 -58 -15 -78s-23.167 -34.333 -39.5 -43s-35.5 -13 -57.5 -13z" />
    <glyph glyph-name="Rcaron" unicode="&#x158;" horiz-adv-x="640" 
d="M68 0l-0.000976562 685.999h311c50 0 90.833 -8.66699 122.5 -26s54.834 -41.666 69.501 -72.999s22 -67.333 22 -108c0 -44.667 -8.66699 -84.167 -26 -118.5s-43.333 -59.833 -78 -76.5l129 -284h-135l-114 256h-175v-256h-126zM193.999 361.999l172 0.000976562
c33.333 0 58.333 10 75 30s25 47.667 25 83c0 23.333 -3.66699 42.666 -11 57.999s-18.333 26.833 -33 34.5s-33.667 11.5 -57 11.5h-171v-217zM168.999 871h97l81 -110l-52 -1l79 111h97l-96 -132h-109z" />
    <glyph glyph-name="rcaron" unicode="&#x159;" horiz-adv-x="325" 
d="M58 0l-0.00488281 526.001h97l9 -79h6c6.66699 17.333 14.5 32.833 23.5 46.5s20.333 24.5 34 32.5s29.834 12 48.501 12c8.66699 0 16.834 -0.666992 24.501 -2s13.834 -3 18.501 -5v-114h-37c-17.333 0 -32.666 -2.66699 -45.999 -8s-24.666 -13.833 -33.999 -25.5
s-16.333 -26.334 -21 -44.001s-7 -38.5 -7 -62.5v-277h-116zM40.9951 723.001h92l81 -110l-52 -1l79 111h92l-96 -132h-99z" />
    <glyph glyph-name="Sacute" unicode="&#x15a;" horiz-adv-x="591" 
d="M295 -12c-34.667 0 -67.499 3.83398 -98.499 11.501s-58.333 19.834 -82 36.501s-42.167 38.334 -55.5 65.001s-20 59 -20 97v11.5v8.5h125v-8v-10c0 -23.333 5 -42.833 15 -58.5s25 -27.334 45 -35.001s44 -11.5 72 -11.5c18.667 0 35 1.16699 49 3.5
s26.167 6.16602 36.5 11.499s19 11.5 26 18.5s12 15.167 15 24.5s4.5 19.666 4.5 30.999c0 19.333 -5.16699 35.333 -15.5 48s-24.5 23.5 -42.5 32.5s-38 17 -60 24s-44.833 14.167 -68.5 21.5s-46.667 16.166 -69 26.499s-42.333 22.833 -60 37.5
s-31.834 32.834 -42.501 54.501s-16 47.834 -16 78.501c0 32.667 6.33301 61.167 19 85.5s30.167 44.333 52.5 60s48.333 27.167 78 34.5s61.834 11 96.501 11c33.333 0 64.5 -3.66699 93.5 -11s54.5 -18.833 76.5 -34.5s39.167 -35.834 51.5 -60.501
s18.5 -54.334 18.5 -89.001v-15h-123v12c0 19.333 -4.66699 35.833 -14 49.5s-22.666 24.167 -39.999 31.5s-38.333 11 -63 11s-45.834 -2.83301 -63.501 -8.5s-31.334 -14.167 -41.001 -25.5s-14.5 -25.666 -14.5 -42.999s5.16699 -32 15.5 -44s24.5 -22.167 42.5 -30.5
s38 -16 60 -23s44.833 -14.167 68.5 -21.5s46.667 -16 69 -26s42.5 -22.5 60.5 -37.5s32.167 -33.167 42.5 -54.5s15.5 -47.333 15.5 -78c0 -50.667 -11 -91.5 -33 -122.5s-52.5 -53.667 -91.5 -68s-83.833 -21.5 -134.5 -21.5zM247.001 739.001l74 132h120l1 -3l-100 -129
h-95z" />
    <glyph glyph-name="sacute" unicode="&#x15b;" horiz-adv-x="478" 
d="M237 -12c-35.333 0 -65.8311 4.00098 -91.498 12.001s-46.834 19.167 -63.501 33.5s-29 31.166 -37 50.499s-12 40.333 -12 63c0 3.33301 0.166992 6.66602 0.5 9.99902s0.5 6.33301 0.5 9h111v-7v-6c0.666992 -16.667 5.16699 -30.667 13.5 -42
s19.666 -19.666 33.999 -24.999s29.833 -8 46.5 -8s31.667 2.16699 45 6.5s24 11.166 32 20.499s12 21 12 35c0 17.333 -5.66699 30.833 -17 40.5s-26.333 17.667 -45 24s-38.667 12.833 -60 19.5c-18.667 6 -37.667 12.833 -57 20.5s-36.833 17.167 -52.5 28.5
s-28.334 26 -38.001 44s-14.5 40.667 -14.5 68c0 25.333 5 47.5 15 66.5s24 34.833 42 47.5s39 22.334 63 29.001s50.333 10 79 10c28 0 53.5 -3.16699 76.5 -9.5s42.833 -15.5 59.5 -27.5s29.5 -26.667 38.5 -44s13.5 -36.333 13.5 -57
c0 -5.33301 -0.166992 -10.5 -0.5 -15.5s-0.5 -8.83301 -0.5 -11.5h-110v13c0 13.333 -3.33301 24.5 -10 33.5s-16 16 -28 21s-26.667 7.5 -44 7.5c-13.333 0 -25 -1.33301 -35 -4s-18.333 -6.5 -25 -11.5s-11.667 -10.833 -15 -17.5s-5 -14 -5 -22
c0 -13.333 4.66699 -24.166 14 -32.499s21.666 -15.333 36.999 -21s32 -11.5 50 -17.5c20.667 -6 41.834 -12.667 63.501 -20s41.834 -16.5 60.501 -27.5s33.667 -25.833 45 -44.5s17 -43.334 17 -74.001c0 -30 -5.16699 -55.833 -15.5 -77.5s-24.833 -39 -43.5 -52
s-40.667 -22.667 -66 -29s-53 -9.5 -83 -9.5zM183.002 591.001l73 132h116l1 -3l-101 -129h-89z" />
    <glyph glyph-name="Scircumflex" unicode="&#x15c;" horiz-adv-x="591" 
d="M295 -12c-34.667 0 -67.499 3.83398 -98.499 11.501s-58.333 19.834 -82 36.501s-42.167 38.334 -55.5 65.001s-20 59 -20 97v11.5v8.5h125v-8v-10c0 -23.333 5 -42.833 15 -58.5s25 -27.334 45 -35.001s44 -11.5 72 -11.5c18.667 0 35 1.16699 49 3.5
s26.167 6.16602 36.5 11.499s19 11.5 26 18.5s12 15.167 15 24.5s4.5 19.666 4.5 30.999c0 19.333 -5.16699 35.333 -15.5 48s-24.5 23.5 -42.5 32.5s-38 17 -60 24s-44.833 14.167 -68.5 21.5s-46.667 16.166 -69 26.499s-42.333 22.833 -60 37.5
s-31.834 32.834 -42.501 54.501s-16 47.834 -16 78.501c0 32.667 6.33301 61.167 19 85.5s30.167 44.333 52.5 60s48.333 27.167 78 34.5s61.834 11 96.501 11c33.333 0 64.5 -3.66699 93.5 -11s54.5 -18.833 76.5 -34.5s39.167 -35.834 51.5 -60.501
s18.5 -54.334 18.5 -89.001v-15h-123v12c0 19.333 -4.66699 35.833 -14 49.5s-22.666 24.167 -39.999 31.5s-38.333 11 -63 11s-45.834 -2.83301 -63.501 -8.5s-31.334 -14.167 -41.001 -25.5s-14.5 -25.666 -14.5 -42.999s5.16699 -32 15.5 -44s24.5 -22.167 42.5 -30.5
s38 -16 60 -23s44.833 -14.167 68.5 -21.5s46.667 -16 69 -26s42.5 -22.5 60.5 -37.5s32.167 -33.167 42.5 -54.5s15.5 -47.333 15.5 -78c0 -50.667 -11 -91.5 -33 -122.5s-52.5 -53.667 -91.5 -68s-83.833 -21.5 -134.5 -21.5zM146.001 739.001l97 132h109l96 -132h-97
l-79 111l52 -1l-81 -110h-97z" />
    <glyph glyph-name="scircumflex" unicode="&#x15d;" horiz-adv-x="478" 
d="M237 -12c-35.333 0 -65.8311 4.00098 -91.498 12.001s-46.834 19.167 -63.501 33.5s-29 31.166 -37 50.499s-12 40.333 -12 63c0 3.33301 0.166992 6.66602 0.5 9.99902s0.5 6.33301 0.5 9h111v-7v-6c0.666992 -16.667 5.16699 -30.667 13.5 -42
s19.666 -19.666 33.999 -24.999s29.833 -8 46.5 -8s31.667 2.16699 45 6.5s24 11.166 32 20.499s12 21 12 35c0 17.333 -5.66699 30.833 -17 40.5s-26.333 17.667 -45 24s-38.667 12.833 -60 19.5c-18.667 6 -37.667 12.833 -57 20.5s-36.833 17.167 -52.5 28.5
s-28.334 26 -38.001 44s-14.5 40.667 -14.5 68c0 25.333 5 47.5 15 66.5s24 34.833 42 47.5s39 22.334 63 29.001s50.333 10 79 10c28 0 53.5 -3.16699 76.5 -9.5s42.833 -15.5 59.5 -27.5s29.5 -26.667 38.5 -44s13.5 -36.333 13.5 -57
c0 -5.33301 -0.166992 -10.5 -0.5 -15.5s-0.5 -8.83301 -0.5 -11.5h-110v13c0 13.333 -3.33301 24.5 -10 33.5s-16 16 -28 21s-26.667 7.5 -44 7.5c-13.333 0 -25 -1.33301 -35 -4s-18.333 -6.5 -25 -11.5s-11.667 -10.833 -15 -17.5s-5 -14 -5 -22
c0 -13.333 4.66699 -24.166 14 -32.499s21.666 -15.333 36.999 -21s32 -11.5 50 -17.5c20.667 -6 41.834 -12.667 63.501 -20s41.834 -16.5 60.501 -27.5s33.667 -25.833 45 -44.5s17 -43.334 17 -74.001c0 -30 -5.16699 -55.833 -15.5 -77.5s-24.833 -39 -43.5 -52
s-40.667 -22.667 -66 -29s-53 -9.5 -83 -9.5zM92.002 591.001l97 132h99l96 -132h-92l-79 111l51 -1l-80 -110h-92z" />
    <glyph glyph-name="Scedilla" unicode="&#x15e;" horiz-adv-x="591" 
d="M295 -12c-34.667 0 -67.499 3.83398 -98.499 11.501s-58.333 19.834 -82 36.501s-42.167 38.334 -55.5 65.001s-20 59 -20 97v11.5v8.5h125v-8v-10c0 -23.333 5 -42.833 15 -58.5s25 -27.334 45 -35.001s44 -11.5 72 -11.5c18.667 0 35 1.16699 49 3.5
s26.167 6.16602 36.5 11.499s19 11.5 26 18.5s12 15.167 15 24.5s4.5 19.666 4.5 30.999c0 19.333 -5.16699 35.333 -15.5 48s-24.5 23.5 -42.5 32.5s-38 17 -60 24s-44.833 14.167 -68.5 21.5s-46.667 16.166 -69 26.499s-42.333 22.833 -60 37.5
s-31.834 32.834 -42.501 54.501s-16 47.834 -16 78.501c0 32.667 6.33301 61.167 19 85.5s30.167 44.333 52.5 60s48.333 27.167 78 34.5s61.834 11 96.501 11c33.333 0 64.5 -3.66699 93.5 -11s54.5 -18.833 76.5 -34.5s39.167 -35.834 51.5 -60.501
s18.5 -54.334 18.5 -89.001v-15h-123v12c0 19.333 -4.66699 35.833 -14 49.5s-22.666 24.167 -39.999 31.5s-38.333 11 -63 11s-45.834 -2.83301 -63.501 -8.5s-31.334 -14.167 -41.001 -25.5s-14.5 -25.666 -14.5 -42.999s5.16699 -32 15.5 -44s24.5 -22.167 42.5 -30.5
s38 -16 60 -23s44.833 -14.167 68.5 -21.5s46.667 -16 69 -26s42.5 -22.5 60.5 -37.5s32.167 -33.167 42.5 -54.5s15.5 -47.333 15.5 -78c0 -50.667 -11 -91.5 -33 -122.5s-52.5 -53.667 -91.5 -68s-83.833 -21.5 -134.5 -21.5zM298.001 -186.999
c-15.333 0 -30.998 0.831055 -46.998 2.49805s-30.333 3.83398 -43 6.50098v48h78c13.333 0 23.666 1.83301 30.999 5.5s11 10.167 11 19.5c0 8.66699 -3 14.834 -9 18.501s-16.333 5.5 -31 5.5h-36l14 97h70l-5 -51c14 -0.666992 27.333 -3.5 40 -8.5s23 -12.333 31 -22
s12 -22.5 12 -38.5c0 -17.333 -3.83301 -31.5 -11.5 -42.5s-17.334 -19.333 -29.001 -25s-24.167 -9.66699 -37.5 -12s-26 -3.5 -38 -3.5z" />
    <glyph glyph-name="scedilla" unicode="&#x15f;" horiz-adv-x="478" 
d="M237 -12c-35.333 0 -65.8311 4.00098 -91.498 12.001s-46.834 19.167 -63.501 33.5s-29 31.166 -37 50.499s-12 40.333 -12 63c0 3.33301 0.166992 6.66602 0.5 9.99902s0.5 6.33301 0.5 9h111v-7v-6c0.666992 -16.667 5.16699 -30.667 13.5 -42
s19.666 -19.666 33.999 -24.999s29.833 -8 46.5 -8s31.667 2.16699 45 6.5s24 11.166 32 20.499s12 21 12 35c0 17.333 -5.66699 30.833 -17 40.5s-26.333 17.667 -45 24s-38.667 12.833 -60 19.5c-18.667 6 -37.667 12.833 -57 20.5s-36.833 17.167 -52.5 28.5
s-28.334 26 -38.001 44s-14.5 40.667 -14.5 68c0 25.333 5 47.5 15 66.5s24 34.833 42 47.5s39 22.334 63 29.001s50.333 10 79 10c28 0 53.5 -3.16699 76.5 -9.5s42.833 -15.5 59.5 -27.5s29.5 -26.667 38.5 -44s13.5 -36.333 13.5 -57
c0 -5.33301 -0.166992 -10.5 -0.5 -15.5s-0.5 -8.83301 -0.5 -11.5h-110v13c0 13.333 -3.33301 24.5 -10 33.5s-16 16 -28 21s-26.667 7.5 -44 7.5c-13.333 0 -25 -1.33301 -35 -4s-18.333 -6.5 -25 -11.5s-11.667 -10.833 -15 -17.5s-5 -14 -5 -22
c0 -13.333 4.66699 -24.166 14 -32.499s21.666 -15.333 36.999 -21s32 -11.5 50 -17.5c20.667 -6 41.834 -12.667 63.501 -20s41.834 -16.5 60.501 -27.5s33.667 -25.833 45 -44.5s17 -43.334 17 -74.001c0 -30 -5.16699 -55.833 -15.5 -77.5s-24.833 -39 -43.5 -52
s-40.667 -22.667 -66 -29s-53 -9.5 -83 -9.5zM240.002 -186.999c-15.333 0 -31.168 0.831055 -47.501 2.49805s-30.833 3.83398 -43.5 6.50098v48h79c12.667 0 22.667 1.83301 30 5.5s11 10.167 11 19.5c0 8.66699 -3 14.834 -9 18.501s-16 5.5 -30 5.5h-37l14 97h70l-5 -51
c14 -0.666992 27.5 -3.5 40.5 -8.5s23.5 -12.333 31.5 -22s12 -22.5 12 -38.5c0 -17.333 -3.83301 -31.5 -11.5 -42.5s-17.5 -19.333 -29.5 -25s-24.667 -9.66699 -38 -12s-25.666 -3.5 -36.999 -3.5z" />
    <glyph glyph-name="Scaron" unicode="&#x160;" horiz-adv-x="591" 
d="M295 -12c-34.667 0 -67.499 3.83398 -98.499 11.501s-58.333 19.834 -82 36.501s-42.167 38.334 -55.5 65.001s-20 59 -20 97v11.5v8.5h125v-8v-10c0 -23.333 5 -42.833 15 -58.5s25 -27.334 45 -35.001s44 -11.5 72 -11.5c18.667 0 35 1.16699 49 3.5
s26.167 6.16602 36.5 11.499s19 11.5 26 18.5s12 15.167 15 24.5s4.5 19.666 4.5 30.999c0 19.333 -5.16699 35.333 -15.5 48s-24.5 23.5 -42.5 32.5s-38 17 -60 24s-44.833 14.167 -68.5 21.5s-46.667 16.166 -69 26.499s-42.333 22.833 -60 37.5
s-31.834 32.834 -42.501 54.501s-16 47.834 -16 78.501c0 32.667 6.33301 61.167 19 85.5s30.167 44.333 52.5 60s48.333 27.167 78 34.5s61.834 11 96.501 11c33.333 0 64.5 -3.66699 93.5 -11s54.5 -18.833 76.5 -34.5s39.167 -35.834 51.5 -60.501
s18.5 -54.334 18.5 -89.001v-15h-123v12c0 19.333 -4.66699 35.833 -14 49.5s-22.666 24.167 -39.999 31.5s-38.333 11 -63 11s-45.834 -2.83301 -63.501 -8.5s-31.334 -14.167 -41.001 -25.5s-14.5 -25.666 -14.5 -42.999s5.16699 -32 15.5 -44s24.5 -22.167 42.5 -30.5
s38 -16 60 -23s44.833 -14.167 68.5 -21.5s46.667 -16 69 -26s42.5 -22.5 60.5 -37.5s32.167 -33.167 42.5 -54.5s15.5 -47.333 15.5 -78c0 -50.667 -11 -91.5 -33 -122.5s-52.5 -53.667 -91.5 -68s-83.833 -21.5 -134.5 -21.5zM146.001 871.001h97l81 -110l-52 -1l79 111
h97l-96 -132h-109z" />
    <glyph glyph-name="scaron" unicode="&#x161;" horiz-adv-x="478" 
d="M237 -12c-35.333 0 -65.8311 4.00098 -91.498 12.001s-46.834 19.167 -63.501 33.5s-29 31.166 -37 50.499s-12 40.333 -12 63c0 3.33301 0.166992 6.66602 0.5 9.99902s0.5 6.33301 0.5 9h111v-7v-6c0.666992 -16.667 5.16699 -30.667 13.5 -42
s19.666 -19.666 33.999 -24.999s29.833 -8 46.5 -8s31.667 2.16699 45 6.5s24 11.166 32 20.499s12 21 12 35c0 17.333 -5.66699 30.833 -17 40.5s-26.333 17.667 -45 24s-38.667 12.833 -60 19.5c-18.667 6 -37.667 12.833 -57 20.5s-36.833 17.167 -52.5 28.5
s-28.334 26 -38.001 44s-14.5 40.667 -14.5 68c0 25.333 5 47.5 15 66.5s24 34.833 42 47.5s39 22.334 63 29.001s50.333 10 79 10c28 0 53.5 -3.16699 76.5 -9.5s42.833 -15.5 59.5 -27.5s29.5 -26.667 38.5 -44s13.5 -36.333 13.5 -57
c0 -5.33301 -0.166992 -10.5 -0.5 -15.5s-0.5 -8.83301 -0.5 -11.5h-110v13c0 13.333 -3.33301 24.5 -10 33.5s-16 16 -28 21s-26.667 7.5 -44 7.5c-13.333 0 -25 -1.33301 -35 -4s-18.333 -6.5 -25 -11.5s-11.667 -10.833 -15 -17.5s-5 -14 -5 -22
c0 -13.333 4.66699 -24.166 14 -32.499s21.666 -15.333 36.999 -21s32 -11.5 50 -17.5c20.667 -6 41.834 -12.667 63.501 -20s41.834 -16.5 60.501 -27.5s33.667 -25.833 45 -44.5s17 -43.334 17 -74.001c0 -30 -5.16699 -55.833 -15.5 -77.5s-24.833 -39 -43.5 -52
s-40.667 -22.667 -66 -29s-53 -9.5 -83 -9.5zM92.002 723.001h92l80 -110l-51 -1l79 111h92l-96 -132h-99z" />
    <glyph glyph-name="uni0162" unicode="&#x162;" horiz-adv-x="559" 
d="M217 0v578h-196v108h517v-108h-196v-578h-125zM280 -187c-15.333 0 -30.999 0.831055 -46.999 2.49805s-30.333 3.83398 -43 6.50098v48h78c13.333 0 23.5 1.83301 30.5 5.5s10.5 10.167 10.5 19.5c0 8.66699 -2.83301 14.834 -8.5 18.501s-15.834 5.5 -30.501 5.5h-36
l14 97h70l-5 -51c14 -0.666992 27.333 -3.5 40 -8.5s23 -12.333 31 -22s12 -22.5 12 -38.5c0 -17.333 -3.83301 -31.5 -11.5 -42.5s-17.5 -19.333 -29.5 -25s-24.5 -9.66699 -37.5 -12s-25.5 -3.5 -37.5 -3.5z" />
    <glyph glyph-name="uni0163" unicode="&#x163;" horiz-adv-x="286" 
d="M183 -12c-29.333 0 -52.332 6 -68.999 18s-28.334 27.667 -35.001 47s-10 40 -10 62v316h-55v95h57l21 149h92v-149h80v-95h-80v-304c0 -14 3 -24.667 9 -32s15.667 -11 29 -11h42v-80c-7.33301 -2.66699 -15.666 -5.16699 -24.999 -7.5s-18.833 -4.33301 -28.5 -6
s-18.834 -2.5 -27.501 -2.5zM169.001 -187c-16 0 -32 0.831055 -48 2.49805s-30.333 3.83398 -43 6.50098v48h79c12.667 0 22.667 1.83301 30 5.5s11 10.167 11 19.5c0 8.66699 -3 14.834 -9 18.501s-16 5.5 -30 5.5h-37l14 97h70l-5 -51c14 -0.666992 27.333 -3.5 40 -8.5
s23 -12.333 31 -22s12 -22.5 12 -38.5c0 -17.333 -3.83301 -31.5 -11.5 -42.5s-17.334 -19.333 -29.001 -25s-24.167 -9.66699 -37.5 -12s-25.666 -3.5 -36.999 -3.5z" />
    <glyph glyph-name="Tcaron" unicode="&#x164;" horiz-adv-x="559" 
d="M217 0v578h-196v108h517v-108h-196v-578h-125zM129 871h97l80 -110l-52 -1l79 111h98l-96 -132h-110z" />
    <glyph glyph-name="tcaron" unicode="&#x165;" horiz-adv-x="286" 
d="M183 -12c-29.333 0 -52.332 6 -68.999 18s-28.334 27.667 -35.001 47s-10 40 -10 62v316h-55v95h57l21 149h92v-149h80v-95h-80v-304c0 -14 3 -24.667 9 -32s15.667 -11 29 -11h42v-80c-7.33301 -2.66699 -15.666 -5.16699 -24.999 -7.5s-18.833 -4.33301 -28.5 -6
s-18.834 -2.5 -27.501 -2.5zM218.001 555v168h105l-31 -168h-74z" />
    <glyph glyph-name="Tbar" unicode="&#x166;" horiz-adv-x="559" 
d="M217 0v578h-196v108h517v-108h-196v-578h-125zM130 281v86h300v-86h-300z" />
    <glyph glyph-name="tbar" unicode="&#x167;" horiz-adv-x="286" 
d="M14 235v76h242v-76h-242zM183 -12c-29.333 0 -52.332 6 -68.999 18s-28.334 27.667 -35.001 47s-10 40 -10 62v316h-55v95h57l21 149h92v-149h80v-95h-80v-304c0 -14 3 -24.667 9 -32s15.667 -11 29 -11h42v-80c-7.33301 -2.66699 -15.666 -5.16699 -24.999 -7.5
s-18.833 -4.33301 -28.5 -6s-18.834 -2.5 -27.501 -2.5z" />
    <glyph glyph-name="Utilde" unicode="&#x168;" horiz-adv-x="646" 
d="M322 -12c-53.333 0 -99.3311 8.66699 -137.998 26s-68.334 44.833 -89.001 82.5s-31 86.167 -31 145.5v444h125v-445c0 -48.667 11.333 -85.167 34 -109.5s55.667 -36.5 99 -36.5s76.666 12.167 99.999 36.5s35 60.833 35 109.5v445h125v-444
c0 -59.333 -10.5 -107.833 -31.5 -145.5s-50.833 -65.167 -89.5 -82.5s-85 -26 -139 -26zM170.002 760c0 21.333 2.99902 40.332 8.99902 56.999s15.5 29.834 28.5 39.501s29.167 14.5 48.5 14.5c16 0 31 -2.66699 45 -8s27.667 -10.833 41 -16.5s26.666 -8.5 39.999 -8.5
c9.33301 0 16.5 2.66699 21.5 8s8.5 14 10.5 26h61c0 -20.667 -3.16699 -39.5 -9.5 -56.5s-15.666 -30.5 -27.999 -40.5s-28.5 -15 -48.5 -15c-15.333 0 -30 3 -44 9s-27.667 11.833 -41 17.5s-27 8.5 -41 8.5c-8.66699 0 -15.667 -2.83301 -21 -8.5
s-8.66602 -14.5 -9.99902 -26.5h-62z" />
    <glyph glyph-name="utilde" unicode="&#x169;" horiz-adv-x="522" 
d="M203 -12c-45.333 0 -81.501 12.833 -108.501 38.5s-40.5 68.5 -40.5 128.5v371h116v-347c0 -15.333 1.66699 -28.5 5 -39.5s8.33301 -20 15 -27s14.834 -12.167 24.501 -15.5s20.834 -5 33.501 -5c19.333 0 36.5 5.16699 51.5 15.5s26.833 25.166 35.5 44.499
s13 42 13 68v306h115v-526h-96l-9 69h-6c-10.667 -16.667 -23.167 -31.167 -37.5 -43.5s-30.833 -21.666 -49.5 -27.999s-39.334 -9.5 -62.001 -9.5zM108.999 610c0 21.333 3.00293 40.332 9.00293 56.999s15.333 29.834 28 39.501s28.667 14.5 48 14.5
c16 0 31 -2.66699 45 -8s27.667 -10.833 41 -16.5s27 -8.5 41 -8.5c8.66699 0 15.667 2.66699 21 8s8.66602 14 9.99902 26h62c0 -20.667 -3.16699 -39.5 -9.5 -56.5s-15.833 -30.5 -28.5 -40.5s-29 -15 -49 -15c-15.333 0 -30 3 -44 9s-27.5 11.833 -40.5 17.5
s-26.5 8.5 -40.5 8.5c-8.66699 0 -15.834 -2.83301 -21.501 -8.5s-8.83398 -14.5 -9.50098 -26.5h-62z" />
    <glyph glyph-name="Umacron" unicode="&#x16a;" horiz-adv-x="646" 
d="M322 -12c-53.333 0 -99.3311 8.66699 -137.998 26s-68.334 44.833 -89.001 82.5s-31 86.167 -31 145.5v444h125v-445c0 -48.667 11.333 -85.167 34 -109.5s55.667 -36.5 99 -36.5s76.666 12.167 99.999 36.5s35 60.833 35 109.5v445h125v-444
c0 -59.333 -10.5 -107.833 -31.5 -145.5s-50.833 -65.167 -89.5 -82.5s-85 -26 -139 -26zM188.002 761v78h268v-78h-268z" />
    <glyph glyph-name="umacron" unicode="&#x16b;" horiz-adv-x="522" 
d="M203 -12c-45.333 0 -81.501 12.833 -108.501 38.5s-40.5 68.5 -40.5 128.5v371h116v-347c0 -15.333 1.66699 -28.5 5 -39.5s8.33301 -20 15 -27s14.834 -12.167 24.501 -15.5s20.834 -5 33.501 -5c19.333 0 36.5 5.16699 51.5 15.5s26.833 25.166 35.5 44.499
s13 42 13 68v306h115v-526h-96l-9 69h-6c-10.667 -16.667 -23.167 -31.167 -37.5 -43.5s-30.833 -21.666 -49.5 -27.999s-39.334 -9.5 -62.001 -9.5zM126.999 621v79h268v-79h-268z" />
    <glyph glyph-name="Ubreve" unicode="&#x16c;" horiz-adv-x="646" 
d="M322 -12c-53.333 0 -99.3311 8.66699 -137.998 26s-68.334 44.833 -89.001 82.5s-31 86.167 -31 145.5v444h125v-445c0 -48.667 11.333 -85.167 34 -109.5s55.667 -36.5 99 -36.5s76.666 12.167 99.999 36.5s35 60.833 35 109.5v445h125v-444
c0 -59.333 -10.5 -107.833 -31.5 -145.5s-50.833 -65.167 -89.5 -82.5s-85 -26 -139 -26zM322.002 743c-34 0 -61.1699 6.49707 -81.5029 19.4971s-34.666 29.5 -42.999 49.5s-12.5 39.667 -12.5 59h69c1.33301 -7.33301 4.33301 -15.166 9 -23.499
s11.834 -15.333 21.501 -21s22.5 -8.5 38.5 -8.5s29 2.83301 39 8.5s17.333 12.834 22 21.501s7.33398 16.334 8.00098 23.001h70c0 -19.333 -4.66699 -39 -14 -59s-24 -36.5 -44 -49.5s-47.333 -19.5 -82 -19.5z" />
    <glyph glyph-name="ubreve" unicode="&#x16d;" horiz-adv-x="522" 
d="M203 -12c-45.333 0 -81.501 12.833 -108.501 38.5s-40.5 68.5 -40.5 128.5v371h116v-347c0 -15.333 1.66699 -28.5 5 -39.5s8.33301 -20 15 -27s14.834 -12.167 24.501 -15.5s20.834 -5 33.501 -5c19.333 0 36.5 5.16699 51.5 15.5s26.833 25.166 35.5 44.499
s13 42 13 68v306h115v-526h-96l-9 69h-6c-10.667 -16.667 -23.167 -31.167 -37.5 -43.5s-30.833 -21.666 -49.5 -27.999s-39.334 -9.5 -62.001 -9.5zM259.999 596c-34 0 -61.1699 6.5 -81.5029 19.5s-34.666 29.333 -42.999 49s-12.5 39.167 -12.5 58.5h71
c0.666992 -7.33301 3.33398 -15.5 8.00098 -24.5s11.667 -16.333 21 -22s22 -8.5 38 -8.5s28.833 2.83301 38.5 8.5s16.834 13 21.501 22s7 17.167 7 24.5h72c0 -19.333 -4.5 -38.833 -13.5 -58.5s-23.667 -36 -44 -49s-47.833 -19.5 -82.5 -19.5z" />
    <glyph glyph-name="Uring" unicode="&#x16e;" horiz-adv-x="646" 
d="M322 -12c-53.333 0 -99.3311 8.66699 -137.998 26s-68.334 44.833 -89.001 82.5s-31 86.167 -31 145.5v444h125v-445c0 -48.667 11.333 -85.167 34 -109.5s55.667 -36.5 99 -36.5s76.666 12.167 99.999 36.5s35 60.833 35 109.5v445h125v-444
c0 -59.333 -10.5 -107.833 -31.5 -145.5s-50.833 -65.167 -89.5 -82.5s-85 -26 -139 -26zM323.002 729c-29.333 0 -53.333 9.33301 -72 28s-28 42.334 -28 71.001c0 29.333 9.33301 53.333 28 72s42.667 28 72 28c28.667 0 52.334 -9.33301 71.001 -28s28 -42.667 28 -72
c0 -28.667 -9.33301 -52.334 -28 -71.001s-42.334 -28 -71.001 -28zM323.002 784c12.667 0 22.834 4 30.501 12s11.5 18.667 11.5 32s-3.83301 24.166 -11.5 32.499s-17.834 12.5 -30.501 12.5c-12 0 -22 -4.16699 -30 -12.5s-12 -19.166 -12 -32.499s4 -24 12 -32
s18 -12 30 -12z" />
    <glyph glyph-name="uring" unicode="&#x16f;" horiz-adv-x="522" 
d="M203 -12c-45.333 0 -81.501 12.833 -108.501 38.5s-40.5 68.5 -40.5 128.5v371h116v-347c0 -15.333 1.66699 -28.5 5 -39.5s8.33301 -20 15 -27s14.834 -12.167 24.501 -15.5s20.834 -5 33.501 -5c19.333 0 36.5 5.16699 51.5 15.5s26.833 25.166 35.5 44.499
s13 42 13 68v306h115v-526h-96l-9 69h-6c-10.667 -16.667 -23.167 -31.167 -37.5 -43.5s-30.833 -21.666 -49.5 -27.999s-39.334 -9.5 -62.001 -9.5zM260.999 579c-27.333 0 -49.833 9.33301 -67.5 28s-26.5 42.334 -26.5 71.001c0 29.333 8.83301 53.333 26.5 72
s40.167 28 67.5 28c28 0 50.833 -9.33301 68.5 -28s26.5 -42.667 26.5 -72c0 -28.667 -8.83301 -52.334 -26.5 -71.001s-40.5 -28 -68.5 -28zM260.999 631c12.667 0 22.834 4.33301 30.501 13s11.5 20 11.5 34s-3.83301 25.5 -11.5 34.5s-17.834 13.5 -30.501 13.5
c-12 0 -21.833 -4.5 -29.5 -13.5s-11.5 -20.5 -11.5 -34.5s3.83301 -25.333 11.5 -34s17.5 -13 29.5 -13z" />
    <glyph glyph-name="Uhungarumlaut" unicode="&#x170;" horiz-adv-x="646" 
d="M322 -12c-53.333 0 -99.3311 8.66699 -137.998 26s-68.334 44.833 -89.001 82.5s-31 86.167 -31 145.5v444h125v-445c0 -48.667 11.333 -85.167 34 -109.5s55.667 -36.5 99 -36.5s76.666 12.167 99.999 36.5s35 60.833 35 109.5v445h125v-444
c0 -59.333 -10.5 -107.833 -31.5 -145.5s-50.833 -65.167 -89.5 -82.5s-85 -26 -139 -26zM358.002 739l62 132h118l1 -3l-90 -129h-91zM193.002 739l63 132h118l1 -3l-90 -129h-92z" />
    <glyph glyph-name="uhungarumlaut" unicode="&#x171;" horiz-adv-x="522" 
d="M203 -12c-45.333 0 -81.501 12.833 -108.501 38.5s-40.5 68.5 -40.5 128.5v371h116v-347c0 -15.333 1.66699 -28.5 5 -39.5s8.33301 -20 15 -27s14.834 -12.167 24.501 -15.5s20.834 -5 33.501 -5c19.333 0 36.5 5.16699 51.5 15.5s26.833 25.166 35.5 44.499
s13 42 13 68v306h115v-526h-96l-9 69h-6c-10.667 -16.667 -23.167 -31.167 -37.5 -43.5s-30.833 -21.666 -49.5 -27.999s-39.334 -9.5 -62.001 -9.5zM132.999 591l63 132h118l1 -3l-91 -129h-91zM296.999 591l63 132h118l1 -3l-91 -129h-91z" />
    <glyph glyph-name="Uogonek" unicode="&#x172;" horiz-adv-x="646" 
d="M322 -12c-53.333 0 -99.3311 8.66699 -137.998 26s-68.334 44.833 -89.001 82.5s-31 86.167 -31 145.5v444h125v-445c0 -48.667 11.333 -85.167 34 -109.5s55.667 -36.5 99 -36.5s76.666 12.167 99.999 36.5s35 60.833 35 109.5v445h125v-444
c0 -59.333 -10.5 -107.833 -31.5 -145.5s-50.833 -65.167 -89.5 -82.5s-85 -26 -139 -26zM421.002 -184c-15.333 0 -30.502 2.83105 -45.502 8.49805s-27.167 15.334 -36.5 29.001s-14 31.834 -14 54.501c0 24 5 44.167 15 60.5s21 30.833 33 43.5h71v-4
c-7.33301 -6.66699 -14.666 -16.5 -21.999 -29.5s-11 -26.833 -11 -41.5s3.83301 -27.167 11.5 -37.5s19.834 -15.5 36.501 -15.5h33v-54c-10.667 -4.66699 -22.667 -8.16699 -36 -10.5s-25 -3.5 -35 -3.5z" />
    <glyph glyph-name="uogonek" unicode="&#x173;" horiz-adv-x="522" 
d="M425 -184c-15.333 0 -30.334 2.83105 -45.001 8.49805s-26.834 15.334 -36.501 29.001s-14.5 31.834 -14.5 54.501c0 24 5 44.167 15 60.5s21 30.833 33 43.5h71v-4c-7.33301 -6.66699 -14.666 -16.5 -21.999 -29.5s-11 -26.833 -11 -41.5s3.83301 -27.167 11.5 -37.5
s19.834 -15.5 36.501 -15.5h33v-54c-10 -4.66699 -21.833 -8.16699 -35.5 -10.5s-25.5 -3.5 -35.5 -3.5zM202.999 -12.002c-45.333 0 -81.501 12.833 -108.501 38.5s-40.5 68.5 -40.5 128.5v371h116v-347c0 -15.333 1.66699 -28.5 5 -39.5s8.33301 -20 15 -27
s14.834 -12.167 24.501 -15.5s20.834 -5 33.501 -5c19.333 0 36.5 5.16699 51.5 15.5s26.833 25.166 35.5 44.499s13 42 13 68v306h115v-526h-96l-9 69h-6c-10.667 -16.667 -23.167 -31.167 -37.5 -43.5s-30.833 -21.666 -49.5 -27.999s-39.334 -9.5 -62.001 -9.5z" />
    <glyph glyph-name="Wcircumflex" unicode="&#x174;" horiz-adv-x="861" 
d="M173 0l-161.998 686.002h131l88 -405c3.33301 -19.333 6.16602 -36.666 8.49902 -51.999s4.33301 -28.833 6 -40.5s2.83398 -21.5 3.50098 -29.5h6c0.666992 6 1.66699 14.167 3 24.5s3 21.666 5 33.999s4 24 6 35s3.33301 20.5 4 28.5l88 405h152l84 -405
c2.66699 -10.667 5 -23.167 7 -37.5s4 -28.833 6 -43.5s4 -28.334 6 -41.001h5c0.666992 6 1.83398 14 3.50098 24s3.5 20.833 5.5 32.5s4.16699 23.167 6.5 34.5s4.16602 21.666 5.49902 30.999l92 405h118l-167 -686h-141l-91 412
c-2.66699 17.333 -5.33398 34 -8.00098 50s-4.83398 30.333 -6.50098 43s-2.83398 23 -3.50098 31h-5c-0.666992 -8.66699 -2.16699 -20.667 -4.5 -36s-4.66602 -31 -6.99902 -47s-4.83301 -29.667 -7.5 -41l-92 -412h-145zM281.002 739.002l97 132h109l96 -132h-97l-79 111
l52 -1l-81 -110h-97z" />
    <glyph glyph-name="wcircumflex" unicode="&#x175;" horiz-adv-x="687" 
d="M141 0l-136.999 525.997h119l61 -278c3.33301 -13.333 6.16602 -27.166 8.49902 -41.499s4.33301 -27.166 6 -38.499s2.83398 -19.666 3.50098 -24.999h7c2 12 4.16699 25.167 6.5 39.5s4.5 27.833 6.5 40.5s3.33301 21.667 4 27l58 276h126l59 -277
c2.66699 -9.33301 5 -20.666 7 -33.999s4.16699 -26.333 6.5 -39s4.16602 -23.667 5.49902 -33h6c1.33301 9.33301 3 20.333 5 33s4.16699 25.334 6.5 38.001s4.5 23.667 6.5 33l61 279h110l-137 -526h-124l-52 255c-2.66699 12.667 -5.5 26.667 -8.5 42
s-5.66699 30.666 -8 45.999s-4.5 28.666 -6.5 39.999h-6c-0.666992 -6.66699 -2 -16.5 -4 -29.5s-4.5 -27.833 -7.5 -44.5s-6.5 -34.667 -10.5 -54l-54 -255h-124zM197.001 590.997l97 132h99l96 -132h-92l-79 111l52 -1l-81 -110h-92z" />
    <glyph glyph-name="Ycircumflex" unicode="&#x176;" horiz-adv-x="612" 
d="M243 0v278l-233 408h140l157 -287h5l156 287h133l-232 -408v-278h-126zM155 739l96 132h110l96 -132h-98l-79 111l52 -1l-80 -110h-97z" />
    <glyph glyph-name="ycircumflex" unicode="&#x177;" horiz-adv-x="467" 
d="M120 -187c-20.667 0 -38.332 1.66797 -52.999 5.00098s-24 5.66602 -28 6.99902v84h47c14.667 0 28.167 3.5 40.5 10.5s23.166 17.5 32.499 31.5s16.333 30.333 21 49l-174 526h121l81 -264c3.33301 -10.667 6.83301 -23.667 10.5 -39s7.5 -31 11.5 -47
s7.33301 -30.667 10 -44h6c2 10 4.33301 21.167 7 33.5s5.5 25 8.5 38s6.16699 25.5 9.5 37.5s6 22.667 8 32l67 253h116l-153 -508c-8.66699 -28.667 -18.5 -55.5 -29.5 -80.5s-23.667 -46.667 -38 -65s-31.333 -32.833 -51 -43.5s-43.167 -16 -70.5 -16zM96.002 591.001
l96 132h100l96 -132h-93l-79 111l52 -1l-80 -110h-92z" />
    <glyph glyph-name="Ydieresis" unicode="&#x178;" horiz-adv-x="612" 
d="M243 0v278l-233 408h140l157 -287h5l156 287h133l-232 -408v-278h-126zM169 761v110h96v-110h-96zM347 761v110h96v-110h-96z" />
    <glyph glyph-name="Zacute" unicode="&#x179;" horiz-adv-x="573" 
d="M27 0v59l330 520h-307v107h484v-59l-329 -520h337v-107h-515zM236 739l74 132h120l1 -3l-100 -129h-95z" />
    <glyph glyph-name="zacute" unicode="&#x17a;" horiz-adv-x="457" 
d="M22 0v54l237 377h-222v95h383v-52l-238 -378h248v-96h-408zM173 591l73 132h116l1 -3l-101 -129h-89z" />
    <glyph glyph-name="Zdotaccent" unicode="&#x17b;" horiz-adv-x="573" 
d="M27 0v59l330 520h-307v107h484v-59l-329 -520h337v-107h-515zM235 761v116h104v-116h-104z" />
    <glyph glyph-name="zdotaccent" unicode="&#x17c;" horiz-adv-x="457" 
d="M22 0v54l237 377h-222v95h383v-52l-238 -378h248v-96h-408zM177 608v114h103v-114h-103z" />
    <glyph glyph-name="Zcaron" unicode="&#x17d;" horiz-adv-x="573" 
d="M27 0v59l330 520h-307v107h484v-59l-329 -520h337v-107h-515zM135 871h97l81 -110l-52 -1l79 111h97l-96 -132h-109z" />
    <glyph glyph-name="zcaron" unicode="&#x17e;" horiz-adv-x="457" 
d="M22 0v54l237 377h-222v95h383v-52l-238 -378h248v-96h-408zM82 723h92l81 -110l-52 -1l79 111h92l-96 -132h-99z" />
    <glyph glyph-name="longs" unicode="&#x17f;" horiz-adv-x="283" 
d="M80 0l-0.00195312 431h-66v95h66v73c0 26 4 49 12 69s21 35.667 39 47s42 17 72 17c8 0 16.833 -0.666992 26.5 -2s18.834 -3 27.501 -5s16 -4.33301 22 -7v-81h-44c-13.333 0 -23.166 -3.83301 -29.499 -11.5s-9.5 -18.167 -9.5 -31.5v-594h-116z" />
    <glyph glyph-name="uni018F" unicode="&#x18f;" horiz-adv-x="680" 
d="M340 -12c-49.333 0 -92.334 6.33203 -129.001 18.999s-67.667 32.667 -93 60s-44.5 62.833 -57.5 106.5s-19.5 96.5 -19.5 158.5v45h468c-1.33301 50.667 -8.66602 92 -21.999 124s-32.833 55.5 -58.5 70.5s-58.5 22.5 -98.5 22.5c-22.667 0 -43.667 -2.66699 -63 -8
s-36.166 -13.666 -50.499 -24.999s-25.666 -26.166 -33.999 -44.499s-12.5 -40.5 -12.5 -66.5h-128c0 42.667 7.16699 79.5 21.5 110.5s34.666 56.667 60.999 77s57.166 35.5 92.499 45.5s74.333 15 117 15c68.667 0 125.5 -12.667 170.5 -38s78.5 -64.333 100.5 -117
s33 -120.334 33 -203.001c0 -80 -10.833 -146.167 -32.5 -198.5s-54.5 -91 -98.5 -116s-99.667 -37.5 -167 -37.5zM341.999 91.999c36 0 65.499 6.83301 88.499 20.5s40.833 34.5 53.5 62.5s20.334 64 23.001 108h-338c0 -34.667 4 -64.167 12 -88.5s19.5 -44 34.5 -59
s33.167 -26 54.5 -33s45.333 -10.5 72 -10.5z" />
    <glyph glyph-name="florin" unicode="&#x192;" horiz-adv-x="515" 
d="M87 -187c-8 0 -16.502 0.500977 -25.502 1.50098s-17.833 2.5 -26.5 4.5s-15.667 4.33301 -21 7l17 82h44c14 0 24.833 3.66699 32.5 11s12.834 17.666 15.501 30.999l96 453h-66l20 96h66l21 100c6 26 15 49 27 69s28.333 35.667 49 47s46 17 76 17
c8 0 16.5 -0.666992 25.5 -2s17.833 -3 26.5 -5s15.667 -4.33301 21 -7l-17 -81h-45c-13.333 0 -23.833 -3.83301 -31.5 -11.5s-12.834 -18.167 -15.501 -31.5l-21 -95h84l-20 -96h-83l-98 -457c-5.33301 -26 -14.166 -49.167 -26.499 -69.5s-28.666 -36 -48.999 -47
s-45.5 -16.5 -75.5 -16.5z" />
    <glyph glyph-name="uni019D" unicode="&#x19d;" horiz-adv-x="655" 
d="M68 -187c-8 0 -17.332 0.834961 -27.999 2.50195s-20.667 3.5 -30 5.5s-17.333 4.33301 -24 7v81h44c13.333 0 23 3.5 29 10.5s9 18.5 9 34.5v732h120l245 -390c2.66699 -4 6 -9.66699 10 -17s7.66699 -14.5 11 -21.5s5.66602 -12.5 6.99902 -16.5h5v27.5v27.5v390h121
v-686h-119l-246 394c-4.66699 7.33301 -10 17.333 -16 30s-10 21.667 -12 27h-5v-28v-29v-437c0 -20.667 -2.16699 -39.834 -6.5 -57.501s-11.333 -32.834 -21 -45.501s-22.167 -22.667 -37.5 -30s-34 -11 -56 -11z" />
    <glyph glyph-name="Ohorn" unicode="&#x1a0;" horiz-adv-x="699" 
d="M350 -12c-64.667 0 -120.167 12.667 -166.5 38s-81.666 64.333 -105.999 117s-36.5 119.334 -36.5 200.001c0 81.333 12.167 148.166 36.5 200.499s59.666 91.166 105.999 116.499s101.833 38 166.5 38s120 -12.667 166 -38s81.167 -64.166 105.5 -116.499
s36.5 -119.166 36.5 -200.499c0 -80.667 -12.167 -147.334 -36.5 -200.001s-59.5 -91.667 -105.5 -117s-101.333 -38 -166 -38zM350 95c29.333 0 55.166 4.83301 77.499 14.5s41.166 24 56.499 43s26.833 42.667 34.5 71s11.5 61.166 11.5 98.499v42
c0 37.333 -3.83301 70.333 -11.5 99s-19.167 52.5 -34.5 71.5s-34.166 33.333 -56.499 43s-48.166 14.5 -77.499 14.5c-30 0 -56.167 -4.83301 -78.5 -14.5s-41 -24 -56 -43s-26.333 -42.833 -34 -71.5s-11.5 -61.667 -11.5 -99v-42c0 -37.333 3.83301 -70.166 11.5 -98.499
s19 -52 34 -71s33.667 -33.333 56 -43s48.5 -14.5 78.5 -14.5zM525 570v56c34.667 0 61.834 7.16699 81.501 21.5s29.5 33.833 29.5 58.5h-56v120h126v-92c0 -34 -7.33301 -63.333 -22 -88s-35.334 -43.5 -62.001 -56.5s-59 -19.5 -97 -19.5z" />
    <glyph glyph-name="ohorn" unicode="&#x1a1;" horiz-adv-x="533" 
d="M266 -12c-50.667 0 -93.167 9.66699 -127.5 29s-60 49.333 -77 90s-25.5 92.667 -25.5 156c0 64 8.5 116.167 25.5 156.5s42.667 70.166 77 89.499s76.833 29 127.5 29c52 0 95 -9.66699 129 -29s59.5 -49.166 76.5 -89.499s25.5 -92.5 25.5 -156.5
c0 -63.333 -8.5 -115.333 -25.5 -156s-42.5 -70.667 -76.5 -90s-77 -29 -129 -29zM266 83c27.333 0 49 5.83301 65 17.5s27.833 29.667 35.5 54s11.5 55.5 11.5 93.5v30c0 38 -3.83301 69.167 -11.5 93.5s-19.5 42.333 -35.5 54s-37.667 17.5 -65 17.5
c-26 0 -47.167 -5.83301 -63.5 -17.5s-28.333 -29.667 -36 -54s-11.5 -55.5 -11.5 -93.5v-30c0 -38 3.83301 -69.167 11.5 -93.5s19.667 -42.333 36 -54s37.5 -17.5 63.5 -17.5zM404 428v57.001c30.667 3.33301 55.334 11.666 74.001 24.999s31 32 37 56h-56v120h126v-66
c0 -40 -6.66699 -73.333 -20 -100s-33.333 -47.5 -60 -62.5s-60.334 -24.833 -101.001 -29.5z" />
    <glyph glyph-name="Uhorn" unicode="&#x1af;" horiz-adv-x="646" 
d="M322 -12c-53.333 0 -99.3311 8.66699 -137.998 26s-68.334 44.833 -89.001 82.5s-31 86.167 -31 145.5v444h125v-445c0 -48.667 11.333 -85.167 34 -109.5s55.667 -36.5 99 -36.5s76.666 12.167 99.999 36.5s35 60.833 35 109.5v445h125v-444
c0 -59.333 -10.5 -107.833 -31.5 -145.5s-50.833 -65.167 -89.5 -82.5s-85 -26 -139 -26zM511.002 630l0.000976562 56c34 0 60.833 7.16699 80.5 21.5s29.5 33.833 29.5 58.5h-55v120h126v-92c0 -34 -7.33301 -63.333 -22 -88s-35.334 -43.5 -62.001 -56.5
s-59 -19.5 -97 -19.5z" />
    <glyph glyph-name="uhorn" unicode="&#x1b0;" horiz-adv-x="522" 
d="M203 -12c-45.333 0 -81.501 12.833 -108.501 38.5s-40.5 68.5 -40.5 128.5v371h116v-347c0 -15.333 1.66699 -28.5 5 -39.5s8.33301 -20 15 -27s14.834 -12.167 24.501 -15.5s20.834 -5 33.501 -5c19.333 0 36.5 5.16699 51.5 15.5s26.833 25.166 35.5 44.499
s13 42 13 68v306h115v-526h-96l-9 69h-6c-10.667 -16.667 -23.167 -31.167 -37.5 -43.5s-30.833 -21.666 -49.5 -27.999s-39.334 -9.5 -62.001 -9.5zM382.999 470v56.0039c30.667 3.33301 55.334 11.666 74.001 24.999s31 32 37 56h-56v121h126v-66
c0 -40.667 -6.66699 -74.334 -20 -101.001s-33.333 -47.334 -60 -62.001s-60.334 -24.334 -101.001 -29.001z" />
    <glyph glyph-name="uni01C4" unicode="&#x1c4;" horiz-adv-x="1213" 
d="M68 0l0.000976562 686.001h247c64 0 117.833 -12.167 161.5 -36.5s76.834 -61.666 99.501 -111.999s34 -114.833 34 -193.5s-11.333 -143.334 -34 -194.001s-55.834 -88.334 -99.501 -113.001s-97.834 -37 -162.501 -37h-246zM194.001 107.001l116 -0.000976562
c28 0 52.667 4.16699 74 12.5s39.166 21 53.499 38s25.333 39.167 33 66.5s11.5 60 11.5 98v38c0 38.667 -3.83301 71.667 -11.5 99s-18.667 49.833 -33 67.5s-32.166 30.834 -53.499 39.501s-46 13 -74 13h-116v-472zM667.001 0v59l330 520h-307v107h484v-59l-329 -520h337
v-107h-515zM775.001 871h97l81 -110l-52 -1l79 111h97l-96 -132h-109z" />
    <glyph glyph-name="uni01C5" unicode="&#x1c5;" horiz-adv-x="1108" 
d="M68 0l0.000976562 686.001h247c64 0 117.833 -12.167 161.5 -36.5s76.834 -61.666 99.501 -111.999s34 -114.833 34 -193.5s-11.333 -143.334 -34 -194.001s-55.834 -88.334 -99.501 -113.001s-97.834 -37 -162.501 -37h-246zM194.001 107.001l116 -0.000976562
c28 0 52.667 4.16699 74 12.5s39.166 21 53.499 38s25.333 39.167 33 66.5s11.5 60 11.5 98v38c0 38.667 -3.83301 71.667 -11.5 99s-18.667 49.833 -33 67.5s-32.166 30.834 -53.499 39.501s-46 13 -74 13h-116v-472zM673.001 0v54l238 377h-222v95h383v-52l-238 -378h247
v-96h-408zM734.001 723h92l80 -110l-51 -1l79 111h92l-96 -132h-99z" />
    </font>
</defs>
</svg>
